<?xml version="1.0" encoding="UTF-8" standalone="no"?>
<!-- Created with Inkscape (http://www.inkscape.org/) -->

<svg
   width="43.014877mm"
   height="43.038567mm"
   viewBox="0 0 43.014877 43.038567"
   version="1.1"
   id="svg5"
   xml:space="preserve"
   xmlns="http://www.w3.org/2000/svg"
   xmlns:svg="http://www.w3.org/2000/svg"><defs
     id="defs2" /><g
     id="layer1"
     transform="translate(-82.719957,-96.238683)"><path
       style="stroke-width:0.09566"
       d="m 83.285633,138.69613 c -0.57777,-0.56271 -0.57777,-0.56271 -0.561238,-1.3195 0.0091,-0.41624 0.01422,-1.30393 0.01139,-1.97264 -0.01386,-3.27933 -0.013,-6.02765 0.0027,-8.45535 0.0093,-1.4453 0.0082,-5.61991 -0.0019,-7.24126 -0.0044,-0.69572 -0.0052,-1.92051 -0.0019,-2.72176 0.0033,-0.80125 0.0062,-1.80668 0.0064,-2.2343 2.24e-4,-0.4276 0.0026,-1.25818 0.0053,-1.84572 0.0027,-0.58754 0.005,-3.1676 0.0052,-5.73348 1.76e-4,-2.56588 0.0027,-5.12405 0.0055,-5.68482 0.01078,-2.102919 0.0055,-4.422027 -0.01104,-4.804124 -0.0094,-0.217533 -8.95e-4,-0.406771 0.01891,-0.42053 0.03237,-0.02251 1.840108,-0.02833 5.743926,-0.01852 1.540911,0.0039 4.96907,0.0027 6.998372,-0.0025 1.748587,-0.0044 2.942482,-0.004 5.345267,0.0021 2.52968,0.0063 6.07327,0.0091 9.76656,0.0077 1.63054,-6.51e-4 3.2264,0.0024 3.54636,0.0067 0.31996,0.0043 1.69755,0.005 3.06131,0.0016 1.36376,-0.0035 2.91677,-0.0054 3.45113,-0.0042 0.53436,0.0011 1.64055,0.0018 2.45819,0.0015 1.48662,-5.15e-4 1.48662,-5.15e-4 1.78933,0.319005 0.16648,0.175739 0.4172,0.422117 0.55714,0.547507 0.24586,0.22029 0.25436,0.2797 0.25205,1.760814 -0.01,6.201518 -0.0104,7.690338 -0.005,11.446038 0.002,1.16259 -0.005,5.8354 -0.0123,8.50221 -0.002,0.61445 -2.7e-4,1.4457 0.003,1.84722 0.005,0.61647 -0.001,8.57828 -0.0105,13.02202 -0.001,0.72139 -1.2e-4,2.25243 0.003,3.40231 0.003,1.14988 -0.0259,2.11073 -0.0645,2.13522 -0.0386,0.0245 -1.25057,0.0413 -2.69318,0.0373 -1.44261,-0.004 -4.17594,-0.005 -6.07408,-0.003 -3.85659,0.005 -4.42073,0.004 -6.70516,-0.007 -1.67982,-0.008 -4.61348,-0.007 -6.7555,0.003 -0.69551,0.003 -2.16039,0.001 -3.25528,-0.004 -1.094896,-0.005 -2.319256,-0.007 -2.720799,-0.003 -0.401544,0.003 -2.085591,0.004 -3.742331,0.002 -1.656738,-0.002 -4.548063,-0.005 -6.425169,-0.005 -3.412918,-0.001 -3.412918,-0.001 -3.990688,-0.56375 z m 3.183784,-8.94139 c 0.26687,0.002 0.988267,0.004 1.603108,0.003 1.522857,-0.001 2.938406,0.002 4.954619,0.0125 1.821406,0.009 4.644769,0.0162 6.849096,0.017 1.61826,5.4e-4 3.62949,0.006 9.61734,0.0268 2.45748,0.009 4.86266,0.0106 5.34484,0.004 0.87671,-0.0109 0.87671,-0.0109 1.32211,-1.45898 0.53763,-1.74793 0.6476,-1.58774 -1.08808,-1.58491 -0.7902,10e-4 -2.02743,0.004 -2.74941,0.006 -0.72198,0.002 -2.05655,0.005 -2.96571,0.007 -0.90916,0.002 -1.8252,-0.0113 -2.03564,-0.0302 -0.21045,-0.0188 -1.10431,-0.0341 -1.98637,-0.0339 -3.42534,5.4e-4 -4.4715,-8.1e-4 -5.83009,-0.008 -1.726598,-0.01 -2.664494,-0.0127 -6.265216,-0.0209 -1.549601,-0.004 -3.539571,-0.01 -4.422156,-0.0138 -2.84697,-0.013 -2.454643,-0.19263 -2.908012,1.3315 -0.526046,1.76847 -0.527428,1.78084 -0.196341,1.75763 0.148882,-0.0104 0.489041,-0.0171 0.755912,-0.0148 z m 2.166198,-4.66883 c 1.322604,0.0237 1.322604,0.0237 2.973154,-2.24183 1.661134,-2.28002 1.755379,-2.3873 1.814823,-2.06587 0.08584,0.4641 1.480588,4.2754 1.57051,4.29156 0.200066,0.036 2.871076,0.0462 2.921425,0.0112 0.02812,-0.0195 -0.135227,-0.50099 -0.362993,-1.06986 -0.35516,-0.88705 -2.160234,-5.49318 -2.236938,-5.70815 -0.0146,-0.0409 0.478495,-0.71767 1.095772,-1.50389 1.489388,-1.89703 2.168786,-2.76621 3.083,-3.94422 0.418678,-0.53948 0.813632,-1.02718 0.877682,-1.08378 0.21651,-0.19131 0.0389,-0.21966 -1.408756,-0.22492 -1.398927,-0.005 -1.78523,0.0794 -1.855955,0.40602 -0.04456,0.20569 -2.874745,3.95572 -2.924765,3.87533 -0.03408,-0.0548 -0.270925,-0.77133 -0.526314,-1.59236 -0.574088,-1.84559 -0.812559,-2.61588 -0.821963,-2.65506 -0.0098,-0.0409 -2.875974,-0.0524 -2.934397,-0.0117 -0.0472,0.0328 1.109369,3.14745 2.008316,5.40842 0.560455,1.40962 0.597638,1.17251 -0.364054,2.3215 -0.213898,0.25556 -1.137166,1.40169 -2.051706,2.54696 -2.414493,3.02365 -2.40046,3.00635 -2.541351,3.13111 -0.106266,0.0941 -0.08562,0.11186 0.11636,0.10014 0.135051,-0.008 0.840718,-0.004 1.56815,0.009 z m 14.967155,-0.007 c 0.0849,-0.063 2.76616,-13.12896 2.7106,-13.20887 -0.034,-0.0489 -1.09603,-0.08 -1.51488,-0.0444 -0.0857,0.007 -0.34859,0.28521 -0.58416,0.61758 -0.80203,1.13163 -1.72505,1.63791 -3.11639,1.70936 -0.79388,0.0408 -0.76512,0.0142 -0.86549,0.79808 -0.0973,0.7598 -0.0904,0.97231 0.0302,0.92475 0.10883,-0.0429 2.30693,-0.038 2.55006,0.006 0.19629,0.0353 0.19629,0.0353 -0.62878,4.57655 -0.45379,2.49769 -0.82701,4.56454 -0.8294,4.593 -0.006,0.0687 2.15704,0.0959 2.24823,0.0283 z m 7.66109,0.86831 c 4.81532,-0.36913 8.72528,-6.35419 7.36249,-11.2699 -1.35021,-4.87028 -7.40261,-5.03139 -10.87431,-0.28947 -3.82383,5.2229 -1.77562,11.9647 3.51182,11.55937 z m -1.42466,-2.81441 c -3.17345,-1.87648 -1.56594,-8.31456 2.36112,-9.45633 4.10948,-1.19479 5.89642,4.27148 2.6386,8.07154 -1.38175,1.61173 -3.58425,2.22177 -4.99972,1.38479 z M 92.121408,109.93929 c 0.774508,0.003 1.910669,0.009 2.524801,0.0124 0.614132,0.004 2.734605,0.008 4.71216,0.01 1.977551,0.002 3.814191,0.004 4.081411,0.004 0.26723,5.4e-4 1.64396,0.006 3.05941,0.0122 1.41545,0.007 3.14195,0.0126 3.83667,0.0137 0.69472,0.001 2.02793,0.006 2.96268,0.01 0.93475,0.004 2.181,0.006 2.76943,0.003 0.58844,-0.002 1.59339,0.003 2.23323,0.0124 1.94378,0.0277 1.88715,0.0452 2.00655,-0.61898 0.12276,-0.68288 0.46633,-0.44841 -3.08371,-2.10453 -1.523,-0.71048 -3.11187,-1.45298 -3.53083,-1.64999 -1.39826,-0.6575 -4.35973,-2.04557 -6.53836,-3.06459 -1.02566,-0.47973 -1.02566,-0.47973 -1.55776,-0.25552 -0.29265,0.12332 -1.02582,0.41603 -1.62926,0.65048 -0.60344,0.23444 -1.39327,0.54863 -1.75517,0.69818 -0.36191,0.14956 -0.85712,0.34963 -1.10046,0.44459 -1.10143,0.42984 -4.154782,1.638 -4.628379,1.83137 -0.288456,0.11778 -1.042251,0.41816 -1.675102,0.66753 -4.449939,1.75339 -4.789175,1.90137 -4.756109,2.07467 0.01643,0.0861 -0.01238,0.39165 -0.06403,0.67896 -0.109275,0.60784 -0.287269,0.5602 2.132835,0.57079 z"
       id="path2687" /></g></svg>
