<?xml version="1.0" encoding="UTF-8" standalone="no"?> <svg height="512pt" viewBox="0 0 512 512" width="512pt" xmlns="http://www.w3.org/2000/svg"><path d="m451 149.980469h61v30h-61zm0 0"/><path d="m0 149.980469h61v30h-61zm0 0"/><path d="m484.34375 279.480469-15 25.980469-51.960938-30 15-25.980469zm0 0"/><path d="m79.625 80.472656-51.960938-30 15-25.980468 51.960938 30zm0 0"/><path d="m417.363281 54.488281 51.960938-30 15 25.980469-51.960938 30zm0 0"/><path d="m42.660156 305.472656-15-25.980468 51.957032-30 15 25.980468zm0 0"/><path d="m220.59375 3.679688c-64.753906 13.519531-115.824219 66.644531-127.089844 132.1875-12.964844 75.460937 25.605469 144.207031 87.496094 175.925781v50.1875h-30v30h30v30h-30v30h60v60h90v-60h60v-30h-30v-30h30v-30h-30v-50.179688c54.988281-28.089843 90-84.679687 90-146.820312 0-103.988281-95.191406-183.269531-200.40625-161.300781zm50.40625 478.300781h-30v-30h30zm30-60h-90v-30h90zm8.984375-133.40625-8.984375 3.933593v69.472657h-90v-69.472657l-8.984375-3.929687c-57.121094-25-89.582031-85.707031-78.945313-147.628906 9.195313-53.511719 50.851563-96.875 103.65625-107.902344 86.359376-18.035156 164.273438 46.789063 164.273438 131.933594 0 53.542969-31.800781 102.054687-81.015625 123.59375zm0 0"/><path d="m297.714844 99.351562-23.429688-18.742187-79.496094 99.371094h60l-40.503906 50.628906 23.429688 18.742187 79.496094-99.371093h-60zm0 0"/></svg>