<?xml version='1.0' encoding='utf-8'?>
<!DOCTYPE svg PUBLIC '-//W3C//DTD SVG 1.1//EN' 'http://www.w3.org/Graphics/SVG/1.1/DTD/svg11.dtd'>
<svg version="1.1" xmlns="http://www.w3.org/2000/svg" viewBox="0 0 512 512" xmlns:xlink="http://www.w3.org/1999/xlink" enable-background="new 0 0 512 512">
  <g>
    <g>
      <path d="m480.6,235.6h-25.4-23.1c-11.3,0-20.4,9.1-20.4,20.4 0,11.3 9.1,20.4 20.4,20.4h23.1 25.4c11.3,0 20.4-9.1 20.4-20.4 0-11.3-9.1-20.4-20.4-20.4z"/>
      <path d="m256,115.7c-77.4,0-140.4,63-140.4,140.4 0,77.4 63,140.4 140.4,140.4 77.4,0 140.4-63 140.4-140.4 0-77.5-63-140.4-140.4-140.4zm0,239.8c-54.9,0-99.5-44.6-99.5-99.5 0-54.9 44.6-99.5 99.5-99.5 54.9,0 99.5,44.6 99.5,99.5 0,54.9-44.6,99.5-99.5,99.5z"/>
      <path d="m79.9,235.6h-48.5c-11.3,0-20.4,9.1-20.4,20.4 0,11.3 9.1,20.4 20.4,20.4h48.5c11.3,0 20.4-9.1 20.4-20.4-1.42109e-14-11.3-9.1-20.4-20.4-20.4z"/>
      <path d="m256,100.3c11.3,0 20.4-9.1 20.4-20.4v-48.5c0-11.3-9.1-20.4-20.4-20.4-11.3,0-20.4,9.1-20.4,20.4v48.5c2.84217e-14,11.3 9.1,20.4 20.4,20.4z"/>
      <path d="m256,411.7c-11.3,0-20.4,9.1-20.4,20.4v48.4c0,11.3 9.1,20.4 20.4,20.4 11.3,0 20.4-9.1 20.4-20.4v-48.4c0-11.2-9.1-20.4-20.4-20.4z"/>
      <path d="m395,366.1c-8-8-20.9-8-28.9,0-8,8-8,20.9 0,28.9l16.3,16.3c8,8 20.9,8 28.9,0 8-8 8-20.9 0-28.9l-16.3-16.3z"/>
      <path d="m117,145.9c8,8 20.9,8 28.9,0 8-8 8-20.9 0-28.9l-16.3-16.3c-8-8-20.9-8-28.9,0-8,8-8,20.9 0,28.9l16.3,16.3z"/>
      <path d="m395,145.9l16.3-16.3c8-8 8-20.9 0-28.9-8-8-20.9-8-28.9,0l-16.3,16.3c-8,8-8,20.9 0,28.9 8,8 20.9,8 28.9,0z"/>
      <path d="m117,366.1l-16.3,16.3c-8,8-8,20.9 0,28.9 8,8 20.9,8 28.9,0l16.3-16.3c8-8 8-20.9 0-28.9-8-8-20.9-8-28.9,0z"/>
    </g>
  </g>
</svg>
