<?xml version="1.0" encoding="iso-8859-1"?>
<!-- Generator: Adobe Illustrator 19.0.0, SVG Export Plug-In . SVG Version: 6.00 Build 0)  -->
<svg version="1.1" id="Capa_1" xmlns="http://www.w3.org/2000/svg" xmlns:xlink="http://www.w3.org/1999/xlink" x="0px" y="0px"
	 viewBox="0 0 489.536 489.536" style="enable-background:new 0 0 489.536 489.536;" xml:space="preserve">
<g>
	<path d="M0.568,147.7l7.3,118.6c5.8,78.3,69.2,141.4,148.3,149.9c12.3,46.8,62.7,83.7,122.2,70.7c29.1-7.3,49.9-25,69.7-41.6
		c44.5-43.3,87.4-43.7,115.5-37.5c11.4,2.1,22.9-4.2,25-15.6s-4.2-22.9-15.6-25c-37.5-9.4-98.2-6.2-151.9,45.8
		c-17.7,14.6-34.3,28.1-53.1,33.3c-25.8,6.7-56.7-7.6-68.9-30.9c76.2-11.1,137.1-72.9,141.8-149.1l7.3-118.6
		c1.7-10.6-5.8-21.2-19.8-21.8h-38.5V20.8c0-11.4-9.4-20.8-20.8-20.8s-20.8,9.4-20.8,20.8v105.1h-146.7V20.8
		c0-11.4-9.4-20.8-20.8-20.8s-20.8,9.4-20.8,20.8v105.1h-39.6C7.068,126.8,1.568,135.1,0.568,147.7z M49.468,263.2l-6.2-96.8h264.2
		l-6.2,96.8c-5.2,63.5-60.3,113.4-125.9,113.4C108.768,376.6,53.668,326.7,49.468,263.2z"/>
</g>
<g>
</g>
<g>
</g>
<g>
</g>
<g>
</g>
<g>
</g>
<g>
</g>
<g>
</g>
<g>
</g>
<g>
</g>
<g>
</g>
<g>
</g>
<g>
</g>
<g>
</g>
<g>
</g>
<g>
</g>
</svg>
