<?xml version="1.0" encoding="UTF-8" standalone="no"?>
<!-- Created with Inkscape (http://www.inkscape.org/) -->

<svg
  width="103.20586mm"
  height="103.01997mm"
  viewBox="0 0 103.20586 103.01997"
  version="1.1"
  id="svg5"
  xml:space="preserve"
  xmlns="http://www.w3.org/2000/svg"
><g
     transform="translate(-53.902902,-34.868175)"><path
       d="M 101.7609,137.84414 C 62.216184,134.4732 40.791182,90.666775 62.623281,57.821785 c 1.225376,-1.8435 0.936831,-1.6446 2.736384,-1.88625 17.996478,-2.4166 35.405475,-3.20793 53.822205,-2.44649 2.21038,0.0914 2.53469,0.12376 2.53469,0.25302 0,0.25482 -3.98623,4.69662 -8.68651,9.67924 -6.2326,6.60699 -8.52071,8.91566 -24.103545,24.32006 -6.5248,6.45009 -14.511472,14.448895 -17.25786,17.284095 -1.792758,1.85072 -1.792758,1.85072 -1.747437,2.93702 0.311862,7.47508 6.248193,12.88679 14.957241,13.63542 18.781081,1.61441 37.544721,1.06413 56.230511,-1.64907 1.21706,-0.17672 2.5475,-0.3776 2.95652,-0.44639 1.20614,-0.20286 1.21252,-0.19398 0.46759,0.6507 -8.83434,10.0172 -20.01566,15.89365 -33.31737,17.5103 -1.37617,0.16725 -8.10413,0.29584 -9.4548,0.1807 z m -4.546364,-20.63508 c -2.31361,-0.0638 -7.784384,-0.31299 -7.83171,-0.35672 -0.06444,-0.0595 1.351769,-1.73586 2.92146,-3.45808 6.85807,-7.52448 11.131884,-11.93409 26.555284,-27.399105 20.40351,-20.45855 22.1693,-22.2706 22.16736,-22.74808 -0.0148,-3.64774 -2.02885,-7.96411 -4.90688,-10.51632 -4.50002,-3.99057 -8.92265,-4.67581 -30.1749,-4.67529 -8.785474,2.4e-4 -10.802964,0.0423 -15.610483,0.3255 -2.473335,0.14571 -5.794362,0.39933 -7.443142,0.56843 -2.337152,0.23969 -11.633639,1.47567 -13.624308,1.81137 -1.226527,0.20683 -1.219633,0.21574 -0.448367,-0.57928 15.282115,-15.75275 39.83036,-19.85138 59.65689,-9.96043 25.82167,12.88176 36.06663,44.16371 22.87583,69.848985 -0.68282,1.32959 -1.9704,3.57588 -2.30715,4.02501 -0.0755,0.10064 -0.39458,0.18176 -1.18296,0.30068 -2.67392,0.40334 -9.32565,1.18252 -13.39097,1.56859 -11.7941,1.12005 -25.35253,1.57304 -37.255954,1.24474 z"
       /></g></svg>
