<?xml version="1.0" encoding="UTF-8" standalone="no"?>
<svg
   xmlns="http://www.w3.org/2000/svg"
   viewBox="0 0 375.468 375.468">
<g
   id="g4"
   transform="matrix(0.79823486,0,0,0.85079929,38.307151,29.126723)">
		<path
   d="M 375.467,149.363 C 379.73193,94.707954 307.883,25.032 294.315,9.928 287.661,2.859 276.536,2.522 269.466,9.177 269.208,9.42 268.715,9.928 268.715,9.928 247.73788,36.145588 224.85753,61.856801 206.54053,98.020869 195.44753,84.452869 185.941,72.818 183.125,69.661 c -6.654,-7.069 -17.779,-7.406 -24.849,-0.751 -0.258,0.243 -0.509,0.493 -0.751,0.751 -23.28,26.383 -44.883,54.199 -64.683,83.285 -7.851,-13.227 -15.445,-24.491 -19.541,-30.379 -5.361,-7.753 -15.992,-9.691 -23.744,-4.33 -1.693,1.171 -3.16,2.638 -4.33,4.33 -10.24,15.531 -46.4655612,55.04854 -45.227,95.061 -0.142,30.88 21.24056,56.6587 57.815265,58.49839 14.241,64.424 72.860025,96.53567 139.472485,90.10432 54.655,-12.081 92.75925,-58.49471 92.84525,-114.46971 -0.052,-2.856 -1.79862,-10.45382 -2.20162,-13.28082 C 339.82364,233.63571 375.639,198.287 375.467,149.363 Z M 62.128833,262.96156 c -20.791681,0.25011 -47.133358,-10.12961 -49.201344,-45.1547 -1.345665,-22.79127 19.605978,-55.43476 43.964062,-88.62647 27.322671,28.60625 43.494659,62.94378 47.567529,79.76414 5.17736,21.38175 -20.933504,53.75964 -42.330247,54.01703 z m 116.689307,90.5031 C 122.8115,351.91 83.552509,327.23661 73.008601,274.67433 88.190937,276.25866 119.436,239.813 119.467,217.63 c -0.668,-9.606 -3.098,-19.007 -7.168,-27.733 0.684,-3.758 -13.626512,-20.42154 -11.38951,-23.51754 16.539,-25.133 44.32947,-65.74679 69.20862,-85.015336 70.8862,73.497356 105.59654,147.851656 105.59654,180.363656 -4.00867,60.52717 -49.76751,91.73688 -96.89651,91.73688 z m 107.24958,-128.19376 -2.71476,-1.02147 c -10.48455,-36.76224 -44.76811,-86.78189 -64.65511,-112.60789 0,0 3.94065,-14.226327 15.43805,-30.876233 14.34344,-21.308583 30.62487,-42.537896 47.41081,-60.454536 15.8451,14.274341 82.63651,78.18094 81.10426,130.972879 -2.07469,71.48077 -76.58325,73.98725 -76.58325,73.98725 z"
   id="path2"
   style="stroke-width:1;stroke-miterlimit:4;stroke-dasharray:none"/>
	</g>
<g
   id="g12"
   transform="matrix(0.64925615,0,0,0.71016182,92.48563,29.432775)"
   style="opacity:0.69961213">
	<g
   id="g10">
		<path
   d="m 325.64602,141.80274 c -0.124,-0.328 -0.269,-0.649 -0.432,-0.959 -1.365,-2.987 -2.901,-6.059 -4.523,-9.131 -2.523,-3.981 -7.795,-5.163 -11.776,-2.64 -3.63,2.3 -4.983,6.941 -3.158,10.832 1.451,2.645 2.816,5.376 3.925,7.936 1.667,4.408 6.592,6.63 11,4.962 4.408,-1.668 6.631,-6.592 4.964,-11 z"
   id="path8" />
	</g>
</g>
<g
   id="g18"
   transform="matrix(0.79823486,0,0,0.85079929,45.207108,22.69334)"
   style="opacity:0.69961213">
	<g
   id="g16"
   transform="matrix(0.81336481,0,0,0.8346996,57.53868,12.967679)">
		<path
   d="M 311.846,107.917 C 304.763,97.506 297.254,87.949 292.219,81.72 c -2.787,-3.8 -8.127,-4.622 -11.928,-1.835 -3.8,2.787 -4.622,8.127 -1.835,11.928 0.167,0.228 0.346,0.448 0.536,0.659 4.864,5.973 12.032,15.104 18.688,25.003 2.639,3.912 7.95,4.943 11.861,2.304 3.913,-2.639 4.944,-7.95 2.305,-11.862 z"
   id="path14" />
	</g>
</g>
<g
   id="g24"
   transform="matrix(0.79823486,0,0,0.85079929,38.307151,29.126723)">
	<g
   id="g22">
		<path
   d="m 195.969,306.589 c -1.343,-4.524 -6.1,-7.103 -10.624,-5.76 -4.763,1.42 -9.707,2.138 -14.677,2.133 -4.713,0 -8.533,3.82 -8.533,8.533 0,4.713 3.82,8.533 8.533,8.533 6.616,0.013 13.198,-0.935 19.541,-2.816 4.524,-1.342 7.103,-6.098 5.76,-10.623 z"
   id="path20"
   style="opacity:0.69961213" />
	</g>
</g>
<g
   id="g30"
   transform="matrix(0.79823486,0,0,0.85079929,38.307151,29.126723)"
   style="opacity:0.69961213">
	<g
   id="g28">
		<path
   d="m 236.459,232.307 c -1.343,-4.524 -6.1,-7.103 -10.624,-5.76 -4.524,1.343 -7.103,6.1 -5.76,10.624 5.317,17.826 0.547,37.133 -12.459,50.432 -3.303,3.361 -3.256,8.764 0.105,12.068 1.505,1.479 3.504,2.348 5.612,2.439 2.28,-0.009 4.462,-0.931 6.059,-2.56 17.503,-17.638 24.04,-43.393 17.067,-67.243 z"
   id="path26" />
	</g>
</g>
<g
   id="g32"
   transform="matrix(0.93116129,0,0,0.93200131,38.311272,28.769604)">
</g>
<g
   id="g34"
   transform="matrix(0.93116129,0,0,0.93200131,38.311272,28.769604)">
</g>
<g
   id="g36"
   transform="matrix(0.93116129,0,0,0.93200131,38.311272,28.769604)">
</g>
<g
   id="g38"
   transform="matrix(0.93116129,0,0,0.93200131,38.311272,28.769604)">
</g>
<g
   id="g40"
   transform="matrix(0.93116129,0,0,0.93200131,38.311272,28.769604)">
</g>
<g
   id="g42"
   transform="matrix(0.93116129,0,0,0.93200131,38.311272,28.769604)">
</g>
<g
   id="g44"
   transform="matrix(0.93116129,0,0,0.93200131,38.311272,28.769604)">
</g>
<g
   id="g46"
   transform="matrix(0.93116129,0,0,0.93200131,38.311272,28.769604)">
</g>
<g
   id="g48"
   transform="matrix(0.93116129,0,0,0.93200131,38.311272,28.769604)">
</g>
<g
   id="g50"
   transform="matrix(0.93116129,0,0,0.93200131,38.311272,28.769604)">
</g>
<g
   id="g52"
   transform="matrix(0.93116129,0,0,0.93200131,38.311272,28.769604)">
</g>
<g
   id="g54"
   transform="matrix(0.93116129,0,0,0.93200131,38.311272,28.769604)">
</g>
<g
   id="g56"
   transform="matrix(0.93116129,0,0,0.93200131,38.311272,28.769604)">
</g>
<g
   id="g58"
   transform="matrix(0.93116129,0,0,0.93200131,38.311272,28.769604)">
</g>
<g
   id="g60"
   transform="matrix(0.93116129,0,0,0.93200131,38.311272,28.769604)">
</g>
</svg>
