<?xml version="1.0" encoding="UTF-8" standalone="no"?>
<svg
   xmlns="http://www.w3.org/2000/svg"
   viewBox="0 0 512 512">
  <path
     d="m 450.73403,167.4641 h 61 L 512,179.98047 h -61 z"
     id="path2"
     style="stroke-width:0.39975;stroke-miterlimit:4;stroke-dasharray:none"/>
  <path
     d="M -0.3543494,167.78395 H 60.645651 L 61,179.98047 H 0 Z"
     id="path4"
     style="stroke-width:0.39975;stroke-miterlimit:4;stroke-dasharray:none"/>
  <path
     d="m 474.28582,297.23257 -4.94207,8.22837 -51.96094,-30 4.94207,-8.22837 z"
     id="path6"
     style="stroke-width:0.39975;stroke-miterlimit:4;stroke-dasharray:none"/>
  <path
     d="m 89.17984,65.170573 -51.960938,-30 5.44516,-10.678385 51.960938,30 z"
     id="path8"
     style="stroke-width:0.09975;stroke-miterlimit:4;stroke-dasharray:none"/>
  <path
     d="m 417.36328,54.488281 51.96094,-30 6.0343,10.330448 -51.96094,30 z"
     id="path10"
     style="stroke-width:0.39975;stroke-miterlimit:4;stroke-dasharray:none"/>
  <path
     d="m 42.660156,305.47266 -5.877681,-9.30717 51.957032,-30 5.877681,9.30717 z"
     id="path12"
     style="stroke-width:0.39975;stroke-miterlimit:4;stroke-dasharray:none"/>
  <path
     d="M 220.59375,3.679688 C 155.83984,17.199219 104.76953,70.324219 93.503906,135.86719 80.539062,211.32812 119.10937,280.07422 181,311.79297 v 50.1875 c 0,0 -14.21056,-3.91761 -18.51626,0.5078 -6.97347,7.16734 -7.16734,23.02653 0,30 4.42541,4.3057 18.51626,-0.5078 18.51626,-0.5078 v 30 c 0,0 -14.21056,-3.91761 -18.51626,0.5078 -6.97347,7.16734 -9.99898,30.14306 0,30 24.22667,-0.34662 36.63048,-0.5078 36.63048,-0.5078 l 11.88578,60 h 90 l 11.46808,-60 c 0,0 17.09122,-0.28383 37.20255,-0.0633 9.9994,0.10965 7.08304,-22.94093 0,-30 C 345.26244,417.5239 331,421.98047 331,421.98047 v -30 c 0,0 10.91327,3.32113 16.59312,1.21023 0.81671,-0.30352 1.52521,-0.71936 2.07751,-1.27353 7.05907,-7.08304 7.08304,-22.94093 0,-30 C 345.26244,357.5239 331,361.98047 331,361.98047 V 311.80078 C 385.98828,283.71094 421,227.12109 421,164.98047 421,60.992188 325.80859,-18.289062 220.59375,3.679688 Z M 275.16368,481.98047 H 241 v -30 h 34.48891 z m 25.83632,-60 h -90 v -30 h 90 z M 309.98437,288.57422 301,292.50781 v 69.47266 h -90 v -69.47266 l -8.98438,-3.92969 c -57.12109,-25 -89.58203,-85.70703 -78.94531,-147.6289 C 132.26562,87.4375 173.92187,44.074219 226.72656,33.046875 313.08594,15.011719 391,79.835938 391,164.98047 c 0,53.54297 -31.80078,102.05469 -81.01563,123.59375 z"
     id="path14"/>
  <path
     d="M 295.22711,97.765048 275.36963,81.880397 207.99394,166.10084 h 50.85207 l -34.32845,42.90973 19.85748,15.88466 67.37568,-84.22043 h -50.85207 z m 0,0"
     id="path16"
     style="opacity:0.500395;stroke-width:0.847936;stroke-miterlimit:4;stroke-dasharray:none" />
</svg>
