<?xml version="1.0" encoding="UTF-8" standalone="no"?>
<svg
  xmlns:dc="http://purl.org/dc/elements/1.1/"
  xmlns:cc="http://creativecommons.org/ns#"
  xmlns:rdf="http://www.w3.org/1999/02/22-rdf-syntax-ns#"
  xmlns="http://www.w3.org/2000/svg"
  xmlns:sodipodi="http://sodipodi.sourceforge.net/DTD/sodipodi-0.dtd"
  xmlns:inkscape="http://www.inkscape.org/namespaces/inkscape"
  version="1.1"
  viewBox="0 0 512 512"
  enable-background="new 0 0 512 512"
  id="svg1727"
  sodipodi:docname="luminance.svg"
  inkscape:version="1.0.1 (0767f8302a, 2020-10-17)">
  <metadata
     id="metadata1733">
    <rdf:RDF>
      <cc:Work
         rdf:about="">
        <dc:format>image/svg+xml</dc:format>
        <dc:type
           rdf:resource="http://purl.org/dc/dcmitype/StillImage" />
      </cc:Work>
    </rdf:RDF>
  </metadata>
  <defs
     id="defs1731" />
  <sodipodi:namedview
     pagecolor="#ffffff"
     bordercolor="#666666"
     borderopacity="1"
     objecttolerance="10"
     gridtolerance="10"
     guidetolerance="10"
     inkscape:pageopacity="0"
     inkscape:pageshadow="2"
     inkscape:window-width="1848"
     inkscape:window-height="1016"
     id="namedview1729"
     showgrid="false"
     inkscape:zoom="2.0039062"
     inkscape:cx="256"
     inkscape:cy="256"
     inkscape:window-x="72"
     inkscape:window-y="27"
     inkscape:window-maximized="1"
     inkscape:current-layer="svg1727"
     inkscape:document-rotation="0" />
  <g
     id="g1725"
     style="stroke-width:0.1;stroke-miterlimit:4;stroke-dasharray:none"
     transform="matrix(1.0169976,0,0,1.0169976,-4.1294084,-4.1317226)">
    <g
       id="g1723"
       style="stroke-width:0.1;stroke-miterlimit:4;stroke-dasharray:none">
      <path
         d="m 480.6,235.6 h -25.4 -23.1 c -11.3,0 -20.4,9.1 -20.4,20.4 0,11.3 9.1,20.4 20.4,20.4 h 23.1 25.4 c 11.3,0 20.4,-9.1 20.4,-20.4 0,-11.3 -9.1,-20.4 -20.4,-20.4 z"
         id="path1705"
         style="stroke-width:0.1;stroke-miterlimit:4;stroke-dasharray:none" />
      <path
         d="M 79.9,235.6 H 31.4 c -11.3,0 -20.4,9.1 -20.4,20.4 0,11.3 9.1,20.4 20.4,20.4 h 48.5 c 11.3,0 20.4,-9.1 20.4,-20.4 0,-11.3 -9.1,-20.4 -20.4,-20.4 z"
         id="path1709"
         style="stroke-width:0.1;stroke-miterlimit:4;stroke-dasharray:none" />
      <path
         d="m 256,100.3 c 11.3,0 20.4,-9.1 20.4,-20.4 V 31.4 C 276.4,20.1 267.3,11 256,11 c -11.3,0 -20.4,9.1 -20.4,20.4 v 48.5 c 0,11.3 9.1,20.4 20.4,20.4 z"
         id="path1711"
         style="stroke-width:0.1;stroke-miterlimit:4;stroke-dasharray:none" />
      <path
         d="m 256,411.7 c -11.3,0 -20.4,9.1 -20.4,20.4 v 48.4 c 0,11.3 9.1,20.4 20.4,20.4 11.3,0 20.4,-9.1 20.4,-20.4 v -48.4 c 0,-11.2 -9.1,-20.4 -20.4,-20.4 z"
         id="path1713"
         style="stroke-width:0.1;stroke-miterlimit:4;stroke-dasharray:none" />
      <path
         d="m 395,366.1 c -8,-8 -20.9,-8 -28.9,0 -8,8 -8,20.9 0,28.9 l 16.3,16.3 c 8,8 20.9,8 28.9,0 8,-8 8,-20.9 0,-28.9 z"
         id="path1715"
         style="stroke-width:0.1;stroke-miterlimit:4;stroke-dasharray:none" />
      <path
         d="m 117,145.9 c 8,8 20.9,8 28.9,0 8,-8 8,-20.9 0,-28.9 l -16.3,-16.3 c -8,-8 -20.9,-8 -28.9,0 -8,8 -8,20.9 0,28.9 z"
         id="path1717"
         style="stroke-width:0.1;stroke-miterlimit:4;stroke-dasharray:none" />
      <path
         d="m 395,145.9 16.3,-16.3 c 8,-8 8,-20.9 0,-28.9 -8,-8 -20.9,-8 -28.9,0 L 366.1,117 c -8,8 -8,20.9 0,28.9 8,8 20.9,8 28.9,0 z"
         id="path1719"
         style="stroke-width:0.1;stroke-miterlimit:4;stroke-dasharray:none" />
      <path
         d="m 117,366.1 -16.3,16.3 c -8,8 -8,20.9 0,28.9 8,8 20.9,8 28.9,0 L 145.9,395 c 8,-8 8,-20.9 0,-28.9 -8,-8 -20.9,-8 -28.9,0 z"
         id="path1721"
         style="stroke-width:0.1;stroke-miterlimit:4;stroke-dasharray:none" />
    </g>
  </g>
  <circle
     style="stroke-opacity:1;stroke-width:19.7544;stroke-miterlimit:4;stroke-dasharray:none;fill-opacity:0.5"
     id="path2296"
     cx="256.34653"
     cy="257.22003"
     r="118.38827" />
</svg>
