<?xml version="1.0" encoding="UTF-8" standalone="no"?>
<svg
   xmlns="http://www.w3.org/2000/svg"
   viewBox="0 0 512 512">
<g
   id="g6"
   style="stroke-width:1;stroke-miterlimit:4;stroke-dasharray:none">
	<g
   id="g4"
   style="stroke-width:1;stroke-miterlimit:4;stroke-dasharray:none">
		<path
   d="M 341.333,288.593 V 85.333 C 341.333,38.205 303.128,0 256,0 208.872,0 170.667,38.205 170.667,85.333 V 288.592 C 144.48,312.03 128,346.091 128,384 c 0,70.693 57.308,128 128,128 70.692,0 128,-57.307 128,-128 0,-37.909 -16.48,-71.97 -42.667,-95.407 z m -84.7316,190.18834 c -59.98302,2.06405 -95.30096,-45.97002 -95.30096,-93.09802 0,-24.637 10.441,-47.492 28.455,-63.615 l 14.212,-12.72 -0.21617,-244.376005 c -0.0208,-23.56399 27.06408,-39.514238 50.62808,-39.514238 23.564,0 52.3095,15.88557 51.60011,39.43989 l 0.97111,242.859553 14.212,12.72 c 18.01407,16.12293 28.455,38.977 28.455,63.615 -0.002,47.128 -40.86237,92.89417 -93.01617,94.68882 z"
   id="path2"
   style="stroke-width:1;stroke-miterlimit:4;stroke-dasharray:none" />
	</g>
</g>
<g
   id="g12"
   style="opacity:0.649744"
   transform="matrix(1,0,0,0.60005867,0,68.25679)">
	<g
   id="g10">
		<rect
   x="234.66701"
   y="170.66701"
   width="42.667"
   height="256"
   id="rect8" />
	</g>
</g>
<g
   id="g18">
	<g
   id="g16">
		<circle
   cx="256"
   cy="384"
   r="64"
   id="circle14"
   style="opacity:0.64974417" />
	</g>
</g>
<g
   id="g20">
</g>
<g
   id="g22">
</g>
<g
   id="g24">
</g>
<g
   id="g26">
</g>
<g
   id="g28">
</g>
<g
   id="g30">
</g>
<g
   id="g32">
</g>
<g
   id="g34">
</g>
<g
   id="g36">
</g>
<g
   id="g38">
</g>
<g
   id="g40">
</g>
<g
   id="g42">
</g>
<g
   id="g44">
</g>
<g
   id="g46">
</g>
<g
   id="g48">
</g>
</svg>
