<?xml version="1.0" encoding="utf-8"?><!-- Uploaded to: SVG Repo, www.svgrepo.com, Generator: SVG Repo Mixer Tools -->
<svg width="800px" height="800px" viewBox="0 0 16 16" fill="currentColor" xmlns="http://www.w3.org/2000/svg">
  <path fill-rule="nonzero" clip-rule="nonzero" d="M7.00017 5.5C5.61936 5.5 4.5 6.61936 4.5 8.00017C4.5 9.38097 5.61936 10.5003 7.00017 10.5003C7.71226 10.5003 8.3538 10.2036 8.81009 9.725C9.09591 9.4252 9.57065 9.41386 9.87045 9.69968C10.1703 9.9855 10.1816 10.4602 9.89577 10.76C9.16817 11.5232 8.13926 12.0003 7.00017 12.0003C4.79094 12.0003 3 10.2094 3 8.00017C3 5.79094 4.79094 4 7.00017 4C8.13445 4 9.15952 4.47309 9.88658 5.23069C10.1734 5.52954 10.1636 6.00432 9.86477 6.29112C9.56591 6.57793 9.09114 6.56817 8.80433 6.26931C8.3484 5.79424 7.70928 5.5 7.00017 5.5Z"/>
  <path fill-rule="nonzero" clip-rule="nonzero" d="M6.58638 0.102166C6.8199 -0.0340553 7.10867 -0.0340553 7.34219 0.102166L12.0565 2.85217C12.4143 3.06088 12.5351 3.52011 12.3264 3.8779C12.1177 4.23569 11.6585 4.35654 11.3007 4.14783L6.96429 1.61828L1.5 4.80578V11.1942L6.96429 14.3817L11.3007 11.8522C11.6585 11.6435 12.1177 11.7643 12.3264 12.1221C12.5351 12.4799 12.4143 12.9391 12.0565 13.1478L7.34219 15.8978C7.10867 16.0341 6.8199 16.0341 6.58638 15.8978L0.372097 12.2728C0.141683 12.1384 0 11.8918 0 11.625V4.375C0 4.10825 0.141683 3.86157 0.372097 3.72717L6.58638 0.102166Z"/>
  <path fill-rule="nonzero" clip-rule="nonzero" d="M12.1799 5.25C12.456 5.25 12.6799 5.47386 12.6799 5.75V10.25C12.6799 10.5261 12.456 10.75 12.1799 10.75C11.9038 10.75 11.6799 10.5261 11.6799 10.25V5.75C11.6799 5.47386 11.9038 5.25 12.1799 5.25Z"/>
  <path fill-rule="nonzero" clip-rule="nonzero" d="M14.3201 5.25C14.5962 5.25 14.8201 5.47386 14.8201 5.75V10.25C14.8201 10.5261 14.5962 10.75 14.3201 10.75C14.044 10.75 13.8201 10.5261 13.8201 10.25V5.75C13.8201 5.47386 14.044 5.25 14.3201 5.25Z"/>
  <path fill-rule="nonzero" clip-rule="nonzero" d="M10.5 6.92993C10.5 6.65379 10.7239 6.42993 11 6.42993H15.5C15.7761 6.42993 16 6.65379 16 6.92993C16 7.20607 15.7761 7.42993 15.5 7.42993H11C10.7239 7.42993 10.5 7.20607 10.5 6.92993Z"/>
  <path fill-rule="nonzero" clip-rule="nonzero" d="M10.5 9.07007C10.5 8.79393 10.7239 8.57007 11 8.57007H15.5C15.7761 8.57007 16 8.79393 16 9.07007C16 9.34621 15.7761 9.57007 15.5 9.57007H11C10.7239 9.57007 10.5 9.34621 10.5 9.07007Z"/>
</svg>
