<?xml version="1.0" encoding="utf-8"?><!-- Uploaded to: SVG Repo, www.svgrepo.com, Generator: SVG Repo Mixer Tools -->
<svg width="800px" height="800px" viewBox="0 0 16 16" fill="currentColor" xmlns="http://www.w3.org/2000/svg">
  <path d="M5.79 1.574h3.866c.14 0 .252.11.252.246v5.186a.25.25 0 01-.252.246H6.344c-.975 0-1.766.77-1.766 1.72v1.162a.25.25 0 01-.253.243H1.867a.25.25 0 01-.253-.246V6.177a.25.25 0 01.252-.246H7.98c.418 0 .757-.33.757-.737a.747.747 0 00-.757-.738H5.537V1.82a.25.25 0 01.253-.246zm5.632 2.592V1.82c0-.95-.79-1.72-1.766-1.72H5.79c-.976 0-1.767.77-1.767 1.72v2.636H1.867C.89 4.456.1 5.226.1 6.176v3.955c0 .95.79 1.72 1.766 1.72h2.46c.085 0 .17-.006.252-.017v2.346c0 .95.79 1.72 1.766 1.72h3.866c.976 0 1.767-.77 1.767-1.72v-2.636h2.156c.976 0 1.767-.77 1.767-1.72V5.868c0-.95-.79-1.72-1.767-1.72h-2.458c-.086 0-.17.005-.253.017zm-5.33 5.974V8.994a.25.25 0 01.252-.246h3.312c.976 0 1.766-.77 1.766-1.72V5.866a.25.25 0 01.253-.243h2.458c.14 0 .253.11.253.246v3.954a.25.25 0 01-.252.246H8.02a.747.747 0 00-.757.737c0 .408.339.738.757.738h2.442v2.636a.25.25 0 01-.253.246H6.344a.25.25 0 01-.252-.246v-4.04z" />
</svg>
