<svg id="Livello_1" data-name="Livello 1" xmlns="http://www.w3.org/2000/svg" viewBox="0 0 100 100">
  <defs>
    <style>
      .cls-1, .cls-2 {
        fill: none;
        stroke-width: 4px;
      }

      .cls-1, .cls-2, .cls-3 {
        stroke: #231f20;
        stroke-miterlimit: 10;
      }

      .cls-1 {
        stroke-linecap: square;
      }

      .cls-3 {
        fill: #231f20;
      }
    </style>
  </defs>
  <title>allarme effrazione</title>
  <g>
    <path class="cls-1" d="M44.12,20.72a8.16,8.16,0,0,1,11.76,0"/>
    <path class="cls-1" d="M38.85,15.46a15.6,15.6,0,0,1,22.3,0"/>
    <path class="cls-1" d="M32.79,9.54a24,24,0,0,1,34.42.28"/>
  </g>
  <g>
    <rect class="cls-2" x="21.73" y="29.54" width="37.09" height="67.5"/>
    <rect class="cls-2" x="58.82" y="29.54" width="19.45" height="67.5"/>
  </g>
  <path class="cls-3" d="M39.92,42.16l3.67-2.59.32,4.51,6,.91-5,3.41,3,5.23-5.77-1.77L40.05,62.24,37.7,51.86l-5.77,1.77,3-5.23-2-2.88,3-1.44-.44-6Z"/>
</svg>
