<svg id="Livello_1" data-name="Livello 1" xmlns="http://www.w3.org/2000/svg" viewBox="0 0 100 100">
  <defs>
    <style>
      .cls-1 {
        fill: #231f20;
      }

      .cls-2 {
        fill: none;
        stroke: #231f20;
        stroke-miterlimit: 10;
        stroke-width: 2px;
      }
    </style>
  </defs>
  <title>allarme porta finestra</title>
  <g>
    <path class="cls-1" d="M68.4,89.26H31.92V26.14H68.4Zm-32.49-4H64.42V30.13H35.91Z"/>
    <path class="cls-1" d="M80.28,20.14l-4,2.46L69.15,27V87.89l7.14,3.32,4,1.84,12.84,6V12.21ZM89.13,46V92.76l-8.85-4.1-4-1.85-3.16-1.46V29.24l3.16-1.95,4-2.46,8.85-5.47V46Z"/>
    <line class="cls-2" x1="78.56" y1="24.83" x2="78.56" y2="89.26"/>
    <line class="cls-2" x1="71.8" y1="46.36" x2="90.76" y2="41.01"/>
    <line class="cls-2" x1="71.8" y1="66.01" x2="90.76" y2="68.64"/>
  </g>
  <g>
    <path class="cls-1" d="M7,12.21V99l12.84-6,4-1.84,7.14-3.32V27L23.78,22.6l-4-2.46Zm4,29.69V19.36l8.85,5.47,4,2.46,3.16,1.95V85.35l-3.16,1.46-4,1.85-8.85,4.1V41.9Z"/>
    <line class="cls-2" x1="21.51" y1="24.83" x2="21.51" y2="89.26"/>
    <line class="cls-2" x1="28.27" y1="46.36" x2="9.31" y2="41.01"/>
    <line class="cls-2" x1="28.27" y1="66.01" x2="9.31" y2="68.64"/>
  </g>
  <g>
    <path class="cls-1" d="M55.81,24.07l-1.38-1.43a6.14,6.14,0,0,0-8.86,0l-1.38,1.43-2.87-2.76,1.38-1.43a10.1,10.1,0,0,1,14.6,0l1.38,1.43Z"/>
    <path class="cls-1" d="M61.08,18.83,59.69,17.4a13.57,13.57,0,0,0-19.38,0l-1.39,1.43L36.07,16l1.39-1.42a17.53,17.53,0,0,1,25.08,0L63.93,16Z"/>
    <path class="cls-1" d="M67.08,13.21l-1.37-1.44a21.91,21.91,0,0,0-31.44-.26l-1.4,1.42L30,10.13l1.4-1.42A25.88,25.88,0,0,1,68.59,9L70,10.46Z"/>
  </g>
</svg>
