<svg id="Livello_1" data-name="Livello 1" xmlns="http://www.w3.org/2000/svg" viewBox="0 0 100 100">
  <defs>
    <style>
      .cls-1 {
        fill: #231f20;
      }

      .cls-2 {
        fill: #010101;
      }
    </style>
  </defs>
  <title>allarme incendio</title>
  <g>
    <path class="cls-1" d="M55.81,24.07l-1.38-1.43a6.14,6.14,0,0,0-8.86,0l-1.38,1.43-2.87-2.76,1.38-1.43a10.1,10.1,0,0,1,14.6,0l1.38,1.43Z"/>
    <path class="cls-1" d="M61.08,18.83,59.69,17.4a13.57,13.57,0,0,0-19.38,0l-1.39,1.43L36.07,16l1.39-1.42a17.53,17.53,0,0,1,25.08,0L63.93,16Z"/>
    <path class="cls-1" d="M67.08,13.21l-1.37-1.44a21.91,21.91,0,0,0-31.44-.26l-1.4,1.42L30,10.13l1.4-1.42A25.88,25.88,0,0,1,68.59,9L70,10.46Z"/>
  </g>
  <g id="surface1">
    <path class="cls-2" d="M38.75,99.14c-7.78-25.66,8.67-35,8.67-35-1.15,13.7,6.64,24.37,6.64,24.37,2.86-.86,8.32-4.9,8.32-4.9,0,4.9-2.88,15.57-2.88,15.57a41.09,41.09,0,0,0,9.06-10.66,38.6,38.6,0,0,0,4.21-10.11c2.79-12-4.11-23.07-6-26A34.73,34.73,0,0,1,58.1,77.49a4.77,4.77,0,0,0,.75-1.17c1.09-2.18,2.85-7.86,1.82-21C59.22,36.86,42.5,29.07,42.5,29.07c1.44,11.25-2.88,13.84-13,35.19S38.75,99.14,38.75,99.14Z"/>
  </g>
</svg>
