<svg id="Livello_1" data-name="Livello 1" xmlns="http://www.w3.org/2000/svg" viewBox="0 0 100 100">
  <defs>
    <style>
      .cls-1 {
        fill: #231f20;
      }
    </style>
  </defs>
  <title>allarme allagamento</title>
  <path class="cls-1" d="M50.23,98.6l-1.06,0c-16.71-.63-27.38-15.65-31-24.43C9,52.45,21.34,22.71,48,1.83L49.19.9l1.22.87C78.56,21.8,92.29,52.24,83,74.16h0C78.84,84.11,66.71,98.6,50.23,98.6ZM49.31,5.91c-24.46,19.71-35.75,47-27.5,66.7,4.28,10.25,14.72,21.49,27.51,22,15,.59,26.18-12.83,30-22h0C87.75,52.71,75.13,24.85,49.31,5.91Z"/>
  <path class="cls-1" d="M73.88,60.76A25.4,25.4,0,0,1,72,69.5c-2.77,6.56-11,17-21.48,17.09v4C63,90.46,72.37,78.86,75.67,71.05A29.57,29.57,0,0,0,77.9,60.76Z"/>
</svg>
