<svg id="Livello_1" data-name="Livello 1" xmlns="http://www.w3.org/2000/svg" viewBox="0 0 100 100">
  <defs>
    <style>
      .cls-1 {
        fill: #231f20;
      }
    </style>
  </defs>
  <title>allarme gas</title>
  <g>
    <ellipse class="cls-1" cx="49.65" cy="14.57" rx="33.7" ry="8.93"/>
    <path class="cls-1" d="M19.41,22.61A78.36,78.36,0,0,0,25.08,30a100.85,100.85,0,0,0,24.57,2.73A101,101,0,0,0,74.22,30a79.78,79.78,0,0,0,5.69-7.41c-7.24,3.24-18.79,4.91-30.26,4.91S26.65,25.84,19.41,22.61Z"/>
    <path class="cls-1" d="M29.65,35.09c2.37,2.49,4.58,4.66,6.21,6.18A130.49,130.49,0,0,0,49.65,42a130.63,130.63,0,0,0,13.79-.69c1.94-1.81,4.08-3.93,6.21-6.18a114.65,114.65,0,0,1-20,1.64A114.56,114.56,0,0,1,29.65,35.09Z"/>
  </g>
  <path class="cls-1" d="M49.65,58.1a22.61,22.61,0,0,1-16.43-7l-1.38-1.45,2.89-2.77,1.38,1.45a18.77,18.77,0,0,0,27.08,0l1.38-1.45,2.89,2.77L66.07,51.1A22.57,22.57,0,0,1,49.65,58.1Z"/>
  <path class="cls-1" d="M49.65,77.05A41.37,41.37,0,0,1,19.84,64.51l-1.4-1.43,2.86-2.79,1.4,1.42a37.69,37.69,0,0,0,53.9,0L78,60.29l2.86,2.79-1.4,1.43A41.37,41.37,0,0,1,49.65,77.05Z"/>
  <path class="cls-1" d="M49.65,98.36A62.61,62.61,0,0,1,4.77,79.59l-1.4-1.43,2.85-2.8,1.4,1.42a59,59,0,0,0,84.74-.7l1.38-1.45,2.89,2.76-1.38,1.45A62.47,62.47,0,0,1,49.65,98.36Z"/>
</svg>
