<svg id="Livello_1" data-name="Livello 1" xmlns="http://www.w3.org/2000/svg" viewBox="0 0 100 100">
  <defs>
    <style>
      .cls-1 {
        fill: none;
        stroke: #231f20;
        stroke-miterlimit: 10;
        stroke-width: 4px;
      }
    </style>
  </defs>
  <title>umidita</title>
  <g>
    <path class="cls-1" d="M25.09,42.57c1.35-2.26,2.9-4.74,4.64-7.52A149.3,149.3,0,0,1,49,10.34,175.18,175.18,0,0,1,68.34,35.05c8.32,12.86,12.47,19.29,12.36,27-.21,13.66-12.09,32.66-31,32.82-15.27.13-26-12.1-29.94-24"/>
    <path class="cls-1" d="M4.36,56.52C4.26,53,6,50.17,9.46,44.62A66.36,66.36,0,0,1,18,33.74a76.73,76.73,0,0,1,8.5,10.88c3.66,5.66,5.49,8.49,5.44,11.9-.09,6-5.32,14.37-13.64,14.44S4.55,62.58,4.36,56.52Z"/>
    <path class="cls-1" d="M58.67,21.54A112.65,112.65,0,0,1,71.82,5.1,132.41,132.41,0,0,1,86.34,23.69c6.26,9.68,9.39,14.52,9.3,20.34C95.51,52.11,90,62.66,80.7,66.87"/>
    <path class="cls-1" d="M53.49,83.22a27.42,27.42,0,0,1-13.43,3.63"/>
    <path class="cls-1" d="M69.51,62.82A38,38,0,0,1,58.68,79.51"/>
    <path class="cls-1" d="M83.92,33.86c1.32,2.06,2.45,3.89,3.39,5.56"/>
    <path class="cls-1" d="M71,16A132.65,132.65,0,0,1,81.51,30.13"/>
  </g>
</svg>
