<svg id="b51f69e5-526f-4253-9cf5-0406a96e5df4" data-name="Livello 1" xmlns="http://www.w3.org/2000/svg" width="100" height="100" viewBox="0 0 100 100">
  <path d="M50.49,90.58c-5.32,0-10.71-2.11-10.71-6.13V82.61H61.2v1.84C61.2,88.47,55.82,90.58,50.49,90.58Z" style="fill: #231f20"/>
  <rect x="41.94" y="75.2" width="17.11" height="4.08" style="fill: #231f20"/>
  <path d="M61.2,72.06H39.78V65.87a23.94,23.94,0,1,1,21.43,0ZM43,68.84H58v-5l.95-.43a20.72,20.72,0,1,0-16.9,0l1,.43Z" style="fill: #231f20"/>
  <rect x="68.87" y="17.1" width="12.79" height="3.68" transform="translate(8.65 58.76) rotate(-45)" style="fill: #231f20"/>
  <rect x="18.35" y="67.62" width="12.79" height="3.68" transform="translate(-41.87 37.84) rotate(-45)" style="fill: #231f20"/>
  <rect x="22.9" y="12.55" width="3.68" height="12.79" transform="translate(-6.15 23.04) rotate(-45)" style="fill: #231f20"/>
  <rect x="73.42" y="63.07" width="3.68" height="12.79" transform="translate(-27.07 73.56) rotate(-45)" style="fill: #231f20"/>
  <rect x="79.33" y="42.36" width="12.79" height="3.68" style="fill: #231f20"/>
  <rect x="7.88" y="42.36" width="12.79" height="3.68" style="fill: #231f20"/>
  <rect x="48.16" y="2.08" width="3.68" height="12.79" style="fill: #231f20"/>
</svg>
