<svg id="Livello_1" data-name="Livello 1" xmlns="http://www.w3.org/2000/svg" viewBox="0 0 100 100">
  <defs>
    <style>
      .cls-1 {
        fill: #231f20;
      }

      .cls-2 {
        fill: #010101;
      }
    </style>
  </defs>
  <title>allarme movimento</title>
  <g>
    <path class="cls-1" d="M90.5,1.87l-.06,2A6.15,6.15,0,0,0,92.2,8.35a6.08,6.08,0,0,0,4.45,1.83l2,0,0,4-2,0a10.05,10.05,0,0,1-7.33-3,10,10,0,0,1-2.9-7.39l.06-2Z"/>
    <path class="cls-1" d="M83.07,1.79l0,2a13.43,13.43,0,0,0,3.88,9.77A13.43,13.43,0,0,0,96.6,17.6h2v4h-2a17.43,17.43,0,0,1-12.55-5.25A17.44,17.44,0,0,1,79,3.7l0-2Z"/>
    <path class="cls-1" d="M74.85,1.44l-.06,2a21.72,21.72,0,0,0,6.26,16.06A21.75,21.75,0,0,0,96.63,26h2v4h-2a25.68,25.68,0,0,1-18.41-7.75,25.63,25.63,0,0,1-7.41-19l.07-2Z"/>
  </g>
  <g>
    <path class="cls-2" d="M38.77,40A6.75,6.75,0,1,0,32,33.21,6.76,6.76,0,0,0,38.77,40Z"/>
    <path class="cls-2" d="M57.32,65.26V58.51a17.27,17.27,0,0,1-14.67-8.27l-3.21-5.39a6.57,6.57,0,0,0-5.74-3.21,6.76,6.76,0,0,0-2.53.51L13.46,49.4V65.26h6.75V54l5.9-2.37L20.88,78.76,4.35,75.55,3,82.13s23.62,4.55,23.62,4.72L29.82,72l7.26,6.75V99h6.75V73.53l-6.92-6.92,2-10.12A23.55,23.55,0,0,0,57.32,65.26Z"/>
  </g>
</svg>
