<svg id="Livello_1" data-name="Livello 1" xmlns="http://www.w3.org/2000/svg" viewBox="0 0 100 100">
  <defs>
    <style>
      .cls-1 {
        fill: #231f20;
      }

      .cls-2 {
        fill: none;
        stroke: #231f20;
        stroke-miterlimit: 10;
        stroke-width: 4px;
      }
    </style>
  </defs>
  <title>socket</title>
  <g>
    <path class="cls-1" d="M50,9.44A40.56,40.56,0,1,1,9.44,50,40.61,40.61,0,0,1,50,9.44m0-7A47.56,47.56,0,1,0,97.56,50,47.57,47.57,0,0,0,50,2.44Z"/>
    <g>
      <path class="cls-1" d="M27.14,44.85A5.15,5.15,0,1,1,22,50a5.15,5.15,0,0,1,5.15-5.15m0-4A9.15,9.15,0,1,0,36.28,50a9.15,9.15,0,0,0-9.14-9.15Z"/>
      <path class="cls-1" d="M72.86,44.85A5.15,5.15,0,1,1,67.72,50a5.16,5.16,0,0,1,5.14-5.15m0-4A9.15,9.15,0,1,0,82,50a9.15,9.15,0,0,0-9.15-9.15Z"/>
    </g>
    <polyline class="cls-2" points="55.48 6.8 55.48 20.71 44.52 20.71 44.52 6.8"/>
    <polyline class="cls-2" points="55.48 93.4 55.48 79.48 44.52 79.48 44.52 93.4"/>
  </g>
</svg>
