<?xml version="1.0" encoding="utf-8"?>
<!-- Generator: Adobe Illustrator 19.1.0, SVG Export Plug-In . SVG Version: 6.00 Build 0)  -->
<svg version="1.1" id="Layer_1" xmlns="http://www.w3.org/2000/svg" xmlns:xlink="http://www.w3.org/1999/xlink" x="0px" y="0px"
	 width="384.7px" height="89.9px" viewBox="0 0 384.7 89.9" style="enable-background:new 0 0 384.7 89.9;" xml:space="preserve">
<g>
	<g>
		<rect x="0" y="3.8" style="fill:#000000;"  width="85" height="85"/>
    <rect x="7.9" y="72.9" style="fill:#FFFFFF;" width="31.9" height="5.3"/>
	</g>
	<g>
		<path d="M111.8,3.6h38.8c10.8,0,19.1,3,24.7,8.6c4.7,4.7,7.3,11.4,7.3,19.4v0.2c0,13.7-7.4,22.3-18.2,26.3l20.7,30.3h-21.8
			l-18.2-27.1h-14.7v27.1h-18.7V3.6z M149.3,44.8c9.1,0,14.3-4.8,14.3-12v-0.2c0-8-5.6-12.1-14.7-12.1h-18.5v24.4H149.3z"/>
		<path d="M186.7,0h19.4v16.4h-19.4V0z M187.2,23.5h18.4v65h-18.4V23.5z"/>
		<path d="M208.9,56.1v-0.2c0-21.7,14.2-33.6,29.6-33.6c9.8,0,15.9,4.5,20.2,9.7V0h18.4v88.5h-18.4v-9.3
			c-4.5,6.1-10.7,10.5-20.2,10.5C223.3,89.7,208.9,77.8,208.9,56.1z M258.9,56.1v-0.2c0-10.8-7.2-17.9-15.8-17.9
			c-8.6,0-15.9,7-15.9,17.9v0.2c0,10.8,7.3,17.9,15.9,17.9C251.8,74.1,258.9,66.9,258.9,56.1z"/>
		<path d="M279.3,56.4v-0.2c0-18.5,13.2-33.8,32.1-33.8c21.7,0,31.6,16.8,31.6,35.3c0,1.5-0.1,3.2-0.2,4.8h-45.2
			c1.8,8.4,7.6,12.7,15.9,12.7c6.2,0,10.7-1.9,15.8-6.7l10.5,9.3c-6.1,7.5-14.8,12.1-26.5,12.1C293.7,89.9,279.3,76.2,279.3,56.4z
			 M325.1,50.9c-1.1-8.2-5.9-13.8-13.7-13.8c-7.6,0-12.6,5.5-14.1,13.8H325.1z"/>
		<path d="M345.6,23.5H364v13.1c3.8-9,9.8-14.8,20.7-14.3v19.3h-1c-12.2,0-19.8,7.4-19.8,22.9v24h-18.4V23.5z"/>
	</g>
	<g>
		<path style="fill:#FFFFFF;" d="M7.9,14h9.7c2.7,0,4.8,0.8,6.2,2.2c1.2,1.2,1.8,2.9,1.8,4.9v0.1c0,3.4-1.9,5.6-4.6,6.6l5.2,7.6
			h-5.5l-4.6-6.8h-3.7v6.8H7.9V14z M17.3,24.3c2.3,0,3.6-1.2,3.6-3v-0.1c0-2-1.4-3-3.7-3h-4.6v6.1H17.3z"/>
		<path style="fill:#FFFFFF;" d="M28.8,14h8.3c6.7,0,11.3,4.6,11.3,10.6v0.1c0,6-4.6,10.6-11.3,10.6h-8.3V14z M33.5,18.2V31h3.6
			c3.8,0,6.4-2.6,6.4-6.3v-0.1c0-3.8-2.6-6.4-6.4-6.4H33.5z"/>
	</g>
</g>
</svg>
