<?xml version="1.0" encoding="utf-8"?><!--Generator: Adobe Illustrator 16.0.0, SVG Export Plug-In . SVG Version: 6.00 Build 0)--><!DOCTYPE svg PUBLIC "-//W3C//DTD SVG 1.1//EN" "http://www.w3.org/Graphics/SVG/1.1/DTD/svg11.dtd"><svg version="1.1" id="cog5" xmlns="http://www.w3.org/2000/svg" xmlns:xlink="http://www.w3.org/1999/xlink" x="0px" y="0px" viewBox="0 0 96 96" enable-background="new 0 0 96 96" xml:space="preserve"><style>.spinning-cog4416 {
			animation: spinning-cog4416 1.3s infinite ease;
			transform-origin: 50% 50%;
			/* Ensures the cog rotates around its center */
		}

		@keyframes spinning-cog4416 {
			0% {
				transform: rotate(0deg);
			}

			100% {
				transform: rotate(360deg);
			}
		}</style><path class="spinning-cog4416" fill="currentColor" d="M87.311,48c0-0.983-0.076-1.947-0.147-2.912c3.839-1.227,6.879-2.397,8.837-3.441l-0.704-3.963
	c-2.198-0.316-5.456-0.385-9.481-0.236c-0.535-1.89-1.203-3.719-2.007-5.48c3.179-2.452,5.629-4.58,7.106-6.225l-2.027-3.484
	c-2.176,0.449-5.263,1.491-8.997,2.998c-1.148-1.582-2.397-3.084-3.767-4.476c2.141-3.381,3.709-6.211,4.53-8.257l-3.106-2.586
	c-1.886,1.157-4.419,3.175-7.399,5.849c-1.614-1.095-3.332-2.041-5.107-2.891c0.848-3.912,1.346-7.108,1.413-9.313l-3.811-1.375
	c-1.377,1.731-3.066,4.499-4.952,8.036c-1.884-0.475-3.805-0.854-5.785-1.047C51.354,5.249,50.723,2.088,50.027,0h-4.055
	c-0.695,2.088-1.327,5.249-1.878,9.196c-1.98,0.194-3.902,0.573-5.785,1.047c-1.886-3.537-3.575-6.305-4.952-8.036l-3.811,1.375
	c0.066,2.205,0.565,5.401,1.413,9.313c-1.775,0.85-3.493,1.796-5.108,2.891c-2.979-2.674-5.513-4.692-7.398-5.849l-3.106,2.586
	c0.821,2.045,2.39,4.875,4.529,8.257c-1.369,1.392-2.617,2.894-3.766,4.476c-3.734-1.507-6.821-2.549-8.997-2.998l-2.028,3.484
	c1.479,1.645,3.928,3.772,7.106,6.225c-0.803,1.762-1.471,3.591-2.006,5.48c-4.026-0.148-7.283-0.08-9.481,0.236L0,41.646
	c1.958,1.044,4.998,2.215,8.837,3.441C8.765,46.053,8.688,47.017,8.688,48c0,0.982,0.076,1.947,0.148,2.912
	C4.998,52.139,1.958,53.309,0,54.354l0.704,3.963c2.198,0.316,5.455,0.385,9.481,0.236c0.535,1.89,1.203,3.719,2.006,5.48
	c-3.179,2.452-5.628,4.58-7.106,6.225l2.028,3.484c2.176-0.448,5.263-1.49,8.997-2.998c1.148,1.582,2.396,3.085,3.766,4.477
	c-2.141,3.381-3.708,6.211-4.529,8.257l3.106,2.585c1.886-1.156,4.419-3.176,7.398-5.849c1.615,1.095,3.333,2.04,5.108,2.891
	c-0.848,3.911-1.347,7.108-1.413,9.312l3.811,1.376c1.377-1.731,3.066-4.499,4.952-8.037c1.883,0.475,3.805,0.854,5.785,1.049
	c0.551,3.946,1.183,7.107,1.878,9.195h4.055c0.695-2.088,1.327-5.249,1.878-9.195c1.98-0.194,3.901-0.574,5.785-1.049
	c1.885,3.538,3.575,6.306,4.952,8.037l3.811-1.376c-0.067-2.204-0.565-5.401-1.413-9.312c1.775-0.851,3.493-1.796,5.108-2.891
	c2.979,2.673,5.513,4.692,7.398,5.849l3.106-2.585c-0.821-2.046-2.39-4.876-4.529-8.257c1.368-1.392,2.617-2.895,3.766-4.477
	c3.734,1.508,6.821,2.55,8.997,2.998l2.027-3.484c-1.478-1.645-3.928-3.772-7.106-6.225c0.804-1.762,1.472-3.591,2.007-5.48
	c4.025,0.148,7.283,0.08,9.481-0.236L96,54.354c-1.958-1.045-4.998-2.215-8.837-3.441C87.234,49.947,87.311,48.982,87.311,48z
	 M48,15c17.213,0,31.331,13.183,32.849,30h-6.024C73.33,31.502,61.896,21,48,21c-3.417,0-6.673,0.661-9.682,1.819l-3.043-5.27
	C39.191,15.91,43.489,15,48,15z M27,48c0-7.115,3.565-13.404,8.995-17.205l3.031,5.251C35.388,38.783,33,43.096,33,48
	s2.388,9.217,6.026,11.954l-3.031,5.251C30.565,61.404,27,55.115,27,48z M44.464,62.536C45.603,62.812,46.775,63,48,63
	c7.257,0,13.308-5.153,14.697-12h6.063C67.297,61.159,58.559,69,48,69c-2.321,0-4.549-0.394-6.638-1.092L44.464,62.536z M42,48
	c0-3.314,2.686-6,6-6c3.313,0,6,2.686,6,6s-2.687,6-6,6C44.686,54,42,51.314,42,48z M62.697,45c-1.39-6.847-7.44-12-14.697-12
	c-1.225,0-2.397,0.188-3.536,0.464l-3.102-5.372C43.451,27.394,45.679,27,48,27c10.559,0,19.297,7.84,20.761,18H62.697z M15,48
	c0-11.57,5.967-21.734,14.979-27.625l2.998,5.192C25.755,30.413,21,38.649,21,48s4.755,17.588,11.977,22.434l-2.998,5.191
	C20.967,69.734,15,59.57,15,48z M48,81c-4.511,0-8.809-0.91-12.725-2.549l3.043-5.27C41.327,74.339,44.583,75,48,75
	c13.896,0,25.33-10.502,26.824-24h6.024C79.331,67.817,65.213,81,48,81z"/></svg>