<?xml version="1.0" encoding="UTF-8" standalone="no"?>
<svg
   xmlns="http://www.w3.org/2000/svg"
   width="40mm"
   height="20mm"
   viewBox="0 0 40 20"
   version="1.1"
   id="svg1002">
  <defs
     id="defs996" />
  <g
     id="layer1">
    <g
       id="g865"
       transform="translate(-79.964352,-101.85945)"
       style="font-style:normal;font-weight:normal;font-size:10.5833px;line-height:1.25;font-family:sans-serif;fill-opacity:1;stroke:none;stroke-width:0.264583">
      <path
         d="m 80.728492,107.07618 c -0.137583,-0.0106 -0.275166,-0.0212 -0.433915,-0.0212 -1.756828,0 -3.704155,1.31233 -3.704155,2.80457 0,0.70908 0.433915,0.97367 1.132413,0.97367 -0.03175,-0.0952 -0.148166,-0.21167 -0.148166,-0.73025 0,-1.11125 0.550331,-1.92616 1.481662,-2.30716 l -1.534579,7.19664 h 1.523995 l 0.846664,-3.97932 h 1.555745 l -0.846664,3.97932 h 1.523995 l 1.682745,-7.91631 h -1.523995 l -0.677331,3.15383 h -1.555745 z"
         id="path837" />
      <path
         d="m 86.288032,109.64793 c -2.18016,0 -2.899824,2.51882 -2.899824,3.7359 0,1.2065 0.709081,1.67216 1.693328,1.67216 1.301745,0 2.370659,-1.23824 2.539991,-3.20674 0.761998,-0.127 1.460496,-0.4445 1.862661,-0.87841 l -0.09525,-0.28575 c -0.455082,0.3175 -1.142997,0.635 -1.629829,0.635 -0.03175,0 -0.07408,0 -0.116416,-0.0106 -0.01058,-1.10066 -0.455082,-1.66157 -1.354662,-1.66157 z m -0.783164,4.41323 c -0.402166,0 -0.539749,-0.15875 -0.539749,-0.85724 0,-1.03717 0.656165,-2.921 1.407579,-2.921 0.264583,0 0.380999,0.15875 0.402165,0.59267 -0.190499,0.0741 -0.328082,0.26458 -0.328082,0.56091 0,0.21167 0.0635,0.39159 0.285749,0.4445 -0.158749,1.24883 -0.709081,2.18016 -1.227662,2.18016 z"
         id="path839" />
      <path
         d="m 93.849304,111.16134 c 0,0.67733 -0.476249,1.97908 -0.476249,2.69874 0,0.60325 0.328083,1.19591 1.24883,1.19591 0.560914,0 1.375829,-0.22225 1.968493,-1.95791 H 96.14588 c -0.232833,0.55033 -0.423332,0.93133 -0.888997,0.93133 -0.317499,0 -0.423332,-0.17991 -0.423332,-0.4445 0,-0.59266 0.507998,-1.87324 0.507998,-2.73049 0,-0.84666 -0.497415,-1.19591 -1.174746,-1.19591 -0.391582,0 -0.963081,0.11642 -1.481662,0.89958 -0.137583,-0.70908 -0.560915,-0.91016 -1.079497,-0.91016 -0.370415,0 -0.846664,0.0952 -1.291162,0.60324 l 0.116416,-0.55033 h -1.523995 l -1.12183,5.29165 h 1.523995 l 0.719665,-3.39724 c 0.158749,-0.52916 0.444498,-0.98424 0.857247,-0.98424 0.232832,0 0.317499,0.23283 0.317499,0.46566 0,0.0953 -0.01058,0.17992 -0.03175,0.26458 l -0.772581,3.65124 h 1.523995 l 0.719665,-3.39724 c 0.158749,-0.52916 0.444498,-0.97366 0.825497,-0.97366 0.253999,0 0.380999,0.1905 0.380999,0.53975 z"
         id="path841" />
      <path
         d="m 97.584712,112.85467 c 1.269996,-0.0741 2.434158,-0.98425 2.434158,-2.19075 0,-0.52916 -0.222248,-1.01599 -1.164162,-1.01599 -2.169576,0 -2.857491,2.51882 -2.857491,3.72532 0,1.19591 0.656165,1.68274 1.640412,1.68274 0.846664,0 1.608661,-0.35983 1.830911,-1.56633 -0.338666,0.29634 -0.846664,0.56092 -1.24883,0.56092 -0.529165,0 -0.656164,-0.4445 -0.656164,-0.86783 0,-0.11642 0.01058,-0.22225 0.02117,-0.32808 z m 1.619245,-2.21191 c 0,0.86783 -0.719664,1.66157 -1.545162,1.70391 0.22225,-0.99483 0.751415,-2.13783 1.28058,-2.13783 0.201082,0 0.264582,0.16933 0.264582,0.43392 z"
         id="path843" />
      <path
         d="m 105.01931,110.55809 c -0.40216,1.65099 -1.11124,2.36008 -1.69332,2.36008 -0.55034,0 -1.00542,-0.62442 -1.00542,-1.72508 0,-1.70391 1.0795,-3.57716 2.41299,-3.57716 0.6985,0 0.74084,0.51858 0.74084,0.65617 0,0.30691 -0.20109,0.82549 -0.46567,0.89958 0.20108,0.23283 0.56092,0.27516 0.73025,0.27516 0.53975,0 0.74083,-0.43391 0.74083,-0.93133 0,-1.10066 -0.99483,-1.46049 -1.98966,-1.46049 -2.33891,0 -3.79941,2.01082 -3.79941,4.15923 0,1.651 0.85725,2.62466 2.06375,2.62466 0.62441,0 1.17474,-0.26458 1.60866,-0.82549 l -0.52917,2.3389 c -0.24341,1.09008 -0.60324,1.30175 -1.00541,1.30175 -0.51858,0 -0.71966,-0.34925 -0.71966,-0.70908 0,-0.40217 0.24341,-0.81491 0.76199,-0.81491 0.17992,0 0.45509,0.0529 0.61384,0.27516 0.0423,-0.15875 0.0635,-0.30691 0.0635,-0.42333 0,-0.65617 -0.62442,-0.70908 -0.91017,-0.70908 -1.03716,0 -1.41816,0.73025 -1.41816,1.46049 0,0.71967 0.381,1.44992 1.64041,1.44992 1.48166,0 2.19074,-1.016 2.53999,-2.63525 l 0.86783,-3.97932 z"
         id="path845" />
      <path
         d="m 108.03341,113.278 c 0,-0.127 0.0106,-0.27517 0.0212,-0.42333 1.27,-0.0741 2.43416,-0.99483 2.43416,-2.19075 0,-0.52916 -0.22225,-1.01599 -1.16416,-1.01599 -2.16958,0 -2.85749,2.51882 -2.85749,3.72532 0,1.19591 0.65616,1.68274 1.65099,1.68274 1.40758,0 2.30716,-0.98424 2.91041,-1.95791 h -0.35983 c -0.52917,0.60325 -1.03717,1.06892 -1.87325,1.06892 -0.508,0 -0.76199,-0.16934 -0.76199,-0.889 z m 1.64041,-2.63524 c 0,0.85724 -0.70908,1.65099 -1.53458,1.70391 0.22225,-1.03717 0.74083,-2.13783 1.26999,-2.13783 0.20109,0 0.26459,0.16933 0.26459,0.43392 z"
         id="path847" />
      <path
         d="m 113.72474,111.16134 c 0,0.67733 -0.47625,1.97908 -0.47625,2.69874 0,0.60325 0.32808,1.19591 1.24883,1.19591 0.56092,0 1.37583,-0.22225 1.96849,-1.95791 h -0.44449 c -0.23284,0.55033 -0.42334,0.93133 -0.889,0.93133 -0.3175,0 -0.42333,-0.17991 -0.42333,-0.4445 0,-0.59266 0.508,-1.87324 0.508,-2.73049 0,-0.84666 -0.49742,-1.19591 -1.17475,-1.19591 -0.32808,0 -0.79375,0.0847 -1.23825,0.59266 l 0.11642,-0.55033 h -1.524 l -1.12183,5.29165 h 1.524 l 0.71966,-3.39724 c 0.15875,-0.52916 0.4445,-0.97366 0.8255,-0.97366 0.254,0 0.381,0.1905 0.381,0.53975 z"
         id="path849" />
      <path
         d="m 116.96174,108.29326 c 0,0.46567 0.37042,0.83608 0.83608,0.83608 0.46567,0 0.84667,-0.37041 0.84667,-0.83608 0,-0.46566 -0.381,-0.84666 -0.84667,-0.84666 -0.46566,0 -0.83608,0.381 -0.83608,0.84666 z m -0.21167,1.40758 -0.71966,3.39724 c -0.0529,0.254 -0.0847,0.48683 -0.0847,0.68792 0,0.88899 0.49742,1.26999 1.13242,1.26999 0.5715,0 1.61924,-0.23283 2.22249,-1.95791 h -0.4445 c -0.15875,0.52917 -0.53975,0.93133 -0.9525,0.93133 -0.29633,0 -0.43391,-0.0952 -0.43391,-0.39158 0,-0.0952 0.0106,-0.20108 0.0423,-0.33867 l 0.762,-3.59832 z"
         id="path851" />
      <path
         d="m 120.3016,112.85467 c 1.26999,-0.0741 2.43416,-0.98425 2.43416,-2.19075 0,-0.52916 -0.22225,-1.01599 -1.16417,-1.01599 -2.16957,0 -2.85749,2.51882 -2.85749,3.72532 0,1.19591 0.65617,1.68274 1.64042,1.68274 0.84666,0 1.60866,-0.35983 1.83091,-1.56633 -0.33867,0.29634 -0.84667,0.56092 -1.24883,0.56092 -0.52917,0 -0.65617,-0.4445 -0.65617,-0.86783 0,-0.11642 0.0106,-0.22225 0.0212,-0.32808 z m 1.61924,-2.21191 c 0,0.86783 -0.71966,1.66157 -1.54516,1.70391 0.22225,-0.99483 0.75142,-2.13783 1.28058,-2.13783 0.20108,0 0.26458,0.16933 0.26458,0.43392 z"
         id="path853" />
    </g>
  </g>
</svg>
