<?xml version="1.0" encoding="UTF-8" standalone="no"?>
<svg
  xmlns="http://www.w3.org/2000/svg"
  version="1.0"
  width="203.000000pt"
  height="225.000000pt"
  viewBox="0 0 203.000000 225.000000"
  id="svg970">
  <g
     transform="translate(0.000000,225.000000) scale(0.100000,-0.100000)"
     id="g968"
     stroke="none">
    <path
       d="m 950,2129.5124 c -62,-131 -61,-229 3,-292 18,-17 66,-51 107,-75 96,-54 146,-102 176,-165 28,-59 32,-147 9,-202 -8,-20 -13,-38 -10,-41 11,-11 93,70 120,119 27,49 30,63 30,145 0,87 -2,94 -44,180 -40,81 -57,102 -198,242 -84,83 -156,152 -159,152 -3,0 -18,-28 -34,-63 z"
       id="path956" />
    <path
       d="m 721,1858.5124 c -83,-87 -124,-174 -124,-265 0,-75 17,-118 67,-163 33,-32 105,-72 113,-65 2,3 -3,19 -11,36 -47,91 18,252 128,316 15,9 11,16 -33,62 -40,41 -51,61 -56,97 -4,25 -11,46 -15,46 -4,0 -35,-29 -69,-64 z"
       id="path958" />
    <path
       d="m 893.85498,1302.8614 c -55.35476,-49.1307 -103.15125,-14.2264 -115.15125,-8.4814 -27.1828,33.157 -15.30467,-2.4864 9.65234,-37.3422 46.86224,-84.2193 125.65981,-51.545 177.65981,-12.7665 l 42.00002,31.5973 54,-38.7785 c 45,-31.5973 64,-37.3422 110,-31.5973 22.6093,6.1869 47.311,33.6593 56.311,48.0217 30.9365,77.3289 23.3768,53.2025 0.072,38.1514 -23.6344,-8.9487 -71.4686,-33.2419 -114.6665,11.1955 -12.37,1.5327 -20.437,38.3999 -106.7166,40.5104 -91.72263,-2.3344 -103.71358,-38.6505 -113.16082,-40.5104 z"
       id="path960"
       style="stroke-width:1.19843209" />
    <path
       d="m 543,1142.7265 c -91,-12 -145,-61 -159,-146.00001 -8,-53.00015 21,-121.00015 67,-154.00015 29,-20 45,-24 109,-23 66,0 89,6 185,46 61,25 234,97 385,159.00016 l 275,114 -60,2 c -251.5409,-37.197 -325.9082,-62.4908 -802,2 z"
       id="path962"/>
    <path
       d="m 1447.1503,1100.4144 c -41,-15 -97.8573,-59.4733 -334.4624,-137.00016 -87.1611,-20.39071 -41.2329,-11.60941 90,-71.00006 200,-95 276,-109 349,-64 62,38 92,153.00014 57,226.00022 -29,61 -87.5376,73 -161.5376,46 z"
       id="path964"/>
    <path
       d="m 868.84224,848.12707 c -75.42473,-37 -61.17284,-31.74207 -157.38758,-71.60935 -21.50735,-8.4086 -48.90767,-16.53046 -76.61009,-22.93906 -5.84562,-1.35231 -3.80782,-20.40823 22.08866,-99.55514 55.03206,-120.94992 201.78566,-64.61794 224.97965,-254.5275 48.44535,-119.08729 215.84942,-57.86657 23.57087,-168.12112 -74.09015,-42.48409 201.69535,-27.82329 136.69835,-78.56478 -20.7884,0.54194 -38.8644,6.50866 -64.1683,-1.98044 -30.28829,-16.28629 35.137,-24.44204 35.3801,-35.70315 l -61.39633,-6.5853 C 769.62529,83.305292 797.13247,87.46793 670.96324,38.127073 c 68.8594,0.716553 92.54269,40.717604 247.75075,48.422699 l 94.08241,8.832629 c 194.3376,13.630899 -62.72685,34.272599 29.3857,57.427719 154.6469,38.87491 -84.75387,47.7701 21.6263,106.86638 136.055,75.58127 -30.5085,218.90297 270.2838,341.86995 65.0837,32.4594 60.1819,91.33388 39.4426,139.60681 -3.2292,7.51632 -12.3084,12.89293 -18.4248,14.97381 -21.2964,7 -84.2982,36 -140.2013,64 -91.397,46 -200.179,85.85309 -201.0663,83.85309 -0.8874,0 -69.57543,-17.85309 -145.00016,-55.85309 z"
       id="path966"
       style="stroke-width:0.94199246" />
    <ellipse
       style="stroke-width:7.40794039;stroke-linecap:round;stroke-linejoin:round;stroke-miterlimit:4;stroke-dasharray:none;stroke-opacity:0"
       id="path978"
       cx="902.0451"
       cy="-1490.7139"
       transform="scale(1,-1)"
       rx="38.486385"
       ry="22.133305" />
    <ellipse
       style="stroke-width:7.40794039;stroke-linecap:round;stroke-linejoin:round;stroke-miterlimit:4;stroke-dasharray:none;stroke-opacity:0"
       id="path978-6"
       cx="1111.1255"
       cy="-1492.8676"
       rx="38.486385"
       ry="22.133305"
       transform="scale(1,-1)" />
  </g>
</svg>
