<?xml version="1.0" encoding="UTF-8" standalone="no"?>
<svg
   xmlns:dc="http://purl.org/dc/elements/1.1/"
   xmlns:cc="http://creativecommons.org/ns#"
   xmlns:rdf="http://www.w3.org/1999/02/22-rdf-syntax-ns#"
   xmlns:svg="http://www.w3.org/2000/svg"
   xmlns="http://www.w3.org/2000/svg"
   xmlns:sodipodi="http://sodipodi.sourceforge.net/DTD/sodipodi-0.dtd"
   xmlns:inkscape="http://www.inkscape.org/namespaces/inkscape"
   width="15mm"
   height="8mm"
   viewBox="0 0 15 7.9999998"
   version="1.1"
   style="stroke: #000"
   id="svg1699"
   sodipodi:docname="yot-logo.svg"
   inkscape:version="1.0.2 (394de47547, 2021-03-26)">
  <metadata
     id="metadata14">
    <rdf:RDF>
      <cc:Work
         rdf:about="">
        <dc:format>image/svg+xml</dc:format>
        <dc:type
           rdf:resource="http://purl.org/dc/dcmitype/StillImage" />
      </cc:Work>
    </rdf:RDF>
  </metadata>
  <defs
     id="defs12" />
  <sodipodi:namedview
     pagecolor="#ffffff"
     bordercolor="#666666"
     borderopacity="1"
     objecttolerance="10"
     gridtolerance="10"
     guidetolerance="10"
     inkscape:pageopacity="0"
     inkscape:pageshadow="2"
     inkscape:window-width="3111"
     inkscape:window-height="1358"
     id="namedview10"
     showgrid="false"
     showguides="true"
     inkscape:guide-bbox="true"
     inkscape:zoom="26.19375"
     inkscape:cx="21.46255"
     inkscape:cy="17.526015"
     inkscape:window-x="146"
     inkscape:window-y="167"
     inkscape:window-maximized="0"
     inkscape:current-layer="svg1699"
     inkscape:document-rotation="0">
    <sodipodi:guide
       position="12.080808,0.85858581"
       orientation="0,-1"
       id="guide850" />
    <sodipodi:guide
       position="12.070707,6.9797976"
       orientation="0,-1"
       id="guide852" />
  </sodipodi:namedview>
  <g
     id="g865">
    <path
       d="m 8.9525144,6.1192001 q -0.3912473,0.2242785 -0.9021113,0.2242785 -0.5108642,0 -0.9046032,-0.2242785 Q 6.754553,5.8924232 6.5352555,5.4737646 6.3159574,5.055106 6.3159574,4.5043724 q 0,-0.5457508 0.2093296,-0.9644143 0.2093299,-0.4186585 0.603069,-0.652905 0.3962308,-0.2342515 0.9220471,-0.2342515 0.525816,0 0.9195552,0.2342515 0.3962315,0.2342465 0.6055599,0.652905 0.209331,0.4186635 0.209331,0.9644143 0,0.5507336 -0.2192976,0.9693922 Q 9.3462535,5.8924232 8.9525144,6.1192001 Z M 8.9898925,3.4726765 Q 8.6459931,3.0764467 8.0504009,3.0764467 q -0.5955927,0 -0.9419833,0.3962298 -0.343899,0.3962299 -0.343899,1.0316959 0,0.6454304 0.343899,1.0316923 0.3438985,0.3837736 0.9419833,0.3837736 0.5980845,0 0.9419835,-0.3837736 0.3438992,-0.3862619 0.3438992,-1.0316923 0,-0.635466 -0.3463911,-1.0316959 z"
       style="line-height:1.25;fill:none;fill-opacity:1;stroke-width:0.132292;stroke-miterlimit:4;stroke-dasharray:none;stroke-opacity:1"
       id="path873" />
    <path
       d="M 11.616071,6.9828778 V 1.8825286 H 9.6635913 V 1.2051354 h 4.6301617 v 0.6773932 h -1.960446 v 5.1003492 z"
       style="line-height:1.25;fill:none;fill-opacity:1;stroke-width:0.132292;stroke-miterlimit:4;stroke-dasharray:none;stroke-opacity:1"
       id="path875" />
    <g
       id="g846">
      <path
         d="m 1.0961605,1.1850987 h 0.7442463 v 1.3180562 c 0,0.2912387 0.1060664,0.5016264 0.3189619,0.6298055 0.2123883,0.1278722 0.5572687,0.191133 1.0338787,0.191133 0.474167,0 0.817824,-0.063227 1.0302121,-0.191133 C 4.4363558,3.0047813 4.5424222,2.7943936 4.5424222,2.5031549 V 1.1850987 h 0.7442453 v 1.6964824 c 0,0.3543427 -0.177201,0.6219207 -0.531604,0.8027323 -0.351958,0.1808067 -0.8725636,0.2712135 -1.5618161,0.2712135 -0.6916963,0 -1.214746,-0.090406 -1.5691488,-0.2712135 C 1.2721394,3.5035018 1.0961605,3.2359238 1.0961605,2.8815811 Z"
         style="line-height:1.25;fill:none;fill-opacity:1;stroke-width:0.132292;stroke-linecap:square;stroke-linejoin:miter;stroke-miterlimit:4;stroke-dasharray:none;stroke-opacity:1;paint-order:normal"
         id="path892" />
      <rect
         style="line-height:1.25;fill:none;fill-opacity:1;stroke-width:0.132292;stroke-linecap:square;stroke-linejoin:miter;stroke-miterlimit:4;stroke-dasharray:none;stroke-opacity:1;paint-order:normal"
         id="rect956"
         width="0.81015581"
         height="2.3458321"
         x="2.7720513"
         y="4.6393337" />
    </g>
  </g>
</svg>
