<?xml version="1.0" standalone="no"?>
<!DOCTYPE svg PUBLIC "-//W3C//DTD SVG 20010904//EN"
 "http://www.w3.org/TR/2001/REC-SVG-20010904/DTD/svg10.dtd">
<svg version="1.0" xmlns="http://www.w3.org/2000/svg"
 width="600.000000pt" height="600.000000pt" viewBox="0 0 600.000000 600.000000"
 preserveAspectRatio="xMidYMid meet">
<metadata>
Created by potrace 1.11, written by Peter Selinger 2001-2013
</metadata>
<g transform="translate(0.000000,600.000000) scale(0.100000,-0.100000)"
fill="#000000" stroke="none">
<path d="M2907 5827 c-10 -12 -20 -32 -23 -44 -4 -13 -10 -23 -15 -23 -5 0 -9
-5 -9 -11 0 -7 -15 -44 -34 -83 -35 -73 -85 -212 -93 -256 -2 -14 -8 -39 -12
-57 -9 -31 -8 -214 1 -243 23 -77 33 -102 45 -111 7 -6 13 -17 13 -23 0 -24
127 -139 211 -191 14 -9 82 -52 145 -93 10 -6 26 -15 34 -19 18 -8 148 -94
181 -120 13 -10 55 -50 94 -88 149 -148 214 -315 210 -536 -2 -87 -8 -119 -34
-196 -34 -99 -37 -123 -19 -123 36 0 212 174 281 278 25 37 58 96 73 132 27
63 28 71 31 270 4 264 1 275 -124 525 -30 60 -64 122 -74 136 -10 15 -19 32
-19 38 0 6 -4 11 -9 11 -5 0 -18 14 -28 30 -42 66 -525 556 -784 797 l-24 22
-18 -22z"/>
<path d="M2277 5009 c-185 -186 -274 -314 -336 -485 -36 -98 -42 -133 -46
-259 -7 -193 32 -303 148 -423 60 -61 62 -63 151 -121 79 -51 162 -89 173 -78
3 4 -7 42 -23 84 -38 104 -38 105 -38 208 1 147 52 296 149 429 55 77 162 185
183 186 4 1 20 11 36 24 41 34 32 54 -69 161 -108 114 -140 169 -161 276 -29
142 -24 142 -167 -2z"/>
<path d="M2665 4028 c-64 -14 -81 -64 -32 -93 82 -48 219 13 157 70 -26 23
-78 33 -125 23z"/>
<path d="M3210 4033 c-50 -19 -64 -63 -27 -87 47 -32 155 -22 178 15 28 47
-80 98 -151 72z"/>
<path d="M2945 3583 c-61 -9 -143 -27 -160 -36 -11 -5 -45 -29 -76 -52 -109
-85 -169 -102 -260 -76 -25 7 -61 26 -80 41 -18 16 -35 28 -37 26 -3 -4 44
-99 71 -141 6 -11 33 -41 58 -66 46 -46 101 -69 164 -69 70 0 180 55 321 161
l42 31 92 -67 c142 -102 181 -120 269 -122 86 -2 107 6 172 69 32 32 54 67 76
121 30 73 31 96 3 62 -6 -8 -36 -23 -67 -35 -101 -38 -172 -28 -251 34 -96 74
-115 86 -156 97 -48 13 -152 26 -181 22z"/>
<path d="M1707 3044 c-2 -3 -31 -11 -63 -20 -247 -64 -383 -328 -293 -571 47
-127 162 -239 265 -260 37 -7 278 -7 324 1 59 10 138 31 146 39 4 4 14 7 23 7
9 1 34 9 56 20 22 11 47 19 56 20 8 0 19 4 25 8 5 5 68 32 139 62 129 52 247
101 295 122 14 6 34 14 45 18 11 5 38 16 60 25 106 46 125 53 135 52 3 -1 19
6 35 15 28 15 184 82 195 84 7 1 57 22 95 39 16 8 59 25 95 40 36 14 74 30 85
35 81 37 164 67 169 63 3 -4 6 -1 6 5 0 7 7 12 15 12 8 0 23 4 33 9 26 14 108
50 166 72 28 11 65 26 81 33 17 7 50 21 75 31 59 24 66 31 33 32 -16 1 -48 2
-73 3 -46 2 -86 -2 -200 -21 -36 -6 -78 -13 -95 -15 -16 -1 -43 -5 -60 -8 -50
-10 -87 -15 -150 -21 -33 -4 -71 -8 -85 -11 -136 -24 -642 -24 -875 1 -27 3
-75 7 -105 10 -136 12 -213 21 -260 29 -14 3 -52 7 -85 10 -33 4 -76 9 -95 12
-87 13 -208 23 -213 18z"/>
<path d="M4190 2945 c-36 -12 -123 -51 -195 -87 -173 -85 -349 -158 -525 -217
-36 -12 -74 -26 -85 -31 -22 -10 -126 -42 -193 -60 -24 -6 -42 -16 -40 -22 3
-7 33 -22 69 -35 35 -12 71 -26 79 -30 8 -3 18 -7 23 -8 4 -2 9 -4 12 -5 3 -1
8 -3 13 -5 28 -8 106 -41 287 -125 455 -209 678 -227 850 -69 71 66 129 203
140 336 10 112 -33 248 -99 312 -74 71 -207 90 -336 46z"/>
<path d="M2935 2391 c-92 -27 -237 -88 -365 -151 -63 -32 -140 -68 -170 -81
-30 -13 -57 -25 -60 -28 -3 -4 -12 -7 -20 -9 -8 -2 -38 -14 -66 -27 -28 -13
-91 -35 -140 -50 -143 -43 -133 -35 -122 -96 14 -76 67 -229 91 -264 43 -61
112 -116 202 -162 179 -91 225 -125 280 -206 37 -54 69 -143 80 -219 13 -89
89 -171 219 -237 47 -24 87 -48 89 -55 3 -7 -6 -26 -20 -41 -26 -28 -186 -135
-201 -135 -15 0 -54 -48 -48 -59 4 -6 24 -15 45 -21 33 -9 71 -16 236 -44 53
-9 76 -15 107 -28 24 -11 29 -18 25 -41 -2 -15 -3 -27 -3 -27 65 13 131 52
123 73 -3 7 -37 32 -75 55 -104 62 -106 87 -9 153 73 49 110 87 137 139 20 39
25 57 40 150 23 139 45 219 74 270 67 119 181 215 355 301 55 27 105 49 109
49 22 0 104 75 124 113 32 64 29 174 -7 252 -16 32 -30 44 -70 56 -15 4 -166
74 -313 145 -160 78 -282 134 -288 134 -3 0 -30 11 -60 25 -30 14 -60 25 -67
25 -7 0 -17 4 -22 8 -12 10 -128 52 -141 51 -5 0 -36 -9 -69 -18z"/>
<path d="M2955 413 c-11 -2 -32 -9 -47 -15 -23 -9 -25 -13 -15 -29 6 -10 17
-19 23 -19 16 0 91 -39 79 -41 -21 -4 -32 -6 -105 -14 -41 -5 -79 -9 -85 -10
-23 -2 -131 -18 -147 -21 -9 -1 -38 -6 -65 -10 -26 -3 -57 -8 -68 -10 -11 -3
-36 -7 -55 -10 -19 -3 -44 -8 -55 -11 -11 -4 -24 -8 -30 -9 -18 -3 -257 -94
-274 -104 -31 -18 72 2 169 32 52 17 102 32 110 33 8 2 15 4 15 5 0 2 55 15
110 26 37 7 59 10 155 19 103 9 166 14 227 20 29 3 79 7 110 10 67 5 126 13
166 21 41 8 19 28 -59 54 -35 12 -71 29 -80 38 -14 14 -14 16 8 28 l23 13 -25
1 c-14 1 -34 3 -45 4 -11 2 -29 1 -40 -1z"/>
</g>
</svg>
