<!DOCTYPE svg PUBLIC "-//W3C//DTD SVG 1.1//EN" "http://www.w3.org/Graphics/SVG/1.1/DTD/svg11.dtd">
<svg xmlns="http://www.w3.org/2000/svg" xmlns:xlink="http://www.w3.org/1999/xlink" version="1.1" x="0" y="0" width="16" height="16" overflow="auto" preserveAspectRatio="xMidYMid" baseProfile="tiny" space="preserve">
  <path d="M1391 390 L1391 390 L1390 391 Q1375 409 1355.5 428.5 Q1336 448 1293 486 Q1250 524 1199.5 548 Q1149 572 1104 572 Q1056 572 1021 550.5 Q986 529 970 496.5 Q954 464 947 437.5 Q940 411 940 390 L940 390 L940 390 Q940 369 947 342 Q954 315 970 283 Q986 251 1021 229.5 Q1056 208 1104 208 Q1149 208 1199.5 232 Q1250 256 1293.5 294.5 Q1337 333 1355.5 351.5 Q1374 370 1390 389 z M2103 390 Q2103 411 2096 437.5 Q2089 464 2073 496.5 Q2057 529 2022 550.5 Q1987 572 1939 572 Q1894 572 1843.5 548 Q1793 524 1749.5 485.5 Q1706 447 1687.5 428.5 Q1669 410 1653 391 L1652 390 L1652 390 L1652 390 L1653 389 Q1668 371 1687.5 351.5 Q1707 332 1750 294 Q1793 256 1843.5 232 Q1894 208 1939 208 Q1987 208 2022 229.5 Q2057 251 2073 283 Q2089 315 2096 342 Q2103 369 2103 390 z M2304 393 Q2304 324 2280 255.5 Q2256 187 2212 129.5 Q2168 72 2096 36 Q2024 0 1937 0 Q1869 0 1803 24 Q1737 48 1689.5 82.5 Q1642 117 1605 152 Q1568 187 1545.5 211 Q1523 235 1520 235 Q1517 235 1497.5 211 Q1478 187 1443 152.5 Q1408 118 1361.5 83 Q1315 48 1246.5 24 Q1178 0 1103 0 Q1038 0 979.5 22.5 Q921 45 883 76.5 Q845 108 816.5 143 Q788 178 775.5 202.5 Q763 227 763 235 Q763 227 754.5 208.5 Q746 190 729.5 163 Q713 136 682.5 108 Q652 80 613.5 55.5 Q575 31 517 15.5 Q459 0 392 0 Q321 0 262 15.5 Q203 31 163.5 55 Q124 79 93 111.5 Q62 144 45 175 Q28 206 17.5 238.5 Q7 271 3.5 292.5 Q0 314 0 329 L217 329 Q217 274 266 221.5 Q315 169 392 169 Q471 169 526.5 236 Q582 303 582 384 Q582 464 530 520.5 Q478 577 392 577 Q387 577 379 576.5 Q371 576 348 571.5 Q325 567 305 559.5 Q285 552 263 535 Q241 518 229 495 L34 495 L136 1078 L738 1078 L738 904 L293 904 Q266 745 252 656 Q256 656 268.5 669 Q281 682 300 697.5 Q319 713 365 726 Q411 739 473 739 Q535 739 587 718.5 Q639 698 669.5 669 Q700 640 721 610.5 Q742 581 752 560.5 Q762 540 763 540 Q764 540 776 565 Q788 590 812.5 625.5 Q837 661 873 697 Q909 733 970 758 Q1031 783 1103 783 Q1175 783 1243.5 758 Q1312 733 1359 697.5 Q1406 662 1442.5 626 Q1479 590 1499 565 Q1519 540 1520 540 Q1522 540 1542 565 Q1562 590 1598 625.5 Q1634 661 1681.5 697 Q1729 733 1797 758 Q1865 783 1937 783 Q2029 783 2101.5 748 Q2174 713 2217 655 Q2260 597 2282 530 Q2304 463 2304 393 z" pathLength="0" fill="White" transform="translate(-2.285714, -0.9017849) scale(0.008928572, -0.008928572) translate(0, -1536)" />
</svg>