<!DOCTYPE svg PUBLIC "-//W3C//DTD SVG 1.1//EN" "http://www.w3.org/Graphics/SVG/1.1/DTD/svg11.dtd">
<svg xmlns="http://www.w3.org/2000/svg" xmlns:xlink="http://www.w3.org/1999/xlink" version="1.1" x="0" y="0" width="16" height="16" overflow="auto" preserveAspectRatio="xMidYMid" baseProfile="tiny" space="preserve">
  <path d="M1792 192 L1792 64 Q1792 38 1773 19 Q1754 0 1728 0 L64 0 Q38 0 19 19 Q0 38 0 64 L0 192 Q0 218 19 237 Q38 256 64 256 L1728 256 Q1754 256 1773 237 Q1792 218 1792 192 z M1792 576 L1792 448 Q1792 422 1773 403 Q1754 384 1728 384 L448 384 Q422 384 403 403 Q384 422 384 448 L384 576 Q384 602 403 621 Q422 640 448 640 L1728 640 Q1754 640 1773 621 Q1792 602 1792 576 z M1792 960 L1792 832 Q1792 806 1773 787 Q1754 768 1728 768 L192 768 Q166 768 147 787 Q128 806 128 832 L128 960 Q128 986 147 1005 Q166 1024 192 1024 L1728 1024 Q1754 1024 1773 1005 Q1792 986 1792 960 z M1792 1344 L1792 1216 Q1792 1190 1773 1171 Q1754 1152 1728 1152 L576 1152 Q550 1152 531 1171 Q512 1190 512 1216 L512 1344 Q512 1370 531 1389 Q550 1408 576 1408 L1728 1408 Q1754 1408 1773 1389 Q1792 1370 1792 1344 z" pathLength="0" fill="White" transform="translate(0, 0.5714296) scale(0.008928572, -0.008928572) translate(0, -1536)" />
</svg>