<!DOCTYPE svg PUBLIC "-//W3C//DTD SVG 1.1//EN" "http://www.w3.org/Graphics/SVG/1.1/DTD/svg11.dtd">
<svg xmlns="http://www.w3.org/2000/svg" xmlns:xlink="http://www.w3.org/1999/xlink" version="1.1" x="0" y="0" width="16" height="16" overflow="auto" preserveAspectRatio="xMidYMid" baseProfile="tiny" space="preserve">
  <path d="M1792 192 L1792 64 Q1792 38 1773 19 Q1754 0 1728 0 L64 0 Q38 0 19 19 Q0 38 0 64 L0 192 Q0 218 19 237 Q38 256 64 256 L1728 256 Q1754 256 1773 237 Q1792 218 1792 192 z M1408 576 L1408 448 Q1408 422 1389 403 Q1370 384 1344 384 L448 384 Q422 384 403 403 Q384 422 384 448 L384 576 Q384 602 403 621 Q422 640 448 640 L1344 640 Q1370 640 1389 621 Q1408 602 1408 576 z M1664 960 L1664 832 Q1664 806 1645 787 Q1626 768 1600 768 L192 768 Q166 768 147 787 Q128 806 128 832 L128 960 Q128 986 147 1005 Q166 1024 192 1024 L1600 1024 Q1626 1024 1645 1005 Q1664 986 1664 960 z M1280 1344 L1280 1216 Q1280 1190 1261 1171 Q1242 1152 1216 1152 L576 1152 Q550 1152 531 1171 Q512 1190 512 1216 L512 1344 Q512 1370 531 1389 Q550 1408 576 1408 L1216 1408 Q1242 1408 1261 1389 Q1280 1370 1280 1344 z" pathLength="0" fill="White" transform="translate(0, 0.5714296) scale(0.008928572, -0.008928572) translate(0, -1536)" />
</svg>