<!DOCTYPE svg PUBLIC "-//W3C//DTD SVG 1.1//EN" "http://www.w3.org/Graphics/SVG/1.1/DTD/svg11.dtd">
<svg xmlns="http://www.w3.org/2000/svg" xmlns:xlink="http://www.w3.org/1999/xlink" version="1.1" x="0" y="0" width="16" height="16" overflow="auto" preserveAspectRatio="xMidYMid" baseProfile="tiny" space="preserve">
  <path d="M1551 60 Q1566 66 1577 63 Q1588 60 1588 45.5 Q1588 31 1573 12 Q1560 -4 1529 -31.5 Q1498 -59 1433.5 -99.5 Q1369 -140 1292.5 -173.5 Q1216 -207 1104.5 -231.5 Q993 -256 875 -256 Q756 -256 637 -225 Q518 -194 428 -148.5 Q338 -103 255.5 -44.5 Q173 14 123 60.5 Q73 107 39 148 Q31 157 29 164.5 Q27 172 30 176.5 Q33 181 38 183.5 Q43 186 49.5 185.5 Q56 185 61 181 Q253 64 361 15 Q750 -161 1160 -75 Q1350 -35 1551 60 z M1758 175 Q1769 159 1760.5 105.5 Q1752 52 1732 3 Q1698 -80 1647 -121 Q1630 -135 1621 -130 Q1612 -125 1621 -106 Q1642 -61 1665.5 15.5 Q1689 92 1672 114 Q1667 121 1656.5 125.5 Q1646 130 1629.5 131.5 Q1613 133 1600 134 Q1587 135 1565 134 Q1543 133 1533.5 132 Q1524 131 1502.5 129 Q1481 127 1480 127 Q1474 126 1467 125.5 Q1460 125 1456 124.5 Q1452 124 1447.5 123.5 Q1443 123 1440.5 123 L1435 123 L1430.5 123 Q1430.5 123 1427.5 123.5 Q1424.5 124 1425.5 125 L1424 128 Q1418 144 1471 168 Q1524 192 1574 198 Q1620 205 1682 199 Q1744 193 1758 175 z M1364 618 Q1364 587 1377.5 554 Q1391 521 1409.5 496 Q1428 471 1447 450 Q1466 429 1480 418 L1493 407 L1266 183 Q1226 220 1187 258.5 Q1148 297 1129 317 L1110 337 Q1099 348 1085 370 Q1047 311 987.5 267.5 Q928 224 860 204 Q792 184 720 181 Q648 178 582.5 202 Q517 226 465 267.5 Q413 309 382 380.5 Q351 452 351 543 Q351 627 379 697 Q407 767 451 813.5 Q495 860 557.5 896.5 Q620 933 680 953.5 Q740 974 810 988 Q880 1002 929.5 1006.5 Q979 1011 1029 1013 L1029 1140 Q1029 1205 1008 1237 Q974 1290 887 1290 Q881 1290 870.5 1289 Q860 1288 830 1277 Q800 1266 774 1247.5 Q748 1229 718 1188 Q688 1147 670 1092 L376 1119 Q376 1179 398 1238 Q420 1297 465 1351 Q510 1405 573 1446 Q636 1487 724.5 1511.5 Q813 1536 915 1536 Q1015 1536 1096 1511 Q1177 1486 1225.5 1449.5 Q1274 1413 1306.5 1366.5 Q1339 1320 1351.5 1280.5 Q1364 1241 1364 1207 L1364 618 z M692 597 Q692 511 762 464 Q828 420 901 442 Q985 467 1015 565 Q1029 610 1029 666 L1029 828 Q970 826 918 816 Q866 806 811.5 782.5 Q757 759 724.5 711.5 Q692 664 692 597 z" pathLength="0" fill="White" transform="translate(-0.008183703, 9.536743E-07) scale(0.008928572, -0.008928572) translate(0, -1536)" />
</svg>