<!DOCTYPE svg PUBLIC "-//W3C//DTD SVG 1.1//EN" "http://www.w3.org/Graphics/SVG/1.1/DTD/svg11.dtd">
<svg xmlns="http://www.w3.org/2000/svg" xmlns:xlink="http://www.w3.org/1999/xlink" version="1.1" x="0" y="0" width="16" height="16" overflow="auto" preserveAspectRatio="xMidYMid" baseProfile="tiny" space="preserve">
  <path d="M640 128 Q640 181 602.5 218.5 Q565 256 512 256 Q459 256 421.5 218.5 Q384 181 384 128 Q384 75 421.5 37.5 Q459 0 512 0 Q565 0 602.5 37.5 Q640 75 640 128 z M256 640 L640 640 L640 896 L482 896 Q468 894 460 887 L265 692 Q258 680 256 670 L256 640 z M1536 128 Q1536 181 1498.5 218.5 Q1461 256 1408 256 Q1355 256 1317.5 218.5 Q1280 181 1280 128 Q1280 75 1317.5 37.5 Q1355 0 1408 0 Q1461 0 1498.5 37.5 Q1536 75 1536 128 z M1664 800 L1664 992 Q1664 1006 1655 1015 Q1646 1024 1632 1024 L1408 1024 L1408 1248 Q1408 1262 1399 1271 Q1390 1280 1376 1280 L1184 1280 Q1170 1280 1161 1271 Q1152 1262 1152 1248 L1152 1024 L928 1024 Q914 1024 905 1015 Q896 1006 896 992 L896 800 Q896 786 905 777 Q914 768 928 768 L1152 768 L1152 544 Q1152 530 1161 521 Q1170 512 1184 512 L1376 512 Q1390 512 1399 521 Q1408 530 1408 544 L1408 768 L1632 768 Q1646 768 1655 777 Q1664 786 1664 800 z M1920 1344 L1920 192 Q1920 166 1901 147 Q1882 128 1856 128 L1664 128 Q1664 22 1589 -53 Q1514 -128 1408 -128 Q1302 -128 1227 -53 Q1152 22 1152 128 L768 128 Q768 22 693 -53 Q618 -128 512 -128 Q406 -128 331 -53 Q256 22 256 128 L128 128 Q102 128 83 147 Q64 166 64 192 Q64 218 83 237 Q102 256 128 256 L128 672 Q128 698 141 730 Q154 762 173 781 L371 979 Q390 998 422 1011 Q454 1024 480 1024 L640 1024 L640 1344 Q640 1370 659 1389 Q678 1408 704 1408 L1856 1408 Q1882 1408 1901 1389 Q1920 1370 1920 1344 z" pathLength="0" fill="White" transform="translate(-0.8571408, 1.311302E-06) scale(0.008928572, -0.008928572) translate(0, -1536)" />
</svg>