<!DOCTYPE svg PUBLIC "-//W3C//DTD SVG 1.1//EN" "http://www.w3.org/Graphics/SVG/1.1/DTD/svg11.dtd">
<svg xmlns="http://www.w3.org/2000/svg" xmlns:xlink="http://www.w3.org/1999/xlink" version="1.1" x="0" y="0" width="16" height="16" overflow="auto" preserveAspectRatio="xMidYMid" baseProfile="tiny" space="preserve">
  <path d="M960 1280 Q960 1306 941 1325 Q922 1344 896 1344 Q870 1344 851 1325 Q832 1306 832 1280 Q832 1254 851 1235 Q870 1216 896 1216 Q922 1216 941 1235 Q960 1254 960 1280 z M1792 352 L1792 0 Q1792 -22 1772 -30 Q1764 -32 1760 -32 Q1747 -32 1737 -23 L1644 70 Q1525 -73 1325.5 -156.5 Q1126 -240 896 -240 Q666 -240 466.5 -156.5 Q267 -73 148 70 L55 -23 Q46 -32 32 -32 Q28 -32 20 -30 Q0 -22 0 0 L0 352 Q0 366 9 375 Q18 384 32 384 L384 384 Q406 384 414 364 Q422 345 407 329 L307 229 Q374 138 496.5 75.5 Q619 13 768 -7 L768 640 L576 640 Q550 640 531 659 Q512 678 512 704 L512 832 Q512 858 531 877 Q550 896 576 896 L768 896 L768 1059 Q710 1093 675 1151.5 Q640 1210 640 1280 Q640 1386 715 1461 Q790 1536 896 1536 Q1002 1536 1077 1461 Q1152 1386 1152 1280 Q1152 1210 1117 1151.5 Q1082 1093 1024 1059 L1024 896 L1216 896 Q1242 896 1261 877 Q1280 858 1280 832 L1280 704 Q1280 678 1261 659 Q1242 640 1216 640 L1024 640 L1024 -7 Q1173 13 1295.5 75.5 Q1418 138 1485 229 L1385 329 Q1370 345 1378 364 Q1386 384 1408 384 L1760 384 Q1774 384 1783 375 Q1792 366 1792 352 z" pathLength="0" fill="White" transform="translate(0, 0.07142973) scale(0.008928572, -0.008928572) translate(0, -1536)" />
</svg>