<!DOCTYPE svg PUBLIC "-//W3C//DTD SVG 1.1//EN" "http://www.w3.org/Graphics/SVG/1.1/DTD/svg11.dtd">
<svg xmlns="http://www.w3.org/2000/svg" xmlns:xlink="http://www.w3.org/1999/xlink" version="1.1" x="0" y="0" width="16" height="16" overflow="auto" preserveAspectRatio="xMidYMid" baseProfile="tiny" space="preserve">
  <path d="M493 1053 Q509 1053 520.5 1064.5 Q532 1076 532 1092 Q532 1108 520.5 1119.5 Q509 1131 493 1131 Q477 1131 466 1119.5 Q455 1108 455 1092 Q455 1076 466 1064.5 Q477 1053 493 1053 z M915 1053 Q931 1053 942 1064.5 Q953 1076 953 1092 Q953 1108 942 1119.5 Q931 1131 915 1131 Q899 1131 887.5 1119.5 Q876 1108 876 1092 Q876 1076 887.5 1064.5 Q899 1053 915 1053 z M103 869 Q145 869 175 839 Q205 809 205 767 L205 337 Q205 294 175.5 264 Q146 234 103 234 Q60 234 30 264 Q0 294 0 337 L0 767 Q0 809 30 839 Q60 869 103 869 z M1163 850 L1163 184 Q1163 138 1131 106 Q1099 74 1054 74 L979 74 L979 -153 Q979 -196 949 -226 Q919 -256 876 -256 Q833 -256 803 -226 Q773 -196 773 -153 L773 74 L635 74 L635 -153 Q635 -196 605 -226 Q575 -256 532 -256 Q490 -256 460 -226 Q430 -196 430 -153 L429 74 L355 74 Q309 74 277 106 Q245 138 245 184 L245 850 L1163 850 z M931 1255 Q1038 1200 1102 1101.5 Q1166 1003 1166 886 L241 886 Q241 1003 305 1101.5 Q369 1200 477 1255 L406 1386 Q399 1399 411 1406 Q424 1412 431 1400 L503 1268 Q598 1310 704 1310 Q810 1310 905 1268 L977 1400 Q984 1412 997 1406 Q1009 1399 1002 1386 z M1408 767 L1408 337 Q1408 294 1378 264 Q1348 234 1305 234 Q1263 234 1233 264 Q1203 294 1203 337 L1203 767 Q1203 810 1233 839.5 Q1263 869 1305 869 Q1348 869 1378 839.5 Q1408 810 1408 767 z" pathLength="0" fill="White" transform="translate(1.714286, -0.562499) scale(0.008928572, -0.008928572) translate(0, -1536)" />
</svg>