<!DOCTYPE svg PUBLIC "-//W3C//DTD SVG 1.1//EN" "http://www.w3.org/Graphics/SVG/1.1/DTD/svg11.dtd">
<svg xmlns="http://www.w3.org/2000/svg" xmlns:xlink="http://www.w3.org/1999/xlink" version="1.1" x="0" y="0" width="16" height="16" overflow="auto" preserveAspectRatio="xMidYMid" baseProfile="tiny" space="preserve">
  <path d="M953 1158 L839 830 L956 809 Q1121 1260 1121 1327 Q1121 1383 1083 1383 Q1026 1383 953 1158 z M654 471 L687 383 Q724 425 758 450 L725 455.5 Q725 455.5 686.5 462.5 Q648 469.5 654 471 z M362 1367 Q362 1269 521 846 Q539 856 570 856 Q585 856 645 851 L524 1202 Q449 1422 401 1422 Q382 1422 372 1404.5 Q362 1387 362 1367 z M283 608 Q283 572 334.5 489 Q386 406 452 336 Q518 266 552 266 Q566 266 577.5 279 Q589 292 589 306 Q589 330 557 408 Q544 440 525 480 Q506 520 477.5 569 Q449 618 416 650 Q383 682 354 682 Q334 682 308.5 655 Q283 628 283 608 z M125 273 Q125 232 150 169 Q209 24 333.5 -58 Q458 -140 615 -140 Q842 -140 997 30 Q1149 199 1149 457 Q1149 500 1148 524 Q1147 548 1136.5 586 Q1126 624 1106 642 Q1050 691 894.5 717.5 Q739 744 624 744 Q587 744 575 733 Q563 728 563 698 Q563 664 584.5 638 Q606 612 640 598 Q674 584 717.5 574.5 Q761 565 805 563 Q849 561 890 559 Q931 557 960 559 L983 559 Q1007 559 1023 540 Q1038 521 1042 485 Q1014 457 946 431 Q885 409 853 385 Q789 339 744.5 271 Q700 203 700 134 Q700 103 718.5 45.5 Q737 -12 737 -42 L734 -54 Q730 -66 730 -68 Q593 -58 584 148 Q576 146 543 146 Q545 139 545 125 Q545 72 504.5 35.5 Q464 -1 410 -1 Q328 -1 243.5 77 Q159 155 159 236 Q159 270 192 303 Q244 239 252 227 Q329 123 385 123 Q397 123 411.5 131.5 Q426 140 426 152 Q426 186 338.5 297 Q251 408 222 408 Q179 408 152 363.5 Q125 319 125 273 z M11 264 Q11 365 53.5 427 Q96 489 190 515 Q162 589 162 619 Q162 681 223 742 Q284 803 345 803 Q374 803 415 788 Q252 1250 252 1355 Q252 1435 293 1485.5 Q334 1536 412 1536 Q543 1536 737 955 Q743 938 745 932 Q751 948 774 1011.5 Q797 1075 817.5 1130 Q838 1185 871.5 1257.5 Q905 1330 936 1380.5 Q967 1431 1006.5 1467 Q1046 1503 1083 1503 Q1154 1503 1195 1454 Q1236 1405 1236 1332 Q1236 1224 1077 782 Q1138 767 1177.5 736 Q1217 705 1236 658 Q1255 611 1262 564.5 Q1269 518 1269 454 Q1269 304 1222 174 Q1175 44 1090 -51 Q1005 -146 879 -201 Q753 -256 601 -256 Q490 -256 378 -214 Q229 -157 120 -22.5 Q11 112 11 264 z" pathLength="0" fill="White" transform="translate(2.285715, 9.536743E-07) scale(0.008928572, -0.008928572) translate(0, -1536)" />
</svg>