<!DOCTYPE svg PUBLIC "-//W3C//DTD SVG 1.1//EN" "http://www.w3.org/Graphics/SVG/1.1/DTD/svg11.dtd">
<svg xmlns="http://www.w3.org/2000/svg" xmlns:xlink="http://www.w3.org/1999/xlink" version="1.1" x="0" y="0" width="16" height="16" overflow="auto" preserveAspectRatio="xMidYMid" baseProfile="tiny" space="preserve">
  <path d="M627 992 Q627 979 617 969 L224 576 L617 183 Q627 173 627 160 Q627 147 617 137 L567 87 Q557 77 544 77 Q531 77 521 87 L55 553 Q45 563 45 576 Q45 589 55 599 L521 1065 Q531 1075 544 1075 Q557 1075 567 1065 L617 1015 Q627 1005 627 992 z" pathLength="0" fill="White" transform="translate(5, -0.5714278) scale(0.008928572, -0.008928572) translate(0, -1536)" />
</svg>