<!DOCTYPE svg PUBLIC "-//W3C//DTD SVG 1.1//EN" "http://www.w3.org/Graphics/SVG/1.1/DTD/svg11.dtd">
<svg xmlns="http://www.w3.org/2000/svg" xmlns:xlink="http://www.w3.org/1999/xlink" version="1.1" x="0" y="0" width="16" height="16" overflow="auto" preserveAspectRatio="xMidYMid" baseProfile="tiny" space="preserve">
  <path d="M627 160 Q627 147 617 137 L567 87 Q557 77 544 77 Q531 77 521 87 L55 553 Q45 563 45 576 Q45 589 55 599 L521 1065 Q531 1075 544 1075 Q557 1075 567 1065 L617 1015 Q627 1005 627 992 Q627 979 617 969 L224 576 L617 183 Q627 173 627 160 z M1011 160 Q1011 147 1001 137 L951 87 Q941 77 928 77 Q915 77 905 87 L439 553 Q429 563 429 576 Q429 589 439 599 L905 1065 Q915 1075 928 1075 Q941 1075 951 1065 L1001 1015 Q1011 1005 1011 992 Q1011 979 1001 969 L608 576 L1001 183 Q1011 173 1011 160 z" pathLength="0" fill="White" transform="translate(3.285715, -0.5714278) scale(0.008928572, -0.008928572) translate(0, -1536)" />
</svg>