<!DOCTYPE svg PUBLIC "-//W3C//DTD SVG 1.1//EN" "http://www.w3.org/Graphics/SVG/1.1/DTD/svg11.dtd">
<svg xmlns="http://www.w3.org/2000/svg" xmlns:xlink="http://www.w3.org/1999/xlink" version="1.1" x="0" y="0" width="16" height="16" overflow="auto" preserveAspectRatio="xMidYMid" baseProfile="tiny" space="preserve">
  <path d="M1075 672 Q1075 659 1065 649 L599 183 Q589 173 576 173 Q563 173 553 183 L87 649 Q77 659 77 672 Q77 685 87 695 L137 745 Q147 755 160 755 Q173 755 183 745 L576 352 L969 745 Q979 755 992 755 Q1005 755 1015 745 L1065 695 Q1075 685 1075 672 z M1075 1056 Q1075 1043 1065 1033 L599 567 Q589 557 576 557 Q563 557 553 567 L87 1033 Q77 1043 77 1056 Q77 1069 87 1079 L137 1129 Q147 1139 160 1139 Q173 1139 183 1129 L576 736 L969 1129 Q979 1139 992 1139 Q1005 1139 1015 1129 L1065 1079 Q1075 1069 1075 1056 z" pathLength="0" fill="White" transform="translate(2.857143, 0.1428576) scale(0.008928572, -0.008928572) translate(0, -1536)" />
</svg>