<!DOCTYPE svg PUBLIC "-//W3C//DTD SVG 1.1//EN" "http://www.w3.org/Graphics/SVG/1.1/DTD/svg11.dtd">
<svg xmlns="http://www.w3.org/2000/svg" xmlns:xlink="http://www.w3.org/1999/xlink" version="1.1" x="0" y="0" width="16" height="16" overflow="auto" preserveAspectRatio="xMidYMid" baseProfile="tiny" space="preserve">
  <path d="M1075 800 Q1075 787 1065 777 L599 311 Q589 301 576 301 Q563 301 553 311 L87 777 Q77 787 77 800 Q77 813 87 823 L137 873 Q147 883 160 883 Q173 883 183 873 L576 480 L969 873 Q979 883 992 883 Q1005 883 1015 873 L1065 823 Q1075 813 1075 800 z" pathLength="0" fill="White" transform="translate(2.857143, -0.4285707) scale(0.008928572, -0.008928572) translate(0, -1536)" />
</svg>