<!DOCTYPE svg PUBLIC "-//W3C//DTD SVG 1.1//EN" "http://www.w3.org/Graphics/SVG/1.1/DTD/svg11.dtd">
<svg xmlns="http://www.w3.org/2000/svg" xmlns:xlink="http://www.w3.org/1999/xlink" version="1.1" x="0" y="0" width="16" height="16" overflow="auto" preserveAspectRatio="xMidYMid" baseProfile="tiny" space="preserve">
  <path d="M1075 352 Q1075 339 1065 329 L1015 279 Q1005 269 992 269 Q979 269 969 279 L576 672 L183 279 Q173 269 160 269 Q147 269 137 279 L87 329 Q77 339 77 352 Q77 365 87 375 L553 841 Q563 851 576 851 Q589 851 599 841 L1065 375 Q1075 365 1075 352 z" pathLength="0" fill="White" transform="translate(2.857143, -0.7142856) scale(0.008928572, -0.008928572) translate(0, -1536)" />
</svg>