<!DOCTYPE svg PUBLIC "-//W3C//DTD SVG 1.1//EN" "http://www.w3.org/Graphics/SVG/1.1/DTD/svg11.dtd">
<svg xmlns="http://www.w3.org/2000/svg" xmlns:xlink="http://www.w3.org/1999/xlink" version="1.1" x="0" y="0" width="16" height="16" overflow="auto" preserveAspectRatio="xMidYMid" baseProfile="tiny" space="preserve">
  <path d="M1393 321 Q1354 196 1270 71 Q1141 -125 1013 -125 Q964 -125 873 -93 Q787 -61 722 -61 Q661 -61 580 -94 Q499 -128 448 -128 Q296 -128 147 131 Q0 392 0 634 Q0 862 113 1008 Q225 1152 397 1152 Q469 1152 574 1122 Q678 1092 712 1092 Q757 1092 855 1126 Q957 1160 1028 1160 Q1147 1160 1241 1095 Q1293 1059 1345 995 Q1266 928 1231 877 Q1166 783 1166 670 Q1166 546 1235 447 Q1304 348 1393 321 z M1017 1494 Q1017 1433 988 1358 Q958 1283 895 1220 Q841 1166 787 1148 Q750 1137 683 1131 Q686 1280 761 1388 Q835 1495 1011 1536 Q1012 1533 1013.5 1525 Q1015 1517 1016 1514 Q1016 1510 1016.5 1504 Q1017 1498 1017 1494 z" pathLength="0" fill="White" transform="translate(1.78125, 0.5714297) scale(0.008928572, -0.008928572) translate(0, -1536)" />
</svg>