<!DOCTYPE svg PUBLIC "-//W3C//DTD SVG 1.1//EN" "http://www.w3.org/Graphics/SVG/1.1/DTD/svg11.dtd">
<svg xmlns="http://www.w3.org/2000/svg" xmlns:xlink="http://www.w3.org/1999/xlink" version="1.1" x="0" y="0" width="16" height="16" overflow="auto" preserveAspectRatio="xMidYMid" baseProfile="tiny" space="preserve">
  <path d="M1088 704 Q1088 730 1069 749 Q1050 768 1024 768 L768 768 Q742 768 723 749 Q704 730 704 704 Q704 678 723 659 Q742 640 768 640 L1024 640 Q1050 640 1069 659 Q1088 678 1088 704 z M1664 896 L1664 -64 Q1664 -90 1645 -109 Q1626 -128 1600 -128 L192 -128 Q166 -128 147 -109 Q128 -90 128 -64 L128 896 Q128 922 147 941 Q166 960 192 960 L1600 960 Q1626 960 1645 941 Q1664 922 1664 896 z M1728 1344 L1728 1088 Q1728 1062 1709 1043 Q1690 1024 1664 1024 L128 1024 Q102 1024 83 1043 Q64 1062 64 1088 L64 1344 Q64 1370 83 1389 Q102 1408 128 1408 L1664 1408 Q1690 1408 1709 1389 Q1728 1370 1728 1344 z" pathLength="0" fill="White" transform="translate(6.556511E-07, 1.311302E-06) scale(0.008928572, -0.008928572) translate(0, -1536)" />
</svg>