<!DOCTYPE svg PUBLIC "-//W3C//DTD SVG 1.1//EN" "http://www.w3.org/Graphics/SVG/1.1/DTD/svg11.dtd">
<svg xmlns="http://www.w3.org/2000/svg" xmlns:xlink="http://www.w3.org/1999/xlink" version="1.1" x="0" y="0" width="16" height="16" overflow="auto" preserveAspectRatio="xMidYMid" baseProfile="tiny" space="preserve">
  <path d="M1283 995 L928 640 L1283 285 L1427 429 Q1456 460 1497 443 Q1536 426 1536 384 L1536 -64 Q1536 -90 1517 -109 Q1498 -128 1472 -128 L1024 -128 Q982 -128 965 -88 Q948 -49 979 -19 L1123 125 L768 480 L413 125 L557 -19 Q588 -49 571 -88 Q554 -128 512 -128 L64 -128 Q38 -128 19 -109 Q0 -90 0 -64 L0 384 Q0 426 40 443 Q79 460 109 429 L253 285 L608 640 L253 995 L109 851 Q90 832 64 832 Q52 832 40 837 Q0 854 0 896 L0 1344 Q0 1370 19 1389 Q38 1408 64 1408 L512 1408 Q554 1408 571 1368 Q588 1329 557 1299 L413 1155 L768 800 L1123 1155 L979 1299 Q948 1329 965 1368 Q982 1408 1024 1408 L1472 1408 Q1498 1408 1517 1389 Q1536 1370 1536 1344 L1536 896 Q1536 854 1497 837 Q1484 832 1472 832 Q1446 832 1427 851 z" pathLength="0" fill="White" transform="translate(1.142857, 1.311302E-06) scale(0.008928572, -0.008928572) translate(0, -1536)" />
</svg>