<!DOCTYPE svg PUBLIC "-//W3C//DTD SVG 1.1//EN" "http://www.w3.org/Graphics/SVG/1.1/DTD/svg11.dtd">
<svg xmlns="http://www.w3.org/2000/svg" xmlns:xlink="http://www.w3.org/1999/xlink" version="1.1" x="0" y="0" width="16" height="16" overflow="auto" preserveAspectRatio="xMidYMid" baseProfile="tiny" space="preserve">
  <path d="M1792 640 Q1792 614 1773 595 L1517 339 Q1498 320 1472 320 Q1446 320 1427 339 Q1408 358 1408 384 L1408 512 L1024 512 L1024 128 L1152 128 Q1178 128 1197 109 Q1216 90 1216 64 Q1216 38 1197 19 L941 -237 Q922 -256 896 -256 Q870 -256 851 -237 L595 19 Q576 38 576 64 Q576 90 595 109 Q614 128 640 128 L768 128 L768 512 L384 512 L384 384 Q384 358 365 339 Q346 320 320 320 Q294 320 275 339 L19 595 Q0 614 0 640 Q0 666 19 685 L275 941 Q294 960 320 960 Q346 960 365 941 Q384 922 384 896 L384 768 L768 768 L768 1152 L640 1152 Q614 1152 595 1171 Q576 1190 576 1216 Q576 1242 595 1261 L851 1517 Q870 1536 896 1536 Q922 1536 941 1517 L1197 1261 Q1216 1242 1216 1216 Q1216 1190 1197 1171 Q1178 1152 1152 1152 L1024 1152 L1024 768 L1408 768 L1408 896 Q1408 922 1427 941 Q1446 960 1472 960 Q1498 960 1517 941 L1773 685 Q1792 666 1792 640 z" pathLength="0" fill="White" transform="translate(0, 9.536743E-07) scale(0.008928572, -0.008928572) translate(0, -1536)" />
</svg>