<!DOCTYPE svg PUBLIC "-//W3C//DTD SVG 1.1//EN" "http://www.w3.org/Graphics/SVG/1.1/DTD/svg11.dtd">
<svg xmlns="http://www.w3.org/2000/svg" xmlns:xlink="http://www.w3.org/1999/xlink" version="1.1" x="0" y="0" width="16" height="16" overflow="auto" preserveAspectRatio="xMidYMid" baseProfile="tiny" space="preserve">
  <path d="M1285 640 Q1285 667 1267 685 L1176 776 L814 1138 Q796 1156 769 1156 Q742 1156 724 1138 L633 1047 Q615 1029 615 1002 Q615 975 633 957 L822 768 L320 768 Q294 768 275 749 Q256 730 256 704 L256 576 Q256 550 275 531 Q294 512 320 512 L822 512 L633 323 Q614 304 614 278 Q614 252 633 233 L724 142 Q742 124 769 124 Q796 124 814 142 L1176 504 L1267 595 Q1285 613 1285 640 z M1536 640 Q1536 431 1433 254.5 Q1330 78 1153.5 -25 Q977 -128 768 -128 Q559 -128 382.5 -25 Q206 78 103 254.5 Q0 431 0 640 Q0 849 103 1025.5 Q206 1202 382.5 1305 Q559 1408 768 1408 Q977 1408 1153.5 1305 Q1330 1202 1433 1025.5 Q1536 849 1536 640 z" pathLength="0" fill="White" transform="translate(1.142857, 1.311302E-06) scale(0.008928572, -0.008928572) translate(0, -1536)" />
</svg>