<!DOCTYPE svg PUBLIC "-//W3C//DTD SVG 1.1//EN" "http://www.w3.org/Graphics/SVG/1.1/DTD/svg11.dtd">
<svg xmlns="http://www.w3.org/2000/svg" xmlns:xlink="http://www.w3.org/1999/xlink" version="1.1" x="0" y="0" width="16" height="16" overflow="auto" preserveAspectRatio="xMidYMid" baseProfile="tiny" space="preserve">
  <path d="M1792 640 Q1792 614 1773 595 L1517 339 Q1498 320 1472 320 Q1446 320 1427 339 Q1408 358 1408 384 L1408 512 L384 512 L384 384 Q384 358 365 339 Q346 320 320 320 Q294 320 275 339 L19 595 Q0 614 0 640 Q0 666 19 685 L275 941 Q294 960 320 960 Q346 960 365 941 Q384 922 384 896 L384 768 L1408 768 L1408 896 Q1408 922 1427 941 Q1446 960 1472 960 Q1498 960 1517 941 L1773 685 Q1792 666 1792 640 z" pathLength="0" fill="White" transform="translate(0, 4.768372E-07) scale(0.008928572, -0.008928572) translate(0, -1536)" />
</svg>