<!DOCTYPE svg PUBLIC "-//W3C//DTD SVG 1.1//EN" "http://www.w3.org/Graphics/SVG/1.1/DTD/svg11.dtd">
<svg xmlns="http://www.w3.org/2000/svg" xmlns:xlink="http://www.w3.org/1999/xlink" version="1.1" x="0" y="0" width="16" height="16" overflow="auto" preserveAspectRatio="xMidYMid" baseProfile="tiny" space="preserve">
  <path d="M1284 639 Q1284 666 1266 684 L1175 775 Q1157 793 1130 793 Q1103 793 1085 775 L896 586 L896 1088 Q896 1114 877 1133 Q858 1152 832 1152 L704 1152 Q678 1152 659 1133 Q640 1114 640 1088 L640 586 L451 775 Q432 794 406 794 Q380 794 361 775 L270 684 Q252 666 252 639 Q252 612 270 594 L632 232 L723 141 Q741 123 768 123 Q795 123 813 141 L904 232 L1266 594 Q1284 612 1284 639 z M1536 640 Q1536 431 1433 254.5 Q1330 78 1153.5 -25 Q977 -128 768 -128 Q559 -128 382.5 -25 Q206 78 103 254.5 Q0 431 0 640 Q0 849 103 1025.5 Q206 1202 382.5 1305 Q559 1408 768 1408 Q977 1408 1153.5 1305 Q1330 1202 1433 1025.5 Q1536 849 1536 640 z" pathLength="0" fill="White" transform="translate(1.142857, 1.311302E-06) scale(0.008928572, -0.008928572) translate(0, -1536)" />
</svg>