<!DOCTYPE svg PUBLIC "-//W3C//DTD SVG 1.1//EN" "http://www.w3.org/Graphics/SVG/1.1/DTD/svg11.dtd">
<svg xmlns="http://www.w3.org/2000/svg" xmlns:xlink="http://www.w3.org/1999/xlink" version="1.1" x="0" y="0" width="16" height="16" overflow="auto" preserveAspectRatio="xMidYMid" baseProfile="tiny" space="preserve">
  <path d="M1280 576 L1280 704 Q1280 730 1261 749 Q1242 768 1216 768 L714 768 L903 957 Q922 976 922 1002 Q922 1028 903 1047 L812 1138 Q794 1156 767 1156 Q740 1156 722 1138 L360 776 L269 685 Q251 667 251 640 Q251 613 269 595 L360 504 L722 142 Q740 124 767 124 Q794 124 812 142 L903 233 Q921 251 921 278 Q921 305 903 323 L714 512 L1216 512 Q1242 512 1261 531 Q1280 550 1280 576 z M1536 640 Q1536 431 1433 254.5 Q1330 78 1153.5 -25 Q977 -128 768 -128 Q559 -128 382.5 -25 Q206 78 103 254.5 Q0 431 0 640 Q0 849 103 1025.5 Q206 1202 382.5 1305 Q559 1408 768 1408 Q977 1408 1153.5 1305 Q1330 1202 1433 1025.5 Q1536 849 1536 640 z" pathLength="0" fill="White" transform="translate(1.142857, 1.311302E-06) scale(0.008928572, -0.008928572) translate(0, -1536)" />
</svg>