<!DOCTYPE svg PUBLIC "-//W3C//DTD SVG 1.1//EN" "http://www.w3.org/Graphics/SVG/1.1/DTD/svg11.dtd">
<svg xmlns="http://www.w3.org/2000/svg" xmlns:xlink="http://www.w3.org/1999/xlink" version="1.1" x="0" y="0" width="16" height="16" overflow="auto" preserveAspectRatio="xMidYMid" baseProfile="tiny" space="preserve">
  <path d="M1284 641 Q1284 668 1266 686 L904 1048 L813 1139 Q795 1157 768 1157 Q741 1157 723 1139 L632 1048 L270 686 Q252 668 252 641 Q252 614 270 596 L361 505 Q379 487 406 487 Q433 487 451 505 L640 694 L640 192 Q640 166 659 147 Q678 128 704 128 L832 128 Q858 128 877 147 Q896 166 896 192 L896 694 L1085 505 Q1104 486 1130 486 Q1156 486 1175 505 L1266 596 Q1284 614 1284 641 z M1536 640 Q1536 431 1433 254.5 Q1330 78 1153.5 -25 Q977 -128 768 -128 Q559 -128 382.5 -25 Q206 78 103 254.5 Q0 431 0 640 Q0 849 103 1025.5 Q206 1202 382.5 1305 Q559 1408 768 1408 Q977 1408 1153.5 1305 Q1330 1202 1433 1025.5 Q1536 849 1536 640 z" pathLength="0" fill="White" transform="translate(1.142857, 1.311302E-06) scale(0.008928572, -0.008928572) translate(0, -1536)" />
</svg>