<!DOCTYPE svg PUBLIC "-//W3C//DTD SVG 1.1//EN" "http://www.w3.org/Graphics/SVG/1.1/DTD/svg11.dtd">
<svg xmlns="http://www.w3.org/2000/svg" xmlns:xlink="http://www.w3.org/1999/xlink" version="1.1" x="0" y="0" width="16" height="16" overflow="auto" preserveAspectRatio="xMidYMid" baseProfile="tiny" space="preserve">
  <path d="M1482 486 Q1528 460 1541.5 408.5 Q1555 357 1529 311 L1465 201 Q1439 155 1387.5 141.5 Q1336 128 1290 154 L1024 307 L1024 0 Q1024 -52 986 -90 Q948 -128 896 -128 L768 -128 Q716 -128 678 -90 Q640 -52 640 0 L640 307 L374 154 Q328 128 276.5 141.5 Q225 155 199 201 L135 311 Q109 357 122.5 408.5 Q136 460 182 486 L448 640 L182 794 Q136 820 122.5 871.5 Q109 923 135 969 L199 1079 Q225 1125 276.5 1138.5 Q328 1152 374 1126 L640 973 L640 1280 Q640 1332 678 1370 Q716 1408 768 1408 L896 1408 Q948 1408 986 1370 Q1024 1332 1024 1280 L1024 973 L1290 1126 Q1336 1152 1387.5 1138.5 Q1439 1125 1465 1079 L1529 969 Q1555 923 1541.5 871.5 Q1528 820 1482 794 L1216 640 z" pathLength="0" fill="White" transform="translate(0.5714294, 1.311302E-06) scale(0.008928572, -0.008928572) translate(0, -1536)" />
</svg>