<!DOCTYPE svg PUBLIC "-//W3C//DTD SVG 1.1//EN" "http://www.w3.org/Graphics/SVG/1.1/DTD/svg11.dtd">
<svg xmlns="http://www.w3.org/2000/svg" xmlns:xlink="http://www.w3.org/1999/xlink" version="1.1" x="0" y="0" width="16" height="16" overflow="auto" preserveAspectRatio="xMidYMid" baseProfile="tiny" space="preserve">
  <path d="M972 761 Q972 869 918.5 930 Q865 991 771 991 Q708 991 647 960.5 Q586 930 537 876 Q488 822 457.5 739 Q427 656 427 559 Q427 447 480.5 386 Q534 325 631 325 Q727 325 807 391.5 Q887 458 929.5 557.5 Q972 657 972 761 z M1536 640 Q1536 529 1499 443 Q1462 357 1400.5 308 Q1339 259 1269 233.5 Q1199 208 1124 206 Q1118 206 1108.5 205.5 Q1099 205 1092 205 Q997 205 950 258 Q922 291 917 341 Q865 275 785.5 231 Q706 187 612 187 Q451 187 362.5 282.5 Q274 378 274 552 Q274 709 340 842 Q406 975 519 1052.5 Q632 1130 765 1130 Q852 1130 920 1094.5 Q988 1059 1026 995 L1028 1014 L1039 1070 Q1040 1076 1044.5 1082 Q1049 1088 1054 1088 L1172 1088 Q1177 1088 1185 1077 Q1190 1072 1188 1061 L1068 447 Q1063 423 1063 399 Q1063 360 1075.5 347 Q1088 334 1120 334 Q1148 335 1177 339.5 Q1206 344 1250 363.5 Q1294 383 1327 413.5 Q1360 444 1384 503 Q1408 562 1408 640 Q1408 932 1234 1106 Q1060 1280 768 1280 Q638 1280 519.5 1229 Q401 1178 315.5 1092.5 Q230 1007 179 888.5 Q128 770 128 640 Q128 510 179 391.5 Q230 273 315.5 187.5 Q401 102 519.5 51 Q638 0 768 0 Q996 0 1173 144 Q1184 153 1197 152 Q1210 151 1218 140 L1259 91 Q1267 79 1266 67 Q1264 54 1254 45 Q1152 -38 1026.5 -83 Q901 -128 768 -128 Q612 -128 470 -67 Q328 -6 225 97 Q122 200 61 342 Q0 484 0 640 Q0 796 61 938 Q122 1080 225 1183 Q328 1286 470 1347 Q612 1408 768 1408 Q1112 1408 1324 1196 Q1536 984 1536 640 z" pathLength="0" fill="White" transform="translate(1.142857, 1.311302E-06) scale(0.008928572, -0.008928572) translate(0, -1536)" />
</svg>