<!DOCTYPE svg PUBLIC "-//W3C//DTD SVG 1.1//EN" "http://www.w3.org/Graphics/SVG/1.1/DTD/svg11.dtd">
<svg xmlns="http://www.w3.org/2000/svg" xmlns:xlink="http://www.w3.org/1999/xlink" version="1.1" x="0" y="0" width="16" height="16" overflow="auto" preserveAspectRatio="xMidYMid" baseProfile="tiny" space="preserve">
  <path d="M480 448 Q480 514 433 561 Q386 608 320 608 Q254 608 207 561 Q160 514 160 448 Q160 382 207 335 Q254 288 320 288 Q386 288 433 335 Q480 382 480 448 z M516 768 L1532 768 L1443 1125 Q1441 1133 1429 1142.5 Q1417 1152 1408 1152 L640 1152 Q631 1152 619 1142.5 Q607 1133 605 1125 z M1888 448 Q1888 514 1841 561 Q1794 608 1728 608 Q1662 608 1615 561 Q1568 514 1568 448 Q1568 382 1615 335 Q1662 288 1728 288 Q1794 288 1841 335 Q1888 382 1888 448 z M2048 544 L2048 160 Q2048 146 2039 137 Q2030 128 2016 128 L1920 128 L1920 0 Q1920 -80 1864 -136 Q1808 -192 1728 -192 Q1648 -192 1592 -136 Q1536 -80 1536 0 L1536 128 L512 128 L512 0 Q512 -80 456 -136 Q400 -192 320 -192 Q240 -192 184 -136 Q128 -80 128 0 L128 128 L32 128 Q18 128 9 137 Q0 146 0 160 L0 544 Q0 637 65.5 702.5 Q131 768 224 768 L252 768 L357 1187 Q380 1281 461 1344.5 Q542 1408 640 1408 L1408 1408 Q1506 1408 1587 1344.5 Q1668 1281 1691 1187 L1796 768 L1824 768 Q1917 768 1982.5 702.5 Q2048 637 2048 544 z" pathLength="0" fill="White" transform="translate(-1.142858, -0.2857128) scale(0.008928572, -0.008928572) translate(0, -1536)" />
</svg>