<!DOCTYPE svg PUBLIC "-//W3C//DTD SVG 1.1//EN" "http://www.w3.org/Graphics/SVG/1.1/DTD/svg11.dtd">
<svg xmlns="http://www.w3.org/2000/svg" xmlns:xlink="http://www.w3.org/1999/xlink" version="1.1" x="0" y="0" width="16" height="16" overflow="auto" preserveAspectRatio="xMidYMid" baseProfile="tiny" space="preserve">
  <path d="M1619 1395 Q1638 1414 1651 1408 Q1664 1402 1664 1376 L1664 -96 Q1664 -122 1651 -128 Q1638 -134 1619 -115 L909 595 Q901 604 896 614 L896 -96 Q896 -122 883 -128 Q870 -134 851 -115 L141 595 Q122 614 122 640 Q122 666 141 685 L851 1395 Q870 1414 883 1408 Q896 1402 896 1376 L896 666 Q901 677 909 685 z" pathLength="0" fill="White" transform="translate(0.02678597, 1.072884E-06) scale(0.008928572, -0.008928572) translate(0, -1536)" />
</svg>