<!DOCTYPE svg PUBLIC "-//W3C//DTD SVG 1.1//EN" "http://www.w3.org/Graphics/SVG/1.1/DTD/svg11.dtd">
<svg xmlns="http://www.w3.org/2000/svg" xmlns:xlink="http://www.w3.org/1999/xlink" version="1.1" x="0" y="0" width="16" height="16" overflow="auto" preserveAspectRatio="xMidYMid" baseProfile="tiny" space="preserve">
  <path d="M1728 1088 L1344 384 L2112 384 z M448 1088 L64 384 L832 384 z M1269 1280 Q1255 1240 1223.5 1208.5 Q1192 1177 1152 1163 L1152 -128 L1760 -128 Q1774 -128 1783 -137 Q1792 -146 1792 -160 L1792 -224 Q1792 -238 1783 -247 Q1774 -256 1760 -256 L416 -256 Q402 -256 393 -247 Q384 -238 384 -224 L384 -160 Q384 -146 393 -137 Q402 -128 416 -128 L1024 -128 L1024 1163 Q984 1177 952.5 1208.5 Q921 1240 907 1280 L416 1280 Q402 1280 393 1289 Q384 1298 384 1312 L384 1376 Q384 1390 393 1399 Q402 1408 416 1408 L907 1408 Q928 1465 977 1500.5 Q1026 1536 1088 1536 Q1150 1536 1199 1500.5 Q1248 1465 1269 1408 L1760 1408 Q1774 1408 1783 1399 Q1792 1390 1792 1376 L1792 1312 Q1792 1298 1783 1289 Q1774 1280 1760 1280 L1269 1280 z M1088 1264 Q1121 1264 1144.5 1287.5 Q1168 1311 1168 1344 Q1168 1377 1144.5 1400.5 Q1121 1424 1088 1424 Q1055 1424 1031.5 1400.5 Q1008 1377 1008 1344 Q1008 1311 1031.5 1287.5 Q1055 1264 1088 1264 z M2176 384 Q2176 311 2129.5 253 Q2083 195 2012 162 Q1941 129 1867.5 112.5 Q1794 96 1728 96 Q1662 96 1588.5 112.5 Q1515 129 1444 162 Q1373 195 1326.5 253 Q1280 311 1280 384 Q1280 395 1315 465 Q1350 535 1407 639.5 Q1464 744 1514 835 Q1564 926 1616 1019 Q1668 1112 1672 1119 Q1690 1152 1728 1152 Q1766 1152 1784 1119 Q1788 1112 1840 1019 Q1892 926 1942 835 Q1992 744 2049 639.5 Q2106 535 2141 465 Q2176 395 2176 384 z M896 384 Q896 311 849.5 253 Q803 195 732 162 Q661 129 587.5 112.5 Q514 96 448 96 Q382 96 308.5 112.5 Q235 129 164 162 Q93 195 46.5 253 Q0 311 0 384 Q0 395 35 465 Q70 535 127 639.5 Q184 744 234 835 Q284 926 336 1019 Q388 1112 392 1119 Q410 1152 448 1152 Q486 1152 504 1119 Q508 1112 560 1019 Q612 926 662 835 Q712 744 769 639.5 Q826 535 861 465 Q896 395 896 384 z" pathLength="0" fill="White" transform="translate(-1.714286, 9.536743E-07) scale(0.008928572, -0.008928572) translate(0, -1536)" />
</svg>