<!DOCTYPE svg PUBLIC "-//W3C//DTD SVG 1.1//EN" "http://www.w3.org/Graphics/SVG/1.1/DTD/svg11.dtd">
<svg xmlns="http://www.w3.org/2000/svg" xmlns:xlink="http://www.w3.org/1999/xlink" version="1.1" x="0" y="0" width="16" height="16" overflow="auto" preserveAspectRatio="xMidYMid" baseProfile="tiny" space="preserve">
  <path d="M1312 643 Q1312 804 1225 938 L471 185 Q608 96 768 96 Q879 96 979.5 139.5 Q1080 183 1153 256 Q1226 329 1269 430.5 Q1312 532 1312 643 z M313 344 L1068 1098 Q933 1189 768 1189 Q620 1189 495 1116 Q370 1043 297 917 Q224 791 224 643 Q224 481 313 344 z M1536 643 Q1536 486 1475 343 Q1414 200 1311.5 97 Q1209 -6 1066.5 -67 Q924 -128 768 -128 Q612 -128 469.5 -67 Q327 -6 224.5 97 Q122 200 61 343 Q0 486 0 643 Q0 800 61 942.5 Q122 1085 224.5 1188 Q327 1291 469.5 1352 Q612 1413 768 1413 Q924 1413 1066.5 1352 Q1209 1291 1311.5 1188 Q1414 1085 1475 942.5 Q1536 800 1536 643 z" pathLength="0" fill="White" transform="translate(1.142857, 0.02232254) scale(0.008928572, -0.008928572) translate(0, -1536)" />
</svg>