<!DOCTYPE svg PUBLIC "-//W3C//DTD SVG 1.1//EN" "http://www.w3.org/Graphics/SVG/1.1/DTD/svg11.dtd">
<svg xmlns="http://www.w3.org/2000/svg" xmlns:xlink="http://www.w3.org/1999/xlink" version="1.1" x="0" y="0" width="16" height="16" overflow="auto" preserveAspectRatio="xMidYMid" baseProfile="tiny" space="preserve">
  <path d="M63 0 L0 0 L0 1408 L63 1408 L63 0 z M126 1 L94 1 L94 1408 L126 1408 L126 1 z M220 1 L189 1 L189 1408 L220 1408 L220 1 z M377 1 L346 1 L346 1408 L377 1408 L377 1 z M534 1 L472 1 L472 1408 L534 1408 L534 1 z M660 1 L629 1 L629 1408 L660 1408 L660 1 z M723 1 L692 1 L692 1408 L723 1408 L723 1 z M786 1 L755 1 L755 1408 L786 1408 L786 1 z M943 1 L880 1 L880 1408 L943 1408 L943 1 z M1100 1 L1037 1 L1037 1408 L1100 1408 L1100 1 z M1226 1 L1163 1 L1163 1408 L1226 1408 L1226 1 z M1352 1 L1289 1 L1289 1408 L1352 1408 L1352 1 z M1446 1 L1383 1 L1383 1408 L1446 1408 L1446 1 z M1635 1 L1541 1 L1541 1408 L1635 1408 L1635 1 z M1698 1 L1666 1 L1666 1408 L1698 1408 L1698 1 z M1792 0 L1729 0 L1729 1408 L1792 1408 L1792 0 z" pathLength="0" fill="White" transform="translate(0, 0.5714296) scale(0.008928572, -0.008928572) translate(0, -1536)" />
</svg>