<!DOCTYPE svg PUBLIC "-//W3C//DTD SVG 1.1//EN" "http://www.w3.org/Graphics/SVG/1.1/DTD/svg11.dtd">
<svg xmlns="http://www.w3.org/2000/svg" xmlns:xlink="http://www.w3.org/1999/xlink" version="1.1" x="0" y="0" width="16" height="16" overflow="auto" preserveAspectRatio="xMidYMid" baseProfile="tiny" space="preserve">
  <path d="M256 256 L256 1024 L1152 1024 L1152 256 L256 256 z M2176 960 Q2229 960 2266.5 922.5 Q2304 885 2304 832 L2304 448 Q2304 395 2266.5 357.5 Q2229 320 2176 320 L2176 160 Q2176 94 2129 47 Q2082 0 2016 0 L160 0 Q94 0 47 47 Q0 94 0 160 L0 1120 Q0 1186 47 1233 Q94 1280 160 1280 L2016 1280 Q2082 1280 2129 1233 Q2176 1186 2176 1120 L2176 960 z M2176 448 L2176 832 L2048 832 L2048 1120 Q2048 1134 2039 1143 Q2030 1152 2016 1152 L160 1152 Q146 1152 137 1143 Q128 1134 128 1120 L128 160 Q128 146 137 137 Q146 128 160 128 L2016 128 Q2030 128 2039 137 Q2048 146 2048 160 L2048 448 L2176 448 z" pathLength="0" fill="White" transform="translate(-2.285714, 7.152557E-07) scale(0.008928572, -0.008928572) translate(0, -1536)" />
</svg>