<!DOCTYPE svg PUBLIC "-//W3C//DTD SVG 1.1//EN" "http://www.w3.org/Graphics/SVG/1.1/DTD/svg11.dtd">
<svg xmlns="http://www.w3.org/2000/svg" xmlns:xlink="http://www.w3.org/1999/xlink" version="1.1" x="0" y="0" width="16" height="16" overflow="auto" preserveAspectRatio="xMidYMid" baseProfile="tiny" space="preserve">
  <path d="M640 640 L640 1024 L384 1024 L384 768 Q384 715 421.5 677.5 Q459 640 512 640 L640 640 z M1664 192 L1664 0 L512 0 L512 192 L640 384 L512 384 Q353 384 240.5 496.5 Q128 609 128 768 L128 1088 L64 1152 L96 1280 L576 1280 L608 1408 L1568 1408 L1600 1216 L1536 1184 L1536 384 z" pathLength="0" fill="White" transform="translate(0.2857148, 0.5714296) scale(0.008928572, -0.008928572) translate(0, -1536)" />
</svg>