<!DOCTYPE svg PUBLIC "-//W3C//DTD SVG 1.1//EN" "http://www.w3.org/Graphics/SVG/1.1/DTD/svg11.dtd">
<svg xmlns="http://www.w3.org/2000/svg" xmlns:xlink="http://www.w3.org/1999/xlink" version="1.1" x="0" y="0" width="16" height="16" overflow="auto" preserveAspectRatio="xMidYMid" baseProfile="tiny" space="preserve">
  <path d="M1248 1408 Q1367 1408 1451.5 1323.5 Q1536 1239 1536 1120 L1536 160 Q1536 41 1451.5 -43.5 Q1367 -128 1248 -128 L288 -128 Q169 -128 84.5 -43.5 Q0 41 0 160 L0 1120 Q0 1239 84.5 1323.5 Q169 1408 288 1408 L1248 1408 z M499 1041 L128 1041 L128 254 L510 254 Q627 254 707 311.5 Q787 369 787 482 Q787 640 644 682 Q751 734 751 846 Q751 903 731.5 942.5 Q712 982 675 1003 Q638 1024 596 1032.5 Q554 1041 499 1041 z M477 723 L301 723 L301 907 L464 907 Q583 907 583 817 Q583 723 477 723 z M486 388 L301 388 L301 605 L490 605 Q614 605 614 492 Q614 388 486 388 z M1136 356 Q1068 356 1032 394 Q996 432 996 501 L1407 501 Q1408 511 1408 531 Q1408 663 1333.5 751.5 Q1259 840 1130 840 Q1002 840 920 754 Q838 668 838 538 Q838 403 917 321 Q996 239 1130 239 Q1335 239 1397 430 L1259 430 Q1248 396 1211.5 376 Q1175 356 1136 356 z M1126 722 Q1239 722 1250 600 L996 600 Q1000 656 1035 689 Q1070 722 1126 722 z M964 988 L1283 988 L1283 911 L964 911 L964 988 z" pathLength="0" fill="White" transform="translate(1.142857, 1.311302E-06) scale(0.008928572, -0.008928572) translate(0, -1536)" />
</svg>