<!DOCTYPE svg PUBLIC "-//W3C//DTD SVG 1.1//EN" "http://www.w3.org/Graphics/SVG/1.1/DTD/svg11.dtd">
<svg xmlns="http://www.w3.org/2000/svg" xmlns:xlink="http://www.w3.org/1999/xlink" version="1.1" x="0" y="0" width="16" height="16" overflow="auto" preserveAspectRatio="xMidYMid" baseProfile="tiny" space="preserve">
  <path d="M1848 1197 L1337 1197 L1337 1073 L1848 1073 L1848 1197 z M1596 771 Q1506 771 1450 718.5 Q1394 666 1388 576 L1796 576 Q1778 771 1596 771 z M1612 186 Q1675 186 1734 218 Q1793 250 1810 305 L2031 305 Q1931 -2 1604 -2 Q1390 -2 1263.5 130 Q1137 262 1137 477 Q1137 685 1267.5 822.5 Q1398 960 1604 960 Q1742 960 1844.5 892 Q1947 824 1997.5 713 Q2048 602 2048 465 Q2048 448 2046 418 L1388 418 Q1388 307 1445.5 246.5 Q1503 186 1612 186 z M277 236 L573 236 Q778 236 778 403 Q778 583 579 583 L277 583 L277 236 z M277 773 L558 773 Q636 773 681.5 809.5 Q727 846 727 923 Q727 1067 537 1067 L277 1067 L277 773 z M0 1282 L594 1282 Q681 1282 749 1268 Q817 1254 875.5 1220.5 Q934 1187 965.5 1124 Q997 1061 997 970 Q997 789 825 707 Q939 675 997 592 Q1055 509 1055 388 Q1055 313 1030.5 251.5 Q1006 190 964.5 148 Q923 106 866 77 Q809 48 745 35 Q681 22 611 22 L0 22 L0 1282 z" pathLength="0" fill="White" transform="translate(-1.142858, 4.768372E-07) scale(0.008928572, -0.008928572) translate(0, -1536)" />
</svg>