<!DOCTYPE svg PUBLIC "-//W3C//DTD SVG 1.1//EN" "http://www.w3.org/Graphics/SVG/1.1/DTD/svg11.dtd">
<svg xmlns="http://www.w3.org/2000/svg" xmlns:xlink="http://www.w3.org/1999/xlink" version="1.1" x="0" y="0" width="16" height="16" overflow="auto" preserveAspectRatio="xMidYMid" baseProfile="tiny" space="preserve">
  <path d="M1040 -160 Q1040 -144 1024 -144 Q965 -144 922.5 -101.5 Q880 -59 880 0 Q880 16 864 16 Q848 16 848 0 Q848 -73 899.5 -124.5 Q951 -176 1024 -176 Q1040 -176 1040 -160 z M503 315 L1380 1075 Q1338 1163 1247.5 1221.5 Q1157 1280 1024 1280 Q931 1280 854.5 1248.5 Q778 1217 733 1168 Q688 1119 664 1065 Q640 1011 640 960 Q640 576 503 315 z M1856 128 Q1856 76 1818 38 Q1780 0 1728 0 L1280 0 Q1280 -106 1205 -181 Q1130 -256 1024 -256 Q918 -256 843.5 -181.5 Q769 -107 768 -1 L917 128 L1674 128 Q1508 315 1447 587 L1558 684 Q1619 328 1856 128 z M1942 1520 L2026 1424 Q2034 1414 2033.5 1400.5 Q2033 1387 2023 1378 L151 -244 Q141 -252 127.5 -251 Q114 -250 106 -240 L22 -144 Q14 -134 14.5 -120.5 Q15 -107 25 -99 L211 62 Q192 94 192 128 Q242 170 283 216 Q324 262 368 335.5 Q412 409 442.5 494 Q473 579 492.5 700 Q512 821 512 960 Q512 1112 629 1242.5 Q746 1373 936 1401 Q928 1420 928 1440 Q928 1480 956 1508 Q984 1536 1024 1536 Q1064 1536 1092 1508 Q1120 1480 1120 1440 Q1120 1420 1112 1401 Q1236 1383 1331 1318.5 Q1426 1254 1479 1161 L1897 1524 Q1907 1532 1920.5 1531 Q1934 1530 1942 1520 z" pathLength="0" fill="White" transform="translate(-1.142855, 9.536743E-07) scale(0.008928572, -0.008928572) translate(0, -1536)" />
</svg>