<!DOCTYPE svg PUBLIC "-//W3C//DTD SVG 1.1//EN" "http://www.w3.org/Graphics/SVG/1.1/DTD/svg11.dtd">
<svg xmlns="http://www.w3.org/2000/svg" xmlns:xlink="http://www.w3.org/1999/xlink" version="1.1" x="0" y="0" width="16" height="16" overflow="auto" preserveAspectRatio="xMidYMid" baseProfile="tiny" space="preserve">
  <path d="M912 -160 Q912 -144 896 -144 Q837 -144 794.5 -101.5 Q752 -59 752 0 Q752 16 736 16 Q720 16 720 0 Q720 -73 771.5 -124.5 Q823 -176 896 -176 Q912 -176 912 -160 z M246 128 L1546 128 Q1280 428 1280 960 Q1280 1011 1256 1065 Q1232 1119 1187 1168 Q1142 1217 1065.5 1248.5 Q989 1280 896 1280 Q803 1280 726.5 1248.5 Q650 1217 605 1168 Q560 1119 536 1065 Q512 1011 512 960 Q512 428 246 128 z M1728 128 Q1728 76 1690 38 Q1652 0 1600 0 L1152 0 Q1152 -106 1077 -181 Q1002 -256 896 -256 Q790 -256 715 -181 Q640 -106 640 0 L192 0 Q140 0 102 38 Q64 76 64 128 Q114 170 155 216 Q196 262 240 335.5 Q284 409 314.5 494 Q345 579 364.5 700 Q384 821 384 960 Q384 1112 501 1242.5 Q618 1373 808 1401 Q800 1420 800 1440 Q800 1480 828 1508 Q856 1536 896 1536 Q936 1536 964 1508 Q992 1480 992 1440 Q992 1420 984 1401 Q1174 1373 1291 1242.5 Q1408 1112 1408 960 Q1408 821 1427.5 700 Q1447 579 1477.5 494 Q1508 409 1552 335.5 Q1596 262 1637 216 Q1678 170 1728 128 z" pathLength="0" fill="White" transform="translate(6.556511E-07, 9.536743E-07) scale(0.008928572, -0.008928572) translate(0, -1536)" />
</svg>