<!DOCTYPE svg PUBLIC "-//W3C//DTD SVG 1.1//EN" "http://www.w3.org/Graphics/SVG/1.1/DTD/svg11.dtd">
<svg xmlns="http://www.w3.org/2000/svg" xmlns:xlink="http://www.w3.org/1999/xlink" version="1.1" x="0" y="0" width="16" height="16" overflow="auto" preserveAspectRatio="xMidYMid" baseProfile="tiny" space="preserve">
  <path d="M762 384 L448 384 Q408 384 390.5 419 Q373 454 397 486 L585 737 Q520 768 448 768 Q316 768 222 674 Q128 580 128 448 Q128 316 222 222 Q316 128 448 128 Q563 128 651 200.5 Q739 273 762 384 z M576 512 L762 512 Q744 597 687 660 z M1056 512 L1344 896 L864 896 L765 764 Q870 661 891 512 L1056 512 z M2176 448 Q2176 580 2082 674 Q1988 768 1856 768 Q1796 768 1735 744 L1909 484 Q1924 461 1919 435 Q1914 409 1892 395 Q1877 384 1856 384 Q1821 384 1803 413 L1629 673 Q1536 578 1536 448 Q1536 316 1630 222 Q1724 128 1856 128 Q1988 128 2082 222 Q2176 316 2176 448 z M2304 448 Q2304 263 2172.5 131.5 Q2041 0 1856 0 Q1671 0 1539.5 131.5 Q1408 263 1408 448 Q1408 545 1447.5 631.5 Q1487 718 1557 781 L1492 879 L1139 410 Q1121 384 1088 384 L891 384 Q868 220 742 110 Q616 0 448 0 Q263 0 131.5 131.5 Q0 263 0 448 Q0 633 131.5 764.5 Q263 896 448 896 Q562 896 663 841 L800 1024 L576 1024 Q550 1024 531 1043 Q512 1062 512 1088 Q512 1114 531 1133 Q550 1152 576 1152 L960 1152 L960 1024 L1395 1024 L1310 1152 L1088 1152 Q1062 1152 1043 1171 Q1024 1190 1024 1216 Q1024 1242 1043 1261 Q1062 1280 1088 1280 L1344 1280 Q1377 1280 1397 1252 L1664 852 Q1755 896 1856 896 Q2041 896 2172.5 764.5 Q2304 633 2304 448 z" pathLength="0" fill="White" transform="translate(-2.285714, 7.152557E-07) scale(0.008928572, -0.008928572) translate(0, -1536)" />
</svg>