<!DOCTYPE svg PUBLIC "-//W3C//DTD SVG 1.1//EN" "http://www.w3.org/Graphics/SVG/1.1/DTD/svg11.dtd">
<svg xmlns="http://www.w3.org/2000/svg" xmlns:xlink="http://www.w3.org/1999/xlink" version="1.1" x="0" y="0" width="16" height="16" overflow="auto" preserveAspectRatio="xMidYMid" baseProfile="tiny" space="preserve">
  <path d="M704 1216 L704 448 Q704 422 685 403 Q666 384 640 384 L640 -192 Q640 -218 621 -237 Q602 -256 576 -256 L64 -256 Q38 -256 19 -237 Q0 -218 0 -192 L0 320 L249 1193 Q256 1216 280 1216 L704 1216 z M1024 1216 L1024 512 L768 512 L768 1216 L1024 1216 z M1792 320 L1792 -192 Q1792 -218 1773 -237 Q1754 -256 1728 -256 L1216 -256 Q1190 -256 1171 -237 Q1152 -218 1152 -192 L1152 384 Q1126 384 1107 403 Q1088 422 1088 448 L1088 1216 L1512 1216 Q1536 1216 1543 1193 z M736 1504 L736 1280 L384 1280 L384 1504 Q384 1518 393 1527 Q402 1536 416 1536 L704 1536 Q718 1536 727 1527 Q736 1518 736 1504 z M1408 1504 L1408 1280 L1056 1280 L1056 1504 Q1056 1518 1065 1527 Q1074 1536 1088 1536 L1376 1536 Q1390 1536 1399 1527 Q1408 1518 1408 1504 z" pathLength="0" fill="White" transform="translate(0, 9.536743E-07) scale(0.008928572, -0.008928572) translate(0, -1536)" />
</svg>