<!DOCTYPE svg PUBLIC "-//W3C//DTD SVG 1.1//EN" "http://www.w3.org/Graphics/SVG/1.1/DTD/svg11.dtd">
<svg xmlns="http://www.w3.org/2000/svg" xmlns:xlink="http://www.w3.org/1999/xlink" version="1.1" x="0" y="0" width="16" height="16" overflow="auto" preserveAspectRatio="xMidYMid" baseProfile="tiny" space="preserve">
  <path d="M1792 128 L1792 -256 L0 -256 L0 128 Q45 128 85 142 Q125 156 144 169.5 Q163 183 191 207 Q221 234 242.5 245 Q264 256 299 256 Q334 256 354.5 245 Q375 234 407 207 Q436 182 454 169 Q472 156 512 142 Q552 128 598 128 Q643 128 683 142.5 Q723 157 741 169.5 Q759 182 789 207 Q810 226 821.5 234 Q833 242 852.5 249 Q872 256 896 256 Q931 256 952.5 245 Q974 234 1004 207 Q1032 183 1051 169.5 Q1070 156 1110 142 Q1150 128 1195 128 Q1240 128 1280 142 Q1320 156 1339 169.5 Q1358 183 1386 207 Q1416 234 1437.5 245 Q1459 256 1494 256 Q1528 256 1549.5 245 Q1571 234 1601 207 Q1629 183 1648 169.5 Q1667 156 1707 142 Q1747 128 1792 128 z M1792 448 L1792 256 Q1757 256 1736.5 267 Q1716 278 1684 305 Q1655 330 1637 343 Q1619 356 1579 370 Q1539 384 1494 384 Q1448 384 1408 370 Q1368 356 1350 343 Q1332 330 1303 305 Q1281 286 1270 278 Q1259 270 1239 263 Q1219 256 1195 256 Q1160 256 1138.5 267 Q1117 278 1087 305 Q1058 330 1040 343 Q1022 356 982 370 Q942 384 896 384 Q851 384 811 369.5 Q771 355 753 342.5 Q735 330 705 305 Q684 286 672.5 278 Q661 270 641.5 263 Q622 256 598 256 Q563 256 541.5 267 Q520 278 490 305 Q462 329 443 342.5 Q424 356 384 370 Q344 384 299 384 Q253 384 213 370 Q173 356 155 343 Q137 330 108 305 Q78 278 56.5 267 Q35 256 0 256 L0 448 Q0 528 56 584 Q112 640 192 640 L256 640 L256 1088 L512 1088 L512 640 L768 640 L768 1088 L1024 1088 L1024 640 L1280 640 L1280 1088 L1536 1088 L1536 640 L1600 640 Q1680 640 1736 584 Q1792 528 1792 448 z M512 1312 Q512 1235 476 1193.5 Q440 1152 384 1152 Q331 1152 293.5 1189.5 Q256 1227 256 1280 Q256 1309 265.5 1331 Q275 1353 289 1365 Q303 1377 320 1393 Q337 1409 351 1424.5 Q365 1440 374.5 1469 Q384 1498 384 1536 Q422 1536 467 1462 Q512 1388 512 1312 z M1024 1312 Q1024 1235 988 1193.5 Q952 1152 896 1152 Q843 1152 805.5 1189.5 Q768 1227 768 1280 Q768 1309 777.5 1331 Q787 1353 801 1365 Q815 1377 832 1393 Q849 1409 863 1424.5 Q877 1440 886.5 1469 Q896 1498 896 1536 Q934 1536 979 1462 Q1024 1388 1024 1312 z M1536 1312 Q1536 1235 1500 1193.5 Q1464 1152 1408 1152 Q1355 1152 1317.5 1189.5 Q1280 1227 1280 1280 Q1280 1309 1289.5 1331 Q1299 1353 1313 1365 Q1327 1377 1344 1393 Q1361 1409 1375 1424.5 Q1389 1440 1398.5 1469 Q1408 1498 1408 1536 Q1446 1536 1491 1462 Q1536 1388 1536 1312 z" pathLength="0" fill="White" transform="translate(0, 9.536743E-07) scale(0.008928572, -0.008928572) translate(0, -1536)" />
</svg>