<!DOCTYPE svg PUBLIC "-//W3C//DTD SVG 1.1//EN" "http://www.w3.org/Graphics/SVG/1.1/DTD/svg11.dtd">
<svg xmlns="http://www.w3.org/2000/svg" xmlns:xlink="http://www.w3.org/1999/xlink" version="1.1" x="0" y="0" width="16" height="16" overflow="auto" preserveAspectRatio="xMidYMid" baseProfile="tiny" space="preserve">
  <path d="M815 677 Q823 614 764.5 576 Q706 538 653 570 Q614 587 599.5 628 Q585 669 599 710 Q613 751 651 768 Q687 786 723.5 780 Q760 774 787.5 744.5 Q815 715 815 677 z M926 698 Q912 805 813 862 Q714 919 616 875 Q553 847 515.5 786.5 Q478 726 481 657 Q485 566 558.5 502 Q632 438 724 446 Q815 454 876 530 Q937 606 926 698 z M1165 1240 Q1145 1267 1109 1284.5 Q1073 1302 1051 1306.5 Q1029 1311 980 1319 Q689 1366 414 1317 Q371 1310 348 1305 Q325 1300 293 1283 Q261 1266 243 1240 Q273 1212 319 1194.5 Q365 1177 392.5 1172.5 Q420 1168 480 1161 Q708 1132 928 1160 Q991 1168 1017.5 1172 Q1044 1176 1090 1193.5 Q1136 1211 1165 1240 z M1222 205 Q1214 179 1206.5 128.5 Q1199 78 1192.5 44.5 Q1186 11 1164 -25.5 Q1142 -62 1106 -82 Q1020 -130 916.5 -153.5 Q813 -177 714.5 -175.5 Q616 -174 513 -157 Q467 -149 431.5 -139 Q396 -129 355 -112 Q314 -95 282 -68.5 Q250 -42 230 -7 Q205 89 173 285 L179 301 L197 310 Q420 162 703.5 162 Q987 162 1211 310 Q1232 304 1235 287 Q1238 270 1230 242 Q1222 214 1222 205 z M1403 1166 Q1377 999 1292 511 Q1287 481 1265 455 Q1243 429 1221.5 415 Q1200 401 1167 384 Q915 258 557 296 Q309 323 163 435 Q148 447 137.5 461.5 Q127 476 120.5 496.5 Q114 517 111.5 530.5 Q109 544 105.5 570 Q102 596 100 605 Q91 655 73.5 755 Q56 855 45.5 916.5 Q35 978 22 1064 Q9 1150 0 1222 Q3 1248 17.5 1270.5 Q32 1293 49 1308 Q66 1323 94 1338 Q122 1353 140 1360.5 Q158 1368 188 1379 Q313 1425 501 1443 Q880 1480 1177 1393 Q1332 1347 1392 1271 Q1408 1251 1408.5 1220 Q1409 1189 1403 1166 z" pathLength="0" fill="White" transform="translate(1.710565, 0.04985231) scale(0.008928572, -0.008928572) translate(0, -1536)" />
</svg>