<!DOCTYPE svg PUBLIC "-//W3C//DTD SVG 1.1//EN" "http://www.w3.org/Graphics/SVG/1.1/DTD/svg11.dtd">
<svg xmlns="http://www.w3.org/2000/svg" xmlns:xlink="http://www.w3.org/1999/xlink" version="1.1" x="0" y="0" width="16" height="16" overflow="auto" preserveAspectRatio="xMidYMid" baseProfile="tiny" space="preserve">
  <path d="M848 666 Q848 709 807 732 Q766 755 730 733 Q687 713 687.5 660.5 Q688 608 731 590 Q770 567 812 594 Q854 621 848 666 z M928 682 Q936 616 892 561 Q848 506 782 500 Q716 494 663 540 Q610 586 607 653 Q605 702 632.5 746 Q660 790 705 810 Q775 841 846.5 800 Q918 759 928 682 z M1100 1073 Q1080 1052 1046.5 1039 Q1013 1026 993.5 1023 Q974 1020 930 1015 Q775 995 606 1015 Q562 1021 543 1024.5 Q524 1028 490.5 1040.5 Q457 1053 436 1073 Q449 1092 472 1104 Q495 1116 512 1119.5 Q529 1123 559 1128 Q757 1163 967 1129 Q1000 1124 1018 1120.5 Q1036 1117 1061 1104.5 Q1086 1092 1100 1073 z M1142 327 Q1142 334 1147.5 353.5 Q1153 373 1150.5 385.5 Q1148 398 1133 402 Q972 296 768 296 Q564 296 402 402 L390 396 L385 384 Q411 230 426 174 Q473 93 630 66 Q879 20 1058 119 Q1092 138 1107 170.5 Q1122 203 1129.5 256 Q1137 309 1142 327 z M1272 1020 Q1281 1073 1264 1095 Q1221 1150 1109 1183 Q893 1246 622 1219 Q490 1207 396 1173 Q358 1158 336.5 1148 Q315 1138 289.5 1114 Q264 1090 260 1060 Q268 992 279 922 Q290 852 308 751 Q326 650 332 614 Q333 609 337 583 Q341 557 344 547 Q347 537 356 520 Q365 503 378 492 Q483 412 662 392 Q921 364 1102 455 Q1126 468 1141.5 478 Q1157 488 1172.5 507 Q1188 526 1192 547 Q1240 814 1272 1020 z M1536 1120 L1536 160 Q1536 41 1451.5 -43.5 Q1367 -128 1248 -128 L288 -128 Q169 -128 84.5 -43.5 Q0 41 0 160 L0 1120 Q0 1239 84.5 1323.5 Q169 1408 288 1408 L1248 1408 Q1367 1408 1451.5 1323.5 Q1536 1239 1536 1120 z" pathLength="0" fill="White" transform="translate(1.142857, 1.311302E-06) scale(0.008928572, -0.008928572) translate(0, -1536)" />
</svg>