<!DOCTYPE svg PUBLIC "-//W3C//DTD SVG 1.1//EN" "http://www.w3.org/Graphics/SVG/1.1/DTD/svg11.dtd">
<svg xmlns="http://www.w3.org/2000/svg" xmlns:xlink="http://www.w3.org/1999/xlink" version="1.1" x="0" y="0" width="16" height="16" overflow="auto" preserveAspectRatio="xMidYMid" baseProfile="tiny" space="preserve">
  <path d="M1167 896 Q1185 714 1036 638 Q1153 610 1211 535 Q1269 460 1256 321 Q1249 250 1223.5 196 Q1198 142 1159 107 Q1120 72 1062 48.5 Q1004 25 940.5 14 Q877 3 795 -1 L795 -256 L641 -256 L641 -5 Q561 -5 519 -4 L519 -256 L365 -256 L365 -1 Q347 -1 311 -0.5 Q275 0 256 0 L56 0 L87 183 L198 183 Q248 183 256 234 L256 636 L272 636 Q266 637 256 637 L256 924 Q243 992 167 992 L56 992 L56 1156 L268 1155 Q332 1155 365 1156 L365 1408 L519 1408 L519 1161 Q601 1163 641 1163 L641 1408 L795 1408 L795 1156 Q874 1149 935 1133.5 Q996 1118 1048 1088.5 Q1100 1059 1130.5 1010.5 Q1161 962 1167 896 z M952 351 Q952 387 937 415 Q922 443 900 461 Q878 479 842.5 491.5 Q807 504 777 510 Q747 516 703 519 Q659 522 634 522 Q609 522 569.5 521 Q530 520 522 520 L522 182 Q530 182 559 181.5 Q588 181 607 181 Q626 181 660 182.5 Q694 184 718.5 186.5 Q743 189 775.5 195 Q808 201 831 209 Q854 217 878.5 230 Q903 243 918 260 Q933 277 942.5 300 Q952 323 952 351 z M881 827 Q881 860 868.5 885.5 Q856 911 838 927.5 Q820 944 790 955.5 Q760 967 735 972 Q710 977 673.5 980 Q637 983 615.5 982.5 Q594 982 561.5 981.5 Q529 981 522 981 L522 674 Q527 674 556.5 673.5 Q586 673 603 673.5 Q620 674 653 675.5 Q686 677 708 681 Q730 685 759.5 692 Q789 699 808 710.5 Q827 722 845 737.5 Q863 753 872 776 Q881 799 881 827 z" pathLength="0" fill="White" transform="translate(2.104167, -0.5714275) scale(0.008928572, -0.008928572) translate(0, -1536)" />
</svg>