<!DOCTYPE svg PUBLIC "-//W3C//DTD SVG 1.1//EN" "http://www.w3.org/Graphics/SVG/1.1/DTD/svg11.dtd">
<svg xmlns="http://www.w3.org/2000/svg" xmlns:xlink="http://www.w3.org/1999/xlink" version="1.1" x="0" y="0" width="16" height="16" overflow="auto" preserveAspectRatio="xMidYMid" baseProfile="tiny" space="preserve">
  <path d="M555 15 Q629 -17 695 -17 Q1071 -17 1071 318 Q1071 432 1030 498 Q1003 542 968.5 572 Q934 602 901 618.5 Q868 635 820.5 643.5 Q773 652 736.5 654 Q700 656 642 656 Q569 656 541 646 Q541 593 540.5 487 Q540 381 540 329 Q540 321 539 261.5 Q538 202 538.5 165 Q539 128 543 81.5 Q547 35 555 15 z M541 761 Q583 754 650 754 Q732 754 793 767 Q854 780 903 811.5 Q952 843 977.5 901 Q1003 959 1003 1043 Q1003 1113 974 1165.5 Q945 1218 895 1247.5 Q845 1277 787 1291 Q729 1305 663 1305 Q613 1305 533 1292 Q533 1242 537 1141 Q541 1040 541 989 Q541 962 540.5 909 Q540 856 540 830 Q540 784 541 761 z M0 -128 L2 -34 Q17 -30 87 -18 Q157 -6 193 9 Q200 21 205.5 36 Q211 51 214 69.5 Q217 88 219.5 102 Q222 116 222.5 139.5 Q223 163 223 173.5 L223 209 L223 239 Q223 1221 201 1264 Q197 1272 179 1278.5 Q161 1285 134.5 1289.5 Q108 1294 85 1296.5 Q62 1299 36.5 1301 Q11 1303 6 1304 L2 1387 Q100 1389 342 1398.5 Q584 1408 715 1408 Q738 1408 783.5 1407.5 Q829 1407 851 1407 Q921 1407 987.5 1394 Q1054 1381 1116 1352 Q1178 1323 1224 1281 Q1270 1239 1298 1176.5 Q1326 1114 1326 1039 Q1326 987 1309.5 943.5 Q1293 900 1270.5 871.5 Q1248 843 1206 814 Q1164 785 1133 769 Q1102 753 1049 729 Q1203 694 1305.5 595 Q1408 496 1408 347 Q1408 247 1373 167.5 Q1338 88 1279.5 37 Q1221 -14 1141.5 -48.5 Q1062 -83 978 -97 Q894 -111 802 -111 Q758 -111 670 -108 Q582 -105 538 -105 Q432 -105 231 -116 Q30 -127 0 -128 z" pathLength="0" fill="White" transform="translate(1.714286, 1.311302E-06) scale(0.008928572, -0.008928572) translate(0, -1536)" />
</svg>