<!DOCTYPE svg PUBLIC "-//W3C//DTD SVG 1.1//EN" "http://www.w3.org/Graphics/SVG/1.1/DTD/svg11.dtd">
<svg xmlns="http://www.w3.org/2000/svg" xmlns:xlink="http://www.w3.org/1999/xlink" version="1.1" x="0" y="0" width="16" height="16" overflow="auto" preserveAspectRatio="xMidYMid" baseProfile="tiny" space="preserve">
  <path d="M571 947 Q561 972 537 982 Q513 992 488 982 Q380 938 297 855 Q214 772 170 664 Q160 639 170 615 Q180 591 205 581 Q218 576 229 576 Q271 576 289 616 Q323 700 387.5 764.5 Q452 829 536 863 Q561 874 571 898 Q581 922 571 947 z M1513 1303 L1559 1257 L1315 1014 L1383 946 Q1402 927 1402 900.5 Q1402 874 1383 855 L1319 791 Q1408 630 1408 448 Q1408 305 1352.5 174.5 Q1297 44 1202.5 -50.5 Q1108 -145 977.5 -200.5 Q847 -256 704 -256 Q561 -256 430.5 -200.5 Q300 -145 205.5 -50.5 Q111 44 55.5 174.5 Q0 305 0 448 Q0 591 55.5 721.5 Q111 852 205.5 946.5 Q300 1041 430.5 1096.5 Q561 1152 704 1152 Q886 1152 1047 1063 L1111 1127 Q1130 1146 1156.5 1146 Q1183 1146 1202 1127 L1270 1059 z M1521 1359 Q1511 1349 1499 1349 Q1486 1349 1476 1359 L1385 1449 Q1376 1459 1376 1472 Q1376 1485 1385 1495 Q1395 1504 1408 1504 Q1421 1504 1431 1495 L1521 1404 Q1531 1395 1531 1381.5 Q1531 1368 1521 1359 z M1751 1129 Q1740 1120 1728 1120 Q1716 1120 1705 1129 L1615 1220 Q1605 1229 1605 1242.5 Q1605 1256 1615 1265 Q1624 1275 1637.5 1275 Q1651 1275 1660 1265 L1751 1175 Q1760 1165 1760 1152 Q1760 1139 1751 1129 z M1792 1312 Q1792 1298 1783 1289 Q1774 1280 1760 1280 L1664 1280 Q1650 1280 1641 1289 Q1632 1298 1632 1312 Q1632 1326 1641 1335 Q1650 1344 1664 1344 L1760 1344 Q1774 1344 1783 1335 Q1792 1326 1792 1312 z M1600 1504 L1600 1408 Q1600 1394 1591 1385 Q1582 1376 1568 1376 Q1554 1376 1545 1385 Q1536 1394 1536 1408 L1536 1504 Q1536 1518 1545 1527 Q1554 1536 1568 1536 Q1582 1536 1591 1527 Q1600 1518 1600 1504 z M1751 1449 L1660 1359 Q1650 1349 1638 1349 Q1625 1349 1615 1359 Q1605 1368 1605 1381.5 Q1605 1395 1615 1404 L1705 1495 Q1715 1504 1728 1504 Q1741 1504 1751 1495 Q1760 1485 1760 1472 Q1760 1459 1751 1449 z" pathLength="0" fill="White" transform="translate(0, 9.536743E-07) scale(0.008928572, -0.008928572) translate(0, -1536)" />
</svg>