<!DOCTYPE svg PUBLIC "-//W3C//DTD SVG 1.1//EN" "http://www.w3.org/Graphics/SVG/1.1/DTD/svg11.dtd">
<svg xmlns="http://www.w3.org/2000/svg" xmlns:xlink="http://www.w3.org/1999/xlink" version="1.1" x="0" y="0" width="16" height="16" overflow="auto" preserveAspectRatio="xMidYMid" baseProfile="tiny" space="preserve">
  <path d="M1639 1058 Q1679 1001 1657 929 L1382 23 Q1363 -41 1305.5 -84.5 Q1248 -128 1183 -128 L260 -128 Q183 -128 111.5 -74.5 Q40 -21 12 57 Q-12 124 10 184 Q10 188 13 211 Q16 234 17 248 Q18 256 14 269.5 Q10 283 11 289 Q13 300 19 310 Q25 320 35.5 333.5 Q46 347 52 357 Q75 395 97 448.5 Q119 502 127 540 Q130 550 127.5 570 Q125 590 127 598 Q130 609 144 626 Q158 643 161 649 Q182 685 203 741 Q224 797 228 831 Q229 840 225.5 863 Q222 886 226 891 Q230 904 248 921.5 Q266 939 270 944 Q289 970 312.5 1028.5 Q336 1087 340 1125 Q341 1133 337 1150.5 Q333 1168 335 1177 Q337 1185 344 1195 Q351 1205 362 1218 Q373 1231 379 1239 Q387 1251 395.5 1269.5 Q404 1288 410.5 1304.5 Q417 1321 426.5 1340.5 Q436 1360 446 1372.5 Q456 1385 472.5 1396 Q489 1407 508.5 1407.5 Q528 1408 556 1402 L555 1399 Q593 1408 606 1408 L1367 1408 Q1441 1408 1481 1352 Q1521 1296 1499 1222 L1225 316 Q1189 197 1153.5 162.5 Q1118 128 1025 128 L156 128 Q129 128 118 113 Q107 97 117 70 Q141 0 261 0 L1184 0 Q1213 0 1240 15.5 Q1267 31 1275 57 L1575 1044 Q1582 1066 1580 1101 Q1618 1086 1639 1058 z M575 1056 Q571 1043 577 1033.5 Q583 1024 597 1024 L1205 1024 Q1218 1024 1230.5 1033.5 Q1243 1043 1247 1056 L1268 1120 Q1272 1133 1266 1142.5 Q1260 1152 1246 1152 L638 1152 Q625 1152 612.5 1142.5 Q600 1133 596 1120 z M492 800 Q488 787 494 777.5 Q500 768 514 768 L1122 768 Q1135 768 1147.5 777.5 Q1160 787 1164 800 L1185 864 Q1189 877 1183 886.5 Q1177 896 1163 896 L555 896 Q542 896 529.5 886.5 Q517 877 513 864 z" pathLength="0" fill="White" transform="translate(0.5580365, 1.311302E-06) scale(0.008928572, -0.008928572) translate(0, -1536)" />
</svg>