<!DOCTYPE svg PUBLIC "-//W3C//DTD SVG 1.1//EN" "http://www.w3.org/Graphics/SVG/1.1/DTD/svg11.dtd">
<svg xmlns="http://www.w3.org/2000/svg" xmlns:xlink="http://www.w3.org/1999/xlink" version="1.1" x="0" y="0" width="16" height="16" overflow="auto" preserveAspectRatio="xMidYMid" baseProfile="tiny" space="preserve">
  <path d="M640 1280 L1152 1280 L1152 1408 L640 1408 L640 1280 z M1792 640 L1792 160 Q1792 94 1745 47 Q1698 0 1632 0 L160 0 Q94 0 47 47 Q0 94 0 160 L0 640 L672 640 L672 480 Q672 454 691 435 Q710 416 736 416 L1056 416 Q1082 416 1101 435 Q1120 454 1120 480 L1120 640 L1792 640 z M1024 640 L1024 512 L768 512 L768 640 L1024 640 z M1792 1120 L1792 736 L0 736 L0 1120 Q0 1186 47 1233 Q94 1280 160 1280 L512 1280 L512 1440 Q512 1480 540 1508 Q568 1536 608 1536 L1184 1536 Q1224 1536 1252 1508 Q1280 1480 1280 1440 L1280 1280 L1632 1280 Q1698 1280 1745 1233 Q1792 1186 1792 1120 z" pathLength="0" fill="White" transform="translate(0, 1.142858) scale(0.008928572, -0.008928572) translate(0, -1536)" />
</svg>