<!DOCTYPE svg PUBLIC "-//W3C//DTD SVG 1.1//EN" "http://www.w3.org/Graphics/SVG/1.1/DTD/svg11.dtd">
<svg xmlns="http://www.w3.org/2000/svg" xmlns:xlink="http://www.w3.org/1999/xlink" version="1.1" x="0" y="0" width="16" height="16" overflow="auto" preserveAspectRatio="xMidYMid" baseProfile="tiny" space="preserve">
  <path d="M1632 576 Q1632 550 1613 531 Q1594 512 1568 512 L1344 512 Q1344 341 1277 222 L1485 13 Q1504 -6 1504 -32 Q1504 -58 1485 -77 Q1467 -96 1440 -96 Q1413 -96 1395 -77 L1197 120 Q1192 115 1182 107 Q1172 99 1140 78.5 Q1108 58 1075 42 Q1042 26 993 13 Q944 0 896 0 L896 896 L768 896 L768 0 Q717 0 666.5 13.5 Q616 27 579.5 46.5 Q543 66 513.5 85.5 Q484 105 470 118 L455 132 L272 -75 Q252 -96 224 -96 Q200 -96 181 -80 Q162 -62 160.5 -35.5 Q159 -9 176 11 L378 238 Q320 352 320 512 L96 512 Q70 512 51 531 Q32 550 32 576 Q32 602 51 621 Q70 640 96 640 L320 640 L320 934 L147 1107 Q128 1126 128 1152 Q128 1178 147 1197 Q166 1216 192 1216 Q218 1216 237 1197 L410 1024 L1254 1024 L1427 1197 Q1446 1216 1472 1216 Q1498 1216 1517 1197 Q1536 1178 1536 1152 Q1536 1126 1517 1107 L1344 934 L1344 640 L1568 640 Q1594 640 1613 621 Q1632 602 1632 576 z M1152 1152 L512 1152 Q512 1285 605.5 1378.5 Q699 1472 832 1472 Q965 1472 1058.5 1378.5 Q1152 1285 1152 1152 z" pathLength="0" fill="White" transform="translate(0.5714296, 0.4285724) scale(0.008928572, -0.008928572) translate(0, -1536)" />
</svg>