<!DOCTYPE svg PUBLIC "-//W3C//DTD SVG 1.1//EN" "http://www.w3.org/Graphics/SVG/1.1/DTD/svg11.dtd">
<svg xmlns="http://www.w3.org/2000/svg" xmlns:xlink="http://www.w3.org/1999/xlink" version="1.1" x="0" y="0" width="16" height="16" overflow="auto" preserveAspectRatio="xMidYMid" baseProfile="tiny" space="preserve">
  <path d="M384 224 L384 160 Q384 147 374.5 137.5 Q365 128 352 128 L288 128 Q275 128 265.5 137.5 Q256 147 256 160 L256 224 Q256 237 265.5 246.5 Q275 256 288 256 L352 256 Q365 256 374.5 246.5 Q384 237 384 224 z M384 480 L384 416 Q384 403 374.5 393.5 Q365 384 352 384 L288 384 Q275 384 265.5 393.5 Q256 403 256 416 L256 480 Q256 493 265.5 502.5 Q275 512 288 512 L352 512 Q365 512 374.5 502.5 Q384 493 384 480 z M640 480 L640 416 Q640 403 630.5 393.5 Q621 384 608 384 L544 384 Q531 384 521.5 393.5 Q512 403 512 416 L512 480 Q512 493 521.5 502.5 Q531 512 544 512 L608 512 Q621 512 630.5 502.5 Q640 493 640 480 z M384 736 L384 672 Q384 659 374.5 649.5 Q365 640 352 640 L288 640 Q275 640 265.5 649.5 Q256 659 256 672 L256 736 Q256 749 265.5 758.5 Q275 768 288 768 L352 768 Q365 768 374.5 758.5 Q384 749 384 736 z M1152 224 L1152 160 Q1152 147 1142.5 137.5 Q1133 128 1120 128 L1056 128 Q1043 128 1033.5 137.5 Q1024 147 1024 160 L1024 224 Q1024 237 1033.5 246.5 Q1043 256 1056 256 L1120 256 Q1133 256 1142.5 246.5 Q1152 237 1152 224 z M896 480 L896 416 Q896 403 886.5 393.5 Q877 384 864 384 L800 384 Q787 384 777.5 393.5 Q768 403 768 416 L768 480 Q768 493 777.5 502.5 Q787 512 800 512 L864 512 Q877 512 886.5 502.5 Q896 493 896 480 z M640 736 L640 672 Q640 659 630.5 649.5 Q621 640 608 640 L544 640 Q531 640 521.5 649.5 Q512 659 512 672 L512 736 Q512 749 521.5 758.5 Q531 768 544 768 L608 768 Q621 768 630.5 758.5 Q640 749 640 736 z M384 992 L384 928 Q384 915 374.5 905.5 Q365 896 352 896 L288 896 Q275 896 265.5 905.5 Q256 915 256 928 L256 992 Q256 1005 265.5 1014.5 Q275 1024 288 1024 L352 1024 Q365 1024 374.5 1014.5 Q384 1005 384 992 z M1152 480 L1152 416 Q1152 403 1142.5 393.5 Q1133 384 1120 384 L1056 384 Q1043 384 1033.5 393.5 Q1024 403 1024 416 L1024 480 Q1024 493 1033.5 502.5 Q1043 512 1056 512 L1120 512 Q1133 512 1142.5 502.5 Q1152 493 1152 480 z M896 736 L896 672 Q896 659 886.5 649.5 Q877 640 864 640 L800 640 Q787 640 777.5 649.5 Q768 659 768 672 L768 736 Q768 749 777.5 758.5 Q787 768 800 768 L864 768 Q877 768 886.5 758.5 Q896 749 896 736 z M640 992 L640 928 Q640 915 630.5 905.5 Q621 896 608 896 L544 896 Q531 896 521.5 905.5 Q512 915 512 928 L512 992 Q512 1005 521.5 1014.5 Q531 1024 544 1024 L608 1024 Q621 1024 630.5 1014.5 Q640 1005 640 992 z M384 1248 L384 1184 Q384 1171 374.5 1161.5 Q365 1152 352 1152 L288 1152 Q275 1152 265.5 1161.5 Q256 1171 256 1184 L256 1248 Q256 1261 265.5 1270.5 Q275 1280 288 1280 L352 1280 Q365 1280 374.5 1270.5 Q384 1261 384 1248 z M1152 736 L1152 672 Q1152 659 1142.5 649.5 Q1133 640 1120 640 L1056 640 Q1043 640 1033.5 649.5 Q1024 659 1024 672 L1024 736 Q1024 749 1033.5 758.5 Q1043 768 1056 768 L1120 768 Q1133 768 1142.5 758.5 Q1152 749 1152 736 z M896 992 L896 928 Q896 915 886.5 905.5 Q877 896 864 896 L800 896 Q787 896 777.5 905.5 Q768 915 768 928 L768 992 Q768 1005 777.5 1014.5 Q787 1024 800 1024 L864 1024 Q877 1024 886.5 1014.5 Q896 1005 896 992 z M640 1248 L640 1184 Q640 1171 630.5 1161.5 Q621 1152 608 1152 L544 1152 Q531 1152 521.5 1161.5 Q512 1171 512 1184 L512 1248 Q512 1261 521.5 1270.5 Q531 1280 544 1280 L608 1280 Q621 1280 630.5 1270.5 Q640 1261 640 1248 z M1152 992 L1152 928 Q1152 915 1142.5 905.5 Q1133 896 1120 896 L1056 896 Q1043 896 1033.5 905.5 Q1024 915 1024 928 L1024 992 Q1024 1005 1033.5 1014.5 Q1043 1024 1056 1024 L1120 1024 Q1133 1024 1142.5 1014.5 Q1152 1005 1152 992 z M896 1248 L896 1184 Q896 1171 886.5 1161.5 Q877 1152 864 1152 L800 1152 Q787 1152 777.5 1161.5 Q768 1171 768 1184 L768 1248 Q768 1261 777.5 1270.5 Q787 1280 800 1280 L864 1280 Q877 1280 886.5 1270.5 Q896 1261 896 1248 z M1152 1248 L1152 1184 Q1152 1171 1142.5 1161.5 Q1133 1152 1120 1152 L1056 1152 Q1043 1152 1033.5 1161.5 Q1024 1171 1024 1184 L1024 1248 Q1024 1261 1033.5 1270.5 Q1043 1280 1056 1280 L1120 1280 Q1133 1280 1142.5 1270.5 Q1152 1261 1152 1248 z M896 -128 L1280 -128 L1280 1408 L128 1408 L128 -128 L512 -128 L512 96 Q512 109 521.5 118.5 Q531 128 544 128 L864 128 Q877 128 886.5 118.5 Q896 109 896 96 L896 -128 z M1408 1472 L1408 -192 Q1408 -218 1389 -237 Q1370 -256 1344 -256 L64 -256 Q38 -256 19 -237 Q0 -218 0 -192 L0 1472 Q0 1498 19 1517 Q38 1536 64 1536 L1344 1536 Q1370 1536 1389 1517 Q1408 1498 1408 1472 z" pathLength="0" fill="White" transform="translate(1.714286, 9.536743E-07) scale(0.008928572, -0.008928572) translate(0, -1536)" />
</svg>