<!DOCTYPE svg PUBLIC "-//W3C//DTD SVG 1.1//EN" "http://www.w3.org/Graphics/SVG/1.1/DTD/svg11.dtd">
<svg xmlns="http://www.w3.org/2000/svg" xmlns:xlink="http://www.w3.org/1999/xlink" version="1.1" x="0" y="0" width="16" height="16" overflow="auto" preserveAspectRatio="xMidYMid" baseProfile="tiny" space="preserve">
  <path d="M1344 1536 Q1370 1536 1389 1517 Q1408 1498 1408 1472 L1408 -192 Q1408 -218 1389 -237 Q1370 -256 1344 -256 L64 -256 Q38 -256 19 -237 Q0 -218 0 -192 L0 1472 Q0 1498 19 1517 Q38 1536 64 1536 L1344 1536 z M512 1248 L512 1184 Q512 1170 521 1161 Q530 1152 544 1152 L608 1152 Q622 1152 631 1161 Q640 1170 640 1184 L640 1248 Q640 1262 631 1271 Q622 1280 608 1280 L544 1280 Q530 1280 521 1271 Q512 1262 512 1248 z M512 992 L512 928 Q512 914 521 905 Q530 896 544 896 L608 896 Q622 896 631 905 Q640 914 640 928 L640 992 Q640 1006 631 1015 Q622 1024 608 1024 L544 1024 Q530 1024 521 1015 Q512 1006 512 992 z M512 736 L512 672 Q512 658 521 649 Q530 640 544 640 L608 640 Q622 640 631 649 Q640 658 640 672 L640 736 Q640 750 631 759 Q622 768 608 768 L544 768 Q530 768 521 759 Q512 750 512 736 z M512 480 L512 416 Q512 402 521 393 Q530 384 544 384 L608 384 Q622 384 631 393 Q640 402 640 416 L640 480 Q640 494 631 503 Q622 512 608 512 L544 512 Q530 512 521 503 Q512 494 512 480 z M384 160 L384 224 Q384 238 375 247 Q366 256 352 256 L288 256 Q274 256 265 247 Q256 238 256 224 L256 160 Q256 146 265 137 Q274 128 288 128 L352 128 Q366 128 375 137 Q384 146 384 160 z M384 416 L384 480 Q384 494 375 503 Q366 512 352 512 L288 512 Q274 512 265 503 Q256 494 256 480 L256 416 Q256 402 265 393 Q274 384 288 384 L352 384 Q366 384 375 393 Q384 402 384 416 z M384 672 L384 736 Q384 750 375 759 Q366 768 352 768 L288 768 Q274 768 265 759 Q256 750 256 736 L256 672 Q256 658 265 649 Q274 640 288 640 L352 640 Q366 640 375 649 Q384 658 384 672 z M384 928 L384 992 Q384 1006 375 1015 Q366 1024 352 1024 L288 1024 Q274 1024 265 1015 Q256 1006 256 992 L256 928 Q256 914 265 905 Q274 896 288 896 L352 896 Q366 896 375 905 Q384 914 384 928 z M384 1184 L384 1248 Q384 1262 375 1271 Q366 1280 352 1280 L288 1280 Q274 1280 265 1271 Q256 1262 256 1248 L256 1184 Q256 1170 265 1161 Q274 1152 288 1152 L352 1152 Q366 1152 375 1161 Q384 1170 384 1184 z M896 -96 L896 96 Q896 110 887 119 Q878 128 864 128 L544 128 Q530 128 521 119 Q512 110 512 96 L512 -96 Q512 -110 521 -119 Q530 -128 544 -128 L864 -128 Q878 -128 887 -119 Q896 -110 896 -96 z M896 416 L896 480 Q896 494 887 503 Q878 512 864 512 L800 512 Q786 512 777 503 Q768 494 768 480 L768 416 Q768 402 777 393 Q786 384 800 384 L864 384 Q878 384 887 393 Q896 402 896 416 z M896 672 L896 736 Q896 750 887 759 Q878 768 864 768 L800 768 Q786 768 777 759 Q768 750 768 736 L768 672 Q768 658 777 649 Q786 640 800 640 L864 640 Q878 640 887 649 Q896 658 896 672 z M896 928 L896 992 Q896 1006 887 1015 Q878 1024 864 1024 L800 1024 Q786 1024 777 1015 Q768 1006 768 992 L768 928 Q768 914 777 905 Q786 896 800 896 L864 896 Q878 896 887 905 Q896 914 896 928 z M896 1184 L896 1248 Q896 1262 887 1271 Q878 1280 864 1280 L800 1280 Q786 1280 777 1271 Q768 1262 768 1248 L768 1184 Q768 1170 777 1161 Q786 1152 800 1152 L864 1152 Q878 1152 887 1161 Q896 1170 896 1184 z M1152 160 L1152 224 Q1152 238 1143 247 Q1134 256 1120 256 L1056 256 Q1042 256 1033 247 Q1024 238 1024 224 L1024 160 Q1024 146 1033 137 Q1042 128 1056 128 L1120 128 Q1134 128 1143 137 Q1152 146 1152 160 z M1152 416 L1152 480 Q1152 494 1143 503 Q1134 512 1120 512 L1056 512 Q1042 512 1033 503 Q1024 494 1024 480 L1024 416 Q1024 402 1033 393 Q1042 384 1056 384 L1120 384 Q1134 384 1143 393 Q1152 402 1152 416 z M1152 672 L1152 736 Q1152 750 1143 759 Q1134 768 1120 768 L1056 768 Q1042 768 1033 759 Q1024 750 1024 736 L1024 672 Q1024 658 1033 649 Q1042 640 1056 640 L1120 640 Q1134 640 1143 649 Q1152 658 1152 672 z M1152 928 L1152 992 Q1152 1006 1143 1015 Q1134 1024 1120 1024 L1056 1024 Q1042 1024 1033 1015 Q1024 1006 1024 992 L1024 928 Q1024 914 1033 905 Q1042 896 1056 896 L1120 896 Q1134 896 1143 905 Q1152 914 1152 928 z M1152 1184 L1152 1248 Q1152 1262 1143 1271 Q1134 1280 1120 1280 L1056 1280 Q1042 1280 1033 1271 Q1024 1262 1024 1248 L1024 1184 Q1024 1170 1033 1161 Q1042 1152 1056 1152 L1120 1152 Q1134 1152 1143 1161 Q1152 1170 1152 1184 z" pathLength="0" fill="White" transform="translate(1.714286, 9.536743E-07) scale(0.008928572, -0.008928572) translate(0, -1536)" />
</svg>