<!DOCTYPE svg PUBLIC "-//W3C//DTD SVG 1.1//EN" "http://www.w3.org/Graphics/SVG/1.1/DTD/svg11.dtd">
<svg xmlns="http://www.w3.org/2000/svg" xmlns:xlink="http://www.w3.org/1999/xlink" version="1.1" x="0" y="0" width="16" height="16" overflow="auto" preserveAspectRatio="xMidYMid" baseProfile="tiny" space="preserve">
  <path d="M1664 896 Q1717 896 1754.5 858.5 Q1792 821 1792 768 Q1792 715 1754.5 677.5 Q1717 640 1664 640 L1664 256 Q1664 204 1626 166 Q1588 128 1536 128 Q1119 475 724 508 Q666 489 633 442 Q600 395 602 341.5 Q604 288 642 249 Q622 216 619 183.5 Q616 151 625 125.5 Q634 100 658.5 70.5 Q683 41 706.5 20.5 Q730 0 768 -30 Q739 -88 656.5 -113 Q574 -138 488 -124.5 Q402 -111 356 -69 Q349 -46 326.5 18.5 Q304 83 294.5 113 Q285 143 271.5 202 Q258 261 256.5 303 Q255 345 260 401.5 Q265 458 282 512 L160 512 Q94 512 47 559 Q0 606 0 672 L0 864 Q0 930 47 977 Q94 1024 160 1024 L640 1024 Q1075 1024 1536 1408 Q1588 1408 1626 1370 Q1664 1332 1664 1280 L1664 896 z M1536 292 L1536 1246 Q1142 944 768 903 L768 633 Q1145 591 1536 292 z" pathLength="0" fill="White" transform="translate(0, -0.02455246) scale(0.008928572, -0.008928572) translate(0, -1536)" />
</svg>