<!DOCTYPE svg PUBLIC "-//W3C//DTD SVG 1.1//EN" "http://www.w3.org/Graphics/SVG/1.1/DTD/svg11.dtd">
<svg xmlns="http://www.w3.org/2000/svg" xmlns:xlink="http://www.w3.org/1999/xlink" version="1.1" x="0" y="0" width="16" height="16" overflow="auto" preserveAspectRatio="xMidYMid" baseProfile="tiny" space="preserve">
  <path d="M1024 640 Q1024 534 949 459 Q874 384 768 384 Q662 384 587 459 Q512 534 512 640 Q512 746 587 821 Q662 896 768 896 Q874 896 949 821 Q1024 746 1024 640 z M1152 640 Q1152 799 1039.5 911.5 Q927 1024 768 1024 Q609 1024 496.5 911.5 Q384 799 384 640 Q384 481 496.5 368.5 Q609 256 768 256 Q927 256 1039.5 368.5 Q1152 481 1152 640 z M1280 640 Q1280 428 1130 278 Q980 128 768 128 Q556 128 406 278 Q256 428 256 640 Q256 852 406 1002 Q556 1152 768 1152 Q980 1152 1130 1002 Q1280 852 1280 640 z M1408 640 Q1408 770 1357 888.5 Q1306 1007 1220.5 1092.5 Q1135 1178 1016.5 1229 Q898 1280 768 1280 Q638 1280 519.5 1229 Q401 1178 315.5 1092.5 Q230 1007 179 888.5 Q128 770 128 640 Q128 510 179 391.5 Q230 273 315.5 187.5 Q401 102 519.5 51 Q638 0 768 0 Q898 0 1016.5 51 Q1135 102 1220.5 187.5 Q1306 273 1357 391.5 Q1408 510 1408 640 z M1536 640 Q1536 431 1433 254.5 Q1330 78 1153.5 -25 Q977 -128 768 -128 Q559 -128 382.5 -25 Q206 78 103 254.5 Q0 431 0 640 Q0 849 103 1025.5 Q206 1202 382.5 1305 Q559 1408 768 1408 Q977 1408 1153.5 1305 Q1330 1202 1433 1025.5 Q1536 849 1536 640 z" pathLength="0" fill="White" transform="translate(1.142857, 1.311302E-06) scale(0.008928572, -0.008928572) translate(0, -1536)" />
</svg>