<!DOCTYPE svg PUBLIC "-//W3C//DTD SVG 1.1//EN" "http://www.w3.org/Graphics/SVG/1.1/DTD/svg11.dtd">
<svg xmlns="http://www.w3.org/2000/svg" xmlns:xlink="http://www.w3.org/1999/xlink" version="1.1" x="0" y="0" width="16" height="16" overflow="auto" preserveAspectRatio="xMidYMid" baseProfile="tiny" space="preserve">
  <path d="M384 320 Q384 373 346.5 410.5 Q309 448 256 448 Q203 448 165.5 410.5 Q128 373 128 320 Q128 267 165.5 229.5 Q203 192 256 192 Q309 192 346.5 229.5 Q384 267 384 320 z M1408 320 Q1408 373 1370.5 410.5 Q1333 448 1280 448 Q1227 448 1189.5 410.5 Q1152 373 1152 320 Q1152 267 1189.5 229.5 Q1227 192 1280 192 Q1333 192 1370.5 229.5 Q1408 267 1408 320 z M1362 716 L1290 1100 Q1285 1123 1267.5 1137.5 Q1250 1152 1227 1152 L309 1152 Q286 1152 268.5 1137.5 Q251 1123 246 1100 L174 716 Q169 686 188 663 Q207 640 237 640 L1299 640 Q1329 640 1348 663 Q1367 686 1362 716 z M1136 1328 Q1136 1348 1122 1362 Q1108 1376 1088 1376 L448 1376 Q428 1376 414 1362 Q400 1348 400 1328 Q400 1308 414 1294 Q428 1280 448 1280 L1088 1280 Q1108 1280 1122 1294 Q1136 1308 1136 1328 z M1536 603 L1536 0 L1408 0 L1408 -128 Q1408 -181 1370.5 -218.5 Q1333 -256 1280 -256 Q1227 -256 1189.5 -218.5 Q1152 -181 1152 -128 L1152 0 L384 0 L384 -128 Q384 -181 346.5 -218.5 Q309 -256 256 -256 Q203 -256 165.5 -218.5 Q128 -181 128 -128 L128 0 L0 0 L0 603 Q0 715 25 826 L128 1280 Q137 1358 225.5 1417 Q314 1476 455.5 1506 Q597 1536 768 1536 Q939 1536 1080.5 1506 Q1222 1476 1310.5 1417 Q1399 1358 1408 1280 L1513 826 Q1536 724 1536 603 z" pathLength="0" fill="White" transform="translate(1.142857, 9.536743E-07) scale(0.008928572, -0.008928572) translate(0, -1536)" />
</svg>