<!DOCTYPE svg PUBLIC "-//W3C//DTD SVG 1.1//EN" "http://www.w3.org/Graphics/SVG/1.1/DTD/svg11.dtd">
<svg xmlns="http://www.w3.org/2000/svg" xmlns:xlink="http://www.w3.org/1999/xlink" version="1.1" x="0" y="0" width="16" height="16" overflow="auto" preserveAspectRatio="xMidYMid" baseProfile="tiny" space="preserve">
  <path d="M1824 640 Q1917 640 1982.5 574.5 Q2048 509 2048 416 L2048 32 Q2048 18 2039 9 Q2030 0 2016 0 L1920 0 L1920 -64 Q1920 -144 1864 -200 Q1808 -256 1728 -256 Q1648 -256 1592 -200 Q1536 -144 1536 -64 L1536 0 L512 0 L512 -64 Q512 -144 456 -200 Q400 -256 320 -256 Q240 -256 184 -200 Q128 -144 128 -64 L128 0 L32 0 Q18 0 9 9 Q0 18 0 32 L0 416 Q0 509 65.5 574.5 Q131 640 224 640 L252 640 L357 1059 Q380 1153 461 1216.5 Q542 1280 640 1280 L768 1280 L768 1504 Q768 1518 777 1527 Q786 1536 800 1536 L1248 1536 Q1262 1536 1271 1527 Q1280 1518 1280 1504 L1280 1280 L1408 1280 Q1506 1280 1587 1216.5 Q1668 1153 1691 1059 L1796 640 L1824 640 z M320 160 Q386 160 433 207 Q480 254 480 320 Q480 386 433 433 Q386 480 320 480 Q254 480 207 433 Q160 386 160 320 Q160 254 207 207 Q254 160 320 160 z M516 640 L1532 640 L1443 997 Q1441 1005 1429 1014.5 Q1417 1024 1408 1024 L640 1024 Q631 1024 619 1014.5 Q607 1005 605 997 z M1728 160 Q1794 160 1841 207 Q1888 254 1888 320 Q1888 386 1841 433 Q1794 480 1728 480 Q1662 480 1615 433 Q1568 386 1568 320 Q1568 254 1615 207 Q1662 160 1728 160 z" pathLength="0" fill="White" transform="translate(-1.142858, 9.536743E-07) scale(0.008928572, -0.008928572) translate(0, -1536)" />
</svg>