<!DOCTYPE svg PUBLIC "-//W3C//DTD SVG 1.1//EN" "http://www.w3.org/Graphics/SVG/1.1/DTD/svg11.dtd">
<svg xmlns="http://www.w3.org/2000/svg" xmlns:xlink="http://www.w3.org/1999/xlink" version="1.1" x="0" y="0" width="16" height="16" overflow="auto" preserveAspectRatio="xMidYMid" baseProfile="tiny" space="preserve">
  <path d="M384 0 Q384 53 346.5 90.5 Q309 128 256 128 Q203 128 165.5 90.5 Q128 53 128 0 Q128 -53 165.5 -90.5 Q203 -128 256 -128 Q309 -128 346.5 -90.5 Q384 -53 384 0 z M768 0 Q768 53 730.5 90.5 Q693 128 640 128 Q587 128 549.5 90.5 Q512 53 512 0 Q512 -53 549.5 -90.5 Q587 -128 640 -128 Q693 -128 730.5 -90.5 Q768 -53 768 0 z M384 384 Q384 437 346.5 474.5 Q309 512 256 512 Q203 512 165.5 474.5 Q128 437 128 384 Q128 331 165.5 293.5 Q203 256 256 256 Q309 256 346.5 293.5 Q384 331 384 384 z M1152 0 Q1152 53 1114.5 90.5 Q1077 128 1024 128 Q971 128 933.5 90.5 Q896 53 896 0 Q896 -53 933.5 -90.5 Q971 -128 1024 -128 Q1077 -128 1114.5 -90.5 Q1152 -53 1152 0 z M768 384 Q768 437 730.5 474.5 Q693 512 640 512 Q587 512 549.5 474.5 Q512 437 512 384 Q512 331 549.5 293.5 Q587 256 640 256 Q693 256 730.5 293.5 Q768 331 768 384 z M384 768 Q384 821 346.5 858.5 Q309 896 256 896 Q203 896 165.5 858.5 Q128 821 128 768 Q128 715 165.5 677.5 Q203 640 256 640 Q309 640 346.5 677.5 Q384 715 384 768 z M1152 384 Q1152 437 1114.5 474.5 Q1077 512 1024 512 Q971 512 933.5 474.5 Q896 437 896 384 Q896 331 933.5 293.5 Q971 256 1024 256 Q1077 256 1114.5 293.5 Q1152 331 1152 384 z M768 768 Q768 821 730.5 858.5 Q693 896 640 896 Q587 896 549.5 858.5 Q512 821 512 768 Q512 715 549.5 677.5 Q587 640 640 640 Q693 640 730.5 677.5 Q768 715 768 768 z M1536 0 L1536 384 Q1536 436 1498 474 Q1460 512 1408 512 Q1356 512 1318 474 Q1280 436 1280 384 L1280 0 Q1280 -52 1318 -90 Q1356 -128 1408 -128 Q1460 -128 1498 -90 Q1536 -52 1536 0 z M1152 768 Q1152 821 1114.5 858.5 Q1077 896 1024 896 Q971 896 933.5 858.5 Q896 821 896 768 Q896 715 933.5 677.5 Q971 640 1024 640 Q1077 640 1114.5 677.5 Q1152 715 1152 768 z M1536 1088 L1536 1344 Q1536 1370 1517 1389 Q1498 1408 1472 1408 L192 1408 Q166 1408 147 1389 Q128 1370 128 1344 L128 1088 Q128 1062 147 1043 Q166 1024 192 1024 L1472 1024 Q1498 1024 1517 1043 Q1536 1062 1536 1088 z M1536 768 Q1536 821 1498.5 858.5 Q1461 896 1408 896 Q1355 896 1317.5 858.5 Q1280 821 1280 768 Q1280 715 1317.5 677.5 Q1355 640 1408 640 Q1461 640 1498.5 677.5 Q1536 715 1536 768 z M1664 1408 L1664 -128 Q1664 -180 1626 -218 Q1588 -256 1536 -256 L128 -256 Q76 -256 38 -218 Q0 -180 0 -128 L0 1408 Q0 1460 38 1498 Q76 1536 128 1536 L1536 1536 Q1588 1536 1626 1498 Q1664 1460 1664 1408 z" pathLength="0" fill="White" transform="translate(0.5714283, 9.536743E-07) scale(0.008928572, -0.008928572) translate(0, -1536)" />
</svg>