<!DOCTYPE svg PUBLIC "-//W3C//DTD SVG 1.1//EN" "http://www.w3.org/Graphics/SVG/1.1/DTD/svg11.dtd">
<svg xmlns="http://www.w3.org/2000/svg" xmlns:xlink="http://www.w3.org/1999/xlink" version="1.1" x="0" y="0" width="16" height="16" overflow="auto" preserveAspectRatio="xMidYMid" baseProfile="tiny" space="preserve">
  <path d="M128 -128 L416 -128 L416 160 L128 160 L128 -128 z M480 -128 L800 -128 L800 160 L480 160 L480 -128 z M128 224 L416 224 L416 544 L128 544 L128 224 z M480 224 L800 224 L800 544 L480 544 L480 224 z M128 608 L416 608 L416 896 L128 896 L128 608 z M864 -128 L1184 -128 L1184 160 L864 160 L864 -128 z M480 608 L800 608 L800 896 L480 896 L480 608 z M1248 -128 L1536 -128 L1536 160 L1248 160 L1248 -128 z M864 224 L1184 224 L1184 544 L864 544 L864 224 z M512 1088 L512 1376 Q512 1389 502.5 1398.5 Q493 1408 480 1408 L416 1408 Q403 1408 393.5 1398.5 Q384 1389 384 1376 L384 1088 Q384 1075 393.5 1065.5 Q403 1056 416 1056 L480 1056 Q493 1056 502.5 1065.5 Q512 1075 512 1088 z M1248 224 L1536 224 L1536 544 L1248 544 L1248 224 z M864 608 L1184 608 L1184 896 L864 896 L864 608 z M1248 608 L1536 608 L1536 896 L1248 896 L1248 608 z M1280 1088 L1280 1376 Q1280 1389 1270.5 1398.5 Q1261 1408 1248 1408 L1184 1408 Q1171 1408 1161.5 1398.5 Q1152 1389 1152 1376 L1152 1088 Q1152 1075 1161.5 1065.5 Q1171 1056 1184 1056 L1248 1056 Q1261 1056 1270.5 1065.5 Q1280 1075 1280 1088 z M1664 1152 L1664 -128 Q1664 -180 1626 -218 Q1588 -256 1536 -256 L128 -256 Q76 -256 38 -218 Q0 -180 0 -128 L0 1152 Q0 1204 38 1242 Q76 1280 128 1280 L256 1280 L256 1376 Q256 1442 303 1489 Q350 1536 416 1536 L480 1536 Q546 1536 593 1489 Q640 1442 640 1376 L640 1280 L1024 1280 L1024 1376 Q1024 1442 1071 1489 Q1118 1536 1184 1536 L1248 1536 Q1314 1536 1361 1489 Q1408 1442 1408 1376 L1408 1280 L1536 1280 Q1588 1280 1626 1242 Q1664 1204 1664 1152 z" pathLength="0" fill="White" transform="translate(0.5714283, 9.536743E-07) scale(0.008928572, -0.008928572) translate(0, -1536)" />
</svg>