<!DOCTYPE svg PUBLIC "-//W3C//DTD SVG 1.1//EN" "http://www.w3.org/Graphics/SVG/1.1/DTD/svg11.dtd">
<svg xmlns="http://www.w3.org/2000/svg" xmlns:xlink="http://www.w3.org/1999/xlink" version="1.1" x="0" y="0" width="16" height="16" overflow="auto" preserveAspectRatio="xMidYMid" baseProfile="tiny" space="preserve">
  <path d="M1303 572 L791 60 Q781 51 768 51 Q755 51 745 60 L457 348 Q448 358 448 371 Q448 384 457 393 L503 439 Q512 448 525 448 Q538 448 548 439 L768 219 L1212 663 Q1222 672 1235 672 Q1248 672 1257 663 L1303 617 Q1312 608 1312 595 Q1312 582 1303 572 z M128 -128 L1536 -128 L1536 896 L128 896 L128 -128 z M512 1088 L512 1376 Q512 1390 503 1399 Q494 1408 480 1408 L416 1408 Q402 1408 393 1399 Q384 1390 384 1376 L384 1088 Q384 1074 393 1065 Q402 1056 416 1056 L480 1056 Q494 1056 503 1065 Q512 1074 512 1088 z M1280 1088 L1280 1376 Q1280 1390 1271 1399 Q1262 1408 1248 1408 L1184 1408 Q1170 1408 1161 1399 Q1152 1390 1152 1376 L1152 1088 Q1152 1074 1161 1065 Q1170 1056 1184 1056 L1248 1056 Q1262 1056 1271 1065 Q1280 1074 1280 1088 z M1664 1152 L1664 -128 Q1664 -180 1626 -218 Q1588 -256 1536 -256 L128 -256 Q76 -256 38 -218 Q0 -180 0 -128 L0 1152 Q0 1204 38 1242 Q76 1280 128 1280 L256 1280 L256 1376 Q256 1442 303 1489 Q350 1536 416 1536 L480 1536 Q546 1536 593 1489 Q640 1442 640 1376 L640 1280 L1024 1280 L1024 1376 Q1024 1442 1071 1489 Q1118 1536 1184 1536 L1248 1536 Q1314 1536 1361 1489 Q1408 1442 1408 1376 L1408 1280 L1536 1280 Q1588 1280 1626 1242 Q1664 1204 1664 1152 z" pathLength="0" fill="White" transform="translate(0.5714283, 9.536743E-07) scale(0.008928572, -0.008928572) translate(0, -1536)" />
</svg>