<!DOCTYPE svg PUBLIC "-//W3C//DTD SVG 1.1//EN" "http://www.w3.org/Graphics/SVG/1.1/DTD/svg11.dtd">
<svg xmlns="http://www.w3.org/2000/svg" xmlns:xlink="http://www.w3.org/1999/xlink" version="1.1" x="0" y="0" width="16" height="16" overflow="auto" preserveAspectRatio="xMidYMid" baseProfile="tiny" space="preserve">
  <path d="M960 864 Q1079 864 1163.5 779.5 Q1248 695 1248 576 Q1248 457 1163.5 372.5 Q1079 288 960 288 Q841 288 756.5 372.5 Q672 457 672 576 Q672 695 756.5 779.5 Q841 864 960 864 z M1664 1280 Q1770 1280 1845 1205 Q1920 1130 1920 1024 L1920 128 Q1920 22 1845 -53 Q1770 -128 1664 -128 L256 -128 Q150 -128 75 -53 Q0 22 0 128 L0 1024 Q0 1130 75 1205 Q150 1280 256 1280 L480 1280 L531 1416 Q550 1465 600.5 1500.5 Q651 1536 704 1536 L1216 1536 Q1269 1536 1319.5 1500.5 Q1370 1465 1389 1416 L1440 1280 L1664 1280 z M960 128 Q1145 128 1276.5 259.5 Q1408 391 1408 576 Q1408 761 1276.5 892.5 Q1145 1024 960 1024 Q775 1024 643.5 892.5 Q512 761 512 576 Q512 391 643.5 259.5 Q775 128 960 128 z" pathLength="0" fill="White" transform="translate(-0.5714283, 0.5714297) scale(0.008928572, -0.008928572) translate(0, -1536)" />
</svg>