<!DOCTYPE svg PUBLIC "-//W3C//DTD SVG 1.1//EN" "http://www.w3.org/Graphics/SVG/1.1/DTD/svg11.dtd">
<svg xmlns="http://www.w3.org/2000/svg" xmlns:xlink="http://www.w3.org/1999/xlink" version="1.1" x="0" y="0" width="16" height="16" overflow="auto" preserveAspectRatio="xMidYMid" baseProfile="tiny" space="preserve">
  <path d="M928 704 Q928 718 919 727 Q910 736 896 736 Q830 736 783 689 Q736 642 736 576 Q736 562 745 553 Q754 544 768 544 Q782 544 791 553 Q800 562 800 576 Q800 616 828 644 Q856 672 896 672 Q910 672 919 681 Q928 690 928 704 z M1152 574 Q1152 468 1077 393 Q1002 318 896 318 Q790 318 715 393 Q640 468 640 574 Q640 680 715 755 Q790 830 896 830 Q1002 830 1077 755 Q1152 680 1152 574 z M128 0 L1664 0 L1664 128 L128 128 L128 0 z M1280 574 Q1280 733 1167.5 845.5 Q1055 958 896 958 Q737 958 624.5 845.5 Q512 733 512 574 Q512 415 624.5 302.5 Q737 190 896 190 Q1055 190 1167.5 302.5 Q1280 415 1280 574 z M256 1216 L640 1216 L640 1344 L256 1344 L256 1216 z M128 1024 L1664 1024 L1664 1142 L1664 1280 L836 1280 L772 1152 L128 1152 L128 1024 z M1792 1280 L1792 0 Q1792 -53 1754.5 -90.5 Q1717 -128 1664 -128 L128 -128 Q75 -128 37.5 -90.5 Q0 -53 0 0 L0 1280 Q0 1333 37.5 1370.5 Q75 1408 128 1408 L1664 1408 Q1717 1408 1754.5 1370.5 Q1792 1333 1792 1280 z" pathLength="0" fill="White" transform="translate(0, 1.311302E-06) scale(0.008928572, -0.008928572) translate(0, -1536)" />
</svg>