<!DOCTYPE svg PUBLIC "-//W3C//DTD SVG 1.1//EN" "http://www.w3.org/Graphics/SVG/1.1/DTD/svg11.dtd">
<svg xmlns="http://www.w3.org/2000/svg" xmlns:xlink="http://www.w3.org/1999/xlink" version="1.1" x="0" y="0" width="16" height="16" overflow="auto" preserveAspectRatio="xMidYMid" baseProfile="tiny" space="preserve">
  <path d="M1216 832 Q1216 858 1197 877 Q1178 896 1152 896 L1024 896 L1024 1024 Q1024 1050 1005 1069 Q986 1088 960 1088 Q934 1088 915 1069 Q896 1050 896 1024 L896 896 L768 896 Q742 896 723 877 Q704 858 704 832 Q704 806 723 787 Q742 768 768 768 L896 768 L896 640 Q896 614 915 595 Q934 576 960 576 Q986 576 1005 595 Q1024 614 1024 640 L1024 768 L1152 768 Q1178 768 1197 787 Q1216 806 1216 832 z M640 0 Q640 -53 602.5 -90.5 Q565 -128 512 -128 Q459 -128 421.5 -90.5 Q384 -53 384 0 Q384 53 421.5 90.5 Q459 128 512 128 Q565 128 602.5 90.5 Q640 53 640 0 z M1536 0 Q1536 -53 1498.5 -90.5 Q1461 -128 1408 -128 Q1355 -128 1317.5 -90.5 Q1280 -53 1280 0 Q1280 53 1317.5 90.5 Q1355 128 1408 128 Q1461 128 1498.5 90.5 Q1536 53 1536 0 z M1664 1088 L1664 576 Q1664 552 1648 533.5 Q1632 515 1607 512 L563 390 Q564 383 567.5 368.5 Q571 354 573.5 342 Q576 330 576 320 Q576 304 552 256 L1472 256 Q1498 256 1517 237 Q1536 218 1536 192 Q1536 166 1517 147 Q1498 128 1472 128 L448 128 Q422 128 403 147 Q384 166 384 192 Q384 206 395 231.5 Q406 257 424.5 291 Q443 325 445 329 L268 1152 L64 1152 Q38 1152 19 1171 Q0 1190 0 1216 Q0 1242 19 1261 Q38 1280 64 1280 L320 1280 Q336 1280 348.5 1273.5 Q361 1267 368.5 1258 Q376 1249 381.5 1233.5 Q387 1218 389 1207 Q391 1196 394.5 1177.5 Q398 1159 399 1152 L1600 1152 Q1626 1152 1645 1133 Q1664 1114 1664 1088 z" pathLength="0" fill="White" transform="translate(0.5714283, -0.5714276) scale(0.008928572, -0.008928572) translate(0, -1536)" />
</svg>