<!DOCTYPE svg PUBLIC "-//W3C//DTD SVG 1.1//EN" "http://www.w3.org/Graphics/SVG/1.1/DTD/svg11.dtd">
<svg xmlns="http://www.w3.org/2000/svg" xmlns:xlink="http://www.w3.org/1999/xlink" version="1.1" x="0" y="0" width="16" height="16" overflow="auto" preserveAspectRatio="xMidYMid" baseProfile="tiny" space="preserve">
  <path d="M785 528 L992 528 Q978 370 893.5 279.5 Q809 189 679 189 Q517 189 424.5 305 Q332 421 332 621 Q332 815 425 932.5 Q518 1050 658 1050 Q806 1050 890 963 Q974 876 987 716 L784 716 Q779 780 748.5 815 Q718 850 667 850 Q610 850 578.5 789.5 Q547 729 547 612 Q547 564 552 528 Q557 492 570 458.5 Q583 425 610 407 Q637 389 676 389 Q771 389 785 528 z M1497 528 L1703 528 Q1689 370 1605 279.5 Q1521 189 1391 189 Q1229 189 1136.5 305 Q1044 421 1044 621 Q1044 815 1137 932.5 Q1230 1050 1370 1050 Q1518 1050 1602 963 Q1686 876 1699 716 L1495 716 Q1491 780 1460 815 Q1429 850 1379 850 Q1322 850 1290.5 789.5 Q1259 729 1259 612 Q1259 564 1264 528 Q1269 492 1282 458.5 Q1295 425 1321.5 407 Q1348 389 1387 389 Q1436 389 1463.5 427 Q1491 465 1497 528 z M1856 647 Q1856 854 1840.5 954 Q1825 1054 1780 1115 Q1774 1123 1766.5 1129 Q1759 1135 1745 1144 Q1731 1153 1729 1155 Q1643 1218 1032 1218 Q407 1218 322 1155 Q317 1151 304.5 1143.5 Q292 1136 283.5 1129.5 Q275 1123 269 1115 Q224 1055 209 955.5 Q194 856 194 647 Q194 439 209 339.5 Q224 240 269 179 Q275 171 284 164 Q293 157 304.5 150 Q316 143 322 138 Q366 105 561.5 89 Q757 73 1032 73 Q1642 73 1729 138 Q1734 142 1746 149 Q1758 156 1766.5 163 Q1775 170 1780 179 Q1826 239 1841 338 Q1856 437 1856 647 z M2048 1408 L2048 -128 L0 -128 L0 1408 L2048 1408 z" pathLength="0" fill="White" transform="translate(-1.142858, 1.311302E-06) scale(0.008928572, -0.008928572) translate(0, -1536)" />
</svg>