<!DOCTYPE svg PUBLIC "-//W3C//DTD SVG 1.1//EN" "http://www.w3.org/Graphics/SVG/1.1/DTD/svg11.dtd">
<svg xmlns="http://www.w3.org/2000/svg" xmlns:xlink="http://www.w3.org/1999/xlink" version="1.1" x="0" y="0" width="16" height="16" overflow="auto" preserveAspectRatio="xMidYMid" baseProfile="tiny" space="preserve">
  <path d="M119 854 L208 854 L163 962 z M740 328 L814 407 L744 486 L581 486 L581 437 L723 437 L723 382 L581 382 L581 328 L740 328 z M898 406 L997 296 L997 513 z M1186 453 Q1186 486 1146 486 L1062 486 L1062 417 L1145 417 Q1186 417 1186 453 z M1475 457 Q1475 486 1433 486 L1351 486 L1351 425 L1432 425 Q1475 425 1475 457 z M1197 923 Q1197 952 1155 952 L1073 952 L1073 892 L1154 892 Q1197 892 1197 923 z M1656 854 L1745 854 L1701 962 z M699 1009 L699 738 L633 738 L633 950 L539 738 L482 738 L388 950 L388 738 L256 738 L231 798 L96 798 L71 738 L1 738 L117 1009 L213 1009 L323 752 L323 1009 L429 1009 L514 825 L591 1009 L699 1009 z M1255 453 Q1255 433 1249.5 418 Q1244 403 1235.5 393 Q1227 383 1213 376.5 Q1199 370 1187 366.5 Q1175 363 1155.5 362 Q1136 361 1124 361 Q1112 361 1091.5 361.5 Q1071 362 1062 362 L1062 271 L936 271 L856 361 L773 271 L517 271 L517 542 L777 542 L857 453 L939 542 L1146 542 Q1255 542 1255 453 z M964 794 L964 738 L747 738 L747 1009 L964 1009 L964 952 L812 952 L812 903 L960 903 L960 848 L812 848 L812 794 L964 794 z M2304 235 L2304 6 Q2304 -49 2265.5 -88.5 Q2227 -128 2172 -128 L132 -128 Q77 -128 38.5 -88.5 Q0 -49 0 6 L0 684 L111 684 L136 745 L191 745 L216 684 L434 684 L434 730 L453 684 L566 684 L586 731 L586 684 L1127 684 L1127 783 L1137 784 Q1147 784 1147 770 L1147 684 L1426 684 L1426 707 Q1449 695 1481 689 Q1513 683 1533.5 682.5 Q1554 682 1596.5 683 Q1639 684 1648 684 L1673 745 L1729 745 L1754 684 L1981 684 L1981 742 L2015 684 L2197 684 L2197 1062 L2017 1062 L2017 1018 L1992 1062 L1807 1062 L1807 1018 L1784 1062 L1535 1062 Q1466 1062 1426 1040 L1426 1062 L1254 1062 L1254 1040 Q1230 1062 1181 1062 L553 1062 L510 965 L467 1062 L269 1062 L269 1018 L247 1062 L78 1062 L0 883 L0 1274 Q0 1329 38.5 1368.5 Q77 1408 132 1408 L2172 1408 Q2227 1408 2265.5 1368.5 Q2304 1329 2304 1274 L2304 596 L2184 596 Q2133 596 2103 574 L2103 596 L1926 596 Q1871 596 1848 574 L1848 596 L1532 596 L1532 574 Q1501 596 1445 596 L1236 596 L1236 574 Q1213 596 1145 596 L911 596 L857 538 L807 596 L458 596 L458 218 L801 218 L856 277 L908 218 L1119 218 L1119 307 L1140 307 Q1199 307 1230 320 L1230 218 L1404 218 L1404 317 L1412 317 Q1420 317 1422 315 Q1424 313 1424 305 L1424 218 L1953 218 Q2010 218 2041 242 L2041 218 L2209 218 Q2269 218 2304 235 z M1546 469 Q1546 446 1534 426 Q1522 406 1500 397 Q1525 388 1534 371 Q1543 354 1543 325 L1543 271 L1478 271 L1478 316 Q1478 349 1466 359.5 Q1454 370 1420 370 L1351 370 L1351 271 L1286 271 L1286 542 L1440 542 Q1488 542 1517 527 Q1546 512 1546 469 z M1269 936 Q1269 912 1256.5 892 Q1244 872 1223 863 Q1249 854 1257.5 837.5 Q1266 821 1266 791 L1266 738 L1201 738 Q1201 747 1201.5 764.5 Q1202 782 1201.5 789.5 Q1201 797 1198.5 808 Q1196 819 1190 824 Q1184 829 1172.5 832.5 Q1161 836 1143 836 L1073 836 L1073 738 L1009 738 L1009 1009 L1162 1008 Q1211 1008 1240 993.5 Q1269 979 1269 936 z M1798 327 L1798 271 L1582 271 L1582 542 L1798 542 L1798 486 L1647 486 L1647 437 L1795 437 L1795 382 L1647 382 L1647 328 z M1372 1009 L1372 738 L1306 738 L1306 1009 L1372 1009 z M2065 357 Q2065 271 1963 271 L1837 271 L1837 329 L1963 329 Q1997 329 1997 354 Q1997 370 1980 375 Q1963 380 1938.5 380 Q1914 380 1889 383.5 Q1864 387 1847 406 Q1830 425 1830 461 Q1830 500 1856 521 Q1882 542 1922 542 L2052 542 L2052 485 L1933 485 Q1897 485 1897 460 Q1897 444 1914.5 439.5 Q1932 435 1956.5 435.5 Q1981 436 2005.5 433 Q2030 430 2047.5 411.5 Q2065 393 2065 357 z M2304 407 L2304 306 Q2280 271 2216 271 L2091 271 L2091 329 L2216 329 Q2249 329 2249 354 Q2249 367 2236.5 373 Q2224 379 2205.5 378.5 Q2187 378 2165.5 380.5 Q2144 383 2125.5 388.5 Q2107 394 2094.5 412.5 Q2082 431 2082 461 Q2082 500 2108.5 521 Q2135 542 2175 542 L2304 542 L2304 485 L2186 485 Q2150 485 2150 460 Q2150 440 2179 438 Q2208 436 2247.5 433 Q2287 430 2304 407 z M2139 1008 L2139 738 L2047 738 L1925 941 L1925 738 L1793 738 L1767 798 L1633 798 L1608 738 L1533 738 Q1404 738 1404 871 Q1404 1009 1537 1009 L1600 1009 L1600 950 Q1593 950 1572 951 Q1551 952 1543.5 951.5 Q1536 951 1520.5 949.5 Q1505 948 1499 943 Q1493 938 1484.5 929.5 Q1476 921 1473 906.5 Q1470 892 1470 873 Q1470 835 1483.5 815 Q1497 795 1533 795 L1562 795 L1654 1008 L1751 1008 L1860 752 L1860 1008 L1959 1008 L2073 820 L2073 1008 L2139 1008 z" pathLength="0" fill="White" transform="translate(-2.285714, 1.311302E-06) scale(0.008928572, -0.008928572) translate(0, -1536)" />
</svg>