<!DOCTYPE svg PUBLIC "-//W3C//DTD SVG 1.1//EN" "http://www.w3.org/Graphics/SVG/1.1/DTD/svg11.dtd">
<svg xmlns="http://www.w3.org/2000/svg" xmlns:xlink="http://www.w3.org/1999/xlink" version="1.1" x="0" y="0" width="16" height="16" overflow="auto" preserveAspectRatio="xMidYMid" baseProfile="tiny" space="preserve">
  <path d="M313 759 Q313 708 277 675 Q248 649 188 649 L171 649 L171 869 L188 869 Q249 869 277 842 Q313 811 313 759 z M2089 824 Q2089 772 2025 772 L2006 772 L2006 873 L2026 873 Q2089 873 2089 824 z M380 759 Q380 833 330 879.5 Q280 926 201 926 L106 926 L106 593 L201 593 Q275 593 320 631 Q380 682 380 759 z M410 593 L475 593 L475 926 L410 926 L410 593 z M730 694 Q730 734 709.5 756 Q689 778 634 798 Q605 808 594.5 817 Q584 826 584 840 Q584 856 597.5 866.5 Q611 877 632 877 Q661 877 685 850 L719 894 Q678 931 621 931 Q577 931 547 903.5 Q517 876 517 836 Q517 801 535 780.5 Q553 760 599 744 Q636 731 644 725 Q663 713 663 691 Q663 671 649 657.5 Q635 644 613 644 Q565 644 542 688 L500 648 Q544 584 615 584 Q666 584 698 614.5 Q730 645 730 694 z M1008 604 L1008 681 Q971 644 930 644 Q881 644 849.5 676.5 Q818 709 818 759 Q818 807 849.5 840.5 Q881 874 927 874 Q970 874 1008 836 L1008 913 Q968 933 928 933 Q854 933 802.5 882.5 Q751 832 751 759 Q751 686 802 635.5 Q853 585 927 585 Q969 585 1008 604 z M2240 0 L2240 527 Q2175 487 2095.5 443 Q2016 399 1858 326 Q1700 253 1528.5 188.5 Q1357 124 1111 54 Q865 -16 607 -64 L2176 -64 Q2202 -64 2221 -45 Q2240 -26 2240 0 z M1389 757 Q1389 832 1336 885 Q1283 938 1208 938 Q1133 938 1080 885 Q1027 832 1027 757 Q1027 682 1080 629 Q1133 576 1208 576 Q1283 576 1336 629 Q1389 682 1389 757 z M1541 584 L1685 926 L1614 926 L1524 702 L1435 926 L1364 926 L1506 584 L1541 584 z M1714 593 L1898 593 L1898 649 L1779 649 L1779 739 L1894 739 L1894 795 L1779 795 L1779 869 L1898 869 L1898 926 L1714 926 L1714 593 z M2105 593 L2185 593 L2080 733 Q2156 749 2156 827 Q2156 874 2125 900 Q2094 926 2038 926 L1941 926 L1941 593 L2006 593 L2006 726 L2015 726 z M2304 1274 L2304 6 Q2304 -50 2265.5 -89 Q2227 -128 2172 -128 L132 -128 Q77 -128 38.5 -89 Q0 -50 0 6 L0 1274 Q0 1330 38.5 1369 Q77 1408 132 1408 L2172 1408 Q2227 1408 2265.5 1369 Q2304 1330 2304 1274 z" pathLength="0" fill="White" transform="translate(-2.285714, 1.311302E-06) scale(0.008928572, -0.008928572) translate(0, -1536)" />
</svg>