<!DOCTYPE svg PUBLIC "-//W3C//DTD SVG 1.1//EN" "http://www.w3.org/Graphics/SVG/1.1/DTD/svg11.dtd">
<svg xmlns="http://www.w3.org/2000/svg" xmlns:xlink="http://www.w3.org/1999/xlink" version="1.1" x="0" y="0" width="16" height="16" overflow="auto" preserveAspectRatio="xMidYMid" baseProfile="tiny" space="preserve">
  <path d="M858 295 L858 988 Q752 947 686 852.5 Q620 758 620 641 Q620 524 686 429.5 Q752 335 858 295 z M1362 641 Q1362 758 1296 852.5 Q1230 947 1124 988 L1124 294 Q1230 335 1296 429.5 Q1362 524 1362 641 z M1577 641 Q1577 482 1498.5 347 Q1420 212 1285 133.5 Q1150 55 991 55 Q872 55 763.5 101.5 Q655 148 576.5 226.5 Q498 305 451.5 413.5 Q405 522 405 641 Q405 800 483.5 935 Q562 1070 697 1148.5 Q832 1227 991 1227 Q1150 1227 1285 1148.5 Q1420 1070 1498.5 935 Q1577 800 1577 641 z M1960 634 Q1960 773 1904.5 895.5 Q1849 1018 1757 1101 Q1665 1184 1543.5 1232 Q1422 1280 1291 1280 L990 1280 Q814 1280 666.5 1199 Q519 1118 431.5 969 Q344 820 344 634 Q344 463 431 316.5 Q518 170 667 85 Q816 0 990 0 L1291 0 Q1420 0 1542.5 50.5 Q1665 101 1757 185.5 Q1849 270 1904.5 388 Q1960 506 1960 634 z M2304 1280 L2304 0 Q2304 -52 2266 -90 Q2228 -128 2176 -128 L128 -128 Q76 -128 38 -90 Q0 -52 0 0 L0 1280 Q0 1332 38 1370 Q76 1408 128 1408 L2176 1408 Q2228 1408 2266 1370 Q2304 1332 2304 1280 z" pathLength="0" fill="White" transform="translate(-2.285714, 1.311302E-06) scale(0.008928572, -0.008928572) translate(0, -1536)" />
</svg>