<!DOCTYPE svg PUBLIC "-//W3C//DTD SVG 1.1//EN" "http://www.w3.org/Graphics/SVG/1.1/DTD/svg11.dtd">
<svg xmlns="http://www.w3.org/2000/svg" xmlns:xlink="http://www.w3.org/1999/xlink" version="1.1" x="0" y="0" width="16" height="16" overflow="auto" preserveAspectRatio="xMidYMid" baseProfile="tiny" space="preserve">
  <path d="M1951 538 Q1951 512 1935.5 493.5 Q1920 475 1897 470 Q1889 468 1879 468 L1726 468 L1726 608 L1879 608 Q1889 608 1897 606 Q1920 601 1935.5 582.5 Q1951 564 1951 538 z M1933 751 Q1933 726 1918 709 Q1903 692 1880 688 Q1877 687 1865 687 L1726 687 L1726 816 L1865 816 Q1868 816 1873.5 815.5 Q1879 815 1880 815 Q1903 811 1918 793.5 Q1933 776 1933 751 z M728 587 L728 895 L500 895 L500 587 Q500 529 462 492.5 Q424 456 357 456 Q249 456 128 515 L128 403 Q181 388 249 380 Q317 372 358 371 L400 370 Q728 370 728 587 z M1442 403 L1442 516 Q1343 464 1242 457 Q1134 449 1073 498 Q1012 547 1012 640 Q1012 733 1073 782 Q1134 831 1242 823 Q1343 816 1442 765 L1442 877 Q1394 889 1342 896.5 Q1290 904 1262 906 L1234 908 Q1107 914 1015.5 894 Q924 874 875 834 Q826 794 804 746 Q782 698 782 640 Q782 582 804 534 Q826 486 875 446 Q924 406 1015.5 386 Q1107 366 1234 372 Q1335 376 1442 403 z M2176 518 Q2176 572 2133 606.5 Q2090 641 2024 646 L2024 649 Q2081 657 2113 690.5 Q2145 724 2145 770 Q2145 825 2104 858 Q2063 891 1997 894 Q1994 894 1985 894.5 Q1976 895 1971 895 L1516 895 L1516 385 L2007 385 Q2081 385 2128.5 421.5 Q2176 458 2176 518 z M2304 1280 L2304 0 Q2304 -52 2266 -90 Q2228 -128 2176 -128 L128 -128 Q76 -128 38 -90 Q0 -52 0 0 L0 1280 Q0 1332 38 1370 Q76 1408 128 1408 L2176 1408 Q2228 1408 2266 1370 Q2304 1332 2304 1280 z" pathLength="0" fill="White" transform="translate(-2.285714, 1.311302E-06) scale(0.008928572, -0.008928572) translate(0, -1536)" />
</svg>