<!DOCTYPE svg PUBLIC "-//W3C//DTD SVG 1.1//EN" "http://www.w3.org/Graphics/SVG/1.1/DTD/svg11.dtd">
<svg xmlns="http://www.w3.org/2000/svg" xmlns:xlink="http://www.w3.org/1999/xlink" version="1.1" x="0" y="0" width="16" height="16" overflow="auto" preserveAspectRatio="xMidYMid" baseProfile="tiny" space="preserve">
  <path d="M671 603 L658 603 Q611 603 611 571 Q611 549 631 549 Q648 549 659 564 Q670 579 671 603 z M1066 639 L1128 639 L1128 642 Q1129 646 1128.5 648.5 Q1128 651 1127.5 655.5 Q1127 660 1125.5 663.5 Q1124 667 1121 670 Q1118 673 1113.5 675 Q1109 677 1102 677 Q1074 677 1066 639 z M1606 603 L1594 603 Q1546 603 1546 571 Q1546 549 1566 549 Q1583 549 1594 564 Q1605 579 1606 603 z M1925 629 Q1925 670 1895 670 Q1876 670 1864 650 Q1852 630 1852 599 Q1852 557 1880 557 Q1900 557 1912.5 577 Q1925 597 1925 629 z M480 770 L567 770 L523 508 L467 508 L499 709 L428 508 L389 508 L385 708 L351 508 L298 508 L342 770 L423 770 L425 607 z M733 663 Q733 657 729 621 Q713 520 712 508 L665 508 L666 530 Q646 504 608 504 Q585 504 570.5 520 Q556 536 556 562 Q556 601 582 622.5 Q608 644 655 644 Q669 644 678 643 Q678 646 678.5 648.5 Q679 651 679.5 653 Q680 655 680 656 Q680 676 644 676 Q615 676 585 666 Q585 670 592 714 Q630 725 659 725 Q733 725 733 663 z M889 721 L881 672 Q859 675 840 675 Q813 675 813 658 Q813 650 817.5 646 Q822 642 839 635 Q879 616 879 575 Q879 503 792 504 Q758 504 734 510 Q734 512 741 559 Q770 551 792 551 Q824 551 824 570 Q824 577 819.5 581.5 Q815 586 798 594 Q755 614 755 653 Q755 725 839 725 Q869 725 889 721 z M977 721 L1005 721 L998 669 L969 669 Q967 652 962.5 628.5 Q958 605 955.5 590 Q953 575 953 572 Q953 556 972 556 Q980 556 988 558 L980 511 Q959 504 940 504 Q897 504 895 551 Q895 563 903 607 Q906 627 928 753 L983 753 z M1180 648 Q1180 625 1173 596 L1062 596 Q1059 574 1072 563 Q1085 552 1110 552 Q1140 552 1168 566 L1159 512 Q1129 504 1102 504 Q1007 504 1007 599 Q1007 654 1034.5 689.5 Q1062 725 1104 725 Q1139 725 1159.5 704 Q1180 683 1180 648 z M1319 722 Q1306 699 1297 660 Q1275 662 1266 636 Q1257 610 1241 508 L1185 508 L1188 522 Q1210 652 1217 721 L1268 721 L1265 688 Q1279 709 1290.5 717.5 Q1302 726 1319 722 z M1506 763 L1497 706 Q1469 720 1447 720 Q1416 720 1396 692.5 Q1376 665 1376 622 Q1376 592 1389.5 575 Q1403 558 1428 558 Q1449 558 1476 571 L1466 512 Q1438 504 1416 504 Q1371 504 1344.5 534.5 Q1318 565 1318 617 Q1318 687 1353.5 731.5 Q1389 776 1445 776 Q1471 776 1506 763 z M1668 663 Q1668 645 1664 621 Q1651 542 1647 508 L1601 508 L1602 530 Q1582 504 1543 504 Q1520 504 1506 520 Q1492 536 1492 562 Q1492 601 1517.5 622.5 Q1543 644 1590 644 Q1605 644 1613 643 Q1615 650 1615 656 Q1615 676 1579 676 Q1550 676 1520 666 Q1520 670 1528 714 Q1566 725 1595 725 Q1668 725 1668 663 z M1809 722 Q1795 698 1788 660 Q1765 662 1756.5 637 Q1748 612 1731 508 L1675 508 L1678 522 Q1697 626 1707 721 L1759 721 Q1759 710 1755 688 Q1770 709 1781.5 717.5 Q1793 726 1809 722 z M1950 770 L2006 770 L1963 508 L1910 508 L1913 527 Q1890 504 1861 504 Q1830 504 1811.5 528 Q1793 552 1793 592 Q1793 645 1820.5 684 Q1848 723 1885 723 Q1916 723 1938 694 z M2061 640 Q2061 788 1988.5 913 Q1916 1038 1790.5 1111 Q1665 1184 1517 1184 Q1336 1184 1189 1074 Q1316 958 1360 790 L1310 790 Q1266 940 1152 1043 Q1038 940 994 790 L944 790 Q988 958 1115 1074 Q968 1184 787 1184 Q639 1184 513.5 1111 Q388 1038 315.5 913 Q243 788 243 640 Q243 492 315.5 367 Q388 242 513.5 169 Q639 96 787 96 Q968 96 1115 206 Q995 317 950 470 L1000 470 Q1046 332 1152 237 Q1258 332 1304 470 L1354 470 Q1309 317 1189 206 Q1336 96 1517 96 Q1665 96 1790.5 169 Q1916 242 1988.5 367 Q2061 492 2061 640 z M2304 1280 L2304 0 Q2304 -52 2266 -90 Q2228 -128 2176 -128 L128 -128 Q76 -128 38 -90 Q0 -52 0 0 L0 1280 Q0 1332 38 1370 Q76 1408 128 1408 L2176 1408 Q2228 1408 2266 1370 Q2304 1332 2304 1280 z" pathLength="0" fill="White" transform="translate(-2.285714, 1.311302E-06) scale(0.008928572, -0.008928572) translate(0, -1536)" />
</svg>