<!DOCTYPE svg PUBLIC "-//W3C//DTD SVG 1.1//EN" "http://www.w3.org/Graphics/SVG/1.1/DTD/svg11.dtd">
<svg xmlns="http://www.w3.org/2000/svg" xmlns:xlink="http://www.w3.org/1999/xlink" version="1.1" x="0" y="0" width="16" height="16" overflow="auto" preserveAspectRatio="xMidYMid" baseProfile="tiny" space="preserve">
  <path d="M745 630 Q745 593 719.5 568.5 Q694 544 657 544 Q628 544 610.5 560 Q593 576 593 604 Q593 641 618 666.5 Q643 692 680 692 Q708 692 726.5 675.5 Q745 659 745 630 z M1530 779 Q1530 737 1508 722 Q1486 707 1442 707 L1410 706 L1427 813 Q1429 824 1440 824 L1458 824 Q1480 824 1493 822 Q1506 820 1518 809.5 Q1530 799 1530 779 z M1881 630 Q1881 594 1855.5 569 Q1830 544 1794 544 Q1765 544 1747 560 Q1729 576 1729 604 Q1729 641 1754 666.5 Q1779 692 1816 692 Q1844 692 1862.5 675.5 Q1881 659 1881 630 z M513 801 Q513 860 474.5 886.5 Q436 913 374 913 L214 913 Q195 913 193 894 L128 486 Q127 480 131 475 Q135 470 141 470 L217 470 Q237 470 239 489 L257 599 Q258 607 264 612 Q270 617 279 618.5 Q288 620 296 620 Q304 620 315 619 Q326 618 329 618 Q415 618 464 666.5 Q513 715 513 801 z M822 489 L863 750 Q864 756 860 761 Q856 766 850 766 L774 766 Q760 766 757 733 Q730 773 662 773 Q590 773 539.5 719 Q489 665 489 592 Q489 533 523.5 498 Q558 463 616 463 Q644 463 674 475 Q704 487 722 507 Q718 495 718 486 Q718 470 731 470 L800 470 Q819 470 822 489 z M1269 752 Q1269 757 1265 761.5 Q1261 766 1256 766 L1179 766 Q1168 766 1161 756 L1055 600 L1011 750 Q1006 766 989 766 L914 766 Q909 766 905 761.5 Q901 757 901 752 Q901 750 920.5 693 Q940 636 962.5 570 Q985 504 986 500 Q904 388 904 380 Q904 367 917 367 L994 367 Q1005 367 1012 377 L1267 745 Q1269 747 1269 752 z M1649 801 Q1649 860 1610.5 886.5 Q1572 913 1510 913 L1351 913 Q1331 913 1329 894 L1264 486 Q1263 480 1267 475 Q1271 470 1277 470 L1359 470 Q1371 470 1375 483 L1393 599 Q1394 607 1400 612 Q1406 617 1415 618.5 Q1424 620 1432 620 Q1440 620 1451 619 Q1462 618 1465 618 Q1551 618 1600 666.5 Q1649 715 1649 801 z M1958 489 L1999 750 Q2000 756 1996 761 Q1992 766 1986 766 L1910 766 Q1896 766 1893 733 Q1867 773 1798 773 Q1726 773 1675.5 719 Q1625 665 1625 592 Q1625 533 1659.5 498 Q1694 463 1752 463 Q1781 463 1811 475 Q1841 487 1858 507 Q1858 506 1856 498 Q1854 490 1854 486 Q1854 470 1867 470 L1936 470 Q1955 470 1958 489 z M2176 898 L2176 899 Q2176 913 2163 913 L2089 913 Q2078 913 2076 902 L2011 486 L2010 484 Q2010 479 2014 474.5 Q2018 470 2024 470 L2090 470 Q2109 470 2111 489 z M392 764 Q387 729 366 718 Q345 707 306 707 L273 706 L290 813 Q292 824 303 824 L322 824 Q362 824 380 812.5 Q398 801 392 764 z M2304 1280 L2304 0 Q2304 -52 2266 -90 Q2228 -128 2176 -128 L128 -128 Q76 -128 38 -90 Q0 -52 0 0 L0 1280 Q0 1332 38 1370 Q76 1408 128 1408 L2176 1408 Q2228 1408 2266 1370 Q2304 1332 2304 1280 z" pathLength="0" fill="White" transform="translate(-2.285714, 1.311302E-06) scale(0.008928572, -0.008928572) translate(0, -1536)" />
</svg>