<!DOCTYPE svg PUBLIC "-//W3C//DTD SVG 1.1//EN" "http://www.w3.org/Graphics/SVG/1.1/DTD/svg11.dtd">
<svg xmlns="http://www.w3.org/2000/svg" xmlns:xlink="http://www.w3.org/1999/xlink" version="1.1" x="0" y="0" width="16" height="16" overflow="auto" preserveAspectRatio="xMidYMid" baseProfile="tiny" space="preserve">
  <path d="M1597 633 Q1597 564 1576 527 Q1557 492 1524 492 Q1501 492 1483 501 L1483 725 Q1512 755 1540 755 Q1597 755 1597 633 z M2035 669 L1925 669 Q1931 767 1981 767 Q2032 767 2035 669 z M476 534 Q476 593 443 625.5 Q410 658 342 683 Q306 696 290 707 Q274 718 274 732 Q274 758 312 758 Q370 758 436 725 L454 837 Q387 869 305 869 Q228 869 182 831 Q134 792 134 722 Q134 664 166.5 631.5 Q199 599 266 575 Q305 561 320.5 549.5 Q336 538 336 522 Q336 491 288 491 Q259 491 218 503.5 Q177 516 146 534 L128 421 Q200 380 296 380 Q377 380 425 417 Q476 458 476 534 z M771 749 L790 860 L694 860 L694 995 L565 974 L547 860 L501 852 L484 749 L546 749 L546 530 Q546 446 590 410 Q628 380 701 380 Q733 380 780 391 L780 509 Q748 502 736 502 Q694 502 694 552 L694 749 L771 749 z M1087 724 L1087 863 Q1072 866 1059 866 Q1027 866 1003.5 850 Q980 834 970 804 L960 860 L829 860 L829 389 L979 389 L979 695 Q1005 726 1061 726 Q1077 726 1087 724 z M1124 389 L1274 389 L1274 860 L1124 860 L1124 389 z M1746 638 Q1746 760 1701 817 Q1661 869 1590 869 Q1526 869 1473 813 L1465 860 L1333 860 L1333 215 L1483 240 L1483 391 Q1519 380 1551 380 Q1634 380 1685 436 Q1746 501 1746 638 z M1278 986 Q1278 1019 1255 1042 Q1232 1065 1199 1065 Q1166 1065 1143 1042 Q1120 1019 1120 986 Q1120 953 1143 929.5 Q1166 906 1199 906 Q1232 906 1255 929.5 Q1278 953 1278 986 z M2176 629 Q2176 742 2128 805 Q2078 869 1984 869 Q1888 869 1832.5 803 Q1777 737 1777 623 Q1777 495 1840 435 Q1895 380 2001 380 Q2102 380 2161 420 L2145 523 Q2088 492 2017 492 Q1974 492 1954 511 Q1931 530 1926 577 L2174 577 Q2176 591 2176 629 z M2304 1280 L2304 0 Q2304 -52 2266 -90 Q2228 -128 2176 -128 L128 -128 Q76 -128 38 -90 Q0 -52 0 0 L0 1280 Q0 1332 38 1370 Q76 1408 128 1408 L2176 1408 Q2228 1408 2266 1370 Q2304 1332 2304 1280 z" pathLength="0" fill="White" transform="translate(-2.285714, 1.311302E-06) scale(0.008928572, -0.008928572) translate(0, -1536)" />
</svg>