<!DOCTYPE svg PUBLIC "-//W3C//DTD SVG 1.1//EN" "http://www.w3.org/Graphics/SVG/1.1/DTD/svg11.dtd">
<svg xmlns="http://www.w3.org/2000/svg" xmlns:xlink="http://www.w3.org/1999/xlink" version="1.1" x="0" y="0" width="16" height="16" overflow="auto" preserveAspectRatio="xMidYMid" baseProfile="tiny" space="preserve">
  <path d="M1975 546 L1837 546 Q1851 583 1903 725 L1906 734 Q1910 744 1916 760 Q1922 776 1925 786 L1937 731 z M531 611 L473 906 Q462 960 398 960 L130 960 L128 947 Q439 868 531 611 z M710 960 L548 522 L531 611 Q505 681 446 740.5 Q387 800 315 829 L450 319 L625 319 L886 960 L710 960 z M849 318 L1015 318 L1119 960 L953 960 z M1617 944 Q1548 971 1468 971 Q1345 971 1267 912 Q1189 853 1188 759 Q1187 657 1333 585 Q1381 562 1400 544 Q1419 526 1419 505 Q1419 475 1389 459 Q1359 443 1320 443 Q1234 443 1164 476 L1142 487 L1119 343 Q1193 309 1304 309 Q1434 308 1512.5 368 Q1591 428 1593 528 Q1593 634 1453 702 Q1404 727 1382 744 Q1360 761 1360 782 Q1360 804 1384.5 820.5 Q1409 837 1455 837 Q1525 838 1579 813 L1594 805 z M2042 960 L1914 960 Q1849 960 1827 906 L1581 318 L1755 318 L1790 414 L2002 414 Q2007 392 2022 318 L2176 318 z M2304 1280 L2304 0 Q2304 -52 2266 -90 Q2228 -128 2176 -128 L128 -128 Q76 -128 38 -90 Q0 -52 0 0 L0 1280 Q0 1332 38 1370 Q76 1408 128 1408 L2176 1408 Q2228 1408 2266 1370 Q2304 1332 2304 1280 z" pathLength="0" fill="White" transform="translate(-2.285714, 1.311302E-06) scale(0.008928572, -0.008928572) translate(0, -1536)" />
</svg>