<!DOCTYPE svg PUBLIC "-//W3C//DTD SVG 1.1//EN" "http://www.w3.org/Graphics/SVG/1.1/DTD/svg11.dtd">
<svg xmlns="http://www.w3.org/2000/svg" xmlns:xlink="http://www.w3.org/1999/xlink" version="1.1" x="0" y="0" width="16" height="16" overflow="auto" preserveAspectRatio="xMidYMid" baseProfile="tiny" space="preserve">
  <path d="M1376 640 L1514 505 Q1544 477 1534 435 Q1522 394 1482 384 L1294 336 L1347 150 Q1359 109 1328 80 Q1299 49 1258 61 L1072 114 L1024 -74 Q1014 -114 973 -126 Q961 -128 954 -128 Q923 -128 903 -106 L768 32 L633 -106 Q605 -136 563 -126 Q522 -115 512 -74 L464 114 L278 61 Q237 49 208 80 Q177 109 189 150 L242 336 L54 384 Q14 394 2 435 Q-8 477 22 505 L160 640 L22 775 Q-8 803 2 845 Q14 886 54 896 L242 944 L189 1130 Q177 1171 208 1200 Q237 1231 278 1219 L464 1166 L512 1354 Q522 1395 563 1405 Q604 1417 633 1386 L768 1247 L903 1386 Q932 1416 973 1405 Q1014 1395 1024 1354 L1072 1166 L1258 1219 Q1299 1231 1328 1200 Q1359 1171 1347 1130 L1294 944 L1482 896 Q1522 886 1534 845 Q1544 803 1514 775 z" pathLength="0" fill="White" transform="translate(1.142858, 0.001489043) scale(0.008928572, -0.008928572) translate(0, -1536)" />
</svg>