<!DOCTYPE svg PUBLIC "-//W3C//DTD SVG 1.1//EN" "http://www.w3.org/Graphics/SVG/1.1/DTD/svg11.dtd">
<svg xmlns="http://www.w3.org/2000/svg" xmlns:xlink="http://www.w3.org/1999/xlink" version="1.1" x="0" y="0" width="16" height="16" overflow="auto" preserveAspectRatio="xMidYMid" baseProfile="tiny" space="preserve">
  <path d="M1456 320 Q1456 360 1428 388 L1220 596 Q1192 624 1152 624 Q1110 624 1080 592 Q1083 589 1099 573.5 Q1115 558 1120.5 552 Q1126 546 1135.5 533 Q1145 520 1148.5 507.5 Q1152 495 1152 480 Q1152 440 1124 412 Q1096 384 1056 384 Q1041 384 1028.5 387.5 Q1016 391 1003 400.5 Q990 410 984 415.5 Q978 421 962.5 437 Q947 453 944 456 Q911 425 911 383 Q911 343 939 315 L1145 108 Q1172 81 1213 81 Q1253 81 1281 107 L1428 253 Q1456 281 1456 320 z M753 1025 Q753 1065 725 1093 L519 1300 Q491 1328 451 1328 Q412 1328 383 1301 L236 1155 Q208 1127 208 1088 Q208 1048 236 1020 L444 812 Q471 785 512 785 Q554 785 584 816 Q581 819 565 834.5 Q549 850 543.5 856 Q538 862 528.5 875 Q519 888 515.5 900.5 Q512 913 512 928 Q512 968 540 996 Q568 1024 608 1024 Q623 1024 635.5 1020.5 Q648 1017 661 1007.5 Q674 998 680 992.5 Q686 987 701.5 971 Q717 955 720 952 Q753 983 753 1025 z M1648 320 Q1648 200 1563 117 L1416 -29 Q1333 -112 1213 -112 Q1092 -112 1009 -27 L803 180 Q720 263 720 383 Q720 506 808 592 L720 680 Q634 592 512 592 Q392 592 308 676 L100 884 Q16 968 16 1088 Q16 1208 101 1291 L248 1437 Q331 1520 451 1520 Q572 1520 655 1435 L861 1228 Q944 1145 944 1025 Q944 902 856 816 L944 728 Q1030 816 1152 816 Q1272 816 1356 732 L1564 524 Q1648 440 1648 320 z" pathLength="0" fill="White" transform="translate(0.5714292, 0.5714297) scale(0.008928572, -0.008928572) translate(0, -1536)" />
</svg>