<!DOCTYPE svg PUBLIC "-//W3C//DTD SVG 1.1//EN" "http://www.w3.org/Graphics/SVG/1.1/DTD/svg11.dtd">
<svg xmlns="http://www.w3.org/2000/svg" xmlns:xlink="http://www.w3.org/1999/xlink" version="1.1" x="0" y="0" width="16" height="16" overflow="auto" preserveAspectRatio="xMidYMid" baseProfile="tiny" space="preserve">
  <path d="M1671 970 Q1671 930 1643 902 L919 178 L783 42 Q755 14 715 14 Q675 14 647 42 L511 178 L149 540 Q121 568 121 608 Q121 648 149 676 L285 812 Q313 840 353 840 Q393 840 421 812 L715 517 L1371 1174 Q1399 1202 1439 1202 Q1479 1202 1507 1174 L1643 1038 Q1671 1010 1671 970 z" pathLength="0" fill="White" transform="translate(4.768372E-07, -0.2857137) scale(0.008928572, -0.008928572) translate(0, -1536)" />
</svg>