<!DOCTYPE svg PUBLIC "-//W3C//DTD SVG 1.1//EN" "http://www.w3.org/Graphics/SVG/1.1/DTD/svg11.dtd">
<svg xmlns="http://www.w3.org/2000/svg" xmlns:xlink="http://www.w3.org/1999/xlink" version="1.1" x="0" y="0" width="16" height="16" overflow="auto" preserveAspectRatio="xMidYMid" baseProfile="tiny" space="preserve">
  <path d="M1408 606 L1408 288 Q1408 169 1323.5 84.5 Q1239 0 1120 0 L288 0 Q169 0 84.5 84.5 Q0 169 0 288 L0 1120 Q0 1239 84.5 1323.5 Q169 1408 288 1408 L1120 1408 Q1183 1408 1237 1383 Q1252 1376 1255 1360 Q1258 1343 1246 1331 L1197 1282 Q1187 1272 1174 1272 Q1171 1272 1165 1274 Q1142 1280 1120 1280 L288 1280 Q222 1280 175 1233 Q128 1186 128 1120 L128 288 Q128 222 175 175 Q222 128 288 128 L1120 128 Q1186 128 1233 175 Q1280 222 1280 288 L1280 542 Q1280 555 1289 564 L1353 628 Q1363 638 1376 638 Q1382 638 1388 635 Q1408 627 1408 606 z M1639 1095 L825 281 Q801 257 768 257 Q735 257 711 281 L281 711 Q257 735 257 768 Q257 801 281 825 L391 935 Q415 959 448 959 Q481 959 505 935 L768 672 L1415 1319 Q1439 1343 1472 1343 Q1505 1343 1529 1319 L1639 1209 Q1663 1185 1663 1152 Q1663 1119 1639 1095 z" pathLength="0" fill="White" transform="translate(0.5758929, 0.5714296) scale(0.008928572, -0.008928572) translate(0, -1536)" />
</svg>