<!DOCTYPE svg PUBLIC "-//W3C//DTD SVG 1.1//EN" "http://www.w3.org/Graphics/SVG/1.1/DTD/svg11.dtd">
<svg xmlns="http://www.w3.org/2000/svg" xmlns:xlink="http://www.w3.org/1999/xlink" version="1.1" x="0" y="0" width="16" height="16" overflow="auto" preserveAspectRatio="xMidYMid" baseProfile="tiny" space="preserve">
  <path d="M1683 205 L1517 40 Q1498 21 1472 21 Q1446 21 1427 40 L896 571 L365 40 Q346 21 320 21 Q294 21 275 40 L109 205 Q90 224 90 250.5 Q90 277 109 296 L851 1037 Q870 1056 896 1056 Q922 1056 941 1037 L1683 296 Q1702 277 1702 250.5 Q1702 224 1683 205 z" pathLength="0" fill="White" transform="translate(7.152557E-07, -0.9062486) scale(0.008928572, -0.008928572) translate(0, -1536)" />
</svg>