<!DOCTYPE svg PUBLIC "-//W3C//DTD SVG 1.1//EN" "http://www.w3.org/Graphics/SVG/1.1/DTD/svg11.dtd">
<svg xmlns="http://www.w3.org/2000/svg" xmlns:xlink="http://www.w3.org/1999/xlink" version="1.1" x="0" y="0" width="16" height="16" overflow="auto" preserveAspectRatio="xMidYMid" baseProfile="tiny" space="preserve">
  <path d="M1107 659 L365 -83 Q346 -102 320 -102 Q294 -102 275 -83 L109 83 Q90 102 90 128 Q90 154 109 173 L640 704 L109 1235 Q90 1254 90 1280 Q90 1306 109 1325 L275 1491 Q294 1510 320 1510 Q346 1510 365 1491 L1107 749 Q1126 730 1126 704 Q1126 678 1107 659 z" pathLength="0" fill="White" transform="translate(2.571429, 0.5714293) scale(0.008928572, -0.008928572) translate(0, -1536)" />
</svg>