<!DOCTYPE svg PUBLIC "-//W3C//DTD SVG 1.1//EN" "http://www.w3.org/Graphics/SVG/1.1/DTD/svg11.dtd">
<svg xmlns="http://www.w3.org/2000/svg" xmlns:xlink="http://www.w3.org/1999/xlink" version="1.1" x="0" y="0" width="16" height="16" overflow="auto" preserveAspectRatio="xMidYMid" baseProfile="tiny" space="preserve">
  <path d="M1683 728 L941 -13 Q922 -32 896 -32 Q870 -32 851 -13 L109 728 Q90 747 90 773.5 Q90 800 109 819 L275 984 Q294 1003 320 1003 Q346 1003 365 984 L896 453 L1427 984 Q1446 1003 1472 1003 Q1498 1003 1517 984 L1683 819 Q1702 800 1702 773.5 Q1702 747 1683 728 z" pathLength="0" fill="White" transform="translate(7.152557E-07, -1.379464) scale(0.008928572, -0.008928572) translate(0, -1536)" />
</svg>