<!DOCTYPE svg PUBLIC "-//W3C//DTD SVG 1.1//EN" "http://www.w3.org/Graphics/SVG/1.1/DTD/svg11.dtd">
<svg xmlns="http://www.w3.org/2000/svg" xmlns:xlink="http://www.w3.org/1999/xlink" version="1.1" x="0" y="0" width="16" height="16" overflow="auto" preserveAspectRatio="xMidYMid" baseProfile="tiny" space="preserve">
  <path d="M1171 1235 L640 704 L1171 173 Q1190 154 1190 128 Q1190 102 1171 83 L1005 -83 Q986 -102 960 -102 Q934 -102 915 -83 L173 659 Q154 678 154 704 Q154 730 173 749 L915 1491 Q934 1510 960 1510 Q986 1510 1005 1491 L1171 1325 Q1190 1306 1190 1280 Q1190 1254 1171 1235 z" pathLength="0" fill="White" transform="translate(2, 0.5714293) scale(0.008928572, -0.008928572) translate(0, -1536)" />
</svg>