<!DOCTYPE svg PUBLIC "-//W3C//DTD SVG 1.1//EN" "http://www.w3.org/Graphics/SVG/1.1/DTD/svg11.dtd">
<svg xmlns="http://www.w3.org/2000/svg" xmlns:xlink="http://www.w3.org/1999/xlink" version="1.1" x="0" y="0" width="16" height="16" overflow="auto" preserveAspectRatio="xMidYMid" baseProfile="tiny" space="preserve">
  <path d="M1188 988 L896 696 L896 -128 Q896 -174 863 -207 Q830 -240 784 -240 Q738 -240 705 -207 Q672 -174 672 -128 L672 256 L608 256 L608 -128 Q608 -174 575 -207 Q542 -240 496 -240 Q450 -240 417 -207 Q384 -174 384 -128 L384 696 L92 988 Q64 1016 64 1056 Q64 1096 92 1124 Q120 1152 160 1152 Q200 1152 228 1124 L456 896 L824 896 L1052 1124 Q1080 1152 1120 1152 Q1160 1152 1188 1124 Q1216 1096 1216 1056 Q1216 1016 1188 988 z M864 1152 Q864 1059 798.5 993.5 Q733 928 640 928 Q547 928 481.5 993.5 Q416 1059 416 1152 Q416 1245 481.5 1310.5 Q547 1376 640 1376 Q733 1376 798.5 1310.5 Q864 1245 864 1152 z" pathLength="0" fill="White" transform="translate(2.285715, -0.6428559) scale(0.008928572, -0.008928572) translate(0, -1536)" />
</svg>