<!DOCTYPE svg PUBLIC "-//W3C//DTD SVG 1.1//EN" "http://www.w3.org/Graphics/SVG/1.1/DTD/svg11.dtd">
<svg xmlns="http://www.w3.org/2000/svg" xmlns:xlink="http://www.w3.org/1999/xlink" version="1.1" x="0" y="0" width="16" height="16" overflow="auto" preserveAspectRatio="xMidYMid" baseProfile="tiny" space="preserve">
  <path d="M893 1536 Q1133 1538 1344 1416 Q1576 1282 1696 1044 L954 1083 Q794 1092 660 1008.5 Q526 925 475 779 L199 1203 Q327 1362 510 1448.5 Q693 1535 893 1536 z M146 1131 L483 468 Q555 325 694 251 Q833 177 987 206 L757 -245 Q545 -212 372 -87.5 Q199 37 99.5 228.5 Q0 420 0 640 Q0 907 146 1131 z M1732 962 Q1790 812 1791.5 651.5 Q1793 491 1743 345.5 Q1693 200 1590 73.5 Q1487 -53 1344 -136 Q1114 -269 846 -255 L1251 368 Q1339 499 1333.5 658.5 Q1328 818 1227 936 z M896 942 Q1021 942 1109.5 853.5 Q1198 765 1198 640 Q1198 515 1109.5 426.5 Q1021 338 896 338 Q771 338 682.5 426.5 Q594 515 594 640 Q594 765 682.5 853.5 Q771 942 896 942 z" pathLength="0" fill="White" transform="translate(-0.002231598, -0.03124721) scale(0.008928572, -0.008928572) translate(0, -1536)" />
</svg>