<!DOCTYPE svg PUBLIC "-//W3C//DTD SVG 1.1//EN" "http://www.w3.org/Graphics/SVG/1.1/DTD/svg11.dtd">
<svg xmlns="http://www.w3.org/2000/svg" xmlns:xlink="http://www.w3.org/1999/xlink" version="1.1" x="0" y="0" width="16" height="16" overflow="auto" preserveAspectRatio="xMidYMid" baseProfile="tiny" space="preserve">
  <path d="M1792 640 Q1792 458 1721 292 Q1650 126 1530 6 Q1410 -114 1244 -185 Q1078 -256 896 -256 Q714 -256 548 -185 Q382 -114 262 6 Q142 126 71 292 Q0 458 0 640 Q0 862 101 1054.5 Q202 1247 377.5 1371.5 Q553 1496 768 1527 L768 1267 Q547 1222 401.5 1046 Q256 870 256 640 Q256 510 307 391.5 Q358 273 443.5 187.5 Q529 102 647.5 51 Q766 0 896 0 Q1026 0 1144.5 51 Q1263 102 1348.5 187.5 Q1434 273 1485 391.5 Q1536 510 1536 640 Q1536 870 1390.5 1046 Q1245 1222 1024 1267 L1024 1527 Q1239 1496 1414.5 1371.5 Q1590 1247 1691 1054.5 Q1792 862 1792 640 z" pathLength="0" fill="White" transform="translate(0, -0.04017741) scale(0.008928572, -0.008928572) translate(0, -1536)" />
</svg>