<!DOCTYPE svg PUBLIC "-//W3C//DTD SVG 1.1//EN" "http://www.w3.org/Graphics/SVG/1.1/DTD/svg11.dtd">
<svg xmlns="http://www.w3.org/2000/svg" xmlns:xlink="http://www.w3.org/1999/xlink" version="1.1" x="0" y="0" width="16" height="16" overflow="auto" preserveAspectRatio="xMidYMid" baseProfile="tiny" space="preserve">
  <path d="M1664 -96 L1664 992 Q1664 1005 1654.5 1014.5 Q1645 1024 1632 1024 L544 1024 Q531 1024 521.5 1014.5 Q512 1005 512 992 L512 -96 Q512 -109 521.5 -118.5 Q531 -128 544 -128 L1632 -128 Q1645 -128 1654.5 -118.5 Q1664 -109 1664 -96 z M1792 992 L1792 -96 Q1792 -162 1745 -209 Q1698 -256 1632 -256 L544 -256 Q478 -256 431 -209 Q384 -162 384 -96 L384 992 Q384 1058 431 1105 Q478 1152 544 1152 L1632 1152 Q1698 1152 1745 1105 Q1792 1058 1792 992 z M1408 1376 L1408 1216 L1280 1216 L1280 1376 Q1280 1389 1270.5 1398.5 Q1261 1408 1248 1408 L160 1408 Q147 1408 137.5 1398.5 Q128 1389 128 1376 L128 288 Q128 275 137.5 265.5 Q147 256 160 256 L320 256 L320 128 L160 128 Q94 128 47 175 Q0 222 0 288 L0 1376 Q0 1442 47 1489 Q94 1536 160 1536 L1248 1536 Q1314 1536 1361 1489 Q1408 1442 1408 1376 z" pathLength="0" fill="White" transform="translate(0, 9.536743E-07) scale(0.008928572, -0.008928572) translate(0, -1536)" />
</svg>