<!DOCTYPE svg PUBLIC "-//W3C//DTD SVG 1.1//EN" "http://www.w3.org/Graphics/SVG/1.1/DTD/svg11.dtd">
<svg xmlns="http://www.w3.org/2000/svg" xmlns:xlink="http://www.w3.org/1999/xlink" version="1.1" x="0" y="0" width="16" height="16" overflow="auto" preserveAspectRatio="xMidYMid" baseProfile="tiny" space="preserve">
  <path d="M1280 608 Q1280 622 1271 631 Q1262 640 1248 640 L1024 640 L1024 992 Q1024 1005 1014.5 1014.5 Q1005 1024 992 1024 L800 1024 Q787 1024 777.5 1014.5 Q768 1005 768 992 L768 640 L544 640 Q531 640 521.5 630.5 Q512 621 512 608 Q512 594 521 585 L873 233 Q882 224 896 224 Q910 224 919 233 L1270 584 Q1280 596 1280 608 z M1920 384 Q1920 225 1807.5 112.5 Q1695 0 1536 0 L448 0 Q263 0 131.5 131.5 Q0 263 0 448 Q0 578 70 688 Q140 798 258 853 Q256 883 256 896 Q256 1108 406 1258 Q556 1408 768 1408 Q924 1408 1053.5 1321 Q1183 1234 1242 1090 Q1313 1152 1408 1152 Q1514 1152 1589 1077 Q1664 1002 1664 896 Q1664 820 1623 758 Q1753 727 1836.5 622.5 Q1920 518 1920 384 z" pathLength="0" fill="White" transform="translate(-0.5714283, 0.5714296) scale(0.008928572, -0.008928572) translate(0, -1536)" />
</svg>