<!DOCTYPE svg PUBLIC "-//W3C//DTD SVG 1.1//EN" "http://www.w3.org/Graphics/SVG/1.1/DTD/svg11.dtd">
<svg xmlns="http://www.w3.org/2000/svg" xmlns:xlink="http://www.w3.org/1999/xlink" version="1.1" x="0" y="0" width="16" height="16" overflow="auto" preserveAspectRatio="xMidYMid" baseProfile="tiny" space="preserve">
  <path d="M603 0 L431 0 Q418 0 408.5 9 Q399 18 399 32 L399 362 L111 362 Q98 362 88.5 371 Q79 380 79 394 L79 497 Q79 510 88.5 519.5 Q98 529 111 529 L399 529 L399 614 L111 614 Q98 614 88.5 623 Q79 632 79 646 L79 750 Q79 763 88.5 772.5 Q98 782 111 782 L325 782 L4 1360 Q-4 1376 4 1392 Q14 1408 32 1408 L226 1408 Q245 1408 255 1390 L470 965 Q489 927 526 840 Q536 864 556.5 908 Q577 952 584 969 L775 1389 Q783 1408 804 1408 L995 1408 Q1012 1408 1022 1392 Q1031 1378 1023 1361 L710 782 L925 782 Q938 782 947.5 772.5 Q957 763 957 750 L957 646 Q957 632 947.5 623 Q938 614 925 614 L635 614 L635 529 L925 529 Q938 529 947.5 519.5 Q957 510 957 497 L957 394 Q957 380 947.5 371 Q938 362 925 362 L635 362 L635 32 Q635 19 625.5 9.5 Q616 0 603 0 z" pathLength="0" fill="White" transform="translate(3.415179, 0.5714296) scale(0.008928572, -0.008928572) translate(0, -1536)" />
</svg>