<!DOCTYPE svg PUBLIC "-//W3C//DTD SVG 1.1//EN" "http://www.w3.org/Graphics/SVG/1.1/DTD/svg11.dtd">
<svg xmlns="http://www.w3.org/2000/svg" xmlns:xlink="http://www.w3.org/1999/xlink" version="1.1" x="0" y="0" width="16" height="16" overflow="auto" preserveAspectRatio="xMidYMid" baseProfile="tiny" space="preserve">
  <path d="M288 64 Q288 104 260 132 Q232 160 192 160 Q152 160 124 132 Q96 104 96 64 Q96 24 124 -4 Q152 -32 192 -32 Q232 -32 260 -4 Q288 24 288 64 z M288 1216 Q288 1256 260 1284 Q232 1312 192 1312 Q152 1312 124 1284 Q96 1256 96 1216 Q96 1176 124 1148 Q152 1120 192 1120 Q232 1120 260 1148 Q288 1176 288 1216 z M928 1088 Q928 1128 900 1156 Q872 1184 832 1184 Q792 1184 764 1156 Q736 1128 736 1088 Q736 1048 764 1020 Q792 992 832 992 Q872 992 900 1020 Q928 1048 928 1088 z M1024 1088 Q1024 1036 998 991.5 Q972 947 928 922 Q926 635 702 508 Q634 470 499 427 Q371 387 329.5 356 Q288 325 288 256 L288 230 Q332 205 358 160.5 Q384 116 384 64 Q384 -16 328 -72 Q272 -128 192 -128 Q112 -128 56 -72 Q0 -16 0 64 Q0 116 26 160.5 Q52 205 96 230 L96 1050 Q52 1075 26 1119.5 Q0 1164 0 1216 Q0 1296 56 1352 Q112 1408 192 1408 Q272 1408 328 1352 Q384 1296 384 1216 Q384 1164 358 1119.5 Q332 1075 288 1050 L288 553 Q342 579 442 610 Q497 627 529.5 639.5 Q562 652 600 670.5 Q638 689 659 710 Q680 731 699.5 761 Q719 791 727.5 830.5 Q736 870 736 922 Q692 947 666 991.5 Q640 1036 640 1088 Q640 1168 696 1224 Q752 1280 832 1280 Q912 1280 968 1224 Q1024 1168 1024 1088 z" pathLength="0" fill="White" transform="translate(3.428571, 1.311302E-06) scale(0.008928572, -0.008928572) translate(0, -1536)" />
</svg>