<!DOCTYPE svg PUBLIC "-//W3C//DTD SVG 1.1//EN" "http://www.w3.org/Graphics/SVG/1.1/DTD/svg11.dtd">
<svg xmlns="http://www.w3.org/2000/svg" xmlns:xlink="http://www.w3.org/1999/xlink" version="1.1" x="0" y="0" width="16" height="16" overflow="auto" preserveAspectRatio="xMidYMid" baseProfile="tiny" space="preserve">
  <path d="M617 137 L567 87 Q557 77 544 77 Q531 77 521 87 L55 553 Q45 563 45 576 Q45 589 55 599 L521 1065 Q531 1075 544 1075 Q557 1075 567 1065 L617 1015 Q627 1005 627 992 Q627 979 617 969 L224 576 L617 183 Q627 173 627 160 Q627 147 617 137 z M1208 1204 L835 -87 Q831 -100 819.5 -106.5 Q808 -113 796 -109 L734 -92 Q721 -88 714.5 -76.5 Q708 -65 712 -52 L1085 1239 Q1089 1252 1100.5 1258.5 Q1112 1265 1124 1261 L1186 1244 Q1199 1240 1205.5 1228.5 Q1212 1217 1208 1204 z M1865 553 L1399 87 Q1389 77 1376 77 Q1363 77 1353 87 L1303 137 Q1293 147 1293 160 Q1293 173 1303 183 L1696 576 L1303 969 Q1293 979 1293 992 Q1293 1005 1303 1015 L1353 1065 Q1363 1075 1376 1075 Q1389 1075 1399 1065 L1865 599 Q1875 589 1875 576 Q1875 563 1865 553 z" pathLength="0" fill="White" transform="translate(-0.5714272, -0.5714276) scale(0.008928572, -0.008928572) translate(0, -1536)" />
</svg>