<!DOCTYPE svg PUBLIC "-//W3C//DTD SVG 1.1//EN" "http://www.w3.org/Graphics/SVG/1.1/DTD/svg11.dtd">
<svg xmlns="http://www.w3.org/2000/svg" xmlns:xlink="http://www.w3.org/1999/xlink" version="1.1" x="0" y="0" width="16" height="16" overflow="auto" preserveAspectRatio="xMidYMid" baseProfile="tiny" space="preserve">
  <path d="M160 0 L768 0 L768 1152 L128 1152 L128 32 Q128 19 137.5 9.5 Q147 0 160 0 z M1536 32 L1536 1152 L896 1152 L896 0 L1504 0 Q1517 0 1526.5 9.5 Q1536 19 1536 32 z M1664 1248 L1664 32 Q1664 -34 1617 -81 Q1570 -128 1504 -128 L160 -128 Q94 -128 47 -81 Q0 -34 0 32 L0 1248 Q0 1314 47 1361 Q94 1408 160 1408 L1504 1408 Q1570 1408 1617 1361 Q1664 1314 1664 1248 z" pathLength="0" fill="White" transform="translate(0.5714283, 1.311302E-06) scale(0.008928572, -0.008928572) translate(0, -1536)" />
</svg>