<!DOCTYPE svg PUBLIC "-//W3C//DTD SVG 1.1//EN" "http://www.w3.org/Graphics/SVG/1.1/DTD/svg11.dtd">
<svg xmlns="http://www.w3.org/2000/svg" xmlns:xlink="http://www.w3.org/1999/xlink" version="1.1" x="0" y="0" width="16" height="16" overflow="auto" preserveAspectRatio="xMidYMid" baseProfile="tiny" space="preserve">
  <path d="M640 640 Q640 693 602.5 730.5 Q565 768 512 768 Q459 768 421.5 730.5 Q384 693 384 640 Q384 587 421.5 549.5 Q459 512 512 512 Q565 512 602.5 549.5 Q640 587 640 640 z M1024 640 Q1024 693 986.5 730.5 Q949 768 896 768 Q843 768 805.5 730.5 Q768 693 768 640 Q768 587 805.5 549.5 Q843 512 896 512 Q949 512 986.5 549.5 Q1024 587 1024 640 z M1408 640 Q1408 693 1370.5 730.5 Q1333 768 1280 768 Q1227 768 1189.5 730.5 Q1152 693 1152 640 Q1152 587 1189.5 549.5 Q1227 512 1280 512 Q1333 512 1370.5 549.5 Q1408 587 1408 640 z M1792 640 Q1792 466 1672 318.5 Q1552 171 1346 85.5 Q1140 0 896 0 Q786 0 685 18 Q512 -155 250 -211 Q198 -221 164 -224 Q152 -225 142 -218 Q132 -211 129 -200 Q125 -185 149 -163 Q154 -158 172.5 -141.5 Q191 -125 198 -118 Q205 -111 221.5 -92.5 Q238 -74 245.5 -61 Q253 -48 266 -24 Q279 0 286 24 Q293 48 300.5 81.5 Q308 115 313 154 Q167 244 83.5 370.5 Q0 497 0 640 Q0 814 120 961.5 Q240 1109 446 1194.5 Q652 1280 896 1280 Q1140 1280 1346 1194.5 Q1552 1109 1672 961.5 Q1792 814 1792 640 z" pathLength="0" fill="White" transform="translate(0, -1.002975) scale(0.008928572, -0.008928572) translate(0, -1536)" />
</svg>