<!DOCTYPE svg PUBLIC "-//W3C//DTD SVG 1.1//EN" "http://www.w3.org/Graphics/SVG/1.1/DTD/svg11.dtd">
<svg xmlns="http://www.w3.org/2000/svg" xmlns:xlink="http://www.w3.org/1999/xlink" version="1.1" x="0" y="0" width="16" height="16" overflow="auto" preserveAspectRatio="xMidYMid" baseProfile="tiny" space="preserve">
  <path d="M1792 640 Q1792 466 1672 318.5 Q1552 171 1346 85.5 Q1140 0 896 0 Q826 0 751 8 Q553 -167 291 -234 Q242 -248 177 -256 Q160 -258 146.5 -247 Q133 -236 129 -218 L129 -217 Q126 -213 128.5 -205 Q131 -197 130.5 -195 Q130 -193 135 -185.5 L141 -176.5 Q141 -176.5 148 -168 Q155 -159.5 156 -159 Q163 -151 187 -124.5 Q211 -98 221.5 -86.5 Q232 -75 252.5 -47 Q273 -19 285 4 Q297 27 312 63 Q327 99 338 139 Q181 228 90.5 359 Q0 490 0 640 Q0 770 71 888.5 Q142 1007 262 1093 Q382 1179 548 1229.5 Q714 1280 896 1280 Q1140 1280 1346 1194.5 Q1552 1109 1672 961.5 Q1792 814 1792 640 z" pathLength="0" fill="White" transform="translate(0, -1.148808) scale(0.008928572, -0.008928572) translate(0, -1536)" />
</svg>