<!DOCTYPE svg PUBLIC "-//W3C//DTD SVG 1.1//EN" "http://www.w3.org/Graphics/SVG/1.1/DTD/svg11.dtd">
<svg xmlns="http://www.w3.org/2000/svg" xmlns:xlink="http://www.w3.org/1999/xlink" version="1.1" x="0" y="0" width="16" height="16" overflow="auto" preserveAspectRatio="xMidYMid" baseProfile="tiny" space="preserve">
  <path d="M896 1152 Q692 1152 514.5 1082.5 Q337 1013 232.5 895 Q128 777 128 640 Q128 528 199.5 426.5 Q271 325 401 251 L488 201 L461 105 Q437 14 391 -67 Q543 -4 666 104 L709 142 L766 136 Q835 128 896 128 Q1100 128 1277.5 197.5 Q1455 267 1559.5 385 Q1664 503 1664 640 Q1664 777 1559.5 895 Q1455 1013 1277.5 1082.5 Q1100 1152 896 1152 z M1792 640 Q1792 466 1672 318.5 Q1552 171 1346 85.5 Q1140 0 896 0 Q826 0 751 8 Q553 -167 291 -234 Q242 -248 177 -256 L172 -256 Q157 -256 145 -245.5 Q133 -235 129 -218 L129 -217 Q126 -213 128.5 -205 Q131 -197 130.5 -195 Q130 -193 135 -185.5 L141 -176.5 Q141 -176.5 148 -168 Q155 -159.5 156 -159 Q163 -151 187 -124.5 Q211 -98 221.5 -86.5 Q232 -75 252.5 -47 Q273 -19 285 4 Q297 27 312 63 Q327 99 338 139 Q181 228 90.5 359 Q0 490 0 640 Q0 814 120 961.5 Q240 1109 446 1194.5 Q652 1280 896 1280 Q1140 1280 1346 1194.5 Q1552 1109 1672 961.5 Q1792 814 1792 640 z" pathLength="0" fill="White" transform="translate(0, -1.142856) scale(0.008928572, -0.008928572) translate(0, -1536)" />
</svg>