<!DOCTYPE svg PUBLIC "-//W3C//DTD SVG 1.1//EN" "http://www.w3.org/Graphics/SVG/1.1/DTD/svg11.dtd">
<svg xmlns="http://www.w3.org/2000/svg" xmlns:xlink="http://www.w3.org/1999/xlink" version="1.1" x="0" y="0" width="16" height="16" overflow="auto" preserveAspectRatio="xMidYMid" baseProfile="tiny" space="preserve">
  <path d="M1408 768 Q1408 629 1314 511 Q1220 393 1057.5 324.5 Q895 256 704 256 Q618 256 528 272 Q404 184 250 144 Q214 135 164 128 L161 128 Q150 128 140.5 136 Q131 144 129 157 Q128 160 128 163.5 Q128 167 128.5 170 Q129 173 130.5 176 L133 181 Q133 181 136.5 186.5 Q140 192 140.5 191.5 Q141 191 145 196.5 Q149 202 149 201 Q154 207 172 226 Q190 245 198 255.5 Q206 266 220.5 284.5 Q235 303 245.5 323 Q256 343 266 367 Q142 439 71 544 Q0 649 0 768 Q0 907 94 1025 Q188 1143 350.5 1211.5 Q513 1280 704 1280 Q895 1280 1057.5 1211.5 Q1220 1143 1314 1025 Q1408 907 1408 768 z M1792 512 Q1792 392 1721 287.5 Q1650 183 1526 111 Q1536 87 1546.5 67 Q1557 47 1571.5 28.5 Q1586 10 1594 -0.5 Q1602 -11 1620 -30 Q1638 -49 1643 -55 Q1644 -56 1647 -59.5 Q1650 -63 1651.5 -64.5 Q1653 -66 1655.5 -69.5 Q1658 -73 1659 -75 L1661.5 -80 Q1661.5 -80 1663.5 -86 Q1665.5 -92 1664 -92.5 Q1662.5 -93 1663 -99 Q1660 -113 1650 -121 Q1640 -129 1628 -128 Q1578 -121 1542 -112 Q1388 -72 1264 16 Q1174 0 1088 0 Q817 0 616 132 Q674 128 704 128 Q865 128 1013 173 Q1161 218 1277 302 Q1402 394 1469 514 Q1536 634 1536 768 Q1536 845 1513 920 Q1642 849 1717 742 Q1792 635 1792 512 z" pathLength="0" fill="White" transform="translate(0, -0.574404) scale(0.008928572, -0.008928572) translate(0, -1536)" />
</svg>