<!DOCTYPE svg PUBLIC "-//W3C//DTD SVG 1.1//EN" "http://www.w3.org/Graphics/SVG/1.1/DTD/svg11.dtd">
<svg xmlns="http://www.w3.org/2000/svg" xmlns:xlink="http://www.w3.org/1999/xlink" version="1.1" x="0" y="0" width="16" height="16" overflow="auto" preserveAspectRatio="xMidYMid" baseProfile="tiny" space="preserve">
  <path d="M768 576 L768 128 Q768 102 749 83 Q730 64 704 64 Q678 64 659 83 L515 227 L183 -105 Q173 -115 160 -115 Q147 -115 137 -105 L23 9 Q13 19 13 32 Q13 45 23 55 L355 387 L211 531 Q192 550 192 576 Q192 602 211 621 Q230 640 256 640 L704 640 Q730 640 749 621 Q768 602 768 576 z M1523 1248 Q1523 1235 1513 1225 L1181 893 L1325 749 Q1344 730 1344 704 Q1344 678 1325 659 Q1306 640 1280 640 L832 640 Q806 640 787 659 Q768 678 768 704 L768 1152 Q768 1178 787 1197 Q806 1216 832 1216 Q858 1216 877 1197 L1021 1053 L1353 1385 Q1363 1395 1376 1395 Q1389 1395 1399 1385 L1513 1271 Q1523 1261 1523 1248 z" pathLength="0" fill="White" transform="translate(1.142858, 1.192093E-06) scale(0.008928572, -0.008928572) translate(0, -1536)" />
</svg>