<!DOCTYPE svg PUBLIC "-//W3C//DTD SVG 1.1//EN" "http://www.w3.org/Graphics/SVG/1.1/DTD/svg11.dtd">
<svg xmlns="http://www.w3.org/2000/svg" xmlns:xlink="http://www.w3.org/1999/xlink" version="1.1" x="0" y="0" width="16" height="16" overflow="auto" preserveAspectRatio="xMidYMid" baseProfile="tiny" space="preserve">
  <path d="M2048 641 Q2048 620 2035 604.5 Q2022 589 2002 585 L1797 229 Q1800 220 1800 211 Q1800 191 1787.5 175.5 Q1775 160 1755 156 L1562 -181 Q1565 -189 1565 -197 Q1565 -220 1548.5 -237 Q1532 -254 1508 -254 Q1483 -254 1467 -236 L1067 -236 Q1050 -256 1024 -256 Q998 -256 981 -236 L582 -236 Q565 -256 539 -256 Q516 -256 499 -239.5 Q482 -223 482 -199 Q482 -191 486 -179 L293 156 Q273 160 260.5 175.5 Q248 191 248 211 Q248 220 251 229 L45 585 Q25 590 12.5 605.5 Q0 621 0 641 Q0 662 13.5 677.5 Q27 693 47 697 L246 1041 Q246 1042 245.5 1044 Q245 1046 245 1047 Q245 1083 279 1098 L488 1461 Q484 1471 484 1479 Q484 1503 501 1519.5 Q518 1536 541 1536 Q567 1536 585 1515 L981 1515 Q997 1536 1024 1536 Q1051 1536 1067 1515 L1465 1515 Q1483 1536 1509 1536 Q1532 1536 1549 1519.5 Q1566 1503 1566 1479 Q1566 1473 1562 1461 L1769 1103 Q1792 1102 1808 1085.5 Q1824 1069 1824 1047 Q1824 1034 1817 1020 L2004 696 Q2023 692 2035.5 676.5 Q2048 661 2048 641 z M1063 -158 L1452 -158 L1110 196 L967 196 L625 -158 L985 -158 Q1003 -142 1024 -142 Q1045 -142 1063 -158 z M112 654 Q113 650 113 641 Q113 631 111 626 L319 266 Q321 266 323.5 265 Q326 264 329 262.5 L334 260 L522 459 L522 806 L335 1000 Q322 992 306 990 z M986 1438 L598 1438 L788 1238 L1342 1438 L1062 1438 Q1046 1422 1024 1422 Q1002 1422 986 1438 z M1689 226 Q1690 232 1694 237 L1630 305 L1613 226 L1689 226 z M1583 226 L1605 331 L1353 597 L1057 290 L1120 226 L1583 226 z M1495 -142 L1511 -114 L1576 196 L1149 196 L1482 -147 Q1490 -143 1495 -142 z M578 -158 L583 -158 L925 196 L552 196 L552 -139 L556 -145 Q570 -150 578 -158 z M552 226 L954 226 L1018 292 L709 613 L552 447 L552 226 z M359 226 L522 226 L522 415 L354 238 Q358 230 359 226 z M358 1051 Q358 1050 358.5 1049 Q359 1048 359 1047 Q359 1031 351 1018 L522 841 L522 1110 z M552 1121 L552 810 L705 653 L1002 967 L779 1203 z M556 1425 L552 1417 L552 1153 L757 1227 L566 1428 Q560 1426 556 1425 z M1447 1438 L1431 1438 L810 1214 L1023 989 z M1023 946 L726 631 L1037 312 L1333 619 z M688 634 L552 775 L552 491 z M1038 270 L996 226 L1081 226 z M1374 618 L1612 367 L1744 991 L1741 996 L1740 997 z M1718 1018 Q1710 1031 1710 1047 L1710 1049 L1494 1425 Q1489 1426 1481 1430 L1044 967 L1354 640 z M522 1142 L522 1365 L359 1083 z M522 196 L359 196 L522 -87 L522 196 z M1607 196 L1559 -31 L1689 196 L1607 196 z M1729 266 L1936 627 Q1934 637 1934 641 Q1934 642 1937 657 L1766 953 L1637 341 L1714 259 Q1719 262 1729 266 z" pathLength="0" fill="White" transform="translate(-1.142858, 9.536743E-07) scale(0.008928572, -0.008928572) translate(0, -1536)" />
</svg>