<!DOCTYPE svg PUBLIC "-//W3C//DTD SVG 1.1//EN" "http://www.w3.org/Graphics/SVG/1.1/DTD/svg11.dtd">
<svg xmlns="http://www.w3.org/2000/svg" xmlns:xlink="http://www.w3.org/1999/xlink" version="1.1" x="0" y="0" width="16" height="16" overflow="auto" preserveAspectRatio="xMidYMid" baseProfile="tiny" space="preserve">
  <path d="M138 1408 L335 1408 Q265 1344 209 1259 Q173 1203 150 1144 Q127 1085 120 1018.5 Q113 952 111.5 898.5 Q110 845 122 766.5 Q134 688 143 640.5 Q152 593 171 504 Q175 485 177 476 Q228 238 258 147 Q315 -24 410 -128 L138 -128 Q90 -128 56 -94 Q22 -60 22 -12 L22 1292 Q22 1340 56 1374 Q90 1408 138 1408 z M1346 1408 L1654 1408 Q1702 1408 1736 1374 Q1770 1340 1770 1292 L1770 -12 Q1770 -60 1736 -94 Q1702 -128 1654 -128 L1476 -128 Q1688 82 1672 437 L1203 336 Q1201 291 1191 254 Q1181 217 1160 182 Q1139 147 1100.5 122.5 Q1062 98 1007 86 Q884 60 808 126 Q776 153 755 187 Q734 221 703.5 316 Q673 411 639 574 Q604 737 593.5 837 Q583 937 588 976 Q593 1015 611 1053 Q631 1094 673.5 1126 Q716 1158 776 1171 Q821 1183 859.5 1177.5 Q898 1172 926.5 1160.5 Q955 1149 980.5 1125.5 Q1006 1102 1023.5 1077.5 Q1041 1053 1058 1021 L1526 1121 Q1458 1296 1346 1408 z" pathLength="0" fill="White" transform="translate(6.854534E-07, 1.311302E-06) scale(0.008928572, -0.008928572) translate(0, -1536)" />
</svg>