<!DOCTYPE svg PUBLIC "-//W3C//DTD SVG 1.1//EN" "http://www.w3.org/Graphics/SVG/1.1/DTD/svg11.dtd">
<svg xmlns="http://www.w3.org/2000/svg" xmlns:xlink="http://www.w3.org/1999/xlink" version="1.1" x="0" y="0" width="16" height="16" overflow="auto" preserveAspectRatio="xMidYMid" baseProfile="tiny" space="preserve">
  <path d="M1150 462 L1150 353 Q1150 303 1113.5 264 Q1077 225 1019.5 203.5 Q962 182 901.5 171 Q841 160 784 160 Q579 160 441.5 299 Q304 438 304 645 Q304 848 440 984 Q576 1120 779 1120 Q813 1120 854.5 1115.5 Q896 1111 947.5 1097.5 Q999 1084 1040 1063.5 Q1081 1043 1109 1007 Q1137 971 1137 926 L1137 817 Q1137 801 1121 801 L1003 801 Q987 801 987 817 L987 887 Q987 930 921.5 954.5 Q856 979 784 979 Q644 979 555.5 887.5 Q467 796 467 650 Q467 499 558.5 400.5 Q650 302 792 302 Q860 302 930 326 Q1000 350 1000 392 L1000 462 Q1000 469 1004.5 473.5 Q1009 478 1015 478 L1134 478 Q1140 478 1145 473.5 Q1150 469 1150 462 z M768 1280 Q638 1280 519.5 1229 Q401 1178 315.5 1092.5 Q230 1007 179 888.5 Q128 770 128 640 Q128 510 179 391.5 Q230 273 315.5 187.5 Q401 102 519.5 51 Q638 0 768 0 Q898 0 1016.5 51 Q1135 102 1220.5 187.5 Q1306 273 1357 391.5 Q1408 510 1408 640 Q1408 770 1357 888.5 Q1306 1007 1220.5 1092.5 Q1135 1178 1016.5 1229 Q898 1280 768 1280 z M1536 640 Q1536 431 1433 254.5 Q1330 78 1153.5 -25 Q977 -128 768 -128 Q559 -128 382.5 -25 Q206 78 103 254.5 Q0 431 0 640 Q0 849 103 1025.5 Q206 1202 382.5 1305 Q559 1408 768 1408 Q977 1408 1153.5 1305 Q1330 1202 1433 1025.5 Q1536 849 1536 640 z" pathLength="0" fill="White" transform="translate(1.142857, 1.311302E-06) scale(0.008928572, -0.008928572) translate(0, -1536)" />
</svg>