<!DOCTYPE svg PUBLIC "-//W3C//DTD SVG 1.1//EN" "http://www.w3.org/Graphics/SVG/1.1/DTD/svg11.dtd">
<svg xmlns="http://www.w3.org/2000/svg" xmlns:xlink="http://www.w3.org/1999/xlink" version="1.1" x="0" y="0" width="16" height="16" overflow="auto" preserveAspectRatio="xMidYMid" baseProfile="tiny" space="preserve">
  <path d="M1696 1152 Q1736 1152 1764 1124 Q1792 1096 1792 1056 L1792 -160 Q1792 -200 1764 -228 Q1736 -256 1696 -256 L736 -256 Q696 -256 668 -228 Q640 -200 640 -160 L640 128 L96 128 Q56 128 28 156 Q0 184 0 224 L0 896 Q0 936 20 984 Q40 1032 68 1060 L476 1468 Q504 1496 552 1516 Q600 1536 640 1536 L1056 1536 Q1096 1536 1124 1508 Q1152 1480 1152 1440 L1152 1112 Q1220 1152 1280 1152 L1696 1152 z M1152 939 L853 640 L1152 640 L1152 939 z M512 1323 L213 1024 L512 1024 L512 1323 z M708 676 L1024 992 L1024 1408 L640 1408 L640 992 Q640 952 612 924 Q584 896 544 896 L128 896 L128 256 L640 256 L640 512 Q640 552 660 600 Q680 648 708 676 z M1664 -128 L1664 1024 L1280 1024 L1280 608 Q1280 568 1252 540 Q1224 512 1184 512 L768 512 L768 -128 L1664 -128 z" pathLength="0" fill="White" transform="translate(0, 9.536743E-07) scale(0.008928572, -0.008928572) translate(0, -1536)" />
</svg>