<!DOCTYPE svg PUBLIC "-//W3C//DTD SVG 1.1//EN" "http://www.w3.org/Graphics/SVG/1.1/DTD/svg11.dtd">
<svg xmlns="http://www.w3.org/2000/svg" xmlns:xlink="http://www.w3.org/1999/xlink" version="1.1" x="0" y="0" width="16" height="16" overflow="auto" preserveAspectRatio="xMidYMid" baseProfile="tiny" space="preserve">
  <path d="M605 303 Q758 303 862 407 Q876 425 865 443 L820 525 Q814 538 796 542 Q780 544 769 531 L765 528 Q761 524 753.5 518 Q746 512 736 505 Q726 498 712.5 490.5 Q699 483 684 477 Q669 471 650.5 467.5 Q632 464 613 464 Q537 464 488 514 Q439 564 439 641 Q439 717 487 766.5 Q535 816 609 816 Q646 816 680.5 802 Q715 788 731 774 L747 760 Q758 749 773 750 Q789 752 797 764 L850 842 Q863 862 848 881 Q845 885 837 893 Q829 901 807 916.5 Q785 932 758.5 944.5 Q732 957 691 967 Q650 977 605 977 Q457 977 359 880.5 Q261 784 261 640 Q261 494 358 398.5 Q455 303 605 303 z M1235 303 Q1388 303 1492 407 Q1506 425 1496 443 L1451 525 Q1443 539 1426 542 Q1410 544 1399 531 L1395 528 Q1391 524 1383.5 518 Q1376 512 1366 505 Q1356 498 1342.5 490.5 Q1329 483 1314 477 Q1299 471 1280.5 467.5 Q1262 464 1243 464 Q1167 464 1118 514 Q1069 564 1069 641 Q1069 717 1117 766.5 Q1165 816 1239 816 Q1276 816 1310.5 802 Q1345 788 1361 774 L1377 760 Q1388 749 1403 750 Q1419 752 1427 764 L1480 842 Q1493 862 1478 881 Q1475 885 1467 893 Q1459 901 1437 916.5 Q1415 932 1388.5 944.5 Q1362 957 1321 967 Q1280 977 1235 977 Q1088 977 989.5 880.5 Q891 784 891 640 Q891 494 988 398.5 Q1085 303 1235 303 z M896 1376 Q746 1376 610 1317.5 Q474 1259 375.5 1160.5 Q277 1062 218.5 926 Q160 790 160 640 Q160 490 218.5 354 Q277 218 375.5 119.5 Q474 21 610 -37.5 Q746 -96 896 -96 Q1046 -96 1182 -37.5 Q1318 21 1416.5 119.5 Q1515 218 1573.5 354 Q1632 490 1632 640 Q1632 790 1573.5 926 Q1515 1062 1416.5 1160.5 Q1318 1259 1182 1317.5 Q1046 1376 896 1376 z M896 1536 Q1078 1536 1244 1465 Q1410 1394 1530 1274 Q1650 1154 1721 988 Q1792 822 1792 640 Q1792 458 1721 292 Q1650 126 1530 6 Q1410 -114 1244 -185 Q1078 -256 896 -256 Q714 -256 548 -185 Q382 -114 262 6 Q142 126 71 292 Q0 458 0 640 Q0 822 71 988 Q142 1154 262 1274 Q382 1394 548 1465 Q714 1536 896 1536 z" pathLength="0" fill="White" transform="translate(0, 9.536743E-07) scale(0.008928572, -0.008928572) translate(0, -1536)" />
</svg>