<!DOCTYPE svg PUBLIC "-//W3C//DTD SVG 1.1//EN" "http://www.w3.org/Graphics/SVG/1.1/DTD/svg11.dtd">
<svg xmlns="http://www.w3.org/2000/svg" xmlns:xlink="http://www.w3.org/1999/xlink" version="1.1" x="0" y="0" width="16" height="16" overflow="auto" preserveAspectRatio="xMidYMid" baseProfile="tiny" space="preserve">
  <path d="M1760 1408 Q1826 1408 1873 1361 Q1920 1314 1920 1248 L1920 32 Q1920 -34 1873 -81 Q1826 -128 1760 -128 L160 -128 Q94 -128 47 -81 Q0 -34 0 32 L0 1248 Q0 1314 47 1361 Q94 1408 160 1408 L1760 1408 z M160 1280 Q147 1280 137.5 1270.5 Q128 1261 128 1248 L128 1024 L1792 1024 L1792 1248 Q1792 1261 1782.5 1270.5 Q1773 1280 1760 1280 L160 1280 z M1760 0 Q1773 0 1782.5 9.5 Q1792 19 1792 32 L1792 640 L128 640 L128 32 Q128 19 137.5 9.5 Q147 0 160 0 L1760 0 z M256 128 L256 256 L512 256 L512 128 L256 128 z M640 128 L640 256 L1024 256 L1024 128 L640 128 z" pathLength="0" fill="White" transform="translate(-0.5714283, 1.311302E-06) scale(0.008928572, -0.008928572) translate(0, -1536)" />
</svg>