<!DOCTYPE svg PUBLIC "-//W3C//DTD SVG 1.1//EN" "http://www.w3.org/Graphics/SVG/1.1/DTD/svg11.dtd">
<svg xmlns="http://www.w3.org/2000/svg" xmlns:xlink="http://www.w3.org/1999/xlink" version="1.1" x="0" y="0" width="16" height="16" overflow="auto" preserveAspectRatio="xMidYMid" baseProfile="tiny" space="preserve">
  <path d="M557 256 L1152 256 L1152 851 z M512 301 L1107 896 L512 896 L512 301 z M1664 224 L1664 32 Q1664 18 1655 9 Q1646 0 1632 0 L1408 0 L1408 -224 Q1408 -238 1399 -247 Q1390 -256 1376 -256 L1184 -256 Q1170 -256 1161 -247 Q1152 -238 1152 -224 L1152 0 L288 0 Q274 0 265 9 Q256 18 256 32 L256 896 L32 896 Q18 896 9 905 Q0 914 0 928 L0 1120 Q0 1134 9 1143 Q18 1152 32 1152 L256 1152 L256 1376 Q256 1390 265 1399 Q274 1408 288 1408 L480 1408 Q494 1408 503 1399 Q512 1390 512 1376 L512 1152 L1363 1152 L1609 1399 Q1619 1408 1632 1408 Q1645 1408 1655 1399 Q1664 1389 1664 1376 Q1664 1363 1655 1353 L1408 1107 L1408 256 L1632 256 Q1646 256 1655 247 Q1664 238 1664 224 z" pathLength="0" fill="White" transform="translate(0.5714283, -0.5714275) scale(0.008928572, -0.008928572) translate(0, -1536)" />
</svg>