<!DOCTYPE svg PUBLIC "-//W3C//DTD SVG 1.1//EN" "http://www.w3.org/Graphics/SVG/1.1/DTD/svg11.dtd">
<svg xmlns="http://www.w3.org/2000/svg" xmlns:xlink="http://www.w3.org/1999/xlink" version="1.1" x="0" y="0" width="16" height="16" overflow="auto" preserveAspectRatio="xMidYMid" baseProfile="tiny" space="preserve">
  <path d="M1197 512 L1088 512 Q1062 512 1043 531 Q1024 550 1024 576 L1024 704 Q1024 730 1043 749 Q1062 768 1088 768 L1197 768 Q1165 876 1084.5 956.5 Q1004 1037 896 1069 L896 960 Q896 934 877 915 Q858 896 832 896 L704 896 Q678 896 659 915 Q640 934 640 960 L640 1069 Q532 1037 451.5 956.5 Q371 876 339 768 L448 768 Q474 768 493 749 Q512 730 512 704 L512 576 Q512 550 493 531 Q474 512 448 512 L339 512 Q371 404 451.5 323.5 Q532 243 640 211 L640 320 Q640 346 659 365 Q678 384 704 384 L832 384 Q858 384 877 365 Q896 346 896 320 L896 211 Q1004 243 1084.5 323.5 Q1165 404 1197 512 z M1536 704 L1536 576 Q1536 550 1517 531 Q1498 512 1472 512 L1329 512 Q1292 351 1174.5 233.5 Q1057 116 896 79 L896 -64 Q896 -90 877 -109 Q858 -128 832 -128 L704 -128 Q678 -128 659 -109 Q640 -90 640 -64 L640 79 Q479 116 361.5 233.5 Q244 351 207 512 L64 512 Q38 512 19 531 Q0 550 0 576 L0 704 Q0 730 19 749 Q38 768 64 768 L207 768 Q244 929 361.5 1046.5 Q479 1164 640 1201 L640 1344 Q640 1370 659 1389 Q678 1408 704 1408 L832 1408 Q858 1408 877 1389 Q896 1370 896 1344 L896 1201 Q1057 1164 1174.5 1046.5 Q1292 929 1329 768 L1472 768 Q1498 768 1517 749 Q1536 730 1536 704 z" pathLength="0" fill="White" transform="translate(1.142857, 1.311302E-06) scale(0.008928572, -0.008928572) translate(0, -1536)" />
</svg>