<!DOCTYPE svg PUBLIC "-//W3C//DTD SVG 1.1//EN" "http://www.w3.org/Graphics/SVG/1.1/DTD/svg11.dtd">
<svg xmlns="http://www.w3.org/2000/svg" xmlns:xlink="http://www.w3.org/1999/xlink" version="1.1" x="0" y="0" width="16" height="16" overflow="auto" preserveAspectRatio="xMidYMid" baseProfile="tiny" space="preserve">
  <path d="M640 -96 L1024 96 L1024 410 L640 246 L640 -96 z M576 358 L980 531 L576 704 L172 531 z M1664 -96 L2048 96 L2048 410 L1664 246 L1664 -96 z M1600 358 L2004 531 L1600 704 L1196 531 z M1152 651 L1536 816 L1536 1082 L1152 918 L1152 651 z M1088 1030 L1529 1219 L1088 1408 L647 1219 z M2176 512 L2176 96 Q2176 60 2157 29 Q2138 -2 2105 -18 L1657 -242 Q1632 -256 1600 -256 Q1568 -256 1543 -242 L1095 -18 Q1090 -16 1088 -14 Q1086 -16 1081 -18 L633 -242 Q608 -256 576 -256 Q544 -256 519 -242 L71 -18 Q38 -2 19 29 Q0 60 0 96 L0 512 Q0 550 21.5 582 Q43 614 78 630 L512 816 L512 1216 Q512 1254 533.5 1286 Q555 1318 590 1334 L1038 1526 Q1061 1536 1088 1536 Q1115 1536 1138 1526 L1586 1334 Q1621 1318 1642.5 1286 Q1664 1254 1664 1216 L1664 816 L2098 630 Q2134 614 2155 582 Q2176 550 2176 512 z" pathLength="0" fill="White" transform="translate(-1.714286, 9.536743E-07) scale(0.008928572, -0.008928572) translate(0, -1536)" />
</svg>