<!DOCTYPE svg PUBLIC "-//W3C//DTD SVG 1.1//EN" "http://www.w3.org/Graphics/SVG/1.1/DTD/svg11.dtd">
<svg xmlns="http://www.w3.org/2000/svg" xmlns:xlink="http://www.w3.org/1999/xlink" version="1.1" x="0" y="0" width="16" height="16" overflow="auto" preserveAspectRatio="xMidYMid" baseProfile="tiny" space="preserve">
  <path d="M960 640 Q986 640 1005 621 Q1024 602 1024 576 Q1024 550 1005 531 Q986 512 960 512 Q934 512 915 531 Q896 550 896 576 Q896 602 915 621 Q934 640 960 640 z M1260 576 L1767 178 Q1795 158 1792 122 Q1787 87 1757 71 L1629 7 Q1616 0 1600 0 Q1583 0 1569 8 L879 395 L769 329 Q761 325 757 324 Q771 275 767 227 Q760 150 711 79.5 Q662 9 579 -44 Q447 -128 302 -128 Q166 -128 80 -50 Q-10 34 1 157 Q8 233 57 304 Q106 375 188 428 Q320 512 466 512 Q549 512 617 481 Q626 494 639 503 L761 576 L639 649 Q626 658 617 671 Q549 640 466 640 Q320 640 188 724 Q106 777 57 848 Q8 919 1 995 Q-4 1054 16.5 1108 Q37 1162 80 1201 Q165 1280 302 1280 Q447 1280 579 1196 Q662 1144 711 1073 Q760 1002 767 925 Q771 877 757 828 Q761 827 769 823 L879 757 L1569 1144 Q1583 1152 1600 1152 Q1616 1152 1629 1145 L1757 1081 Q1787 1065 1792 1030 Q1795 994 1767 974 z M579 836 Q625 878 600 944 Q575 1010 494 1061 Q402 1120 302 1120 Q228 1120 189 1084 Q143 1042 168 976 Q193 910 274 859 Q366 800 466 800 Q540 800 579 836 z M494 91 Q575 142 600 208 Q625 274 579 316 Q540 352 466 352 Q366 352 274 293 Q193 242 168 176 Q143 110 189 68 Q228 32 302 32 Q402 32 494 91 z M672 704 L768 646 L768 657 Q768 693 801 713 L815 721 L736 768 L710 742 Q707 739 700 731 Q693 723 688 719 Q686 717 684 715.5 Q682 714 681 713 z M896 480 L992 448 L1728 1024 L1600 1088 L832 657 L832 544 L672 448 L681 440 Q683 438 688 434 Q692 430 699 422 Q706 414 710 410 L736 384 z M1600 64 L1728 128 L1208 536 L1031 398 Q1029 395 1018 391 z" pathLength="0" fill="White" transform="translate(0.0193467, -0.5714276) scale(0.008928572, -0.008928572) translate(0, -1536)" />
</svg>