<!DOCTYPE svg PUBLIC "-//W3C//DTD SVG 1.1//EN" "http://www.w3.org/Graphics/SVG/1.1/DTD/svg11.dtd">
<svg xmlns="http://www.w3.org/2000/svg" xmlns:xlink="http://www.w3.org/1999/xlink" version="1.1" x="0" y="0" width="16" height="16" overflow="auto" preserveAspectRatio="xMidYMid" baseProfile="tiny" space="preserve">
  <path d="M640 1472 L640 832 Q640 771 604.5 721 Q569 671 512 651 L512 -128 Q512 -180 474 -218 Q436 -256 384 -256 L256 -256 Q204 -256 166 -218 Q128 -180 128 -128 L128 651 Q71 671 35.5 721 Q0 771 0 832 L0 1472 Q0 1498 19 1517 Q38 1536 64 1536 Q90 1536 109 1517 Q128 1498 128 1472 L128 1056 Q128 1030 147 1011 Q166 992 192 992 Q218 992 237 1011 Q256 1030 256 1056 L256 1472 Q256 1498 275 1517 Q294 1536 320 1536 Q346 1536 365 1517 Q384 1498 384 1472 L384 1056 Q384 1030 403 1011 Q422 992 448 992 Q474 992 493 1011 Q512 1030 512 1056 L512 1472 Q512 1498 531 1517 Q550 1536 576 1536 Q602 1536 621 1517 Q640 1498 640 1472 z M1408 1472 L1408 -128 Q1408 -180 1370 -218 Q1332 -256 1280 -256 L1152 -256 Q1100 -256 1062 -218 Q1024 -180 1024 -128 L1024 384 L800 384 Q787 384 777.5 393.5 Q768 403 768 416 L768 1216 Q768 1348 862 1442 Q956 1536 1088 1536 L1344 1536 Q1370 1536 1389 1517 Q1408 1498 1408 1472 z" pathLength="0" fill="White" transform="translate(1.714286, 9.536743E-07) scale(0.008928572, -0.008928572) translate(0, -1536)" />
</svg>