<!DOCTYPE svg PUBLIC "-//W3C//DTD SVG 1.1//EN" "http://www.w3.org/Graphics/SVG/1.1/DTD/svg11.dtd">
<svg xmlns="http://www.w3.org/2000/svg" xmlns:xlink="http://www.w3.org/1999/xlink" version="1.1" x="0" y="0" width="16" height="16" overflow="auto" preserveAspectRatio="xMidYMid" baseProfile="tiny" space="preserve">
  <path d="M384 384 Q384 437 346.5 474.5 Q309 512 256 512 Q203 512 165.5 474.5 Q128 437 128 384 Q128 331 165.5 293.5 Q203 256 256 256 Q309 256 346.5 293.5 Q384 331 384 384 z M576 832 Q576 885 538.5 922.5 Q501 960 448 960 Q395 960 357.5 922.5 Q320 885 320 832 Q320 779 357.5 741.5 Q395 704 448 704 Q501 704 538.5 741.5 Q576 779 576 832 z M1004 351 L1105 733 Q1111 759 1097.5 781.5 Q1084 804 1059 811 Q1034 818 1011 804.5 Q988 791 981 765 L880 383 Q820 378 773 339.5 Q726 301 710 241 Q690 164 730 95 Q770 26 847 6 Q924 -14 993 26 Q1062 66 1082 143 Q1098 203 1076 260 Q1054 317 1004 351 z M1664 384 Q1664 437 1626.5 474.5 Q1589 512 1536 512 Q1483 512 1445.5 474.5 Q1408 437 1408 384 Q1408 331 1445.5 293.5 Q1483 256 1536 256 Q1589 256 1626.5 293.5 Q1664 331 1664 384 z M1024 1024 Q1024 1077 986.5 1114.5 Q949 1152 896 1152 Q843 1152 805.5 1114.5 Q768 1077 768 1024 Q768 971 805.5 933.5 Q843 896 896 896 Q949 896 986.5 933.5 Q1024 971 1024 1024 z M1472 832 Q1472 885 1434.5 922.5 Q1397 960 1344 960 Q1291 960 1253.5 922.5 Q1216 885 1216 832 Q1216 779 1253.5 741.5 Q1291 704 1344 704 Q1397 704 1434.5 741.5 Q1472 779 1472 832 z M1792 384 Q1792 123 1651 -99 Q1632 -128 1597 -128 L195 -128 Q160 -128 141 -99 Q0 122 0 384 Q0 566 71 732 Q142 898 262 1018 Q382 1138 548 1209 Q714 1280 896 1280 Q1078 1280 1244 1209 Q1410 1138 1530 1018 Q1650 898 1721 732 Q1792 566 1792 384 z" pathLength="0" fill="White" transform="translate(0, -0.5714276) scale(0.008928572, -0.008928572) translate(0, -1536)" />
</svg>