<!DOCTYPE svg PUBLIC "-//W3C//DTD SVG 1.1//EN" "http://www.w3.org/Graphics/SVG/1.1/DTD/svg11.dtd">
<svg xmlns="http://www.w3.org/2000/svg" xmlns:xlink="http://www.w3.org/1999/xlink" version="1.1" x="0" y="0" width="16" height="16" overflow="auto" preserveAspectRatio="xMidYMid" baseProfile="tiny" space="preserve">
  <path d="M768 768 Q1005 768 1211 811 Q1417 854 1536 938 L1536 768 Q1536 699 1433 640 Q1330 581 1153 546.5 Q976 512 768 512 Q560 512 383 546.5 Q206 581 103 640 Q0 699 0 768 L0 938 Q119 854 325 811 Q531 768 768 768 z M768 0 Q1005 0 1211 43 Q1417 86 1536 170 L1536 0 Q1536 -69 1433 -128 Q1330 -187 1153 -221.5 Q976 -256 768 -256 Q560 -256 383 -221.5 Q206 -187 103 -128 Q0 -69 0 0 L0 170 Q119 86 325 43 Q531 0 768 0 z M768 384 Q1005 384 1211 427 Q1417 470 1536 554 L1536 384 Q1536 315 1433 256 Q1330 197 1153 162.5 Q976 128 768 128 Q560 128 383 162.5 Q206 197 103 256 Q0 315 0 384 L0 554 Q119 470 325 427 Q531 384 768 384 z M768 1536 Q976 1536 1153 1501.5 Q1330 1467 1433 1408 Q1536 1349 1536 1280 L1536 1152 Q1536 1083 1433 1024 Q1330 965 1153 930.5 Q976 896 768 896 Q560 896 383 930.5 Q206 965 103 1024 Q0 1083 0 1152 L0 1280 Q0 1349 103 1408 Q206 1467 383 1501.5 Q560 1536 768 1536 z" pathLength="0" fill="White" transform="translate(1.142857, 9.536743E-07) scale(0.008928572, -0.008928572) translate(0, -1536)" />
</svg>