<!DOCTYPE svg PUBLIC "-//W3C//DTD SVG 1.1//EN" "http://www.w3.org/Graphics/SVG/1.1/DTD/svg11.dtd">
<svg xmlns="http://www.w3.org/2000/svg" xmlns:xlink="http://www.w3.org/1999/xlink" version="1.1" x="0" y="0" width="16" height="16" overflow="auto" preserveAspectRatio="xMidYMid" baseProfile="tiny" space="preserve">
  <path d="M384 992 L384 416 Q384 403 374.5 393.5 Q365 384 352 384 Q338 384 329 393 L41 681 Q32 690 32 704 Q32 718 41 727 L329 1015 Q338 1024 352 1024 Q365 1024 374.5 1014.5 Q384 1005 384 992 z M1792 224 L1792 32 Q1792 19 1782.5 9.5 Q1773 0 1760 0 L32 0 Q19 0 9.5 9.5 Q0 19 0 32 L0 224 Q0 237 9.5 246.5 Q19 256 32 256 L1760 256 Q1773 256 1782.5 246.5 Q1792 237 1792 224 z M1792 608 L1792 416 Q1792 403 1782.5 393.5 Q1773 384 1760 384 L672 384 Q659 384 649.5 393.5 Q640 403 640 416 L640 608 Q640 621 649.5 630.5 Q659 640 672 640 L1760 640 Q1773 640 1782.5 630.5 Q1792 621 1792 608 z M1792 992 L1792 800 Q1792 787 1782.5 777.5 Q1773 768 1760 768 L672 768 Q659 768 649.5 777.5 Q640 787 640 800 L640 992 Q640 1005 649.5 1014.5 Q659 1024 672 1024 L1760 1024 Q1773 1024 1782.5 1014.5 Q1792 1005 1792 992 z M1792 1376 L1792 1184 Q1792 1171 1782.5 1161.5 Q1773 1152 1760 1152 L32 1152 Q19 1152 9.5 1161.5 Q0 1171 0 1184 L0 1376 Q0 1389 9.5 1398.5 Q19 1408 32 1408 L1760 1408 Q1773 1408 1782.5 1398.5 Q1792 1389 1792 1376 z" pathLength="0" fill="White" transform="translate(0, 0.5714296) scale(0.008928572, -0.008928572) translate(0, -1536)" />
</svg>