<!DOCTYPE svg PUBLIC "-//W3C//DTD SVG 1.1//EN" "http://www.w3.org/Graphics/SVG/1.1/DTD/svg11.dtd">
<svg xmlns="http://www.w3.org/2000/svg" xmlns:xlink="http://www.w3.org/1999/xlink" version="1.1" x="0" y="0" width="16" height="16" overflow="auto" preserveAspectRatio="xMidYMid" baseProfile="tiny" space="preserve">
  <path d="M1792 544 L1792 1376 Q1792 1389 1782.5 1398.5 Q1773 1408 1760 1408 L160 1408 Q147 1408 137.5 1398.5 Q128 1389 128 1376 L128 544 Q128 531 137.5 521.5 Q147 512 160 512 L1760 512 Q1773 512 1782.5 521.5 Q1792 531 1792 544 z M1920 1376 L1920 288 Q1920 222 1873 175 Q1826 128 1760 128 L1216 128 Q1216 91 1232 50.5 Q1248 10 1264 -20.5 Q1280 -51 1280 -64 Q1280 -90 1261 -109 Q1242 -128 1216 -128 L704 -128 Q678 -128 659 -109 Q640 -90 640 -64 Q640 -50 656 -20 Q672 10 688 50 Q704 90 704 128 L160 128 Q94 128 47 175 Q0 222 0 288 L0 1376 Q0 1442 47 1489 Q94 1536 160 1536 L1760 1536 Q1826 1536 1873 1489 Q1920 1442 1920 1376 z" pathLength="0" fill="White" transform="translate(-0.5714283, 0.5714297) scale(0.008928572, -0.008928572) translate(0, -1536)" />
</svg>