<!DOCTYPE svg PUBLIC "-//W3C//DTD SVG 1.1//EN" "http://www.w3.org/Graphics/SVG/1.1/DTD/svg11.dtd">
<svg xmlns="http://www.w3.org/2000/svg" xmlns:xlink="http://www.w3.org/1999/xlink" version="1.1" x="0" y="0" width="16" height="16" overflow="auto" preserveAspectRatio="xMidYMid" baseProfile="tiny" space="preserve">
  <path d="M212 768 L835 103 L535 768 L212 768 z M1024 -4 L1373 768 L675 768 z M538 896 L742 1280 L480 1280 L192 896 L538 896 z M1213 103 L1836 768 L1513 768 z M683 896 L1365 896 L1161 1280 L887 1280 z M1510 896 L1856 896 L1568 1280 L1306 1280 z M1651 1382 L2035 870 Q2049 852 2048 828.5 Q2047 805 2031 788 L1071 -236 Q1053 -256 1024 -256 Q995 -256 977 -236 L17 788 Q1 805 0 828.5 Q-1 852 13 870 L397 1382 Q415 1408 448 1408 L1600 1408 Q1633 1408 1651 1382 z" pathLength="0" fill="White" transform="translate(-1.142856, -0.5714275) scale(0.008928572, -0.008928572) translate(0, -1536)" />
</svg>