<!DOCTYPE svg PUBLIC "-//W3C//DTD SVG 1.1//EN" "http://www.w3.org/Graphics/SVG/1.1/DTD/svg11.dtd">
<svg xmlns="http://www.w3.org/2000/svg" xmlns:xlink="http://www.w3.org/1999/xlink" version="1.1" x="0" y="0" width="16" height="16" overflow="auto" preserveAspectRatio="xMidYMid" baseProfile="tiny" space="preserve">
  <path d="M328 1254 L532 1254 L532 271 L0 271 L0 968 L328 968 L328 1254 z M328 435 L328 804 L205 804 L205 435 L328 435 z M614 968 L614 271 L819 271 L819 968 L614 968 z M614 1254 L614 1050 L819 1050 L819 1254 L614 1254 z M901 968 L1434 968 L1434 26 L901 26 L901 189 L1229 189 L1229 271 L901 271 L901 968 z M1229 435 L1229 804 L1106 804 L1106 435 L1229 435 z M1516 968 L2048 968 L2048 26 L1516 26 L1516 189 L1843 189 L1843 271 L1516 271 L1516 968 z M1843 435 L1843 804 L1720 804 L1720 435 L1843 435 z" pathLength="0" fill="White" transform="translate(-1.142858, 4.768372E-07) scale(0.008928572, -0.008928572) translate(0, -1536)" />
</svg>