<!DOCTYPE svg PUBLIC "-//W3C//DTD SVG 1.1//EN" "http://www.w3.org/Graphics/SVG/1.1/DTD/svg11.dtd">
<svg xmlns="http://www.w3.org/2000/svg" xmlns:xlink="http://www.w3.org/1999/xlink" version="1.1" x="0" y="0" width="16" height="16" overflow="auto" preserveAspectRatio="xMidYMid" baseProfile="tiny" space="preserve">
  <path d="M978 351 Q978 198 878.5 87.5 Q779 -23 620 -49 L620 -224 Q620 -238 611 -247 Q602 -256 588 -256 L453 -256 Q440 -256 430.5 -246.5 Q421 -237 421 -224 L421 -49 Q355 -40 293.5 -18 Q232 4 192 26.5 Q152 49 118 74.5 Q84 100 71.5 112 Q59 124 54 130 Q37 151 52 171 L155 306 Q162 316 178 318 Q193 320 202 309 L204 307 Q317 208 447 182 Q484 174 521 174 Q602 174 663.5 217 Q725 260 725 339 Q725 367 710 392 Q695 417 676.5 434 Q658 451 618 471.5 Q578 492 552 503.5 Q526 515 472 536 Q433 552 410.5 561 Q388 570 349 587.5 Q310 605 286.5 618.5 Q263 632 230 654 Q197 676 176.5 696.5 Q156 717 133 745.5 Q110 774 97.5 803.5 Q85 833 76.5 870 Q68 907 68 948 Q68 1086 166 1190 Q264 1294 421 1324 L421 1504 Q421 1517 430.5 1526.5 Q440 1536 453 1536 L588 1536 Q602 1536 611 1527 Q620 1518 620 1504 L620 1328 Q677 1322 730.5 1305 Q784 1288 817.5 1271.5 Q851 1255 881 1234 Q911 1213 920 1205 Q929 1197 935 1191 Q952 1173 940 1153 L859 1007 Q851 992 836 991 Q822 988 809 998 Q806 1001 794.5 1010 Q783 1019 755.5 1036.5 Q728 1054 697 1068.5 Q666 1083 622.5 1094.5 Q579 1106 537 1106 Q442 1106 382 1063 Q322 1020 322 952 Q322 926 330.5 904 Q339 882 360 862.5 Q381 843 399.5 829.5 Q418 816 455.5 798.5 Q493 781 516 771.5 Q539 762 586 744 Q639 724 667 712.5 Q695 701 743 677.5 Q791 654 818.5 635 Q846 616 880.5 585 Q915 554 933.5 521.5 Q952 489 965 445 Q978 401 978 351 z" pathLength="0" fill="White" transform="translate(3.446429, 9.536743E-07) scale(0.008928572, -0.008928572) translate(0, -1536)" />
</svg>