<!DOCTYPE svg PUBLIC "-//W3C//DTD SVG 1.1//EN" "http://www.w3.org/Graphics/SVG/1.1/DTD/svg11.dtd">
<svg xmlns="http://www.w3.org/2000/svg" xmlns:xlink="http://www.w3.org/1999/xlink" version="1.1" x="0" y="0" width="16" height="16" overflow="auto" preserveAspectRatio="xMidYMid" baseProfile="tiny" space="preserve">
  <path d="M1024 640 Q1024 534 949 459 Q874 384 768 384 Q662 384 587 459 Q512 534 512 640 Q512 746 587 821 Q662 896 768 896 Q874 896 949 821 Q1024 746 1024 640 z M768 1184 Q620 1184 495 1111 Q370 1038 297 913 Q224 788 224 640 Q224 492 297 367 Q370 242 495 169 Q620 96 768 96 Q916 96 1041 169 Q1166 242 1239 367 Q1312 492 1312 640 Q1312 788 1239 913 Q1166 1038 1041 1111 Q916 1184 768 1184 z M1536 640 Q1536 431 1433 254.5 Q1330 78 1153.5 -25 Q977 -128 768 -128 Q559 -128 382.5 -25 Q206 78 103 254.5 Q0 431 0 640 Q0 849 103 1025.5 Q206 1202 382.5 1305 Q559 1408 768 1408 Q977 1408 1153.5 1305 Q1330 1202 1433 1025.5 Q1536 849 1536 640 z" pathLength="0" fill="White" transform="translate(1.142857, 1.311302E-06) scale(0.008928572, -0.008928572) translate(0, -1536)" />
</svg>