<!DOCTYPE svg PUBLIC "-//W3C//DTD SVG 1.1//EN" "http://www.w3.org/Graphics/SVG/1.1/DTD/svg11.dtd">
<svg xmlns="http://www.w3.org/2000/svg" xmlns:xlink="http://www.w3.org/1999/xlink" version="1.1" x="0" y="0" width="16" height="16" overflow="auto" preserveAspectRatio="xMidYMid" baseProfile="tiny" space="preserve">
  <path d="M1280 192 Q1280 218 1261 237 Q1242 256 1216 256 Q1190 256 1171 237 Q1152 218 1152 192 Q1152 166 1171 147 Q1190 128 1216 128 Q1242 128 1261 147 Q1280 166 1280 192 z M1536 192 Q1536 218 1517 237 Q1498 256 1472 256 Q1446 256 1427 237 Q1408 218 1408 192 Q1408 166 1427 147 Q1446 128 1472 128 Q1498 128 1517 147 Q1536 166 1536 192 z M1664 416 L1664 96 Q1664 56 1636 28 Q1608 0 1568 0 L96 0 Q56 0 28 28 Q0 56 0 96 L0 416 Q0 456 28 484 Q56 512 96 512 L561 512 L696 376 Q754 320 832 320 Q910 320 968 376 L1104 512 L1568 512 Q1608 512 1636 484 Q1664 456 1664 416 z M1339 985 Q1356 944 1325 915 L877 467 Q859 448 832 448 Q805 448 787 467 L339 915 Q308 944 325 985 Q342 1024 384 1024 L640 1024 L640 1472 Q640 1498 659 1517 Q678 1536 704 1536 L960 1536 Q986 1536 1005 1517 Q1024 1498 1024 1472 L1024 1024 L1280 1024 Q1322 1024 1339 985 z" pathLength="0" fill="White" transform="translate(0.5714283, 1.142858) scale(0.008928572, -0.008928572) translate(0, -1536)" />
</svg>