<!DOCTYPE svg PUBLIC "-//W3C//DTD SVG 1.1//EN" "http://www.w3.org/Graphics/SVG/1.1/DTD/svg11.dtd">
<svg xmlns="http://www.w3.org/2000/svg" xmlns:xlink="http://www.w3.org/1999/xlink" version="1.1" x="0" y="0" width="16" height="16" overflow="auto" preserveAspectRatio="xMidYMid" baseProfile="tiny" space="preserve">
  <path d="M1024 36 Q982 277 884 534 L882 534 L880 533 Q864 527 837 516.5 Q810 506 736 467.5 Q662 429 599 385.5 Q536 342 468 271 Q400 200 365 123 L350 134 Q534 -16 768 -16 Q900 -16 1024 36 z M839 643 Q818 692 786 754 Q475 661 113 661 Q112 654 112 640 Q112 516 156 403.5 Q200 291 280 202 Q330 291 403.5 368.5 Q477 446 546 493 Q615 540 676.5 574 Q738 608 776 622 L813 635 Q817 636 826 638.5 Q835 641 839 643 z M732 855 Q612 1068 488 1233 Q350 1168 254 1047 Q158 926 126 775 Q428 775 732 855 z M1416 536 Q1206 596 1007 565 Q1094 326 1135 96 Q1246 171 1320 285.5 Q1394 400 1416 536 z M611 1277 Q610 1277 609 1276 Q610 1277 611 1277 z M1201 1132 Q1016 1296 768 1296 Q692 1296 613 1277 Q744 1107 859 895 Q928 921 989 955.5 Q1050 990 1085.5 1017 Q1121 1044 1151 1074 Q1181 1104 1188.5 1114.5 z M1424 647 Q1421 879 1275 1057 L1274 1056 Q1265 1044 1255 1031.5 Q1245 1019 1211.5 987 Q1178 955 1140.5 926.5 Q1103 898 1040.5 861.5 Q978 825 909 797 Q934 744 953 702 Q955 696 959.5 684.5 Q964 673 967 668 Q1003 673 1041.5 675 Q1080 677 1115 677 Q1150 677 1184 675.5 Q1218 674 1248 671.5 Q1278 669 1304.5 666 Q1331 663 1352.5 659.5 Q1374 656 1389 653.5 Q1404 651 1414 649 z M1536 640 Q1536 431 1433 254.5 Q1330 78 1153.5 -25 Q977 -128 768 -128 Q559 -128 382.5 -25 Q206 78 103 254.5 Q0 431 0 640 Q0 849 103 1025.5 Q206 1202 382.5 1305 Q559 1408 768 1408 Q977 1408 1153.5 1305 Q1330 1202 1433 1025.5 Q1536 849 1536 640 z" pathLength="0" fill="White" transform="translate(1.142857, 1.311302E-06) scale(0.008928572, -0.008928572) translate(0, -1536)" />
</svg>