<!DOCTYPE svg PUBLIC "-//W3C//DTD SVG 1.1//EN" "http://www.w3.org/Graphics/SVG/1.1/DTD/svg11.dtd">
<svg xmlns="http://www.w3.org/2000/svg" xmlns:xlink="http://www.w3.org/1999/xlink" version="1.1" x="0" y="0" width="16" height="16" overflow="auto" preserveAspectRatio="xMidYMid" baseProfile="tiny" space="preserve">
  <path d="M402 829 L896 524 L554 239 L64 558 z M1388 274 L1388 166 L898 -127 L898 -128 L897 -127 L896 -128 L896 -127 L407 166 L407 274 L554 178 L896 462 L896 464 L897 463 L898 464 L898 462 L1241 178 z M554 1418 L896 1133 L402 829 L64 1099 z M1390 829 L1728 558 L1239 239 L896 524 z M1239 1418 L1728 1099 L1390 829 L896 1133 z" pathLength="0" fill="White" transform="translate(6.556511E-07, 0.04464412) scale(0.008928572, -0.008928572) translate(0, -1536)" />
</svg>