<!DOCTYPE svg PUBLIC "-//W3C//DTD SVG 1.1//EN" "http://www.w3.org/Graphics/SVG/1.1/DTD/svg11.dtd">
<svg xmlns="http://www.w3.org/2000/svg" xmlns:xlink="http://www.w3.org/1999/xlink" version="1.1" x="0" y="0" width="16" height="16" overflow="auto" preserveAspectRatio="xMidYMid" baseProfile="tiny" space="preserve">
  <path d="M1167 -50 Q1162 -31 1143 -45 Q1113 -67 1056 -84 Q999 -101 925 -101 Q796 -101 732 -52 Q727 -48 719 -48 Q708 -48 693 -60 Q686 -66 685.5 -76 Q685 -86 693 -96 Q727 -128 780.5 -142 Q834 -156 883 -154.5 Q932 -153 982 -150 Q1023 -146 1066.5 -129.5 Q1110 -113 1131.5 -99.5 Q1153 -86 1160 -79 Q1172 -67 1167 -50 z M1128 65 Q1109 112 1089 126 Q1066 141 1013 141 Q966 141 942 131 Q913 119 864 75 Q838 51 852 31 Q861 23 869.5 26.5 Q878 30 901 50 Q904 52 911.5 58.5 Q919 65 922 67 Q925 69 932 74 Q939 79 943.5 81 Q948 83 956 86 Q964 89 971 90.5 Q978 92 987.5 93 Q997 94 1008 94 Q1035 94 1052.5 86.5 Q1070 79 1075.5 72 Q1081 65 1089 50 Q1099 33 1101.5 30 Q1104 27 1114 31 Q1137 43 1128 65 z M1483 346 Q1483 368 1478 390.5 Q1473 413 1461.5 435.5 Q1450 458 1427.5 472 Q1405 486 1375 486 Q1342 486 1278 444.5 Q1214 403 1149 361 Q1084 319 1048 319 Q1021 318 984.5 338 Q948 358 908.5 387 Q869 416 825 445 Q781 474 725 494 Q669 514 614 513 Q499 512 417 434.5 Q335 357 333 256 Q331 144 407 92 Q436 72 469.5 63.5 Q503 55 573 55 Q630 55 705 87.5 Q780 120 839 158.5 Q898 197 959 229 Q1020 261 1052 260 Q1078 259 1117 228.5 Q1156 198 1188.5 161.5 Q1221 125 1256.5 94 Q1292 63 1312 62 Q1347 59 1370.5 76 Q1394 93 1426 139 Q1454 180 1468.5 240 Q1483 300 1483 346 z M1536 506 Q1536 342 1474 201.5 Q1412 61 1308 -34.5 Q1204 -130 1065.5 -184 Q927 -238 775 -238 Q623 -238 482 -180.5 Q341 -123 234.5 -23.5 Q128 76 64 218 Q0 360 0 520 Q0 609 19.5 692.5 Q39 776 68.5 838 Q98 900 139 956.5 Q180 1013 217.5 1050.5 Q255 1088 296 1120 Q337 1152 360.5 1166.5 Q384 1181 403 1191 Q417 1199 454 1217.5 Q491 1236 508.5 1246 Q526 1256 556.5 1276 Q587 1296 617 1320 Q653 1348 675 1392.5 Q697 1437 705 1518 Q834 1363 891 1325 Q935 1296 1021 1257 Q1107 1218 1150 1191 Q1171 1178 1189 1166 Q1207 1154 1249.5 1119.5 Q1292 1085 1325.5 1049 Q1359 1013 1400.5 954 Q1442 895 1469.5 832 Q1497 769 1516.5 683.5 Q1536 598 1536 506 z" pathLength="0" fill="White" transform="translate(1.142857, 8.195639E-07) scale(0.008928572, -0.008928572) translate(0, -1536)" />
</svg>