<!DOCTYPE svg PUBLIC "-//W3C//DTD SVG 1.1//EN" "http://www.w3.org/Graphics/SVG/1.1/DTD/svg11.dtd">
<svg xmlns="http://www.w3.org/2000/svg" xmlns:xlink="http://www.w3.org/1999/xlink" version="1.1" x="0" y="0" width="16" height="16" overflow="auto" preserveAspectRatio="xMidYMid" baseProfile="tiny" space="preserve">
  <path d="M888 352 L1004 468 L852 620 L736 504 L736 448 L832 448 L832 352 L888 352 z M1328 1072 Q1312 1088 1295 1071 L945 721 Q928 704 944 688 Q960 672 977 689 L1327 1039 Q1344 1056 1328 1072 z M1408 478 L1408 288 Q1408 169 1323.5 84.5 Q1239 0 1120 0 L288 0 Q169 0 84.5 84.5 Q0 169 0 288 L0 1120 Q0 1239 84.5 1323.5 Q169 1408 288 1408 L1120 1408 Q1183 1408 1237 1383 Q1252 1376 1255 1360 Q1258 1343 1246 1331 L1197 1282 Q1183 1268 1165 1274 Q1142 1280 1120 1280 L288 1280 Q222 1280 175 1233 Q128 1186 128 1120 L128 288 Q128 222 175 175 Q222 128 288 128 L1120 128 Q1186 128 1233 175 Q1280 222 1280 288 L1280 414 Q1280 427 1289 436 L1353 500 Q1368 515 1388 507 Q1408 499 1408 478 z M1312 1216 L1600 928 L928 256 L640 256 L640 544 z M1756 1084 L1664 992 L1376 1280 L1468 1372 Q1496 1400 1536 1400 Q1576 1400 1604 1372 L1756 1220 Q1784 1192 1784 1152 Q1784 1112 1756 1084 z" pathLength="0" fill="White" transform="translate(0.03571415, 0.5714296) scale(0.008928572, -0.008928572) translate(0, -1536)" />
</svg>