<!DOCTYPE svg PUBLIC "-//W3C//DTD SVG 1.1//EN" "http://www.w3.org/Graphics/SVG/1.1/DTD/svg11.dtd">
<svg xmlns="http://www.w3.org/2000/svg" xmlns:xlink="http://www.w3.org/1999/xlink" version="1.1" x="0" y="0" width="16" height="16" overflow="auto" preserveAspectRatio="xMidYMid" baseProfile="tiny" space="preserve">
  <path d="M384 800 L384 608 Q384 568 356 540 Q328 512 288 512 L96 512 Q56 512 28 540 Q0 568 0 608 L0 800 Q0 840 28 868 Q56 896 96 896 L288 896 Q328 896 356 868 Q384 840 384 800 z M896 800 L896 608 Q896 568 868 540 Q840 512 800 512 L608 512 Q568 512 540 540 Q512 568 512 608 L512 800 Q512 840 540 868 Q568 896 608 896 L800 896 Q840 896 868 868 Q896 840 896 800 z M1408 800 L1408 608 Q1408 568 1380 540 Q1352 512 1312 512 L1120 512 Q1080 512 1052 540 Q1024 568 1024 608 L1024 800 Q1024 840 1052 868 Q1080 896 1120 896 L1312 896 Q1352 896 1380 868 Q1408 840 1408 800 z" pathLength="0" fill="White" transform="translate(1.714286, 0.571429) scale(0.008928572, -0.008928572) translate(0, -1536)" />
</svg>