<!DOCTYPE svg PUBLIC "-//W3C//DTD SVG 1.1//EN" "http://www.w3.org/Graphics/SVG/1.1/DTD/svg11.dtd">
<svg xmlns="http://www.w3.org/2000/svg" xmlns:xlink="http://www.w3.org/1999/xlink" version="1.1" x="0" y="0" width="16" height="16" overflow="auto" preserveAspectRatio="xMidYMid" baseProfile="tiny" space="preserve">
  <path d="M1248 1408 Q1367 1408 1451.5 1323.5 Q1536 1239 1536 1120 L1536 160 Q1536 41 1451.5 -43.5 Q1367 -128 1248 -128 L288 -128 Q169 -128 84.5 -43.5 Q0 41 0 160 L0 1120 Q0 1239 84.5 1323.5 Q169 1408 288 1408 L1248 1408 z M1280 352 L1280 788 Q1249 753 1216 733 Q1182 711 1083.5 648 Q985 585 932 549 Q834 480 768 480 L768 480 L768 480 Q702 480 604 549 Q558 581 462.5 641.5 Q367 702 320 734 Q308 742 287 761 Q266 780 256 788 L256 352 Q256 312 284 284 Q312 256 352 256 L1184 256 Q1224 256 1252 284 Q1280 312 1280 352 z M1280 925 Q1280 966 1252.5 995 Q1225 1024 1184 1024 L352 1024 Q312 1024 284 996 Q256 968 256 928 Q256 891 286.5 851.5 Q317 812 354 787 Q401 755 491.5 698 Q582 641 621 615 Q624 613 638 603.5 Q652 594 659 589.5 Q666 585 680 576.5 Q694 568 703.5 563.5 Q713 559 725 554 Q737 549 747.5 546.5 Q758 544 768 544 Q778 544 788.5 546.5 Q799 549 811 554 Q823 559 832.5 563.5 Q842 568 856 576.5 Q870 585 877 589.5 Q884 594 898 603.5 Q912 613 915 615 L1182 789 Q1217 812 1248.5 851.5 Q1280 891 1280 925 z" pathLength="0" fill="White" transform="translate(1.142857, 1.311302E-06) scale(0.008928572, -0.008928572) translate(0, -1536)" />
</svg>