<!DOCTYPE svg PUBLIC "-//W3C//DTD SVG 1.1//EN" "http://www.w3.org/Graphics/SVG/1.1/DTD/svg11.dtd">
<svg xmlns="http://www.w3.org/2000/svg" xmlns:xlink="http://www.w3.org/1999/xlink" version="1.1" x="0" y="0" width="16" height="16" overflow="auto" preserveAspectRatio="xMidYMid" baseProfile="tiny" space="preserve">
  <path d="M1664 32 L1664 800 Q1632 764 1595 734 Q1327 528 1169 396 Q1118 353 1086 329 Q1054 305 999.5 280.5 Q945 256 897 256 L896 256 L895 256 Q847 256 792.5 280.5 Q738 305 706 329 Q674 353 623 396 Q465 528 197 734 Q160 764 128 800 L128 32 Q128 19 137.5 9.5 Q147 0 160 0 L1632 0 Q1645 0 1654.5 9.5 Q1664 19 1664 32 z M1664 1083 L1664 1094 L1664 1107.5 Q1664 1107.5 1663.5 1120.5 Q1663 1133.5 1660.5 1133 Q1658 1132.5 1655 1142 Q1652 1151.5 1646 1149.5 Q1640 1147.5 1632 1152 L160 1152 Q147 1152 137.5 1142.5 Q128 1133 128 1120 Q128 952 275 836 Q468 684 676 519 Q682 514 711 489.5 Q740 465 757 452 Q774 439 801.5 420.5 Q829 402 852 393 Q875 384 895 384 L896 384 L897 384 Q917 384 940 393 Q963 402 990.5 420.5 Q1018 439 1035 452 Q1052 465 1081 489.5 Q1110 514 1116 519 Q1324 684 1517 836 Q1571 879 1617.5 951.5 Q1664 1024 1664 1083 z M1792 1120 L1792 32 Q1792 -34 1745 -81 Q1698 -128 1632 -128 L160 -128 Q94 -128 47 -81 Q0 -34 0 32 L0 1120 Q0 1186 47 1233 Q94 1280 160 1280 L1632 1280 Q1698 1280 1745 1233 Q1792 1186 1792 1120 z" pathLength="0" fill="White" transform="translate(0, -0.5714276) scale(0.008928572, -0.008928572) translate(0, -1536)" />
</svg>