<!DOCTYPE svg PUBLIC "-//W3C//DTD SVG 1.1//EN" "http://www.w3.org/Graphics/SVG/1.1/DTD/svg11.dtd">
<svg xmlns="http://www.w3.org/2000/svg" xmlns:xlink="http://www.w3.org/1999/xlink" version="1.1" x="0" y="0" width="16" height="16" overflow="auto" preserveAspectRatio="xMidYMid" baseProfile="tiny" space="preserve">
  <path d="M1792 826 L1792 32 Q1792 -34 1745 -81 Q1698 -128 1632 -128 L160 -128 Q94 -128 47 -81 Q0 -34 0 32 L0 826 Q44 777 101 739 Q463 493 598 394 Q655 352 690.5 328.5 Q726 305 785 280.5 Q844 256 895 256 L896 256 L897 256 Q948 256 1007 280.5 Q1066 305 1101.5 328.5 Q1137 352 1194 394 Q1364 517 1692 739 Q1749 778 1792 826 z M1792 1120 Q1792 1041 1743 969 Q1694 897 1621 846 Q1245 585 1153 521 Q1143 514 1110.5 490.5 Q1078 467 1056.5 452.5 Q1035 438 1004.5 420 Q974 402 947 393 Q920 384 897 384 L896 384 L895 384 Q872 384 845 393 Q818 402 787.5 420 Q757 438 735.5 452.5 Q714 467 681.5 490.5 Q649 514 639 521 Q548 585 377 703.5 Q206 822 172 846 Q110 888 55 961.5 Q0 1035 0 1098 Q0 1176 41.5 1228 Q83 1280 160 1280 L1632 1280 Q1697 1280 1744.5 1233 Q1792 1186 1792 1120 z" pathLength="0" fill="White" transform="translate(0, -0.5714276) scale(0.008928572, -0.008928572) translate(0, -1536)" />
</svg>