<!DOCTYPE svg PUBLIC "-//W3C//DTD SVG 1.1//EN" "http://www.w3.org/Graphics/SVG/1.1/DTD/svg11.dtd">
<svg xmlns="http://www.w3.org/2000/svg" xmlns:xlink="http://www.w3.org/1999/xlink" version="1.1" x="0" y="0" width="16" height="16" overflow="auto" preserveAspectRatio="xMidYMid" baseProfile="tiny" space="preserve">
  <path d="M896 128 L1232 512 L464 512 L128 128 L896 128 z M1909 1205 Q1924 1171 1918.5 1133.5 Q1913 1096 1888 1068 L992 44 Q954 0 896 0 L128 0 Q90 0 58.5 20.5 Q27 41 11 75 Q-4 109 1.5 146.5 Q7 184 32 212 L928 1236 Q966 1280 1024 1280 L1792 1280 Q1830 1280 1861.5 1259.5 Q1893 1239 1909 1205 z" pathLength="0" fill="White" transform="translate(-0.5714265, 7.152557E-07) scale(0.008928572, -0.008928572) translate(0, -1536)" />
</svg>