<!DOCTYPE svg PUBLIC "-//W3C//DTD SVG 1.1//EN" "http://www.w3.org/Graphics/SVG/1.1/DTD/svg11.dtd">
<svg xmlns="http://www.w3.org/2000/svg" xmlns:xlink="http://www.w3.org/1999/xlink" version="1.1" x="0" y="0" width="16" height="16" overflow="auto" preserveAspectRatio="xMidYMid" baseProfile="tiny" space="preserve">
  <path d="M976 229 L1011 70 Q1014 58 1008 47.5 Q1002 37 991 33 L986 32 Q982 30 975.5 28.5 Q969 27 959.5 24 Q950 21 938 18.5 Q926 16 912.5 13.5 Q899 11 882.5 8.5 Q866 6 849 4 Q832 2 812.5 1 Q793 0 774 0 Q540 0 365 130.5 Q190 261 127 482 L32 482 Q19 482 9.5 491.5 Q0 501 0 514 L0 627 Q0 640 9.5 649.5 Q19 659 32 659 L98 659 Q96 716 99 764 L32 764 Q18 764 9 773 Q0 782 0 796 L0 910 Q0 924 9 933 Q18 942 32 942 L130 942 Q197 1152 373.5 1280 Q550 1408 774 1408 Q876 1408 968 1385 Q979 1382 988 1370 Q994 1359 991 1346 L948 1187 Q945 1174 934 1167.5 Q923 1161 910 1165 L906 1166 Q902 1167 894.5 1168.5 L877 1172 Q877 1172 854.5 1175.5 Q832 1179 828.5 1178.5 Q825 1178 799.5 1181 Q774 1184 770 1182 Q644 1182 544 1118 Q444 1054 394 942 L862 942 Q878 942 887 930 Q897 918 894 904 L870 790 Q865 764 838 764 L350 764 Q347 727 350 659 L809 659 Q824 659 834 647 Q843 635 840 620 L816 508 Q814 497 805 489.5 Q796 482 785 482 L398 482 Q446 365 547.5 296.5 Q649 228 776 228 Q794 228 812 229.5 Q830 231 845.5 233 Q861 235 875 237.5 Q889 240 899.5 242.5 Q910 245 918 247 L930 250 L935 252 Q948 257 961 250 Q973 243 976 229 z" pathLength="0" fill="White" transform="translate(3.477679, 0.5714296) scale(0.008928572, -0.008928572) translate(0, -1536)" />
</svg>