<!DOCTYPE svg PUBLIC "-//W3C//DTD SVG 1.1//EN" "http://www.w3.org/Graphics/SVG/1.1/DTD/svg11.dtd">
<svg xmlns="http://www.w3.org/2000/svg" xmlns:xlink="http://www.w3.org/1999/xlink" version="1.1" x="0" y="0" width="16" height="16" overflow="auto" preserveAspectRatio="xMidYMid" baseProfile="tiny" space="preserve">
  <path d="M1792 352 L1792 160 Q1792 147 1782.5 137.5 Q1773 128 1760 128 L384 128 L384 -64 Q384 -77 374.5 -86.5 Q365 -96 352 -96 Q340 -96 328 -86 L9 234 Q0 243 0 256 Q0 270 9 279 L329 599 Q338 608 352 608 Q365 608 374.5 598.5 Q384 589 384 576 L384 384 L1760 384 Q1773 384 1782.5 374.5 Q1792 365 1792 352 z M1792 896 Q1792 882 1783 873 L1463 553 Q1454 544 1440 544 Q1427 544 1417.5 553.5 Q1408 563 1408 576 L1408 768 L32 768 Q19 768 9.5 777.5 Q0 787 0 800 L0 992 Q0 1005 9.5 1014.5 Q19 1024 32 1024 L1408 1024 L1408 1216 Q1408 1230 1417 1239 Q1426 1248 1440 1248 Q1452 1248 1464 1238 L1783 919 Q1792 910 1792 896 z" pathLength="0" fill="White" transform="translate(0, -0.5714276) scale(0.008928572, -0.008928572) translate(0, -1536)" />
</svg>