<!DOCTYPE svg PUBLIC "-//W3C//DTD SVG 1.1//EN" "http://www.w3.org/Graphics/SVG/1.1/DTD/svg11.dtd">
<svg xmlns="http://www.w3.org/2000/svg" xmlns:xlink="http://www.w3.org/1999/xlink" version="1.1" x="0" y="0" width="16" height="16" overflow="auto" preserveAspectRatio="xMidYMid" baseProfile="tiny" space="preserve">
  <path d="M768 1408 Q977 1408 1153.5 1305 Q1330 1202 1433 1025.5 Q1536 849 1536 640 Q1536 431 1433 254.5 Q1330 78 1153.5 -25 Q977 -128 768 -128 Q559 -128 382.5 -25 Q206 78 103 254.5 Q0 431 0 640 Q0 849 103 1025.5 Q206 1202 382.5 1305 Q559 1408 768 1408 z M896 161 L896 351 Q896 365 887 374.5 Q878 384 865 384 L673 384 Q660 384 650 374 Q640 364 640 351 L640 161 Q640 148 650 138 Q660 128 673 128 L865 128 Q878 128 887 137.5 Q896 147 896 161 z M894 505 L912 1126 Q912 1138 902 1144 Q892 1152 878 1152 L658 1152 Q644 1152 634 1144 Q624 1138 624 1126 L641 505 Q641 495 651 487.5 Q661 480 675 480 L860 480 Q874 480 883.5 487.5 Q893 495 894 505 z" pathLength="0" fill="White" transform="translate(1.142857, 1.311302E-06) scale(0.008928572, -0.008928572) translate(0, -1536)" />
</svg>