<!DOCTYPE svg PUBLIC "-//W3C//DTD SVG 1.1//EN" "http://www.w3.org/Graphics/SVG/1.1/DTD/svg11.dtd">
<svg xmlns="http://www.w3.org/2000/svg" xmlns:xlink="http://www.w3.org/1999/xlink" version="1.1" x="0" y="0" width="16" height="16" overflow="auto" preserveAspectRatio="xMidYMid" baseProfile="tiny" space="preserve">
  <path d="M755 480 Q755 467 745 457 L413 125 L557 -19 Q576 -38 576 -64 Q576 -90 557 -109 Q538 -128 512 -128 L64 -128 Q38 -128 19 -109 Q0 -90 0 -64 L0 384 Q0 410 19 429 Q38 448 64 448 Q90 448 109 429 L253 285 L585 617 Q595 627 608 627 Q621 627 631 617 L745 503 Q755 493 755 480 z M1536 1344 L1536 896 Q1536 870 1517 851 Q1498 832 1472 832 Q1446 832 1427 851 L1283 995 L951 663 Q941 653 928 653 Q915 653 905 663 L791 777 Q781 787 781 800 Q781 813 791 823 L1123 1155 L979 1299 Q960 1318 960 1344 Q960 1370 979 1389 Q998 1408 1024 1408 L1472 1408 Q1498 1408 1517 1389 Q1536 1370 1536 1344 z" pathLength="0" fill="White" transform="translate(1.142857, 1.311302E-06) scale(0.008928572, -0.008928572) translate(0, -1536)" />
</svg>