<!DOCTYPE svg PUBLIC "-//W3C//DTD SVG 1.1//EN" "http://www.w3.org/Graphics/SVG/1.1/DTD/svg11.dtd">
<svg xmlns="http://www.w3.org/2000/svg" xmlns:xlink="http://www.w3.org/1999/xlink" version="1.1" x="0" y="0" width="16" height="16" overflow="auto" preserveAspectRatio="xMidYMid" baseProfile="tiny" space="preserve">
  <path d="M896 1472 Q727 1472 573 1406 Q419 1340 307.5 1228.5 Q196 1117 130 963 Q64 809 64 640 Q64 471 130 317 Q196 163 307.5 51.5 Q419 -60 573 -126 Q727 -192 896 -192 Q1065 -192 1219 -126 Q1373 -60 1484.5 51.5 Q1596 163 1662 317 Q1728 471 1728 640 Q1728 809 1662 963 Q1596 1117 1484.5 1228.5 Q1373 1340 1219 1406 Q1065 1472 896 1472 z M896 1536 Q1078 1536 1244 1465 Q1410 1394 1530 1274 Q1650 1154 1721 988 Q1792 822 1792 640 Q1792 458 1721 292 Q1650 126 1530 6 Q1410 -114 1244 -185 Q1078 -256 896 -256 Q714 -256 548 -185 Q382 -114 262 6 Q142 126 71 292 Q0 458 0 640 Q0 822 71 988 Q142 1154 262 1274 Q382 1394 548 1465 Q714 1536 896 1536 z M496 704 Q512 704 512 688 L512 208 Q512 192 496 192 L464 192 Q448 192 448 208 L448 688 Q448 704 464 704 L496 704 z M896 640 Q949 640 986.5 602.5 Q1024 565 1024 512 Q1024 477 1006.5 448 Q989 419 960 402 L960 288 Q960 274 951 265 Q942 256 928 256 L864 256 Q850 256 841 265 Q832 274 832 288 L832 402 Q803 419 785.5 448 Q768 477 768 512 Q768 565 805.5 602.5 Q843 640 896 640 z M896 1408 Q1105 1408 1281.5 1305 Q1458 1202 1561 1025.5 Q1664 849 1664 640 Q1664 431 1561 254.5 Q1458 78 1281.5 -25 Q1105 -128 896 -128 Q687 -128 510.5 -25 Q334 78 231 254.5 Q128 431 128 640 Q128 849 231 1025.5 Q334 1202 510.5 1305 Q687 1408 896 1408 z M544 928 L544 832 Q544 818 553 809 Q562 800 576 800 L640 800 Q654 800 663 809 Q672 818 672 832 L672 928 Q672 1021 737.5 1086.5 Q803 1152 896 1152 Q989 1152 1054.5 1086.5 Q1120 1021 1120 928 L1120 832 Q1120 818 1129 809 Q1138 800 1152 800 L1216 800 Q1230 800 1239 809 Q1248 818 1248 832 L1248 928 Q1248 1074 1145 1177 Q1042 1280 896 1280 Q750 1280 647 1177 Q544 1074 544 928 z M1408 192 L1408 704 Q1408 730 1389 749 Q1370 768 1344 768 L448 768 Q422 768 403 749 Q384 730 384 704 L384 192 Q384 166 403 147 Q422 128 448 128 L1344 128 Q1370 128 1389 147 Q1408 166 1408 192 z" pathLength="0" fill="White" transform="translate(0, 9.536743E-07) scale(0.008928572, -0.008928572) translate(0, -1536)" />
</svg>