<!DOCTYPE svg PUBLIC "-//W3C//DTD SVG 1.1//EN" "http://www.w3.org/Graphics/SVG/1.1/DTD/svg11.dtd">
<svg xmlns="http://www.w3.org/2000/svg" xmlns:xlink="http://www.w3.org/1999/xlink" version="1.1" x="0" y="0" width="16" height="16" overflow="auto" preserveAspectRatio="xMidYMid" baseProfile="tiny" space="preserve">
  <path d="M1408 608 L1408 288 Q1408 169 1323.5 84.5 Q1239 0 1120 0 L288 0 Q169 0 84.5 84.5 Q0 169 0 288 L0 1120 Q0 1239 84.5 1323.5 Q169 1408 288 1408 L992 1408 Q1006 1408 1015 1399 Q1024 1390 1024 1376 L1024 1312 Q1024 1298 1015 1289 Q1006 1280 992 1280 L288 1280 Q222 1280 175 1233 Q128 1186 128 1120 L128 288 Q128 222 175 175 Q222 128 288 128 L1120 128 Q1186 128 1233 175 Q1280 222 1280 288 L1280 608 Q1280 622 1289 631 Q1298 640 1312 640 L1376 640 Q1390 640 1399 631 Q1408 622 1408 608 z M1792 1472 L1792 960 Q1792 934 1773 915 Q1754 896 1728 896 Q1702 896 1683 915 L1507 1091 L855 439 Q845 429 832 429 Q819 429 809 439 L695 553 Q685 563 685 576 Q685 589 695 599 L1347 1251 L1171 1427 Q1152 1446 1152 1472 Q1152 1498 1171 1517 Q1190 1536 1216 1536 L1728 1536 Q1754 1536 1773 1517 Q1792 1498 1792 1472 z" pathLength="0" fill="White" transform="translate(0, 1.142858) scale(0.008928572, -0.008928572) translate(0, -1536)" />
</svg>