<!DOCTYPE svg PUBLIC "-//W3C//DTD SVG 1.1//EN" "http://www.w3.org/Graphics/SVG/1.1/DTD/svg11.dtd">
<svg xmlns="http://www.w3.org/2000/svg" xmlns:xlink="http://www.w3.org/1999/xlink" version="1.1" x="0" y="0" width="16" height="16" overflow="auto" preserveAspectRatio="xMidYMid" baseProfile="tiny" space="preserve">
  <path d="M555 201 L633 342 Q546 405 497 501 Q448 597 448 704 Q448 825 509 929 Q280 812 128 576 Q295 318 555 201 z M944 960 Q944 980 930 994 Q916 1008 896 1008 Q771 1008 681.5 918.5 Q592 829 592 704 Q592 684 606 670 Q620 656 640 656 Q660 656 674 670 Q688 684 688 704 Q688 790 749 851 Q810 912 896 912 Q916 912 930 926 Q944 940 944 960 z M1307 1151 Q1307 1144 1306 1142 Q1201 954 991 576 Q781 198 675 9 L626 -80 Q616 -96 598 -96 Q586 -96 464 -26 Q448 -16 448 2 Q448 14 492 89 Q349 154 228.5 262 Q108 370 20 507 Q0 538 0 576 Q0 614 20 645 Q173 880 400 1016 Q627 1152 896 1152 Q985 1152 1076 1135 L1130 1232 Q1140 1248 1158 1248 Q1163 1248 1176 1242 Q1189 1236 1207 1226.5 Q1225 1217 1240 1208 Q1255 1199 1271.5 1189.5 Q1288 1180 1291 1178 Q1307 1168 1307 1151 z M1344 704 Q1344 565 1265 450.5 Q1186 336 1056 286 L1336 788 Q1344 743 1344 704 z M1792 576 Q1792 541 1772 507 Q1733 443 1663 362 Q1513 190 1315.5 95 Q1118 0 896 0 L970 132 Q1182 150 1362.5 269 Q1543 388 1664 576 Q1549 755 1382 870 L1445 982 Q1540 918 1627.5 829 Q1715 740 1772 645 Q1792 611 1792 576 z" pathLength="0" fill="White" transform="translate(0, -0.5714276) scale(0.008928572, -0.008928572) translate(0, -1536)" />
</svg>