<!DOCTYPE svg PUBLIC "-//W3C//DTD SVG 1.1//EN" "http://www.w3.org/Graphics/SVG/1.1/DTD/svg11.dtd">
<svg xmlns="http://www.w3.org/2000/svg" xmlns:xlink="http://www.w3.org/1999/xlink" version="1.1" x="0" y="0" width="16" height="16" overflow="auto" preserveAspectRatio="xMidYMid" baseProfile="tiny" space="preserve">
  <path d="M1664 576 Q1512 812 1283 929 Q1344 825 1344 704 Q1344 519 1212.5 387.5 Q1081 256 896 256 Q711 256 579.5 387.5 Q448 519 448 704 Q448 825 509 929 Q280 812 128 576 Q261 371 461.5 249.5 Q662 128 896 128 Q1130 128 1330.5 249.5 Q1531 371 1664 576 z M944 960 Q944 980 930 994 Q916 1008 896 1008 Q771 1008 681.5 918.5 Q592 829 592 704 Q592 684 606 670 Q620 656 640 656 Q660 656 674 670 Q688 684 688 704 Q688 790 749 851 Q810 912 896 912 Q916 912 930 926 Q944 940 944 960 z M1792 576 Q1792 542 1772 507 Q1632 277 1395.5 138.5 Q1159 0 896 0 Q633 0 396.5 139 Q160 278 20 507 Q0 542 0 576 Q0 610 20 645 Q160 874 396.5 1013 Q633 1152 896 1152 Q1159 1152 1395.5 1013 Q1632 874 1772 645 Q1792 610 1792 576 z" pathLength="0" fill="White" transform="translate(0, -0.5714276) scale(0.008928572, -0.008928572) translate(0, -1536)" />
</svg>