<!DOCTYPE svg PUBLIC "-//W3C//DTD SVG 1.1//EN" "http://www.w3.org/Graphics/SVG/1.1/DTD/svg11.dtd">
<svg xmlns="http://www.w3.org/2000/svg" xmlns:xlink="http://www.w3.org/1999/xlink" version="1.1" x="0" y="0" width="16" height="16" overflow="auto" preserveAspectRatio="xMidYMid" baseProfile="tiny" space="preserve">
  <path d="M1451 1408 Q1486 1408 1511 1383 Q1536 1358 1536 1323 L1536 -43 Q1536 -78 1511 -103 Q1486 -128 1451 -128 L1060 -128 L1060 467 L1259 467 L1289 699 L1060 699 L1060 847 Q1060 903 1083.5 931 Q1107 959 1175 959 L1297 960 L1297 1167 Q1234 1176 1119 1176 Q983 1176 901.5 1096 Q820 1016 820 870 L820 699 L620 699 L620 467 L820 467 L820 -128 L85 -128 Q50 -128 25 -103 Q0 -78 0 -43 L0 1323 Q0 1358 25 1383 Q50 1408 85 1408 L1451 1408 z" pathLength="0" fill="White" transform="translate(1.142857, 1.311302E-06) scale(0.008928572, -0.008928572) translate(0, -1536)" />
</svg>