<!DOCTYPE svg PUBLIC "-//W3C//DTD SVG 1.1//EN" "http://www.w3.org/Graphics/SVG/1.1/DTD/svg11.dtd">
<svg xmlns="http://www.w3.org/2000/svg" xmlns:xlink="http://www.w3.org/1999/xlink" version="1.1" x="0" y="0" width="16" height="16" overflow="auto" preserveAspectRatio="xMidYMid" baseProfile="tiny" space="preserve">
  <path d="M45 -115 Q26 -134 13 -128 Q0 -122 0 -96 L0 1376 Q0 1402 13 1408 Q26 1414 45 1395 L755 685 Q763 677 768 666 L768 1376 Q768 1402 781 1408 Q794 1414 813 1395 L1523 685 Q1531 677 1536 666 L1536 1344 Q1536 1370 1555 1389 Q1574 1408 1600 1408 L1728 1408 Q1754 1408 1773 1389 Q1792 1370 1792 1344 L1792 -64 Q1792 -90 1773 -109 Q1754 -128 1728 -128 L1600 -128 Q1574 -128 1555 -109 Q1536 -90 1536 -64 L1536 614 Q1531 604 1523 595 L813 -115 Q794 -134 781 -128 Q768 -122 768 -96 L768 614 Q763 604 755 595 z" pathLength="0" fill="White" transform="translate(0, 1.072884E-06) scale(0.008928572, -0.008928572) translate(0, -1536)" />
</svg>