<!DOCTYPE svg PUBLIC "-//W3C//DTD SVG 1.1//EN" "http://www.w3.org/Graphics/SVG/1.1/DTD/svg11.dtd">
<svg xmlns="http://www.w3.org/2000/svg" xmlns:xlink="http://www.w3.org/1999/xlink" version="1.1" x="0" y="0" width="16" height="16" overflow="auto" preserveAspectRatio="xMidYMid" baseProfile="tiny" space="preserve">
  <path d="M288 1152 Q354 1152 401 1105 Q448 1058 448 992 L448 -96 Q448 -162 401 -209 Q354 -256 288 -256 L160 -256 Q94 -256 47 -209 Q0 -162 0 -96 L0 992 Q0 1058 47 1105 Q94 1152 160 1152 L288 1152 z M1664 989 Q1722 955 1757 896 Q1792 837 1792 768 L1792 0 Q1792 -106 1717 -181 Q1642 -256 1536 -256 L672 -256 Q606 -256 559 -209 Q512 -162 512 -96 L512 1440 Q512 1480 540 1508 Q568 1536 608 1536 L1280 1536 Q1320 1536 1368 1516 Q1416 1496 1444 1468 L1596 1316 Q1624 1288 1644 1240 Q1664 1192 1664 1152 L1664 989 z M928 0 L928 128 Q928 142 919 151 Q910 160 896 160 L768 160 Q754 160 745 151 Q736 142 736 128 L736 0 Q736 -14 745 -23 Q754 -32 768 -32 L896 -32 Q910 -32 919 -23 Q928 -14 928 0 z M928 256 L928 384 Q928 398 919 407 Q910 416 896 416 L768 416 Q754 416 745 407 Q736 398 736 384 L736 256 Q736 242 745 233 Q754 224 768 224 L896 224 Q910 224 919 233 Q928 242 928 256 z M928 512 L928 640 Q928 654 919 663 Q910 672 896 672 L768 672 Q754 672 745 663 Q736 654 736 640 L736 512 Q736 498 745 489 Q754 480 768 480 L896 480 Q910 480 919 489 Q928 498 928 512 z M1184 0 L1184 128 Q1184 142 1175 151 Q1166 160 1152 160 L1024 160 Q1010 160 1001 151 Q992 142 992 128 L992 0 Q992 -14 1001 -23 Q1010 -32 1024 -32 L1152 -32 Q1166 -32 1175 -23 Q1184 -14 1184 0 z M1184 256 L1184 384 Q1184 398 1175 407 Q1166 416 1152 416 L1024 416 Q1010 416 1001 407 Q992 398 992 384 L992 256 Q992 242 1001 233 Q1010 224 1024 224 L1152 224 Q1166 224 1175 233 Q1184 242 1184 256 z M1184 512 L1184 640 Q1184 654 1175 663 Q1166 672 1152 672 L1024 672 Q1010 672 1001 663 Q992 654 992 640 L992 512 Q992 498 1001 489 Q1010 480 1024 480 L1152 480 Q1166 480 1175 489 Q1184 498 1184 512 z M1440 0 L1440 128 Q1440 142 1431 151 Q1422 160 1408 160 L1280 160 Q1266 160 1257 151 Q1248 142 1248 128 L1248 0 Q1248 -14 1257 -23 Q1266 -32 1280 -32 L1408 -32 Q1422 -32 1431 -23 Q1440 -14 1440 0 z M1440 256 L1440 384 Q1440 398 1431 407 Q1422 416 1408 416 L1280 416 Q1266 416 1257 407 Q1248 398 1248 384 L1248 256 Q1248 242 1257 233 Q1266 224 1280 224 L1408 224 Q1422 224 1431 233 Q1440 242 1440 256 z M1440 512 L1440 640 Q1440 654 1431 663 Q1422 672 1408 672 L1280 672 Q1266 672 1257 663 Q1248 654 1248 640 L1248 512 Q1248 498 1257 489 Q1266 480 1280 480 L1408 480 Q1422 480 1431 489 Q1440 498 1440 512 z M1536 896 L1536 1152 L1376 1152 Q1336 1152 1308 1180 Q1280 1208 1280 1248 L1280 1408 L640 1408 L640 896 L1536 896 z" pathLength="0" fill="White" transform="translate(0, 9.536743E-07) scale(0.008928572, -0.008928572) translate(0, -1536)" />
</svg>