<!DOCTYPE svg PUBLIC "-//W3C//DTD SVG 1.1//EN" "http://www.w3.org/Graphics/SVG/1.1/DTD/svg11.dtd">
<svg xmlns="http://www.w3.org/2000/svg" xmlns:xlink="http://www.w3.org/1999/xlink" version="1.1" x="0" y="0" width="16" height="16" overflow="auto" preserveAspectRatio="xMidYMid" baseProfile="tiny" space="preserve">
  <path d="M384 192 Q384 112 328 56 Q272 0 192 0 Q112 0 56 56 Q0 112 0 192 Q0 272 56 328 Q112 384 192 384 Q272 384 328 328 Q384 272 384 192 z M896 69 Q898 41 879 21 Q861 0 832 0 L697 0 Q672 0 654 16.5 Q636 33 634 58 Q612 287 449.5 449.5 Q287 612 58 634 Q33 636 16.5 654 Q0 672 0 697 L0 832 Q0 861 21 879 Q38 896 64 896 L69 896 Q229 883 375 815.5 Q521 748 634 634 Q748 521 815.5 375 Q883 229 896 69 z M1408 67 Q1410 40 1390 20 Q1372 0 1344 0 L1201 0 Q1175 0 1156.5 17.5 Q1138 35 1137 60 Q1125 275 1036 468.5 Q947 662 804.5 804.5 Q662 947 468.5 1036 Q275 1125 60 1138 Q35 1139 17.5 1157.5 Q0 1176 0 1201 L0 1344 Q0 1372 20 1390 Q38 1408 64 1408 L67 1408 Q329 1395 568.5 1288 Q808 1181 994 994 Q1181 808 1288 568.5 Q1395 329 1408 67 z" pathLength="0" fill="White" transform="translate(1.708333, 0.5714296) scale(0.008928572, -0.008928572) translate(0, -1536)" />
</svg>