<!DOCTYPE svg PUBLIC "-//W3C//DTD SVG 1.1//EN" "http://www.w3.org/Graphics/SVG/1.1/DTD/svg11.dtd">
<svg xmlns="http://www.w3.org/2000/svg" xmlns:xlink="http://www.w3.org/1999/xlink" version="1.1" x="0" y="0" width="16" height="16" overflow="auto" preserveAspectRatio="xMidYMid" baseProfile="tiny" space="preserve">
  <path d="M1280 480 Q1280 440 1252 412 Q1224 384 1184 384 Q1133 384 1104 427 L877 768 L832 768 L832 636 L1079 225 Q1088 210 1088 192 Q1088 166 1069 147 Q1050 128 1024 128 L832 128 L832 -144 Q832 -190 799 -223 Q766 -256 720 -256 L560 -256 Q514 -256 481 -223 Q448 -190 448 -144 L448 128 L256 128 Q230 128 211 147 Q192 166 192 192 Q192 210 201 225 L448 636 L448 768 L403 768 L176 427 Q147 384 96 384 Q56 384 28 412 Q0 440 0 480 Q0 509 16 533 L272 917 Q345 1024 448 1024 L832 1024 Q935 1024 1008 917 L1264 533 Q1280 509 1280 480 z M864 1280 Q864 1187 798.5 1121.5 Q733 1056 640 1056 Q547 1056 481.5 1121.5 Q416 1187 416 1280 Q416 1373 481.5 1438.5 Q547 1504 640 1504 Q733 1504 798.5 1438.5 Q864 1373 864 1280 z" pathLength="0" fill="White" transform="translate(2.285714, -0.1428563) scale(0.008928572, -0.008928572) translate(0, -1536)" />
</svg>