<!DOCTYPE svg PUBLIC "-//W3C//DTD SVG 1.1//EN" "http://www.w3.org/Graphics/SVG/1.1/DTD/svg11.dtd">
<svg xmlns="http://www.w3.org/2000/svg" xmlns:xlink="http://www.w3.org/1999/xlink" version="1.1" x="0" y="0" width="16" height="16" overflow="auto" preserveAspectRatio="xMidYMid" baseProfile="tiny" space="preserve">
  <path d="M1920 576 Q1919 544 1632 480 L1280 448 L1056 384 L992 384 L699 32 L768 32 Q794 32 813 27.5 Q832 23 832 16 Q832 9 813 4.5 Q794 0 768 0 L672 0 L512 0 L448 0 L448 32 L512 32 L512 448 L352 448 L160 224 L64 224 L32 256 L32 448 L64 448 L64 480 L192 480 L192 488 L0 512 L0 640 L192 664 L192 672 L64 672 L64 704 L32 704 L32 896 L64 928 L160 928 L352 704 L512 704 L512 1120 L448 1120 L448 1152 L512 1152 L672 1152 L768 1152 Q794 1152 813 1147.5 Q832 1143 832 1136 Q832 1129 813 1124.5 Q794 1120 768 1120 L699 1120 L992 768 L1056 768 L1280 704 L1632 672 Q1893 614 1919 579 z" pathLength="0" fill="White" transform="translate(-0.5714283, -0.5714276) scale(0.008928572, -0.008928572) translate(0, -1536)" />
</svg>