<!DOCTYPE svg PUBLIC "-//W3C//DTD SVG 1.1//EN" "http://www.w3.org/Graphics/SVG/1.1/DTD/svg11.dtd">
<svg xmlns="http://www.w3.org/2000/svg" xmlns:xlink="http://www.w3.org/1999/xlink" version="1.1" x="0" y="0" width="16" height="16" overflow="auto" preserveAspectRatio="xMidYMid" baseProfile="tiny" space="preserve">
  <path d="M1468 1156 Q1496 1128 1516 1080 Q1536 1032 1536 992 L1536 -160 Q1536 -200 1508 -228 Q1480 -256 1440 -256 L96 -256 Q56 -256 28 -228 Q0 -200 0 -160 L0 1440 Q0 1480 28 1508 Q56 1536 96 1536 L992 1536 Q1032 1536 1080 1516 Q1128 1496 1156 1468 z M1024 1400 L1024 1024 L1400 1024 Q1390 1053 1378 1065 L1065 1378 Q1053 1390 1024 1400 z M1408 -128 L1408 896 L992 896 Q952 896 924 924 Q896 952 896 992 L896 1408 L128 1408 L128 -128 L1408 -128 z M429 106 L429 0 L710 0 L710 106 L635 106 L738 267 Q743 274 748 283.5 Q753 293 755.5 297 Q758 301 759 301 L761 301 Q762 297 766 291 Q768 287 770.5 283.5 Q773 280 776.5 275.5 Q780 271 783 267 L890 106 L814 106 L814 0 L1105 0 L1105 106 L1037 106 L845 379 L1040 661 L1107 661 L1107 768 L828 768 L828 661 L902 661 L799 502 Q795 495 789 485.5 Q783 476 780 472 L778 469 L776 469 Q775 473 771 479 Q765 490 754 502 L648 661 L724 661 L724 768 L434 768 L434 661 L502 661 L691 389 L497 106 L429 106 z" pathLength="0" fill="White" transform="translate(1.142857, 9.536743E-07) scale(0.008928572, -0.008928572) translate(0, -1536)" />
</svg>