<!DOCTYPE svg PUBLIC "-//W3C//DTD SVG 1.1//EN" "http://www.w3.org/Graphics/SVG/1.1/DTD/svg11.dtd">
<svg xmlns="http://www.w3.org/2000/svg" xmlns:xlink="http://www.w3.org/1999/xlink" version="1.1" x="0" y="0" width="16" height="16" overflow="auto" preserveAspectRatio="xMidYMid" baseProfile="tiny" space="preserve">
  <path d="M1468 1156 Q1496 1128 1516 1080 Q1536 1032 1536 992 L1536 -160 Q1536 -200 1508 -228 Q1480 -256 1440 -256 L96 -256 Q56 -256 28 -228 Q0 -200 0 -160 L0 1440 Q0 1480 28 1508 Q56 1536 96 1536 L992 1536 Q1032 1536 1080 1516 Q1128 1496 1156 1468 z M1024 1400 L1024 1024 L1400 1024 Q1390 1053 1378 1065 L1065 1378 Q1053 1390 1024 1400 z M1408 -128 L1408 896 L992 896 Q952 896 924 924 Q896 952 896 992 L896 1408 L128 1408 L128 -128 L1408 -128 z M233 768 L233 661 L303 661 L467 0 L626 0 L754 485 Q761 505 764 531 Q766 547 766 555 L770 555 L773 531 Q774 528 776.5 511 Q779 494 782 485 L910 0 L1069 0 L1233 661 L1303 661 L1303 768 L1003 768 L1003 661 L1093 661 L994 223 Q989 203 987 177 L985 156 L981 156 L978 177 Q977 182 974 198 Q971 214 969 223 L825 768 L711 768 L567 223 Q565 214 562.5 198.5 Q560 183 559 177 L555 156 L551 156 L549 177 Q547 203 542 223 L443 661 L533 661 L533 768 L233 768 z" pathLength="0" fill="White" transform="translate(1.142857, 9.536743E-07) scale(0.008928572, -0.008928572) translate(0, -1536)" />
</svg>