<!DOCTYPE svg PUBLIC "-//W3C//DTD SVG 1.1//EN" "http://www.w3.org/Graphics/SVG/1.1/DTD/svg11.dtd">
<svg xmlns="http://www.w3.org/2000/svg" xmlns:xlink="http://www.w3.org/1999/xlink" version="1.1" x="0" y="0" width="16" height="16" overflow="auto" preserveAspectRatio="xMidYMid" baseProfile="tiny" space="preserve">
  <path d="M1468 1156 Q1496 1128 1516 1080 Q1536 1032 1536 992 L1536 -160 Q1536 -200 1508 -228 Q1480 -256 1440 -256 L96 -256 Q56 -256 28 -228 Q0 -200 0 -160 L0 1440 Q0 1480 28 1508 Q56 1536 96 1536 L992 1536 Q1032 1536 1080 1516 Q1128 1496 1156 1468 z M1024 1400 L1024 1024 L1400 1024 Q1390 1053 1378 1065 L1065 1378 Q1053 1390 1024 1400 z M1408 -128 L1408 896 L992 896 Q952 896 924 924 Q896 952 896 992 L896 1408 L128 1408 L128 -128 L1408 -128 z M480 768 Q488 779 501 780.5 Q514 782 525 774 L576 736 Q587 728 588.5 715 Q590 702 582 691 L400 448 L582 205 Q590 194 588.5 181 Q587 168 576 160 L525 122 Q514 114 501 115.5 Q488 117 480 128 L254 429 Q240 448 254 467 z M1282 467 Q1296 448 1282 429 L1056 128 Q1048 117 1035 115.5 Q1022 114 1011 122 L960 160 Q949 168 947.5 181 Q946 194 954 205 L1136 448 L954 691 Q946 702 947.5 715 Q949 728 960 736 L1011 774 Q1022 782 1035 780.5 Q1048 779 1056 768 z M662 6 Q649 8 641.5 19 Q634 30 636 43 L774 874 Q776 887 787 894.5 Q798 902 811 900 L874 890 Q887 888 894.5 877 Q902 866 900 853 L762 22 Q760 9 749 1.5 Q738 -6 725 -4 z" pathLength="0" fill="White" transform="translate(1.142857, 9.536743E-07) scale(0.008928572, -0.008928572) translate(0, -1536)" />
</svg>