<!DOCTYPE svg PUBLIC "-//W3C//DTD SVG 1.1//EN" "http://www.w3.org/Graphics/SVG/1.1/DTD/svg11.dtd">
<svg xmlns="http://www.w3.org/2000/svg" xmlns:xlink="http://www.w3.org/1999/xlink" version="1.1" x="0" y="0" width="16" height="16" overflow="auto" preserveAspectRatio="xMidYMid" baseProfile="tiny" space="preserve">
  <path d="M1468 1156 Q1496 1128 1516 1080 Q1536 1032 1536 992 L1536 -160 Q1536 -200 1508 -228 Q1480 -256 1440 -256 L96 -256 Q56 -256 28 -228 Q0 -200 0 -160 L0 1440 Q0 1480 28 1508 Q56 1536 96 1536 L992 1536 Q1032 1536 1080 1516 Q1128 1496 1156 1468 z M1024 1400 L1024 1024 L1400 1024 Q1390 1053 1378 1065 L1065 1378 Q1053 1390 1024 1400 z M1408 -128 L1408 896 L992 896 Q952 896 924 924 Q896 952 896 992 L896 1408 L128 1408 L128 -128 L1408 -128 z M620 686 Q640 678 640 656 L640 112 Q640 90 620 82 Q612 80 608 80 Q596 80 585 89 L419 256 L288 256 Q274 256 265 265 Q256 274 256 288 L256 480 Q256 494 265 503 Q274 512 288 512 L419 512 L585 679 Q601 694 620 686 z M1037 -3 Q1068 -3 1087 21 Q1216 180 1216 384 Q1216 588 1087 747 Q1071 768 1044 771 Q1017 774 997 757 Q976 740 973.5 713.5 Q971 687 988 666 Q1088 543 1088 384 Q1088 225 988 102 Q971 81 973.5 54.5 Q976 28 997 12 Q1015 -3 1037 -3 z M826 145 Q853 145 873 165 Q960 258 960 384 Q960 510 873 603 Q855 622 828 623 Q801 624 782 606 Q763 588 762 561.5 Q761 535 780 515 Q832 458 832 384 Q832 310 780 253 Q761 233 762 206.5 Q763 180 782 162 Q802 145 826 145 z" pathLength="0" fill="White" transform="translate(1.142857, 9.536743E-07) scale(0.008928572, -0.008928572) translate(0, -1536)" />
</svg>