<!DOCTYPE svg PUBLIC "-//W3C//DTD SVG 1.1//EN" "http://www.w3.org/Graphics/SVG/1.1/DTD/svg11.dtd">
<svg xmlns="http://www.w3.org/2000/svg" xmlns:xlink="http://www.w3.org/1999/xlink" version="1.1" x="0" y="0" width="16" height="16" overflow="auto" preserveAspectRatio="xMidYMid" baseProfile="tiny" space="preserve">
  <path d="M1468 1060 Q1482 1046 1496 1024 L1024 1024 L1024 1496 Q1046 1482 1060 1468 z M992 896 L1536 896 L1536 -160 Q1536 -200 1508 -228 Q1480 -256 1440 -256 L96 -256 Q56 -256 28 -228 Q0 -200 0 -160 L0 1440 Q0 1480 28 1508 Q56 1536 96 1536 L896 1536 L896 992 Q896 952 924 924 Q952 896 992 896 z M1152 160 L1152 224 Q1152 238 1143 247 Q1134 256 1120 256 L416 256 Q402 256 393 247 Q384 238 384 224 L384 160 Q384 146 393 137 Q402 128 416 128 L1120 128 Q1134 128 1143 137 Q1152 146 1152 160 z M1152 416 L1152 480 Q1152 494 1143 503 Q1134 512 1120 512 L416 512 Q402 512 393 503 Q384 494 384 480 L384 416 Q384 402 393 393 Q402 384 416 384 L1120 384 Q1134 384 1143 393 Q1152 402 1152 416 z M1152 672 L1152 736 Q1152 750 1143 759 Q1134 768 1120 768 L416 768 Q402 768 393 759 Q384 750 384 736 L384 672 Q384 658 393 649 Q402 640 416 640 L1120 640 Q1134 640 1143 649 Q1152 658 1152 672 z" pathLength="0" fill="White" transform="translate(1.142857, 9.536743E-07) scale(0.008928572, -0.008928572) translate(0, -1536)" />
</svg>