<!DOCTYPE svg PUBLIC "-//W3C//DTD SVG 1.1//EN" "http://www.w3.org/Graphics/SVG/1.1/DTD/svg11.dtd">
<svg xmlns="http://www.w3.org/2000/svg" xmlns:xlink="http://www.w3.org/1999/xlink" version="1.1" x="0" y="0" width="16" height="16" overflow="auto" preserveAspectRatio="xMidYMid" baseProfile="tiny" space="preserve">
  <path d="M1468 1156 Q1496 1128 1516 1080 Q1536 1032 1536 992 L1536 -160 Q1536 -200 1508 -228 Q1480 -256 1440 -256 L96 -256 Q56 -256 28 -228 Q0 -200 0 -160 L0 1440 Q0 1480 28 1508 Q56 1536 96 1536 L992 1536 Q1032 1536 1080 1516 Q1128 1496 1156 1468 z M1024 1400 L1024 1024 L1400 1024 Q1390 1053 1378 1065 L1065 1378 Q1053 1390 1024 1400 z M1408 -128 L1408 896 L992 896 Q952 896 924 924 Q896 952 896 992 L896 1408 L128 1408 L128 -128 L1408 -128 z M894 465 Q927 439 978 409 Q1037 416 1095 416 Q1242 416 1272 367 Q1288 345 1274 315 Q1274 314 1273 313 L1271 311 L1271 310 Q1265 272 1200 272 Q1152 272 1085 292 Q1018 312 955 345 Q734 321 563 262 Q410 0 321 0 Q306 0 293 7 L269 19 Q268 20 263 24 Q253 34 257 60 Q266 100 313 151.5 Q360 203 445 248 Q459 257 468 242 Q470 240 470 238 Q522 323 577 435 Q645 571 681 697 Q657 779 650.5 856.5 Q644 934 657 984 Q668 1024 699 1024 L720 1024 L721 1024 Q744 1024 756 1009 Q774 988 765 941 Q763 935 761 933 Q762 930 762 925 L762 895 Q760 772 748 703 Q803 539 894 465 z M318 54 Q370 78 455 212 Q404 172 367.5 128 Q331 84 318 54 z M716 974 Q701 932 714 842 Q715 849 721 886 Q721 889 728 929 Q729 933 732 937 Q731 938 731 939 Q731 940 730.5 940.5 Q730 941 730 942 Q729 964 717 978 Q717 977 716 976 L716 974 z M592 313 Q727 367 876 394 Q874 395 863 403.5 Q852 412 847 417 Q771 484 720 593 Q693 507 637 396 Q607 340 592 313 z M1238 329 Q1214 353 1098 353 Q1174 325 1222 325 Q1236 325 1240 326 Q1240 327 1238 329 z" pathLength="0" fill="White" transform="translate(1.142857, 9.536743E-07) scale(0.008928572, -0.008928572) translate(0, -1536)" />
</svg>