<!DOCTYPE svg PUBLIC "-//W3C//DTD SVG 1.1//EN" "http://www.w3.org/Graphics/SVG/1.1/DTD/svg11.dtd">
<svg xmlns="http://www.w3.org/2000/svg" xmlns:xlink="http://www.w3.org/1999/xlink" version="1.1" x="0" y="0" width="16" height="16" overflow="auto" preserveAspectRatio="xMidYMid" baseProfile="tiny" space="preserve">
  <path d="M640 1152 L640 1280 L512 1280 L512 1152 L640 1152 z M768 1024 L768 1152 L640 1152 L640 1024 L768 1024 z M640 896 L640 1024 L512 1024 L512 896 L640 896 z M768 768 L768 896 L640 896 L640 768 L768 768 z M1468 1156 Q1496 1128 1516 1080 Q1536 1032 1536 992 L1536 -160 Q1536 -200 1508 -228 Q1480 -256 1440 -256 L96 -256 Q56 -256 28 -228 Q0 -200 0 -160 L0 1440 Q0 1480 28 1508 Q56 1536 96 1536 L992 1536 Q1032 1536 1080 1516 Q1128 1496 1156 1468 z M1024 1400 L1024 1024 L1400 1024 Q1390 1053 1378 1065 L1065 1378 Q1053 1390 1024 1400 z M1408 -128 L1408 896 L992 896 Q952 896 924 924 Q896 952 896 992 L896 1408 L768 1408 L768 1280 L640 1280 L640 1408 L128 1408 L128 -128 L1408 -128 z M781 593 L888 244 Q896 217 896 192 Q896 109 823.5 54.5 Q751 0 640 0 Q529 0 456.5 54.5 Q384 109 384 192 Q384 217 392 244 Q413 307 512 640 L512 768 L640 768 L640 640 L719 640 Q741 640 758 627 Q775 614 781 593 z M640 128 Q693 128 730.5 147 Q768 166 768 192 Q768 218 730.5 237 Q693 256 640 256 Q587 256 549.5 237 Q512 218 512 192 Q512 166 549.5 147 Q587 128 640 128 z" pathLength="0" fill="White" transform="translate(1.142857, 9.536743E-07) scale(0.008928572, -0.008928572) translate(0, -1536)" />
</svg>