<!DOCTYPE svg PUBLIC "-//W3C//DTD SVG 1.1//EN" "http://www.w3.org/Graphics/SVG/1.1/DTD/svg11.dtd">
<svg xmlns="http://www.w3.org/2000/svg" xmlns:xlink="http://www.w3.org/1999/xlink" version="1.1" x="0" y="0" width="16" height="16" overflow="auto" preserveAspectRatio="xMidYMid" baseProfile="tiny" space="preserve">
  <path d="M1468 1156 Q1496 1128 1516 1080 Q1536 1032 1536 992 L1536 -160 Q1536 -200 1508 -228 Q1480 -256 1440 -256 L96 -256 Q56 -256 28 -228 Q0 -200 0 -160 L0 1440 Q0 1480 28 1508 Q56 1536 96 1536 L992 1536 Q1032 1536 1080 1516 Q1128 1496 1156 1468 z M1024 1400 L1024 1024 L1400 1024 Q1390 1053 1378 1065 L1065 1378 Q1053 1390 1024 1400 z M1408 -128 L1408 896 L992 896 Q952 896 924 924 Q896 952 896 992 L896 1408 L128 1408 L128 -128 L1408 -128 z M384 736 Q384 750 393 759 Q402 768 416 768 L1120 768 Q1134 768 1143 759 Q1152 750 1152 736 L1152 672 Q1152 658 1143 649 Q1134 640 1120 640 L416 640 Q402 640 393 649 Q384 658 384 672 L384 736 z M1120 512 Q1134 512 1143 503 Q1152 494 1152 480 L1152 416 Q1152 402 1143 393 Q1134 384 1120 384 L416 384 Q402 384 393 393 Q384 402 384 416 L384 480 Q384 494 393 503 Q402 512 416 512 L1120 512 z M1120 256 Q1134 256 1143 247 Q1152 238 1152 224 L1152 160 Q1152 146 1143 137 Q1134 128 1120 128 L416 128 Q402 128 393 137 Q384 146 384 160 L384 224 Q384 238 393 247 Q402 256 416 256 L1120 256 z" pathLength="0" fill="White" transform="translate(1.142857, 9.536743E-07) scale(0.008928572, -0.008928572) translate(0, -1536)" />
</svg>