<!DOCTYPE svg PUBLIC "-//W3C//DTD SVG 1.1//EN" "http://www.w3.org/Graphics/SVG/1.1/DTD/svg11.dtd">
<svg xmlns="http://www.w3.org/2000/svg" xmlns:xlink="http://www.w3.org/1999/xlink" version="1.1" x="0" y="0" width="16" height="16" overflow="auto" preserveAspectRatio="xMidYMid" baseProfile="tiny" space="preserve">
  <path d="M1468 1156 Q1496 1128 1516 1080 Q1536 1032 1536 992 L1536 -160 Q1536 -200 1508 -228 Q1480 -256 1440 -256 L96 -256 Q56 -256 28 -228 Q0 -200 0 -160 L0 1440 Q0 1480 28 1508 Q56 1536 96 1536 L992 1536 Q1032 1536 1080 1516 Q1128 1496 1156 1468 z M1024 1400 L1024 1024 L1400 1024 Q1390 1053 1378 1065 L1065 1378 Q1053 1390 1024 1400 z M1408 -128 L1408 896 L992 896 Q952 896 924 924 Q896 952 896 992 L896 1408 L128 1408 L128 -128 L1408 -128 z M1280 320 L1280 0 L256 0 L256 192 L448 384 L576 256 L960 640 z M448 512 Q368 512 312 568 Q256 624 256 704 Q256 784 312 840 Q368 896 448 896 Q528 896 584 840 Q640 784 640 704 Q640 624 584 568 Q528 512 448 512 z" pathLength="0" fill="White" transform="translate(1.142857, 9.536743E-07) scale(0.008928572, -0.008928572) translate(0, -1536)" />
</svg>