<!DOCTYPE svg PUBLIC "-//W3C//DTD SVG 1.1//EN" "http://www.w3.org/Graphics/SVG/1.1/DTD/svg11.dtd">
<svg xmlns="http://www.w3.org/2000/svg" xmlns:xlink="http://www.w3.org/1999/xlink" version="1.1" x="0" y="0" width="16" height="16" overflow="auto" preserveAspectRatio="xMidYMid" baseProfile="tiny" space="preserve">
  <path d="M384 -64 L384 64 Q384 90 365 109 Q346 128 320 128 L192 128 Q166 128 147 109 Q128 90 128 64 L128 -64 Q128 -90 147 -109 Q166 -128 192 -128 L320 -128 Q346 -128 365 -109 Q384 -90 384 -64 z M384 320 L384 448 Q384 474 365 493 Q346 512 320 512 L192 512 Q166 512 147 493 Q128 474 128 448 L128 320 Q128 294 147 275 Q166 256 192 256 L320 256 Q346 256 365 275 Q384 294 384 320 z M384 704 L384 832 Q384 858 365 877 Q346 896 320 896 L192 896 Q166 896 147 877 Q128 858 128 832 L128 704 Q128 678 147 659 Q166 640 192 640 L320 640 Q346 640 365 659 Q384 678 384 704 z M1408 -64 L1408 448 Q1408 474 1389 493 Q1370 512 1344 512 L576 512 Q550 512 531 493 Q512 474 512 448 L512 -64 Q512 -90 531 -109 Q550 -128 576 -128 L1344 -128 Q1370 -128 1389 -109 Q1408 -90 1408 -64 z M384 1088 L384 1216 Q384 1242 365 1261 Q346 1280 320 1280 L192 1280 Q166 1280 147 1261 Q128 1242 128 1216 L128 1088 Q128 1062 147 1043 Q166 1024 192 1024 L320 1024 Q346 1024 365 1043 Q384 1062 384 1088 z M1792 -64 L1792 64 Q1792 90 1773 109 Q1754 128 1728 128 L1600 128 Q1574 128 1555 109 Q1536 90 1536 64 L1536 -64 Q1536 -90 1555 -109 Q1574 -128 1600 -128 L1728 -128 Q1754 -128 1773 -109 Q1792 -90 1792 -64 z M1408 704 L1408 1216 Q1408 1242 1389 1261 Q1370 1280 1344 1280 L576 1280 Q550 1280 531 1261 Q512 1242 512 1216 L512 704 Q512 678 531 659 Q550 640 576 640 L1344 640 Q1370 640 1389 659 Q1408 678 1408 704 z M1792 320 L1792 448 Q1792 474 1773 493 Q1754 512 1728 512 L1600 512 Q1574 512 1555 493 Q1536 474 1536 448 L1536 320 Q1536 294 1555 275 Q1574 256 1600 256 L1728 256 Q1754 256 1773 275 Q1792 294 1792 320 z M1792 704 L1792 832 Q1792 858 1773 877 Q1754 896 1728 896 L1600 896 Q1574 896 1555 877 Q1536 858 1536 832 L1536 704 Q1536 678 1555 659 Q1574 640 1600 640 L1728 640 Q1754 640 1773 659 Q1792 678 1792 704 z M1792 1088 L1792 1216 Q1792 1242 1773 1261 Q1754 1280 1728 1280 L1600 1280 Q1574 1280 1555 1261 Q1536 1242 1536 1216 L1536 1088 Q1536 1062 1555 1043 Q1574 1024 1600 1024 L1728 1024 Q1754 1024 1773 1043 Q1792 1062 1792 1088 z M1920 1248 L1920 -96 Q1920 -162 1873 -209 Q1826 -256 1760 -256 L160 -256 Q94 -256 47 -209 Q0 -162 0 -96 L0 1248 Q0 1314 47 1361 Q94 1408 160 1408 L1760 1408 Q1826 1408 1873 1361 Q1920 1314 1920 1248 z" pathLength="0" fill="White" transform="translate(-0.5714283, -0.5714275) scale(0.008928572, -0.008928572) translate(0, -1536)" />
</svg>