<!DOCTYPE svg PUBLIC "-//W3C//DTD SVG 1.1//EN" "http://www.w3.org/Graphics/SVG/1.1/DTD/svg11.dtd">
<svg xmlns="http://www.w3.org/2000/svg" xmlns:xlink="http://www.w3.org/1999/xlink" version="1.1" x="0" y="0" width="16" height="16" overflow="auto" preserveAspectRatio="xMidYMid" baseProfile="tiny" space="preserve">
  <path d="M903 -256 Q620 -256 398.5 -105.5 Q177 45 69 293 Q11 424 2 594 Q-7 764 28 926.5 Q63 1089 139 1238.5 Q215 1388 318 1481 L307 1200 Q318 1214 375 1215.5 Q432 1217 445 1200 Q487 1281 605.5 1338 Q724 1395 840 1397 Q786 1352 720.5 1248.5 Q655 1145 662 1085 Q687 1077 724.5 1071.5 Q762 1066 787.5 1064 Q813 1062 855.5 1060 Q898 1058 906 1057 Q921 1052 915.5 1011.5 Q910 971 885 936 Q880 929 868.5 917.5 Q857 906 812 882 Q767 858 711 848 L726 659 L587 726 Q569 683 579.5 644.5 Q590 606 615.5 578 Q641 550 681 536.5 Q721 523 762 530 Q813 539 860 564.5 Q907 590 943.5 609.5 Q980 629 1017 627 Q1078 623 1106.5 594 Q1135 565 1126 529 Q1125 527 1123.5 523.5 Q1122 520 1115 511 Q1108 502 1097 495.5 Q1086 489 1065.5 485 Q1045 481 1019 484 Q959 389 874.5 348.5 Q790 308 665 319 Q739 258 827.5 236.5 Q916 215 996 230.5 Q1076 246 1150.5 282.5 Q1225 319 1278.5 370 Q1332 421 1359 474 Q1402 565 1398 666.5 Q1394 768 1360.5 855 Q1327 942 1282 980 Q1369 942 1419 900.5 Q1469 859 1496 788 Q1511 958 1438.5 1131 Q1366 1304 1229 1415 Q1494 1338 1641 1135.5 Q1788 933 1792 618 Q1794 491 1751.5 363 Q1709 235 1628 125 Q1547 15 1439 -71 Q1331 -157 1191.5 -206.5 Q1052 -256 903 -256 z" pathLength="0" fill="White" transform="translate(0.01190581, -0.2455346) scale(0.008928572, -0.008928572) translate(0, -1536)" />
</svg>