<!DOCTYPE svg PUBLIC "-//W3C//DTD SVG 1.1//EN" "http://www.w3.org/Graphics/SVG/1.1/DTD/svg11.dtd">
<svg xmlns="http://www.w3.org/2000/svg" xmlns:xlink="http://www.w3.org/1999/xlink" version="1.1" x="0" y="0" width="16" height="16" overflow="auto" preserveAspectRatio="xMidYMid" baseProfile="tiny" space="preserve">
  <path d="M512 1344 Q512 1370 493 1389 Q474 1408 448 1408 Q422 1408 403 1389 Q384 1370 384 1344 Q384 1318 403 1299 Q422 1280 448 1280 Q474 1280 493 1299 Q512 1318 512 1344 z M1408 1376 L1408 1056 Q1408 1040 1396 1031 Q1388 1024 1376 1024 Q1372 1024 1369 1025 L921 1121 Q910 1123 903 1132 Q896 1141 896 1152 L640 1152 L640 1050 Q751 1027 823.5 939 Q896 851 896 736 L896 -64 Q896 -90 877 -109 Q858 -128 832 -128 L320 -128 Q294 -128 275 -109 Q256 -90 256 -64 L256 736 Q256 842 318.5 926.5 Q381 1011 480 1041 L480 1152 L448 1152 Q389 1152 333 1128.5 Q277 1105 241.5 1075.5 Q206 1046 175.5 1009 Q145 972 135 955.5 Q125 939 121 931 Q104 896 64 896 Q48 896 35 903 Q12 915 3.5 940 Q-5 965 7 989 Q12 999 21.5 1015 Q31 1031 59 1068.5 Q87 1106 119.5 1138.5 Q152 1171 204.5 1205.5 Q257 1240 313 1258 Q288 1300 288 1344 Q288 1410 335 1457 Q382 1504 448 1504 Q514 1504 561 1457 Q608 1410 608 1344 Q608 1311 594 1280 L896 1280 Q896 1291 903 1300 Q910 1309 921 1311 L1369 1407 Q1372 1408 1376 1408 Q1388 1408 1396 1401 Q1408 1392 1408 1376 z" pathLength="0" fill="White" transform="translate(1.723959, 0.4285725) scale(0.008928572, -0.008928572) translate(0, -1536)" />
</svg>