<!DOCTYPE svg PUBLIC "-//W3C//DTD SVG 1.1//EN" "http://www.w3.org/Graphics/SVG/1.1/DTD/svg11.dtd">
<svg xmlns="http://www.w3.org/2000/svg" xmlns:xlink="http://www.w3.org/1999/xlink" version="1.1" x="0" y="0" width="16" height="16" overflow="auto" preserveAspectRatio="xMidYMid" baseProfile="tiny" space="preserve">
  <path d="M1408 -160 L1408 -224 Q1408 -237 1398.5 -246.5 Q1389 -256 1376 -256 L32 -256 Q19 -256 9.5 -246.5 Q0 -237 0 -224 L0 -160 Q0 -147 9.5 -137.5 Q19 -128 32 -128 L1376 -128 Q1389 -128 1398.5 -137.5 Q1408 -147 1408 -160 z M1152 896 Q1152 818 1127.5 752 Q1103 686 1063.5 639.5 Q1024 593 976 551.5 Q928 510 880 474 Q832 438 792.5 402 Q753 366 728.5 320.5 Q704 275 704 224 Q704 128 771 0 L767 1 L768 0 Q678 41 608 83 Q538 125 469.5 183 Q401 241 356 305.5 Q311 370 283.5 456 Q256 542 256 640 Q256 718 280.5 784 Q305 850 344.5 896.5 Q384 943 432 984.5 Q480 1026 528 1062 Q576 1098 615.5 1134 Q655 1170 679.5 1215.5 Q704 1261 704 1312 Q704 1406 638 1536 L641 1535 L640 1536 Q730 1495 800 1453 Q870 1411 938.5 1353 Q1007 1295 1052 1230.5 Q1097 1166 1124.5 1080 Q1152 994 1152 896 z" pathLength="0" fill="White" transform="translate(1.714286, 9.536743E-07) scale(0.008928572, -0.008928572) translate(0, -1536)" />
</svg>