<!DOCTYPE svg PUBLIC "-//W3C//DTD SVG 1.1//EN" "http://www.w3.org/Graphics/SVG/1.1/DTD/svg11.dtd">
<svg xmlns="http://www.w3.org/2000/svg" xmlns:xlink="http://www.w3.org/1999/xlink" version="1.1" x="0" y="0" width="16" height="16" overflow="auto" preserveAspectRatio="xMidYMid" baseProfile="tiny" space="preserve">
  <path d="M320 1280 Q320 1208 256 1170 L256 -96 Q256 -109 246.5 -118.5 Q237 -128 224 -128 L160 -128 Q147 -128 137.5 -118.5 Q128 -109 128 -96 L128 1170 Q64 1208 64 1280 Q64 1333 101.5 1370.5 Q139 1408 192 1408 Q245 1408 282.5 1370.5 Q320 1333 320 1280 z M1792 1216 L1792 453 Q1792 428 1779.5 414.5 Q1767 401 1740 387 Q1525 271 1371 271 Q1310 271 1247.5 293 Q1185 315 1139 341 Q1093 367 1023.5 389 Q954 411 881 411 Q689 411 417 265 Q400 256 384 256 Q358 256 339 275 Q320 294 320 320 L320 1062 Q320 1094 351 1117 Q372 1131 430 1160 Q666 1280 851 1280 Q958 1280 1051 1251 Q1144 1222 1270 1163 Q1308 1144 1358 1144 Q1412 1144 1475.5 1165 Q1539 1186 1585.5 1212 Q1632 1238 1673.5 1259 Q1715 1280 1728 1280 Q1754 1280 1773 1261 Q1792 1242 1792 1216 z" pathLength="0" fill="White" transform="translate(-0.2857135, 1.311302E-06) scale(0.008928572, -0.008928572) translate(0, -1536)" />
</svg>