<!DOCTYPE svg PUBLIC "-//W3C//DTD SVG 1.1//EN" "http://www.w3.org/Graphics/SVG/1.1/DTD/svg11.dtd">
<svg xmlns="http://www.w3.org/2000/svg" xmlns:xlink="http://www.w3.org/1999/xlink" version="1.1" x="0" y="0" width="16" height="16" overflow="auto" preserveAspectRatio="xMidYMid" baseProfile="tiny" space="preserve">
  <path d="M1664 491 L1664 1107 Q1495 1016 1358 1016 Q1276 1016 1213 1048 Q1113 1097 1029 1124.5 Q945 1152 851 1152 Q678 1152 448 1025 L448 426 Q693 539 881 539 Q936 539 984.5 531.5 Q1033 524 1082.5 505.5 Q1132 487 1159.5 474.5 Q1187 462 1242 435 L1270 421 Q1314 399 1371 399 Q1491 399 1664 491 z M320 1280 Q320 1245 302.5 1216 Q285 1187 256 1170 L256 -96 Q256 -110 247 -119 Q238 -128 224 -128 L160 -128 Q146 -128 137 -119 Q128 -110 128 -96 L128 1170 Q99 1187 81.5 1216 Q64 1245 64 1280 Q64 1333 101.5 1370.5 Q139 1408 192 1408 Q245 1408 282.5 1370.5 Q320 1333 320 1280 z M1792 1216 L1792 453 Q1792 414 1757 396 Q1747 391 1740 387 Q1522 271 1371 271 Q1283 271 1213 306 L1185 320 Q1121 353 1086 368 Q1051 383 995 397 Q939 411 881 411 Q779 411 645.5 367 Q512 323 417 265 Q402 256 384 256 Q368 256 352 264 Q320 283 320 320 L320 1062 Q320 1097 351 1117 Q386 1138 429.5 1159.5 Q473 1181 543.5 1211.5 Q614 1242 696 1261 Q778 1280 851 1280 Q963 1280 1060 1249 Q1157 1218 1269 1163 Q1307 1144 1358 1144 Q1480 1144 1668 1256 Q1690 1268 1699 1273 Q1730 1289 1761 1271 Q1792 1251 1792 1216 z" pathLength="0" fill="White" transform="translate(-0.2857135, 1.311302E-06) scale(0.008928572, -0.008928572) translate(0, -1536)" />
</svg>