<!DOCTYPE svg PUBLIC "-//W3C//DTD SVG 1.1//EN" "http://www.w3.org/Graphics/SVG/1.1/DTD/svg11.dtd">
<svg xmlns="http://www.w3.org/2000/svg" xmlns:xlink="http://www.w3.org/1999/xlink" version="1.1" x="0" y="0" width="16" height="16" overflow="auto" preserveAspectRatio="xMidYMid" baseProfile="tiny" space="preserve">
  <path d="M885 970 Q903 950 892 926 L352 -231 Q339 -256 310 -256 Q306 -256 296 -254 Q279 -249 270.5 -235 Q262 -221 266 -205 L463 603 L57 502 Q53 501 45 501 Q27 501 14 512 Q-4 527 1 551 L202 1376 Q206 1390 218 1399 Q230 1408 246 1408 L574 1408 Q593 1408 606 1395.5 Q619 1383 619 1366 Q619 1358 614 1348 L443 885 L839 983 Q847 985 851 985 Q870 985 885 970 z" pathLength="0" fill="White" transform="translate(3.995537, -0.5714275) scale(0.008928572, -0.008928572) translate(0, -1536)" />
</svg>