<!DOCTYPE svg PUBLIC "-//W3C//DTD SVG 1.1//EN" "http://www.w3.org/Graphics/SVG/1.1/DTD/svg11.dtd">
<svg xmlns="http://www.w3.org/2000/svg" xmlns:xlink="http://www.w3.org/1999/xlink" version="1.1" x="0" y="0" width="16" height="16" overflow="auto" preserveAspectRatio="xMidYMid" baseProfile="tiny" space="preserve">
  <path d="M1248 1408 Q1367 1408 1451.5 1323.5 Q1536 1239 1536 1120 L1536 160 Q1536 41 1451.5 -43.5 Q1367 -128 1248 -128 L288 -128 Q169 -128 84.5 -43.5 Q0 41 0 160 L0 1120 Q0 1239 84.5 1323.5 Q169 1408 288 1408 L1248 1408 z M698 640 Q698 728 636 790 Q574 852 486 852 Q398 852 336 790 Q274 728 274 640 Q274 552 336 490 Q398 428 486 428 Q574 428 636 490 Q698 552 698 640 z M1262 640 Q1262 728 1200 790 Q1138 852 1050 852 Q962 852 900 790 Q838 728 838 640 Q838 552 900 490 Q962 428 1050 428 Q1138 428 1200 490 Q1262 552 1262 640 z" pathLength="0" fill="White" transform="translate(1.142857, 1.311302E-06) scale(0.008928572, -0.008928572) translate(0, -1536)" />
</svg>