<!DOCTYPE svg PUBLIC "-//W3C//DTD SVG 1.1//EN" "http://www.w3.org/Graphics/SVG/1.1/DTD/svg11.dtd">
<svg xmlns="http://www.w3.org/2000/svg" xmlns:xlink="http://www.w3.org/1999/xlink" version="1.1" x="0" y="0" width="16" height="16" overflow="auto" preserveAspectRatio="xMidYMid" baseProfile="tiny" space="preserve">
  <path d="M1536 224 L1536 928 Q1536 968 1508 996 Q1480 1024 1440 1024 L736 1024 Q696 1024 668 1052 Q640 1080 640 1120 L640 1184 Q640 1224 612 1252 Q584 1280 544 1280 L224 1280 Q184 1280 156 1252 Q128 1224 128 1184 L128 224 Q128 184 156 156 Q184 128 224 128 L1440 128 Q1480 128 1508 156 Q1536 184 1536 224 z M1664 928 L1664 224 Q1664 132 1598 66 Q1532 0 1440 0 L224 0 Q132 0 66 66 Q0 132 0 224 L0 1184 Q0 1276 66 1342 Q132 1408 224 1408 L544 1408 Q636 1408 702 1342 Q768 1276 768 1184 L768 1152 L1440 1152 Q1532 1152 1598 1086 Q1664 1020 1664 928 z" pathLength="0" fill="White" transform="translate(0.5714283, 0.5714296) scale(0.008928572, -0.008928572) translate(0, -1536)" />
</svg>