<!DOCTYPE svg PUBLIC "-//W3C//DTD SVG 1.1//EN" "http://www.w3.org/Graphics/SVG/1.1/DTD/svg11.dtd">
<svg xmlns="http://www.w3.org/2000/svg" xmlns:xlink="http://www.w3.org/1999/xlink" version="1.1" x="0" y="0" width="16" height="16" overflow="auto" preserveAspectRatio="xMidYMid" baseProfile="tiny" space="preserve">
  <path d="M1781 605 Q1781 640 1728 640 L640 640 Q600 640 554.5 618.5 Q509 597 483 566 L189 203 Q171 179 171 163 Q171 128 224 128 L1312 128 Q1352 128 1398 150 Q1444 172 1469 203 L1763 566 Q1781 588 1781 605 z M640 768 L1408 768 L1408 928 Q1408 968 1380 996 Q1352 1024 1312 1024 L736 1024 Q696 1024 668 1052 Q640 1080 640 1120 L640 1184 Q640 1224 612 1252 Q584 1280 544 1280 L224 1280 Q184 1280 156 1252 Q128 1224 128 1184 L128 331 L384 646 Q428 699 500 733.5 Q572 768 640 768 z M1909 605 Q1909 543 1863 485 L1568 122 Q1525 69 1452 34.5 Q1379 0 1312 0 L224 0 Q132 0 66 66 Q0 132 0 224 L0 1184 Q0 1276 66 1342 Q132 1408 224 1408 L544 1408 Q636 1408 702 1342 Q768 1276 768 1184 L768 1152 L1312 1152 Q1404 1152 1470 1086 Q1536 1020 1536 928 L1536 768 L1728 768 Q1782 768 1827 743.5 Q1872 719 1894 673 Q1909 641 1909 605 z" pathLength="0" fill="White" transform="translate(-0.5223217, 0.5714296) scale(0.008928572, -0.008928572) translate(0, -1536)" />
</svg>