<!DOCTYPE svg PUBLIC "-//W3C//DTD SVG 1.1//EN" "http://www.w3.org/Graphics/SVG/1.1/DTD/svg11.dtd">
<svg xmlns="http://www.w3.org/2000/svg" xmlns:xlink="http://www.w3.org/1999/xlink" version="1.1" x="0" y="0" width="16" height="16" overflow="auto" preserveAspectRatio="xMidYMid" baseProfile="tiny" space="preserve">
  <path d="M1879 584 Q1879 553 1848 518 L1512 122 Q1469 71 1391.5 35.5 Q1314 0 1248 0 L160 0 Q126 0 99.5 13 Q73 26 73 56 Q73 87 104 122 L440 518 Q483 569 560.5 604.5 Q638 640 704 640 L1792 640 Q1826 640 1852.5 627 Q1879 614 1879 584 z M1536 928 L1536 768 L704 768 Q610 768 507 720.5 Q404 673 343 601 L6 205 L1 199 Q1 203 0.5 211.5 Q0 220 0 224 L0 1184 Q0 1276 66 1342 Q132 1408 224 1408 L544 1408 Q636 1408 702 1342 Q768 1276 768 1184 L768 1152 L1312 1152 Q1404 1152 1470 1086 Q1536 1020 1536 928 z" pathLength="0" fill="White" transform="translate(-0.3883924, 0.5714296) scale(0.008928572, -0.008928572) translate(0, -1536)" />
</svg>