<!DOCTYPE svg PUBLIC "-//W3C//DTD SVG 1.1//EN" "http://www.w3.org/Graphics/SVG/1.1/DTD/svg11.dtd">
<svg xmlns="http://www.w3.org/2000/svg" xmlns:xlink="http://www.w3.org/1999/xlink" version="1.1" x="0" y="0" width="16" height="16" overflow="auto" preserveAspectRatio="xMidYMid" baseProfile="tiny" space="preserve">
  <path d="M725 977 L555 527 Q588 527 691.5 525 Q795 523 852 523 Q871 523 909 525 Q822 778 725 977 z M0 -128 L2 -49 Q25 -42 58 -36.5 Q91 -31 115 -26 Q139 -21 164.5 -11.5 Q190 -2 209 17.5 Q228 37 240 68 L477 684 L757 1408 L832 1408 L885 1408 Q893 1394 896 1387 L1101 907 Q1134 829 1207 649.5 Q1280 470 1321 375 Q1336 341 1379 230.5 Q1422 120 1451 62 Q1471 17 1486 5 Q1505 -10 1574 -24.5 Q1643 -39 1658 -45 Q1664 -83 1664 -102 Q1664 -106 1663.5 -115 Q1663 -124 1663 -128 Q1600 -128 1473 -120 Q1346 -112 1282 -112 Q1206 -112 1067 -119 Q928 -126 889 -127 Q889 -84 893 -49 L1024 -21 Q1025 -21 1036.5 -18.5 Q1048 -16 1052 -15 Q1056 -14 1066.5 -10.5 Q1077 -7 1081.5 -4 Q1086 -1 1092.5 4 Q1099 9 1101.5 15 Q1104 21 1104 29 Q1104 45 1073 125.5 Q1042 206 1001 303 Q960 400 959 403 L509 405 Q483 347 432.5 209.5 Q382 72 382 47 Q382 25 396 9.5 Q410 -6 439.5 -15 Q469 -24 488 -28.5 Q507 -33 545 -37 Q583 -41 586 -41 Q587 -60 587 -99 Q587 -108 585 -126 Q527 -126 410.5 -116 Q294 -106 236 -106 Q228 -106 209.5 -110 Q191 -114 188 -114 Q108 -128 0 -128 z" pathLength="0" fill="White" transform="translate(0.5714283, 1.311302E-06) scale(0.008928572, -0.008928572) translate(0, -1536)" />
</svg>