<!DOCTYPE svg PUBLIC "-//W3C//DTD SVG 1.1//EN" "http://www.w3.org/Graphics/SVG/1.1/DTD/svg11.dtd">
<svg xmlns="http://www.w3.org/2000/svg" xmlns:xlink="http://www.w3.org/1999/xlink" version="1.1" x="0" y="0" width="16" height="16" overflow="auto" preserveAspectRatio="xMidYMid" baseProfile="tiny" space="preserve">
  <path d="M0 1408 L1536 1408 L1536 -128 L0 -128 L0 1408 z M908 1088 L896 1055 L971 972 L940 858 L965 833 L1072 890 L1179 833 L1204 858 L1173 972 L1248 1055 L1236 1088 L1141 1088 L1088 1184 L1056 1184 L1003 1088 L908 1088 z M641 925 Q673 925 685.5 909 Q698 893 697 846 L871 867 Q871 922 853.5 959.5 Q836 997 803 1015.5 Q770 1034 734 1041 Q698 1048 649 1048 Q516 1048 450 990.5 Q384 933 384 808 L384 736 L288 736 L288 608 L364 608 Q384 608 384 600 L384 218 Q384 204 379 198 Q374 192 361 191 L288 184 L288 96 L736 96 L736 182 L587 196 Q581 197 578.5 197.5 Q576 198 575 200 Q574 202 574.5 204 Q575 206 575.5 211 Q576 216 576 221 L576 608 L767 608 L805 736 L574 736 Q568 736 572 742 Q576 748 576 751 L576 831 Q576 858 577.5 871.5 Q579 885 585 899.5 Q591 914 604.5 919.5 Q618 925 641 925 z M1248 96 L1248 182 L1194 191 Q1187 192 1184.5 193.5 Q1182 195 1182 196.5 Q1182 198 1183 204 Q1184 210 1184 216 L1184 736 L909 736 L886 635 L969 613 Q992 606 992 586 L992 216 Q992 202 986 197.5 Q980 193 966 191 L896 182 L896 96 L1248 96 z" pathLength="0" fill="White" transform="translate(1.142857, 1.311302E-06) scale(0.008928572, -0.008928572) translate(0, -1536)" />
</svg>