<!DOCTYPE svg PUBLIC "-//W3C//DTD SVG 1.1//EN" "http://www.w3.org/Graphics/SVG/1.1/DTD/svg11.dtd">
<svg xmlns="http://www.w3.org/2000/svg" xmlns:xlink="http://www.w3.org/1999/xlink" version="1.1" x="0" y="0" width="16" height="16" overflow="auto" preserveAspectRatio="xMidYMid" baseProfile="tiny" space="preserve">
  <path d="M934 1386 Q617 1265 378 1023.5 Q139 782 20 463 Q0 552 0 639 Q0 847 102.5 1023.5 Q205 1200 381 1302.5 Q557 1405 765 1405 Q847 1405 934 1386 z M1203 1267 Q1296 1202 1367 1112 Q978 999 692.5 711.5 Q407 424 296 35 Q203 107 141 197 Q253 583 536 868 Q819 1153 1203 1267 z M470 -67 Q585 289 849.5 555 Q1114 821 1469 939 Q1509 847 1523 744 Q1231 624 1007 399 Q783 174 664 -119 Q561 -105 470 -67 z M1536 -125 Q1343 -75 1169 -10 Q1034 -94 879 -117 Q988 88 1153 253.5 Q1318 419 1522 529 Q1501 377 1421 245 Q1486 70 1536 -125 z" pathLength="0" fill="White" transform="translate(1.142857, 1.072884E-06) scale(0.008928572, -0.008928572) translate(0, -1536)" />
</svg>