<!DOCTYPE svg PUBLIC "-//W3C//DTD SVG 1.1//EN" "http://www.w3.org/Graphics/SVG/1.1/DTD/svg11.dtd">
<svg xmlns="http://www.w3.org/2000/svg" xmlns:xlink="http://www.w3.org/1999/xlink" version="1.1" x="0" y="0" width="16" height="16" overflow="auto" preserveAspectRatio="xMidYMid" baseProfile="tiny" space="preserve">
  <path d="M1000 1102 L1037 1296 Q1042 1319 1028 1336 Q1014 1353 993 1353 L281 1353 Q258 1353 242.5 1336 Q227 1319 227 1299 L227 198 Q227 191 233 197 L524 549 Q547 575 562 582.5 Q577 590 610 590 L849 590 Q871 590 886 604.5 Q901 619 904 634 Q928 764 941 825 Q945 846 929.5 865 Q914 884 893 884 L599 884 Q570 884 551 903 Q532 922 532 951 L532 993 Q532 1022 551 1040.5 Q570 1059 599 1059 L945 1059 Q963 1059 980 1072.5 Q997 1086 1000 1102 z M1227 1324 Q1212 1251 1173.5 1057.5 Q1135 864 1104 707.5 Q1073 551 1069 534 Q1063 512 1060 501.5 Q1057 491 1046 469 Q1035 447 1021.5 436 Q1008 425 983 415 Q958 405 925 405 L654 405 Q641 405 632 395 Q624 386 206 -99 Q184 -124 147.5 -127.5 Q111 -131 99 -122 Q44 -100 44 -24 L44 1386 Q44 1441 82 1488.5 Q120 1536 202 1536 L1090 1536 Q1185 1536 1217 1483 Q1249 1430 1227 1324 z M1227 1324 L1069 534 Q1073 551 1104 707.5 Q1135 864 1173.5 1057.5 Q1212 1251 1227 1324 z" pathLength="0" fill="White" transform="translate(2.260417, 0.5632453) scale(0.008928572, -0.008928572) translate(0, -1536)" />
</svg>