<!DOCTYPE svg PUBLIC "-//W3C//DTD SVG 1.1//EN" "http://www.w3.org/Graphics/SVG/1.1/DTD/svg11.dtd">
<svg xmlns="http://www.w3.org/2000/svg" xmlns:xlink="http://www.w3.org/1999/xlink" version="1.1" x="0" y="0" width="16" height="16" overflow="auto" preserveAspectRatio="xMidYMid" baseProfile="tiny" space="preserve">
  <path d="M832 448 L832 576 Q832 590 823 599 Q814 608 800 608 L608 608 L608 800 Q608 814 599 823 Q590 832 576 832 L448 832 Q434 832 425 823 Q416 814 416 800 L416 608 L224 608 Q210 608 201 599 Q192 590 192 576 L192 448 Q192 434 201 425 Q210 416 224 416 L416 416 L416 224 Q416 210 425 201 Q434 192 448 192 L576 192 Q590 192 599 201 Q608 210 608 224 L608 416 L800 416 Q814 416 823 425 Q832 434 832 448 z M1408 384 Q1408 437 1370.5 474.5 Q1333 512 1280 512 Q1227 512 1189.5 474.5 Q1152 437 1152 384 Q1152 331 1189.5 293.5 Q1227 256 1280 256 Q1333 256 1370.5 293.5 Q1408 331 1408 384 z M1664 640 Q1664 693 1626.5 730.5 Q1589 768 1536 768 Q1483 768 1445.5 730.5 Q1408 693 1408 640 Q1408 587 1445.5 549.5 Q1483 512 1536 512 Q1589 512 1626.5 549.5 Q1664 587 1664 640 z M1920 512 Q1920 300 1770 150 Q1620 0 1408 0 Q1216 0 1070 128 L850 128 Q704 0 512 0 Q300 0 150 150 Q0 300 0 512 Q0 724 150 874 Q300 1024 512 1024 L1408 1024 Q1620 1024 1770 874 Q1920 724 1920 512 z" pathLength="0" fill="White" transform="translate(-0.5714283, -1.142857) scale(0.008928572, -0.008928572) translate(0, -1536)" />
</svg>