<!DOCTYPE svg PUBLIC "-//W3C//DTD SVG 1.1//EN" "http://www.w3.org/Graphics/SVG/1.1/DTD/svg11.dtd">
<svg xmlns="http://www.w3.org/2000/svg" xmlns:xlink="http://www.w3.org/1999/xlink" version="1.1" x="0" y="0" width="16" height="16" overflow="auto" preserveAspectRatio="xMidYMid" baseProfile="tiny" space="preserve">
  <path d="M1020 399 L1020 32 Q1020 18 1011 9 Q1002 0 988 0 L32 0 Q18 0 9 9 Q0 18 0 32 L0 182 Q0 195 9.5 204.5 Q19 214 32 214 L129 214 L129 597 L34 597 Q20 597 11 606.5 Q2 616 2 629 L2 760 Q2 774 11 783 Q20 792 34 792 L129 792 L129 1015 Q129 1186 252.5 1297 Q376 1408 567 1408 Q752 1408 902 1283 Q911 1275 912 1262.5 Q913 1250 905 1240 L802 1113 Q793 1102 780 1101 Q767 1099 757 1108 Q752 1113 731 1127 Q710 1141 662 1159 Q614 1177 569 1177 Q484 1177 432 1130 Q380 1083 380 1007 L380 792 L685 792 Q698 792 707.5 783 Q717 774 717 760 L717 629 Q717 616 707.5 606.5 Q698 597 685 597 L380 597 L380 218 L794 218 L794 399 Q794 412 803 421.5 Q812 431 826 431 L988 431 Q1002 431 1011 421.5 Q1020 412 1020 399 z" pathLength="0" fill="White" transform="translate(3.446429, 0.5714296) scale(0.008928572, -0.008928572) translate(0, -1536)" />
</svg>