<!DOCTYPE svg PUBLIC "-//W3C//DTD SVG 1.1//EN" "http://www.w3.org/Graphics/SVG/1.1/DTD/svg11.dtd">
<svg xmlns="http://www.w3.org/2000/svg" xmlns:xlink="http://www.w3.org/1999/xlink" version="1.1" x="0" y="0" width="16" height="16" overflow="auto" preserveAspectRatio="xMidYMid" baseProfile="tiny" space="preserve">
  <path d="M874 -102 L874 -168 Q666 -162 489 -58.5 Q312 45 206 217 L264 251 Q293 202 337 152 L402 209 Q550 41 770 -3 L753 -89 Q818 -101 874 -102 z M276 428 L193 400 Q215 340 242 288 L185 255 Q87 435 87 640 Q87 845 185 1025 L242 992 Q212 936 193 880 L275 852 Q240 752 240 640 Q240 531 276 428 z M1528 251 L1586 217 Q1480 45 1303 -58.5 Q1126 -162 918 -168 L918 -102 Q974 -101 1039 -89 L1022 -3 Q1242 41 1390 209 L1455 152 Q1499 202 1528 251 z M1377 805 L1144 725 Q1158 683 1158 640 Q1158 597 1144 555 L1376 475 Q1345 383 1278 306 L1093 468 Q1036 401 946 383 L994 142 Q942 132 896 132 Q850 132 798 142 L846 383 Q756 401 699 468 L514 306 Q447 383 416 475 L648 555 Q634 597 634 640 Q634 683 648 725 L415 805 Q448 898 514 974 L699 812 Q758 880 846 898 L798 1138 Q842 1148 896 1148 Q950 1148 994 1138 L946 898 Q1034 880 1093 812 L1278 974 Q1344 898 1377 805 z M874 1448 L874 1382 Q809 1380 753 1369 L770 1283 Q550 1241 402 1072 L337 1128 Q299 1086 264 1030 L207 1063 Q313 1235 489 1338.5 Q665 1442 874 1448 z M1705 640 Q1705 435 1607 255 L1550 288 Q1577 340 1599 400 L1516 428 Q1552 531 1552 640 Q1552 752 1517 852 L1599 880 Q1580 936 1550 992 L1607 1025 Q1705 845 1705 640 z M1585 1063 L1528 1030 Q1493 1086 1455 1128 L1390 1072 Q1242 1241 1022 1283 L1039 1369 Q983 1380 918 1382 L918 1448 Q1127 1442 1303 1338.5 Q1479 1235 1585 1063 z M1748 640 Q1748 813 1680.5 971 Q1613 1129 1499 1243 Q1385 1357 1227 1424.5 Q1069 1492 896 1492 Q723 1492 565 1424.5 Q407 1357 293 1243 Q179 1129 111.5 971 Q44 813 44 640 Q44 467 111.5 309 Q179 151 293 37 Q407 -77 565 -144.5 Q723 -212 896 -212 Q1069 -212 1227 -144.5 Q1385 -77 1499 37 Q1613 151 1680.5 309 Q1748 467 1748 640 z M1792 640 Q1792 458 1721 292 Q1650 126 1530 6 Q1410 -114 1244 -185 Q1078 -256 896 -256 Q714 -256 548 -185 Q382 -114 262 6 Q142 126 71 292 Q0 458 0 640 Q0 822 71 988 Q142 1154 262 1274 Q382 1394 548 1465 Q714 1536 896 1536 Q1078 1536 1244 1465 Q1410 1394 1530 1274 Q1650 1154 1721 988 Q1792 822 1792 640 z" pathLength="0" fill="White" transform="translate(0, 9.536743E-07) scale(0.008928572, -0.008928572) translate(0, -1536)" />
</svg>