<!DOCTYPE svg PUBLIC "-//W3C//DTD SVG 1.1//EN" "http://www.w3.org/Graphics/SVG/1.1/DTD/svg11.dtd">
<svg xmlns="http://www.w3.org/2000/svg" xmlns:xlink="http://www.w3.org/1999/xlink" version="1.1" x="0" y="0" width="16" height="16" overflow="auto" preserveAspectRatio="xMidYMid" baseProfile="tiny" space="preserve">
  <path d="M896 640 Q896 746 821 821 Q746 896 640 896 Q534 896 459 821 Q384 746 384 640 Q384 534 459 459 Q534 384 640 384 Q746 384 821 459 Q896 534 896 640 z M1664 128 Q1664 180 1626 218 Q1588 256 1536 256 Q1484 256 1446 218 Q1408 180 1408 128 Q1408 75 1445.5 37.5 Q1483 0 1536 0 Q1589 0 1626.5 37.5 Q1664 75 1664 128 z M1664 1152 Q1664 1204 1626 1242 Q1588 1280 1536 1280 Q1484 1280 1446 1242 Q1408 1204 1408 1152 Q1408 1099 1445.5 1061.5 Q1483 1024 1536 1024 Q1589 1024 1626.5 1061.5 Q1664 1099 1664 1152 z M1280 731 L1280 546 Q1280 536 1273 526.5 Q1266 517 1257 516 L1102 492 Q1091 457 1070 416 Q1104 368 1160 301 Q1167 291 1167 281 Q1167 269 1160 262 Q1137 232 1077.5 172.5 Q1018 113 999 113 Q988 113 978 120 L863 210 Q826 191 786 179 Q775 71 763 24 Q756 0 733 0 L547 0 Q536 0 527 7.5 Q518 15 517 25 L494 178 Q460 188 419 209 L301 120 Q294 113 281 113 Q270 113 260 121 Q116 254 116 281 Q116 290 123 300 Q133 314 164 353 Q195 392 211 414 Q188 458 176 496 L24 520 Q14 521 7 529.5 Q0 538 0 549 L0 734 Q0 744 7 753.5 Q14 763 23 764 L178 788 Q189 823 210 864 Q176 912 120 979 Q113 990 113 999 Q113 1011 120 1019 Q142 1049 202 1108 Q262 1167 281 1167 Q292 1167 302 1160 L417 1070 Q451 1088 494 1102 Q505 1210 517 1256 Q524 1280 547 1280 L733 1280 Q744 1280 753 1272.5 Q762 1265 763 1255 L786 1102 Q820 1092 861 1071 L979 1160 Q987 1167 999 1167 Q1010 1167 1020 1159 Q1164 1026 1164 999 Q1164 990 1157 980 Q1145 964 1115 926 Q1085 888 1070 866 Q1093 818 1104 784 L1256 761 Q1266 759 1273 750.5 Q1280 742 1280 731 z M1920 198 L1920 58 Q1920 42 1771 27 Q1759 0 1741 -25 Q1792 -138 1792 -163 Q1792 -167 1788 -170 Q1666 -241 1664 -241 Q1656 -241 1618 -194 Q1580 -147 1566 -126 Q1546 -128 1536 -128 Q1526 -128 1506 -126 Q1492 -147 1454 -194 Q1416 -241 1408 -241 Q1406 -241 1284 -170 Q1280 -167 1280 -163 Q1280 -138 1331 -25 Q1313 0 1301 27 Q1152 42 1152 58 L1152 198 Q1152 214 1301 229 Q1314 258 1331 281 Q1280 394 1280 419 Q1280 423 1284 426 Q1288 428 1319 446 Q1350 464 1378 480 Q1406 496 1408 496 Q1416 496 1454 449.5 Q1492 403 1506 382 Q1526 384 1536 384 Q1546 384 1566 382 Q1617 453 1658 494 L1664 496 Q1668 496 1788 426 Q1792 423 1792 419 Q1792 394 1741 281 Q1758 258 1771 229 Q1920 214 1920 198 z M1920 1222 L1920 1082 Q1920 1066 1771 1051 Q1759 1024 1741 999 Q1792 886 1792 861 Q1792 857 1788 854 Q1666 783 1664 783 Q1656 783 1618 830 Q1580 877 1566 898 Q1546 896 1536 896 Q1526 896 1506 898 Q1492 877 1454 830 Q1416 783 1408 783 Q1406 783 1284 854 Q1280 857 1280 861 Q1280 886 1331 999 Q1313 1024 1301 1051 Q1152 1066 1152 1082 L1152 1222 Q1152 1238 1301 1253 Q1314 1282 1331 1305 Q1280 1418 1280 1443 Q1280 1447 1284 1450 Q1288 1452 1319 1470 Q1350 1488 1378 1504 Q1406 1520 1408 1520 Q1416 1520 1454 1473.5 Q1492 1427 1506 1406 Q1526 1408 1536 1408 Q1546 1408 1566 1406 Q1617 1477 1658 1518 L1664 1520 Q1668 1520 1788 1450 Q1792 1447 1792 1443 Q1792 1418 1741 1305 Q1758 1282 1771 1253 Q1920 1238 1920 1222 z" pathLength="0" fill="White" transform="translate(-0.5714283, -0.004462793) scale(0.008928572, -0.008928572) translate(0, -1536)" />
</svg>