<!DOCTYPE svg PUBLIC "-//W3C//DTD SVG 1.1//EN" "http://www.w3.org/Graphics/SVG/1.1/DTD/svg11.dtd">
<svg xmlns="http://www.w3.org/2000/svg" xmlns:xlink="http://www.w3.org/1999/xlink" version="1.1" x="0" y="0" width="16" height="16" overflow="auto" preserveAspectRatio="xMidYMid" baseProfile="tiny" space="preserve">
  <path d="M1024 640 Q1024 746 949 821 Q874 896 768 896 Q662 896 587 821 Q512 746 512 640 Q512 534 587 459 Q662 384 768 384 Q874 384 949 459 Q1024 534 1024 640 z M1536 749 L1536 527 Q1536 515 1528 504 Q1520 493 1508 491 L1323 463 Q1304 409 1284 372 Q1319 322 1391 234 Q1401 222 1401 209 Q1401 196 1392 186 Q1365 149 1293 78 Q1221 7 1199 7 Q1187 7 1173 16 L1035 124 Q991 101 944 86 Q928 -50 915 -100 Q908 -128 879 -128 L657 -128 Q643 -128 632.5 -119.5 Q622 -111 621 -98 L593 86 Q544 102 503 123 L362 16 Q352 7 337 7 Q323 7 312 18 Q186 132 147 186 Q140 196 140 209 Q140 221 148 232 Q163 253 199 298.5 Q235 344 253 369 Q226 419 212 468 L29 495 Q16 497 8 507.5 Q0 518 0 531 L0 753 Q0 765 8 776 Q16 787 27 789 L213 817 Q227 863 252 909 Q212 966 145 1047 Q135 1059 135 1071 Q135 1081 144 1094 Q170 1130 242.5 1201.5 Q315 1273 337 1273 Q350 1273 363 1263 L501 1156 Q545 1179 592 1194 Q608 1330 621 1380 Q628 1408 657 1408 L879 1408 Q893 1408 903.5 1399.5 Q914 1391 915 1378 L943 1194 Q992 1178 1033 1157 L1175 1264 Q1184 1273 1199 1273 Q1212 1273 1224 1263 Q1353 1144 1389 1093 Q1396 1085 1396 1071 Q1396 1059 1388 1048 Q1373 1027 1337 981.5 Q1301 936 1283 911 Q1309 861 1324 813 L1507 785 Q1520 783 1528 772.5 Q1536 762 1536 749 z" pathLength="0" fill="White" transform="translate(1.142857, 1.311302E-06) scale(0.008928572, -0.008928572) translate(0, -1536)" />
</svg>