<!DOCTYPE svg PUBLIC "-//W3C//DTD SVG 1.1//EN" "http://www.w3.org/Graphics/SVG/1.1/DTD/svg11.dtd">
<svg xmlns="http://www.w3.org/2000/svg" xmlns:xlink="http://www.w3.org/1999/xlink" version="1.1" x="0" y="0" width="16" height="16" overflow="auto" preserveAspectRatio="xMidYMid" baseProfile="tiny" space="preserve">
  <path d="M717 182 L988 453 L709 732 L621 644 L813 453 L717 357 L438 636 L717 915 L757 875 L844 962 L717 1090 L263 636 z M1075 190 L1529 644 L1075 1098 L804 827 L1083 548 L1171 636 L979 827 L1075 923 L1354 644 L1075 365 L1035 405 L948 317 z M1792 640 Q1792 458 1721 292 Q1650 126 1530 6 Q1410 -114 1244 -185 Q1078 -256 896 -256 Q714 -256 548 -185 Q382 -114 262 6 Q142 126 71 292 Q0 458 0 640 Q0 822 71 988 Q142 1154 262 1274 Q382 1394 548 1465 Q714 1536 896 1536 Q1078 1536 1244 1465 Q1410 1394 1530 1274 Q1650 1154 1721 988 Q1792 822 1792 640 z" pathLength="0" fill="White" transform="translate(0, 9.536743E-07) scale(0.008928572, -0.008928572) translate(0, -1536)" />
</svg>