<!DOCTYPE svg PUBLIC "-//W3C//DTD SVG 1.1//EN" "http://www.w3.org/Graphics/SVG/1.1/DTD/svg11.dtd">
<svg xmlns="http://www.w3.org/2000/svg" xmlns:xlink="http://www.w3.org/1999/xlink" version="1.1" x="0" y="0" width="16" height="16" overflow="auto" preserveAspectRatio="xMidYMid" baseProfile="tiny" space="preserve">
  <path d="M928 180 L928 236 L928 704 L928 896 L608 896 L608 704 L608 236 L608 180 Q608 155 626 141.5 Q644 128 672 128 L864 128 Q892 128 910 141.5 Q928 155 928 180 z M472 1024 L667 1024 L541 1185 Q515 1216 472 1216 Q432 1216 404 1188 Q376 1160 376 1120 Q376 1080 404 1052 Q432 1024 472 1024 z M1160 1120 Q1160 1160 1132 1188 Q1104 1216 1064 1216 Q1021 1216 995 1185 L870 1024 L1064 1024 Q1104 1024 1132 1052 Q1160 1080 1160 1120 z M1536 864 L1536 544 Q1536 530 1527 521 Q1518 512 1504 512 L1408 512 L1408 96 Q1408 56 1380 28 Q1352 0 1312 0 L224 0 Q184 0 156 28 Q128 56 128 96 L128 512 L32 512 Q18 512 9 521 Q0 530 0 544 L0 864 Q0 878 9 887 Q18 896 32 896 L472 896 Q379 896 313.5 961.5 Q248 1027 248 1120 Q248 1213 313.5 1278.5 Q379 1344 472 1344 Q579 1344 640 1267 L768 1102 L896 1267 Q957 1344 1064 1344 Q1157 1344 1222.5 1278.5 Q1288 1213 1288 1120 Q1288 1027 1222.5 961.5 Q1157 896 1064 896 L1504 896 Q1518 896 1527 887 Q1536 878 1536 864 z" pathLength="0" fill="White" transform="translate(1.142857, 0.2857152) scale(0.008928572, -0.008928572) translate(0, -1536)" />
</svg>