<!DOCTYPE svg PUBLIC "-//W3C//DTD SVG 1.1//EN" "http://www.w3.org/Graphics/SVG/1.1/DTD/svg11.dtd">
<svg xmlns="http://www.w3.org/2000/svg" xmlns:xlink="http://www.w3.org/1999/xlink" version="1.1" x="0" y="0" width="16" height="16" overflow="auto" preserveAspectRatio="xMidYMid" baseProfile="tiny" space="preserve">
  <path d="M595 22 Q595 122 430 122 Q272 122 272 18 Q272 -83 444 -83 Q595 -83 595 22 z M536 777 Q536 838 506 879 Q476 920 417 920 Q293 920 293 775 Q293 640 417 640 Q536 640 536 777 z M805 1101 L805 899 Q769 887 726 877 Q742 834 742 793 Q742 666 669 576.5 Q596 487 472 464 Q432 456 412.5 437 Q393 418 393 379 Q393 348 415.5 327.5 Q438 307 473.5 295.5 Q509 284 552 273.5 Q595 263 638 248 Q681 233 716.5 210.5 Q752 188 774.5 146.5 Q797 105 797 48 Q797 -256 434 -256 Q365 -256 304 -243.5 Q243 -231 188 -202.5 Q133 -174 100.5 -120.5 Q68 -67 68 7 Q68 172 250 232 L250 236 Q183 277 183 362 Q183 471 246 499 L246 503 Q174 527 126.5 611.5 Q79 696 79 777 Q79 916 174 1008.5 Q269 1101 409 1101 Q505 1101 587 1054 Q685 1054 805 1101 z M1123 220 L901 220 Q905 265 905 354 L905 963 Q905 1057 901 1091 L1123 1091 Q1119 1058 1119 967 L1119 354 Q1119 265 1123 220 z M1724 442 L1724 246 Q1653 207 1550 207 Q1488 207 1443 227 Q1398 247 1373 277 Q1348 307 1333.5 355 Q1319 403 1315 447 Q1311 491 1311 550 L1311 901 L1313 901 L1313 905 Q1306 905 1294 906 Q1282 907 1276 907 Q1255 907 1217 901 L1217 1091 L1313 1091 L1313 1167 Q1313 1221 1307 1256 L1534 1256 Q1528 1215 1528 1091 L1699 1091 L1699 901 Q1684 901 1655.5 903 Q1627 905 1613 905 L1528 905 L1528 540 Q1528 409 1615 409 Q1676 409 1724 442 z M1148 1389 Q1148 1331 1109 1287.5 Q1070 1244 1013 1244 Q955 1244 915 1287.5 Q875 1331 875 1389 Q875 1448 914.5 1492 Q954 1536 1013 1536 Q1071 1536 1109.5 1491.5 Q1148 1447 1148 1389 z" pathLength="0" fill="White" transform="translate(5.364418E-07, 9.536743E-07) scale(0.008928572, -0.008928572) translate(0, -1536)" />
</svg>