<!DOCTYPE svg PUBLIC "-//W3C//DTD SVG 1.1//EN" "http://www.w3.org/Graphics/SVG/1.1/DTD/svg11.dtd">
<svg xmlns="http://www.w3.org/2000/svg" xmlns:xlink="http://www.w3.org/1999/xlink" version="1.1" x="0" y="0" width="16" height="16" overflow="auto" preserveAspectRatio="xMidYMid" baseProfile="tiny" space="preserve">
  <path d="M582 228 Q582 162 489 162 Q382 162 382 225 Q382 289 480 289 Q582 289 582 228 z M546 694 Q546 609 472 609 Q395 609 395 693 Q395 783 472 783 Q508 783 527 757.5 Q546 732 546 694 z M712 769 L712 894 Q634 865 577 865 Q527 894 467 894 Q381 894 322 837 Q263 780 263 694 Q263 644 292.5 592 Q322 540 366 525 L366 522 Q328 505 328 437 Q328 384 369 360 L369 357 Q256 320 256 218 Q256 173 276 139.5 Q296 106 330 88.5 Q364 71 402 63 Q440 55 483 55 Q707 55 707 243 Q707 310 659 342 Q611 374 533 388 Q506 393 481.5 408.5 Q457 424 457 448 Q457 492 506 500 Q583 515 628 570 Q673 625 673 704 Q673 728 663 756 Q700 765 712 769 z M771 350 L908 350 Q906 377 906 432 L906 819 Q906 865 908 888 L771 888 Q774 865 774 817 L774 425 Q774 375 771 350 z M1280 366 L1280 487 Q1250 466 1212 466 Q1159 466 1159 548 L1159 773 L1211 773 Q1220 773 1237.5 772 Q1255 771 1264 771 L1264 888 L1159 888 Q1159 970 1162 990 L1022 990 Q1026 966 1026 935 L1026 888 L966 888 L966 771 Q1002 774 1003 774 Q1006 774 1014 773.5 Q1022 773 1026 773 L1026 771 L1024 771 L1024 554 Q1024 517 1026.5 490 Q1029 463 1038 433.5 Q1047 404 1062.5 385 Q1078 366 1106 354 Q1134 342 1172 342 Q1236 342 1280 366 z M924 1072 Q924 1108 900 1135.5 Q876 1163 840 1163 Q804 1163 779.5 1136 Q755 1109 755 1072 Q755 1036 780 1009.5 Q805 983 840 983 Q875 983 899.5 1010 Q924 1037 924 1072 z M1536 1120 L1536 160 Q1536 41 1451.5 -43.5 Q1367 -128 1248 -128 L288 -128 Q169 -128 84.5 -43.5 Q0 41 0 160 L0 1120 Q0 1239 84.5 1323.5 Q169 1408 288 1408 L1248 1408 Q1367 1408 1451.5 1323.5 Q1536 1239 1536 1120 z" pathLength="0" fill="White" transform="translate(1.142857, 1.311302E-06) scale(0.008928572, -0.008928572) translate(0, -1536)" />
</svg>