<!DOCTYPE svg PUBLIC "-//W3C//DTD SVG 1.1//EN" "http://www.w3.org/Graphics/SVG/1.1/DTD/svg11.dtd">
<svg xmlns="http://www.w3.org/2000/svg" xmlns:xlink="http://www.w3.org/1999/xlink" version="1.1" x="0" y="0" width="16" height="16" overflow="auto" preserveAspectRatio="xMidYMid" baseProfile="tiny" space="preserve">
  <path d="M1536 640 Q1536 389 1389.5 188.5 Q1243 -12 1011 -89 Q984 -94 971.5 -82 Q959 -70 959 -52 L959 159 Q959 256 907 301 Q964 307 1009.5 319 Q1055 331 1103.5 358 Q1152 385 1184.5 424.5 Q1217 464 1237.5 529.5 Q1258 595 1258 680 Q1258 801 1179 886 Q1216 977 1171 1090 Q1143 1099 1090 1079 Q1037 1059 998 1035 L960 1011 Q867 1037 768 1037 Q669 1037 576 1011 Q560 1022 533.5 1038 Q507 1054 450 1076.5 Q393 1099 364 1090 Q320 977 357 886 Q278 801 278 680 Q278 595 298.5 530 Q319 465 351 425 Q383 385 431.5 358 Q480 331 525.5 319 Q571 307 628 301 Q588 265 579 198 Q558 188 534 183 Q510 178 477 178 Q444 178 411.5 199.5 Q379 221 356 262 Q337 294 307.5 314 Q278 334 258 338 L238 341 Q217 341 209 336.5 Q201 332 204 325 Q207 318 213 311 Q219 304 226 299 L233 294 Q255 284 276.5 256 Q298 228 308 205 L318 182 Q331 144 362 120.5 Q393 97 429 90.5 Q465 84 498.5 83.5 Q532 83 554 87 L577 91 Q577 53 577.5 2 Q578 -49 578 -52 Q578 -70 565 -82 Q552 -94 525 -89 Q293 -12 146.5 188.5 Q0 389 0 640 Q0 849 103 1025.5 Q206 1202 382.5 1305 Q559 1408 768 1408 Q977 1408 1153.5 1305 Q1330 1202 1433 1025.5 Q1536 849 1536 640 z" pathLength="0" fill="White" transform="translate(1.142857, 0.1592273) scale(0.008928572, -0.008928572) translate(0, -1536)" />
</svg>