<!DOCTYPE svg PUBLIC "-//W3C//DTD SVG 1.1//EN" "http://www.w3.org/Graphics/SVG/1.1/DTD/svg11.dtd">
<svg xmlns="http://www.w3.org/2000/svg" xmlns:xlink="http://www.w3.org/1999/xlink" version="1.1" x="0" y="0" width="16" height="16" overflow="auto" preserveAspectRatio="xMidYMid" baseProfile="tiny" space="preserve">
  <path d="M394 184 Q386 175 374 187 Q361 198 370 206 Q378 215 390 203 Q402 192 394 184 z M352 245 Q361 233 352 226 Q344 220 335 233 Q326 246 335 251 Q344 258 352 245 z M291 305 Q286 298 278 303 Q268 308 271 315 Q274 320 284 317 Q294 312 291 305 z M322 271 Q316 264 306 274 Q297 285 304 290 Q310 296 320 287 Q329 276 322 271 z M451 159 Q447 147 432 153 Q415 157 419 168 Q423 179 438 175 Q454 170 451 159 z M514 154 Q514 143 498 143 Q481 141 481 154 Q481 165 497 165 Q514 167 514 154 z M572 164 Q574 154 558 150 Q542 146 540 158 Q538 170 554 173 Q570 175 572 164 z M1536 1120 L1536 160 Q1536 41 1451.5 -43.5 Q1367 -128 1248 -128 L1024 -128 Q1008 -128 999.5 -127 Q991 -126 980 -122 Q969 -118 964 -107.5 Q959 -97 959 -80 L959 159 Q959 256 907 301 Q964 307 1009.5 319 Q1055 331 1103.5 358 Q1152 385 1184.5 424.5 Q1217 464 1237.5 529.5 Q1258 595 1258 680 Q1258 801 1179 886 Q1216 977 1171 1090 Q1143 1099 1090 1079 Q1037 1059 998 1035 L960 1011 Q867 1037 768 1037 Q669 1037 576 1011 Q560 1022 533.5 1038 Q507 1054 450 1076.5 Q393 1099 364 1090 Q320 977 357 886 Q278 801 278 680 Q278 595 298.5 530 Q319 465 351 425 Q383 385 431.5 358 Q480 331 525.5 319 Q571 307 628 301 Q588 265 579 198 Q558 188 534 183 Q510 178 477 178 Q444 178 411.5 199.5 Q379 221 356 262 Q337 294 307.5 314 Q278 334 258 338 L238 341 Q217 341 209 336.5 Q201 332 204 325 Q207 318 213 311 Q219 304 226 299 L233 294 Q255 284 276.5 256 Q298 228 308 205 L318 182 Q331 144 362 120.5 Q393 97 429 90.5 Q465 84 498.5 83.5 Q532 83 554 87 L577 91 Q577 53 577.5 -12 Q578 -77 578 -80 Q578 -102 567 -113.5 Q556 -125 545 -126.5 Q534 -128 512 -128 L288 -128 Q169 -128 84.5 -43.5 Q0 41 0 160 L0 1120 Q0 1239 84.5 1323.5 Q169 1408 288 1408 L1248 1408 Q1367 1408 1451.5 1323.5 Q1536 1239 1536 1120 z" pathLength="0" fill="White" transform="translate(1.142857, 1.311302E-06) scale(0.008928572, -0.008928572) translate(0, -1536)" />
</svg>