<!DOCTYPE svg PUBLIC "-//W3C//DTD SVG 1.1//EN" "http://www.w3.org/Graphics/SVG/1.1/DTD/svg11.dtd">
<svg xmlns="http://www.w3.org/2000/svg" xmlns:xlink="http://www.w3.org/1999/xlink" version="1.1" x="0" y="0" width="16" height="16" overflow="auto" preserveAspectRatio="xMidYMid" baseProfile="tiny" space="preserve">
  <path d="M640 320 Q640 280 627.5 238 Q615 196 584.5 162 Q554 128 512 128 Q470 128 439.5 162 Q409 196 396.5 238 Q384 280 384 320 Q384 360 396.5 402 Q409 444 439.5 478 Q470 512 512 512 Q554 512 584.5 478 Q615 444 627.5 402 Q640 360 640 320 z M1280 320 Q1280 280 1267.5 238 Q1255 196 1224.5 162 Q1194 128 1152 128 Q1110 128 1079.5 162 Q1049 196 1036.5 238 Q1024 280 1024 320 Q1024 360 1036.5 402 Q1049 444 1079.5 478 Q1110 512 1152 512 Q1194 512 1224.5 478 Q1255 444 1267.5 402 Q1280 360 1280 320 z M1440 320 Q1440 440 1371 524 Q1302 608 1184 608 Q1143 608 989 587 Q918 576 832 576 Q746 576 675 587 Q523 608 480 608 Q362 608 293 524 Q224 440 224 320 Q224 232 256 166.5 Q288 101 337 63.5 Q386 26 459 3.5 Q532 -19 599 -26 Q666 -33 748 -33 L916 -33 Q998 -33 1065 -26 Q1132 -19 1205 3.5 Q1278 26 1327 63.5 Q1376 101 1408 166.5 Q1440 232 1440 320 z M1664 496 Q1664 289 1603 165 Q1565 88 1497.5 32 Q1430 -24 1356.5 -54 Q1283 -84 1186.5 -101.5 Q1090 -119 1015 -123.5 Q940 -128 848 -128 Q770 -128 706 -125 Q642 -122 558.5 -112.5 Q475 -103 406 -82.5 Q337 -62 269 -31 Q201 0 148 50 Q95 100 62 165 Q0 288 0 496 Q0 733 136 892 Q109 974 109 1062 Q109 1178 160 1280 Q268 1280 350 1240.5 Q432 1201 539 1117 Q686 1152 848 1152 Q996 1152 1128 1120 Q1233 1202 1315 1241 Q1397 1280 1504 1280 Q1555 1178 1555 1062 Q1555 975 1528 894 Q1664 734 1664 496 z" pathLength="0" fill="White" transform="translate(0.5714283, -0.5714276) scale(0.008928572, -0.008928572) translate(0, -1536)" />
</svg>