<!DOCTYPE svg PUBLIC "-//W3C//DTD SVG 1.1//EN" "http://www.w3.org/Graphics/SVG/1.1/DTD/svg11.dtd">
<svg xmlns="http://www.w3.org/2000/svg" xmlns:xlink="http://www.w3.org/1999/xlink" version="1.1" x="0" y="0" width="16" height="16" overflow="auto" preserveAspectRatio="xMidYMid" baseProfile="tiny" space="preserve">
  <path d="M768 1408 Q977 1408 1153.5 1305 Q1330 1202 1433 1025.5 Q1536 849 1536 640 Q1536 431 1433 254.5 Q1330 78 1153.5 -25 Q977 -128 768 -128 Q559 -128 382.5 -25 Q206 78 103 254.5 Q0 431 0 640 Q0 849 103 1025.5 Q206 1202 382.5 1305 Q559 1408 768 1408 z M1042 887 Q1040 886 1032.5 877.5 Q1025 869 1019 868 Q1021 868 1023.5 873 Q1026 878 1028.5 884 Q1031 890 1032 891 Q1038 898 1054 906 Q1068 912 1106 918 Q1140 926 1157 907 Q1155 909 1166.5 920 Q1178 931 1181 932 Q1184 934 1196 936.5 Q1208 939 1211 944 L1213 966 Q1201 965 1195.5 973 Q1190 981 1189 994 Q1189 992 1183 986 Q1183 993 1178.5 994 Q1174 995 1167 993 Q1160 991 1158 992 Q1148 995 1143 999.5 Q1138 1004 1135 1016 Q1132 1028 1131 1031 Q1129 1036 1121.5 1041.5 Q1114 1047 1112 1052 Q1111 1054 1109.5 1057.5 Q1108 1061 1106.5 1064 Q1105 1067 1102.5 1069.5 Q1100 1072 1097 1072 Q1094 1072 1090 1067 Q1086 1062 1082.5 1057 Q1079 1052 1078 1052 Q1075 1054 1072 1053.5 Q1069 1053 1067.5 1052.5 Q1066 1052 1063 1049.5 Q1060 1047 1058 1046 Q1055 1044 1049.5 1043 Q1044 1042 1041 1041 Q1056 1046 1040 1052 Q1030 1056 1024 1055 Q1033 1059 1031.5 1067 Q1030 1075 1023 1081 L1028 1081 Q1027 1085 1019.5 1089.5 Q1012 1094 1002 1098 Q992 1102 989 1104 Q981 1109 955 1113.5 Q929 1118 922 1114 Q917 1108 917.5 1103.5 Q918 1099 921.5 1089.5 Q925 1080 925 1077 Q926 1071 919.5 1064 Q913 1057 913 1052 Q913 1045 927 1036.5 Q941 1028 937 1015 Q934 1007 921 999 Q908 991 905 987 Q900 979 903.5 968.5 Q907 958 914 952 Q916 950 915.5 948 Q915 946 912 943.5 Q909 941 906.5 939.5 Q904 938 900 936 L897 934 Q886 929 876.5 940 Q867 951 863 966 Q856 991 847 996 Q824 1004 818 995 Q813 1008 777 1021 Q752 1030 719 1025 Q725 1026 719 1040 Q712 1055 700 1052 Q703 1058 704 1069.5 Q705 1081 705 1083 Q708 1096 717 1106 Q718 1107 724 1114.5 Q730 1122 733.5 1128 Q737 1134 734 1134 Q769 1130 784 1145 Q789 1150 795.5 1162 Q802 1174 806 1179 Q815 1185 820 1184.5 Q825 1184 834.5 1179 Q844 1174 849 1174 Q863 1173 864.5 1185 Q866 1197 857 1205 Q869 1204 860 1222 Q855 1229 852 1231 Q840 1235 825 1226 Q817 1222 827 1218 Q826 1219 817.5 1207.5 Q809 1196 801 1190 Q793 1184 785 1195 Q784 1196 779.5 1208.5 Q775 1221 770 1222 Q762 1222 754 1207 Q757 1215 743 1222 Q729 1229 719 1230 Q738 1242 711 1257 Q704 1261 690.5 1262 Q677 1263 671 1258 Q666 1251 665.5 1246.5 Q665 1242 670.5 1238.5 Q676 1235 681 1233 Q686 1231 692.5 1229 Q699 1227 701 1226 Q715 1216 709 1212 Q707 1211 700.5 1208.5 Q694 1206 689 1204 Q684 1202 683 1200 Q680 1196 683 1186 Q686 1176 681 1172 Q676 1177 672 1189.5 Q668 1202 665 1206 Q672 1197 640 1200 L630 1201 Q626 1201 614 1199 Q602 1197 593.5 1198 Q585 1199 580 1206 Q576 1214 580 1226 Q581 1230 584 1228 Q580 1231 573 1237.5 Q566 1244 563 1246 Q517 1231 469 1205 Q475 1204 481 1206 Q486 1208 494 1212.5 Q502 1217 504 1218 Q538 1232 546 1225 L551 1230 Q565 1214 571 1205 Q564 1209 541 1206 Q521 1200 519 1194 Q526 1182 524 1176 Q520 1179 512.5 1186 Q505 1193 498 1197 Q491 1201 483 1202 Q467 1202 461 1201 Q315 1121 226 979 Q233 972 238 971 Q242 970 243 962 Q244 954 245.5 951 Q247 948 257 954 Q266 946 260 935 Q261 936 304 908 Q323 891 325 887 Q328 876 315 869 Q314 871 306 878 Q298 885 297 882 Q294 877 297.5 863.5 Q301 850 308 851 Q301 851 298.5 835 Q296 819 296 799.5 Q296 780 295 776 L297 775 Q294 763 302.5 740.5 Q311 718 324 721 Q311 718 344 678 Q350 670 352 669 Q355 667 364 661.5 Q373 656 379 651.5 Q385 647 389 641 Q393 636 399 618.5 Q405 601 413 595 Q411 589 422.5 575 Q434 561 433 552 Q432 552 430.5 551 Q429 550 428 550 Q431 543 443.5 536 Q456 529 459 523 Q460 520 461 513 Q462 506 464 502 Q466 498 472 500 Q474 520 448 562 Q433 587 431 591 Q428 596 425.5 606.5 Q423 617 421 621 Q423 621 427 619.5 Q431 618 435.5 616 Q440 614 443 612 Q446 610 445 609 Q442 602 447 591.5 Q452 581 459 573 Q466 565 476 554 Q486 543 488 541 Q494 535 502 521.5 Q510 508 502 508 Q511 508 522 498 Q533 488 539 478 Q544 470 547 452 Q550 434 552 428 Q554 421 560.5 414.5 Q567 408 573 405 L589 397 Q589 397 602 390 Q607 388 620.5 379.5 Q634 371 642 368 Q652 364 658 364 Q664 364 672.5 366.5 Q681 369 686 370 Q701 372 715 355 Q729 338 736 334 Q772 315 791 323 Q789 322 791.5 315.5 Q794 309 799.5 300 Q805 291 808.5 285.5 Q812 280 814 277 Q819 271 832 262 Q845 253 850 247 Q856 251 857 256 Q854 248 864 236 Q874 224 882 226 Q896 229 896 258 Q865 243 847 276 Q847 277 844.5 281.5 Q842 286 840.5 290 Q839 294 838 298.5 Q837 303 838 306 Q839 309 843 309 Q852 309 853 312.5 Q854 316 851 325 Q848 334 847 338 Q846 346 836 358 Q826 370 824 373 Q819 364 808 365 Q797 366 792 374 Q792 373 790.5 368.5 Q789 364 789 362 Q776 362 774 363 Q775 366 776.5 380.5 Q778 395 780 403 Q781 407 785.5 415 Q790 423 793 429.5 Q796 436 797 442 Q798 448 792.5 451.5 Q787 455 775 454 Q756 453 749 434 Q748 431 746 423.5 Q744 416 741 412 Q738 408 732 405 Q725 402 708 403 Q691 404 684 408 Q671 416 661.5 437 Q652 458 652 474 Q652 484 654.5 500.5 Q657 517 657.5 525.5 Q658 534 652 550 Q655 552 661 559.5 Q667 567 671 570 Q673 571 675.5 571.5 Q678 572 680 571.5 Q682 571 684 573 Q686 575 687 579 Q686 580 683 582 Q680 585 679 585 Q686 582 707.5 586.5 Q729 591 735 585 Q750 574 757 587 Q757 588 754.5 596.5 Q752 605 754 610 Q759 583 783 601 Q786 598 798.5 596 Q811 594 816 591 Q819 589 823 585.5 Q827 582 828.5 581 Q830 580 833.5 581.5 Q837 583 842 588 Q852 574 854 564 Q865 524 873 520 Q880 517 884 518 Q888 519 888.5 527.5 Q889 536 888.5 541.5 Q888 547 887 554 L886 562 L886 580 L885 588 Q870 591 866.5 600 Q863 609 868 618.5 Q873 628 883 637 Q884 638 891 640.5 Q898 643 906.5 647 Q915 651 919 655 Q940 674 934 690 Q941 690 945 699 Q944 699 940 702 Q936 705 932.5 707 Q929 709 928 709 Q937 714 930 725 Q935 728 937.5 736 Q940 744 945 746 Q954 734 966 744 Q973 752 967 760 Q972 767 987.5 770.5 Q1003 774 1006 780 Q1013 778 1014 782 Q1015 786 1015 794 Q1015 802 1018 806 Q1022 811 1033 815 Q1044 819 1046 820 L1063 831 Q1066 835 1063 835 Q1081 833 1094 846 Q1104 857 1088 866 Q1091 872 1085 875.5 Q1079 879 1070 881 Q1073 882 1081.5 881.5 Q1090 881 1092 883 Q1107 893 1085 899 Q1068 904 1042 887 z M879 10 Q1085 46 1230 199 Q1227 202 1217.5 203.5 Q1208 205 1205 207 Q1187 214 1181 215 Q1182 222 1178.5 228 Q1175 234 1170.5 237 Q1166 240 1158 245 Q1150 250 1147 252 Q1145 254 1140 258 Q1135 262 1133 263.5 Q1131 265 1125.5 268 Q1120 271 1117 270 Q1114 269 1107 269 L1104 268 Q1101 267 1098.5 265.5 Q1096 264 1093 262.5 Q1090 261 1089 259.5 Q1088 258 1089 257 Q1068 274 1053 279 Q1048 280 1042 284.5 Q1036 289 1031.5 291.5 Q1027 294 1021.5 293 Q1016 292 1010 286 Q1005 281 1004 271 Q1003 261 1002 258 Q995 263 1002 275.5 Q1009 288 1004 294 Q1001 300 993.5 298.5 Q986 297 981.5 294 Q977 291 970 285.5 Q963 280 961 279 Q959 278 952.5 273.5 Q946 269 944 266 Q941 262 938 254 Q935 246 933 243 Q931 247 921.5 249.5 Q912 252 912 255 Q914 245 916 220 Q918 195 921 182 Q928 151 909 134 Q882 109 880 94 Q876 72 892 68 Q892 61 884 47.5 Q876 34 877 26 Q877 20 879 10 z" pathLength="0" fill="White" transform="translate(1.142857, 1.311302E-06) scale(0.008928572, -0.008928572) translate(0, -1536)" />
</svg>