<!DOCTYPE svg PUBLIC "-//W3C//DTD SVG 1.1//EN" "http://www.w3.org/Graphics/SVG/1.1/DTD/svg11.dtd">
<svg xmlns="http://www.w3.org/2000/svg" xmlns:xlink="http://www.w3.org/1999/xlink" version="1.1" x="0" y="0" width="16" height="16" overflow="auto" preserveAspectRatio="xMidYMid" baseProfile="tiny" space="preserve">
  <path d="M981 197 Q981 222 974 246 Q967 270 959.5 288 Q952 306 932.5 329.5 Q913 353 903 364.5 Q893 376 864.5 399 Q836 422 828 428 Q820 434 786.5 458 Q753 482 750 484 Q734 486 701 486 Q648 486 596.5 479 Q545 472 489.5 454 Q434 436 392.5 408 Q351 380 324 333.5 Q297 287 297 228 Q297 172 320.5 126 Q344 80 381.5 50.5 Q419 21 468.5 0.5 Q518 -20 568.5 -28.5 Q619 -37 670 -37 Q728 -37 781.5 -24 Q835 -11 880.5 15 Q926 41 953.5 88 Q981 135 981 197 z M864 1055 Q864 1114 847 1180.5 Q830 1247 799 1309.5 Q768 1372 715 1413 Q662 1454 598 1454 Q556 1454 515.5 1434.5 Q475 1415 449 1382 Q403 1323 403 1222 Q403 1176 413 1124.5 Q423 1073 444.5 1021.5 Q466 970 496.5 929 Q527 888 571.5 862 Q616 836 668 836 Q705 836 745.5 852.5 Q786 869 811 896 Q864 952 864 1055 z M752 1536 L1169 1536 L1032 1448 L900 1448 Q975 1385 1013 1315 Q1051 1245 1051 1155 Q1051 1083 1026.5 1025.5 Q1002 968 967 932.5 Q932 897 897.5 867.5 Q863 838 838.5 806 Q814 774 814 740 Q814 704 846 669.5 Q878 635 923 601.5 Q968 568 1013.5 528 Q1059 488 1091 424 Q1123 360 1123 282 Q1123 191 1074 109 Q1003 -13 864.5 -70.5 Q726 -128 566 -128 Q434 -128 319.5 -86.5 Q205 -45 147 51 Q111 110 111 182 Q111 263 155.5 332 Q200 401 274 447 Q405 529 678 547 Q646 588 630.5 620.5 Q615 653 615 694 Q615 734 636 779 Q590 775 568 775 Q420 775 318.5 871.5 Q217 968 217 1116 Q217 1198 253 1275 Q289 1352 352 1406 Q428 1472 534 1504 Q640 1536 752 1536 z" pathLength="0" fill="White" transform="translate(2.285715, 0.5714297) scale(0.008928572, -0.008928572) translate(0, -1536)" />
</svg>