<!DOCTYPE svg PUBLIC "-//W3C//DTD SVG 1.1//EN" "http://www.w3.org/Graphics/SVG/1.1/DTD/svg11.dtd">
<svg xmlns="http://www.w3.org/2000/svg" xmlns:xlink="http://www.w3.org/1999/xlink" version="1.1" x="0" y="0" width="16" height="16" overflow="auto" preserveAspectRatio="xMidYMid" baseProfile="tiny" space="preserve">
  <path d="M829 318 Q829 242 770.5 205.5 Q712 169 631 169 Q590 169 550.5 178.5 Q511 188 475 207 Q439 226 417 260 Q395 294 395 338 Q395 384 420 418 Q445 452 485.5 469.5 Q526 487 567.5 494.5 Q609 502 652 502 Q672 502 683 500 Q685 499 706 483.5 Q727 468 732 464.5 Q737 461 755 446.5 Q773 432 779.5 424.5 Q786 417 798.5 402 Q811 387 815.5 376 Q820 365 824.5 349.5 Q829 334 829 318 z M755 863 Q755 803 722 763.5 Q689 724 630 724 Q577 724 537 766.5 Q497 809 479.5 863 Q462 917 462 969 Q462 1030 494 1073 Q526 1116 586 1116 Q639 1116 679.5 1071 Q720 1026 737.5 970 Q755 914 755 863 z M861 1120 L949 1184 L684 1184 Q599 1184 523 1152 Q447 1120 395.5 1054 Q344 988 344 901 Q344 808 408.5 746.5 Q473 685 567 685 Q589 685 610 688 Q597 659 597 634 Q597 590 637 540 Q462 528 380 477 Q333 448 304.5 404 Q276 360 276 309 Q276 266 294.5 231.5 Q313 197 343 175 Q373 153 412 138 Q451 123 489.5 117 Q528 111 566 111 Q626 111 686.5 126.5 Q747 142 800 172.5 Q853 203 886 255 Q919 307 919 372 Q919 421 899 461.5 Q879 502 850 528 Q821 554 792 575.5 Q763 597 743 619.5 Q723 642 723 664 Q723 686 738.5 706.5 Q754 727 776 746 Q798 765 820 788 Q842 811 857.5 847.5 Q873 884 873 930 Q873 990 850.5 1029.5 Q828 1069 778 1120 L861 1120 z M1152 672 L1280 672 L1280 736 L1152 736 L1152 864 L1088 864 L1088 736 L960 736 L960 672 L1088 672 L1088 512 L1152 512 L1152 672 z M1536 1120 L1536 160 Q1536 41 1451.5 -43.5 Q1367 -128 1248 -128 L288 -128 Q169 -128 84.5 -43.5 Q0 41 0 160 L0 1120 Q0 1239 84.5 1323.5 Q169 1408 288 1408 L1248 1408 Q1367 1408 1451.5 1323.5 Q1536 1239 1536 1120 z" pathLength="0" fill="White" transform="translate(1.142857, 1.311302E-06) scale(0.008928572, -0.008928572) translate(0, -1536)" />
</svg>