<!DOCTYPE svg PUBLIC "-//W3C//DTD SVG 1.1//EN" "http://www.w3.org/Graphics/SVG/1.1/DTD/svg11.dtd">
<svg xmlns="http://www.w3.org/2000/svg" xmlns:xlink="http://www.w3.org/1999/xlink" version="1.1" x="0" y="0" width="16" height="16" overflow="auto" preserveAspectRatio="xMidYMid" baseProfile="tiny" space="preserve">
  <path d="M735 740 Q735 704 767 669.5 Q799 635 844.5 601.5 Q890 568 935 528 Q980 488 1012 424 Q1044 360 1044 282 Q1044 192 996 109 Q924 -13 785 -70.5 Q646 -128 487 -128 Q355 -128 240.5 -86.5 Q126 -45 69 51 Q32 111 32 182 Q32 263 76.5 332 Q121 401 195 447 Q326 529 599 547 Q567 589 551.5 621 Q536 653 536 694 Q536 730 557 779 Q511 775 489 775 Q341 775 239.5 871.5 Q138 968 138 1116 Q138 1198 174 1275 Q210 1352 273 1406 Q350 1472 455.5 1504 Q561 1536 673 1536 L1091 1536 L953 1448 L822 1448 Q896 1385 934 1315 Q972 1245 972 1155 Q972 1083 947.5 1025.5 Q923 968 888.5 932.5 Q854 897 819 867.5 Q784 838 759.5 806 Q735 774 735 740 z M589 836 Q627 836 667 852.5 Q707 869 733 896 Q786 953 786 1055 Q786 1113 769 1180 Q752 1247 720.5 1309.5 Q689 1372 636 1413 Q583 1454 519 1454 Q477 1454 436.5 1434.5 Q396 1415 371 1382 Q324 1323 324 1222 Q324 1176 334 1124.5 Q344 1073 365.5 1021.5 Q387 970 417.5 929 Q448 888 492.5 862 Q537 836 589 836 z M591 -37 Q649 -37 702.5 -24 Q756 -11 801.5 15 Q847 41 874.5 88 Q902 135 902 197 Q902 222 895 246 Q888 270 880.5 288 Q873 306 853.5 329.5 Q834 353 824 364.5 Q814 376 785.5 399 Q757 422 749 428 Q741 434 707.5 458 Q674 482 671 484 Q655 486 623 486 Q570 486 518 479 Q466 472 410.5 454 Q355 436 313.5 408 Q272 380 245 333.5 Q218 287 218 228 Q218 158 253 104.5 Q288 51 344.5 21.5 Q401 -8 463.5 -22.5 Q526 -37 591 -37 z M1401 839 L1614 839 L1614 731 L1401 731 L1401 512 L1296 512 L1296 731 L1084 731 L1084 839 L1296 839 L1296 1056 L1401 1056 L1401 839 z" pathLength="0" fill="White" transform="translate(0.6517867, 0.5714297) scale(0.008928572, -0.008928572) translate(0, -1536)" />
</svg>