<!DOCTYPE svg PUBLIC "-//W3C//DTD SVG 1.1//EN" "http://www.w3.org/Graphics/SVG/1.1/DTD/svg11.dtd">
<svg xmlns="http://www.w3.org/2000/svg" xmlns:xlink="http://www.w3.org/1999/xlink" version="1.1" x="0" y="0" width="16" height="16" overflow="auto" preserveAspectRatio="xMidYMid" baseProfile="tiny" space="preserve">
  <path d="M602 949 Q621 888 633 825.5 Q645 763 650 684 Q655 605 636 525 Q617 445 574 380 Q553 461 507 537 Q461 613 411.5 664 Q362 715 312.5 754.5 Q263 794 234 812 Q205 830 201 831 Q139 865 119.5 931 Q100 997 134 1059 Q168 1121 235 1140.5 Q302 1160 364 1126 Q502 1043 602 949 z M927 1236 Q938 1211 947.5 1190 Q957 1169 984 1089.5 Q1011 1010 1026.5 939 Q1042 868 1052 759.5 Q1062 651 1052 554 Q1042 457 1004.5 344.5 Q967 232 899 136 Q848 64 761 64 Q707 64 663 95 Q606 135 594 204 Q582 273 622 331 Q682 416 703 526 Q724 636 716 725.5 Q708 815 684 906 Q660 997 645 1034 Q630 1071 623 1086 Q592 1149 614.5 1215.5 Q637 1282 700 1313 Q734 1330 775 1330 Q822 1330 863.5 1305 Q905 1280 927 1236 z M1248 567 Q1231 407 1176 256 Q1159 387 1113 502 Q1138 676 1108 863 Q1081 1041 1014 1205 Q1128 1115 1226 994 Q1235 957 1241 914 Q1267 735 1248 567 z M1520 1440 Q1529 1423 1543.5 1390.5 Q1558 1358 1587 1273 Q1616 1188 1637.5 1095 Q1659 1002 1671.5 867.5 Q1684 733 1676.5 598.5 Q1669 464 1629.5 298.5 Q1590 133 1517 -25 Q1495 -73 1451 -100.5 Q1407 -128 1356 -128 Q1317 -128 1282 -112 Q1215 -81 1189.5 -12 Q1164 57 1194 124 Q1252 250 1284 381.5 Q1316 513 1321.5 621 Q1327 729 1318 834.5 Q1309 940 1291.5 1015 Q1274 1090 1253 1153.5 Q1232 1217 1220.5 1243.5 Q1209 1270 1205 1276 Q1171 1341 1193.5 1411.5 Q1216 1482 1281 1516 Q1318 1536 1362 1536 Q1411 1536 1453.5 1510.5 Q1496 1485 1520 1440 z" pathLength="0" fill="White" transform="translate(0.01785761, 0.5714297) scale(0.008928572, -0.008928572) translate(0, -1536)" />
</svg>