<!DOCTYPE svg PUBLIC "-//W3C//DTD SVG 1.1//EN" "http://www.w3.org/Graphics/SVG/1.1/DTD/svg11.dtd">
<svg xmlns="http://www.w3.org/2000/svg" xmlns:xlink="http://www.w3.org/1999/xlink" version="1.1" x="0" y="0" width="16" height="16" overflow="auto" preserveAspectRatio="xMidYMid" baseProfile="tiny" space="preserve">
  <path d="M593 640 Q431 635 328 512 L194 512 Q112 512 56 552.5 Q0 593 0 671 Q0 1024 124 1024 Q130 1024 167.5 1003 Q205 982 265 960.5 Q325 939 384 939 Q451 939 517 962 Q512 925 512 896 Q512 757 593 640 z M1664 3 Q1664 -117 1591 -186.5 Q1518 -256 1397 -256 L523 -256 Q402 -256 329 -186.5 Q256 -117 256 3 Q256 56 259.5 106.5 Q263 157 273.5 215.5 Q284 274 300 324 Q316 374 343 421.5 Q370 469 405 502.5 Q440 536 490.5 556 Q541 576 602 576 Q612 576 645 554.5 Q678 533 718 506.5 Q758 480 825 458.5 Q892 437 960 437 Q1028 437 1095 458.5 Q1162 480 1202 506.5 Q1242 533 1275 554.5 Q1308 576 1318 576 Q1379 576 1429.5 556 Q1480 536 1515 502.5 Q1550 469 1577 421.5 Q1604 374 1620 324 Q1636 274 1646.5 215.5 Q1657 157 1660.5 106.5 Q1664 56 1664 3 z M640 1280 Q640 1174 565 1099 Q490 1024 384 1024 Q278 1024 203 1099 Q128 1174 128 1280 Q128 1386 203 1461 Q278 1536 384 1536 Q490 1536 565 1461 Q640 1386 640 1280 z M1344 896 Q1344 737 1231.5 624.5 Q1119 512 960 512 Q801 512 688.5 624.5 Q576 737 576 896 Q576 1055 688.5 1167.5 Q801 1280 960 1280 Q1119 1280 1231.5 1167.5 Q1344 1055 1344 896 z M1920 671 Q1920 593 1864 552.5 Q1808 512 1726 512 L1592 512 Q1489 635 1327 640 Q1408 757 1408 896 Q1408 925 1403 962 Q1469 939 1536 939 Q1595 939 1655 960.5 Q1715 982 1752.5 1003 Q1790 1024 1796 1024 Q1920 1024 1920 671 z M1792 1280 Q1792 1174 1717 1099 Q1642 1024 1536 1024 Q1430 1024 1355 1099 Q1280 1174 1280 1280 Q1280 1386 1355 1461 Q1430 1536 1536 1536 Q1642 1536 1717 1461 Q1792 1386 1792 1280 z" pathLength="0" fill="White" transform="translate(-0.5714283, 9.536743E-07) scale(0.008928572, -0.008928572) translate(0, -1536)" />
</svg>