<!DOCTYPE svg PUBLIC "-//W3C//DTD SVG 1.1//EN" "http://www.w3.org/Graphics/SVG/1.1/DTD/svg11.dtd">
<svg xmlns="http://www.w3.org/2000/svg" xmlns:xlink="http://www.w3.org/1999/xlink" version="1.1" x="0" y="0" width="16" height="16" overflow="auto" preserveAspectRatio="xMidYMid" baseProfile="tiny" space="preserve">
  <path d="M1280 192 L1280 1088 Q1280 1114 1261 1133 Q1242 1152 1216 1152 L1088 1152 Q1062 1152 1043 1133 Q1024 1114 1024 1088 L1024 768 L512 768 L512 1088 Q512 1114 493 1133 Q474 1152 448 1152 L320 1152 Q294 1152 275 1133 Q256 1114 256 1088 L256 192 Q256 166 275 147 Q294 128 320 128 L448 128 Q474 128 493 147 Q512 166 512 192 L512 512 L1024 512 L1024 192 Q1024 166 1043 147 Q1062 128 1088 128 L1216 128 Q1242 128 1261 147 Q1280 166 1280 192 z M1536 1120 L1536 160 Q1536 41 1451.5 -43.5 Q1367 -128 1248 -128 L288 -128 Q169 -128 84.5 -43.5 Q0 41 0 160 L0 1120 Q0 1239 84.5 1323.5 Q169 1408 288 1408 L1248 1408 Q1367 1408 1451.5 1323.5 Q1536 1239 1536 1120 z" pathLength="0" fill="White" transform="translate(1.142857, 1.311302E-06) scale(0.008928572, -0.008928572) translate(0, -1536)" />
</svg>