<!DOCTYPE svg PUBLIC "-//W3C//DTD SVG 1.1//EN" "http://www.w3.org/Graphics/SVG/1.1/DTD/svg11.dtd">
<svg xmlns="http://www.w3.org/2000/svg" xmlns:xlink="http://www.w3.org/1999/xlink" version="1.1" x="0" y="0" width="16" height="16" overflow="auto" preserveAspectRatio="xMidYMid" baseProfile="tiny" space="preserve">
  <path d="M256 192 Q256 218 237 237 Q218 256 192 256 Q166 256 147 237 Q128 218 128 192 Q128 166 147 147 Q166 128 192 128 Q218 128 237 147 Q256 166 256 192 z M1664 768 Q1664 819 1625 857.5 Q1586 896 1536 896 L960 896 Q960 916 975 944.5 Q990 973 1008 999.5 Q1026 1026 1041 1067.5 Q1056 1109 1056 1152 Q1056 1219 1011.5 1249.5 Q967 1280 896 1280 Q872 1280 806 1141 Q782 1097 769 1076 Q729 1012 657 931 Q586 850 556 825 Q487 768 416 768 L384 768 L384 128 L416 128 Q488 128 583 96 Q678 64 776.5 32 Q875 0 956 0 Q1145 0 1145 167 Q1145 193 1140 223 Q1170 239 1187.5 275.5 Q1205 312 1205 349 Q1205 386 1187 418 Q1240 468 1240 537 Q1240 562 1230 592.5 Q1220 623 1205 640 L1536 640 Q1588 640 1626 678 Q1664 716 1664 768 z M1792 769 Q1792 664 1716.5 588 Q1641 512 1536 512 L1367 512 Q1363 450 1330 393 Q1333 372 1333 350 Q1333 249 1273 172 Q1274 33 1188 -47.5 Q1102 -128 961 -128 Q828 -128 639 -59 Q475 0 416 0 L128 0 Q75 0 37.5 37.5 Q0 75 0 128 L0 768 Q0 821 37.5 858.5 Q75 896 128 896 L416 896 Q426 896 437.5 900.5 Q449 905 461 914.5 Q473 924 483.5 932.5 Q494 941 507.5 955 Q521 969 528 976.5 Q535 984 547 998 Q559 1012 561 1015 Q626 1089 661 1144 Q674 1165 694 1206 Q714 1247 731 1278 Q748 1309 771.5 1341 Q795 1373 826.5 1390.5 Q858 1408 896 1408 Q1021 1408 1102.5 1341 Q1184 1274 1184 1152 Q1184 1084 1162 1024 L1536 1024 Q1640 1024 1716 948 Q1792 872 1792 769 z" pathLength="0" fill="White" transform="translate(0, 1.311302E-06) scale(0.008928572, -0.008928572) translate(0, -1536)" />
</svg>