<!DOCTYPE svg PUBLIC "-//W3C//DTD SVG 1.1//EN" "http://www.w3.org/Graphics/SVG/1.1/DTD/svg11.dtd">
<svg xmlns="http://www.w3.org/2000/svg" xmlns:xlink="http://www.w3.org/1999/xlink" version="1.1" x="0" y="0" width="16" height="16" overflow="auto" preserveAspectRatio="xMidYMid" baseProfile="tiny" space="preserve">
  <path d="M1280 -64 Q1280 -38 1261 -19 Q1242 0 1216 0 Q1190 0 1171 -19 Q1152 -38 1152 -64 Q1152 -90 1171 -109 Q1190 -128 1216 -128 Q1242 -128 1261 -109 Q1280 -90 1280 -64 z M1408 700 Q1408 889 1241 889 Q1215 889 1185 884 Q1169 914 1132.5 931.5 Q1096 949 1059 949 Q1022 949 990 931 Q940 984 871 984 Q846 984 815.5 974 Q785 964 768 949 L768 1280 Q768 1332 730 1370 Q692 1408 640 1408 Q589 1408 550.5 1369 Q512 1330 512 1280 L512 704 Q492 704 463.5 719 Q435 734 408.5 752 Q382 770 340.5 785 Q299 800 256 800 Q189 800 158.5 755.5 Q128 711 128 640 Q128 616 267 550 Q311 526 332 513 Q396 473 477 401 Q558 330 583 300 Q640 231 640 160 L640 128 L1280 128 L1280 160 Q1280 232 1312 327 Q1344 422 1376 520.5 Q1408 619 1408 700 z M1536 705 Q1536 572 1467 383 Q1408 219 1408 160 L1408 -128 Q1408 -181 1370.5 -218.5 Q1333 -256 1280 -256 L640 -256 Q587 -256 549.5 -218.5 Q512 -181 512 -128 L512 160 Q512 170 507.5 181.5 Q503 193 493.5 205 Q484 217 475.5 227.5 Q467 238 453 251.5 Q439 265 431.5 272 Q424 279 410 291 Q396 303 393 305 Q319 370 264 405 Q243 418 202 438 Q161 458 130 475 Q99 492 67 515.5 Q35 539 17.5 570.5 Q0 602 0 640 Q0 765 67 846.5 Q134 928 256 928 Q324 928 384 906 L384 1280 Q384 1384 460 1460 Q536 1536 639 1536 Q744 1536 820 1460.5 Q896 1385 896 1280 L896 1111 Q958 1107 1015 1074 Q1036 1077 1058 1077 Q1159 1077 1236 1017 Q1375 1018 1455.5 932 Q1536 846 1536 705 z" pathLength="0" fill="White" transform="translate(1.142857, 9.536743E-07) scale(0.008928572, -0.008928572) translate(0, -1536)" />
</svg>