<!DOCTYPE svg PUBLIC "-//W3C//DTD SVG 1.1//EN" "http://www.w3.org/Graphics/SVG/1.1/DTD/svg11.dtd">
<svg xmlns="http://www.w3.org/2000/svg" xmlns:xlink="http://www.w3.org/1999/xlink" version="1.1" x="0" y="0" width="16" height="16" overflow="auto" preserveAspectRatio="xMidYMid" baseProfile="tiny" space="preserve">
  <path d="M880 1408 Q834 1408 801 1375 Q768 1342 768 1296 L768 640 L736 640 L736 1168 Q736 1214 703 1247 Q670 1280 624 1280 Q578 1280 545 1247 Q512 1214 512 1168 L512 640 L512 384 L358 589 Q320 640 256 640 Q203 640 165.5 602.5 Q128 565 128 512 Q128 469 154 435 L538 -77 Q576 -128 640 -128 L1328 -128 Q1362 -128 1389 -106 Q1416 -84 1423 -50 L1499 355 Q1504 387 1504 414 L1504 912 Q1504 958 1471 991 Q1438 1024 1392 1024 Q1346 1024 1313 991 Q1280 958 1280 912 L1280 640 L1248 640 L1248 1168 Q1248 1214 1215 1247 Q1182 1280 1136 1280 Q1090 1280 1057 1247 Q1024 1214 1024 1168 L1024 640 L992 640 L992 1296 Q992 1342 959 1375 Q926 1408 880 1408 z M880 1536 Q948 1536 1005.5 1500.5 Q1063 1465 1094 1404 Q1113 1408 1136 1408 Q1235 1408 1305.5 1337.5 Q1376 1267 1376 1168 L1376 1151 Q1481 1157 1556.5 1087 Q1632 1017 1632 912 L1632 414 Q1632 374 1624 331 L1548 -73 Q1534 -152 1471.5 -204 Q1409 -256 1328 -256 L640 -256 Q580 -256 525.5 -228.5 Q471 -201 435 -154 L51 358 Q0 426 0 512 Q0 618 75 693 Q150 768 256 768 Q334 768 384 734 L384 1168 Q384 1267 454.5 1337.5 Q525 1408 624 1408 Q647 1408 666 1404 Q697 1465 754.5 1500.5 Q812 1536 880 1536 z" pathLength="0" fill="White" transform="translate(0.7142859, 9.536743E-07) scale(0.008928572, -0.008928572) translate(0, -1536)" />
</svg>