<!DOCTYPE svg PUBLIC "-//W3C//DTD SVG 1.1//EN" "http://www.w3.org/Graphics/SVG/1.1/DTD/svg11.dtd">
<svg xmlns="http://www.w3.org/2000/svg" xmlns:xlink="http://www.w3.org/1999/xlink" version="1.1" x="0" y="0" width="16" height="16" overflow="auto" preserveAspectRatio="xMidYMid" baseProfile="tiny" space="preserve">
  <path d="M768 1152 Q715 1152 677.5 1114.5 Q640 1077 640 1024 L640 896 L608 896 L608 989 Q608 1037 576 1070.5 Q544 1104 496 1104 Q450 1104 417 1071 Q384 1038 384 992 L384 563 L352 593 L352 765 Q352 813 320 846.5 Q288 880 240 880 Q194 880 161 847 Q128 814 128 768 L128 544 Q128 497 163 462 L473 166 Q512 127 512 64 Q512 38 531 19 Q550 0 576 0 L1216 0 Q1242 0 1261 19 Q1280 38 1280 64 L1280 89 Q1280 130 1290 166 L1398 602 Q1408 638 1408 679 L1408 925 Q1408 973 1376 1006.5 Q1344 1040 1296 1040 Q1250 1040 1217 1007 Q1184 974 1184 928 L1184 896 L1152 896 L1152 1021 Q1152 1061 1127 1093.5 Q1102 1126 1063 1134 Q1049 1136 1040 1136 Q994 1136 961 1103 Q928 1070 928 1024 L928 896 L896 896 L896 1018 Q896 1069 863.5 1107.5 Q831 1146 781 1151 Q776 1152 768 1152 z M768 1280 Q852 1280 917 1230 Q974 1264 1040 1264 Q1099 1264 1151 1237 Q1203 1210 1237 1161 Q1264 1168 1296 1168 Q1396 1168 1466 1096.5 Q1536 1025 1536 925 L1536 679 Q1536 628 1523 571 L1414 135 Q1408 111 1408 64 Q1408 -16 1352 -72 Q1296 -128 1216 -128 L576 -128 Q492 -128 438 -69.5 Q384 -11 384 73 L76 369 Q0 442 0 544 L0 768 Q0 867 70.5 937.5 Q141 1008 240 1008 Q251 1008 256 1007 Q262 1102 331.5 1167 Q401 1232 496 1232 Q548 1232 594 1211 Q666 1280 768 1280 z" pathLength="0" fill="White" transform="translate(1.142857, -0.5714276) scale(0.008928572, -0.008928572) translate(0, -1536)" />
</svg>