<!DOCTYPE svg PUBLIC "-//W3C//DTD SVG 1.1//EN" "http://www.w3.org/Graphics/SVG/1.1/DTD/svg11.dtd">
<svg xmlns="http://www.w3.org/2000/svg" xmlns:xlink="http://www.w3.org/1999/xlink" version="1.1" x="0" y="0" width="16" height="16" overflow="auto" preserveAspectRatio="xMidYMid" baseProfile="tiny" space="preserve">
  <path d="M816 1408 Q768 1408 736.5 1374 Q705 1340 705 1292 Q705 1278 708 1264 L858 640 L832 640 L716 1122 Q707 1160 676.5 1184 Q646 1208 607 1208 Q560 1208 528 1174 Q496 1140 496 1093 Q496 1082 500 1064 Q503 1051 539 903 Q575 755 607 621 Q639 487 639 483 L639 256 L332 486 Q298 512 255 512 Q203 512 165.5 475.5 Q128 439 128 387 Q128 320 184 277 L691 -102 Q725 -128 767 -128 L1461 -128 Q1494 -128 1520 -107.5 Q1546 -87 1554 -55 L1654 346 Q1662 376 1664 434 Q1666 492 1673 520 L1789 998 Q1792 1010 1792 1024 Q1792 1070 1759 1103 Q1726 1136 1679 1136 Q1641 1136 1610 1110.5 Q1579 1085 1570 1048 L1471 640 L1445 640 L1577 1187 Q1580 1201 1580 1215 Q1580 1262 1548 1295 Q1516 1328 1468 1328 Q1430 1328 1399.5 1304 Q1369 1280 1360 1242 L1215 640 L1088 640 L924 1322 Q915 1360 884.5 1384 Q854 1408 816 1408 z M1461 -256 L767 -256 Q682 -256 614 -205 L107 175 Q57 213 28.5 269 Q0 325 0 387 Q0 492 75 566 Q150 640 255 640 Q280 640 304.5 634.5 Q329 629 346 623.5 Q363 618 387 603 Q411 588 422 580 Q433 572 460.5 550.5 Q488 529 498 522 L375 1034 Q368 1069 368 1093 Q368 1186 428 1255 Q488 1324 580 1334 Q594 1421 660.5 1478.5 Q727 1536 816 1536 Q899 1536 964 1484.5 Q1029 1433 1049 1352 L1152 924 L1235 1272 Q1255 1353 1320 1404.5 Q1385 1456 1468 1456 Q1555 1456 1620.5 1402 Q1686 1348 1703 1263 Q1796 1253 1858 1185 Q1920 1117 1920 1024 Q1920 994 1913 967 L1797 490 Q1792 468 1792 423 Q1792 372 1779 315 L1678 -86 Q1659 -161 1598.5 -208.5 Q1538 -256 1461 -256 z" pathLength="0" fill="White" transform="translate(-0.5714283, 9.536743E-07) scale(0.008928572, -0.008928572) translate(0, -1536)" />
</svg>