<!DOCTYPE svg PUBLIC "-//W3C//DTD SVG 1.1//EN" "http://www.w3.org/Graphics/SVG/1.1/DTD/svg11.dtd">
<svg xmlns="http://www.w3.org/2000/svg" xmlns:xlink="http://www.w3.org/1999/xlink" version="1.1" x="0" y="0" width="16" height="16" overflow="auto" preserveAspectRatio="xMidYMid" baseProfile="tiny" space="preserve">
  <path d="M1073 -128 L896 -128 Q733 -128 670 13 Q647 62 647 115 L647 120 Q585 150 548.5 208.5 Q512 267 512 336 Q512 374 517 384 L256 384 Q150 384 75 459 Q0 534 0 640 Q0 746 75 821 Q150 896 256 896 L369 896 L325 913 Q251 941 205.5 1006.5 Q160 1072 160 1152 Q160 1258 235 1333 Q310 1408 416 1408 Q462 1408 507 1391 L1135 1152 L1536 1152 Q1642 1152 1717 1077 Q1792 1002 1792 896 L1792 228 Q1792 140 1738 70.5 Q1684 1 1598 -20 L1259 -105 Q1167 -128 1073 -128 z M1024 583 L869 512 L706 438 Q676 424 658 396.5 Q640 369 640 336 Q640 290 673 257 Q706 224 752 224 Q778 224 798 234 L1136 388 Q1087 398 1055.5 438 Q1024 478 1024 528 L1024 583 z M1344 272 Q1344 318 1311 351 Q1278 384 1232 384 Q1206 384 1186 374 L896 242 Q868 229 859 225 Q850 221 828.5 208 Q807 195 799 184.5 Q791 174 783 155.5 Q775 137 775 115 Q775 65 806.5 33 Q838 1 888 1 Q908 1 926 10 L1278 170 Q1308 184 1326 211.5 Q1344 239 1344 272 z M1112 1024 L462 1272 Q438 1280 416 1280 Q363 1280 325.5 1242.5 Q288 1205 288 1152 Q288 1112 310.5 1079 Q333 1046 370 1032 L896 832 L896 768 L256 768 Q203 768 165.5 730.5 Q128 693 128 640 Q128 587 165.5 549.5 Q203 512 256 512 L791 512 L1024 618 L1024 816 Q1024 879 1070 922 L1181 1024 L1112 1024 z M1073 0 Q1155 0 1228 19 L1567 104 Q1610 115 1637 149.5 Q1664 184 1664 228 L1664 896 Q1664 949 1626.5 986.5 Q1589 1024 1536 1024 L1228 1024 L1092 898 Q1056 865 1056 816 L1056 520 Q1056 474 1089 443 Q1122 412 1168 412 Q1214 412 1247 447 Q1280 482 1280 528 L1280 736 L1312 736 L1312 528 Q1312 458 1255 414 Q1307 406 1341.5 365.5 Q1376 325 1376 272 Q1376 230 1353 194 Q1330 158 1292 141 L982 0 L1073 0 z" pathLength="0" fill="White" transform="translate(0, 1.311302E-06) scale(0.008928572, -0.008928572) translate(0, -1536)" />
</svg>