<!DOCTYPE svg PUBLIC "-//W3C//DTD SVG 1.1//EN" "http://www.w3.org/Graphics/SVG/1.1/DTD/svg11.dtd">
<svg xmlns="http://www.w3.org/2000/svg" xmlns:xlink="http://www.w3.org/1999/xlink" version="1.1" x="0" y="0" width="16" height="16" overflow="auto" preserveAspectRatio="xMidYMid" baseProfile="tiny" space="preserve">
  <path d="M1376 128 L1408 128 L1408 768 L1376 768 Q1341 768 1308.5 780 Q1276 792 1246 817 Q1216 842 1196 863 Q1176 884 1147 917 Q1145 920 1143.5 921.5 Q1142 923 1139.5 926 Q1137 929 1135 931 Q1063 1012 1023 1076 Q1009 1098 985 1144 Q984 1147 974.5 1166.5 Q965 1186 956 1202.5 Q947 1219 936 1238 Q925 1257 914.5 1268.5 Q904 1280 896 1280 Q825 1280 780.5 1249.5 Q736 1219 736 1152 Q736 1109 751 1067.5 Q766 1026 784 999.5 Q802 973 817 944.5 Q832 916 832 896 L256 896 Q206 896 167 857.5 Q128 819 128 768 Q128 716 166 678 Q204 640 256 640 L587 640 Q572 623 562 592.5 Q552 562 552 537 Q552 468 605 418 Q587 386 587 349 Q587 312 604.5 275.5 Q622 239 652 223 Q648 199 648 167 Q648 82 696.5 41 Q745 0 832 0 Q916 0 1015 32 Q1114 64 1209 96 Q1304 128 1376 128 z M1664 192 Q1664 218 1645 237 Q1626 256 1600 256 Q1574 256 1555 237 Q1536 218 1536 192 Q1536 166 1555 147 Q1574 128 1600 128 Q1626 128 1645 147 Q1664 166 1664 192 z M1792 768 L1792 128 Q1792 75 1754.5 37.5 Q1717 0 1664 0 L1376 0 Q1317 0 1153 -59 Q963 -128 836 -128 Q694 -128 606 -50.5 Q518 27 519 167 L520 172 Q459 248 459 350 Q459 372 462 393 Q429 450 425 512 L256 512 Q151 512 75.5 588 Q0 664 0 769 Q0 872 76 948 Q152 1024 256 1024 L630 1024 Q608 1084 608 1152 Q608 1274 689.5 1341 Q771 1408 896 1408 Q934 1408 965.5 1390.5 Q997 1373 1020.5 1341 Q1044 1309 1061 1278 Q1078 1247 1098 1206 Q1118 1165 1131 1144 Q1166 1089 1231 1015 Q1233 1012 1245 998 Q1257 984 1264 976.5 Q1271 969 1284.5 955 Q1298 941 1308.5 932.5 Q1319 924 1331 914.5 Q1343 905 1354.5 900.5 Q1366 896 1376 896 L1664 896 Q1717 896 1754.5 858.5 Q1792 821 1792 768 z" pathLength="0" fill="White" transform="translate(0, 1.311302E-06) scale(0.008928572, -0.008928572) translate(0, -1536)" />
</svg>