<!DOCTYPE svg PUBLIC "-//W3C//DTD SVG 1.1//EN" "http://www.w3.org/Graphics/SVG/1.1/DTD/svg11.dtd">
<svg xmlns="http://www.w3.org/2000/svg" xmlns:xlink="http://www.w3.org/1999/xlink" version="1.1" x="0" y="0" width="16" height="16" overflow="auto" preserveAspectRatio="xMidYMid" baseProfile="tiny" space="preserve">
  <path d="M640 1408 Q587 1408 549.5 1370.5 Q512 1333 512 1280 L512 768 L512 384 L361 586 Q320 640 254 640 Q202 640 165 602 Q128 564 128 512 Q128 469 154 435 L538 -77 Q576 -128 640 -128 L1358 -128 Q1380 -128 1397.5 -114.5 Q1415 -101 1420 -80 L1512 288 Q1536 384 1536 482 L1536 699 Q1536 740 1508 770 Q1480 800 1440 800 Q1400 800 1372 772 Q1344 744 1344 704 L1312 704 L1312 765 Q1312 813 1280 846.5 Q1248 880 1200 880 Q1154 880 1121 847 Q1088 814 1088 768 L1088 704 L1056 704 L1056 794 Q1056 849 1019 888.5 Q982 928 928 928 Q875 928 837.5 890.5 Q800 853 800 800 L800 704 L768 704 L768 1274 Q768 1329 731 1368.5 Q694 1408 640 1408 z M640 1536 Q747 1536 821.5 1458.5 Q896 1381 896 1274 L896 1054 Q918 1056 928 1056 Q1027 1056 1101 987 Q1148 1008 1200 1008 Q1313 1008 1384 921 Q1411 928 1440 928 Q1534 928 1599 860.5 Q1664 793 1664 699 L1664 482 Q1664 366 1636 257 L1544 -111 Q1528 -175 1476 -215.5 Q1424 -256 1358 -256 L640 -256 Q580 -256 525.5 -228.5 Q471 -201 435 -154 L51 358 Q0 426 0 512 Q0 617 74.5 692.5 Q149 768 254 768 Q325 768 384 733 L384 1280 Q384 1386 459 1461 Q534 1536 640 1536 z M768 128 L768 512 L736 512 L736 128 L768 128 z M1024 128 L1024 512 L992 512 L992 128 L1024 128 z M1280 128 L1280 512 L1248 512 L1248 128 L1280 128 z" pathLength="0" fill="White" transform="translate(0.5714283, 9.536743E-07) scale(0.008928572, -0.008928572) translate(0, -1536)" />
</svg>