<!DOCTYPE svg PUBLIC "-//W3C//DTD SVG 1.1//EN" "http://www.w3.org/Graphics/SVG/1.1/DTD/svg11.dtd">
<svg xmlns="http://www.w3.org/2000/svg" xmlns:xlink="http://www.w3.org/1999/xlink" version="1.1" x="0" y="0" width="16" height="16" overflow="auto" preserveAspectRatio="xMidYMid" baseProfile="tiny" space="preserve">
  <path d="M1288 889 Q1348 889 1395 866 Q1536 803 1536 640 L1536 463 Q1536 369 1513 277 L1428 -62 Q1407 -148 1337.5 -202 Q1268 -256 1180 -256 L512 -256 Q406 -256 331 -181 Q256 -106 256 0 L256 401 L17 1029 Q0 1074 0 1120 Q0 1226 75 1301 Q150 1376 256 1376 Q336 1376 401.5 1330.5 Q467 1285 495 1211 L512 1167 L512 1280 Q512 1386 587 1461 Q662 1536 768 1536 Q874 1536 949 1461 Q1024 1386 1024 1280 L1024 1019 Q1051 1024 1072 1024 Q1141 1024 1199.5 987.5 Q1258 951 1288 889 z M1072 896 Q1039 896 1011.5 878 Q984 860 970 830 L896 667 L825 512 L880 512 Q930 512 970 480.5 Q1010 449 1020 400 L1174 738 Q1184 758 1184 784 Q1184 830 1151 863 Q1118 896 1072 896 z M1293 761 Q1271 761 1252.5 753 Q1234 745 1223.5 737 Q1213 729 1200 707.5 Q1187 686 1183 677 Q1179 668 1166 640 L1034 350 Q1024 330 1024 304 Q1024 258 1057 225 Q1090 192 1136 192 Q1169 192 1196.5 210 Q1224 228 1238 258 L1398 610 Q1407 628 1407 648 Q1407 698 1375 729.5 Q1343 761 1293 761 z M128 1120 Q128 1098 136 1074 L384 424 L384 355 L486 466 Q529 512 592 512 L790 512 L896 745 L896 1280 Q896 1333 858.5 1370.5 Q821 1408 768 1408 Q715 1408 677.5 1370.5 Q640 1333 640 1280 L640 640 L576 640 L376 1166 Q362 1203 329 1225.5 Q296 1248 256 1248 Q203 1248 165.5 1210.5 Q128 1173 128 1120 z M1180 -128 Q1224 -128 1258.5 -101 Q1293 -74 1304 -31 L1389 308 Q1408 381 1408 463 L1408 554 L1267 244 Q1250 206 1214 183 Q1178 160 1136 160 Q1083 160 1042.5 194.5 Q1002 229 994 281 Q950 224 880 224 L672 224 L672 256 L880 256 Q926 256 961 289 Q996 322 996 368 Q996 414 965 447 Q934 480 888 480 L592 480 Q543 480 510 444 L384 308 L384 0 Q384 -53 421.5 -90.5 Q459 -128 512 -128 L1180 -128 z" pathLength="0" fill="White" transform="translate(1.142857, 9.536743E-07) scale(0.008928572, -0.008928572) translate(0, -1536)" />
</svg>