<!DOCTYPE svg PUBLIC "-//W3C//DTD SVG 1.1//EN" "http://www.w3.org/Graphics/SVG/1.1/DTD/svg11.dtd">
<svg xmlns="http://www.w3.org/2000/svg" xmlns:xlink="http://www.w3.org/1999/xlink" version="1.1" x="0" y="0" width="16" height="16" overflow="auto" preserveAspectRatio="xMidYMid" baseProfile="tiny" space="preserve">
  <path d="M1408 576 Q1408 660 1376 759 Q1344 858 1312 953 Q1280 1048 1280 1120 L1280 1152 L640 1152 L640 1120 Q640 1085 628 1052.5 Q616 1020 591 990 Q566 960 545 940 Q524 920 491 891 Q482 883 477 879 Q396 807 332 767 Q310 753 264 729 Q261 728 241.5 718.5 Q222 709 205.5 700 Q189 691 170 680 Q151 669 139.5 658.5 Q128 648 128 640 Q128 569 158.5 524.5 Q189 480 256 480 Q299 480 340.5 495 Q382 510 408.5 528 Q435 546 463.5 561 Q492 576 512 576 L512 0 Q512 -50 550.5 -89 Q589 -128 640 -128 Q692 -128 730 -90 Q768 -52 768 0 L768 331 Q814 296 871 296 Q940 296 990 349 Q1022 331 1059 331 Q1096 331 1132.5 348.5 Q1169 366 1185 396 Q1209 392 1241 392 Q1326 392 1367 440.5 Q1408 489 1408 576 z M1280 1344 Q1280 1370 1261 1389 Q1242 1408 1216 1408 Q1190 1408 1171 1389 Q1152 1370 1152 1344 Q1152 1318 1171 1299 Q1190 1280 1216 1280 Q1242 1280 1261 1299 Q1280 1318 1280 1344 z M1536 580 Q1536 438 1458.5 350 Q1381 262 1241 263 L1236 264 Q1160 203 1058 203 Q1036 203 1015 206 Q961 176 896 169 L896 0 Q896 -105 820 -180.5 Q744 -256 639 -256 Q536 -256 460 -180 Q384 -104 384 0 L384 374 Q330 352 256 352 Q135 352 67.5 433.5 Q0 515 0 640 Q0 678 17.5 709.5 Q35 741 67 764.5 Q99 788 130 805 Q161 822 202 842 Q243 862 264 875 Q319 910 393 975 Q396 977 410 989 Q424 1001 431.5 1008 Q439 1015 453 1028.5 Q467 1042 475.5 1052.5 Q484 1063 493.5 1075 Q503 1087 507.5 1098.5 Q512 1110 512 1120 L512 1408 Q512 1461 549.5 1498.5 Q587 1536 640 1536 L1280 1536 Q1333 1536 1370.5 1498.5 Q1408 1461 1408 1408 L1408 1120 Q1408 1061 1467 897 Q1536 707 1536 580 z" pathLength="0" fill="White" transform="translate(1.142857, 9.536743E-07) scale(0.008928572, -0.008928572) translate(0, -1536)" />
</svg>