<!DOCTYPE svg PUBLIC "-//W3C//DTD SVG 1.1//EN" "http://www.w3.org/Graphics/SVG/1.1/DTD/svg11.dtd">
<svg xmlns="http://www.w3.org/2000/svg" xmlns:xlink="http://www.w3.org/1999/xlink" version="1.1" x="0" y="0" width="16" height="16" overflow="auto" preserveAspectRatio="xMidYMid" baseProfile="tiny" space="preserve">
  <path d="M1151 1536 Q1212 1536 1267 1508 Q1322 1480 1358 1431 L1930 650 Q2048 491 2048 291 L2048 -64 Q2048 -144 1992 -200 Q1936 -256 1856 -256 L1472 -256 Q1392 -256 1336 -200 Q1280 -144 1280 -64 L1280 113 L994 256 L448 256 Q368 256 312 312 Q256 368 256 448 L256 480 Q256 599 340.5 683.5 Q425 768 544 768 L964 768 L1006 896 L320 896 Q220 896 146.5 963.5 Q73 1031 65 1130 Q0 1209 0 1312 L0 1344 Q0 1424 56 1480 Q112 1536 192 1536 L1151 1536 z M1920 -64 L1920 291 Q1920 448 1827 575 L1254 1356 Q1215 1408 1151 1408 L192 1408 Q166 1408 147 1389 Q128 1370 128 1344 Q128 1312 129.5 1294.5 Q131 1277 139 1254 Q147 1231 164 1211 Q174 1242 199.5 1261 Q225 1280 256 1280 L1088 1280 L1088 1248 L256 1248 Q230 1248 211 1229 Q192 1210 192 1184 Q192 1140 195 1126 Q203 1082 239 1053 Q275 1024 320 1024 L960 1024 L1051 1024 Q1091 1024 1119 996 Q1147 968 1147 928 Q1147 913 1142 898 L1078 706 Q1068 677 1043 658.5 Q1018 640 987 640 L544 640 Q478 640 431 593 Q384 546 384 480 L384 448 Q384 422 403 403 Q422 384 448 384 L1009 384 Q1025 384 1038 377 L1355 219 Q1379 206 1393.5 183 Q1408 160 1408 133 L1408 -64 Q1408 -90 1427 -109 Q1446 -128 1472 -128 L1856 -128 Q1882 -128 1901 -109 Q1920 -90 1920 -64 z" pathLength="0" fill="White" transform="translate(-1.142858, 9.536743E-07) scale(0.008928572, -0.008928572) translate(0, -1536)" />
</svg>