<!DOCTYPE svg PUBLIC "-//W3C//DTD SVG 1.1//EN" "http://www.w3.org/Graphics/SVG/1.1/DTD/svg11.dtd">
<svg xmlns="http://www.w3.org/2000/svg" xmlns:xlink="http://www.w3.org/1999/xlink" version="1.1" x="0" y="0" width="16" height="16" overflow="auto" preserveAspectRatio="xMidYMid" baseProfile="tiny" space="preserve">
  <path d="M1040 320 Q1040 287 1016.5 263.5 Q993 240 960 240 Q927 240 903.5 263.5 Q880 287 880 320 Q880 353 903.5 376.5 Q927 400 960 400 Q993 400 1016.5 376.5 Q1040 353 1040 320 z M1296 320 Q1296 287 1272.5 263.5 Q1249 240 1216 240 Q1183 240 1159.5 263.5 Q1136 287 1136 320 Q1136 353 1159.5 376.5 Q1183 400 1216 400 Q1249 400 1272.5 376.5 Q1296 353 1296 320 z M1408 160 L1408 480 Q1408 493 1398.5 502.5 Q1389 512 1376 512 L160 512 Q147 512 137.5 502.5 Q128 493 128 480 L128 160 Q128 147 137.5 137.5 Q147 128 160 128 L1376 128 Q1389 128 1398.5 137.5 Q1408 147 1408 160 z M178 640 L1358 640 L1201 1122 Q1197 1135 1185 1143.5 Q1173 1152 1159 1152 L377 1152 Q363 1152 351 1143.5 Q339 1135 335 1122 z M1536 480 L1536 160 Q1536 94 1489 47 Q1442 0 1376 0 L160 0 Q94 0 47 47 Q0 94 0 160 L0 480 Q0 505 16 555 L213 1161 Q230 1214 276 1247 Q322 1280 377 1280 L1159 1280 Q1214 1280 1260 1247 Q1306 1214 1323 1161 L1520 555 Q1536 505 1536 480 z" pathLength="0" fill="White" transform="translate(1.142857, 7.152557E-07) scale(0.008928572, -0.008928572) translate(0, -1536)" />
</svg>