<!DOCTYPE svg PUBLIC "-//W3C//DTD SVG 1.1//EN" "http://www.w3.org/Graphics/SVG/1.1/DTD/svg11.dtd">
<svg xmlns="http://www.w3.org/2000/svg" xmlns:xlink="http://www.w3.org/1999/xlink" version="1.1" x="0" y="0" width="16" height="16" overflow="auto" preserveAspectRatio="xMidYMid" baseProfile="tiny" space="preserve">
  <path d="M1682 -128 Q1638 -128 1549.5 -124.5 Q1461 -121 1416 -121 Q1372 -121 1284 -124.5 Q1196 -128 1152 -128 Q1128 -128 1115 -107.5 Q1102 -87 1102 -62 Q1102 -31 1119 -16 Q1136 -1 1158 1 Q1180 3 1209 8 Q1238 13 1254 23 Q1287 44 1287 163 L1286 554 Q1286 575 1285 585 Q1272 589 1235 589 L560 589 Q522 589 509 585 Q508 575 508 554 L507 183 Q507 41 544 19 Q560 9 592 6 Q624 3 649 2.5 Q674 2 694 -12.5 Q714 -27 714 -58 Q714 -84 701.5 -106 Q689 -128 665 -128 Q618 -128 525.5 -124.5 Q433 -121 387 -121 Q344 -121 259 -124.5 Q174 -128 132 -128 Q109 -128 96.5 -107 Q84 -86 84 -62 Q84 -32 99.5 -17 Q115 -2 135.5 0.5 Q156 3 183 8 Q210 13 225 23 Q258 46 258 166 L257 223 L257 1036 Q257 1039 257.5 1062 Q258 1085 257.5 1098.5 Q257 1112 256 1137 Q255 1162 252.5 1179 Q250 1196 246 1215.5 Q242 1235 235 1247 Q228 1259 219 1265 Q204 1275 174 1277 Q144 1279 121 1279 Q98 1279 80 1293 Q62 1307 62 1338 Q62 1364 74 1386 Q86 1408 110 1408 Q156 1408 248.5 1404.5 Q341 1401 387 1401 Q429 1401 513.5 1404.5 Q598 1408 640 1408 Q665 1408 677.5 1386 Q690 1364 690 1338 Q690 1308 673 1294.5 Q656 1281 634.5 1280 Q613 1279 585 1276 Q557 1273 542 1263 Q507 1242 507 1103 L508 783 Q508 762 509 751 Q522 748 548 748 L1247 748 Q1272 748 1285 751 Q1286 762 1286 783 L1287 1103 Q1287 1242 1252 1263 Q1234 1274 1193.5 1275.5 Q1153 1277 1127.5 1288.5 Q1102 1300 1102 1338 Q1102 1364 1114.5 1386 Q1127 1408 1152 1408 Q1196 1408 1284 1404.5 Q1372 1401 1416 1401 Q1459 1401 1545 1404.5 Q1631 1408 1674 1408 Q1699 1408 1711.5 1386 Q1724 1364 1724 1338 Q1724 1308 1706.5 1294 Q1689 1280 1666.5 1279.5 Q1644 1279 1615 1276.5 Q1586 1274 1571 1264 Q1536 1241 1536 1103 L1537 160 Q1537 41 1571 20 Q1587 10 1617 6.5 Q1647 3 1670.5 2 Q1694 1 1712 -13.5 Q1730 -28 1730 -58 Q1730 -84 1718 -106 Q1706 -128 1682 -128 z" pathLength="0" fill="White" transform="translate(2.980232E-07, 1.311302E-06) scale(0.008928572, -0.008928572) translate(0, -1536)" />
</svg>