<!DOCTYPE svg PUBLIC "-//W3C//DTD SVG 1.1//EN" "http://www.w3.org/Graphics/SVG/1.1/DTD/svg11.dtd">
<svg xmlns="http://www.w3.org/2000/svg" xmlns:xlink="http://www.w3.org/1999/xlink" version="1.1" x="0" y="0" width="16" height="16" overflow="auto" preserveAspectRatio="xMidYMid" baseProfile="tiny" space="preserve">
  <path d="M1664 650 Q1664 484 1604 336 L1584 287 L1399 254 Q1377 171 1308.5 117.5 Q1240 64 1152 64 L1152 32 Q1152 18 1143 9 Q1134 0 1120 0 L1056 0 Q1042 0 1033 9 Q1024 18 1024 32 L1024 608 Q1024 622 1033 631 Q1042 640 1056 640 L1120 640 Q1134 640 1143 631 Q1152 622 1152 608 L1152 576 Q1223 576 1282 540.5 Q1341 505 1375 445 L1443 457 Q1472 552 1472 650 Q1472 798 1384 929 Q1296 1060 1147.5 1138 Q999 1216 832 1216 Q665 1216 516.5 1138 Q368 1060 280 929 Q192 798 192 650 Q192 552 221 457 L289 445 Q323 505 382 540.5 Q441 576 512 576 L512 608 Q512 622 521 631 Q530 640 544 640 L608 640 Q622 640 631 631 Q640 622 640 608 L640 32 Q640 18 631 9 Q622 0 608 0 L544 0 Q530 0 521 9 Q512 18 512 32 L512 64 Q424 64 355.5 117.5 Q287 171 265 254 L80 287 L60 336 Q0 484 0 650 Q0 801 67 941 Q134 1081 246 1183.5 Q358 1286 512 1347 Q666 1408 832 1408 Q998 1408 1152 1347 Q1306 1286 1418 1183.5 Q1530 1081 1597 941 Q1664 801 1664 650 z" pathLength="0" fill="White" transform="translate(0.5714283, 0.5714296) scale(0.008928572, -0.008928572) translate(0, -1536)" />
</svg>