<!DOCTYPE svg PUBLIC "-//W3C//DTD SVG 1.1//EN" "http://www.w3.org/Graphics/SVG/1.1/DTD/svg11.dtd">
<svg xmlns="http://www.w3.org/2000/svg" xmlns:xlink="http://www.w3.org/1999/xlink" version="1.1" x="0" y="0" width="16" height="16" overflow="auto" preserveAspectRatio="xMidYMid" baseProfile="tiny" space="preserve">
  <path d="M1280 512 L1585 512 Q1580 506 1575 501.5 Q1570 497 1566 494 L1563 490 L940 -110 Q922 -128 896 -128 Q870 -128 852 -110 L228 492 Q223 494 207 512 L576 512 Q598 512 615.5 525.5 Q633 539 638 560 L708 841 L898 174 Q904 154 921 141 Q938 128 960 128 Q981 128 998 141 Q1015 154 1021 174 L1167 659 L1223 547 Q1241 512 1280 512 z M1792 940 Q1792 795 1689 640 L1320 640 L1209 861 Q1201 878 1183.5 888 Q1166 898 1147 896 Q1102 891 1091 850 L962 420 L766 1106 Q760 1126 742.5 1139 Q725 1152 703 1152 Q681 1152 664 1138.5 Q647 1125 642 1104 L526 640 L103 640 Q0 795 0 940 Q0 1160 127 1284 Q254 1408 478 1408 Q540 1408 604.5 1386.5 Q669 1365 724.5 1328.5 Q780 1292 820 1260 Q860 1228 896 1192 Q932 1228 972 1260 Q1012 1292 1067.5 1328.5 Q1123 1365 1187.5 1386.5 Q1252 1408 1314 1408 Q1538 1408 1665 1284 Q1792 1160 1792 940 z" pathLength="0" fill="White" transform="translate(0, 1.311302E-06) scale(0.008928572, -0.008928572) translate(0, -1536)" />
</svg>