<!DOCTYPE svg PUBLIC "-//W3C//DTD SVG 1.1//EN" "http://www.w3.org/Graphics/SVG/1.1/DTD/svg11.dtd">
<svg xmlns="http://www.w3.org/2000/svg" xmlns:xlink="http://www.w3.org/1999/xlink" version="1.1" x="0" y="0" width="16" height="16" overflow="auto" preserveAspectRatio="xMidYMid" baseProfile="tiny" space="preserve">
  <path d="M896 -128 Q870 -128 852 -110 L228 492 Q218 500 200.5 518 Q183 536 145 583.5 Q107 631 77 681 Q47 731 23.5 802 Q0 873 0 940 Q0 1160 127 1284 Q254 1408 478 1408 Q540 1408 604.5 1386.5 Q669 1365 724.5 1328.5 Q780 1292 820 1260 Q860 1228 896 1192 Q932 1228 972 1260 Q1012 1292 1067.5 1328.5 Q1123 1365 1187.5 1386.5 Q1252 1408 1314 1408 Q1538 1408 1665 1284 Q1792 1160 1792 940 Q1792 719 1563 490 L940 -110 Q922 -128 896 -128 z" pathLength="0" fill="White" transform="translate(0, 1.311302E-06) scale(0.008928572, -0.008928572) translate(0, -1536)" />
</svg>