<!DOCTYPE svg PUBLIC "-//W3C//DTD SVG 1.1//EN" "http://www.w3.org/Graphics/SVG/1.1/DTD/svg11.dtd">
<svg xmlns="http://www.w3.org/2000/svg" xmlns:xlink="http://www.w3.org/1999/xlink" version="1.1" x="0" y="0" width="16" height="16" overflow="auto" preserveAspectRatio="xMidYMid" baseProfile="tiny" space="preserve">
  <path d="M1536 640 Q1536 484 1475 342 Q1414 200 1311 97 Q1208 -6 1066 -67 Q924 -128 768 -128 Q596 -128 441 -55.5 Q286 17 177 149 Q170 159 170.5 171.5 Q171 184 179 192 L316 330 Q326 339 341 339 Q357 337 364 327 Q437 232 543 180 Q649 128 768 128 Q872 128 966.5 168.5 Q1061 209 1130 278 Q1199 347 1239.5 441.5 Q1280 536 1280 640 Q1280 744 1239.5 838.5 Q1199 933 1130 1002 Q1061 1071 966.5 1111.5 Q872 1152 768 1152 Q670 1152 580 1116.5 Q490 1081 420 1015 L557 877 Q588 847 571 808 Q554 768 512 768 L64 768 Q38 768 19 787 Q0 806 0 832 L0 1280 Q0 1322 40 1339 Q79 1356 109 1325 L239 1196 Q346 1297 483.5 1352.5 Q621 1408 768 1408 Q924 1408 1066 1347 Q1208 1286 1311 1183 Q1414 1080 1475 938 Q1536 796 1536 640 z M896 928 L896 480 Q896 466 887 457 Q878 448 864 448 L544 448 Q530 448 521 457 Q512 466 512 480 L512 544 Q512 558 521 567 Q530 576 544 576 L768 576 L768 928 Q768 942 777 951 Q786 960 800 960 L864 960 Q878 960 887 951 Q896 942 896 928 z" pathLength="0" fill="White" transform="translate(1.142857, 1.311302E-06) scale(0.008928572, -0.008928572) translate(0, -1536)" />
</svg>