<!DOCTYPE svg PUBLIC "-//W3C//DTD SVG 1.1//EN" "http://www.w3.org/Graphics/SVG/1.1/DTD/svg11.dtd">
<svg xmlns="http://www.w3.org/2000/svg" xmlns:xlink="http://www.w3.org/1999/xlink" version="1.1" x="0" y="0" width="16" height="16" overflow="auto" preserveAspectRatio="xMidYMid" baseProfile="tiny" space="preserve">
  <path d="M1408 544 L1408 64 Q1408 38 1389 19 Q1370 0 1344 0 L960 0 L960 384 L704 384 L704 0 L320 0 Q294 0 275 19 Q256 38 256 64 L256 544 Q256 545 256.5 547 Q257 549 257 550 L832 1024 L1407 550 Q1408 548 1408 544 z M1631 613 L1569 539 Q1561 530 1548 528 L1545 528 Q1532 528 1524 535 L832 1112 L140 535 Q128 527 116 528 Q103 530 95 539 L33 613 Q25 623 26 636.5 Q27 650 37 658 L756 1257 Q788 1283 832 1283 Q876 1283 908 1257 L1152 1053 L1152 1248 Q1152 1262 1161 1271 Q1170 1280 1184 1280 L1376 1280 Q1390 1280 1399 1271 Q1408 1262 1408 1248 L1408 840 L1627 658 Q1637 650 1638 636.5 Q1639 623 1631 613 z" pathLength="0" fill="White" transform="translate(0.5714294, 0.01339364) scale(0.008928572, -0.008928572) translate(0, -1536)" />
</svg>