<!DOCTYPE svg PUBLIC "-//W3C//DTD SVG 1.1//EN" "http://www.w3.org/Graphics/SVG/1.1/DTD/svg11.dtd">
<svg xmlns="http://www.w3.org/2000/svg" xmlns:xlink="http://www.w3.org/1999/xlink" version="1.1" x="0" y="0" width="16" height="16" overflow="auto" preserveAspectRatio="xMidYMid" baseProfile="tiny" space="preserve">
  <path d="M384 224 L384 160 Q384 147 374.5 137.5 Q365 128 352 128 L288 128 Q275 128 265.5 137.5 Q256 147 256 160 L256 224 Q256 237 265.5 246.5 Q275 256 288 256 L352 256 Q365 256 374.5 246.5 Q384 237 384 224 z M384 480 L384 416 Q384 403 374.5 393.5 Q365 384 352 384 L288 384 Q275 384 265.5 393.5 Q256 403 256 416 L256 480 Q256 493 265.5 502.5 Q275 512 288 512 L352 512 Q365 512 374.5 502.5 Q384 493 384 480 z M640 480 L640 416 Q640 403 630.5 393.5 Q621 384 608 384 L544 384 Q531 384 521.5 393.5 Q512 403 512 416 L512 480 Q512 493 521.5 502.5 Q531 512 544 512 L608 512 Q621 512 630.5 502.5 Q640 493 640 480 z M384 736 L384 672 Q384 659 374.5 649.5 Q365 640 352 640 L288 640 Q275 640 265.5 649.5 Q256 659 256 672 L256 736 Q256 749 265.5 758.5 Q275 768 288 768 L352 768 Q365 768 374.5 758.5 Q384 749 384 736 z M1152 224 L1152 160 Q1152 147 1142.5 137.5 Q1133 128 1120 128 L1056 128 Q1043 128 1033.5 137.5 Q1024 147 1024 160 L1024 224 Q1024 237 1033.5 246.5 Q1043 256 1056 256 L1120 256 Q1133 256 1142.5 246.5 Q1152 237 1152 224 z M896 480 L896 416 Q896 403 886.5 393.5 Q877 384 864 384 L800 384 Q787 384 777.5 393.5 Q768 403 768 416 L768 480 Q768 493 777.5 502.5 Q787 512 800 512 L864 512 Q877 512 886.5 502.5 Q896 493 896 480 z M640 736 L640 672 Q640 659 630.5 649.5 Q621 640 608 640 L544 640 Q531 640 521.5 649.5 Q512 659 512 672 L512 736 Q512 749 521.5 758.5 Q531 768 544 768 L608 768 Q621 768 630.5 758.5 Q640 749 640 736 z M1152 480 L1152 416 Q1152 403 1142.5 393.5 Q1133 384 1120 384 L1056 384 Q1043 384 1033.5 393.5 Q1024 403 1024 416 L1024 480 Q1024 493 1033.5 502.5 Q1043 512 1056 512 L1120 512 Q1133 512 1142.5 502.5 Q1152 493 1152 480 z M896 736 L896 672 Q896 659 886.5 649.5 Q877 640 864 640 L800 640 Q787 640 777.5 649.5 Q768 659 768 672 L768 736 Q768 749 777.5 758.5 Q787 768 800 768 L864 768 Q877 768 886.5 758.5 Q896 749 896 736 z M1152 736 L1152 672 Q1152 659 1142.5 649.5 Q1133 640 1120 640 L1056 640 Q1043 640 1033.5 649.5 Q1024 659 1024 672 L1024 736 Q1024 749 1033.5 758.5 Q1043 768 1056 768 L1120 768 Q1133 768 1142.5 758.5 Q1152 749 1152 736 z M896 -128 L1280 -128 L1280 1024 L1024 1024 L1024 992 Q1024 952 996 924 Q968 896 928 896 L480 896 Q440 896 412 924 Q384 952 384 992 L384 1024 L128 1024 L128 -128 L512 -128 L512 96 Q512 109 521.5 118.5 Q531 128 544 128 L864 128 Q877 128 886.5 118.5 Q896 109 896 96 L896 -128 z M896 1056 L896 1376 Q896 1389 886.5 1398.5 Q877 1408 864 1408 L800 1408 Q787 1408 777.5 1398.5 Q768 1389 768 1376 L768 1280 L640 1280 L640 1376 Q640 1389 630.5 1398.5 Q621 1408 608 1408 L544 1408 Q531 1408 521.5 1398.5 Q512 1389 512 1376 L512 1056 Q512 1043 521.5 1033.5 Q531 1024 544 1024 L608 1024 Q621 1024 630.5 1033.5 Q640 1043 640 1056 L640 1152 L768 1152 L768 1056 Q768 1043 777.5 1033.5 Q787 1024 800 1024 L864 1024 Q877 1024 886.5 1033.5 Q896 1043 896 1056 z M1408 1088 L1408 -192 Q1408 -218 1389 -237 Q1370 -256 1344 -256 L64 -256 Q38 -256 19 -237 Q0 -218 0 -192 L0 1088 Q0 1114 19 1133 Q38 1152 64 1152 L384 1152 L384 1440 Q384 1480 412 1508 Q440 1536 480 1536 L928 1536 Q968 1536 996 1508 Q1024 1480 1024 1440 L1024 1152 L1344 1152 Q1370 1152 1389 1133 Q1408 1114 1408 1088 z" pathLength="0" fill="White" transform="translate(1.714286, 9.536743E-07) scale(0.008928572, -0.008928572) translate(0, -1536)" />
</svg>