<!DOCTYPE svg PUBLIC "-//W3C//DTD SVG 1.1//EN" "http://www.w3.org/Graphics/SVG/1.1/DTD/svg11.dtd">
<svg xmlns="http://www.w3.org/2000/svg" xmlns:xlink="http://www.w3.org/1999/xlink" version="1.1" x="0" y="0" width="16" height="16" overflow="auto" preserveAspectRatio="xMidYMid" baseProfile="tiny" space="preserve">
  <path d="M1408 1408 Q1408 1147 1301.5 946.5 Q1195 746 1035 640 Q1195 534 1301.5 333.5 Q1408 133 1408 -128 L1504 -128 Q1518 -128 1527 -137 Q1536 -146 1536 -160 L1536 -224 Q1536 -238 1527 -247 Q1518 -256 1504 -256 L32 -256 Q18 -256 9 -247 Q0 -238 0 -224 L0 -160 Q0 -146 9 -137 Q18 -128 32 -128 L128 -128 Q128 133 234.5 333.5 Q341 534 501 640 Q341 746 234.5 946.5 Q128 1147 128 1408 L32 1408 Q18 1408 9 1417 Q0 1426 0 1440 L0 1504 Q0 1518 9 1527 Q18 1536 32 1536 L1504 1536 Q1518 1536 1527 1527 Q1536 1518 1536 1504 L1536 1440 Q1536 1426 1527 1417 Q1518 1408 1504 1408 L1408 1408 z M1280 1408 L256 1408 Q256 1342 265 1280 L1271 1280 Q1280 1341 1280 1408 z M1280 -128 Q1280 2 1246 121.5 Q1212 241 1155.5 329.5 Q1099 418 1029 481.5 Q959 545 883 576 L653 576 Q577 545 507 481.5 Q437 418 380.5 329.5 Q324 241 290 121.5 Q256 2 256 -128 L1280 -128 z" pathLength="0" fill="White" transform="translate(1.142857, 9.536743E-07) scale(0.008928572, -0.008928572) translate(0, -1536)" />
</svg>