<!DOCTYPE svg PUBLIC "-//W3C//DTD SVG 1.1//EN" "http://www.w3.org/Graphics/SVG/1.1/DTD/svg11.dtd">
<svg xmlns="http://www.w3.org/2000/svg" xmlns:xlink="http://www.w3.org/1999/xlink" version="1.1" x="0" y="0" width="16" height="16" overflow="auto" preserveAspectRatio="xMidYMid" baseProfile="tiny" space="preserve">
  <path d="M1408 1408 Q1408 1147 1301.5 946.5 Q1195 746 1035 640 Q1195 534 1301.5 333.5 Q1408 133 1408 -128 L1504 -128 Q1518 -128 1527 -137 Q1536 -146 1536 -160 L1536 -224 Q1536 -238 1527 -247 Q1518 -256 1504 -256 L32 -256 Q18 -256 9 -247 Q0 -238 0 -224 L0 -160 Q0 -146 9 -137 Q18 -128 32 -128 L128 -128 Q128 133 234.5 333.5 Q341 534 501 640 Q341 746 234.5 946.5 Q128 1147 128 1408 L32 1408 Q18 1408 9 1417 Q0 1426 0 1440 L0 1504 Q0 1518 9 1527 Q18 1536 32 1536 L1504 1536 Q1518 1536 1527 1527 Q1536 1518 1536 1504 L1536 1440 Q1536 1426 1527 1417 Q1518 1408 1504 1408 L1408 1408 z M874 700 Q951 729 1023 792.5 Q1095 856 1152.5 945 Q1210 1034 1245 1155 Q1280 1276 1280 1408 L256 1408 Q256 1276 291 1155 Q326 1034 383.5 945 Q441 856 513 792.5 Q585 729 662 700 Q681 693 692.5 676.5 Q704 660 704 640 Q704 620 692.5 603.5 Q681 587 662 580 Q585 551 513 487.5 Q441 424 383.5 335 Q326 246 291 125 Q256 4 256 -128 L1280 -128 Q1280 4 1245 125 Q1210 246 1152.5 335 Q1095 424 1023 487.5 Q951 551 874 580 Q855 587 843.5 603.5 Q832 620 832 640 Q832 660 843.5 676.5 Q855 693 874 700 z" pathLength="0" fill="White" transform="translate(1.142857, 9.536743E-07) scale(0.008928572, -0.008928572) translate(0, -1536)" />
</svg>