<!DOCTYPE svg PUBLIC "-//W3C//DTD SVG 1.1//EN" "http://www.w3.org/Graphics/SVG/1.1/DTD/svg11.dtd">
<svg xmlns="http://www.w3.org/2000/svg" xmlns:xlink="http://www.w3.org/1999/xlink" version="1.1" x="0" y="0" width="16" height="16" overflow="auto" preserveAspectRatio="xMidYMid" baseProfile="tiny" space="preserve">
  <path d="M1504 -64 Q1518 -64 1527 -73 Q1536 -82 1536 -96 L1536 -224 Q1536 -238 1527 -247 Q1518 -256 1504 -256 L32 -256 Q18 -256 9 -247 Q0 -238 0 -224 L0 -96 Q0 -82 9 -73 Q18 -64 32 -64 L1504 -64 z M130 0 Q133 55 146 107 Q159 159 176 202 Q193 245 222 289 Q251 333 275.5 365 Q300 397 340 434.5 Q380 472 406 494.5 Q432 517 476.5 549.5 Q521 582 543 597 Q565 612 608 640 Q565 668 543 683 Q521 698 476.5 730.5 Q432 763 406 785.5 Q380 808 340 845.5 Q300 883 275.5 915 Q251 947 222 991 Q193 1035 176 1078 Q159 1121 146 1173 Q133 1225 130 1280 L1406 1280 Q1403 1225 1390 1173 Q1377 1121 1360 1078 Q1343 1035 1314 991 Q1285 947 1260.5 915 Q1236 883 1196 845.5 Q1156 808 1130 785.5 Q1104 763 1059.5 730.5 Q1015 698 993 683 Q971 668 928 640 Q971 612 993 597 Q1015 582 1059.5 549.5 Q1104 517 1130 494.5 Q1156 472 1196 434.5 Q1236 397 1260.5 365 Q1285 333 1314 289 Q1343 245 1360 202 Q1377 159 1390 107 Q1403 55 1406 0 L130 0 z M1504 1536 Q1518 1536 1527 1527 Q1536 1518 1536 1504 L1536 1376 Q1536 1362 1527 1353 Q1518 1344 1504 1344 L32 1344 Q18 1344 9 1353 Q0 1362 0 1376 L0 1504 Q0 1518 9 1527 Q18 1536 32 1536 L1504 1536 z" pathLength="0" fill="White" transform="translate(1.142857, 9.536743E-07) scale(0.008928572, -0.008928572) translate(0, -1536)" />
</svg>