<!DOCTYPE svg PUBLIC "-//W3C//DTD SVG 1.1//EN" "http://www.w3.org/Graphics/SVG/1.1/DTD/svg11.dtd">
<svg xmlns="http://www.w3.org/2000/svg" xmlns:xlink="http://www.w3.org/1999/xlink" version="1.1" x="0" y="0" width="16" height="16" overflow="auto" preserveAspectRatio="xMidYMid" baseProfile="tiny" space="preserve">
  <path d="M1024 160 L1024 320 Q1024 334 1015 343 Q1006 352 992 352 L896 352 L896 864 Q896 878 887 887 Q878 896 864 896 L544 896 Q530 896 521 887 Q512 878 512 864 L512 704 Q512 690 521 681 Q530 672 544 672 L640 672 L640 352 L544 352 Q530 352 521 343 Q512 334 512 320 L512 160 Q512 146 521 137 Q530 128 544 128 L992 128 Q1006 128 1015 137 Q1024 146 1024 160 z M896 1056 L896 1216 Q896 1230 887 1239 Q878 1248 864 1248 L672 1248 Q658 1248 649 1239 Q640 1230 640 1216 L640 1056 Q640 1042 649 1033 Q658 1024 672 1024 L864 1024 Q878 1024 887 1033 Q896 1042 896 1056 z M1536 640 Q1536 431 1433 254.5 Q1330 78 1153.5 -25 Q977 -128 768 -128 Q559 -128 382.5 -25 Q206 78 103 254.5 Q0 431 0 640 Q0 849 103 1025.5 Q206 1202 382.5 1305 Q559 1408 768 1408 Q977 1408 1153.5 1305 Q1330 1202 1433 1025.5 Q1536 849 1536 640 z" pathLength="0" fill="White" transform="translate(1.142857, 1.311302E-06) scale(0.008928572, -0.008928572) translate(0, -1536)" />
</svg>