<!DOCTYPE svg PUBLIC "-//W3C//DTD SVG 1.1//EN" "http://www.w3.org/Graphics/SVG/1.1/DTD/svg11.dtd">
<svg xmlns="http://www.w3.org/2000/svg" xmlns:xlink="http://www.w3.org/1999/xlink" version="1.1" x="0" y="0" width="16" height="16" overflow="auto" preserveAspectRatio="xMidYMid" baseProfile="tiny" space="preserve">
  <path d="M1362 110 L1362 758 L1227 758 Q1247 695 1247 627 Q1247 501 1183 394.5 Q1119 288 1009 226 Q899 164 769 164 Q572 164 432 299.5 Q292 435 292 627 Q292 695 312 758 L171 758 L171 110 Q171 84 188.5 66.5 Q206 49 232 49 L1301 49 Q1326 49 1344 66.5 Q1362 84 1362 110 z M1078 643 Q1078 767 987.5 854.5 Q897 942 769 942 Q642 942 551.5 854.5 Q461 767 461 643 Q461 519 551.5 431.5 Q642 344 769 344 Q897 344 987.5 431.5 Q1078 519 1078 643 z M1362 1003 L1362 1168 Q1362 1196 1342 1216.5 Q1322 1237 1293 1237 L1119 1237 Q1090 1237 1070 1216.5 Q1050 1196 1050 1168 L1050 1003 Q1050 974 1070 954 Q1090 934 1119 934 L1293 934 Q1322 934 1342 954 Q1362 974 1362 1003 z M1536 1211 L1536 69 Q1536 -12 1478 -70 Q1420 -128 1339 -128 L197 -128 Q116 -128 58 -70 Q0 -12 0 69 L0 1211 Q0 1292 58 1350 Q116 1408 197 1408 L1339 1408 Q1420 1408 1478 1350 Q1536 1292 1536 1211 z" pathLength="0" fill="White" transform="translate(1.142857, 1.311302E-06) scale(0.008928572, -0.008928572) translate(0, -1536)" />
</svg>