<!DOCTYPE svg PUBLIC "-//W3C//DTD SVG 1.1//EN" "http://www.w3.org/Graphics/SVG/1.1/DTD/svg11.dtd">
<svg xmlns="http://www.w3.org/2000/svg" xmlns:xlink="http://www.w3.org/1999/xlink" version="1.1" x="0" y="0" width="16" height="16" overflow="auto" preserveAspectRatio="xMidYMid" baseProfile="tiny" space="preserve">
  <path d="M960 1536 L1920 1152 L1920 1024 L1792 1024 Q1792 998 1771.5 979 Q1751 960 1723 960 L197 960 Q169 960 148.5 979 Q128 998 128 1024 L0 1024 L0 1152 z M256 896 L512 896 L512 128 L640 128 L640 896 L896 896 L896 128 L1024 128 L1024 896 L1280 896 L1280 128 L1408 128 L1408 896 L1664 896 L1664 128 L1723 128 Q1751 128 1771.5 109 Q1792 90 1792 64 L1792 0 L128 0 L128 64 Q128 90 148.5 109 Q169 128 197 128 L256 128 L256 896 z M1851 -64 Q1879 -64 1899.5 -83 Q1920 -102 1920 -128 L1920 -256 L0 -256 L0 -128 Q0 -102 20.5 -83 Q41 -64 69 -64 L1851 -64 z" pathLength="0" fill="White" transform="translate(-0.5714283, 9.536743E-07) scale(0.008928572, -0.008928572) translate(0, -1536)" />
</svg>