<!DOCTYPE svg PUBLIC "-//W3C//DTD SVG 1.1//EN" "http://www.w3.org/Graphics/SVG/1.1/DTD/svg11.dtd">
<svg xmlns="http://www.w3.org/2000/svg" xmlns:xlink="http://www.w3.org/1999/xlink" version="1.1" x="0" y="0" width="16" height="16" overflow="auto" preserveAspectRatio="xMidYMid" baseProfile="tiny" space="preserve">
  <path d="M716 -69 Q573 -34 454.5 45 Q336 124 257 236 Q118 -64 240 -162 Q266 -183 325 -186.5 Q384 -190 452.5 -177 Q521 -164 593.5 -135.5 Q666 -107 716 -69 z M693 762 L1145 762 Q1145 870 1083.5 931 Q1022 992 915 992 Q812 992 752.5 929.5 Q693 867 693 762 z M1724 1137 L1690 1137 Q1716 1239 1712.5 1307 Q1709 1375 1687.5 1417 Q1666 1459 1624 1474 Q1582 1489 1530.5 1485 Q1479 1481 1415.5 1458.5 Q1352 1436 1287 1402 Q1222 1368 1153 1323 Q1282 1286 1391.5 1209.5 Q1501 1133 1576.5 1030.5 Q1652 928 1686.5 799 Q1721 670 1702 537 L697 537 Q697 477 707 431 Q717 385 741 346 Q765 307 810.5 286 Q856 265 923 265 Q1010 265 1065.5 309 Q1121 353 1138 431 L1678 431 Q1607 201 1396.5 54 Q1186 -93 919 -93 Q836 -93 760 -78 Q725 -118 609 -172 Q493 -226 361 -250 Q229 -274 142 -215 Q64 -155 42 -56 Q20 43 49 158 Q78 273 137 400 Q196 527 280.5 648 Q365 769 454 874.5 Q543 980 631.5 1058 Q720 1136 788 1170 L788 1194 Q668 1157 529.5 1056.5 Q391 956 289 849.5 Q187 743 130 654 Q134 760 164 855 Q194 950 244 1024 Q294 1098 362 1159.5 Q430 1221 509.5 1260 Q589 1299 677.5 1325.5 Q766 1352 858 1355 Q950 1358 1043 1347 Q1353 1533 1546 1536 L1553 1536 Q1610 1536 1656 1518 Q1736 1488 1754 1385.5 Q1772 1283 1724 1137 z" pathLength="0" fill="White" transform="translate(-0.005951867, -0.04464102) scale(0.008928572, -0.008928572) translate(0, -1536)" />
</svg>