<!DOCTYPE svg PUBLIC "-//W3C//DTD SVG 1.1//EN" "http://www.w3.org/Graphics/SVG/1.1/DTD/svg11.dtd">
<svg xmlns="http://www.w3.org/2000/svg" xmlns:xlink="http://www.w3.org/1999/xlink" version="1.1" x="0" y="0" width="16" height="16" overflow="auto" preserveAspectRatio="xMidYMid" baseProfile="tiny" space="preserve">
  <path d="M1024 1504 Q1024 1518 1033 1527 Q1042 1536 1056 1536 L1344 1536 Q1370 1536 1389 1517 Q1408 1498 1408 1472 L1408 1184 Q1408 1170 1399 1161 Q1390 1152 1376 1152 L1312 1152 Q1298 1152 1289 1161 Q1280 1170 1280 1184 L1280 1318 L1026 1063 Q1152 905 1152 704 Q1152 483 1004.5 319.5 Q857 156 640 132 L640 0 L736 0 Q750 0 759 -9 Q768 -18 768 -32 L768 -96 Q768 -110 759 -119 Q750 -128 736 -128 L640 -128 L640 -224 Q640 -238 631 -247 Q622 -256 608 -256 L544 -256 Q530 -256 521 -247 Q512 -238 512 -224 L512 -128 L416 -128 Q402 -128 393 -119 Q384 -110 384 -96 L384 -32 Q384 -18 393 -9 Q402 0 416 0 L512 0 L512 132 Q363 148 241.5 235 Q120 322 55 458.5 Q-10 595 2 750 Q18 954 162 1103.5 Q306 1253 509 1276 Q627 1290 737 1257 Q847 1224 935 1154 L1190 1408 L1056 1408 Q1042 1408 1033 1417 Q1024 1426 1024 1440 L1024 1504 z M576 256 Q761 256 892.5 387.5 Q1024 519 1024 704 Q1024 889 892.5 1020.5 Q761 1152 576 1152 Q391 1152 259.5 1020.5 Q128 889 128 704 Q128 519 259.5 387.5 Q391 256 576 256 z" pathLength="0" fill="White" transform="translate(1.741072, 9.536743E-07) scale(0.008928572, -0.008928572) translate(0, -1536)" />
</svg>