<!DOCTYPE svg PUBLIC "-//W3C//DTD SVG 1.1//EN" "http://www.w3.org/Graphics/SVG/1.1/DTD/svg11.dtd">
<svg xmlns="http://www.w3.org/2000/svg" xmlns:xlink="http://www.w3.org/1999/xlink" version="1.1" x="0" y="0" width="16" height="16" overflow="auto" preserveAspectRatio="xMidYMid" baseProfile="tiny" space="preserve">
  <path d="M1463 704 Q1463 669 1438 643.5 Q1413 618 1377 618 L675 618 Q639 618 614 643.5 Q589 669 589 704 Q589 739 614 764.5 Q639 790 675 790 L1377 790 Q1413 790 1438 764.5 Q1463 739 1463 704 z M1677 704 Q1677 790 1654 874 L672 874 Q636 874 611 899 Q586 924 586 959 Q586 995 611 1020 Q636 1045 672 1045 L1580 1045 Q1492 1188 1345 1272 Q1198 1356 1025 1356 Q848 1356 697.5 1268.5 Q547 1181 459.5 1031 Q372 881 372 704 Q372 618 395 534 L1377 534 Q1413 534 1438 509 Q1463 484 1463 449 Q1463 413 1438 388 Q1413 363 1377 363 L469 363 Q557 220 704.5 136 Q852 52 1025 52 Q1157 52 1278 103.5 Q1399 155 1486 242.5 Q1573 330 1625 450.5 Q1677 571 1677 704 z M2048 959 Q2048 924 2023 899 Q1998 874 1962 874 L1831 874 Q1848 789 1848 704 Q1848 537 1782.5 384.5 Q1717 232 1607 121.5 Q1497 11 1344.5 -54.5 Q1192 -120 1025 -120 Q779 -120 576.5 13 Q374 146 275 363 L86 363 Q50 363 25 388 Q0 413 0 449 Q0 484 25 509 Q50 534 86 534 L218 534 Q201 619 201 704 Q201 871 266.5 1023.5 Q332 1176 442 1286.5 Q552 1397 704.5 1462.5 Q857 1528 1025 1528 Q1270 1528 1472.5 1395 Q1675 1262 1774 1045 L1962 1045 Q1998 1045 2023 1020 Q2048 995 2048 959 z" pathLength="0" fill="White" transform="translate(-1.142858, 0.5714294) scale(0.008928572, -0.008928572) translate(0, -1536)" />
</svg>