<!DOCTYPE svg PUBLIC "-//W3C//DTD SVG 1.1//EN" "http://www.w3.org/Graphics/SVG/1.1/DTD/svg11.dtd">
<svg xmlns="http://www.w3.org/2000/svg" xmlns:xlink="http://www.w3.org/1999/xlink" version="1.1" x="0" y="0" width="16" height="16" overflow="auto" preserveAspectRatio="xMidYMid" baseProfile="tiny" space="preserve">
  <path d="M0 -126 L17 -41 Q23 -39 98.5 -19.5 Q174 0 210 18 Q238 53 251 119 Q252 126 313 408 Q374 690 427 951.5 Q480 1213 479 1248 L479 1273 Q455 1286 424.5 1291.5 Q394 1297 355 1299.5 Q316 1302 297 1305 L316 1408 Q349 1406 436 1401.5 Q523 1397 585.5 1394.5 Q648 1392 706 1392 Q754 1392 804.5 1394.5 Q855 1397 925.5 1401.5 Q996 1406 1024 1408 Q1019 1369 1005 1319 Q975 1309 903.5 1290.5 Q832 1272 795 1257 Q787 1238 781 1214.5 Q775 1191 772 1174.5 Q769 1158 764.5 1129 Q760 1100 758 1087 Q731 939 670.5 667.5 Q610 396 593 312 Q591 303 580 254 Q569 205 560 164 Q551 123 544 80.5 Q537 38 538 23 L539 5 Q556 1 724 -26 Q721 -70 708 -125 Q697 -125 675.5 -126.5 Q654 -128 643 -128 Q614 -128 556 -118 Q498 -108 470 -108 Q332 -106 264 -106 Q213 -106 121 -115 Q29 -124 0 -126 z" pathLength="0" fill="White" transform="translate(3.428571, 1.311302E-06) scale(0.008928572, -0.008928572) translate(0, -1536)" />
</svg>