<!DOCTYPE svg PUBLIC "-//W3C//DTD SVG 1.1//EN" "http://www.w3.org/Graphics/SVG/1.1/DTD/svg11.dtd">
<svg xmlns="http://www.w3.org/2000/svg" xmlns:xlink="http://www.w3.org/1999/xlink" version="1.1" x="0" y="0" width="16" height="16" overflow="auto" preserveAspectRatio="xMidYMid" baseProfile="tiny" space="preserve">
  <path d="M1070 463 L910 303 L759 151 L729 121 Q664 57 577.5 34 Q491 11 406 32 Q390 -38 334 -83 Q278 -128 205 -128 Q120 -128 60 -67.5 Q0 -7 0 78 Q0 150 44.5 206 Q89 262 158 278 Q136 364 159 451 Q182 538 247 603 L259 615 L410 463 L399 452 Q362 415 362 363 Q362 311 399 273 Q436 236 488 236 Q540 236 577 273 L607 303 L758 455 L919 615 z M729 1145 L741 1133 L589 981 L577 993 Q540 1030 488 1030 Q436 1030 399 993 Q362 956 362 903.5 Q362 851 399 814 L428 785 L580 633 L740 473 L589 321 L428 481 L277 633 L247 663 Q179 730 157 822.5 Q135 915 162 1002 Q92 1017 47 1073 Q2 1129 2 1202 Q2 1287 62 1347.5 Q122 1408 207 1408 Q283 1408 340.5 1359 Q398 1310 410 1236 Q494 1256 579.5 1232.5 Q665 1209 729 1145 z M1536 78 Q1536 -7 1476 -67.5 Q1416 -128 1331 -128 Q1257 -128 1200 -81 Q1143 -34 1129 37 Q1043 9 949.5 31 Q856 53 788 121 L777 133 L928 285 L940 273 Q977 236 1029 236 Q1081 236 1118 273 Q1155 310 1155 362 Q1155 414 1118 451 L1088 481 L936 633 L776 793 L928 945 L1088 785 L1240 633 L1269 603 Q1333 539 1356.5 452.5 Q1380 366 1359 281 Q1435 270 1485.5 212.5 Q1536 155 1536 78 z M1534 1202 Q1534 1125 1483 1067 Q1432 1009 1356 998 Q1382 913 1359 821.5 Q1336 730 1269 663 L1257 651 L1106 803 L1118 815 Q1155 852 1155 904 Q1155 956 1118 993 Q1081 1030 1029 1030 Q977 1030 940 993 L910 963 L758 811 L598 651 L446 803 L607 963 L759 1115 L788 1145 Q855 1212 947 1234.5 Q1039 1257 1125 1231 Q1136 1306 1193.5 1357 Q1251 1408 1329 1408 Q1414 1408 1474 1347.5 Q1534 1287 1534 1202 z" pathLength="0" fill="White" transform="translate(1.142857, 1.311302E-06) scale(0.008928572, -0.008928572) translate(0, -1536)" />
</svg>