<!DOCTYPE svg PUBLIC "-//W3C//DTD SVG 1.1//EN" "http://www.w3.org/Graphics/SVG/1.1/DTD/svg11.dtd">
<svg xmlns="http://www.w3.org/2000/svg" xmlns:xlink="http://www.w3.org/1999/xlink" version="1.1" x="0" y="0" width="16" height="16" overflow="auto" preserveAspectRatio="xMidYMid" baseProfile="tiny" space="preserve">
  <path d="M1800 764 Q1911 718 1979.5 618.5 Q2048 519 2048 397 Q2048 233 1930 116.5 Q1812 0 1645 0 Q1641 0 1633.5 0.5 Q1626 1 1623 1 L414 1 L413 1 L411 1 L406 1 Q236 11 118 126.5 Q0 242 0 407 Q0 517 55 610 Q110 703 202 757 Q190 796 190 839 Q190 954 272 1035 Q354 1116 471 1116 Q566 1116 643 1058 Q718 1212 865.5 1306 Q1013 1400 1192 1400 Q1358 1400 1498 1319.5 Q1638 1239 1719.5 1101 Q1801 963 1801 800 Q1801 794 1800.5 782 Q1800 770 1800 764 z M468 498 Q468 376 552 305 Q636 234 760 234 Q897 234 1000 333 Q984 353 952.5 389.5 Q921 426 909 440 Q842 375 765 375 Q710 375 671.5 408.5 Q633 442 633 496 Q633 549 671.5 583 Q710 617 763 617 Q807 617 847.5 596 Q888 575 920.5 541 Q953 507 985.5 466 Q1018 425 1054.5 384 Q1091 343 1131.5 309 Q1172 275 1228.5 254 Q1285 233 1350 233 Q1471 233 1554.5 304.5 Q1638 376 1638 495 Q1638 616 1554 687 Q1470 758 1347 758 Q1204 758 1106 661 Q1120 645 1135.5 627 Q1151 609 1170 587 Q1189 565 1199 553 Q1265 617 1341 617 Q1393 617 1433 584 Q1473 551 1473 500 Q1473 443 1436 408.5 Q1399 374 1342 374 Q1299 374 1259.5 395 Q1220 416 1187.5 450 Q1155 484 1122 525 Q1089 566 1052.5 607 Q1016 648 975 682 Q934 716 878.5 737 Q823 758 760 758 Q638 758 553 687.5 Q468 617 468 498 z" pathLength="0" fill="White" transform="translate(-1.142858, 0.5357152) scale(0.008928572, -0.008928572) translate(0, -1536)" />
</svg>