<!DOCTYPE svg PUBLIC "-//W3C//DTD SVG 1.1//EN" "http://www.w3.org/Graphics/SVG/1.1/DTD/svg11.dtd">
<svg xmlns="http://www.w3.org/2000/svg" xmlns:xlink="http://www.w3.org/1999/xlink" version="1.1" x="0" y="0" width="16" height="16" overflow="auto" preserveAspectRatio="xMidYMid" baseProfile="tiny" space="preserve">
  <path d="M832 1024 Q832 1104 776 1160 Q720 1216 640 1216 Q560 1216 504 1160 Q448 1104 448 1024 Q448 982 467 941 Q426 960 384 960 Q304 960 248 904 Q192 848 192 768 Q192 688 248 632 Q304 576 384 576 Q464 576 520 632 Q576 688 576 768 Q576 810 557 851 Q598 832 640 832 Q720 832 776 888 Q832 944 832 1024 z M1683 320 Q1683 303 1634 254 Q1585 205 1568 205 Q1559 205 1539.5 221 Q1520 237 1503 254 Q1486 271 1464.5 294 Q1443 317 1440 320 L1344 224 L1564 4 Q1592 -24 1592 -64 Q1592 -106 1553 -145 Q1514 -184 1472 -184 Q1432 -184 1404 -156 L733 515 Q557 384 368 384 Q205 384 102.5 486.5 Q0 589 0 752 Q0 912 95 1065 Q190 1218 343 1313 Q496 1408 656 1408 Q819 1408 921.5 1305.5 Q1024 1203 1024 1040 Q1024 851 893 675 L1248 320 L1344 416 Q1341 419 1318 440.5 Q1295 462 1278 479 Q1261 496 1245 515.5 Q1229 535 1229 544 Q1229 561 1278 610 Q1327 659 1344 659 Q1357 659 1367 649 Q1373 643 1413 604.5 Q1453 566 1495 525 Q1537 484 1581.5 439 Q1626 394 1654.5 361 Q1683 328 1683 320 z" pathLength="0" fill="White" transform="translate(0.4866071, -0.2499987) scale(0.008928572, -0.008928572) translate(0, -1536)" />
</svg>