<!DOCTYPE svg PUBLIC "-//W3C//DTD SVG 1.1//EN" "http://www.w3.org/Graphics/SVG/1.1/DTD/svg11.dtd">
<svg xmlns="http://www.w3.org/2000/svg" xmlns:xlink="http://www.w3.org/1999/xlink" version="1.1" x="0" y="0" width="16" height="16" overflow="auto" preserveAspectRatio="xMidYMid" baseProfile="tiny" space="preserve">
  <path d="M384 368 L384 272 Q384 256 368 256 L272 256 Q256 256 256 272 L256 368 Q256 384 272 384 L368 384 Q384 384 384 368 z M512 624 L512 528 Q512 512 496 512 L272 512 Q256 512 256 528 L256 624 Q256 640 272 640 L496 640 Q512 640 512 624 z M384 880 L384 784 Q384 768 368 768 L272 768 Q256 768 256 784 L256 880 Q256 896 272 896 L368 896 Q384 896 384 880 z M1408 368 L1408 272 Q1408 256 1392 256 L528 256 Q512 256 512 272 L512 368 Q512 384 528 384 L1392 384 Q1408 384 1408 368 z M768 624 L768 528 Q768 512 752 512 L656 512 Q640 512 640 528 L640 624 Q640 640 656 640 L752 640 Q768 640 768 624 z M640 880 L640 784 Q640 768 624 768 L528 768 Q512 768 512 784 L512 880 Q512 896 528 896 L624 896 Q640 896 640 880 z M1024 624 L1024 528 Q1024 512 1008 512 L912 512 Q896 512 896 528 L896 624 Q896 640 912 640 L1008 640 Q1024 640 1024 624 z M896 880 L896 784 Q896 768 880 768 L784 768 Q768 768 768 784 L768 880 Q768 896 784 896 L880 896 Q896 896 896 880 z M1280 624 L1280 528 Q1280 512 1264 512 L1168 512 Q1152 512 1152 528 L1152 624 Q1152 640 1168 640 L1264 640 Q1280 640 1280 624 z M1664 368 L1664 272 Q1664 256 1648 256 L1552 256 Q1536 256 1536 272 L1536 368 Q1536 384 1552 384 L1648 384 Q1664 384 1664 368 z M1152 880 L1152 784 Q1152 768 1136 768 L1040 768 Q1024 768 1024 784 L1024 880 Q1024 896 1040 896 L1136 896 Q1152 896 1152 880 z M1408 880 L1408 784 Q1408 768 1392 768 L1296 768 Q1280 768 1280 784 L1280 880 Q1280 896 1296 896 L1392 896 Q1408 896 1408 880 z M1664 880 L1664 528 Q1664 512 1648 512 L1424 512 Q1408 512 1408 528 L1408 624 Q1408 640 1424 640 L1536 640 L1536 880 Q1536 896 1552 896 L1648 896 Q1664 896 1664 880 z M1792 128 L1792 1024 L128 1024 L128 128 L1792 128 z M1920 1024 L1920 128 Q1920 75 1882.5 37.5 Q1845 0 1792 0 L128 0 Q75 0 37.5 37.5 Q0 75 0 128 L0 1024 Q0 1077 37.5 1114.5 Q75 1152 128 1152 L1792 1152 Q1845 1152 1882.5 1114.5 Q1920 1077 1920 1024 z" pathLength="0" fill="White" transform="translate(-0.5714283, -0.5714276) scale(0.008928572, -0.008928572) translate(0, -1536)" />
</svg>