<!DOCTYPE svg PUBLIC "-//W3C//DTD SVG 1.1//EN" "http://www.w3.org/Graphics/SVG/1.1/DTD/svg11.dtd">
<svg xmlns="http://www.w3.org/2000/svg" xmlns:xlink="http://www.w3.org/1999/xlink" version="1.1" x="0" y="0" width="16" height="16" overflow="auto" preserveAspectRatio="xMidYMid" baseProfile="tiny" space="preserve">
  <path d="M654 458 Q653 455 641.5 458.5 Q630 462 610 470 L590 479 Q546 499 503 528 Q496 533 462 559.5 Q428 586 424 588 Q357 485 290 407 Q209 312 185 297 Q181 295 165.5 293 Q150 291 147 293 Q153 297 229 385 Q250 409 314.5 500 Q379 591 393 618 Q410 648 444 716.5 Q478 785 480 794 Q472 795 370 761 Q362 759 342.5 753.5 Q323 748 308 744 Q293 740 291 739 Q289 737 289 728.5 Q289 720 288 719 Q283 709 257 704 Q234 697 210 704 Q192 708 182 725 Q178 731 177 748 Q183 750 201.5 753 Q220 756 231 759 Q289 775 336 791 Q436 826 438 826 Q448 828 481 845.5 Q514 863 525 867 Q534 870 546.5 875 Q559 880 561 880.5 Q563 881 567 880 Q569 868 566 847 Q566 845 553.5 820 Q541 795 527 766.5 Q513 738 510 733 Q485 683 433 602 L497 574 Q509 568 571.5 542 Q634 516 639 514 Q643 513 649.5 488.5 Q656 464 654 458 z M449 944 Q452 929 445 916 Q433 893 395 878 Q365 866 335 866 Q309 869 286 892 Q272 907 268 933 L269 936 Q272 933 288.5 931 Q305 929 315 931 Q325 933 373 947 Q409 959 428 961 Q445 961 449 944 z M1147 815 L1210 588 L1071 630 z M39 15 L733 247 L733 1279 L39 1046 L39 15 z M1280 332 L1382 301 L1201 958 L1101 989 L885 453 L987 422 L1032 532 L1243 467 z M777 1294 L1350 1110 L1350 1490 z M1088 -29 L1246 -42 L1192 -202 L1152 -136 Q1022 -219 876 -244 Q818 -256 785 -256 L701 -256 Q622 -256 501.5 -217 Q381 -178 318 -132 Q310 -125 310 -116 Q310 -108 315 -102.5 Q320 -97 328 -97 Q332 -97 346 -104.5 Q360 -112 376.5 -121 Q393 -130 397 -132 Q470 -169 556.5 -193.5 Q643 -218 714 -218 Q809 -218 881 -203.5 Q953 -189 1038 -153 Q1053 -146 1068.5 -137.5 Q1084 -129 1102.5 -118.5 Q1121 -108 1131 -102 z M1536 1050 L1536 -29 L762 217 Q748 211 387 89.5 Q26 -32 19 -32 Q6 -32 1 -19 Q1 -18 0 -16 L0 1062 Q3 1071 4 1072 Q9 1078 24 1083 Q130 1118 173 1133 L173 1517 L731 1319 Q733 1319 891.5 1374 Q1050 1429 1207.5 1482.5 Q1365 1536 1369 1536 Q1389 1536 1389 1515 L1389 1097 z" pathLength="0" fill="White" transform="translate(1.142857, 9.536743E-07) scale(0.008928572, -0.008928572) translate(0, -1536)" />
</svg>