<!DOCTYPE svg PUBLIC "-//W3C//DTD SVG 1.1//EN" "http://www.w3.org/Graphics/SVG/1.1/DTD/svg11.dtd">
<svg xmlns="http://www.w3.org/2000/svg" xmlns:xlink="http://www.w3.org/1999/xlink" version="1.1" x="0" y="0" width="16" height="16" overflow="auto" preserveAspectRatio="xMidYMid" baseProfile="tiny" space="preserve">
  <path d="M416 256 Q350 256 303 303 Q256 350 256 416 L256 1120 Q256 1186 303 1233 Q350 1280 416 1280 L1504 1280 Q1570 1280 1617 1233 Q1664 1186 1664 1120 L1664 416 Q1664 350 1617 303 Q1570 256 1504 256 L416 256 z M384 1120 L384 416 Q384 403 393.5 393.5 Q403 384 416 384 L1504 384 Q1517 384 1526.5 393.5 Q1536 403 1536 416 L1536 1120 Q1536 1133 1526.5 1142.5 Q1517 1152 1504 1152 L416 1152 Q403 1152 393.5 1142.5 Q384 1133 384 1120 z M1760 192 L1920 192 L1920 96 Q1920 56 1873 28 Q1826 0 1760 0 L160 0 Q94 0 47 28 Q0 56 0 96 L0 192 L160 192 L1760 192 z M1040 96 Q1056 96 1056 112 Q1056 128 1040 128 L880 128 Q864 128 864 112 Q864 96 880 96 L1040 96 z" pathLength="0" fill="White" transform="translate(-0.5714283, 7.152557E-07) scale(0.008928572, -0.008928572) translate(0, -1536)" />
</svg>