<!DOCTYPE svg PUBLIC "-//W3C//DTD SVG 1.1//EN" "http://www.w3.org/Graphics/SVG/1.1/DTD/svg11.dtd">
<svg xmlns="http://www.w3.org/2000/svg" xmlns:xlink="http://www.w3.org/1999/xlink" version="1.1" x="0" y="0" width="16" height="16" overflow="auto" preserveAspectRatio="xMidYMid" baseProfile="tiny" space="preserve">
  <path d="M1292 832 Q1292 826 1302 791 Q1312 762 1327 741.5 Q1342 721 1368 707.5 Q1394 694 1412 687.5 Q1430 681 1467 671 Q1792 580 1792 339 Q1792 193 1686.5 96.5 Q1581 0 1432 0 Q1373 0 1320.5 18.5 Q1268 37 1229 64 Q1190 91 1152 138.5 Q1114 186 1089 226 Q1064 266 1035.5 329.5 Q1007 393 992 432.5 Q977 472 952.5 539 Q928 606 917 634 Q885 715 855.5 767.5 Q826 820 782 864 Q738 908 678 928 Q618 948 536 948 Q440 948 353 892.5 Q266 837 215 748 Q164 659 164 563 Q164 403 270.5 283.5 Q377 164 534 164 Q711 164 792 259 Q848 322 875 375 L959 223 Q944 189 915 153 L916 152 Q785 0 528 0 Q381 0 258.5 79 Q136 158 68 286.5 Q0 415 0 561 Q0 666 43.5 767 Q87 868 159.5 943.5 Q232 1019 331.5 1065 Q431 1111 536 1111 Q623 1111 695 1092 Q767 1073 818.5 1042 Q870 1011 913.5 962 Q957 913 986 863 Q1015 813 1044.5 746 Q1074 679 1095 621.5 Q1116 564 1145 491 Q1174 418 1200 364 Q1296 164 1433 164 Q1514 164 1571.5 212.5 Q1629 261 1629 341 Q1629 383 1610 413 Q1591 443 1559.5 459 Q1528 475 1487 490.5 Q1446 506 1402.5 517.5 Q1359 529 1315 551.5 Q1271 574 1234 603.5 Q1197 633 1169 685.5 Q1141 738 1130 808 Q1127 824 1127 841 Q1127 951 1214.5 1033 Q1302 1115 1413 1111 Q1491 1108 1533.5 1096.5 Q1576 1085 1624 1043 L1623 1043 Q1635 1032 1646 1018.5 Q1657 1005 1672 982.5 Q1687 960 1691 955 L1562 856 Q1536 905 1508 926 L1508 927 Q1485 948 1411 948 Q1362 948 1327 915 Q1292 882 1292 832 z" pathLength="0" fill="White" transform="translate(0, -0.7425587) scale(0.008928572, -0.008928572) translate(0, -1536)" />
</svg>