<!DOCTYPE svg PUBLIC "-//W3C//DTD SVG 1.1//EN" "http://www.w3.org/Graphics/SVG/1.1/DTD/svg11.dtd">
<svg xmlns="http://www.w3.org/2000/svg" xmlns:xlink="http://www.w3.org/1999/xlink" version="1.1" x="0" y="0" width="16" height="16" overflow="auto" preserveAspectRatio="xMidYMid" baseProfile="tiny" space="preserve">
  <path d="M1432 484 Q1432 657 1198 723 Q1163 733 1145 739.5 Q1127 746 1107 764.5 Q1087 783 1078 811 Q1078 813 1076 819.5 Q1074 826 1073 831.5 Q1072 837 1072 839 Q1072 875 1096.5 898.5 Q1121 922 1157 922 Q1211 922 1228 907 L1227 907 Q1247 892 1266 856 L1359 927 Q1320 981 1310 991 Q1277 1020 1242.5 1030 Q1208 1040 1157 1040 Q1077 1040 1015 982.5 Q953 925 953 845 Q953 838 955 822 Q971 726 1019.5 682 Q1068 638 1168 609 Q1197 601 1217 593.5 Q1237 586 1262 572 Q1287 558 1300.5 537.5 Q1314 517 1314 491 L1314 486 Q1315 428 1273.5 393 Q1232 358 1173 358 Q1076 358 1006 502 Q983 549 954.5 623.5 Q926 698 906.5 749 Q887 800 852.5 859.5 Q818 919 778.5 955 Q739 991 675 1015.5 Q611 1040 528 1040 Q427 1040 336 984 Q245 928 192 836 Q139 744 142 644 L142 643 Q146 535 192.5 444 Q239 353 326 296.5 Q413 240 522 240 Q708 240 801 350 Q821 377 832 401 L772 510 Q730 430 673 394 Q616 358 527 358 Q412 358 336 445 Q260 532 260 649 Q260 754 342 838 Q424 922 528 922 Q640 922 698 868.5 Q756 815 802 696 Q810 675 827.5 627.5 Q845 580 856 551 Q867 522 887.5 476.5 Q908 431 926 402.5 Q944 374 971.5 340 Q999 306 1027 286.5 Q1055 267 1093 253.5 Q1131 240 1173 240 Q1280 240 1356 309.5 Q1432 379 1432 484 z M1536 1120 L1536 160 Q1536 41 1451.5 -43.5 Q1367 -128 1248 -128 L288 -128 Q169 -128 84.5 -43.5 Q0 41 0 160 L0 1120 Q0 1239 84.5 1323.5 Q169 1408 288 1408 L1248 1408 Q1367 1408 1451.5 1323.5 Q1536 1239 1536 1120 z" pathLength="0" fill="White" transform="translate(1.142857, 1.311302E-06) scale(0.008928572, -0.008928572) translate(0, -1536)" />
</svg>