<!DOCTYPE svg PUBLIC "-//W3C//DTD SVG 1.1//EN" "http://www.w3.org/Graphics/SVG/1.1/DTD/svg11.dtd">
<svg xmlns="http://www.w3.org/2000/svg" xmlns:xlink="http://www.w3.org/1999/xlink" version="1.1" x="0" y="0" width="16" height="16" overflow="auto" preserveAspectRatio="xMidYMid" baseProfile="tiny" space="preserve">
  <path d="M1280 832 Q1280 858 1261 877 Q1242 896 1216 896 Q1044 896 898 846.5 Q752 797 638.5 712.5 Q525 628 403 493 Q384 472 384 448 Q384 422 403 403 Q422 384 448 384 Q472 384 493 403 Q520 427 567 474 Q614 521 634 540 Q771 664 902.5 716 Q1034 768 1216 768 Q1242 768 1261 787 Q1280 806 1280 832 z M1792 1030 Q1792 935 1772 837 Q1726 613 1587.5 454 Q1449 295 1230 186 Q1016 78 792 78 Q644 78 506 125 Q491 130 418 167 Q345 204 322 204 Q306 204 282.5 172 Q259 140 237.5 102 Q216 64 185 32 Q154 0 125 0 Q95 0 74 11 Q53 22 43 35 Q33 48 16 77 Q14 81 10 88 Q6 95 4.5 98 Q3 101 1.5 107.5 Q0 114 0 121 Q0 156 31 194.5 Q62 233 99 260 Q136 287 167 316 Q198 345 198 364 Q198 368 184 402 Q170 436 168 446 Q159 497 159 550 Q159 665 202.5 770 Q246 875 321.5 954.5 Q397 1034 492 1093.5 Q587 1153 696 1189 Q751 1207 841 1214.5 Q931 1222 1020.5 1223.5 Q1110 1225 1199 1229.5 Q1288 1234 1362.5 1253.5 Q1437 1273 1476 1310 L1505.5 1339.5 Q1505.5 1339.5 1535 1367.5 Q1564.5 1395.5 1562 1387.5 Q1559.5 1379.5 1598.5 1403.5 Q1637.5 1427.5 1642 1408 Q1681 1408 1712.5 1362 Q1744 1316 1760 1250 Q1776 1184 1784 1126 Q1792 1068 1792 1030 z" pathLength="0" fill="White" transform="translate(0, 0.6294652) scale(0.008928572, -0.008928572) translate(0, -1536)" />
</svg>