<!DOCTYPE svg PUBLIC "-//W3C//DTD SVG 1.1//EN" "http://www.w3.org/Graphics/SVG/1.1/DTD/svg11.dtd">
<svg xmlns="http://www.w3.org/2000/svg" xmlns:xlink="http://www.w3.org/1999/xlink" version="1.1" x="0" y="0" width="16" height="16" overflow="auto" preserveAspectRatio="xMidYMid" baseProfile="tiny" space="preserve">
  <path d="M1893 1144 L2048 -128 Q1917 -128 1791 -71 Q1591 20 1398 20 Q1172 20 1024 -128 Q876 20 650 20 Q457 20 257 -71 Q129 -128 5 -128 L0 -128 L155 1144 Q379 1271 637 1271 Q870 1271 1024 1165 Q1178 1271 1411 1271 Q1669 1271 1893 1144 z M1398 157 Q1527 157 1630 128.5 Q1733 100 1890 35 L1766 1056 Q1595 1134 1398 1134 Q1174 1134 1024 993 Q874 1134 650 1134 Q453 1134 282 1056 L158 35 Q263 78 323.5 100 Q384 122 472 139.5 Q560 157 650 157 Q852 157 1024 49 Q1196 157 1398 157 z M1438 191 L1383 1098 Q1172 1094 1024 943 Q872 1098 650 1098 Q474 1098 314 1032 L200 91 Q324 142 428.5 167 Q533 192 650 192 Q859 192 1024 90 Q1196 197 1398 192 z" pathLength="0" fill="White" transform="translate(-1.142858, -0.6116059) scale(0.008928572, -0.008928572) translate(0, -1536)" />
</svg>