<!DOCTYPE svg PUBLIC "-//W3C//DTD SVG 1.1//EN" "http://www.w3.org/Graphics/SVG/1.1/DTD/svg11.dtd">
<svg xmlns="http://www.w3.org/2000/svg" xmlns:xlink="http://www.w3.org/1999/xlink" version="1.1" x="0" y="0" width="16" height="16" overflow="auto" preserveAspectRatio="xMidYMid" baseProfile="tiny" space="preserve">
  <path d="M1771 0 Q1771 -53 1734 -90 L1627 -198 Q1588 -235 1536 -235 Q1483 -235 1446 -198 L1083 166 Q1045 202 1045 256 Q1045 309 1088 352 L832 608 L706 482 Q692 468 672 468 Q652 468 638 482 Q640 480 650.5 470 Q661 460 663 457 Q665 454 673 445.5 Q681 437 683 432 Q685 427 689 418.5 Q693 410 694.5 402 Q696 394 696 384 Q696 346 668 316 Q665 313 651.5 298 Q638 283 632.5 277.5 Q627 272 614 261 Q601 250 592 245.5 Q583 241 570 236.5 Q557 232 544 232 Q504 232 476 260 L68 668 Q40 696 40 736 Q40 749 44.5 762 Q49 775 53.5 784 Q58 793 69 806 Q80 819 85.5 824.5 Q91 830 106 843.5 Q121 857 124 860 Q154 888 192 888 Q202 888 210 886.5 Q218 885 226.5 881 Q235 877 240 875 Q245 873 253.5 865 Q262 857 265 855 Q268 853 278 842.5 Q288 832 290 830 Q276 844 276 864 Q276 884 290 898 L638 1246 Q652 1260 672 1260 Q692 1260 706 1246 Q704 1248 693.5 1258 Q683 1268 681 1271 Q679 1274 671 1282.5 Q663 1291 661 1296 Q659 1301 655 1309.5 Q651 1318 649.5 1326 Q648 1334 648 1344 Q648 1382 676 1412 Q679 1415 692.5 1430 Q706 1445 711.5 1450.5 Q717 1456 730 1467 Q743 1478 752 1482.5 Q761 1487 774 1491.5 Q787 1496 800 1496 Q840 1496 868 1468 L1276 1060 Q1304 1032 1304 992 Q1304 979 1299.5 966 Q1295 953 1290.5 944 Q1286 935 1275 922 Q1264 909 1258.5 903.5 Q1253 898 1238 884.5 Q1223 871 1220 868 Q1190 840 1152 840 Q1142 840 1134 841.5 Q1126 843 1117.5 847 Q1109 851 1104 853 Q1099 855 1090.5 863 Q1082 871 1079 873 Q1076 875 1066 885.5 Q1056 896 1054 898 Q1068 884 1068 864 Q1068 844 1054 830 L928 704 L1184 448 Q1227 491 1280 491 Q1332 491 1371 454 L1734 91 Q1771 52 1771 0 z" pathLength="0" fill="White" transform="translate(-0.08482069, -0.08482069) scale(0.008928572, -0.008928572) translate(0, -1536)" />
</svg>