<!DOCTYPE svg PUBLIC "-//W3C//DTD SVG 1.1//EN" "http://www.w3.org/Graphics/SVG/1.1/DTD/svg11.dtd">
<svg xmlns="http://www.w3.org/2000/svg" xmlns:xlink="http://www.w3.org/1999/xlink" version="1.1" x="0" y="0" width="16" height="16" overflow="auto" preserveAspectRatio="xMidYMid" baseProfile="tiny" space="preserve">
  <path d="M1407 710 Q1407 754 1400 823.5 Q1393 893 1382 920 Q1370 950 1365 964 Q1360 978 1356 1000.5 Q1352 1023 1352 1049 Q1352 1072 1357 1117.5 Q1362 1163 1362 1185 Q1362 1222 1352 1240 Q1348 1241 1339 1241 Q1320 1241 1281 1236.5 Q1242 1232 1222 1232 Q1162 1232 1046 1256 Q930 1280 871 1280 Q828 1280 776.5 1268.5 Q725 1257 691.5 1245 Q658 1233 602 1211 Q465 1157 400 1108 Q304 1035 240.5 918.5 Q177 802 152.5 682.5 Q128 563 128 434 Q128 394 140.5 314 Q153 234 153 193 Q153 170 142 126.5 Q131 83 131 61 Q131 39 143 24.5 Q155 10 177 10 Q201 10 249.5 21 Q298 32 323 32 Q380 32 492.5 16.5 Q605 1 662 1 Q843 1 946 37 Q1075 82 1181.5 189.5 Q1288 297 1347.5 435 Q1407 573 1407 710 z M1535 712 Q1535 547 1465 384.5 Q1395 222 1269 96.5 Q1143 -29 988 -84 Q864 -128 662 -128 Q605 -128 492 -113.5 Q379 -99 323 -99 Q299 -99 250.5 -113.5 Q202 -128 177 -128 Q104 -128 53.5 -72.5 Q3 -17 3 56 Q3 80 14 124 Q25 168 25 191 Q25 231 12.5 311.5 Q0 392 0 433 Q0 544 18 650.5 Q36 757 72.5 860 Q109 963 173 1054 Q237 1145 323 1210 Q401 1269 555 1330 Q749 1408 871 1408 Q931 1408 1046.5 1384 Q1162 1360 1220 1360 Q1239 1360 1277 1365 Q1315 1370 1335 1370 Q1416 1370 1453 1319.5 Q1490 1269 1490 1185 Q1490 1162 1485 1117 Q1480 1072 1480 1049 Q1480 1039 1481 1030.5 Q1482 1022 1484 1013.5 Q1486 1005 1488 1000 Q1490 995 1494.5 984 Q1499 973 1501 967 Q1517 927 1526 848.5 Q1535 770 1535 712 z" pathLength="0" fill="White" transform="translate(1.147321, 1.311302E-06) scale(0.008928572, -0.008928572) translate(0, -1536)" />
</svg>