<!DOCTYPE svg PUBLIC "-//W3C//DTD SVG 1.1//EN" "http://www.w3.org/Graphics/SVG/1.1/DTD/svg11.dtd">
<svg xmlns="http://www.w3.org/2000/svg" xmlns:xlink="http://www.w3.org/1999/xlink" version="1.1" x="0" y="0" width="16" height="16" overflow="auto" preserveAspectRatio="xMidYMid" baseProfile="tiny" space="preserve">
  <path d="M1018 933 Q1000 896 960 896 L768 896 L768 32 Q768 18 759 9 Q750 0 736 0 L32 0 Q11 0 3 18 Q-5 38 7 53 L167 245 Q176 256 192 256 L512 256 L512 896 L320 896 Q280 896 262 933 Q245 970 271 1001 L591 1385 Q609 1407 640 1407 Q671 1407 689 1385 L1009 1001 Q1036 969 1018 933 z" pathLength="0" fill="White" transform="translate(3.412203, 0.5669652) scale(0.008928572, -0.008928572) translate(0, -1536)" />
</svg>