<!DOCTYPE svg PUBLIC "-//W3C//DTD SVG 1.1//EN" "http://www.w3.org/Graphics/SVG/1.1/DTD/svg11.dtd">
<svg xmlns="http://www.w3.org/2000/svg" xmlns:xlink="http://www.w3.org/1999/xlink" version="1.1" x="0" y="0" width="16" height="16" overflow="auto" preserveAspectRatio="xMidYMid" baseProfile="tiny" space="preserve">
  <path d="M896 1536 Q1078 1536 1244 1465 Q1410 1394 1530 1274 Q1650 1154 1721 988 Q1792 822 1792 640 Q1792 458 1721 292 Q1650 126 1530 6 Q1410 -114 1244 -185 Q1078 -256 896 -256 Q714 -256 548 -185 Q382 -114 262 6 Q142 126 71 292 Q0 458 0 640 Q0 822 71 988 Q142 1154 262 1274 Q382 1394 548 1465 Q714 1536 896 1536 z M896 1408 Q706 1408 535 1318 L729 1124 Q811 1152 896 1152 Q981 1152 1063 1124 L1257 1318 Q1086 1408 896 1408 z M218 279 L412 473 Q384 555 384 640 Q384 725 412 807 L218 1001 Q128 830 128 640 Q128 450 218 279 z M896 -128 Q1086 -128 1257 -38 L1063 156 Q981 128 896 128 Q811 128 729 156 L535 -38 Q706 -128 896 -128 z M896 256 Q1055 256 1167.5 368.5 Q1280 481 1280 640 Q1280 799 1167.5 911.5 Q1055 1024 896 1024 Q737 1024 624.5 911.5 Q512 799 512 640 Q512 481 624.5 368.5 Q737 256 896 256 z M1380 473 L1574 279 Q1664 450 1664 640 Q1664 830 1574 1001 L1380 807 Q1408 725 1408 640 Q1408 555 1380 473 z" pathLength="0" fill="White" transform="translate(0, 9.536743E-07) scale(0.008928572, -0.008928572) translate(0, -1536)" />
</svg>