<!DOCTYPE svg PUBLIC "-//W3C//DTD SVG 1.1//EN" "http://www.w3.org/Graphics/SVG/1.1/DTD/svg11.dtd">
<svg xmlns="http://www.w3.org/2000/svg" xmlns:xlink="http://www.w3.org/1999/xlink" version="1.1" x="0" y="0" width="16" height="16" overflow="auto" preserveAspectRatio="xMidYMid" baseProfile="tiny" space="preserve">
  <path d="M736 960 Q736 947 726.5 937.5 Q717 928 704 928 Q691 928 681.5 937.5 Q672 947 672 960 Q672 1006 618 1031 Q564 1056 512 1056 Q499 1056 489.5 1065.5 Q480 1075 480 1088 Q480 1101 489.5 1110.5 Q499 1120 512 1120 Q562 1120 611.5 1104 Q661 1088 698.5 1050 Q736 1012 736 960 z M896 960 Q896 1032 861.5 1094 Q827 1156 771.5 1195.5 Q716 1235 648.5 1257.5 Q581 1280 512 1280 Q443 1280 375.5 1257.5 Q308 1235 252.5 1195.5 Q197 1156 162.5 1094 Q128 1032 128 960 Q128 859 196 780 Q206 769 226.5 747 Q247 725 257 714 Q385 561 398 416 L626 416 Q639 561 767 714 Q777 725 797.5 747 Q818 769 828 780 Q896 859 896 960 z M1024 960 Q1024 805 921 692 Q876 643 846.5 605 Q817 567 787 509.5 Q757 452 753 402 Q800 374 800 320 Q800 283 775 256 Q800 229 800 192 Q800 140 755 111 Q768 88 768 64 Q768 18 736.5 -7 Q705 -32 659 -32 Q639 -76 599 -102 Q559 -128 512 -128 Q465 -128 425 -102 Q385 -76 365 -32 Q319 -32 287.5 -7 Q256 18 256 64 Q256 88 269 111 Q224 140 224 192 Q224 229 249 256 Q224 283 224 320 Q224 374 271 402 Q267 452 237 509.5 Q207 567 177.5 605 Q148 643 103 692 Q0 805 0 960 Q0 1059 44.5 1144.5 Q89 1230 161.5 1286.5 Q234 1343 325.5 1375.5 Q417 1408 512 1408 Q607 1408 698.5 1375.5 Q790 1343 862.5 1286.5 Q935 1230 979.5 1144.5 Q1024 1059 1024 960 z" pathLength="0" fill="White" transform="translate(3.428571, 1.311302E-06) scale(0.008928572, -0.008928572) translate(0, -1536)" />
</svg>