<!DOCTYPE svg PUBLIC "-//W3C//DTD SVG 1.1//EN" "http://www.w3.org/Graphics/SVG/1.1/DTD/svg11.dtd">
<svg xmlns="http://www.w3.org/2000/svg" xmlns:xlink="http://www.w3.org/1999/xlink" version="1.1" x="0" y="0" width="16" height="16" overflow="auto" preserveAspectRatio="xMidYMid" baseProfile="tiny" space="preserve">
  <path d="M349 911 L349 -80 L19 -80 L19 911 L349 911 z M370 1217 Q371 1144 319.5 1095 Q268 1046 184 1046 L182 1046 Q100 1046 50 1095 Q0 1144 0 1217 Q0 1291 51.5 1339.5 Q103 1388 186 1388 Q269 1388 319 1339.5 Q369 1291 370 1217 z M1536 488 L1536 -80 L1207 -80 L1207 450 Q1207 555 1166.5 614.5 Q1126 674 1040 674 Q977 674 934.5 639.5 Q892 605 871 554 Q860 524 860 473 L860 -80 L531 -80 Q533 319 533 567 Q533 815 532 863 L531 911 L860 911 L860 767 L858 767 Q878 799 899 823 Q920 847 955.5 875 Q991 903 1042.5 918.5 Q1094 934 1157 934 Q1328 934 1432 820.5 Q1536 707 1536 488 z" pathLength="0" fill="White" transform="translate(1.142857, 0.1250012) scale(0.008928572, -0.008928572) translate(0, -1536)" />
</svg>