<!DOCTYPE svg PUBLIC "-//W3C//DTD SVG 1.1//EN" "http://www.w3.org/Graphics/SVG/1.1/DTD/svg11.dtd">
<svg xmlns="http://www.w3.org/2000/svg" xmlns:xlink="http://www.w3.org/1999/xlink" version="1.1" x="0" y="0" width="16" height="16" overflow="auto" preserveAspectRatio="xMidYMid" baseProfile="tiny" space="preserve">
  <path d="M237 122 L468 122 L468 816 L237 816 L237 122 z M483 1030 Q482 1082 447 1116 Q412 1150 354 1150 Q296 1150 259.5 1116 Q223 1082 223 1030 Q223 979 258.5 944.5 Q294 910 351 910 L352 910 Q411 910 447 944.5 Q483 979 483 1030 z M1068 122 L1299 122 L1299 520 Q1299 674 1226 753 Q1153 832 1033 832 Q897 832 824 715 L826 715 L826 816 L595 816 Q598 750 595 122 L826 122 L826 510 Q826 548 833 566 Q848 601 878 625.5 Q908 650 952 650 Q1068 650 1068 493 L1068 122 z M1536 1120 L1536 160 Q1536 41 1451.5 -43.5 Q1367 -128 1248 -128 L288 -128 Q169 -128 84.5 -43.5 Q0 41 0 160 L0 1120 Q0 1239 84.5 1323.5 Q169 1408 288 1408 L1248 1408 Q1367 1408 1451.5 1323.5 Q1536 1239 1536 1120 z" pathLength="0" fill="White" transform="translate(1.142857, 1.311302E-06) scale(0.008928572, -0.008928572) translate(0, -1536)" />
</svg>