<!DOCTYPE svg PUBLIC "-//W3C//DTD SVG 1.1//EN" "http://www.w3.org/Graphics/SVG/1.1/DTD/svg11.dtd">
<svg xmlns="http://www.w3.org/2000/svg" xmlns:xlink="http://www.w3.org/1999/xlink" version="1.1" x="0" y="0" width="16" height="16" overflow="auto" preserveAspectRatio="xMidYMid" baseProfile="tiny" space="preserve">
  <path d="M663 1125 Q652 1124 647.5 1114.5 Q643 1105 639 1105 Q634 1104 634 1110 Q634 1122 653 1125 L663 1125 z M750 1111 Q746 1110 738.5 1117.5 Q731 1125 721 1122 Q745 1133 753 1120 Q756 1114 750 1111 z M399 684 Q395 685 393 681 Q391 677 388.5 668.5 Q386 660 383 655 Q380 650 373 642 Q366 632 372 630 Q376 629 384.5 637 Q393 645 397 655 Q398 658 399 662 Q400 666 401 668 Q402 670 402.5 672.5 Q403 675 403 676.5 L403 679.5 Q403 679.5 402 682 Q401 684.5 399 684 z M1254 325 Q1254 343 1199 367 Q1203 382 1206.5 394.5 Q1210 407 1211.5 420.5 Q1213 434 1214.5 442 Q1216 450 1215 464.5 Q1214 479 1214 484 Q1214 489 1210.5 506 Q1207 523 1206.5 526.5 Q1206 530 1201.5 551.5 Q1197 573 1196 578 Q1186 626 1149 681 Q1112 736 1077 756 Q1101 736 1134 673 Q1221 511 1188 395 Q1177 355 1138 353 Q1107 349 1099.5 371.5 Q1092 394 1091.5 455 Q1091 516 1080 562 Q1071 601 1060.5 631 Q1050 661 1041 676.5 Q1032 692 1025.5 701 Q1019 710 1012.5 716 Q1006 722 1005 723 Q991 785 974 826 Q957 867 944.5 882 Q932 897 921 915 Q910 933 906 955 Q902 976 912 1008.5 Q922 1041 916.5 1058 Q911 1075 872 1083 Q857 1086 827.5 1101 Q798 1116 792 1117 Q784 1118 781 1143 Q778 1168 789 1194 Q800 1220 825 1221 Q862 1224 876 1191 Q890 1158 880 1133 Q869 1114 878 1106.5 Q887 1099 908 1106 Q921 1110 921 1142 L921 1179 Q916 1209 907.5 1229 Q899 1249 886.5 1259.5 Q874 1270 863 1274.5 Q852 1279 836 1282 Q729 1274 747 1148 Q747 1133 746 1133 Q737 1142 716.5 1143.5 Q696 1145 683.5 1143 Q671 1141 668 1148 Q669 1205 652 1238 Q635 1271 607 1272 Q580 1273 565.5 1244.5 Q551 1216 549 1185 Q548 1170 552.5 1148 Q557 1126 565.5 1110.5 Q574 1095 581 1097 Q591 1100 597 1111 Q601 1120 590 1119 Q583 1119 574.5 1133.5 Q566 1148 565 1167 Q564 1189 574 1204 Q584 1219 608 1218 Q625 1218 635 1197 Q645 1176 644.5 1158 Q644 1140 643 1136 Q621 1121 612 1107 Q604 1095 584.5 1083.5 Q565 1072 564 1071 Q551 1057 548.5 1044 Q546 1031 556 1026 Q570 1018 581 1006.5 Q592 995 597 987.5 Q602 980 615.5 974.5 Q629 969 651 968 Q698 966 753 983 Q755 984 776 990 Q797 996 810.5 1000.5 Q824 1005 840 1013.5 Q856 1022 861 1031 Q870 1045 881 1039 Q886 1036 887.5 1030.5 Q889 1025 884.5 1018.5 Q880 1012 868 1009 Q848 1003 811.5 987.5 Q775 972 766 968 Q722 949 696 945 Q671 940 617 947 Q607 949 608 945 Q609 941 625 926 Q650 903 692 904 Q709 905 728 911 Q747 917 764 925 Q781 933 797.5 942.5 Q814 952 827.5 959.5 Q841 967 852 971.5 Q863 976 869.5 974 Q876 972 878 963 Q878 961 877 958.5 Q876 956 873 953.5 Q870 951 867 949 Q864 947 858.5 944 Q853 941 849.5 939.5 Q846 938 839.5 934.5 Q833 931 830 930 Q802 916 762.5 886 Q723 856 696 843 Q669 830 647 842 Q626 853 584 915 Q562 946 559 937 Q558 934 558 927 Q558 902 543 870.5 Q528 839 513.5 815 Q499 791 492.5 757 Q486 723 504 694 Q481 688 441.5 604 Q402 520 394 463 Q392 445 392.5 394 Q393 343 387 335 Q379 311 358 332 Q326 363 322 426 Q320 454 326 482 Q330 501 325 500 L321 495 Q285 430 331 329 Q336 317 356 301 Q376 285 380 281 Q400 258 484 190.5 Q568 123 577 114 Q593 99 594.5 76 Q596 53 580.5 33 Q565 13 535 10 Q543 -5 564 -34.5 Q585 -64 592 -88.5 Q599 -113 599 -159 Q645 -135 606 -67 Q602 -59 595.5 -51 Q589 -43 586 -39 Q583 -35 584 -33 Q587 -28 597 -23.5 Q607 -19 617 -26 Q663 -78 783 -62 Q916 -47 960 25 Q983 63 994 55 Q1006 49 1004 3 Q1003 -22 981 -89 Q972 -112 975 -126.5 Q978 -141 999 -142 Q1002 -123 1013.5 -65 Q1025 -7 1027 25 Q1029 46 1020.5 98.5 Q1012 151 1013 195.5 Q1014 240 1036 266 Q1051 284 1087 284 Q1088 321 1121.5 337 Q1155 353 1194 347.5 Q1233 342 1254 325 z M626 1152 Q629 1169 623.5 1182 Q618 1195 612 1197 Q603 1199 603 1190 Q605 1185 608 1184 Q618 1184 615 1169 Q612 1149 623 1149 Q626 1149 626 1152 z M1045 955 Q1043 963 1038.5 966.5 Q1034 970 1025.5 971.5 Q1017 973 1011 977 Q1006 980 1001.5 985 Q997 990 994.5 993 Q992 996 989 999.5 Q986 1003 985 1003.5 Q984 1004 981 1002 Q967 986 988 958.5 Q1009 931 1027 927 Q1036 926 1041.5 935 Q1047 944 1045 955 z M867 1168 Q867 1179 862 1187.5 Q857 1196 851 1200 Q845 1204 842 1203 Q828 1202 835 1196 L839 1194 Q853 1190 857 1163 Q857 1160 865 1165 z M921 1401 Q921 1403 918.5 1406 Q916 1409 909.5 1413 Q903 1417 900 1419 Q885 1434 876 1434 Q867 1433 864.5 1426.5 Q862 1420 863.5 1413.5 Q865 1407 863 1401 Q862 1397 857 1390.5 Q852 1384 851 1381.5 Q850 1379 854 1373 Q858 1370 862 1373 Q866 1376 873 1382 Q880 1388 888 1391 Q889 1392 897 1392 Q905 1392 912 1394 Q919 1396 921 1401 z M1486 60 Q1506 48 1517 35.5 Q1528 23 1529 11.5 Q1530 0 1526.5 -11 Q1523 -22 1511 -33 Q1499 -44 1487.5 -52.5 Q1476 -61 1457.5 -71 Q1439 -81 1426 -87.5 Q1413 -94 1394 -103 Q1375 -112 1367 -116 Q1329 -135 1281.5 -172 Q1234 -209 1206 -236 Q1189 -252 1138 -255.5 Q1087 -259 1049 -241 Q1031 -232 1019.5 -217.5 Q1008 -203 1003 -192 Q998 -181 981 -172.5 Q964 -164 934 -163 Q890 -162 804 -162 Q785 -162 747 -163.5 Q709 -165 689 -166 Q645 -167 609.5 -181 Q574 -195 556 -211 Q538 -227 512.5 -239.5 Q487 -252 459 -251 Q430 -250 348 -220 Q266 -190 202 -177 Q183 -173 151 -167.5 Q119 -162 101 -158.5 Q83 -155 61.5 -149 Q40 -143 28 -134.5 Q16 -126 11 -115 Q1 -92 18 -48.5 Q35 -5 36 6 Q37 22 32 46 Q27 70 22 88.5 Q17 107 17.5 125 Q18 143 28 152 Q42 164 85 166 Q128 168 145 178 Q175 196 187 213 Q199 230 199 264 Q220 191 167 158 Q135 138 84 143 Q50 146 41 133 Q28 118 46 76 Q48 70 54 58 Q60 46 62.5 40 Q65 34 67 23 Q69 12 68 1 Q68 -14 51 -48 Q34 -82 37 -96 Q40 -113 74 -122 Q94 -128 158.5 -140.5 Q223 -153 258 -161 Q282 -167 332 -183 Q382 -199 414.5 -206 Q447 -213 470 -210 Q513 -204 534.5 -182 Q556 -160 557.5 -134 Q559 -108 550 -75.5 Q541 -43 531 -23.5 Q521 -4 511 13 Q390 203 342 255 Q274 329 229 295 Q218 286 214 310 Q211 326 212 348 Q213 377 222 400 Q231 423 246 447 Q261 471 268 489 Q276 510 294.5 561 Q313 612 324 639 Q335 666 354 700 Q373 734 393 754 Q503 897 517 949 Q505 1061 501 1259 Q499 1349 525 1410.5 Q551 1472 631 1515 Q670 1536 735 1536 Q788 1537 841 1522.5 Q894 1508 930 1481 Q987 1439 1021.5 1359.5 Q1056 1280 1051 1212 Q1046 1117 1081 998 Q1115 885 1214 780 Q1269 721 1313.5 617 Q1358 513 1373 426 Q1381 377 1378 341.5 Q1375 306 1366 286 Q1357 266 1346 264 Q1336 262 1322.5 245 Q1309 228 1295.5 209.5 Q1282 191 1255 176 Q1228 161 1194 162 Q1176 163 1162.5 167 Q1149 171 1140 180.5 Q1131 190 1126.5 196 Q1122 202 1115 216.5 Q1108 231 1106 236 Q1084 273 1065 266 Q1046 259 1037 217 Q1028 175 1044 120 Q1064 50 1045 -75 Q1035 -140 1063 -175.5 Q1091 -211 1136 -208.5 Q1181 -206 1221 -173 Q1280 -124 1310.5 -106.5 Q1341 -89 1414 -64 Q1467 -46 1491 -27.5 Q1515 -9 1509.5 7 Q1504 23 1484.5 35.5 Q1465 48 1433 59 Q1400 70 1383.5 107 Q1367 144 1368.5 179.5 Q1370 215 1384 227 Q1385 196 1392 170.5 Q1399 145 1406.5 130 Q1414 115 1427 101.5 Q1440 88 1448 82.5 Q1456 77 1469.5 69.5 Q1483 62 1486 60 z" pathLength="0" fill="White" transform="translate(1.151786, -0.005206448) scale(0.008928572, -0.008928572) translate(0, -1536)" />
</svg>