<!DOCTYPE svg PUBLIC "-//W3C//DTD SVG 1.1//EN" "http://www.w3.org/Graphics/SVG/1.1/DTD/svg11.dtd">
<svg xmlns="http://www.w3.org/2000/svg" xmlns:xlink="http://www.w3.org/1999/xlink" version="1.1" x="0" y="0" width="16" height="16" overflow="auto" preserveAspectRatio="xMidYMid" baseProfile="tiny" space="preserve">
  <path d="M384 352 L384 288 Q384 275 374.5 265.5 Q365 256 352 256 L288 256 Q275 256 265.5 265.5 Q256 275 256 288 L256 352 Q256 365 265.5 374.5 Q275 384 288 384 L352 384 Q365 384 374.5 374.5 Q384 365 384 352 z M384 608 L384 544 Q384 531 374.5 521.5 Q365 512 352 512 L288 512 Q275 512 265.5 521.5 Q256 531 256 544 L256 608 Q256 621 265.5 630.5 Q275 640 288 640 L352 640 Q365 640 374.5 630.5 Q384 621 384 608 z M384 864 L384 800 Q384 787 374.5 777.5 Q365 768 352 768 L288 768 Q275 768 265.5 777.5 Q256 787 256 800 L256 864 Q256 877 265.5 886.5 Q275 896 288 896 L352 896 Q365 896 374.5 886.5 Q384 877 384 864 z M1536 352 L1536 288 Q1536 275 1526.5 265.5 Q1517 256 1504 256 L544 256 Q531 256 521.5 265.5 Q512 275 512 288 L512 352 Q512 365 521.5 374.5 Q531 384 544 384 L1504 384 Q1517 384 1526.5 374.5 Q1536 365 1536 352 z M1536 608 L1536 544 Q1536 531 1526.5 521.5 Q1517 512 1504 512 L544 512 Q531 512 521.5 521.5 Q512 531 512 544 L512 608 Q512 621 521.5 630.5 Q531 640 544 640 L1504 640 Q1517 640 1526.5 630.5 Q1536 621 1536 608 z M1536 864 L1536 800 Q1536 787 1526.5 777.5 Q1517 768 1504 768 L544 768 Q531 768 521.5 777.5 Q512 787 512 800 L512 864 Q512 877 521.5 886.5 Q531 896 544 896 L1504 896 Q1517 896 1526.5 886.5 Q1536 877 1536 864 z M1664 160 L1664 992 Q1664 1005 1654.5 1014.5 Q1645 1024 1632 1024 L160 1024 Q147 1024 137.5 1014.5 Q128 1005 128 992 L128 160 Q128 147 137.5 137.5 Q147 128 160 128 L1632 128 Q1645 128 1654.5 137.5 Q1664 147 1664 160 z M1792 1248 L1792 160 Q1792 94 1745 47 Q1698 0 1632 0 L160 0 Q94 0 47 47 Q0 94 0 160 L0 1248 Q0 1314 47 1361 Q94 1408 160 1408 L1632 1408 Q1698 1408 1745 1361 Q1792 1314 1792 1248 z" pathLength="0" fill="White" transform="translate(0, 0.5714296) scale(0.008928572, -0.008928572) translate(0, -1536)" />
</svg>