<!DOCTYPE svg PUBLIC "-//W3C//DTD SVG 1.1//EN" "http://www.w3.org/Graphics/SVG/1.1/DTD/svg11.dtd">
<svg xmlns="http://www.w3.org/2000/svg" xmlns:xlink="http://www.w3.org/1999/xlink" version="1.1" x="0" y="0" width="16" height="16" overflow="auto" preserveAspectRatio="xMidYMid" baseProfile="tiny" space="preserve">
  <path d="M381 -84 Q381 -164 326.5 -210 Q272 -256 191 -256 Q85 -256 19 -190 L76 -102 Q125 -147 182 -147 Q211 -147 232.5 -132.5 Q254 -118 254 -90 Q254 -26 149 -34 L123 22 Q131 32 155.5 65.5 Q180 99 198 119.5 Q216 140 235 158 L235 159 Q219 159 186.5 158 Q154 157 138 157 L138 104 L32 104 L32 256 L365 256 L365 168 L270 53 Q321 41 351 4 Q381 -33 381 -84 z M383 543 L383 384 L21 384 Q15 420 15 438 Q15 489 38.5 531 Q62 573 95 599 Q128 625 161 646.5 Q194 668 217.5 690 Q241 712 241 735 Q241 760 226.5 773.5 Q212 787 187 787 Q141 787 106 729 L21 788 Q45 839 92.5 867.5 Q140 896 198 896 Q271 896 321 854.5 Q371 813 371 742 Q371 692 337 650.5 Q303 609 262 586 Q221 563 186.5 535.5 Q152 508 151 483 L278 483 L278 543 L383 543 z M1792 224 L1792 32 Q1792 19 1782.5 9.5 Q1773 0 1760 0 L544 0 Q531 0 521.5 9.5 Q512 19 512 32 L512 224 Q512 238 521 247 Q530 256 544 256 L1760 256 Q1773 256 1782.5 246.5 Q1792 237 1792 224 z M384 1123 L384 1024 L49 1024 L49 1123 L156 1123 Q156 1164 156.5 1245 Q157 1326 157 1366 L157 1378 L155 1378 Q147 1361 105 1324 L34 1400 L170 1527 L276 1527 L276 1123 L384 1123 z M1792 736 L1792 544 Q1792 531 1782.5 521.5 Q1773 512 1760 512 L544 512 Q531 512 521.5 521.5 Q512 531 512 544 L512 736 Q512 750 521 759 Q530 768 544 768 L1760 768 Q1773 768 1782.5 758.5 Q1792 749 1792 736 z M1792 1248 L1792 1056 Q1792 1043 1782.5 1033.5 Q1773 1024 1760 1024 L544 1024 Q531 1024 521.5 1033.5 Q512 1043 512 1056 L512 1248 Q512 1261 521.5 1270.5 Q531 1280 544 1280 L1760 1280 Q1773 1280 1782.5 1270.5 Q1792 1261 1792 1248 z" pathLength="0" fill="White" transform="translate(-0.06696346, -0.04017741) scale(0.008928572, -0.008928572) translate(0, -1536)" />
</svg>