<!DOCTYPE svg PUBLIC "-//W3C//DTD SVG 1.1//EN" "http://www.w3.org/Graphics/SVG/1.1/DTD/svg11.dtd">
<svg xmlns="http://www.w3.org/2000/svg" xmlns:xlink="http://www.w3.org/1999/xlink" version="1.1" x="0" y="0" width="16" height="16" overflow="auto" preserveAspectRatio="xMidYMid" baseProfile="tiny" space="preserve">
  <path d="M384 128 Q384 48 328 -8 Q272 -64 192 -64 Q112 -64 56 -8 Q0 48 0 128 Q0 208 56 264 Q112 320 192 320 Q272 320 328 264 Q384 208 384 128 z M384 640 Q384 560 328 504 Q272 448 192 448 Q112 448 56 504 Q0 560 0 640 Q0 720 56 776 Q112 832 192 832 Q272 832 328 776 Q384 720 384 640 z M1792 224 L1792 32 Q1792 19 1782.5 9.5 Q1773 0 1760 0 L544 0 Q531 0 521.5 9.5 Q512 19 512 32 L512 224 Q512 237 521.5 246.5 Q531 256 544 256 L1760 256 Q1773 256 1782.5 246.5 Q1792 237 1792 224 z M384 1152 Q384 1072 328 1016 Q272 960 192 960 Q112 960 56 1016 Q0 1072 0 1152 Q0 1232 56 1288 Q112 1344 192 1344 Q272 1344 328 1288 Q384 1232 384 1152 z M1792 736 L1792 544 Q1792 531 1782.5 521.5 Q1773 512 1760 512 L544 512 Q531 512 521.5 521.5 Q512 531 512 544 L512 736 Q512 749 521.5 758.5 Q531 768 544 768 L1760 768 Q1773 768 1782.5 758.5 Q1792 749 1792 736 z M1792 1248 L1792 1056 Q1792 1043 1782.5 1033.5 Q1773 1024 1760 1024 L544 1024 Q531 1024 521.5 1033.5 Q512 1043 512 1056 L512 1248 Q512 1261 521.5 1270.5 Q531 1280 544 1280 L1760 1280 Q1773 1280 1782.5 1270.5 Q1792 1261 1792 1248 z" pathLength="0" fill="White" transform="translate(0, 1.072884E-06) scale(0.008928572, -0.008928572) translate(0, -1536)" />
</svg>