<!DOCTYPE svg PUBLIC "-//W3C//DTD SVG 1.1//EN" "http://www.w3.org/Graphics/SVG/1.1/DTD/svg11.dtd">
<svg xmlns="http://www.w3.org/2000/svg" xmlns:xlink="http://www.w3.org/1999/xlink" version="1.1" x="0" y="0" width="16" height="16" overflow="auto" preserveAspectRatio="xMidYMid" baseProfile="tiny" space="preserve">
  <path d="M256 224 L256 32 Q256 19 246.5 9.5 Q237 0 224 0 L32 0 Q19 0 9.5 9.5 Q0 19 0 32 L0 224 Q0 237 9.5 246.5 Q19 256 32 256 L224 256 Q237 256 246.5 246.5 Q256 237 256 224 z M256 608 L256 416 Q256 403 246.5 393.5 Q237 384 224 384 L32 384 Q19 384 9.5 393.5 Q0 403 0 416 L0 608 Q0 621 9.5 630.5 Q19 640 32 640 L224 640 Q237 640 246.5 630.5 Q256 621 256 608 z M256 992 L256 800 Q256 787 246.5 777.5 Q237 768 224 768 L32 768 Q19 768 9.5 777.5 Q0 787 0 800 L0 992 Q0 1005 9.5 1014.5 Q19 1024 32 1024 L224 1024 Q237 1024 246.5 1014.5 Q256 1005 256 992 z M1792 224 L1792 32 Q1792 19 1782.5 9.5 Q1773 0 1760 0 L416 0 Q403 0 393.5 9.5 Q384 19 384 32 L384 224 Q384 237 393.5 246.5 Q403 256 416 256 L1760 256 Q1773 256 1782.5 246.5 Q1792 237 1792 224 z M256 1376 L256 1184 Q256 1171 246.5 1161.5 Q237 1152 224 1152 L32 1152 Q19 1152 9.5 1161.5 Q0 1171 0 1184 L0 1376 Q0 1389 9.5 1398.5 Q19 1408 32 1408 L224 1408 Q237 1408 246.5 1398.5 Q256 1389 256 1376 z M1792 608 L1792 416 Q1792 403 1782.5 393.5 Q1773 384 1760 384 L416 384 Q403 384 393.5 393.5 Q384 403 384 416 L384 608 Q384 621 393.5 630.5 Q403 640 416 640 L1760 640 Q1773 640 1782.5 630.5 Q1792 621 1792 608 z M1792 992 L1792 800 Q1792 787 1782.5 777.5 Q1773 768 1760 768 L416 768 Q403 768 393.5 777.5 Q384 787 384 800 L384 992 Q384 1005 393.5 1014.5 Q403 1024 416 1024 L1760 1024 Q1773 1024 1782.5 1014.5 Q1792 1005 1792 992 z M1792 1376 L1792 1184 Q1792 1171 1782.5 1161.5 Q1773 1152 1760 1152 L416 1152 Q403 1152 393.5 1161.5 Q384 1171 384 1184 L384 1376 Q384 1389 393.5 1398.5 Q403 1408 416 1408 L1760 1408 Q1773 1408 1782.5 1398.5 Q1792 1389 1792 1376 z" pathLength="0" fill="White" transform="translate(0, 0.5714296) scale(0.008928572, -0.008928572) translate(0, -1536)" />
</svg>