<!DOCTYPE svg PUBLIC "-//W3C//DTD SVG 1.1//EN" "http://www.w3.org/Graphics/SVG/1.1/DTD/svg11.dtd">
<svg xmlns="http://www.w3.org/2000/svg" xmlns:xlink="http://www.w3.org/1999/xlink" version="1.1" x="0" y="0" width="16" height="16" overflow="auto" preserveAspectRatio="xMidYMid" baseProfile="tiny" space="preserve">
  <path d="M1401 1187 L761 -93 Q744 -128 704 -128 Q699 -128 689 -126 Q667 -121 653.5 -103.5 Q640 -86 640 -64 L640 512 L64 512 Q42 512 24.5 525.5 Q7 539 2 561 Q-3 583 6 603 Q15 623 35 633 L1315 1273 Q1328 1280 1344 1280 Q1371 1280 1389 1261 Q1404 1247 1407.5 1226.5 Q1411 1206 1401 1187 z" pathLength="0" fill="White" transform="translate(1.712054, -0.5714276) scale(0.008928572, -0.008928572) translate(0, -1536)" />
</svg>