<!DOCTYPE svg PUBLIC "-//W3C//DTD SVG 1.1//EN" "http://www.w3.org/Graphics/SVG/1.1/DTD/svg11.dtd">
<svg xmlns="http://www.w3.org/2000/svg" xmlns:xlink="http://www.w3.org/1999/xlink" version="1.1" x="0" y="0" width="16" height="16" overflow="auto" preserveAspectRatio="xMidYMid" baseProfile="tiny" space="preserve">
  <path d="M1792 736 L1792 544 Q1792 530 1783 521 Q1774 512 1760 512 L512 512 L512 288 Q512 267 493 259 Q474 251 458 264 L74 614 Q64 624 64 637 Q64 651 74 661 L458 1015 Q474 1029 493 1021 Q512 1012 512 992 L512 768 L1760 768 Q1774 768 1783 759 Q1792 750 1792 736 z" pathLength="0" fill="White" transform="translate(-0.2857135, 4.768372E-07) scale(0.008928572, -0.008928572) translate(0, -1536)" />
</svg>