<!DOCTYPE svg PUBLIC "-//W3C//DTD SVG 1.1//EN" "http://www.w3.org/Graphics/SVG/1.1/DTD/svg11.dtd">
<svg xmlns="http://www.w3.org/2000/svg" xmlns:xlink="http://www.w3.org/1999/xlink" version="1.1" x="0" y="0" width="16" height="16" overflow="auto" preserveAspectRatio="xMidYMid" baseProfile="tiny" space="preserve">
  <path d="M1728 643 Q1728 629 1718 619 L1334 265 Q1318 251 1299 259 Q1280 268 1280 288 L1280 512 L32 512 Q18 512 9 521 Q0 530 0 544 L0 736 Q0 750 9 759 Q18 768 32 768 L1280 768 L1280 992 Q1280 1013 1299 1021 Q1318 1029 1334 1016 L1718 666 Q1728 656 1728 643 z" pathLength="0" fill="White" transform="translate(0.2857141, 4.768372E-07) scale(0.008928572, -0.008928572) translate(0, -1536)" />
</svg>