<!DOCTYPE svg PUBLIC "-//W3C//DTD SVG 1.1//EN" "http://www.w3.org/Graphics/SVG/1.1/DTD/svg11.dtd">
<svg xmlns="http://www.w3.org/2000/svg" xmlns:xlink="http://www.w3.org/1999/xlink" version="1.1" x="0" y="0" width="16" height="16" overflow="auto" preserveAspectRatio="xMidYMid" baseProfile="tiny" space="preserve">
  <path d="M1190 955 L1483 1248 L1376 1355 L1083 1062 z M1637 1248 Q1637 1221 1619 1203 L333 -83 Q315 -101 288 -101 Q261 -101 243 -83 L45 115 Q27 133 27 160 Q27 187 45 205 L1331 1491 Q1349 1509 1376 1509 Q1403 1509 1421 1491 L1619 1293 Q1637 1275 1637 1248 z M286 1438 L384 1408 L286 1378 L256 1280 L226 1378 L128 1408 L226 1438 L256 1536 z M636 1276 L832 1216 L636 1156 L576 960 L516 1156 L320 1216 L516 1276 L576 1472 z M1566 798 L1664 768 L1566 738 L1536 640 L1506 738 L1408 768 L1506 798 L1536 896 z M926 1438 L1024 1408 L926 1378 L896 1280 L866 1378 L768 1408 L866 1438 L896 1536 z" pathLength="0" fill="White" transform="translate(0.4508932, 0.6919656) scale(0.008928572, -0.008928572) translate(0, -1536)" />
</svg>