<!DOCTYPE svg PUBLIC "-//W3C//DTD SVG 1.1//EN" "http://www.w3.org/Graphics/SVG/1.1/DTD/svg11.dtd">
<svg xmlns="http://www.w3.org/2000/svg" xmlns:xlink="http://www.w3.org/1999/xlink" version="1.1" x="0" y="0" width="16" height="16" overflow="auto" preserveAspectRatio="xMidYMid" baseProfile="tiny" space="preserve">
  <path d="M1536 704 L1536 576 Q1536 375 1437.5 214 Q1339 53 1163.5 -37.5 Q988 -128 768 -128 Q548 -128 372.5 -37.5 Q197 53 98.5 214 Q0 375 0 576 L0 704 Q0 730 19 749 Q38 768 64 768 L448 768 Q474 768 493 749 Q512 730 512 704 L512 576 Q512 524 535.5 486 Q559 448 589 429 Q619 410 660 399 Q701 388 724 386 Q747 384 768 384 Q789 384 812 386 Q835 388 876 399 Q917 410 947 429 Q977 448 1000.5 486 Q1024 524 1024 576 L1024 704 Q1024 730 1043 749 Q1062 768 1088 768 L1472 768 Q1498 768 1517 749 Q1536 730 1536 704 z M512 1344 L512 960 Q512 934 493 915 Q474 896 448 896 L64 896 Q38 896 19 915 Q0 934 0 960 L0 1344 Q0 1370 19 1389 Q38 1408 64 1408 L448 1408 Q474 1408 493 1389 Q512 1370 512 1344 z M1536 1344 L1536 960 Q1536 934 1517 915 Q1498 896 1472 896 L1088 896 Q1062 896 1043 915 Q1024 934 1024 960 L1024 1344 Q1024 1370 1043 1389 Q1062 1408 1088 1408 L1472 1408 Q1498 1408 1517 1389 Q1536 1370 1536 1344 z" pathLength="0" fill="White" transform="translate(1.142857, 1.311302E-06) scale(0.008928572, -0.008928572) translate(0, -1536)" />
</svg>