<!DOCTYPE svg PUBLIC "-//W3C//DTD SVG 1.1//EN" "http://www.w3.org/Graphics/SVG/1.1/DTD/svg11.dtd">
<svg xmlns="http://www.w3.org/2000/svg" xmlns:xlink="http://www.w3.org/1999/xlink" version="1.1" x="0" y="0" width="16" height="16" overflow="auto" preserveAspectRatio="xMidYMid" baseProfile="tiny" space="preserve">
  <path d="M640 454 L640 384 Q640 342 601 325 Q588 320 576 320 Q549 320 531 339 L19 851 Q0 870 0 896 Q0 922 19 941 L531 1453 Q560 1484 601 1467 Q640 1450 640 1408 L640 1339 L243 941 Q224 922 224 896 Q224 870 243 851 z M1792 416 Q1792 358 1775 282.5 Q1758 207 1736.5 144.5 Q1715 82 1688.5 19.5 Q1662 -43 1648 -71 L1628 -111 Q1620 -128 1600 -128 Q1594 -128 1591 -127 Q1566 -119 1568 -93 Q1611 307 1462 472 Q1398 543 1291.5 582.5 Q1185 622 1024 635 L1024 384 Q1024 342 985 325 Q972 320 960 320 Q933 320 915 339 L403 851 Q384 870 384 896 Q384 922 403 941 L915 1453 Q944 1484 985 1467 Q1024 1450 1024 1408 L1024 1146 Q1435 1118 1623 925 Q1792 752 1792 416 z" pathLength="0" fill="White" transform="translate(0, 0.3139892) scale(0.008928572, -0.008928572) translate(0, -1536)" />
</svg>