<!DOCTYPE svg PUBLIC "-//W3C//DTD SVG 1.1//EN" "http://www.w3.org/Graphics/SVG/1.1/DTD/svg11.dtd">
<svg xmlns="http://www.w3.org/2000/svg" xmlns:xlink="http://www.w3.org/1999/xlink" version="1.1" x="0" y="0" width="16" height="16" overflow="auto" preserveAspectRatio="xMidYMid" baseProfile="tiny" space="preserve">
  <path d="M1792 896 Q1792 870 1773 851 L1261 339 Q1242 320 1216 320 Q1190 320 1171 339 Q1152 358 1152 384 L1152 640 L928 640 Q830 640 752.5 634 Q675 628 598.5 612.5 Q522 597 465.5 570 Q409 543 360 500.5 Q311 458 280 399.5 Q249 341 231.5 261 Q214 181 214 80 Q214 25 219 -43 Q219 -49 221.5 -66.5 Q224 -84 224 -93 Q224 -108 215.5 -118 Q207 -128 192 -128 Q176 -128 164 -111 Q157 -102 151 -89 Q145 -76 137.5 -59 Q130 -42 127 -35 Q0 250 0 416 Q0 615 53 749 Q215 1152 928 1152 L1152 1152 L1152 1408 Q1152 1434 1171 1453 Q1190 1472 1216 1472 Q1242 1472 1261 1453 L1773 941 Q1792 922 1792 896 z" pathLength="0" fill="White" transform="translate(0, 0.2857153) scale(0.008928572, -0.008928572) translate(0, -1536)" />
</svg>