<!DOCTYPE svg PUBLIC "-//W3C//DTD SVG 1.1//EN" "http://www.w3.org/Graphics/SVG/1.1/DTD/svg11.dtd">
<svg xmlns="http://www.w3.org/2000/svg" xmlns:xlink="http://www.w3.org/1999/xlink" version="1.1" x="0" y="0" width="16" height="16" overflow="auto" preserveAspectRatio="xMidYMid" baseProfile="tiny" space="preserve">
  <path d="M1792 416 Q1792 250 1665 -35 Q1662 -42 1654.5 -59 Q1647 -76 1641 -89 Q1635 -102 1628 -111 Q1616 -128 1600 -128 Q1585 -128 1576.5 -118 Q1568 -108 1568 -93 Q1568 -84 1570.5 -66.5 Q1573 -49 1573 -43 Q1578 25 1578 80 Q1578 181 1560.5 261 Q1543 341 1512 399.5 Q1481 458 1432 500.5 Q1383 543 1326.5 570 Q1270 597 1193.5 612.5 Q1117 628 1039.5 634 Q962 640 864 640 L640 640 L640 384 Q640 358 621 339 Q602 320 576 320 Q550 320 531 339 L19 851 Q0 870 0 896 Q0 922 19 941 L531 1453 Q550 1472 576 1472 Q602 1472 621 1453 Q640 1434 640 1408 L640 1152 L864 1152 Q1577 1152 1739 749 Q1792 615 1792 416 z" pathLength="0" fill="White" transform="translate(0, 0.2857153) scale(0.008928572, -0.008928572) translate(0, -1536)" />
</svg>