<!DOCTYPE svg PUBLIC "-//W3C//DTD SVG 1.1//EN" "http://www.w3.org/Graphics/SVG/1.1/DTD/svg11.dtd">
<svg xmlns="http://www.w3.org/2000/svg" xmlns:xlink="http://www.w3.org/1999/xlink" version="1.1" x="0" y="0" width="16" height="16" overflow="auto" preserveAspectRatio="xMidYMid" baseProfile="tiny" space="preserve">
  <path d="M1024 832 L1024 416 Q1024 376 996 348 Q968 320 928 320 Q888 320 860 348 Q832 376 832 416 L832 768 L768 768 L768 -144 Q768 -190 735 -223 Q702 -256 656 -256 Q610 -256 577 -223 Q544 -190 544 -144 L544 320 L480 320 L480 -144 Q480 -190 447 -223 Q414 -256 368 -256 Q322 -256 289 -223 Q256 -190 256 -144 L256 768 L192 768 L192 416 Q192 376 164 348 Q136 320 96 320 Q56 320 28 348 Q0 376 0 416 L0 832 Q0 912 56 968 Q112 1024 192 1024 L832 1024 Q912 1024 968 968 Q1024 912 1024 832 z M736 1280 Q736 1187 670.5 1121.5 Q605 1056 512 1056 Q419 1056 353.5 1121.5 Q288 1187 288 1280 Q288 1373 353.5 1438.5 Q419 1504 512 1504 Q605 1504 670.5 1438.5 Q736 1373 736 1280 z" pathLength="0" fill="White" transform="translate(3.428571, -0.1428563) scale(0.008928572, -0.008928572) translate(0, -1536)" />
</svg>