<!DOCTYPE svg PUBLIC "-//W3C//DTD SVG 1.1//EN" "http://www.w3.org/Graphics/SVG/1.1/DTD/svg11.dtd">
<svg xmlns="http://www.w3.org/2000/svg" xmlns:xlink="http://www.w3.org/1999/xlink" version="1.1" x="0" y="0" width="16" height="16" overflow="auto" preserveAspectRatio="xMidYMid" baseProfile="tiny" space="preserve">
  <path d="M512 448 Q578 448 640 463 L640 -192 Q640 -218 621 -237 Q602 -256 576 -256 L448 -256 Q422 -256 403 -237 Q384 -218 384 -192 L384 463 Q445 448 512 448 z M512 1536 Q724 1536 874 1386 Q1024 1236 1024 1024 Q1024 812 874 662 Q724 512 512 512 Q300 512 150 662 Q0 812 0 1024 Q0 1236 150 1386 Q300 1536 512 1536 z M512 1312 Q526 1312 535 1321 Q544 1330 544 1344 Q544 1358 535 1367 Q526 1376 512 1376 Q366 1376 263 1273 Q160 1170 160 1024 Q160 1010 169 1001 Q178 992 192 992 Q206 992 215 1001 Q224 1010 224 1024 Q224 1143 308.5 1227.5 Q393 1312 512 1312 z" pathLength="0" fill="White" transform="translate(3.428571, 9.536743E-07) scale(0.008928572, -0.008928572) translate(0, -1536)" />
</svg>