<!DOCTYPE svg PUBLIC "-//W3C//DTD SVG 1.1//EN" "http://www.w3.org/Graphics/SVG/1.1/DTD/svg11.dtd">
<svg xmlns="http://www.w3.org/2000/svg" xmlns:xlink="http://www.w3.org/1999/xlink" version="1.1" x="0" y="0" width="16" height="16" overflow="auto" preserveAspectRatio="xMidYMid" baseProfile="tiny" space="preserve">
  <path d="M2020 1525 Q2048 1505 2048 1472 L2048 64 Q2048 44 2037 28 Q2026 12 2008 5 L1368 -251 Q1344 -262 1320 -251 L704 -5 L88 -251 Q78 -256 64 -256 Q45 -256 28 -245 Q0 -225 0 -192 L0 1216 Q0 1236 11 1252 Q22 1268 40 1275 L680 1531 Q704 1542 728 1531 L1344 1285 L1960 1531 Q1992 1544 2020 1525 z M736 1390 L736 120 L1312 -110 L1312 1160 z M128 1173 L128 -97 L672 120 L672 1390 z M1920 107 L1920 1377 L1376 1160 L1376 -110 z" pathLength="0" fill="White" transform="translate(-1.142858, 0.005954269) scale(0.008928572, -0.008928572) translate(0, -1536)" />
</svg>