<!DOCTYPE svg PUBLIC "-//W3C//DTD SVG 1.1//EN" "http://www.w3.org/Graphics/SVG/1.1/DTD/svg11.dtd">
<svg xmlns="http://www.w3.org/2000/svg" xmlns:xlink="http://www.w3.org/1999/xlink" version="1.1" x="0" y="0" width="16" height="16" overflow="auto" preserveAspectRatio="xMidYMid" baseProfile="tiny" space="preserve">
  <path d="M1745 1239 Q1755 1229 1755 1216 Q1755 1203 1745 1193 L1604 1052 Q1576 1024 1536 1024 L192 1024 Q166 1024 147 1043 Q128 1062 128 1088 L128 1344 Q128 1370 147 1389 Q166 1408 192 1408 L768 1408 L768 1472 Q768 1498 787 1517 Q806 1536 832 1536 L960 1536 Q986 1536 1005 1517 Q1024 1498 1024 1472 L1024 1408 L1536 1408 Q1576 1408 1604 1380 z M768 320 L1024 320 L1024 -192 Q1024 -218 1005 -237 Q986 -256 960 -256 L832 -256 Q806 -256 787 -237 Q768 -218 768 -192 L768 320 z M1600 768 Q1626 768 1645 749 Q1664 730 1664 704 L1664 448 Q1664 422 1645 403 Q1626 384 1600 384 L256 384 Q216 384 188 412 L47 553 Q37 563 37 576 Q37 589 47 599 L188 740 Q216 768 256 768 L768 768 L768 960 L1024 960 L1024 768 L1600 768 z" pathLength="0" fill="White" transform="translate(4.172325E-07, 9.536743E-07) scale(0.008928572, -0.008928572) translate(0, -1536)" />
</svg>