<!DOCTYPE svg PUBLIC "-//W3C//DTD SVG 1.1//EN" "http://www.w3.org/Graphics/SVG/1.1/DTD/svg11.dtd">
<svg xmlns="http://www.w3.org/2000/svg" xmlns:xlink="http://www.w3.org/1999/xlink" version="1.1" x="0" y="0" width="16" height="16" overflow="auto" preserveAspectRatio="xMidYMid" baseProfile="tiny" space="preserve">
  <path d="M512 1536 Q525 1536 534.5 1526.5 Q544 1517 544 1504 L544 32 Q544 12 527 4 L47 -252 Q40 -256 32 -256 Q19 -256 9.5 -246.5 Q0 -237 0 -224 L0 1248 Q0 1268 17 1276 L497 1532 Q504 1536 512 1536 z M1760 1536 Q1773 1536 1782.5 1526.5 Q1792 1517 1792 1504 L1792 32 Q1792 12 1775 4 L1295 -252 Q1288 -256 1280 -256 Q1267 -256 1257.5 -246.5 Q1248 -237 1248 -224 L1248 1248 Q1248 1268 1265 1276 L1745 1532 Q1752 1536 1760 1536 z M640 1536 Q648 1536 654 1533 L1166 1277 Q1184 1267 1184 1248 L1184 -224 Q1184 -237 1174.5 -246.5 Q1165 -256 1152 -256 Q1144 -256 1138 -253 L626 3 Q608 13 608 32 L608 1504 Q608 1517 617.5 1526.5 Q627 1536 640 1536 z" pathLength="0" fill="White" transform="translate(0, 9.536743E-07) scale(0.008928572, -0.008928572) translate(0, -1536)" />
</svg>