<!DOCTYPE svg PUBLIC "-//W3C//DTD SVG 1.1//EN" "http://www.w3.org/Graphics/SVG/1.1/DTD/svg11.dtd">
<svg xmlns="http://www.w3.org/2000/svg" xmlns:xlink="http://www.w3.org/1999/xlink" version="1.1" x="0" y="0" width="16" height="16" overflow="auto" preserveAspectRatio="xMidYMid" baseProfile="tiny" space="preserve">
  <path d="M1536 1120 Q1536 1134 1545 1143 Q1554 1152 1568 1152 L1856 1152 Q1882 1152 1901 1133 Q1920 1114 1920 1088 L1920 800 Q1920 786 1911 777 Q1902 768 1888 768 L1824 768 Q1810 768 1801 777 Q1792 786 1792 800 L1792 934 L1538 679 Q1614 584 1645.5 465 Q1677 346 1655 218 Q1624 36 1489 -94 Q1354 -224 1171 -250 Q961 -279 786.5 -170 Q612 -61 545 130 Q428 136 324 187.5 Q220 239 146.5 320.5 Q73 402 33 513 Q-7 624 1 743 Q10 878 79 995 Q148 1112 261 1186.5 Q374 1261 509 1276 Q627 1290 736.5 1257 Q846 1224 935 1154 L1190 1408 L1056 1408 Q1042 1408 1033 1417 Q1024 1426 1024 1440 L1024 1504 Q1024 1518 1033 1527 Q1042 1536 1056 1536 L1344 1536 Q1370 1536 1389 1517 Q1408 1498 1408 1472 L1408 1184 Q1408 1170 1399 1161 Q1390 1152 1376 1152 L1312 1152 Q1298 1152 1289 1161 Q1280 1170 1280 1184 L1280 1318 L1026 1063 Q1085 989 1119 894 Q1301 885 1447 770 L1702 1024 L1568 1024 Q1554 1024 1545 1033 Q1536 1042 1536 1056 L1536 1120 z M1024 704 Q1024 724 1020 762 Q858 737 749 612 Q640 487 640 320 Q640 300 644 262 Q806 287 915 412 Q1024 537 1024 704 z M128 704 Q128 536 239 410 Q350 284 515 261 Q512 290 512 320 Q512 530 647 689.5 Q782 849 985 886 Q932 1006 821.5 1079 Q711 1152 576 1152 Q391 1152 259.5 1020.5 Q128 889 128 704 z M1088 -128 Q1273 -128 1404.5 3.5 Q1536 135 1536 320 Q1536 488 1425 614 Q1314 740 1149 763 Q1152 734 1152 704 Q1152 494 1017 334.5 Q882 175 679 138 Q732 18 842.5 -55 Q953 -128 1088 -128 z" pathLength="0" fill="White" transform="translate(-0.5520812, -0.05952215) scale(0.008928572, -0.008928572) translate(0, -1536)" />
</svg>