<!DOCTYPE svg PUBLIC "-//W3C//DTD SVG 1.1//EN" "http://www.w3.org/Graphics/SVG/1.1/DTD/svg11.dtd">
<svg xmlns="http://www.w3.org/2000/svg" xmlns:xlink="http://www.w3.org/1999/xlink" version="1.1" x="0" y="0" width="16" height="16" overflow="auto" preserveAspectRatio="xMidYMid" baseProfile="tiny" space="preserve">
  <path d="M1472 1408 Q1498 1408 1517 1389 Q1536 1370 1536 1344 L1536 928 Q1536 914 1527 905 Q1518 896 1504 896 L1440 896 Q1426 896 1417 905 Q1408 914 1408 928 L1408 1190 L1026 807 Q1152 651 1152 448 Q1152 331 1106.5 224.5 Q1061 118 983.5 40.5 Q906 -37 799.5 -82.5 Q693 -128 576 -128 Q459 -128 352.5 -82.5 Q246 -37 168.5 40.5 Q91 118 45.5 224.5 Q0 331 0 448 Q0 565 45.5 671.5 Q91 778 168.5 855.5 Q246 933 352.5 978.5 Q459 1024 576 1024 Q779 1024 935 898 L1317 1280 L1056 1280 Q1042 1280 1033 1289 Q1024 1298 1024 1312 L1024 1376 Q1024 1390 1033 1399 Q1042 1408 1056 1408 L1472 1408 z M576 0 Q761 0 892.5 131.5 Q1024 263 1024 448 Q1024 633 892.5 764.5 Q761 896 576 896 Q391 896 259.5 764.5 Q128 633 128 448 Q128 263 259.5 131.5 Q391 0 576 0 z" pathLength="0" fill="White" transform="translate(1.142857, 1.311302E-06) scale(0.008928572, -0.008928572) translate(0, -1536)" />
</svg>