<!DOCTYPE svg PUBLIC "-//W3C//DTD SVG 1.1//EN" "http://www.w3.org/Graphics/SVG/1.1/DTD/svg11.dtd">
<svg xmlns="http://www.w3.org/2000/svg" xmlns:xlink="http://www.w3.org/1999/xlink" version="1.1" x="0" y="0" width="16" height="16" overflow="auto" preserveAspectRatio="xMidYMid" baseProfile="tiny" space="preserve">
  <path d="M1901 621 Q1920 602 1920 576 Q1920 550 1901 531 L1607 237 Q1598 227 1584.5 227 Q1571 227 1562 237 L1517 282 Q1507 291 1507 304.5 Q1507 318 1517 327 L1702 512 L1408 512 L1408 288 Q1408 274 1399 265 Q1390 256 1376 256 L1312 256 Q1298 256 1289 265 Q1280 274 1280 288 L1280 512 L1148 512 Q1124 295 960.5 147.5 Q797 0 576 0 Q409 0 270 87 Q131 174 58 323 Q-15 472 4 642 Q19 775 92 887.5 Q165 1000 280 1069.5 Q395 1139 529 1150 Q684 1162 821 1097.5 Q958 1033 1045 911.5 Q1132 790 1148 640 L1280 640 L1280 864 Q1280 878 1289 887 Q1298 896 1312 896 L1376 896 Q1390 896 1399 887 Q1408 878 1408 864 L1408 640 L1702 640 L1517 825 Q1507 834 1507 847.5 Q1507 861 1517 870 L1562 915 Q1571 925 1584.5 925 Q1598 925 1607 915 z M576 128 Q761 128 892.5 259.5 Q1024 391 1024 576 Q1024 761 892.5 892.5 Q761 1024 576 1024 Q391 1024 259.5 892.5 Q128 761 128 576 Q128 391 259.5 259.5 Q391 128 576 128 z" pathLength="0" fill="White" transform="translate(-0.532736, -0.544642) scale(0.008928572, -0.008928572) translate(0, -1536)" />
</svg>