<!DOCTYPE svg PUBLIC "-//W3C//DTD SVG 1.1//EN" "http://www.w3.org/Graphics/SVG/1.1/DTD/svg11.dtd">
<svg xmlns="http://www.w3.org/2000/svg" xmlns:xlink="http://www.w3.org/1999/xlink" version="1.1" x="0" y="0" width="16" height="16" overflow="auto" preserveAspectRatio="xMidYMid" baseProfile="tiny" space="preserve">
  <path d="M640 892 Q857 868 1004.5 704.5 Q1152 541 1152 320 Q1152 153 1065 14 Q978 -125 829 -198 Q680 -271 510 -252 Q377 -237 264.5 -164 Q152 -91 82.5 24 Q13 139 2 273 Q-10 428 54.5 565 Q119 702 240.5 789 Q362 876 512 892 L512 1024 L352 1024 Q338 1024 329 1033 Q320 1042 320 1056 L320 1120 Q320 1134 329 1143 Q338 1152 352 1152 L512 1152 L512 1317 L420 1225 Q410 1216 397 1216 Q384 1216 375 1225 L329 1271 Q320 1280 320 1293 Q320 1306 329 1316 L531 1517 Q550 1536 576 1536 Q602 1536 621 1517 L823 1316 Q832 1306 832 1293 Q832 1280 823 1271 L777 1225 Q768 1216 755 1216 Q742 1216 732 1225 L640 1317 L640 1152 L800 1152 Q814 1152 823 1143 Q832 1134 832 1120 L832 1056 Q832 1042 823 1033 Q814 1024 800 1024 L640 1024 L640 892 z M576 -128 Q761 -128 892.5 3.5 Q1024 135 1024 320 Q1024 505 892.5 636.5 Q761 768 576 768 Q391 768 259.5 636.5 Q128 505 128 320 Q128 135 259.5 3.5 Q391 -128 576 -128 z" pathLength="0" fill="White" transform="translate(2.883929, -0.03868818) scale(0.008928572, -0.008928572) translate(0, -1536)" />
</svg>