<!DOCTYPE svg PUBLIC "-//W3C//DTD SVG 1.1//EN" "http://www.w3.org/Graphics/SVG/1.1/DTD/svg11.dtd">
<svg xmlns="http://www.w3.org/2000/svg" xmlns:xlink="http://www.w3.org/1999/xlink" version="1.1" x="0" y="0" width="16" height="16" overflow="auto" preserveAspectRatio="xMidYMid" baseProfile="tiny" space="preserve">
  <path d="M1745 763 L1581 0 L1247 0 L1425 832 Q1438 888 1410 920 Q1383 953 1327 953 L1158 953 L954 0 L620 0 L824 953 L538 953 L334 0 L0 0 L204 953 L51 1280 L1327 1280 Q1428 1280 1516.5 1239.5 Q1605 1199 1664 1126 Q1724 1053 1745 957.5 Q1766 862 1745 763 z" pathLength="0" fill="White" transform="translate(0.1473212, 7.152557E-07) scale(0.008928572, -0.008928572) translate(0, -1536)" />
</svg>