<!DOCTYPE svg PUBLIC "-//W3C//DTD SVG 1.1//EN" "http://www.w3.org/Graphics/SVG/1.1/DTD/svg11.dtd">
<svg xmlns="http://www.w3.org/2000/svg" xmlns:xlink="http://www.w3.org/1999/xlink" version="1.1" x="0" y="0" width="16" height="16" overflow="auto" preserveAspectRatio="xMidYMid" baseProfile="tiny" space="preserve">
  <path d="M1311 694 L1311 580 Q1311 556 1297.5 542 Q1284 528 1260 528 L1058 528 Q1034 528 1020 542 Q1006 556 1006 580 L1006 694 Q1006 718 1020 732 Q1034 746 1058 746 L1260 746 Q1284 746 1297.5 732 Q1311 718 1311 694 z M821 464 L821 714 Q821 767 788.5 799.5 Q756 832 703 832 L570 832 Q502 832 474 780 Q446 832 378 832 L248 832 Q195 832 162.5 799.5 Q130 767 130 714 L130 464 Q130 442 151 442 L206 442 Q228 442 228 464 L228 694 Q228 718 241.5 732 Q255 746 280 746 L374 746 Q398 746 412 732 Q426 718 426 694 L426 464 Q426 442 447 442 L501 442 Q523 442 523 464 L523 694 Q523 718 537 732 Q551 746 575 746 L672 746 Q696 746 709.5 732 Q723 718 723 694 L723 464 Q723 442 745 442 L800 442 Q821 442 821 464 z M1410 560 L1410 714 Q1410 767 1377 799.5 Q1344 832 1291 832 L1027 832 Q974 832 941 799.5 Q908 767 908 714 L908 304 Q908 283 930 283 L985 283 Q1006 283 1006 304 L1006 484 Q1037 442 1100 442 L1291 442 Q1344 442 1377 474.5 Q1410 507 1410 560 z M1536 1176 L1536 104 Q1536 8 1468 -60 Q1400 -128 1304 -128 L232 -128 Q136 -128 68 -60 Q0 8 0 104 L0 1176 Q0 1272 68 1340 Q136 1408 232 1408 L1304 1408 Q1400 1408 1468 1340 Q1536 1272 1536 1176 z" pathLength="0" fill="White" transform="translate(1.142857, 1.311302E-06) scale(0.008928572, -0.008928572) translate(0, -1536)" />
</svg>