<!DOCTYPE svg PUBLIC "-//W3C//DTD SVG 1.1//EN" "http://www.w3.org/Graphics/SVG/1.1/DTD/svg11.dtd">
<svg xmlns="http://www.w3.org/2000/svg" xmlns:xlink="http://www.w3.org/1999/xlink" version="1.1" x="0" y="0" width="16" height="16" overflow="auto" preserveAspectRatio="xMidYMid" baseProfile="tiny" space="preserve">
  <path d="M1792 204 L1792 -5 L1150 -5 L1150 204 L1284 204 L1284 1130 L1278 1130 L964 -5 L721 -5 L411 1130 L403 1130 L403 204 L538 204 L538 -5 L0 -5 L0 204 L69 204 Q90 204 112 223.5 Q134 243 134 261 L134 1142 Q134 1160 112 1182 Q90 1204 69 1204 L0 1204 L0 1413 L672 1413 L893 592 L899 592 L1122 1413 L1792 1413 L1792 1204 L1721 1204 Q1702 1204 1680 1182 Q1658 1160 1658 1142 L1658 261 Q1658 243 1679.5 223.5 Q1701 204 1721 204 L1792 204 z" pathLength="0" fill="White" transform="translate(0, 0.5714296) scale(0.008928572, -0.008928572) translate(0, -1536)" />
</svg>