<!DOCTYPE svg PUBLIC "-//W3C//DTD SVG 1.1//EN" "http://www.w3.org/Graphics/SVG/1.1/DTD/svg11.dtd">
<svg xmlns="http://www.w3.org/2000/svg" xmlns:xlink="http://www.w3.org/1999/xlink" version="1.1" x="0" y="0" width="16" height="16" overflow="auto" preserveAspectRatio="xMidYMid" baseProfile="tiny" space="preserve">
  <path d="M1280 416 L1280 608 Q1280 622 1271 631 Q1262 640 1248 640 L1024 640 L1024 864 Q1024 878 1015 887 Q1006 896 992 896 L800 896 Q786 896 777 887 Q768 878 768 864 L768 640 L544 640 Q530 640 521 631 Q512 622 512 608 L512 416 Q512 402 521 393 Q530 384 544 384 L768 384 L768 160 Q768 146 777 137 Q786 128 800 128 L992 128 Q1006 128 1015 137 Q1024 146 1024 160 L1024 384 L1248 384 Q1262 384 1271 393 Q1280 402 1280 416 z M640 1152 L1152 1152 L1152 1280 L640 1280 L640 1152 z M256 1152 L256 -128 L224 -128 Q132 -128 66 -62 Q0 4 0 96 L0 928 Q0 1020 66 1086 Q132 1152 224 1152 L256 1152 z M1440 1152 L1440 -128 L352 -128 L352 1152 L512 1152 L512 1312 Q512 1352 540 1380 Q568 1408 608 1408 L1184 1408 Q1224 1408 1252 1380 Q1280 1352 1280 1312 L1280 1152 L1440 1152 z M1792 928 L1792 96 Q1792 4 1726 -62 Q1660 -128 1568 -128 L1536 -128 L1536 1152 L1568 1152 Q1660 1152 1726 1086 Q1792 1020 1792 928 z" pathLength="0" fill="White" transform="translate(0, 1.311302E-06) scale(0.008928572, -0.008928572) translate(0, -1536)" />
</svg>