<!DOCTYPE svg PUBLIC "-//W3C//DTD SVG 1.1//EN" "http://www.w3.org/Graphics/SVG/1.1/DTD/svg11.dtd">
<svg xmlns="http://www.w3.org/2000/svg" xmlns:xlink="http://www.w3.org/1999/xlink" version="1.1" x="0" y="0" width="16" height="16" overflow="auto" preserveAspectRatio="xMidYMid" baseProfile="tiny" space="preserve">
  <path d="M1152 448 Q1152 422 1133 403 Q1114 384 1088 384 L448 384 Q422 384 403 403 Q384 422 384 448 Q384 474 403 493 Q422 512 448 512 L1088 512 Q1114 512 1133 493 Q1152 474 1152 448 z M640 896 Q640 843 602.5 805.5 Q565 768 512 768 Q459 768 421.5 805.5 Q384 843 384 896 Q384 949 421.5 986.5 Q459 1024 512 1024 Q565 1024 602.5 986.5 Q640 949 640 896 z M1152 896 Q1152 843 1114.5 805.5 Q1077 768 1024 768 Q971 768 933.5 805.5 Q896 843 896 896 Q896 949 933.5 986.5 Q971 1024 1024 1024 Q1077 1024 1114.5 986.5 Q1152 949 1152 896 z M1408 640 Q1408 770 1357 888.5 Q1306 1007 1220.5 1092.5 Q1135 1178 1016.5 1229 Q898 1280 768 1280 Q638 1280 519.5 1229 Q401 1178 315.5 1092.5 Q230 1007 179 888.5 Q128 770 128 640 Q128 510 179 391.5 Q230 273 315.5 187.5 Q401 102 519.5 51 Q638 0 768 0 Q898 0 1016.5 51 Q1135 102 1220.5 187.5 Q1306 273 1357 391.5 Q1408 510 1408 640 z M1536 640 Q1536 431 1433 254.5 Q1330 78 1153.5 -25 Q977 -128 768 -128 Q559 -128 382.5 -25 Q206 78 103 254.5 Q0 431 0 640 Q0 849 103 1025.5 Q206 1202 382.5 1305 Q559 1408 768 1408 Q977 1408 1153.5 1305 Q1330 1202 1433 1025.5 Q1536 849 1536 640 z" pathLength="0" fill="White" transform="translate(1.142857, 1.311302E-06) scale(0.008928572, -0.008928572) translate(0, -1536)" />
</svg>