<!DOCTYPE svg PUBLIC "-//W3C//DTD SVG 1.1//EN" "http://www.w3.org/Graphics/SVG/1.1/DTD/svg11.dtd">
<svg xmlns="http://www.w3.org/2000/svg" xmlns:xlink="http://www.w3.org/1999/xlink" version="1.1" x="0" y="0" width="16" height="16" overflow="auto" preserveAspectRatio="xMidYMid" baseProfile="tiny" space="preserve">
  <path d="M830 1220 Q975 1148 1063.5 1009.5 Q1152 871 1152 704 Q1152 483 1004.5 319.5 Q857 156 640 132 L640 0 L736 0 Q750 0 759 -9 Q768 -18 768 -32 L768 -96 Q768 -110 759 -119 Q750 -128 736 -128 L640 -128 L640 -224 Q640 -238 631 -247 Q622 -256 608 -256 L544 -256 Q530 -256 521 -247 Q512 -238 512 -224 L512 -128 L416 -128 Q402 -128 393 -119 Q384 -110 384 -96 L384 -32 Q384 -18 393 -9 Q402 0 416 0 L512 0 L512 132 Q295 156 147.5 319.5 Q0 483 0 704 Q0 871 88.5 1009.5 Q177 1148 322 1220 Q157 1316 94 1493 Q88 1509 97.5 1522.5 Q107 1536 124 1536 L193 1536 Q214 1536 222 1516 Q266 1410 362 1345 Q458 1280 576 1280 Q694 1280 790 1345 Q886 1410 930 1516 Q938 1536 967 1536 L1028 1536 Q1045 1536 1054.5 1522.5 Q1064 1509 1058 1493 Q995 1316 830 1220 z M576 256 Q761 256 892.5 387.5 Q1024 519 1024 704 Q1024 889 892.5 1020.5 Q761 1152 576 1152 Q391 1152 259.5 1020.5 Q128 889 128 704 Q128 519 259.5 387.5 Q391 256 576 256 z" pathLength="0" fill="White" transform="translate(2.857143, 9.536743E-07) scale(0.008928572, -0.008928572) translate(0, -1536)" />
</svg>