<!DOCTYPE svg PUBLIC "-//W3C//DTD SVG 1.1//EN" "http://www.w3.org/Graphics/SVG/1.1/DTD/svg11.dtd">
<svg xmlns="http://www.w3.org/2000/svg" xmlns:xlink="http://www.w3.org/1999/xlink" version="1.1" x="0" y="0" width="16" height="16" overflow="auto" preserveAspectRatio="xMidYMid" baseProfile="tiny" space="preserve">
  <path d="M1152 832 L1152 704 Q1152 483 1004.5 319.5 Q857 156 640 132 L640 0 L896 0 Q922 0 941 -19 Q960 -38 960 -64 Q960 -90 941 -109 Q922 -128 896 -128 L256 -128 Q230 -128 211 -109 Q192 -90 192 -64 Q192 -38 211 -19 Q230 0 256 0 L512 0 L512 132 Q295 156 147.5 319.5 Q0 483 0 704 L0 832 Q0 858 19 877 Q38 896 64 896 Q90 896 109 877 Q128 858 128 832 L128 704 Q128 519 259.5 387.5 Q391 256 576 256 Q761 256 892.5 387.5 Q1024 519 1024 704 L1024 832 Q1024 858 1043 877 Q1062 896 1088 896 Q1114 896 1133 877 Q1152 858 1152 832 z M896 1216 L896 704 Q896 572 802 478 Q708 384 576 384 Q444 384 350 478 Q256 572 256 704 L256 1216 Q256 1348 350 1442 Q444 1536 576 1536 Q708 1536 802 1442 Q896 1348 896 1216 z" pathLength="0" fill="White" transform="translate(2.857143, 0.5714297) scale(0.008928572, -0.008928572) translate(0, -1536)" />
</svg>