<!DOCTYPE svg PUBLIC "-//W3C//DTD SVG 1.1//EN" "http://www.w3.org/Graphics/SVG/1.1/DTD/svg11.dtd">
<svg xmlns="http://www.w3.org/2000/svg" xmlns:xlink="http://www.w3.org/1999/xlink" version="1.1" x="0" y="0" width="16" height="16" overflow="auto" preserveAspectRatio="xMidYMid" baseProfile="tiny" space="preserve">
  <path d="M271 591 L170 490 Q128 593 128 704 L128 832 Q128 858 147 877 Q166 896 192 896 Q218 896 237 877 Q256 858 256 832 L256 704 Q256 651 271 591 z M1385 1193 L1024 832 L1024 704 Q1024 572 930 478 Q836 384 704 384 Q649 384 595 403 L499 307 Q596 256 704 256 Q889 256 1020.5 387.5 Q1152 519 1152 704 L1152 832 Q1152 858 1171 877 Q1190 896 1216 896 Q1242 896 1261 877 Q1280 858 1280 832 L1280 704 Q1280 483 1132.5 319.5 Q985 156 768 132 L768 0 L1024 0 Q1050 0 1069 -19 Q1088 -38 1088 -64 Q1088 -90 1069 -109 Q1050 -128 1024 -128 L384 -128 Q358 -128 339 -109 Q320 -90 320 -64 Q320 -38 339 -19 Q358 0 384 0 L640 0 L640 132 Q515 145 405 213 L151 -41 Q141 -51 128 -51 Q115 -51 105 -41 L23 41 Q13 51 13 64 Q13 77 23 87 L1257 1321 Q1267 1331 1280 1331 Q1293 1331 1303 1321 L1385 1239 Q1395 1229 1395 1216 Q1395 1203 1385 1193 z M1005 1325 L384 704 L384 1216 Q384 1348 478 1442 Q572 1536 704 1536 Q806 1536 888.5 1477 Q971 1418 1005 1325 z" pathLength="0" fill="White" transform="translate(1.714286, 0.5714297) scale(0.008928572, -0.008928572) translate(0, -1536)" />
</svg>