<!DOCTYPE svg PUBLIC "-//W3C//DTD SVG 1.1//EN" "http://www.w3.org/Graphics/SVG/1.1/DTD/svg11.dtd">
<svg xmlns="http://www.w3.org/2000/svg" xmlns:xlink="http://www.w3.org/1999/xlink" version="1.1" x="0" y="0" width="16" height="16" overflow="auto" preserveAspectRatio="xMidYMid" baseProfile="tiny" space="preserve">
  <path d="M464 128 Q464 161 440.5 184.5 Q417 208 384 208 Q351 208 327.5 184.5 Q304 161 304 128 Q304 95 327.5 71.5 Q351 48 384 48 Q417 48 440.5 71.5 Q464 95 464 128 z M672 288 L672 992 Q672 1005 662.5 1014.5 Q653 1024 640 1024 L128 1024 Q115 1024 105.5 1014.5 Q96 1005 96 992 L96 288 Q96 275 105.5 265.5 Q115 256 128 256 L640 256 Q653 256 662.5 265.5 Q672 275 672 288 z M480 1136 Q480 1152 464 1152 L304 1152 Q288 1152 288 1136 Q288 1120 304 1120 L464 1120 Q480 1120 480 1136 z M768 1152 L768 128 Q768 76 730 38 Q692 0 640 0 L128 0 Q76 0 38 38 Q0 76 0 128 L0 1152 Q0 1204 38 1242 Q76 1280 128 1280 L640 1280 Q692 1280 730 1242 Q768 1204 768 1152 z" pathLength="0" fill="White" transform="translate(4.571428, 7.152557E-07) scale(0.008928572, -0.008928572) translate(0, -1536)" />
</svg>