<!DOCTYPE svg PUBLIC "-//W3C//DTD SVG 1.1//EN" "http://www.w3.org/Graphics/SVG/1.1/DTD/svg11.dtd">
<svg xmlns="http://www.w3.org/2000/svg" xmlns:xlink="http://www.w3.org/1999/xlink" version="1.1" x="0" y="0" width="16" height="16" overflow="auto" preserveAspectRatio="xMidYMid" baseProfile="tiny" space="preserve">
  <path d="M768 384 L1152 384 L1152 480 L1024 480 L1024 928 L910 928 L762 791 L839 711 Q881 748 894 768 L896 768 L896 480 L768 480 L768 384 z M1280 640 Q1280 570 1259 498 Q1238 426 1199.5 364 Q1161 302 1098 263 Q1035 224 960 224 Q885 224 822 263 Q759 302 720.5 364 Q682 426 661 498 Q640 570 640 640 Q640 710 661 782 Q682 854 720.5 916 Q759 978 822 1017 Q885 1056 960 1056 Q1035 1056 1098 1017 Q1161 978 1199.5 916 Q1238 854 1259 782 Q1280 710 1280 640 z M1792 384 L1792 896 Q1686 896 1611 971 Q1536 1046 1536 1152 L384 1152 Q384 1046 309 971 Q234 896 128 896 L128 384 Q234 384 309 309 Q384 234 384 128 L1536 128 Q1536 234 1611 309 Q1686 384 1792 384 z M1920 1216 L1920 64 Q1920 38 1901 19 Q1882 0 1856 0 L64 0 Q38 0 19 19 Q0 38 0 64 L0 1216 Q0 1242 19 1261 Q38 1280 64 1280 L1856 1280 Q1882 1280 1901 1261 Q1920 1242 1920 1216 z" pathLength="0" fill="White" transform="translate(-0.5714283, 7.152557E-07) scale(0.008928572, -0.008928572) translate(0, -1536)" />
</svg>