<!DOCTYPE svg PUBLIC "-//W3C//DTD SVG 1.1//EN" "http://www.w3.org/Graphics/SVG/1.1/DTD/svg11.dtd">
<svg xmlns="http://www.w3.org/2000/svg" xmlns:xlink="http://www.w3.org/1999/xlink" version="1.1" x="0" y="0" width="16" height="16" overflow="auto" preserveAspectRatio="xMidYMid" baseProfile="tiny" space="preserve">
  <path d="M1262 233 Q1208 224 1152 224 Q970 224 815 314 Q660 404 570 559 Q480 714 480 896 Q480 1088 584 1253 Q383 1193 255.5 1024 Q128 855 128 640 Q128 510 179 391.5 Q230 273 315.5 187.5 Q401 102 519.5 51 Q638 0 768 0 Q912 0 1041.5 61.5 Q1171 123 1262 233 z M1465 318 Q1371 115 1181.5 -6.5 Q992 -128 768 -128 Q612 -128 470 -67 Q328 -6 225 97 Q122 200 61 342 Q0 484 0 640 Q0 793 57.5 932.5 Q115 1072 213.5 1174 Q312 1276 449 1338.5 Q586 1401 739 1407 Q783 1409 800 1368 Q818 1327 785 1296 Q699 1218 653.5 1114.5 Q608 1011 608 896 Q608 748 681 623 Q754 498 879 425 Q1004 352 1152 352 Q1270 352 1380 403 Q1421 421 1452 390 Q1466 376 1469.5 356 Q1473 336 1465 318 z" pathLength="0" fill="White" transform="translate(1.429315, 0.001489282) scale(0.008928572, -0.008928572) translate(0, -1536)" />
</svg>