<!DOCTYPE svg PUBLIC "-//W3C//DTD SVG 1.1//EN" "http://www.w3.org/Graphics/SVG/1.1/DTD/svg11.dtd">
<svg xmlns="http://www.w3.org/2000/svg" xmlns:xlink="http://www.w3.org/1999/xlink" version="1.1" x="0" y="0" width="16" height="16" overflow="auto" preserveAspectRatio="xMidYMid" baseProfile="tiny" space="preserve">
  <path d="M1774 700 L1792 384 Q1796 315 1710 256 Q1624 197 1475 162.5 Q1326 128 1152 128 Q978 128 829 162.5 Q680 197 594 256 Q508 315 512 384 L530 700 L1104 519 Q1126 512 1152 512 Q1178 512 1200 519 z M2304 1024 Q2304 1001 2282 993 L1162 641 Q1158 640 1152 640 Q1146 640 1142 641 L490 847 Q447 813 419 735.5 Q391 658 385 557 Q448 521 448 448 Q448 379 390 341 L448 -92 Q450 -106 440 -117 Q431 -128 416 -128 L224 -128 Q209 -128 200 -117 Q190 -106 192 -92 L250 341 Q192 379 192 448 Q192 521 257 559 Q268 766 355 889 L22 993 Q0 1001 0 1024 Q0 1047 22 1055 L1142 1407 Q1146 1408 1152 1408 Q1158 1408 1162 1407 L2282 1055 Q2304 1047 2304 1024 z" pathLength="0" fill="White" transform="translate(-2.285714, 1.311302E-06) scale(0.008928572, -0.008928572) translate(0, -1536)" />
</svg>