<!DOCTYPE svg PUBLIC "-//W3C//DTD SVG 1.1//EN" "http://www.w3.org/Graphics/SVG/1.1/DTD/svg11.dtd">
<svg xmlns="http://www.w3.org/2000/svg" xmlns:xlink="http://www.w3.org/1999/xlink" version="1.1" x="0" y="0" width="16" height="16" overflow="auto" preserveAspectRatio="xMidYMid" baseProfile="tiny" space="preserve">
  <path d="M2301 500 Q2313 397 2279 301.5 Q2245 206 2180 138 Q2115 70 2021.5 32 Q1928 -6 1825 1 Q1664 12 1545.5 126 Q1427 240 1411 400 Q1399 511 1438.5 610.5 Q1478 710 1557 781 L1486 888 Q1390 808 1335 694 Q1280 580 1280 450 Q1280 423 1261.5 403.5 Q1243 384 1216 384 L960 384 L891 384 Q868 220 742 110 Q616 0 448 0 Q263 0 131.5 131.5 Q0 263 0 448 Q0 633 131.5 764.5 Q263 896 448 896 Q524 896 600 869 L624 914 Q501 1024 320 1024 L256 1024 Q230 1024 211 1043 Q192 1062 192 1088 Q192 1114 211 1133 Q230 1152 256 1152 L384 1152 Q462 1152 529 1138.5 Q596 1125 645.5 1100 Q695 1075 717 1060.5 Q739 1046 768 1024 L1280 1024 L1395 1024 L1310 1152 L1088 1152 Q1058 1152 1039 1174.5 Q1020 1197 1025 1227 Q1029 1250 1048 1265 Q1067 1280 1091 1280 L1344 1280 Q1377 1280 1397 1252 L1467 1147 L1581 1261 Q1600 1280 1627 1280 L1728 1280 Q1754 1280 1773 1261 Q1792 1242 1792 1216 L1792 1088 Q1792 1062 1773 1043 Q1754 1024 1728 1024 L1549 1024 L1664 852 Q1795 915 1939 888 Q2082 862 2183 753.5 Q2284 645 2301 500 z M448 128 Q563 128 651 200.5 Q739 273 762 384 L448 384 Q413 384 393 415 Q375 447 392 478 L539 755 Q492 768 448 768 Q316 768 222 674 Q128 580 128 448 Q128 316 222 222 Q316 128 448 128 z M1856 128 Q1988 128 2082 222 Q2176 316 2176 448 Q2176 580 2082 674 Q1988 768 1856 768 Q1796 768 1735 744 L1909 484 Q1924 461 1919 435 Q1914 409 1892 395 Q1877 384 1856 384 Q1821 384 1803 413 L1629 673 Q1536 578 1536 448 Q1536 316 1630 222 Q1724 128 1856 128 z" pathLength="0" fill="White" transform="translate(-2.308036, -0.01636815) scale(0.008928572, -0.008928572) translate(0, -1536)" />
</svg>