<!DOCTYPE svg PUBLIC "-//W3C//DTD SVG 1.1//EN" "http://www.w3.org/Graphics/SVG/1.1/DTD/svg11.dtd">
<svg xmlns="http://www.w3.org/2000/svg" xmlns:xlink="http://www.w3.org/1999/xlink" version="1.1" x="0" y="0" width="16" height="16" overflow="auto" preserveAspectRatio="xMidYMid" baseProfile="tiny" space="preserve">
  <path d="M1133 493 Q1164 463 1147 424 Q1130 384 1088 384 L706 384 L907 -92 Q917 -117 907 -141 Q897 -165 873 -176 L696 -251 Q671 -261 647 -251 Q623 -241 612 -217 L421 235 L109 -77 Q90 -96 64 -96 Q52 -96 40 -91 Q0 -74 0 -32 L0 1472 Q0 1514 40 1531 Q52 1536 64 1536 Q91 1536 109 1517 z" pathLength="0" fill="White" transform="translate(2.828869, -0.007438183) scale(0.008928572, -0.008928572) translate(0, -1536)" />
</svg>