<!DOCTYPE svg PUBLIC "-//W3C//DTD SVG 1.1//EN" "http://www.w3.org/Graphics/SVG/1.1/DTD/svg11.dtd">
<svg xmlns="http://www.w3.org/2000/svg" xmlns:xlink="http://www.w3.org/1999/xlink" version="1.1" x="0" y="0" width="16" height="16" overflow="auto" preserveAspectRatio="xMidYMid" baseProfile="tiny" space="preserve">
  <path d="M1536 1312 L1536 192 Q1536 142 1502 103 Q1468 64 1416 42.5 Q1364 21 1312.5 10.5 Q1261 0 1216 0 Q1171 0 1119.5 10.5 Q1068 21 1016 42.5 Q964 64 930 103 Q896 142 896 192 Q896 242 930 281 Q964 320 1016 341.5 Q1068 363 1119.5 373.5 Q1171 384 1216 384 Q1321 384 1408 345 L1408 882 L640 645 L640 -64 Q640 -114 606 -153 Q572 -192 520 -213.5 Q468 -235 416.5 -245.5 Q365 -256 320 -256 Q275 -256 223.5 -245.5 Q172 -235 120 -213.5 Q68 -192 34 -153 Q0 -114 0 -64 Q0 -14 34 25 Q68 64 120 85.5 Q172 107 223.5 117.5 Q275 128 320 128 Q425 128 512 89 L512 1056 Q512 1087 531 1112.5 Q550 1138 580 1148 L1412 1404 Q1424 1408 1440 1408 Q1480 1408 1508 1380 Q1536 1352 1536 1312 z" pathLength="0" fill="White" transform="translate(1.142857, -0.5714275) scale(0.008928572, -0.008928572) translate(0, -1536)" />
</svg>