<!DOCTYPE svg PUBLIC "-//W3C//DTD SVG 1.1//EN" "http://www.w3.org/Graphics/SVG/1.1/DTD/svg11.dtd">
<svg xmlns="http://www.w3.org/2000/svg" xmlns:xlink="http://www.w3.org/1999/xlink" version="1.1" x="0" y="0" width="16" height="16" overflow="auto" preserveAspectRatio="xMidYMid" baseProfile="tiny" space="preserve">
  <path d="M1536 192 L1536 64 Q1536 38 1517 19 Q1498 0 1472 0 L64 0 Q38 0 19 19 Q0 38 0 64 L0 192 Q0 218 19 237 Q38 256 64 256 L1472 256 Q1498 256 1517 237 Q1536 218 1536 192 z M1536 704 L1536 576 Q1536 550 1517 531 Q1498 512 1472 512 L64 512 Q38 512 19 531 Q0 550 0 576 L0 704 Q0 730 19 749 Q38 768 64 768 L1472 768 Q1498 768 1517 749 Q1536 730 1536 704 z M1536 1216 L1536 1088 Q1536 1062 1517 1043 Q1498 1024 1472 1024 L64 1024 Q38 1024 19 1043 Q0 1062 0 1088 L0 1216 Q0 1242 19 1261 Q38 1280 64 1280 L1472 1280 Q1498 1280 1517 1261 Q1536 1242 1536 1216 z" pathLength="0" fill="White" transform="translate(1.142857, 7.152557E-07) scale(0.008928572, -0.008928572) translate(0, -1536)" />
</svg>