<!DOCTYPE svg PUBLIC "-//W3C//DTD SVG 1.1//EN" "http://www.w3.org/Graphics/SVG/1.1/DTD/svg11.dtd">
<svg xmlns="http://www.w3.org/2000/svg" xmlns:xlink="http://www.w3.org/1999/xlink" version="1.1" x="0" y="0" width="16" height="16" overflow="auto" preserveAspectRatio="xMidYMid" baseProfile="tiny" space="preserve">
  <path d="M1152 960 Q1152 739 1004.5 575.5 Q857 412 640 388 L640 -224 Q640 -238 631 -247 Q622 -256 608 -256 L544 -256 Q530 -256 521 -247 Q512 -238 512 -224 L512 388 Q295 412 147.5 575.5 Q0 739 0 960 Q0 1077 45.5 1183.5 Q91 1290 168.5 1367.5 Q246 1445 352.5 1490.5 Q459 1536 576 1536 Q693 1536 799.5 1490.5 Q906 1445 983.5 1367.5 Q1061 1290 1106.5 1183.5 Q1152 1077 1152 960 z M576 512 Q761 512 892.5 643.5 Q1024 775 1024 960 Q1024 1145 892.5 1276.5 Q761 1408 576 1408 Q391 1408 259.5 1276.5 Q128 1145 128 960 Q128 775 259.5 643.5 Q391 512 576 512 z" pathLength="0" fill="White" transform="translate(2.857143, 9.536743E-07) scale(0.008928572, -0.008928572) translate(0, -1536)" />
</svg>