<!DOCTYPE svg PUBLIC "-//W3C//DTD SVG 1.1//EN" "http://www.w3.org/Graphics/SVG/1.1/DTD/svg11.dtd">
<svg xmlns="http://www.w3.org/2000/svg" xmlns:xlink="http://www.w3.org/1999/xlink" version="1.1" x="0" y="0" width="16" height="16" overflow="auto" preserveAspectRatio="xMidYMid" baseProfile="tiny" space="preserve">
  <path d="M1024 1024 L640 1024 L640 640 L1024 640 L1024 1024 z M1152 384 L1152 256 L512 256 L512 384 L1152 384 z M1152 1152 L1152 512 L512 512 L512 1152 L1152 1152 z M1792 384 L1792 256 L1280 256 L1280 384 L1792 384 z M1792 640 L1792 512 L1280 512 L1280 640 L1792 640 z M1792 896 L1792 768 L1280 768 L1280 896 L1792 896 z M1792 1152 L1792 1024 L1280 1024 L1280 1152 L1792 1152 z M256 192 L256 1152 L128 1152 L128 192 Q128 166 147 147 Q166 128 192 128 Q218 128 237 147 Q256 166 256 192 z M1920 192 L1920 1280 L384 1280 L384 192 Q384 159 373 128 L1856 128 Q1882 128 1901 147 Q1920 166 1920 192 z M2048 1408 L2048 192 Q2048 112 1992 56 Q1936 0 1856 0 L192 0 Q112 0 56 56 Q0 112 0 192 L0 1280 L256 1280 L256 1408 L2048 1408 z" pathLength="0" fill="White" transform="translate(-1.142858, 0.5714296) scale(0.008928572, -0.008928572) translate(0, -1536)" />
</svg>