<!DOCTYPE svg PUBLIC "-//W3C//DTD SVG 1.1//EN" "http://www.w3.org/Graphics/SVG/1.1/DTD/svg11.dtd">
<svg xmlns="http://www.w3.org/2000/svg" xmlns:xlink="http://www.w3.org/1999/xlink" version="1.1" x="0" y="0" width="16" height="16" overflow="auto" preserveAspectRatio="xMidYMid" baseProfile="tiny" space="preserve">
  <path d="M2304 768 L2176 768 L2176 128 L2304 128 L2304 -256 L1920 -256 L1920 -128 L1024 -128 L1024 -256 L640 -256 L640 128 L768 128 L768 256 L384 256 L384 128 L0 128 L0 512 L128 512 L128 1152 L0 1152 L0 1536 L384 1536 L384 1408 L1280 1408 L1280 1536 L1664 1536 L1664 1152 L1536 1152 L1536 1024 L1920 1024 L1920 1152 L2304 1152 L2304 768 z M2048 1024 L2048 896 L2176 896 L2176 1024 L2048 1024 z M1408 1408 L1408 1280 L1536 1280 L1536 1408 L1408 1408 z M128 1408 L128 1280 L256 1280 L256 1408 L128 1408 z M256 256 L256 384 L128 384 L128 256 L256 256 z M1536 384 L1408 384 L1408 256 L1536 256 L1536 384 z M384 384 L1280 384 L1280 512 L1408 512 L1408 1152 L1280 1152 L1280 1280 L384 1280 L384 1152 L256 1152 L256 512 L384 512 L384 384 z M896 -128 L896 0 L768 0 L768 -128 L896 -128 z M2176 -128 L2176 0 L2048 0 L2048 -128 L2176 -128 z M2048 128 L2048 768 L1920 768 L1920 896 L1536 896 L1536 512 L1664 512 L1664 128 L1280 128 L1280 256 L896 256 L896 128 L1024 128 L1024 0 L1920 0 L1920 128 L2048 128 z" pathLength="0" fill="White" transform="translate(-2.285714, 9.536743E-07) scale(0.008928572, -0.008928572) translate(0, -1536)" />
</svg>