<!DOCTYPE svg PUBLIC "-//W3C//DTD SVG 1.1//EN" "http://www.w3.org/Graphics/SVG/1.1/DTD/svg11.dtd">
<svg xmlns="http://www.w3.org/2000/svg" xmlns:xlink="http://www.w3.org/1999/xlink" version="1.1" x="0" y="0" width="16" height="16" overflow="auto" preserveAspectRatio="xMidYMid" baseProfile="tiny" space="preserve">
  <path d="M2048 1152 L1920 1152 L1920 128 L2048 128 L2048 -256 L1664 -256 L1664 -128 L384 -128 L384 -256 L0 -256 L0 128 L128 128 L128 1152 L0 1152 L0 1536 L384 1536 L384 1408 L1664 1408 L1664 1536 L2048 1536 L2048 1152 z M1792 1408 L1792 1280 L1920 1280 L1920 1408 L1792 1408 z M128 1408 L128 1280 L256 1280 L256 1408 L128 1408 z M256 -128 L256 0 L128 0 L128 -128 L256 -128 z M1664 0 L1664 128 L1792 128 L1792 1152 L1664 1152 L1664 1280 L384 1280 L384 1152 L256 1152 L256 128 L384 128 L384 0 L1664 0 z M1920 -128 L1920 0 L1792 0 L1792 -128 L1920 -128 z M1280 896 L1664 896 L1664 128 L768 128 L768 384 L384 384 L384 1152 L1280 1152 L1280 896 z M512 512 L1152 512 L1152 1024 L512 1024 L512 512 z M1536 256 L1536 768 L1280 768 L1280 384 L896 384 L896 256 L1536 256 z" pathLength="0" fill="White" transform="translate(-1.142858, 9.536743E-07) scale(0.008928572, -0.008928572) translate(0, -1536)" />
</svg>