<!DOCTYPE svg PUBLIC "-//W3C//DTD SVG 1.1//EN" "http://www.w3.org/Graphics/SVG/1.1/DTD/svg11.dtd">
<svg xmlns="http://www.w3.org/2000/svg" xmlns:xlink="http://www.w3.org/1999/xlink" version="1.1" x="0" y="0" width="16" height="16" overflow="auto" preserveAspectRatio="xMidYMid" baseProfile="tiny" space="preserve">
  <path d="M927 956 Q927 890 880.5 843.5 Q834 797 768 797 Q702 797 655.5 843.5 Q609 890 609 956 Q609 1022 655.5 1068.5 Q702 1115 768 1115 Q834 1115 880.5 1068.5 Q927 1022 927 956 z M1141 593 Q1131 613 1113 625 Q1095 637 1065.5 634.5 Q1036 632 1005 607 Q995 599 976 587 Q957 575 895 555 Q833 535 768 535 Q703 535 644 553 Q585 571 558 589 L531 607 Q500 632 470.5 634.5 Q441 637 423 625 Q405 613 395 593 Q373 548 393 518.5 Q413 489 480 445 Q563 392 706 378 L655 326 Q513 184 464 136 Q442 114 442 83.5 Q442 53 464 31 L473 22 Q495 0 525.5 0 Q556 0 578 22 L769 213 Q883 98 960 22 Q982 0 1012.5 0 Q1043 0 1065 22 L1074 31 Q1096 53 1096 83.5 Q1096 114 1074 136 L883 326 L831 378 Q972 392 1056 445 Q1123 489 1143 518.5 Q1163 548 1141 593 z M1092 956 Q1092 1090 997 1185 Q902 1280 768 1280 Q634 1280 539 1185 Q444 1090 444 956 Q444 822 539 727 Q634 632 768 632 Q902 632 997 727 Q1092 822 1092 956 z M1536 1120 L1536 160 Q1536 41 1451.5 -43.5 Q1367 -128 1248 -128 L288 -128 Q169 -128 84.5 -43.5 Q0 41 0 160 L0 1120 Q0 1239 84.5 1323.5 Q169 1408 288 1408 L1248 1408 Q1367 1408 1451.5 1323.5 Q1536 1239 1536 1120 z" pathLength="0" fill="White" transform="translate(1.142857, 1.311302E-06) scale(0.008928572, -0.008928572) translate(0, -1536)" />
</svg>