<!DOCTYPE svg PUBLIC "-//W3C//DTD SVG 1.1//EN" "http://www.w3.org/Graphics/SVG/1.1/DTD/svg11.dtd">
<svg xmlns="http://www.w3.org/2000/svg" xmlns:xlink="http://www.w3.org/1999/xlink" version="1.1" x="0" y="0" width="16" height="16" overflow="auto" preserveAspectRatio="xMidYMid" baseProfile="tiny" space="preserve">
  <path d="M640 629 Q452 629 319 762 Q186 895 186 1082 Q186 1270 319 1403 Q452 1536 640 1536 Q828 1536 961 1403 Q1094 1270 1094 1082 Q1094 895 961 762 Q828 629 640 629 z M640 1306 Q548 1306 482.5 1240.5 Q417 1175 417 1082 Q417 990 482.5 924.5 Q548 859 640 859 Q732 859 797.5 924.5 Q863 990 863 1082 Q863 1175 797.5 1240.5 Q732 1306 640 1306 z M1163 574 Q1176 547 1178 524.5 Q1180 502 1173.5 484 Q1167 466 1147 445.5 Q1127 425 1104.5 408.5 Q1082 392 1043 367 Q928 294 728 273 L801 201 L1068 -66 Q1098 -97 1098 -140 Q1098 -183 1068 -213 L1056 -226 Q1025 -256 982 -256 Q939 -256 908 -226 Q841 -158 641 42 L374 -226 Q343 -256 300 -256 Q257 -256 227 -226 L215 -213 Q184 -183 184 -140 Q184 -97 215 -66 L482 201 L554 273 Q351 294 237 367 Q198 392 175.5 408.5 Q153 425 133 445.5 Q113 466 106.5 484 Q100 502 102 524.5 Q104 547 117 574 Q127 594 145 609 Q163 624 187 631 Q211 638 243 629 Q275 620 308 594 Q313 590 323 583 Q333 576 366 558.5 Q399 541 435 528 Q471 515 527 504 Q583 493 640 493 Q731 493 814 518.5 Q897 544 934 569 L972 594 Q1005 620 1037 629 Q1069 638 1093 631 Q1117 624 1135 609 Q1153 594 1163 574 z" pathLength="0" fill="White" transform="translate(2.285715, 9.536743E-07) scale(0.008928572, -0.008928572) translate(0, -1536)" />
</svg>