<!DOCTYPE svg PUBLIC "-//W3C//DTD SVG 1.1//EN" "http://www.w3.org/Graphics/SVG/1.1/DTD/svg11.dtd">
<svg xmlns="http://www.w3.org/2000/svg" xmlns:xlink="http://www.w3.org/1999/xlink" version="1.1" x="0" y="0" width="16" height="16" overflow="auto" preserveAspectRatio="xMidYMid" baseProfile="tiny" space="preserve">
  <path d="M1086 1536 L1086 0 L814 -128 Q586 -108 400 -26 Q214 56 107 182.5 Q0 309 0 455 Q0 595 100.5 718.5 Q201 842 375.5 924 Q550 1006 767 1032 L767 860 Q550 822 410.5 710 Q271 598 271 455 Q271 303 425.5 188 Q580 73 814 43 L814 1403 z M1755 954 L1792 564 L1267 678 L1414 761 Q1295 831 1134 860 L1134 1032 Q1411 999 1615 875 z" pathLength="0" fill="White" transform="translate(0, 0.5714297) scale(0.008928572, -0.008928572) translate(0, -1536)" />
</svg>