<!DOCTYPE svg PUBLIC "-//W3C//DTD SVG 1.1//EN" "http://www.w3.org/Graphics/SVG/1.1/DTD/svg11.dtd">
<svg xmlns="http://www.w3.org/2000/svg" xmlns:xlink="http://www.w3.org/1999/xlink" version="1.1" x="0" y="0" width="16" height="16" overflow="auto" preserveAspectRatio="xMidYMid" baseProfile="tiny" space="preserve">
  <path d="M1524 -25 Q1524 -93 1476 -141 Q1428 -189 1360 -189 Q1292 -189 1243.5 -141 Q1195 -93 1195 -25 Q1195 43 1243.5 91.5 Q1292 140 1360 140 Q1428 140 1476 91.5 Q1524 43 1524 -25 z M775 -25 Q775 -93 726.5 -141 Q678 -189 610 -189 Q542 -189 494 -141 Q446 -93 446 -25 Q446 43 494 91.5 Q542 140 610 140 Q678 140 726.5 91.5 Q775 43 775 -25 z M0 1469 Q57 1409 110.5 1364.5 Q164 1320 231.5 1282.5 Q299 1245 367.5 1219.5 Q436 1194 533.5 1174 Q631 1154 733.5 1142.5 Q836 1131 983.5 1124 Q1131 1117 1287.5 1114.5 Q1444 1112 1660 1112 Q1799 1112 1904.5 1107 Q2010 1102 2085.5 1090.5 Q2161 1079 2209.5 1063 Q2258 1047 2280.5 1023.5 Q2303 1000 2304.5 972 Q2306 944 2285 908 Q2264 872 2228.5 831.5 Q2193 791 2139 740.5 Q2085 690 2023 636 Q1961 582 1884 517 Q1699 360 1598 270 Q1627 321 1674.5 379 Q1722 437 1768.5 484.5 Q1815 532 1863 583 Q1911 634 1946 674.5 Q1981 715 2000 755 Q2019 795 2013 825 Q2007 855 1967.5 880.5 Q1928 906 1851 921.5 Q1774 937 1647 945 Q1520 953 1343 950 Q1175 948 1029 956 Q883 964 773 979 Q663 994 568.5 1020 Q474 1046 409 1071.5 Q344 1097 286.5 1134 Q229 1171 195 1200.5 Q161 1230 127 1272 Q93 1314 76.5 1341.5 Q60 1369 36.5 1409.5 Q13 1450 0 1469 z" pathLength="0" fill="White" transform="translate(-2.292411, 8.34465E-07) scale(0.008928572, -0.008928572) translate(0, -1536)" />
</svg>