<!DOCTYPE svg PUBLIC "-//W3C//DTD SVG 1.1//EN" "http://www.w3.org/Graphics/SVG/1.1/DTD/svg11.dtd">
<svg xmlns="http://www.w3.org/2000/svg" xmlns:xlink="http://www.w3.org/1999/xlink" version="1.1" x="0" y="0" width="16" height="16" overflow="auto" preserveAspectRatio="xMidYMid" baseProfile="tiny" space="preserve">
  <path d="M768 -92 Q845 -92 907.5 -29 Q970 34 1008 137 Q1046 240 1067 371.5 Q1088 503 1088 640 Q1088 777 1067 908.5 Q1046 1040 1008 1143 Q970 1246 907.5 1309 Q845 1372 768 1372 Q691 1372 628.5 1309 Q566 1246 528 1143 Q490 1040 469 908.5 Q448 777 448 640 Q448 503 469 371.5 Q490 240 528 137 Q566 34 628.5 -29 Q691 -92 768 -92 z M768 -256 Q584 -256 435 -179 Q286 -102 195 24 Q104 150 54 311 Q4 472 4 640 Q4 808 54 969 Q104 1130 195 1256 Q286 1382 435 1459 Q584 1536 768 1536 Q916 1536 1042 1486 Q1168 1436 1256.5 1350 Q1345 1264 1408 1149 Q1471 1034 1500.5 905 Q1530 776 1530 640 Q1530 504 1500.5 375 Q1471 246 1408 131 Q1345 16 1256.5 -70 Q1168 -156 1042 -206 Q916 -256 768 -256 z" pathLength="0" fill="White" transform="translate(1.151787, 9.536743E-07) scale(0.008928572, -0.008928572) translate(0, -1536)" />
</svg>