<!DOCTYPE svg PUBLIC "-//W3C//DTD SVG 1.1//EN" "http://www.w3.org/Graphics/SVG/1.1/DTD/svg11.dtd">
<svg xmlns="http://www.w3.org/2000/svg" xmlns:xlink="http://www.w3.org/1999/xlink" version="1.1" x="0" y="0" width="16" height="16" overflow="auto" preserveAspectRatio="xMidYMid" baseProfile="tiny" space="preserve">
  <path d="M478 -139 Q470 -155 451 -173.5 Q432 -192 414 -199 Q389 -208 362.5 -195.5 Q336 -183 334 -164 Q333 -142 374 -109 Q415 -76 442 -71 Q465 -67 476 -92.5 Q487 -118 478 -139 z M1819 -139 Q1826 -155 1845 -173.5 Q1864 -192 1883 -199 Q1908 -208 1934.5 -195.5 Q1961 -183 1962 -164 Q1964 -142 1922.5 -109 Q1881 -76 1854 -71 Q1832 -67 1821 -92.5 Q1810 -118 1819 -139 z M1867 -30 Q1880 -57 1923.5 -89.5 Q1967 -122 2001 -131 Q2046 -144 2083 -126.5 Q2120 -109 2120 -76 Q2120 -30 2052.5 24.5 Q1985 79 1937 84 Q1897 89 1873.5 46.5 Q1850 4 1867 -30 z M428 -30 Q415 -57 372 -89.5 Q329 -122 295 -131 Q250 -144 213 -126.5 Q176 -109 176 -76 Q176 -30 243.5 24.5 Q311 79 359 84 Q399 89 422 46.5 Q445 4 428 -30 z M1158 1094 L1159 1094 Q1118 1094 1083 1079 Q1110 1071 1127 1048.5 Q1144 1026 1144 999 Q1144 964 1117 939 Q1090 914 1052 914 Q1000 914 972 957 Q967 934 967 915 Q967 841 1023 788.5 Q1079 736 1158 736 Q1238 736 1294 788.5 Q1350 841 1350 915 Q1350 989 1294 1041.5 Q1238 1094 1158 1094 z M1462 1312 Q1363 1421 1241.5 1443.5 Q1120 1466 996 1399 Q1023 1459 1078.5 1495.5 Q1134 1532 1196.5 1535 Q1259 1538 1318 1518 Q1377 1498 1417.5 1443.5 Q1458 1389 1462 1312 z M2212 73 Q2220 62 2201 31 Q2208 8 2208 -9 Q2209 -65 2163.5 -121.5 Q2118 -178 2054 -213 Q1990 -248 1936 -250 Q1888 -252 1844 -228.5 Q1800 -205 1778 -163 Q1091 -188 519 -163 Q496 -204 452.5 -228 Q409 -252 360 -250 Q274 -247 180.5 -169.5 Q87 -92 88 -9 Q90 13 95 31 Q76 62 84 73 Q90 83 115 74 Q129 96 156 125 Q149 154 158 163 Q169 173 197 159 Q226 179 256 193 Q256 222 269 230 Q292 242 320 214 Q355 219 381 212 Q399 208 419 193 L419 266 Q408 266 401 268 Q348 278 304 312.5 Q260 347 249 400 Q240 438 249 481 Q264 543 342 576 Q344 593 361 611.5 Q378 630 397 635 Q416 640 430 627.5 Q444 615 449 597 L462 597 Q508 592 522 574 Q525 571 527 567 Q537 568 557.5 570.5 Q578 573 588 574 Q573 585 558 591 Q535 631 467 634 Q467 640 468 644 Q406 646 349.5 662.5 Q293 679 265 710 Q233 746 222.5 802 Q212 858 220 914 Q236 1040 310 1093 Q333 1109 362 1097.5 Q391 1086 394 1057 Q394 1056 395.5 1043 Q397 1030 398 1022 Q399 1014 401 1002 Q403 990 406.5 983 Q410 976 415 973 Q442 959 491 961 Q539 1007 589 1035 Q549 1039 427 1021 L474 1067 Q535 1125 637 1178 Q782 1251 919 1264 Q899 1272 878 1279.5 Q857 1287 831 1293.5 Q805 1300 788.5 1304 Q772 1308 741 1315 Q710 1322 698 1325 Q1293 1451 1602 1186 Q1700 1102 1760 964 Q1845 954 1881 973 L1882 973 Q1887 976 1890.5 983 Q1894 990 1896 1002 Q1898 1014 1899 1021.5 Q1900 1029 1902 1043 L1903 1057 Q1906 1085 1935 1097 Q1964 1109 1987 1092 Q2060 1040 2078 914 Q2085 857 2074.5 801 Q2064 745 2032 710 Q2004 678 1948.5 661.5 Q1893 645 1833 643 L1833 633 Q1762 631 1738 590 Q1724 585 1707 573 Q1718 572 1739 569.5 Q1760 567 1769 566 Q1770 570 1774 574 Q1790 592 1834 597 L1847 597 Q1852 615 1866 627 Q1880 639 1899 635 Q1918 631 1935 612 Q1952 593 1954 576 Q2033 544 2047 481 Q2056 441 2048 400 Q2036 347 1992 312 Q1948 277 1895 268 Q1885 266 1878 266 Q1878 217 1877 193 Q1897 208 1915 212 Q1941 219 1976 214 Q2004 242 2027 230 Q2041 221 2041 193 Q2074 177 2100 159 Q2127 172 2138 163 Q2148 153 2140 125 Q2168 95 2181 74 Q2204 82 2212 73 z M1937 1025 Q1937 996 1928 971 Q2010 939 2040 839 Q2044 876 2030.5 937.5 Q2017 999 1989 1028 Q1969 1047 1953 1045 Q1937 1043 1937 1025 z M1859 925 Q1894 883 1906.5 816.5 Q1919 750 1906 692 Q1973 705 2003 737 Q2016 751 2021 765 Q2018 829 1990 879.5 Q1962 930 1911 946 Q1896 931 1859 925 z M1822 921 Q1792 921 1778 922 Q1820 807 1831 683 Q1852 683 1874 686 Q1890 754 1875 821 Q1860 888 1822 921 z M258 839 Q288 939 370 971 Q361 996 361 1025 Q361 1043 344.5 1045 Q328 1047 309 1028 Q281 999 267.5 937.5 Q254 876 258 839 z M294 737 Q323 706 391 692 Q378 750 390.5 816.5 Q403 883 438 925 L438 925 Q401 931 386 946 Q335 930 307.5 880 Q280 830 276 765 Q285 748 294 737 z M471 683 Q485 807 544 918 Q525 914 489 900 L444 881 L444 882 Q398 793 424 686 Q449 683 471 683 z M1434 644 Q1442 606 1450.5 535.5 Q1459 465 1462 446 Q1465 428 1471.5 424.5 Q1478 421 1495 429 Q1535 449 1557 514.5 Q1579 580 1580 640 Q1556 642 1434 644 z M1152 1285 Q1036 1285 953 1202.5 Q870 1120 870 1004 Q870 887 953 804.5 Q1036 722 1152 722 Q1268 722 1351 804.5 Q1434 887 1434 1004 Q1434 1120 1351 1202.5 Q1268 1285 1152 1285 z M1380 646 Q1274 648 1169 646 L1169 647 Q1168 620 1171.5 561 Q1175 502 1185 495 Q1214 481 1278.5 480.5 Q1343 480 1374 491 Q1383 494 1385 530 Q1387 566 1384.5 599.5 Q1382 633 1380 646 z M1112 447 Q1120 451 1121.5 495 Q1123 539 1121 583 Q1119 627 1117 646 L1117 647 Q905 644 903 644 Q899 624 896 582 Q893 540 896 499 Q899 458 910 453 Q944 438 1011 437 Q1078 436 1112 447 z M718 636 Q702 577 722.5 517.5 Q743 458 800 433 Q815 425 824 428 Q833 431 836 449 Q839 465 844 539 Q849 613 854 642 Q785 640 718 636 z M591 510 Q594 487 557 474 Q689 333 828.5 234 Q968 135 1134 80 Q1306 129 1444.5 226 Q1583 323 1738 476 Q1705 489 1708 510 L1711 519 L1711 520 L1711 519 Q1694 521 1661 524.5 Q1628 528 1613 529 Q1587 439 1531 397 Q1480 359 1449 398 Q1444 404 1440 412 Q1433 425 1423 474 Q1421 469 1418 465 Q1415 461 1410.5 458 Q1406 455 1402.5 452.5 Q1399 450 1393 448.5 L1383 446 Q1383 446 1371 444 L1359 442.5 Q1359 442.5 1345.5 441.5 Q1332 440.5 1332 441 Q1226 432 1169 452 Q1165 435 1159 425.5 Q1153 416 1138 410.5 Q1123 405 1115 403.5 Q1107 402 1079 400 Q1077 400 1076 399.5 Q1075 399 1073 399 L1070 399 Q891 382 867 439 Q865 376 811 385 Q764 393 720 439 Q708 452 700 465 Q683 494 674 530 Q616 524 587 520 Q588 518 591 510 z M507 -118 Q510 -104 510 -88 Q493 -17 459 42 Q425 101 386 112 Q345 124 284.5 97.5 Q224 71 180 17.5 Q136 -36 141 -90 Q176 -143 241 -183 Q306 -223 360 -225 Q411 -227 454 -197 Q497 -167 507 -118 z M510 53 Q533 -10 537 -66 Q732 47 929 108 Q831 160 748.5 228 Q666 296 569 393 Q563 389 540 380 Q540 378 539 375 Q538 372 538 371 Q569 353 560 334 Q548 311 504 300 Q494 287 475 276 L474 276 Q472 193 475 126 Q494 92 510 53 z M579 -113 Q1111 -134 1724 -113 Q1470 34 1296 83 Q1220 48 1140 26 Q1132 23 1124 26 Q1059 47 995 75 Q787 15 579 -113 L578 -113 L578 -114 Q579 -114 579 -113 z M1763 -67 Q1767 -13 1791 53 Q1805 91 1824 124 L1823 123 Q1826 200 1826 276 Q1811 284 1796 301 Q1754 310 1740 334 Q1731 354 1762 372 Q1760 376 1760 381 Q1744 385 1732 393 Q1528 203 1349 109 Q1547 50 1763 -67 z M2155 -90 Q2160 -36 2116 17.5 Q2072 71 2012 97.5 Q1952 124 1910 112 Q1872 101 1837.5 41.5 Q1803 -18 1786 -88 Q1786 -104 1789 -118 Q1799 -167 1842 -197 Q1885 -227 1936 -225 Q1990 -223 2055 -183 Q2120 -143 2155 -90 z" pathLength="0" fill="White" transform="translate(-2.249999, 0.02529887) scale(0.008928572, -0.008928572) translate(0, -1536)" />
</svg>