<!DOCTYPE svg PUBLIC "-//W3C//DTD SVG 1.1//EN" "http://www.w3.org/Graphics/SVG/1.1/DTD/svg11.dtd">
<svg xmlns="http://www.w3.org/2000/svg" xmlns:xlink="http://www.w3.org/1999/xlink" version="1.1" x="0" y="0" width="16" height="16" overflow="auto" preserveAspectRatio="xMidYMid" baseProfile="tiny" space="preserve">
  <path d="M1402 433 Q1370 353 1326 295 Q1282 237 1235 206.5 Q1188 176 1136 160 Q1084 144 1034.5 145.5 Q985 147 938 154 Q891 161 851.5 176 Q812 191 782 203.5 Q752 216 736 226 L719 236 Q606 8 429.5 -123.5 Q253 -255 45 -256 Q26 -256 13 -243 Q0 -230 0 -211 Q0 -192 13 -179.5 Q26 -167 45 -167 Q218 -166 367.5 -59.5 Q517 47 619 235 Q583 221 547 212 Q511 203 464 199 Q417 195 373 201.5 Q329 208 280 230 Q231 252 188 289 Q145 326 103.5 389 Q62 452 29 535 Q143 582 243 592 Q343 602 410.5 584.5 Q478 567 535 528 Q592 489 623.5 451 Q655 413 680 369 Q733 500 759 660 Q752 659 741 657.5 Q730 656 694.5 655 Q659 654 625 655.5 Q591 657 543.5 665.5 Q496 674 455 688.5 Q414 703 371 731 Q328 759 296 796 Q264 833 241.5 890.5 Q219 948 213 1018 Q283 1046 346.5 1054.5 Q410 1063 459 1053.5 Q508 1044 551 1023.5 Q594 1003 624.5 973.5 Q655 944 680.5 912.5 Q706 881 722.5 849.5 Q739 818 750 793.5 Q761 769 766 754 L770 738 Q782 860 782 933 Q774 939 760.5 949 Q747 959 711.5 993.5 Q676 1028 648 1065 Q620 1102 594 1158 Q568 1214 561 1270.5 Q554 1327 573 1397.5 Q592 1468 643 1536 Q716 1511 770.5 1474.5 Q825 1438 855 1398 Q885 1358 903 1313 Q921 1268 923.5 1224 Q926 1180 923 1138.5 Q920 1097 910 1062 Q900 1027 891 1000 Q882 973 874 958 L867 943 Q868 938 868 892.5 Q868 847 867 821 Q870 828 877 839.5 Q884 851 907.5 882.5 Q931 914 958 940.5 Q985 967 1029 996 Q1073 1025 1120.5 1040.5 Q1168 1056 1232.5 1055 Q1297 1054 1365 1031 Q1363 953 1343.5 889.5 Q1324 826 1293.5 785 Q1263 744 1224 713.5 Q1185 683 1142.5 668 Q1100 653 1058 644 Q1016 635 978 634.5 Q940 634 910.5 635.5 Q881 637 864 640 L847 643 Q824 496 774 360 Q780 367 792 378.5 Q804 390 841.5 419.5 Q879 449 919 472 Q959 495 1018.5 514 Q1078 533 1136 534 Q1194 535 1265 510.5 Q1336 486 1402 433 z" pathLength="0" fill="White" transform="translate(1.741071, 9.536743E-07) scale(0.008928572, -0.008928572) translate(0, -1536)" />
</svg>