<!DOCTYPE svg PUBLIC "-//W3C//DTD SVG 1.1//EN" "http://www.w3.org/Graphics/SVG/1.1/DTD/svg11.dtd">
<svg xmlns="http://www.w3.org/2000/svg" xmlns:xlink="http://www.w3.org/1999/xlink" version="1.1" x="0" y="0" width="16" height="16" overflow="auto" preserveAspectRatio="xMidYMid" baseProfile="tiny" space="preserve">
  <path d="M1615 1536 Q1685 1536 1737.5 1489.5 Q1790 1443 1790 1373 Q1790 1310 1745 1222 Q1413 593 1280 470 Q1183 379 1062 379 Q936 379 845.5 471.5 Q755 564 755 691 Q755 819 847 903 L1485 1482 Q1544 1536 1615 1536 z M706 502 Q745 426 812.5 372 Q880 318 963 296 L964 225 Q968 12 834.5 -122 Q701 -256 486 -256 Q363 -256 268 -209.5 Q173 -163 115.5 -82 Q58 -1 29 101 Q0 203 0 321 Q7 316 41 291 Q75 266 103 246.5 Q131 227 162 210 Q193 193 208 193 Q249 193 263 230 Q288 296 320.5 342.5 Q353 389 390 418.5 Q427 448 478 466 Q529 484 581 491.5 Q633 499 706 502 z" pathLength="0" fill="White" transform="translate(0.008928299, 9.536743E-07) scale(0.008928572, -0.008928572) translate(0, -1536)" />
</svg>