<!DOCTYPE svg PUBLIC "-//W3C//DTD SVG 1.1//EN" "http://www.w3.org/Graphics/SVG/1.1/DTD/svg11.dtd">
<svg xmlns="http://www.w3.org/2000/svg" xmlns:xlink="http://www.w3.org/1999/xlink" version="1.1" x="0" y="0" width="16" height="16" overflow="auto" preserveAspectRatio="xMidYMid" baseProfile="tiny" space="preserve">
  <path d="M1404 151 Q1404 34 1325 -45 Q1246 -124 1129 -124 Q994 -124 894 -24 L117 752 Q4 867 4 1023 Q4 1182 114 1293 Q224 1404 383 1404 Q541 1404 656 1291 L1261 685 Q1271 675 1271 663 Q1271 647 1240.5 616.5 Q1210 586 1194 586 Q1181 586 1171 596 L565 1203 Q486 1280 384 1280 Q278 1280 205 1205 Q132 1130 132 1024 Q132 919 208 843 L984 66 Q1047 3 1129 3 Q1193 3 1235 45 Q1277 87 1277 151 Q1277 233 1214 296 L633 877 Q607 901 573 901 Q544 901 525 882 Q506 863 506 834 Q506 802 531 775 L941 365 Q951 355 951 343 Q951 327 920 296 Q889 265 873 265 Q861 265 851 275 L441 685 Q378 746 378 834 Q378 916 435 973 Q492 1030 574 1030 Q662 1030 723 967 L1304 386 Q1404 288 1404 151 z" pathLength="0" fill="White" transform="translate(1.714287, 1.192093E-06) scale(0.008928572, -0.008928572) translate(0, -1536)" />
</svg>