<!DOCTYPE svg PUBLIC "-//W3C//DTD SVG 1.1//EN" "http://www.w3.org/Graphics/SVG/1.1/DTD/svg11.dtd">
<svg xmlns="http://www.w3.org/2000/svg" xmlns:xlink="http://www.w3.org/1999/xlink" version="1.1" x="0" y="0" width="16" height="16" overflow="auto" preserveAspectRatio="xMidYMid" baseProfile="tiny" space="preserve">
  <path d="M1278 1347 L1278 1274 Q1278 1245 1259.5 1213 Q1241 1181 1217 1181 Q1167 1181 1163 1180 Q1137 1174 1131 1149 Q1128 1138 1128 1085 L1128 -67 Q1128 -92 1110 -110 Q1092 -128 1067 -128 L959 -128 Q934 -128 916 -110 Q898 -92 898 -67 L898 1151 L755 1151 L755 -67 Q755 -92 737.5 -110 Q720 -128 694 -128 L586 -128 Q560 -128 542.5 -110 Q525 -92 525 -67 L525 429 Q378 441 280 488 Q154 546 88 667 Q24 784 24 926 Q24 1092 112 1212 Q200 1330 321 1371 Q432 1408 738 1408 L1217 1408 Q1242 1408 1260 1390 Q1278 1372 1278 1347 z" pathLength="0" fill="White" transform="translate(2.187501, 1.311302E-06) scale(0.008928572, -0.008928572) translate(0, -1536)" />
</svg>