<!DOCTYPE svg PUBLIC "-//W3C//DTD SVG 1.1//EN" "http://www.w3.org/Graphics/SVG/1.1/DTD/svg11.dtd">
<svg xmlns="http://www.w3.org/2000/svg" xmlns:xlink="http://www.w3.org/1999/xlink" version="1.1" x="0" y="0" width="16" height="16" overflow="auto" preserveAspectRatio="xMidYMid" baseProfile="tiny" space="preserve">
  <path d="M768 -128 L1664 -128 L1664 512 L1248 512 Q1208 512 1180 540 Q1152 568 1152 608 L1152 1024 L768 1024 L768 -128 z M1024 1312 L1024 1376 Q1024 1389 1014.5 1398.5 Q1005 1408 992 1408 L288 1408 Q275 1408 265.5 1398.5 Q256 1389 256 1376 L256 1312 Q256 1299 265.5 1289.5 Q275 1280 288 1280 L992 1280 Q1005 1280 1014.5 1289.5 Q1024 1299 1024 1312 z M1280 640 L1579 640 L1280 939 L1280 640 z M1792 512 L1792 -160 Q1792 -200 1764 -228 Q1736 -256 1696 -256 L736 -256 Q696 -256 668 -228 Q640 -200 640 -160 L640 0 L96 0 Q56 0 28 28 Q0 56 0 96 L0 1440 Q0 1480 28 1508 Q56 1536 96 1536 L1184 1536 Q1224 1536 1252 1508 Q1280 1480 1280 1440 L1280 1112 Q1301 1099 1316 1084 L1724 676 Q1752 648 1772 600 Q1792 552 1792 512 z" pathLength="0" fill="White" transform="translate(0, 9.536743E-07) scale(0.008928572, -0.008928572) translate(0, -1536)" />
</svg>