<!DOCTYPE svg PUBLIC "-//W3C//DTD SVG 1.1//EN" "http://www.w3.org/Graphics/SVG/1.1/DTD/svg11.dtd">
<svg xmlns="http://www.w3.org/2000/svg" xmlns:xlink="http://www.w3.org/1999/xlink" version="1.1" x="0" y="0" width="16" height="16" overflow="auto" preserveAspectRatio="xMidYMid" baseProfile="tiny" space="preserve">
  <path d="M1536 1344 L1536 -64 Q1536 -90 1517 -109 Q1498 -128 1472 -128 L960 -128 Q934 -128 915 -109 Q896 -90 896 -64 L896 1344 Q896 1370 915 1389 Q934 1408 960 1408 L1472 1408 Q1498 1408 1517 1389 Q1536 1370 1536 1344 z M640 1344 L640 -64 Q640 -90 621 -109 Q602 -128 576 -128 L64 -128 Q38 -128 19 -109 Q0 -90 0 -64 L0 1344 Q0 1370 19 1389 Q38 1408 64 1408 L576 1408 Q602 1408 621 1389 Q640 1370 640 1344 z" pathLength="0" fill="White" transform="translate(1.142857, 1.311302E-06) scale(0.008928572, -0.008928572) translate(0, -1536)" />
</svg>