<!DOCTYPE svg PUBLIC "-//W3C//DTD SVG 1.1//EN" "http://www.w3.org/Graphics/SVG/1.1/DTD/svg11.dtd">
<svg xmlns="http://www.w3.org/2000/svg" xmlns:xlink="http://www.w3.org/1999/xlink" version="1.1" x="0" y="0" width="16" height="16" overflow="auto" preserveAspectRatio="xMidYMid" baseProfile="tiny" space="preserve">
  <path d="M780 1064 Q780 1004 761 950.5 Q742 897 698 858 Q654 819 593 819 Q517 819 455 876.5 Q393 934 363 1012 Q333 1090 333 1163 Q333 1223 352 1276.5 Q371 1330 415 1369 Q459 1408 520 1408 Q597 1408 658.5 1350.5 Q720 1293 750 1215.5 Q780 1138 780 1064 z M438 581 Q438 501 396 442 Q354 383 277 383 Q201 383 135.5 438.5 Q70 494 35 572 Q0 650 0 724 Q0 804 42 863.5 Q84 923 161 923 Q237 923 302.5 867.5 Q368 812 403 733.5 Q438 655 438 581 z M832 608 Q950 608 1087 510.5 Q1224 413 1316 273.5 Q1408 134 1408 19 Q1408 -27 1391 -57.5 Q1374 -88 1342.5 -102.5 Q1311 -117 1278 -122.5 Q1245 -128 1202 -128 Q1134 -128 1014.5 -83 Q895 -38 832 -38 Q766 -38 639.5 -82.5 Q513 -127 439 -127 Q256 -127 256 19 Q256 105 312 210.5 Q368 316 451.5 403 Q535 490 639 549 Q743 608 832 608 z M1071 819 Q1010 819 966 858 Q922 897 903 950.5 Q884 1004 884 1064 Q884 1138 914 1215.5 Q944 1293 1005.5 1350.5 Q1067 1408 1144 1408 Q1205 1408 1249 1369 Q1293 1330 1312 1276.5 Q1331 1223 1331 1163 Q1331 1090 1301 1012 Q1271 934 1209 876.5 Q1147 819 1071 819 z M1503 923 Q1580 923 1622 863.5 Q1664 804 1664 724 Q1664 650 1629 572 Q1594 494 1528.5 438.5 Q1463 383 1387 383 Q1310 383 1268 442 Q1226 501 1226 581 Q1226 655 1261 733.5 Q1296 812 1361.5 867.5 Q1427 923 1503 923 z" pathLength="0" fill="White" transform="translate(0.5714283, 1.311302E-06) scale(0.008928572, -0.008928572) translate(0, -1536)" />
</svg>