<!DOCTYPE svg PUBLIC "-//W3C//DTD SVG 1.1//EN" "http://www.w3.org/Graphics/SVG/1.1/DTD/svg11.dtd">
<svg xmlns="http://www.w3.org/2000/svg" xmlns:xlink="http://www.w3.org/1999/xlink" version="1.1" x="0" y="0" width="16" height="16" overflow="auto" preserveAspectRatio="xMidYMid" baseProfile="tiny" space="preserve">
  <path d="M1519 890 Q1537 806 1515 686 Q1428 242 950 242 L906 242 Q881 242 862 225.5 Q843 209 838 183 L834 164 L779 -182 L777 -197 Q772 -223 752.5 -239.5 Q733 -256 708 -256 L457 -256 Q436 -256 424 -241 Q412 -226 415 -205 Q424 -149 441.5 -37 Q459 75 468 131 Q477 187 495 298.5 Q513 410 522 466 Q527 503 565 503 L696 503 Q829 501 932 524 Q1107 563 1219 668 Q1321 763 1374 914 Q1398 984 1409 1047 Q1410 1053 1411.5 1054.5 Q1413 1056 1415 1055.5 Q1417 1055 1421 1052 Q1500 993 1519 890 z M1347 1172 Q1347 1065 1301 936 Q1221 703 999 621 Q886 581 747 579 Q747 578 657 578 L567 579 Q467 579 449 483 Q447 475 364 -47 Q363 -57 352 -57 L57 -57 Q35 -57 20.5 -40.5 Q6 -24 9 -2 L241 1469 Q246 1498 268.5 1517 Q291 1536 320 1536 L918 1536 Q952 1536 1015.5 1523 Q1079 1510 1127 1491 Q1234 1450 1290.5 1368 Q1347 1286 1347 1172 z" pathLength="0" fill="White" transform="translate(1.133928, 9.536743E-07) scale(0.008928572, -0.008928572) translate(0, -1536)" />
</svg>