<!DOCTYPE svg PUBLIC "-//W3C//DTD SVG 1.1//EN" "http://www.w3.org/Graphics/SVG/1.1/DTD/svg11.dtd">
<svg xmlns="http://www.w3.org/2000/svg" xmlns:xlink="http://www.w3.org/1999/xlink" version="1.1" x="0" y="0" width="16" height="16" overflow="auto" preserveAspectRatio="xMidYMid" baseProfile="tiny" space="preserve">
  <path d="M363 0 L454 91 L219 326 L128 235 L128 128 L256 128 L256 0 L363 0 z M886 928 Q886 950 864 950 Q854 950 847 943 L305 401 Q298 394 298 384 Q298 362 320 362 Q330 362 337 369 L879 911 Q886 918 886 928 z M832 1120 L1248 704 L416 -128 L0 -128 L0 288 z M1515 1024 Q1515 971 1478 934 L1312 768 L896 1184 L1062 1349 Q1098 1387 1152 1387 Q1205 1387 1243 1349 L1478 1115 Q1515 1076 1515 1024 z" pathLength="0" fill="White" transform="translate(1.236607, -0.09374869) scale(0.008928572, -0.008928572) translate(0, -1536)" />
</svg>