<!DOCTYPE svg PUBLIC "-//W3C//DTD SVG 1.1//EN" "http://www.w3.org/Graphics/SVG/1.1/DTD/svg11.dtd">
<svg xmlns="http://www.w3.org/2000/svg" xmlns:xlink="http://www.w3.org/1999/xlink" version="1.1" x="0" y="0" width="16" height="16" overflow="auto" preserveAspectRatio="xMidYMid" baseProfile="tiny" space="preserve">
  <path d="M404 428 L556 276 L504 224 L448 224 L448 320 L352 320 L352 376 z M818 818 Q832 805 815 788 L524 497 Q507 480 494 494 Q480 507 497 524 L788 815 Q805 832 818 818 z M544 128 L1088 672 L800 960 L256 416 L256 128 L544 128 z M1152 736 L1244 828 Q1272 856 1272 896 Q1272 936 1244 964 L1092 1116 Q1064 1144 1024 1144 Q984 1144 956 1116 L864 1024 z M1536 1120 L1536 160 Q1536 41 1451.5 -43.5 Q1367 -128 1248 -128 L288 -128 Q169 -128 84.5 -43.5 Q0 41 0 160 L0 1120 Q0 1239 84.5 1323.5 Q169 1408 288 1408 L1248 1408 Q1367 1408 1451.5 1323.5 Q1536 1239 1536 1120 z" pathLength="0" fill="White" transform="translate(1.142857, 1.311302E-06) scale(0.008928572, -0.008928572) translate(0, -1536)" />
</svg>