<!DOCTYPE svg PUBLIC "-//W3C//DTD SVG 1.1//EN" "http://www.w3.org/Graphics/SVG/1.1/DTD/svg11.dtd">
<svg xmlns="http://www.w3.org/2000/svg" xmlns:xlink="http://www.w3.org/1999/xlink" version="1.1" x="0" y="0" width="16" height="16" overflow="auto" preserveAspectRatio="xMidYMid" baseProfile="tiny" space="preserve">
  <path d="M1408 296 Q1408 269 1398 225.5 Q1388 182 1377 157 Q1356 107 1255 51 Q1161 0 1069 0 Q1042 0 1016.5 3.5 Q991 7 959 16 Q927 25 911.5 30.5 Q896 36 856 51 Q816 66 807 69 Q709 104 632 152 Q504 231 367.5 367.5 Q231 504 152 632 Q104 709 69 807 Q66 816 51 856 Q36 896 30.5 911.5 Q25 927 16 959 Q7 991 3.5 1016.5 Q0 1042 0 1069 Q0 1161 51 1255 Q107 1356 157 1377 Q182 1388 225.5 1398 Q269 1408 296 1408 Q310 1408 317 1405 Q335 1399 370 1329 Q381 1310 400 1275 Q419 1240 435 1211.5 Q451 1183 466 1158 Q469 1154 483.5 1133 Q498 1112 505 1097.5 Q512 1083 512 1069 Q512 1049 483.5 1019 Q455 989 421.5 964 Q388 939 359.5 911 Q331 883 331 865 Q331 856 336 842.5 Q341 829 344.5 822 Q348 815 358.5 798 Q369 781 370 779 Q446 642 544 544 Q642 446 779 370 Q781 369 798 358.5 Q815 348 822 344.5 Q829 341 842.5 336 Q856 331 865 331 Q883 331 911 359.5 Q939 388 964 421.5 Q989 455 1019 483.5 Q1049 512 1069 512 Q1083 512 1097.5 505 Q1112 498 1133 483.5 Q1154 469 1158 466 Q1183 451 1211.5 435 Q1240 419 1275 400 Q1310 381 1329 370 Q1399 335 1405 317 Q1408 310 1408 296 z" pathLength="0" fill="White" transform="translate(1.714286, 0.5714296) scale(0.008928572, -0.008928572) translate(0, -1536)" />
</svg>