<!DOCTYPE svg PUBLIC "-//W3C//DTD SVG 1.1//EN" "http://www.w3.org/Graphics/SVG/1.1/DTD/svg11.dtd">
<svg xmlns="http://www.w3.org/2000/svg" xmlns:xlink="http://www.w3.org/1999/xlink" version="1.1" x="0" y="0" width="16" height="16" overflow="auto" preserveAspectRatio="xMidYMid" baseProfile="tiny" space="preserve">
  <path d="M1280 343 Q1280 354 1278 359 Q1275 367 1239.5 388.5 Q1204 410 1151 438 L1098 467 Q1093 470 1079 480 Q1065 490 1054 495 Q1043 500 1033 500 Q1015 500 986 467.5 Q957 435 929 402 Q901 369 885 369 Q878 369 868.5 372.5 Q859 376 853 379 Q847 382 836 388.5 Q825 395 822 397 Q723 452 651.5 523.5 Q580 595 525 694 Q523 697 516.5 708 Q510 719 507 725 Q504 731 500.5 740.5 Q497 750 497 757 Q497 770 517.5 790.5 Q538 811 562.5 829 Q587 847 607.5 868.5 Q628 890 628 905 Q628 915 623 926 Q618 937 608 951 Q598 965 595 970 Q592 976 580 998.5 Q568 1021 555 1044 Q542 1067 528.5 1091.5 Q515 1116 503.5 1132 Q492 1148 487 1150 Q482 1152 471 1152 Q423 1152 370 1130 Q324 1109 290 1035.5 Q256 962 256 905 Q256 889 258.5 871 Q261 853 263.5 840.5 Q266 828 272.5 807.5 Q279 787 282.5 778 Q286 769 295 745 Q304 721 306 715 Q366 551 522.5 394.5 Q679 238 843 178 Q849 176 873 167 Q897 158 906 154.5 Q915 151 935.5 144.5 Q956 138 968.5 135.5 Q981 133 999 130.5 Q1017 128 1033 128 Q1090 128 1163.5 162 Q1237 196 1258 242 Q1280 295 1280 343 z M1536 1120 L1536 160 Q1536 41 1451.5 -43.5 Q1367 -128 1248 -128 L288 -128 Q169 -128 84.5 -43.5 Q0 41 0 160 L0 1120 Q0 1239 84.5 1323.5 Q169 1408 288 1408 L1248 1408 Q1367 1408 1451.5 1323.5 Q1536 1239 1536 1120 z" pathLength="0" fill="White" transform="translate(1.142857, 1.311302E-06) scale(0.008928572, -0.008928572) translate(0, -1536)" />
</svg>