<!DOCTYPE svg PUBLIC "-//W3C//DTD SVG 1.1//EN" "http://www.w3.org/Graphics/SVG/1.1/DTD/svg11.dtd">
<svg xmlns="http://www.w3.org/2000/svg" xmlns:xlink="http://www.w3.org/1999/xlink" version="1.1" x="0" y="0" width="16" height="16" overflow="auto" preserveAspectRatio="xMidYMid" baseProfile="tiny" space="preserve">
  <path d="M768 646 L1314 100 Q1208 -8 1066.5 -68 Q925 -128 768 -128 Q559 -128 382.5 -25 Q206 78 103 254.5 Q0 431 0 640 Q0 849 103 1025.5 Q206 1202 382.5 1305 Q559 1408 768 1408 L768 646 z M955 640 L1728 640 Q1728 483 1668 341.5 Q1608 200 1500 94 z M1664 768 L896 768 L896 1536 Q1105 1536 1281.5 1433 Q1458 1330 1561 1153.5 Q1664 977 1664 768 z" pathLength="0" fill="White" transform="translate(0.2857141, 0.5714297) scale(0.008928572, -0.008928572) translate(0, -1536)" />
</svg>