<!DOCTYPE svg PUBLIC "-//W3C//DTD SVG 1.1//EN" "http://www.w3.org/Graphics/SVG/1.1/DTD/svg11.dtd">
<svg xmlns="http://www.w3.org/2000/svg" xmlns:xlink="http://www.w3.org/1999/xlink" version="1.1" x="0" y="0" width="16" height="16" overflow="auto" preserveAspectRatio="xMidYMid" baseProfile="tiny" space="preserve">
  <path d="M1222 607 Q1297 610 1365.5 586.5 Q1434 563 1483.5 528 Q1533 493 1584.5 433.5 Q1636 374 1668.5 325.5 Q1701 277 1744 205 Q1777 149 1822.5 96 Q1868 43 1898 15.5 Q1928 -12 1997 -73 Q1949 -103 1888.5 -130.5 Q1828 -158 1750 -189.5 Q1672 -221 1636 -237 Q1592 -200 1562 -122 Q1532 -44 1518.5 42.5 Q1505 129 1485.5 223 Q1466 317 1443 391.5 Q1420 466 1370.5 514.5 Q1321 563 1248 563 L1238 561 L1232 557 Q1236 552 1245 543 Q1251 538 1273 519.5 Q1295 501 1298.5 497.5 Q1302 494 1317.5 479.5 Q1333 465 1335.5 459 Q1338 453 1347 438 Q1356 423 1357.5 410.5 Q1359 398 1362 379.5 Q1365 361 1366 339 L1367 306 Q1368 280 1364.5 248.5 Q1361 217 1357 196.5 Q1353 176 1344.5 138 Q1336 100 1333 85 Q1298 86 1232 75.5 Q1166 65 1134 65 Q1095 65 1062 75 Q1060 91 1060 122 Q1060 196 1063 218 Q1065 231 1094.5 259.5 Q1124 288 1151.5 318.5 Q1179 349 1178 370 Q1154 372 1135 346 Q1099 293 1023.5 246.5 Q948 200 887 200 Q862 200 811.5 263 Q761 326 705 402.5 Q649 479 621 499 Q615 503 594 529 Q112 417 81 417 Q65 417 53 428 Q41 439 41 455 Q41 470 49.5 481.5 Q58 493 72 496 L558 602 Q550 616 550 627 Q550 638 555.5 644.5 Q561 651 571.5 656 Q582 661 591.5 663 Q601 665 614.5 667.5 Q628 670 633 672 Q637 673 648.5 679.5 Q660 686 666 686 Q681 686 694 670 Q707 654 714 637 Q877 674 886 674 Q903 674 915.5 663 Q928 652 928 635 Q928 620 919.5 609 Q911 598 896 595 L714 555 L713 539 Q712 513 794.5 421.5 Q877 330 899 330 Q946 330 1018 410 Q1090 490 1090 539 Q1090 575 1066.5 592 Q1043 609 1015.5 610.5 Q988 612 964.5 622 Q941 632 941 656 Q941 672 951 690 L883 709 Q926 753 926 826 Q926 852 921 884 Q1003 900 1065 900 Q1109 900 1136.5 898.5 Q1164 897 1185 890 Q1206 883 1216 876.5 Q1226 870 1236.5 852 Q1247 834 1252 818.5 Q1257 803 1269 771 Q1281 739 1293 711 L1343 736 Q1340 696 1320 676 Q1300 656 1277.5 655 Q1255 654 1237.5 648.5 Q1220 643 1221 628 z M1282 842 Q1277 847 1268.5 857.5 Q1260 868 1256.5 872 Q1253 876 1246 883.5 Q1239 891 1236 894 L1228 902 Q1228 902 1219.5 909.5 Q1211 917 1211.5 914.5 Q1212 912 1203 919 Q1196 922 1188.5 924 Q1181 926 1168 926.5 Q1155 927 1146 927 L1113.5 927 L1076 927 Q950 927 859 884 Q875 914 895 930.5 Q915 947 949 960 Q983 973 1014.5 996 Q1046 1019 1060.5 1032.5 Q1075 1046 1110.5 1087.5 Q1146 1129 1154 1138 Q1166 1129 1182 1106.5 Q1198 1084 1214 1070 Q1230 1056 1252 1057 L1264 1058 L1264 982 L1286 981 Q1533 1076 1657 1171 Q1685 1192 1707 1210 Q1729 1228 1749.5 1247.5 Q1770 1267 1782.5 1278.5 Q1795 1290 1812 1312.5 Q1829 1335 1836 1343.5 Q1843 1352 1860.5 1380.5 Q1878 1409 1883.5 1418.5 Q1889 1428 1910.5 1466 Q1932 1504 1940 1519 L1947 1528 Q1945 1475 1904 1389 Q1825 1224 1699 1125 Q1573 1026 1393 983 Q1379 980 1351 975.5 Q1323 971 1301 966 Q1279 961 1262 952 Q1265 933 1286.5 906 Q1308 879 1308 872 Q1308 861 1282 842 z M1061 -79 Q1100 -53 1192.5 -31.5 Q1285 -10 1339 -10 Q1348 -10 1361.5 -25.5 Q1375 -41 1389.5 -68 Q1404 -95 1415.5 -118 Q1427 -141 1439.5 -169 Q1452 -197 1454 -202 Q1333 -247 1210 -247 Q1149 -247 1085 -236 z M822 568 L870 580 L979 403 L906 355 z M1323 51 Q1326 36 1326 35 Q1326 28 1308.5 20.5 Q1291 13 1262.5 7.5 Q1234 2 1208.5 -2 Q1183 -6 1155 -9.5 Q1127 -13 1123 -14 L1116 29 Q1137 31 1176.5 37.5 Q1216 44 1248.5 47.5 Q1281 51 1309 51 L1323 51 z M866 679 L770 659 L764 676 Q774 677 796.5 683 Q819 689 831 689 Q850 689 866 679 z M1061 45 L1092 45 L1102 -38 L1061 -50 L1061 45 z M1950 1535 L1950 1536 L1950 1535 z M1950 1535 L1949 1530 L1947 1528 L1948 1531 z M1950 1535 L1951 1536 z" pathLength="0" fill="White" transform="translate(-1.098213, 0.04017973) scale(0.008928572, -0.008928572) translate(0, -1536)" />
</svg>