<!DOCTYPE svg PUBLIC "-//W3C//DTD SVG 1.1//EN" "http://www.w3.org/Graphics/SVG/1.1/DTD/svg11.dtd">
<svg xmlns="http://www.w3.org/2000/svg" xmlns:xlink="http://www.w3.org/1999/xlink" version="1.1" x="0" y="0" width="16" height="16" overflow="auto" preserveAspectRatio="xMidYMid" baseProfile="tiny" space="preserve">
  <path d="M1046 516 Q1046 452 1008 407 Q970 362 917 362 Q874 362 847 377 L847 654 Q875 671 917 671 Q970 671 1008 625.5 Q1046 580 1046 516 z M703 944 Q703 880 665 834.5 Q627 789 574 789 Q531 789 504 804 L504 1081 Q532 1098 574 1098 Q627 1098 665 1053 Q703 1008 703 944 z M1265 513 Q1265 647 1177 742 Q1089 837 964 837 Q944 837 925 834 Q902 756 847 698 Q760 603 636 597 L636 -39 L847 2 L847 208 Q898 189 964 189 Q1089 189 1177 284 Q1265 379 1265 513 z M922 940 Q922 1074 833.5 1169 Q745 1264 620 1264 Q546 1264 479 1228 L293 1228 L293 388 L504 429 L504 635 Q559 616 620 616 Q745 616 833.5 711 Q922 806 922 940 z M1536 1120 L1536 160 Q1536 41 1451.5 -43.5 Q1367 -128 1248 -128 L288 -128 Q169 -128 84.5 -43.5 Q0 41 0 160 L0 1120 Q0 1239 84.5 1323.5 Q169 1408 288 1408 L1248 1408 Q1367 1408 1451.5 1323.5 Q1536 1239 1536 1120 z" pathLength="0" fill="White" transform="translate(1.142857, 1.311302E-06) scale(0.008928572, -0.008928572) translate(0, -1536)" />
</svg>