<!DOCTYPE svg PUBLIC "-//W3C//DTD SVG 1.1//EN" "http://www.w3.org/Graphics/SVG/1.1/DTD/svg11.dtd">
<svg xmlns="http://www.w3.org/2000/svg" xmlns:xlink="http://www.w3.org/1999/xlink" version="1.1" x="0" y="0" width="16" height="16" overflow="auto" preserveAspectRatio="xMidYMid" baseProfile="tiny" space="preserve">
  <path d="M1248 1408 Q1367 1408 1451.5 1323.5 Q1536 1239 1536 1120 L1536 160 Q1536 41 1451.5 -43.5 Q1367 -128 1248 -128 L523 -128 Q608 -6 631 82 Q640 116 684 291 Q705 252 757.5 224 Q810 196 870 196 Q1051 196 1165.5 343.5 Q1280 491 1280 717 Q1280 801 1245 879.5 Q1210 958 1148.5 1018.5 Q1087 1079 996 1115.5 Q905 1152 799 1152 Q695 1152 604.5 1123.5 Q514 1095 451.5 1047 Q389 999 344 937.5 Q299 876 277.5 809.5 Q256 743 256 677 Q256 575 295.5 497 Q335 419 412 387 Q425 382 435.5 387 Q446 392 450 406 Q460 450 465 467 Q471 490 454 509 Q404 571 404 659 Q404 809 507.5 915.5 Q611 1022 778 1022 Q927 1022 1010.5 941 Q1094 860 1094 731 Q1094 563 1026.5 445 Q959 327 853 327 Q793 327 756 370.5 Q719 414 733 474 Q741 508 759.5 566.5 Q778 625 789 668.5 Q800 712 800 743 Q800 792 773.5 824.5 Q747 857 698 857 Q637 857 594.5 800.5 Q552 744 552 661 Q552 589 576 540 L478 126 Q454 26 471 -128 L288 -128 Q169 -128 84.5 -43.5 Q0 41 0 160 L0 1120 Q0 1239 84.5 1323.5 Q169 1408 288 1408 L1248 1408 z" pathLength="0" fill="White" transform="translate(1.142857, 1.311302E-06) scale(0.008928572, -0.008928572) translate(0, -1536)" />
</svg>