<!DOCTYPE svg PUBLIC "-//W3C//DTD SVG 1.1//EN" "http://www.w3.org/Graphics/SVG/1.1/DTD/svg11.dtd">
<svg xmlns="http://www.w3.org/2000/svg" xmlns:xlink="http://www.w3.org/1999/xlink" version="1.1" x="0" y="0" width="16" height="16" overflow="auto" preserveAspectRatio="xMidYMid" baseProfile="tiny" space="preserve">
  <path d="M1536 640 Q1536 431 1433 254.5 Q1330 78 1153.5 -25 Q977 -128 768 -128 Q657 -128 550 -96 Q609 -3 628 68 Q637 102 682 279 Q702 240 755 211.5 Q808 183 869 183 Q990 183 1085 251.5 Q1180 320 1232 440 Q1284 560 1284 710 Q1284 824 1224.5 924 Q1165 1024 1052 1087 Q939 1150 797 1150 Q692 1150 601 1121 Q510 1092 446.5 1044 Q383 996 337.5 933.5 Q292 871 270.5 804 Q249 737 249 670 Q249 566 289 487 Q329 408 406 376 Q436 364 444 396 Q446 403 452 427 Q458 451 460 457 Q466 480 449 500 Q398 561 398 651 Q398 802 502.5 910.5 Q607 1019 776 1019 Q927 1019 1011.5 937 Q1096 855 1096 724 Q1096 554 1027.5 435 Q959 316 852 316 Q791 316 754 359.5 Q717 403 731 464 Q739 499 757.5 557.5 Q776 616 787.5 660.5 Q799 705 799 736 Q799 786 772 819 Q745 852 695 852 Q633 852 590 795 Q547 738 547 653 Q547 580 572 531 L473 113 Q456 43 460 -64 Q254 27 127 217 Q0 407 0 640 Q0 849 103 1025.5 Q206 1202 382.5 1305 Q559 1408 768 1408 Q977 1408 1153.5 1305 Q1330 1202 1433 1025.5 Q1536 849 1536 640 z" pathLength="0" fill="White" transform="translate(1.142857, 1.311302E-06) scale(0.008928572, -0.008928572) translate(0, -1536)" />
</svg>