<!DOCTYPE svg PUBLIC "-//W3C//DTD SVG 1.1//EN" "http://www.w3.org/Graphics/SVG/1.1/DTD/svg11.dtd">
<svg xmlns="http://www.w3.org/2000/svg" xmlns:xlink="http://www.w3.org/1999/xlink" version="1.1" x="0" y="0" width="16" height="16" overflow="auto" preserveAspectRatio="xMidYMid" baseProfile="tiny" space="preserve">
  <path d="M0 939 Q0 1047 37.5 1142.5 Q75 1238 141 1309 Q207 1380 293 1432 Q379 1484 478 1510 Q577 1536 680 1536 Q838 1536 974 1469.5 Q1110 1403 1195 1276 Q1280 1149 1280 989 Q1280 893 1261 801 Q1242 709 1201 624 Q1160 539 1101 474.5 Q1042 410 956 371.5 Q870 333 767 333 Q699 333 632 365 Q565 397 536 453 Q526 414 508 340.5 Q490 267 484.5 245.5 Q479 224 464 174.5 Q449 125 438 103.5 Q427 82 406 41 Q385 0 360 -36.5 Q335 -73 298 -123 L284 -128 L275 -118 Q260 39 260 70 Q260 162 281.5 276.5 Q303 391 348 564 Q393 737 400 767 Q368 832 368 936 Q368 1019 420 1092 Q472 1165 552 1165 Q613 1165 647 1124.5 Q681 1084 681 1022 Q681 956 637 831 Q593 706 593 644 Q593 581 638 539.5 Q683 498 747 498 Q802 498 849 523 Q896 548 927.5 591 Q959 634 983.5 686 Q1008 738 1021.5 796.5 Q1035 855 1041.5 907.5 Q1048 960 1048 1007 Q1048 1180 938.5 1276.5 Q829 1373 653 1373 Q453 1373 319 1243.5 Q185 1114 185 915 Q185 871 197.5 830 Q210 789 224.5 765 Q239 741 251.5 719.5 Q264 698 264 689 Q264 661 249 616 Q234 571 212 571 Q210 571 195 574 Q144 589 104.5 630 Q65 671 43.5 724.5 Q22 778 11 832.5 Q0 887 0 939 z" pathLength="0" fill="White" transform="translate(2.285714, 0.5714297) scale(0.008928572, -0.008928572) translate(0, -1536)" />
</svg>