<!DOCTYPE svg PUBLIC "-//W3C//DTD SVG 1.1//EN" "http://www.w3.org/Graphics/SVG/1.1/DTD/svg11.dtd">
<svg xmlns="http://www.w3.org/2000/svg" xmlns:xlink="http://www.w3.org/1999/xlink" version="1.1" x="0" y="0" width="16" height="16" overflow="auto" preserveAspectRatio="xMidYMid" baseProfile="tiny" space="preserve">
  <path d="M1376 1376 Q1420 1324 1388 1228 Q1356 1132 1280 1056 L1119 895 L1279 199 Q1284 180 1267 166 L1139 70 Q1132 64 1120 64 Q1116 64 1113 65 Q1098 68 1092 81 L813 589 L554 330 L607 136 Q612 119 599 105 L503 9 Q494 0 480 0 L478 0 Q463 2 454 13 L265 265 L13 454 Q2 461 0 477 Q-1 490 9 502 L105 599 Q114 608 128 608 Q134 608 136 607 L330 554 L589 813 L81 1092 Q67 1100 64 1116 Q62 1132 73 1143 L201 1271 Q215 1284 231 1279 L896 1120 L1056 1280 Q1132 1356 1228 1388 Q1324 1420 1376 1376 z" pathLength="0" fill="White" transform="translate(1.71131, 0.577382) scale(0.008928572, -0.008928572) translate(0, -1536)" />
</svg>