<!DOCTYPE svg PUBLIC "-//W3C//DTD SVG 1.1//EN" "http://www.w3.org/Graphics/SVG/1.1/DTD/svg11.dtd">
<svg xmlns="http://www.w3.org/2000/svg" xmlns:xlink="http://www.w3.org/1999/xlink" version="1.1" x="0" y="0" width="16" height="16" overflow="auto" preserveAspectRatio="xMidYMid" baseProfile="tiny" space="preserve">
  <path d="M1755 1083 Q1792 1046 1792 993 Q1792 940 1755 902 L1354 502 L1504 352 L1344 192 Q1181 29 954.5 5.5 Q728 -18 543 106 L181 -256 L0 -256 L0 -75 L362 287 Q238 472 261.5 698.5 Q285 925 448 1088 L608 1248 L758 1098 L1158 1499 Q1196 1536 1249 1536 Q1302 1536 1339 1499 Q1376 1462 1376 1408.5 Q1376 1355 1339 1318 L939 917 L1173 683 L1574 1083 Q1612 1120 1665 1120 Q1718 1120 1755 1083 z" pathLength="0" fill="White" transform="translate(0, 9.536743E-07) scale(0.008928572, -0.008928572) translate(0, -1536)" />
</svg>