<!DOCTYPE svg PUBLIC "-//W3C//DTD SVG 1.1//EN" "http://www.w3.org/Graphics/SVG/1.1/DTD/svg11.dtd">
<svg xmlns="http://www.w3.org/2000/svg" xmlns:xlink="http://www.w3.org/1999/xlink" version="1.1" x="0" y="0" width="16" height="16" overflow="auto" preserveAspectRatio="xMidYMid" baseProfile="tiny" space="preserve">
  <path d="M1216 576 L1216 704 Q1216 730 1197 749 Q1178 768 1152 768 L896 768 L896 1024 Q896 1050 877 1069 Q858 1088 832 1088 L704 1088 Q678 1088 659 1069 Q640 1050 640 1024 L640 768 L384 768 Q358 768 339 749 Q320 730 320 704 L320 576 Q320 550 339 531 Q358 512 384 512 L640 512 L640 256 Q640 230 659 211 Q678 192 704 192 L832 192 Q858 192 877 211 Q896 230 896 256 L896 512 L1152 512 Q1178 512 1197 531 Q1216 550 1216 576 z M1536 640 Q1536 431 1433 254.5 Q1330 78 1153.5 -25 Q977 -128 768 -128 Q559 -128 382.5 -25 Q206 78 103 254.5 Q0 431 0 640 Q0 849 103 1025.5 Q206 1202 382.5 1305 Q559 1408 768 1408 Q977 1408 1153.5 1305 Q1330 1202 1433 1025.5 Q1536 849 1536 640 z" pathLength="0" fill="White" transform="translate(1.142857, 1.311302E-06) scale(0.008928572, -0.008928572) translate(0, -1536)" />
</svg>