<!DOCTYPE svg PUBLIC "-//W3C//DTD SVG 1.1//EN" "http://www.w3.org/Graphics/SVG/1.1/DTD/svg11.dtd">
<svg xmlns="http://www.w3.org/2000/svg" xmlns:xlink="http://www.w3.org/1999/xlink" version="1.1" x="0" y="0" width="16" height="16" overflow="auto" preserveAspectRatio="xMidYMid" baseProfile="tiny" space="preserve">
  <path d="M1408 800 L1408 608 Q1408 568 1380 540 Q1352 512 1312 512 L896 512 L896 96 Q896 56 868 28 Q840 0 800 0 L608 0 Q568 0 540 28 Q512 56 512 96 L512 512 L96 512 Q56 512 28 540 Q0 568 0 608 L0 800 Q0 840 28 868 Q56 896 96 896 L512 896 L512 1312 Q512 1352 540 1380 Q568 1408 608 1408 L800 1408 Q840 1408 868 1380 Q896 1352 896 1312 L896 896 L1312 896 Q1352 896 1380 868 Q1408 840 1408 800 z" pathLength="0" fill="White" transform="translate(1.714286, 0.5714296) scale(0.008928572, -0.008928572) translate(0, -1536)" />
</svg>