<!DOCTYPE svg PUBLIC "-//W3C//DTD SVG 1.1//EN" "http://www.w3.org/Graphics/SVG/1.1/DTD/svg11.dtd">
<svg xmlns="http://www.w3.org/2000/svg" xmlns:xlink="http://www.w3.org/1999/xlink" version="1.1" x="0" y="0" width="16" height="16" overflow="auto" preserveAspectRatio="xMidYMid" baseProfile="tiny" space="preserve">
  <path d="M1536 640 Q1536 484 1475 342 Q1414 200 1311 97 Q1208 -6 1066 -67 Q924 -128 768 -128 Q612 -128 470 -67 Q328 -6 225 97 Q122 200 61 342 Q0 484 0 640 Q0 822 80.5 983 Q161 1144 307 1253 Q350 1285 402.5 1278 Q455 1271 486 1228 Q518 1186 510.5 1133.5 Q503 1081 461 1049 Q363 975 309.5 868 Q256 761 256 640 Q256 536 296.5 441.5 Q337 347 406 278 Q475 209 569.5 168.5 Q664 128 768 128 Q872 128 966.5 168.5 Q1061 209 1130 278 Q1199 347 1239.5 441.5 Q1280 536 1280 640 Q1280 761 1226.5 868 Q1173 975 1075 1049 Q1033 1081 1025.5 1133.5 Q1018 1186 1050 1228 Q1081 1271 1134 1278 Q1187 1285 1229 1253 Q1375 1144 1455.5 983 Q1536 822 1536 640 z M896 1408 L896 768 Q896 716 858 678 Q820 640 768 640 Q716 640 678 678 Q640 716 640 768 L640 1408 Q640 1460 678 1498 Q716 1536 768 1536 Q820 1536 858 1498 Q896 1460 896 1408 z" pathLength="0" fill="White" transform="translate(1.142857, 0.5714297) scale(0.008928572, -0.008928572) translate(0, -1536)" />
</svg>