<!DOCTYPE svg PUBLIC "-//W3C//DTD SVG 1.1//EN" "http://www.w3.org/Graphics/SVG/1.1/DTD/svg11.dtd">
<svg xmlns="http://www.w3.org/2000/svg" xmlns:xlink="http://www.w3.org/1999/xlink" version="1.1" x="0" y="0" width="16" height="16" overflow="auto" preserveAspectRatio="xMidYMid" baseProfile="tiny" space="preserve">
  <path d="M384 0 L1280 0 L1280 256 L384 256 L384 0 z M384 640 L1280 640 L1280 1024 L1120 1024 Q1080 1024 1052 1052 Q1024 1080 1024 1120 L1024 1280 L384 1280 L384 640 z M1536 576 Q1536 602 1517 621 Q1498 640 1472 640 Q1446 640 1427 621 Q1408 602 1408 576 Q1408 550 1427 531 Q1446 512 1472 512 Q1498 512 1517 531 Q1536 550 1536 576 z M1664 576 L1664 160 Q1664 147 1654.5 137.5 Q1645 128 1632 128 L1408 128 L1408 -32 Q1408 -72 1380 -100 Q1352 -128 1312 -128 L352 -128 Q312 -128 284 -100 Q256 -72 256 -32 L256 128 L32 128 Q19 128 9.5 137.5 Q0 147 0 160 L0 576 Q0 655 56.5 711.5 Q113 768 192 768 L256 768 L256 1312 Q256 1352 284 1380 Q312 1408 352 1408 L1024 1408 Q1064 1408 1112 1388 Q1160 1368 1188 1340 L1340 1188 Q1368 1160 1388 1112 Q1408 1064 1408 1024 L1408 768 L1472 768 Q1551 768 1607.5 711.5 Q1664 655 1664 576 z" pathLength="0" fill="White" transform="translate(0.5714283, 1.311302E-06) scale(0.008928572, -0.008928572) translate(0, -1536)" />
</svg>