<!DOCTYPE svg PUBLIC "-//W3C//DTD SVG 1.1//EN" "http://www.w3.org/Graphics/SVG/1.1/DTD/svg11.dtd">
<svg xmlns="http://www.w3.org/2000/svg" xmlns:xlink="http://www.w3.org/1999/xlink" version="1.1" x="0" y="0" width="16" height="16" overflow="auto" preserveAspectRatio="xMidYMid" baseProfile="tiny" space="preserve">
  <path d="M1664 438 Q1664 357 1619.5 303 Q1575 249 1496 249 Q1455 249 1418.5 266.5 Q1382 284 1359.5 304.5 Q1337 325 1303 342.5 Q1269 360 1232 360 Q1122 360 1122 236 Q1122 197 1138 121 Q1154 45 1153 6 L1153 1 Q1131 1 1120 0 Q1086 -3 1022.5 -11.5 Q959 -20 907 -25 Q855 -30 809 -30 Q748 -30 706 -3.5 Q664 23 664 80 Q664 117 681.5 151 Q699 185 719.5 207.5 Q740 230 757.5 266.5 Q775 303 775 344 Q775 423 721 467.5 Q667 512 586 512 Q502 512 443 466.5 Q384 421 384 339 Q384 296 399 256 Q414 216 432.5 191.5 Q451 167 466 138.5 Q481 110 481 88 Q481 43 435 -1 Q398 -36 318 -36 Q223 -36 73 -12 Q64 -10 45.5 -8 Q27 -6 18 -4 L5 -2 Q4 -2 2 -1 Q0 -1 0 0 L0 1024 Q2 1023 17.5 1020.5 Q33 1018 51.5 1015.5 Q70 1013 73 1012 Q223 988 318 988 Q398 988 435 1023 Q481 1067 481 1112 Q481 1134 466 1162.5 Q451 1191 432.5 1215.5 Q414 1240 399 1280 Q384 1320 384 1363 Q384 1445 443 1490.5 Q502 1536 587 1536 Q667 1536 721 1491.5 Q775 1447 775 1368 Q775 1327 757.5 1290.5 Q740 1254 719.5 1231.5 Q699 1209 681.5 1175 Q664 1141 664 1104 Q664 1047 706 1020.5 Q748 994 809 994 Q873 994 989 1009 Q1105 1024 1152 1026 L1152 1024 Q1151 1022 1148.5 1006.5 Q1146 991 1143.5 972.5 Q1141 954 1140 951 Q1116 801 1116 706 Q1116 626 1151 589 Q1195 543 1240 543 Q1262 543 1290.5 558 Q1319 573 1343.5 591.5 Q1368 610 1408 625 Q1448 640 1491 640 Q1573 640 1618.5 581 Q1664 522 1664 438 z" pathLength="0" fill="White" transform="translate(0.5714283, 0.9821439) scale(0.008928572, -0.008928572) translate(0, -1536)" />
</svg>