<!DOCTYPE svg PUBLIC "-//W3C//DTD SVG 1.1//EN" "http://www.w3.org/Graphics/SVG/1.1/DTD/svg11.dtd">
<svg xmlns="http://www.w3.org/2000/svg" xmlns:xlink="http://www.w3.org/1999/xlink" version="1.1" x="0" y="0" width="16" height="16" overflow="auto" preserveAspectRatio="xMidYMid" baseProfile="tiny" space="preserve">
  <path d="M270 730 Q262 749 262 782 Q262 802 273 831 Q284 860 297 876 Q296 898 304.5 929 Q313 960 327 972 Q327 1111 419.5 1260.5 Q512 1410 637 1470 Q776 1536 961 1536 Q1094 1536 1227 1481 Q1276 1460 1317 1433 Q1358 1406 1388 1377 Q1418 1348 1443 1309 Q1468 1270 1485 1235 Q1502 1200 1517.5 1150.5 Q1533 1101 1543 1061 Q1553 1021 1565 963 L1566 958 Q1621 875 1621 808 Q1621 794 1612 768 Q1603 742 1603 730 Q1603 729 1604.5 726.5 Q1606 724 1608 721.5 Q1610 719 1610 718 Q1687 604 1730.5 503.5 Q1774 403 1774 295 Q1774 252 1754.5 195 Q1735 138 1699 138 Q1690 138 1679.5 145.5 Q1669 153 1660.5 163 Q1652 173 1641.5 189 Q1631 205 1625.5 215.5 Q1620 226 1612 241.5 Q1604 257 1603 259 Q1602 260 1600 260 L1595 256 Q1536 102 1463 33 Q1483 13 1524.5 -5.5 Q1566 -24 1593.5 -47 Q1621 -70 1629 -112 Q1627 -116 1625 -128 Q1623 -140 1618 -146 Q1554 -243 1316 -243 Q1263 -243 1205.5 -234 Q1148 -225 1107.5 -214 Q1067 -203 1003 -184 Q988 -179 980 -177 Q966 -173 934 -172.5 Q902 -172 894 -171 Q853 -216 766.5 -236 Q680 -256 598 -256 Q563 -256 529 -254.5 Q495 -253 436 -245.5 Q377 -238 335 -225 Q293 -212 260.5 -185 Q228 -158 228 -121 Q228 -81 238 -61.5 Q248 -42 279 -13 Q290 -11 319.5 0 Q349 11 369 12 Q373 12 383 14 Q385 16 385 18 L383 21 Q335 32 275 126.5 Q215 221 202 283 L197 286 Q193 286 185 266 Q167 225 130.5 191.5 Q94 158 53 154 L52 154 Q48 154 46 158.5 Q44 163 41 164 Q18 218 18 264 Q18 539 270 730 z" pathLength="0" fill="White" transform="translate(8.195639E-07, 9.536743E-07) scale(0.008928572, -0.008928572) translate(0, -1536)" />
</svg>