<!DOCTYPE svg PUBLIC "-//W3C//DTD SVG 1.1//EN" "http://www.w3.org/Graphics/SVG/1.1/DTD/svg11.dtd">
<svg xmlns="http://www.w3.org/2000/svg" xmlns:xlink="http://www.w3.org/1999/xlink" version="1.1" x="0" y="0" width="16" height="16" overflow="auto" preserveAspectRatio="xMidYMid" baseProfile="tiny" space="preserve">
  <path d="M384 384 L384 256 L256 256 L256 384 L384 384 z M384 1152 L384 1024 L256 1024 L256 1152 L384 1152 z M1152 1152 L1152 1024 L1024 1024 L1024 1152 L1152 1152 z M128 129 L512 129 L512 512 L128 512 L128 129 z M128 896 L512 896 L512 1280 L128 1280 L128 896 z M896 896 L1280 896 L1280 1280 L896 1280 L896 896 z M640 640 L640 0 L0 0 L0 640 L640 640 z M1152 128 L1152 0 L1024 0 L1024 128 L1152 128 z M1408 128 L1408 0 L1280 0 L1280 128 L1408 128 z M1408 640 L1408 256 L1024 256 L1024 384 L896 384 L896 0 L768 0 L768 640 L1152 640 L1152 512 L1280 512 L1280 640 L1408 640 z M640 1408 L640 768 L0 768 L0 1408 L640 1408 z M1408 1408 L1408 768 L768 768 L768 1408 L1408 1408 z" pathLength="0" fill="White" transform="translate(1.714286, 0.5714296) scale(0.008928572, -0.008928572) translate(0, -1536)" />
</svg>