<!DOCTYPE svg PUBLIC "-//W3C//DTD SVG 1.1//EN" "http://www.w3.org/Graphics/SVG/1.1/DTD/svg11.dtd">
<svg xmlns="http://www.w3.org/2000/svg" xmlns:xlink="http://www.w3.org/1999/xlink" version="1.1" x="0" y="0" width="16" height="16" overflow="auto" preserveAspectRatio="xMidYMid" baseProfile="tiny" space="preserve">
  <path d="M704 280 L704 40 Q704 24 692 12 Q680 0 664 0 L424 0 Q408 0 396 12 Q384 24 384 40 L384 280 Q384 296 396 308 Q408 320 424 320 L664 320 Q680 320 692 308 Q704 296 704 280 z M1020 880 Q1020 826 1004.5 779 Q989 732 969.5 702.5 Q950 673 914.5 643 Q879 613 857 599.5 Q835 586 796 564 Q755 541 727.5 499 Q700 457 700 432 Q700 415 688 399.5 Q676 384 660 384 L420 384 Q405 384 394.5 402.5 Q384 421 384 440 L384 485 Q384 568 449 641.5 Q514 715 592 750 Q651 777 676 806 Q701 835 701 882 Q701 924 654.5 956 Q608 988 547 988 Q482 988 439 959 Q404 934 332 844 Q319 828 301 828 Q289 828 276 836 L112 961 Q99 971 96.5 986 Q94 1001 102 1014 Q262 1280 566 1280 Q646 1280 727 1249 Q808 1218 873 1166 Q938 1114 979 1038.5 Q1020 963 1020 880 z" pathLength="0" fill="White" transform="translate(3.023066, 7.152557E-07) scale(0.008928572, -0.008928572) translate(0, -1536)" />
</svg>