<!DOCTYPE svg PUBLIC "-//W3C//DTD SVG 1.1//EN" "http://www.w3.org/Graphics/SVG/1.1/DTD/svg11.dtd">
<svg xmlns="http://www.w3.org/2000/svg" xmlns:xlink="http://www.w3.org/1999/xlink" version="1.1" x="0" y="0" width="16" height="16" overflow="auto" preserveAspectRatio="xMidYMid" baseProfile="tiny" space="preserve">
  <path d="M896 160 L896 352 Q896 366 887 375 Q878 384 864 384 L672 384 Q658 384 649 375 Q640 366 640 352 L640 160 Q640 146 649 137 Q658 128 672 128 L864 128 Q878 128 887 137 Q896 146 896 160 z M1152 832 Q1152 920 1096.5 995 Q1041 1070 958 1111 Q875 1152 788 1152 Q545 1152 417 939 Q402 915 425 897 L557 797 Q564 791 576 791 Q592 791 601 803 Q654 871 687 895 Q721 919 773 919 Q821 919 858.5 893 Q896 867 896 834 Q896 796 876 773 Q856 750 808 728 Q745 700 692.5 641.5 Q640 583 640 516 L640 480 Q640 466 649 457 Q658 448 672 448 L864 448 Q878 448 887 457 Q896 466 896 480 Q896 499 917.5 529.5 Q939 560 972 579 Q1004 597 1021 607.5 Q1038 618 1067 642.5 Q1096 667 1111.5 690.5 Q1127 714 1139.5 751 Q1152 788 1152 832 z M1536 640 Q1536 431 1433 254.5 Q1330 78 1153.5 -25 Q977 -128 768 -128 Q559 -128 382.5 -25 Q206 78 103 254.5 Q0 431 0 640 Q0 849 103 1025.5 Q206 1202 382.5 1305 Q559 1408 768 1408 Q977 1408 1153.5 1305 Q1330 1202 1433 1025.5 Q1536 849 1536 640 z" pathLength="0" fill="White" transform="translate(1.142857, 1.311302E-06) scale(0.008928572, -0.008928572) translate(0, -1536)" />
</svg>