<!DOCTYPE svg PUBLIC "-//W3C//DTD SVG 1.1//EN" "http://www.w3.org/Graphics/SVG/1.1/DTD/svg11.dtd">
<svg xmlns="http://www.w3.org/2000/svg" xmlns:xlink="http://www.w3.org/1999/xlink" version="1.1" x="0" y="0" width="16" height="16" overflow="auto" preserveAspectRatio="xMidYMid" baseProfile="tiny" space="preserve">
  <path d="M768 1216 L768 512 Q768 408 727.5 313.5 Q687 219 618 150 Q549 81 454.5 40.5 Q360 0 256 0 L192 0 Q166 0 147 19 Q128 38 128 64 L128 192 Q128 218 147 237 Q166 256 192 256 L256 256 Q362 256 437 331 Q512 406 512 512 L512 544 Q512 584 484 612 Q456 640 416 640 L192 640 Q112 640 56 696 Q0 752 0 832 L0 1216 Q0 1296 56 1352 Q112 1408 192 1408 L576 1408 Q656 1408 712 1352 Q768 1296 768 1216 z M1664 1216 L1664 512 Q1664 408 1623.5 313.5 Q1583 219 1514 150 Q1445 81 1350.5 40.5 Q1256 0 1152 0 L1088 0 Q1062 0 1043 19 Q1024 38 1024 64 L1024 192 Q1024 218 1043 237 Q1062 256 1088 256 L1152 256 Q1258 256 1333 331 Q1408 406 1408 512 L1408 544 Q1408 584 1380 612 Q1352 640 1312 640 L1088 640 Q1008 640 952 696 Q896 752 896 832 L896 1216 Q896 1296 952 1352 Q1008 1408 1088 1408 L1472 1408 Q1552 1408 1608 1352 Q1664 1296 1664 1216 z" pathLength="0" fill="White" transform="translate(0.5714283, 0.5714296) scale(0.008928572, -0.008928572) translate(0, -1536)" />
</svg>