<!DOCTYPE svg PUBLIC "-//W3C//DTD SVG 1.1//EN" "http://www.w3.org/Graphics/SVG/1.1/DTD/svg11.dtd">
<svg xmlns="http://www.w3.org/2000/svg" xmlns:xlink="http://www.w3.org/1999/xlink" version="1.1" x="0" y="0" width="16" height="16" overflow="auto" preserveAspectRatio="xMidYMid" baseProfile="tiny" space="preserve">
  <path d="M768 576 L768 192 Q768 112 712 56 Q656 0 576 0 L192 0 Q112 0 56 56 Q0 112 0 192 L0 896 Q0 1000 40.5 1094.5 Q81 1189 150 1258 Q219 1327 313.5 1367.5 Q408 1408 512 1408 L576 1408 Q602 1408 621 1389 Q640 1370 640 1344 L640 1216 Q640 1190 621 1171 Q602 1152 576 1152 L512 1152 Q406 1152 331 1077 Q256 1002 256 896 L256 864 Q256 824 284 796 Q312 768 352 768 L576 768 Q656 768 712 712 Q768 656 768 576 z M1664 576 L1664 192 Q1664 112 1608 56 Q1552 0 1472 0 L1088 0 Q1008 0 952 56 Q896 112 896 192 L896 896 Q896 1000 936.5 1094.5 Q977 1189 1046 1258 Q1115 1327 1209.5 1367.5 Q1304 1408 1408 1408 L1472 1408 Q1498 1408 1517 1389 Q1536 1370 1536 1344 L1536 1216 Q1536 1190 1517 1171 Q1498 1152 1472 1152 L1408 1152 Q1302 1152 1227 1077 Q1152 1002 1152 896 L1152 864 Q1152 824 1180 796 Q1208 768 1248 768 L1472 768 Q1552 768 1608 712 Q1664 656 1664 576 z" pathLength="0" fill="White" transform="translate(0.5714283, 0.5714296) scale(0.008928572, -0.008928572) translate(0, -1536)" />
</svg>