<!DOCTYPE svg PUBLIC "-//W3C//DTD SVG 1.1//EN" "http://www.w3.org/Graphics/SVG/1.1/DTD/svg11.dtd">
<svg xmlns="http://www.w3.org/2000/svg" xmlns:xlink="http://www.w3.org/1999/xlink" version="1.1" x="0" y="0" width="16" height="16" overflow="auto" preserveAspectRatio="xMidYMid" baseProfile="tiny" space="preserve">
  <path d="M19 662 Q27 879 135 1068 Q243 1257 440 1386 L445 1386 Q445 1385 444 1383 Q436 1375 416 1349.5 Q396 1324 364 1273 Q332 1222 304 1162.5 Q276 1103 259.5 1027 Q243 951 245.5 876.5 Q248 802 284.5 719 Q321 636 393 565 Q443 515 495 495.5 Q547 476 585.5 484 Q624 492 655 507.5 Q686 523 702 540 L718 556 Q757 607 771 672.5 Q785 738 777.5 795 Q770 852 756.5 902 Q743 952 730 982 L716 1011 Q706 1036 685.5 1060.5 Q665 1085 642.5 1101.5 Q620 1118 599 1131 Q578 1144 564 1150 L551 1156 L655 1271 Q694 1254 733 1219 Q772 1184 792 1158 L811 1131 Q812 1179 792.5 1234.5 Q773 1290 752 1322 L732 1353 L893 1536 L1053 1355 Q1020 1309 1000.5 1252.5 Q981 1196 978 1162 L974 1129 Q996 1166 1035.5 1201.5 Q1075 1237 1103 1254 L1131 1271 L1234 1156 Q1190 1142 1149 1106 Q1108 1070 1089 1041 L1070 1012 Q1039 956 1022 878.5 Q1005 801 1015 708.5 Q1025 616 1072 552 Q1105 507 1149.5 491.5 Q1194 476 1234.5 486 Q1275 496 1310.5 512.5 Q1346 529 1368 546 L1389 562 Q1449 615 1485.5 677 Q1522 739 1534 798.5 Q1546 858 1544 920 Q1542 982 1526 1038 Q1510 1094 1489 1145.5 Q1468 1197 1443.5 1238.5 Q1419 1280 1398.5 1310.5 Q1378 1341 1364 1358 L1351 1375 Q1337 1388 1344 1388 L1354 1385 Q1394 1356 1416.5 1339 Q1439 1322 1478.5 1289 Q1518 1256 1542.5 1231 Q1567 1206 1601 1166 Q1635 1126 1656.5 1089 Q1678 1052 1702 1001 Q1726 950 1740 898 Q1754 846 1763.5 781 Q1773 716 1774 645 Q1777 386 1666 180 Q1555 -26 1354 -141 Q1153 -256 898 -256 Q713 -256 547 -182 Q381 -108 263.5 16 Q146 140 79.5 309 Q13 478 19 662 z" pathLength="0" fill="White" transform="translate(0.004464835, 9.536743E-07) scale(0.008928572, -0.008928572) translate(0, -1536)" />
</svg>