<!DOCTYPE svg PUBLIC "-//W3C//DTD SVG 1.1//EN" "http://www.w3.org/Graphics/SVG/1.1/DTD/svg11.dtd">
<svg xmlns="http://www.w3.org/2000/svg" xmlns:xlink="http://www.w3.org/1999/xlink" version="1.1" x="0" y="0" width="16" height="16" overflow="auto" preserveAspectRatio="xMidYMid" baseProfile="tiny" space="preserve">
  <path d="M666 1055 Q606 963 529 782 Q507 827 492 854.5 Q477 882 451.5 918 Q426 954 400.5 974.5 Q375 995 337.5 1009.5 Q300 1024 256 1024 L32 1024 Q18 1024 9 1033 Q0 1042 0 1056 L0 1248 Q0 1262 9 1271 Q18 1280 32 1280 L256 1280 Q506 1280 666 1055 z M1792 256 Q1792 242 1783 233 L1463 -87 Q1454 -96 1440 -96 Q1427 -96 1417.5 -86.5 Q1408 -77 1408 -64 L1408 128 Q1376 128 1323 127.5 Q1270 127 1242 126.5 Q1214 126 1169 127.5 Q1124 129 1098 132.5 Q1072 136 1034 143 Q996 150 971 161.5 Q946 173 913 190 Q880 207 854 230 Q828 253 799 283.5 Q770 314 743 353 Q802 446 879 626 Q901 581 916 553.5 Q931 526 956.5 490 Q982 454 1007.5 433.5 Q1033 413 1070.5 398.5 Q1108 384 1152 384 L1408 384 L1408 576 Q1408 590 1417 599 Q1426 608 1440 608 Q1452 608 1464 598 L1783 279 Q1792 270 1792 256 z M1792 1152 Q1792 1138 1783 1129 L1463 809 Q1454 800 1440 800 Q1427 800 1417.5 809.5 Q1408 819 1408 832 L1408 1024 L1152 1024 Q1104 1024 1065 1009 Q1026 994 996 964 Q966 934 945 902.5 Q924 871 900 825 Q868 763 822 654 Q793 588 772.5 543 Q752 498 718.5 438 Q685 378 654.5 338 Q624 298 580.5 255 Q537 212 490.5 186.5 Q444 161 384 144.5 Q324 128 256 128 L32 128 Q18 128 9 137 Q0 146 0 160 L0 352 Q0 366 9 375 Q18 384 32 384 L256 384 Q304 384 343 399 Q382 414 412 444 Q442 474 463 505.5 Q484 537 508 583 Q540 645 586 754 Q615 820 635.5 865 Q656 910 689.5 970 Q723 1030 753.5 1070 Q784 1110 827.5 1153 Q871 1196 917.5 1221.5 Q964 1247 1024 1263.5 Q1084 1280 1152 1280 L1408 1280 L1408 1472 Q1408 1486 1417 1495 Q1426 1504 1440 1504 Q1452 1504 1464 1494 L1783 1175 Q1792 1166 1792 1152 z" pathLength="0" fill="White" transform="translate(0, 0.5714296) scale(0.008928572, -0.008928572) translate(0, -1536)" />
</svg>