<!DOCTYPE svg PUBLIC "-//W3C//DTD SVG 1.1//EN" "http://www.w3.org/Graphics/SVG/1.1/DTD/svg11.dtd">
<svg xmlns="http://www.w3.org/2000/svg" xmlns:xlink="http://www.w3.org/1999/xlink" version="1.1" x="0" y="0" width="16" height="16" overflow="auto" preserveAspectRatio="xMidYMid" baseProfile="tiny" space="preserve">
  <path d="M836 367 L821 -1 L819 -23 L399 6 Q363 9 332 37.5 Q301 66 285 103 Q274 130 270.5 158 Q267 186 274.5 223 Q282 260 286.5 278 Q291 296 308 342 Q325 388 327 395 Q405 383 836 367 z M449 953 L629 574 L482 666 Q419 594 370.5 521.5 Q322 449 298 396.5 Q274 344 258.5 302 Q243 260 240 239 L236 218 L46 575 Q29 601 28 631 Q27 661 34 678 L42 696 Q77 759 156 884 L16 970 z M1680 436 L1492 77 Q1480 48 1455.5 30.5 Q1431 13 1412 10 L1394 6 Q1323 -1 1175 -6 L1183 -170 L953 197 L1164 559 L1171 386 Q1341 370 1454 381 Q1567 392 1624 414 z M895 1360 Q848 1297 630 925 L313 1112 L294 1124 L519 1480 Q539 1511 579 1525 Q619 1539 659 1535 Q683 1533 707.5 1523 Q732 1513 749.5 1502 Q767 1491 791 1469 Q815 1447 827 1434.5 Q839 1422 863 1395 Q887 1368 895 1360 z M1550 1053 L1762 690 Q1780 653 1774.5 614 Q1769 575 1747 540 Q1734 520 1714 503 Q1694 486 1676 475 Q1658 464 1627.5 453 Q1597 442 1580.5 437 Q1564 432 1529 423 Q1494 414 1483 411 Q1449 483 1218 847 L1531 1042 z M1407 1279 L1549 1362 L1329 989 L910 1009 L1061 1095 Q1027 1184 986 1261 Q945 1338 910.5 1384.5 Q876 1431 846 1464.5 Q816 1498 799 1511 L782 1524 L1187 1523 Q1218 1526 1245 1512.5 Q1272 1499 1284 1484 L1295 1469 Q1334 1408 1407 1279 z" pathLength="0" fill="White" transform="translate(-0.009671763, 0.3913702) scale(0.008928572, -0.008928572) translate(0, -1536)" />
</svg>