<!DOCTYPE svg PUBLIC "-//W3C//DTD SVG 1.1//EN" "http://www.w3.org/Graphics/SVG/1.1/DTD/svg11.dtd">
<svg xmlns="http://www.w3.org/2000/svg" xmlns:xlink="http://www.w3.org/1999/xlink" version="1.1" x="0" y="0" width="16" height="16" overflow="auto" preserveAspectRatio="xMidYMid" baseProfile="tiny" space="preserve">
  <path d="M1095 369 Q1111 353 1095 338 Q1033 276 896 276 Q759 276 697 338 Q681 353 697 369 Q703 375 712 375 Q721 375 727 369 Q775 320 896 320 Q1016 320 1065 369 Q1071 375 1080 375 Q1089 375 1095 369 z M788 550 Q788 513 762 487 Q736 461 699 461 Q662 461 635.5 487 Q609 513 609 550 Q609 588 635.5 614 Q662 640 699 640 Q736 640 762 613.5 Q788 587 788 550 z M1183 550 Q1183 513 1156.5 487 Q1130 461 1093 461 Q1056 461 1030 487 Q1004 513 1004 550 Q1004 587 1030 613.5 Q1056 640 1093 640 Q1130 640 1156.5 614 Q1183 588 1183 550 z M1434 670 Q1434 719 1399 754 Q1364 789 1314 789 Q1264 789 1228 753 Q1098 843 917 849 L980 1132 L1180 1087 Q1180 1050 1206 1024 Q1232 998 1269 998 Q1306 998 1332.5 1024.5 Q1359 1051 1359 1088 Q1359 1125 1332.5 1151.5 Q1306 1178 1269 1178 Q1215 1178 1189 1128 L968 1177 Q949 1182 943 1161 L874 849 Q694 842 565 752 Q530 789 478 789 Q428 789 393 754 Q358 719 358 670 Q358 635 376.5 606 Q395 577 426 562 Q420 535 420 506 Q420 364 560 263 Q700 162 897 162 Q1095 162 1235 263 Q1375 364 1375 506 Q1375 538 1368 563 Q1398 578 1416 606.5 Q1434 635 1434 670 z M1792 640 Q1792 458 1721 292 Q1650 126 1530 6 Q1410 -114 1244 -185 Q1078 -256 896 -256 Q714 -256 548 -185 Q382 -114 262 6 Q142 126 71 292 Q0 458 0 640 Q0 822 71 988 Q142 1154 262 1274 Q382 1394 548 1465 Q714 1536 896 1536 Q1078 1536 1244 1465 Q1410 1394 1530 1274 Q1650 1154 1721 988 Q1792 822 1792 640 z" pathLength="0" fill="White" transform="translate(0, 9.536743E-07) scale(0.008928572, -0.008928572) translate(0, -1536)" />
</svg>