<!DOCTYPE svg PUBLIC "-//W3C//DTD SVG 1.1//EN" "http://www.w3.org/Graphics/SVG/1.1/DTD/svg11.dtd">
<svg xmlns="http://www.w3.org/2000/svg" xmlns:xlink="http://www.w3.org/1999/xlink" version="1.1" x="0" y="0" width="16" height="16" overflow="auto" preserveAspectRatio="xMidYMid" baseProfile="tiny" space="preserve">
  <path d="M939 407 Q952 394 939 381 Q886 328 768 328 Q650 328 597 381 Q584 394 597 407 Q602 413 610 413 Q618 413 623 407 Q665 365 768 365 Q871 365 913 407 Q918 413 926 413 Q934 413 939 407 z M676 563 Q676 532 653 509 Q630 486 599 486 Q568 486 545 509 Q522 532 522 563 Q522 595 544.5 617.5 Q567 640 599 640 Q631 640 653.5 617.5 Q676 595 676 563 z M1014 563 Q1014 532 991 509 Q968 486 937 486 Q906 486 883 509 Q860 532 860 563 Q860 595 882.5 617.5 Q905 640 937 640 Q969 640 991.5 617.5 Q1014 595 1014 563 z M1229 666 Q1229 708 1199 738 Q1169 768 1126 768 Q1084 768 1053 737 Q940 815 786 819 L840 1062 L1011 1023 Q1012 991 1034.5 969 Q1057 947 1088 947 Q1120 947 1142.5 969.5 Q1165 992 1165 1024 Q1165 1056 1142.5 1078.5 Q1120 1101 1088 1101 Q1040 1101 1019 1058 L830 1100 Q813 1105 809 1087 L749 819 Q595 813 484 736 Q454 768 410 768 Q367 768 337 738 Q307 708 307 666 Q307 636 323 611 Q339 586 365 573 Q360 548 360 525 Q360 403 480 316.5 Q600 230 769 230 Q939 230 1059 316.5 Q1179 403 1179 525 Q1179 550 1173 574 Q1198 587 1213.5 611.5 Q1229 636 1229 666 z M1536 1120 L1536 160 Q1536 41 1451.5 -43.5 Q1367 -128 1248 -128 L288 -128 Q169 -128 84.5 -43.5 Q0 41 0 160 L0 1120 Q0 1239 84.5 1323.5 Q169 1408 288 1408 L1248 1408 Q1367 1408 1451.5 1323.5 Q1536 1239 1536 1120 z" pathLength="0" fill="White" transform="translate(1.142857, 1.311302E-06) scale(0.008928572, -0.008928572) translate(0, -1536)" />
</svg>