<!DOCTYPE svg PUBLIC "-//W3C//DTD SVG 1.1//EN" "http://www.w3.org/Graphics/SVG/1.1/DTD/svg11.dtd">
<svg xmlns="http://www.w3.org/2000/svg" xmlns:xlink="http://www.w3.org/1999/xlink" version="1.1" x="0" y="0" width="16" height="16" overflow="auto" preserveAspectRatio="xMidYMid" baseProfile="tiny" space="preserve">
  <path d="M1511 480 Q1511 475 1510 473 Q1446 205 1242 38.5 Q1038 -128 764 -128 Q618 -128 481.5 -73 Q345 -18 238 84 L109 -45 Q90 -64 64 -64 Q38 -64 19 -45 Q0 -26 0 0 L0 448 Q0 474 19 493 Q38 512 64 512 L512 512 Q538 512 557 493 Q576 474 576 448 Q576 422 557 403 L420 266 Q491 200 581 164 Q671 128 768 128 Q902 128 1018 193 Q1134 258 1204 372 Q1215 389 1257 489 Q1265 512 1287 512 L1479 512 Q1492 512 1501.5 502.5 Q1511 493 1511 480 z M1536 1280 L1536 832 Q1536 806 1517 787 Q1498 768 1472 768 L1024 768 Q998 768 979 787 Q960 806 960 832 Q960 858 979 877 L1117 1015 Q969 1152 768 1152 Q634 1152 518 1087 Q402 1022 332 908 Q321 891 279 791 Q271 768 249 768 L50 768 Q37 768 27.5 777.5 Q18 787 18 800 L18 807 Q83 1075 288 1241.5 Q493 1408 768 1408 Q914 1408 1052 1352.5 Q1190 1297 1297 1196 L1427 1325 Q1446 1344 1472 1344 Q1498 1344 1517 1325 Q1536 1306 1536 1280 z" pathLength="0" fill="White" transform="translate(1.142857, 1.311302E-06) scale(0.008928572, -0.008928572) translate(0, -1536)" />
</svg>