<!DOCTYPE svg PUBLIC "-//W3C//DTD SVG 1.1//EN" "http://www.w3.org/Graphics/SVG/1.1/DTD/svg11.dtd">
<svg xmlns="http://www.w3.org/2000/svg" xmlns:xlink="http://www.w3.org/1999/xlink" version="1.1" x="0" y="0" width="16" height="16" overflow="auto" preserveAspectRatio="xMidYMid" baseProfile="tiny" space="preserve">
  <path d="M1042 833 Q1042 921 982 954 Q949 972 865 972 L742 972 L742 691 L904 691 Q970 691 1006 728 Q1042 765 1042 833 z M1094 548 L1299 175 Q1307 158 1298 144 Q1290 128 1271 128 L1119 128 Q1099 128 1091 145 L897 510 L742 510 L742 160 Q742 146 733 137 Q724 128 710 128 L576 128 Q562 128 553 137 Q544 146 544 160 L544 1120 Q544 1134 553 1143 Q562 1152 576 1152 L870 1152 Q998 1152 1060 1128 Q1145 1097 1194 1019 Q1243 941 1243 839 Q1243 747 1200.5 673.5 Q1158 600 1085 564 Q1091 554 1094 548 z M896 1376 Q746 1376 610 1317.5 Q474 1259 375.5 1160.5 Q277 1062 218.5 926 Q160 790 160 640 Q160 490 218.5 354 Q277 218 375.5 119.5 Q474 21 610 -37.5 Q746 -96 896 -96 Q1046 -96 1182 -37.5 Q1318 21 1416.5 119.5 Q1515 218 1573.5 354 Q1632 490 1632 640 Q1632 790 1573.5 926 Q1515 1062 1416.5 1160.5 Q1318 1259 1182 1317.5 Q1046 1376 896 1376 z M1792 640 Q1792 458 1721 292 Q1650 126 1530 6 Q1410 -114 1244 -185 Q1078 -256 896 -256 Q714 -256 548 -185 Q382 -114 262 6 Q142 126 71 292 Q0 458 0 640 Q0 822 71 988 Q142 1154 262 1274 Q382 1394 548 1465 Q714 1536 896 1536 Q1078 1536 1244 1465 Q1410 1394 1530 1274 Q1650 1154 1721 988 Q1792 822 1792 640 z" pathLength="0" fill="White" transform="translate(0, 9.536743E-07) scale(0.008928572, -0.008928572) translate(0, -1536)" />
</svg>