<!DOCTYPE svg PUBLIC "-//W3C//DTD SVG 1.1//EN" "http://www.w3.org/Graphics/SVG/1.1/DTD/svg11.dtd">
<svg xmlns="http://www.w3.org/2000/svg" xmlns:xlink="http://www.w3.org/1999/xlink" version="1.1" x="0" y="0" width="16" height="16" overflow="auto" preserveAspectRatio="xMidYMid" baseProfile="tiny" space="preserve">
  <path d="M1280 32 Q1280 19 1270.5 9.5 Q1261 0 1248 0 L288 0 Q280 0 274.5 2 Q269 4 265.5 9 Q262 14 260 17 Q258 20 257 28.5 Q256 37 256 40 L256 53 L256 64 L256 224 L256 640 L64 640 Q38 640 19 659 Q0 678 0 704 Q0 728 15 745 L335 1129 Q354 1151 384 1151 Q414 1151 433 1129 L753 745 Q768 728 768 704 Q768 678 749 659 Q730 640 704 640 L512 640 L512 256 L1088 256 Q1104 256 1113 245 L1273 53 Q1280 42 1280 32 z M1920 448 Q1920 424 1905 407 L1585 23 Q1565 0 1536 0 Q1507 0 1487 23 L1167 407 Q1152 424 1152 448 Q1152 474 1171 493 Q1190 512 1216 512 L1408 512 L1408 896 L832 896 Q816 896 807 908 L647 1100 Q640 1109 640 1120 Q640 1133 649.5 1142.5 Q659 1152 672 1152 L1632 1152 Q1640 1152 1645.5 1150 Q1651 1148 1654.5 1143 Q1658 1138 1660 1135 Q1662 1132 1663 1123.5 Q1664 1115 1664 1112 L1664 1099 L1664 1088 L1664 928 L1664 512 L1856 512 Q1882 512 1901 493 Q1920 474 1920 448 z" pathLength="0" fill="White" transform="translate(-0.5714283, -0.5714276) scale(0.008928572, -0.008928572) translate(0, -1536)" />
</svg>