<!DOCTYPE svg PUBLIC "-//W3C//DTD SVG 1.1//EN" "http://www.w3.org/Graphics/SVG/1.1/DTD/svg11.dtd">
<svg xmlns="http://www.w3.org/2000/svg" xmlns:xlink="http://www.w3.org/1999/xlink" version="1.1" x="0" y="0" width="16" height="16" overflow="auto" preserveAspectRatio="xMidYMid" baseProfile="tiny" space="preserve">
  <path d="M1111 540 L1111 544 L1087 864 Q1086 877 1076 886.5 Q1066 896 1053 896 L867 896 Q854 896 844 886.5 Q834 877 833 864 L809 544 L809 540 Q808 528 817 520 Q826 512 838 512 L1082 512 Q1094 512 1103 520 Q1112 528 1111 540 z M1870 73 Q1870 0 1824 0 L1120 0 Q1133 0 1142 9.5 Q1151 19 1150 32 L1130 288 Q1129 301 1119 310.5 Q1109 320 1096 320 L824 320 Q811 320 801 310.5 Q791 301 790 288 L770 32 Q769 19 778 9.5 Q787 0 800 0 L96 0 Q50 0 50 73 Q50 127 76 189 L493 1233 Q501 1252 519 1266 Q537 1280 557 1280 L896 1280 Q883 1280 873 1270.5 Q863 1261 862 1248 L847 1056 Q846 1042 855 1033 Q864 1024 877 1024 L1043 1024 Q1056 1024 1065 1033 Q1074 1042 1073 1056 L1058 1248 Q1057 1261 1047 1270.5 Q1037 1280 1024 1280 L1363 1280 Q1383 1280 1401 1266 Q1419 1252 1427 1233 L1844 189 Q1870 127 1870 73 z" pathLength="0" fill="White" transform="translate(-0.5714266, 7.152557E-07) scale(0.008928572, -0.008928572) translate(0, -1536)" />
</svg>