<!DOCTYPE svg PUBLIC "-//W3C//DTD SVG 1.1//EN" "http://www.w3.org/Graphics/SVG/1.1/DTD/svg11.dtd">
<svg xmlns="http://www.w3.org/2000/svg" xmlns:xlink="http://www.w3.org/1999/xlink" version="1.1" x="0" y="0" width="16" height="16" overflow="auto" preserveAspectRatio="xMidYMid" baseProfile="tiny" space="preserve">
  <path d="M1440 1088 Q1440 1128 1412 1156 Q1384 1184 1344 1184 Q1304 1184 1276 1156 Q1248 1128 1248 1088 Q1248 1048 1276 1020 Q1304 992 1344 992 Q1384 992 1412 1020 Q1440 1048 1440 1088 z M1664 1376 Q1664 1127 1588.5 945.5 Q1513 764 1335 585 Q1254 505 1140 409 L1120 30 Q1118 14 1104 4 L720 -220 Q713 -224 704 -224 Q692 -224 681 -215 L617 -151 Q604 -137 609 -119 L694 157 L413 438 L137 353 Q134 352 128 352 Q114 352 105 361 L41 425 Q24 444 36 464 L260 848 Q270 862 286 864 L665 884 Q761 998 841 1079 Q1029 1266 1199 1337 Q1369 1408 1630 1408 Q1644 1408 1654 1398.5 Q1664 1389 1664 1376 z" pathLength="0" fill="White" transform="translate(0.4464283, -0.4285704) scale(0.008928572, -0.008928572) translate(0, -1536)" />
</svg>