<!DOCTYPE svg PUBLIC "-//W3C//DTD SVG 1.1//EN" "http://www.w3.org/Graphics/SVG/1.1/DTD/svg11.dtd">
<svg xmlns="http://www.w3.org/2000/svg" xmlns:xlink="http://www.w3.org/1999/xlink" version="1.1" x="0" y="0" width="16" height="16" overflow="auto" preserveAspectRatio="xMidYMid" baseProfile="tiny" space="preserve">
  <path d="M1536 1280 L1536 832 Q1536 806 1517 787 Q1498 768 1472 768 L1024 768 Q982 768 965 808 Q948 847 979 877 L1117 1015 Q969 1152 768 1152 Q664 1152 569.5 1111.5 Q475 1071 406 1002 Q337 933 296.5 838.5 Q256 744 256 640 Q256 536 296.5 441.5 Q337 347 406 278 Q475 209 569.5 168.5 Q664 128 768 128 Q887 128 993 180 Q1099 232 1172 327 Q1179 337 1195 339 Q1209 339 1220 330 L1357 192 Q1366 184 1366.5 171.5 Q1367 159 1359 149 Q1250 17 1095 -55.5 Q940 -128 768 -128 Q612 -128 470 -67 Q328 -6 225 97 Q122 200 61 342 Q0 484 0 640 Q0 796 61 938 Q122 1080 225 1183 Q328 1286 470 1347 Q612 1408 768 1408 Q915 1408 1052.5 1352.5 Q1190 1297 1297 1196 L1427 1325 Q1456 1356 1497 1339 Q1536 1322 1536 1280 z" pathLength="0" fill="White" transform="translate(1.142857, 1.311302E-06) scale(0.008928572, -0.008928572) translate(0, -1536)" />
</svg>