<!DOCTYPE svg PUBLIC "-//W3C//DTD SVG 1.1//EN" "http://www.w3.org/Graphics/SVG/1.1/DTD/svg11.dtd">
<svg xmlns="http://www.w3.org/2000/svg" xmlns:xlink="http://www.w3.org/1999/xlink" version="1.1" x="0" y="0" width="16" height="16" overflow="auto" preserveAspectRatio="xMidYMid" baseProfile="tiny" space="preserve">
  <path d="M512 256 Q512 309 474.5 346.5 Q437 384 384 384 Q331 384 293.5 346.5 Q256 309 256 256 Q256 203 293.5 165.5 Q331 128 384 128 Q437 128 474.5 165.5 Q512 203 512 256 z M863 162 Q850 394 686 558 Q522 722 290 735 Q276 736 266 726 Q256 716 256 703 L256 575 Q256 562 264.5 553 Q273 544 286 543 Q440 532 550 422 Q660 312 671 158 Q672 145 681 136.5 Q690 128 703 128 L831 128 Q844 128 854 138 Q864 148 863 162 z M1247 161 Q1242 315 1191 458.5 Q1140 602 1051.5 718.5 Q963 835 846.5 923.5 Q730 1012 586.5 1063 Q443 1114 289 1119 Q275 1120 266 1110 Q256 1100 256 1087 L256 959 Q256 946 265 937 Q274 928 287 927 Q491 920 665 815.5 Q839 711 943.5 537 Q1048 363 1055 159 Q1056 146 1065 137 Q1074 128 1087 128 L1215 128 Q1228 128 1238 138 Q1249 147 1247 161 z M1536 1120 L1536 160 Q1536 41 1451.5 -43.5 Q1367 -128 1248 -128 L288 -128 Q169 -128 84.5 -43.5 Q0 41 0 160 L0 1120 Q0 1239 84.5 1323.5 Q169 1408 288 1408 L1248 1408 Q1367 1408 1451.5 1323.5 Q1536 1239 1536 1120 z" pathLength="0" fill="White" transform="translate(1.142857, 1.311302E-06) scale(0.008928572, -0.008928572) translate(0, -1536)" />
</svg>