<!DOCTYPE svg PUBLIC "-//W3C//DTD SVG 1.1//EN" "http://www.w3.org/Graphics/SVG/1.1/DTD/svg11.dtd">
<svg xmlns="http://www.w3.org/2000/svg" xmlns:xlink="http://www.w3.org/1999/xlink" version="1.1" x="0" y="0" width="16" height="16" overflow="auto" preserveAspectRatio="xMidYMid" baseProfile="tiny" space="preserve">
  <path d="M1043 971 Q1043 1071 978 1133 Q913 1195 807 1195 L487 1195 L487 747 L807 747 Q913 747 978 809 Q1043 871 1043 971 z M1280 971 Q1280 778 1153.5 656 Q1027 534 827 534 L487 534 L487 416 L992 416 Q1006 416 1015 407 Q1024 398 1024 384 L1024 256 Q1024 242 1015 233 Q1006 224 992 224 L487 224 L487 32 Q487 18 477.5 9 Q468 0 455 0 L288 0 Q274 0 265 9 Q256 18 256 32 L256 224 L32 224 Q18 224 9 233 Q0 242 0 256 L0 384 Q0 398 9 407 Q18 416 32 416 L256 416 L256 534 L32 534 Q18 534 9 543 Q0 552 0 566 L0 715 Q0 728 9 737.5 Q18 747 32 747 L256 747 L256 1376 Q256 1390 265 1399 Q274 1408 288 1408 L827 1408 Q1027 1408 1153.5 1286 Q1280 1164 1280 971 z" pathLength="0" fill="White" transform="translate(2.285714, 0.5714296) scale(0.008928572, -0.008928572) translate(0, -1536)" />
</svg>