<!DOCTYPE svg PUBLIC "-//W3C//DTD SVG 1.1//EN" "http://www.w3.org/Graphics/SVG/1.1/DTD/svg11.dtd">
<svg xmlns="http://www.w3.org/2000/svg" xmlns:xlink="http://www.w3.org/1999/xlink" version="1.1" x="0" y="0" width="16" height="16" overflow="auto" preserveAspectRatio="xMidYMid" baseProfile="tiny" space="preserve">
  <path d="M898 1066 L898 964 Q898 950 889 941 Q880 932 866 932 L698 932 Q675 788 569 698 Q463 608 293 588 Q460 410 752 52 Q766 36 756 18 Q748 0 727 0 L532 0 Q516 0 507 12 Q201 379 9 583 Q0 592 0 605 L0 732 Q0 745 9.5 754.5 Q19 764 32 764 L144 764 Q276 764 356.5 807 Q437 850 459 932 L32 932 Q18 932 9 941 Q0 950 0 964 L0 1066 Q0 1080 9 1089 Q18 1098 32 1098 L445 1098 Q388 1211 177 1211 L32 1211 Q19 1211 9.5 1220.5 Q0 1230 0 1243 L0 1376 Q0 1390 9 1399 Q18 1408 32 1408 L864 1408 Q878 1408 887 1399 Q896 1390 896 1376 L896 1274 Q896 1260 887 1251 Q878 1242 864 1242 L631 1242 Q678 1181 695 1098 L866 1098 Q880 1098 889 1089 Q898 1080 898 1066 z" pathLength="0" fill="White" transform="translate(3.991072, 0.5714296) scale(0.008928572, -0.008928572) translate(0, -1536)" />
</svg>