<!DOCTYPE svg PUBLIC "-//W3C//DTD SVG 1.1//EN" "http://www.w3.org/Graphics/SVG/1.1/DTD/svg11.dtd">
<svg xmlns="http://www.w3.org/2000/svg" xmlns:xlink="http://www.w3.org/1999/xlink" version="1.1" x="0" y="0" width="16" height="16" overflow="auto" preserveAspectRatio="xMidYMid" baseProfile="tiny" space="preserve">
  <path d="M949 643 Q949 617 932.5 598 Q916 579 891 579 Q865 579 846 595.5 Q827 612 827 637 Q827 663 844 682 Q861 701 886 701 Q911 701 930 684.5 Q949 668 949 643 z M964 585 L1314 1166 Q1305 1158 1246.5 1103.5 Q1188 1049 1121 987 Q1054 925 984.5 860 Q915 795 867.5 749.5 Q820 704 817 698 L468 118 Q475 125 535 180 Q595 235 661 296.5 Q727 358 797 423.5 Q867 489 914 534.5 Q961 580 964 585 z M1611 640 Q1611 439 1507 269 Q1504 271 1490 280 Q1476 289 1463.5 296.5 Q1451 304 1447 304 Q1434 304 1434 291 Q1434 281 1493 247 Q1419 135 1308.5 56.5 Q1198 -22 1067 -54 L1051 13 Q1050 23 1036 23 Q1031 23 1028 17.5 Q1025 12 1026 8 L1042 -60 Q970 -75 896 -75 Q697 -75 524 30 Q525 32 537 50.5 Q549 69 558.5 84 Q568 99 568 103 Q568 116 555 116 Q549 116 538 101.5 Q527 87 515.5 67 Q504 47 502 44 Q389 119 310 231.5 Q231 344 200 476 L269 491 Q279 494 279 506 Q279 511 273.5 514 Q268 517 263 516 L195 501 Q181 573 181 640 Q181 846 290 1019 Q292 1018 308.5 1007 Q325 996 338.5 988 Q352 980 356 980 Q369 980 369 992 Q369 998 356.5 1007.5 Q344 1017 324 1029 L304 1041 Q381 1153 493 1230 Q605 1307 737 1337 L752 1270 Q754 1260 767 1260 Q772 1260 775 1265.5 Q778 1271 777 1276 L762 1342 Q833 1355 896 1355 Q1100 1355 1275 1246 Q1236 1190 1236 1181 Q1236 1168 1248 1168 Q1259 1168 1296 1232 Q1407 1157 1483.5 1046 Q1560 935 1591 805 L1535 793 Q1525 791 1525 777 Q1525 772 1530.5 769 Q1536 766 1540 767 L1597 780 Q1611 708 1611 640 z M1696 640 Q1696 803 1632.5 951 Q1569 1099 1462 1206 Q1355 1313 1207 1376.5 Q1059 1440 896 1440 Q733 1440 585 1376.5 Q437 1313 330 1206 Q223 1099 159.5 951 Q96 803 96 640 Q96 477 159.5 329 Q223 181 330 74 Q437 -33 585 -96.5 Q733 -160 896 -160 Q1059 -160 1207 -96.5 Q1355 -33 1462 74 Q1569 181 1632.5 329 Q1696 477 1696 640 z M1792 640 Q1792 458 1721 292 Q1650 126 1530 6 Q1410 -114 1244 -185 Q1078 -256 896 -256 Q714 -256 548 -185 Q382 -114 262 6 Q142 126 71 292 Q0 458 0 640 Q0 822 71 988 Q142 1154 262 1274 Q382 1394 548 1465 Q714 1536 896 1536 Q1078 1536 1244 1465 Q1410 1394 1530 1274 Q1650 1154 1721 988 Q1792 822 1792 640 z" pathLength="0" fill="White" transform="translate(0, 9.536743E-07) scale(0.008928572, -0.008928572) translate(0, -1536)" />
</svg>