<!DOCTYPE svg PUBLIC "-//W3C//DTD SVG 1.1//EN" "http://www.w3.org/Graphics/SVG/1.1/DTD/svg11.dtd">
<svg xmlns="http://www.w3.org/2000/svg" xmlns:xlink="http://www.w3.org/1999/xlink" version="1.1" x="0" y="0" width="16" height="16" overflow="auto" preserveAspectRatio="xMidYMid" baseProfile="tiny" space="preserve">
  <path d="M384 0 L1152 0 L1152 384 L384 384 L384 0 z M1280 0 L1408 0 L1408 896 Q1408 910 1398 934.5 Q1388 959 1378 969 L1097 1250 Q1087 1260 1063 1270 Q1039 1280 1024 1280 L1024 864 Q1024 824 996 796 Q968 768 928 768 L352 768 Q312 768 284 796 Q256 824 256 864 L256 1280 L128 1280 L128 0 L256 0 L256 416 Q256 456 284 484 Q312 512 352 512 L1184 512 Q1224 512 1252 484 Q1280 456 1280 416 L1280 0 z M896 928 L896 1248 Q896 1261 886.5 1270.5 Q877 1280 864 1280 L672 1280 Q659 1280 649.5 1270.5 Q640 1261 640 1248 L640 928 Q640 915 649.5 905.5 Q659 896 672 896 L864 896 Q877 896 886.5 905.5 Q896 915 896 928 z M1536 896 L1536 -32 Q1536 -72 1508 -100 Q1480 -128 1440 -128 L96 -128 Q56 -128 28 -100 Q0 -72 0 -32 L0 1312 Q0 1352 28 1380 Q56 1408 96 1408 L1024 1408 Q1064 1408 1112 1388 Q1160 1368 1188 1340 L1468 1060 Q1496 1032 1516 984 Q1536 936 1536 896 z" pathLength="0" fill="White" transform="translate(1.142857, 1.311302E-06) scale(0.008928572, -0.008928572) translate(0, -1536)" />
</svg>