<!DOCTYPE svg PUBLIC "-//W3C//DTD SVG 1.1//EN" "http://www.w3.org/Graphics/SVG/1.1/DTD/svg11.dtd">
<svg xmlns="http://www.w3.org/2000/svg" xmlns:xlink="http://www.w3.org/1999/xlink" version="1.1" x="0" y="0" width="16" height="16" overflow="auto" preserveAspectRatio="xMidYMid" baseProfile="tiny" space="preserve">
  <path d="M1152 704 Q1152 889 1020.5 1020.5 Q889 1152 704 1152 Q519 1152 387.5 1020.5 Q256 889 256 704 Q256 519 387.5 387.5 Q519 256 704 256 Q889 256 1020.5 387.5 Q1152 519 1152 704 z M1664 -128 Q1664 -180 1626 -218 Q1588 -256 1536 -256 Q1482 -256 1446 -218 L1103 124 Q924 0 704 0 Q561 0 430.5 55.5 Q300 111 205.5 205.5 Q111 300 55.5 430.5 Q0 561 0 704 Q0 847 55.5 977.5 Q111 1108 205.5 1202.5 Q300 1297 430.5 1352.5 Q561 1408 704 1408 Q847 1408 977.5 1352.5 Q1108 1297 1202.5 1202.5 Q1297 1108 1352.5 977.5 Q1408 847 1408 704 Q1408 484 1284 305 L1627 -38 Q1664 -75 1664 -128 z" pathLength="0" fill="White" transform="translate(0.5714283, -0.5714275) scale(0.008928572, -0.008928572) translate(0, -1536)" />
</svg>