<!DOCTYPE svg PUBLIC "-//W3C//DTD SVG 1.1//EN" "http://www.w3.org/Graphics/SVG/1.1/DTD/svg11.dtd">
<svg xmlns="http://www.w3.org/2000/svg" xmlns:xlink="http://www.w3.org/1999/xlink" version="1.1" x="0" y="0" width="16" height="16" overflow="auto" preserveAspectRatio="xMidYMid" baseProfile="tiny" space="preserve">
  <path d="M1500 165 L1500 898 Q1500 919 1485 934 Q1470 949 1450 949 L1357 949 Q1337 949 1322 934 Q1307 919 1307 898 L1307 165 Q1307 145 1322 130 Q1337 115 1357 115 L1450 115 Q1470 115 1485 130 Q1500 145 1500 165 z M1216 165 L1216 696 Q1216 716 1201 731 Q1186 746 1166 746 L1065 746 Q1045 746 1030 731 Q1015 716 1015 696 L1015 165 Q1015 145 1030 130 Q1045 115 1065 115 L1166 115 Q1186 115 1201 130 Q1216 145 1216 165 z M924 165 L924 594 Q924 614 909 629 Q894 644 874 644 L773 644 Q753 644 738 629 Q723 614 723 594 L723 165 Q723 145 738 130 Q753 115 773 115 L874 115 Q894 115 909 130 Q924 145 924 165 z M632 165 L632 527 Q632 547 617 562 Q602 577 582 577 L481 577 Q461 577 446 562 Q431 547 431 527 L431 165 Q431 145 446 130 Q461 115 481 115 L582 115 Q602 115 617 130 Q632 145 632 165 z M2048 311 Q2048 145 1930 27 Q1812 -91 1646 -91 L402 -91 Q236 -91 118 27 Q0 145 0 311 Q0 427 63 525.5 Q126 624 231 674 Q221 708 221 747 Q221 860 301.5 940.5 Q382 1021 495 1021 Q597 1021 675 954 Q720 1137 869 1254 Q1018 1371 1207 1371 Q1356 1371 1482 1297.5 Q1608 1224 1681.5 1098 Q1755 972 1755 823 Q1755 757 1741 701 Q1876 668 1962 558.5 Q2048 449 2048 311 z" pathLength="0" fill="White" transform="translate(-1.142858, 8.34465E-07) scale(0.008928572, -0.008928572) translate(0, -1536)" />
</svg>