<!DOCTYPE svg PUBLIC "-//W3C//DTD SVG 1.1//EN" "http://www.w3.org/Graphics/SVG/1.1/DTD/svg11.dtd">
<svg xmlns="http://www.w3.org/2000/svg" xmlns:xlink="http://www.w3.org/1999/xlink" version="1.1" x="0" y="0" width="16" height="16" overflow="auto" preserveAspectRatio="xMidYMid" baseProfile="tiny" space="preserve">
  <path d="M1764 1525 Q1797 1501 1791 1461 L1535 -75 Q1530 -104 1503 -120 Q1489 -128 1472 -128 Q1461 -128 1448 -123 L995 62 L753 -233 Q735 -256 704 -256 Q691 -256 682 -252 Q663 -245 651.5 -228.5 Q640 -212 640 -192 L640 157 L1504 1216 L435 291 L40 453 Q3 467 0 508 Q-2 548 32 567 L1696 1527 Q1711 1536 1728 1536 Q1748 1536 1764 1525 z" pathLength="0" fill="White" transform="translate(-0.007438613, 9.536743E-07) scale(0.008928572, -0.008928572) translate(0, -1536)" />
</svg>