<!DOCTYPE svg PUBLIC "-//W3C//DTD SVG 1.1//EN" "http://www.w3.org/Graphics/SVG/1.1/DTD/svg11.dtd">
<svg xmlns="http://www.w3.org/2000/svg" xmlns:xlink="http://www.w3.org/1999/xlink" version="1.1" x="0" y="0" width="16" height="16" overflow="auto" preserveAspectRatio="xMidYMid" baseProfile="tiny" space="preserve">
  <path d="M1764 1525 Q1797 1501 1791 1461 L1535 -75 Q1530 -104 1503 -120 Q1489 -128 1472 -128 Q1461 -128 1448 -123 L921 92 L623 -235 Q605 -256 576 -256 Q562 -256 553 -252 Q534 -245 523 -228.5 Q512 -212 512 -192 L512 260 L40 453 Q3 467 0 508 Q-3 547 32 567 L1696 1527 Q1731 1548 1764 1525 z M1422 26 L1643 1349 L209 522 L545 385 L1408 1024 L930 227 z" pathLength="0" fill="White" transform="translate(-0.00446265, 0.02232355) scale(0.008928572, -0.008928572) translate(0, -1536)" />
</svg>