<!DOCTYPE svg PUBLIC "-//W3C//DTD SVG 1.1//EN" "http://www.w3.org/Graphics/SVG/1.1/DTD/svg11.dtd">
<svg xmlns="http://www.w3.org/2000/svg" xmlns:xlink="http://www.w3.org/1999/xlink" version="1.1" x="0" y="0" width="16" height="16" overflow="auto" preserveAspectRatio="xMidYMid" baseProfile="tiny" space="preserve">
  <path d="M128 128 L1152 128 L1152 256 L128 256 L128 128 z M128 640 L1152 640 L1152 768 L128 768 L128 640 z M1696 192 Q1696 232 1668 260 Q1640 288 1600 288 Q1560 288 1532 260 Q1504 232 1504 192 Q1504 152 1532 124 Q1560 96 1600 96 Q1640 96 1668 124 Q1696 152 1696 192 z M128 1152 L1152 1152 L1152 1280 L128 1280 L128 1152 z M1696 704 Q1696 744 1668 772 Q1640 800 1600 800 Q1560 800 1532 772 Q1504 744 1504 704 Q1504 664 1532 636 Q1560 608 1600 608 Q1640 608 1668 636 Q1696 664 1696 704 z M1696 1216 Q1696 1256 1668 1284 Q1640 1312 1600 1312 Q1560 1312 1532 1284 Q1504 1256 1504 1216 Q1504 1176 1532 1148 Q1560 1120 1600 1120 Q1640 1120 1668 1148 Q1696 1176 1696 1216 z M1792 384 L1792 0 L0 0 L0 384 L1792 384 z M1792 896 L1792 512 L0 512 L0 896 L1792 896 z M1792 1408 L1792 1024 L0 1024 L0 1408 L1792 1408 z" pathLength="0" fill="White" transform="translate(0, 0.5714296) scale(0.008928572, -0.008928572) translate(0, -1536)" />
</svg>