<!DOCTYPE svg PUBLIC "-//W3C//DTD SVG 1.1//EN" "http://www.w3.org/Graphics/SVG/1.1/DTD/svg11.dtd">
<svg xmlns="http://www.w3.org/2000/svg" xmlns:xlink="http://www.w3.org/1999/xlink" version="1.1" x="0" y="0" width="16" height="16" overflow="auto" preserveAspectRatio="xMidYMid" baseProfile="tiny" space="preserve">
  <path d="M1280 341 Q1280 429 1217.5 492 Q1155 555 1067 555 Q983 555 922 497 L681 617 Q683 633 683 640 Q683 647 681 663 L922 783 Q983 725 1067 725 Q1155 725 1217.5 788 Q1280 851 1280 939 Q1280 1027 1217.5 1089.5 Q1155 1152 1067 1152 Q979 1152 916 1089.5 Q853 1027 853 939 Q853 932 855 916 L614 796 Q552 853 469 853 Q381 853 318.5 790.5 Q256 728 256 640 Q256 552 318.5 489.5 Q381 427 469 427 Q552 427 614 484 L855 364 Q853 348 853 341 Q853 253 916 190.5 Q979 128 1067 128 Q1155 128 1217.5 190.5 Q1280 253 1280 341 z M1536 1120 L1536 160 Q1536 41 1451.5 -43.5 Q1367 -128 1248 -128 L288 -128 Q169 -128 84.5 -43.5 Q0 41 0 160 L0 1120 Q0 1239 84.5 1323.5 Q169 1408 288 1408 L1248 1408 Q1367 1408 1451.5 1323.5 Q1536 1239 1536 1120 z" pathLength="0" fill="White" transform="translate(1.142857, 1.311302E-06) scale(0.008928572, -0.008928572) translate(0, -1536)" />
</svg>