<!DOCTYPE svg PUBLIC "-//W3C//DTD SVG 1.1//EN" "http://www.w3.org/Graphics/SVG/1.1/DTD/svg11.dtd">
<svg xmlns="http://www.w3.org/2000/svg" xmlns:xlink="http://www.w3.org/1999/xlink" version="1.1" x="0" y="0" width="16" height="16" overflow="auto" preserveAspectRatio="xMidYMid" baseProfile="tiny" space="preserve">
  <path d="M1408 547 L1408 288 Q1408 169 1323.5 84.5 Q1239 0 1120 0 L288 0 Q169 0 84.5 84.5 Q0 169 0 288 L0 1120 Q0 1239 84.5 1323.5 Q169 1408 288 1408 L543 1408 L543 1408 Q556 1408 565.5 1398.5 Q575 1389 575 1376 Q575 1349 549 1344 Q472 1318 416 1284 Q406 1280 400 1280 L288 1280 Q222 1280 175 1233 Q128 1186 128 1120 L128 288 Q128 222 175 175 Q222 128 288 128 L1120 128 Q1186 128 1233 175 Q1280 222 1280 288 L1280 502 Q1280 521 1298 531 Q1326 544 1352 568 Q1368 584 1387 576 Q1408 567 1408 547 z M1645 1043 L1261 659 Q1243 640 1216 640 Q1204 640 1191 645 Q1152 662 1152 704 L1152 896 L992 896 Q669 896 554 765 Q435 628 480 292 Q483 269 460 258 Q452 256 448 256 Q432 256 422 269 Q412 283 401 300 Q390 317 361.5 368.5 Q333 420 312 468 Q291 516 273.5 582 Q256 648 256 704 Q256 753 259.5 795 Q263 837 273.5 885 Q284 933 301.5 973 Q319 1013 348.5 1054.5 Q378 1096 417 1128.5 Q456 1161 511.5 1190 Q567 1219 636 1238.5 Q705 1258 795.5 1269 Q886 1280 992 1280 L1152 1280 L1152 1472 Q1152 1514 1191 1531 Q1204 1536 1216 1536 Q1242 1536 1261 1517 L1645 1133 Q1664 1114 1664 1088 Q1664 1062 1645 1043 z" pathLength="0" fill="White" transform="translate(0.5714283, 1.142858) scale(0.008928572, -0.008928572) translate(0, -1536)" />
</svg>