<!DOCTYPE svg PUBLIC "-//W3C//DTD SVG 1.1//EN" "http://www.w3.org/Graphics/SVG/1.1/DTD/svg11.dtd">
<svg xmlns="http://www.w3.org/2000/svg" xmlns:xlink="http://www.w3.org/1999/xlink" version="1.1" x="0" y="0" width="16" height="16" overflow="auto" preserveAspectRatio="xMidYMid" baseProfile="tiny" space="preserve">
  <path d="M1005 435 L1357 787 Q1376 806 1376 832 Q1376 858 1357 877 L1005 1229 Q975 1260 936 1243 Q896 1226 896 1184 L896 1024 Q777 1024 680 1004.5 Q583 985 517.5 953.5 Q452 922 403.5 874.5 Q355 827 327 779 Q299 731 282.5 670 Q266 609 261 558.5 Q256 508 256 448 Q256 267 423 44 Q433 32 448 32 Q455 32 461 35 Q483 44 480 68 Q436 422 542 541 Q588 593 672 616.5 Q756 640 896 640 L896 480 Q896 438 936 421 Q948 416 960 416 Q986 416 1005 435 z M1536 1120 L1536 160 Q1536 41 1451.5 -43.5 Q1367 -128 1248 -128 L288 -128 Q169 -128 84.5 -43.5 Q0 41 0 160 L0 1120 Q0 1239 84.5 1323.5 Q169 1408 288 1408 L1248 1408 Q1367 1408 1451.5 1323.5 Q1536 1239 1536 1120 z" pathLength="0" fill="White" transform="translate(1.142857, 1.311302E-06) scale(0.008928572, -0.008928572) translate(0, -1536)" />
</svg>