<!DOCTYPE svg PUBLIC "-//W3C//DTD SVG 1.1//EN" "http://www.w3.org/Graphics/SVG/1.1/DTD/svg11.dtd">
<svg xmlns="http://www.w3.org/2000/svg" xmlns:xlink="http://www.w3.org/1999/xlink" version="1.1" x="0" y="0" width="16" height="16" overflow="auto" preserveAspectRatio="xMidYMid" baseProfile="tiny" space="preserve">
  <path d="M1216 512 Q1349 512 1442.5 418.5 Q1536 325 1536 192 Q1536 59 1442.5 -34.5 Q1349 -128 1216 -128 Q1083 -128 989.5 -34.5 Q896 59 896 192 Q896 204 898 226 L538 406 Q446 320 320 320 Q187 320 93.5 413.5 Q0 507 0 640 Q0 773 93.5 866.5 Q187 960 320 960 Q446 960 538 874 L898 1054 Q896 1076 896 1088 Q896 1221 989.5 1314.5 Q1083 1408 1216 1408 Q1349 1408 1442.5 1314.5 Q1536 1221 1536 1088 Q1536 955 1442.5 861.5 Q1349 768 1216 768 Q1090 768 998 854 L638 674 Q640 652 640 640 Q640 628 638 606 L998 426 Q1090 512 1216 512 z" pathLength="0" fill="White" transform="translate(1.142857, 1.311302E-06) scale(0.008928572, -0.008928572) translate(0, -1536)" />
</svg>