<!DOCTYPE svg PUBLIC "-//W3C//DTD SVG 1.1//EN" "http://www.w3.org/Graphics/SVG/1.1/DTD/svg11.dtd">
<svg xmlns="http://www.w3.org/2000/svg" xmlns:xlink="http://www.w3.org/1999/xlink" version="1.1" x="0" y="0" width="16" height="16" overflow="auto" preserveAspectRatio="xMidYMid" baseProfile="tiny" space="preserve">
  <path d="M992 912 L992 416 Q992 402 983 393 Q974 384 960 384 L800 384 Q786 384 777 393 Q768 402 768 416 L768 912 Q768 1024 688 1104 Q608 1184 496 1184 L224 1184 L224 32 Q224 18 215 9 Q206 0 192 0 L32 0 Q18 0 9 9 Q0 18 0 32 L0 1376 Q0 1390 9 1399 Q18 1408 32 1408 L496 1408 Q631 1408 745 1341.5 Q859 1275 925.5 1161 Q992 1047 992 912 z M1376 1376 L1376 496 Q1376 361 1309.5 247 Q1243 133 1129 66.5 Q1015 0 880 0 L416 0 Q402 0 393 9 Q384 18 384 32 L384 992 Q384 1006 393 1015 Q402 1024 416 1024 L576 1024 Q590 1024 599 1015 Q608 1006 608 992 L608 224 L880 224 Q992 224 1072 304 Q1152 384 1152 496 L1152 1376 Q1152 1390 1161 1399 Q1170 1408 1184 1408 L1344 1408 Q1358 1408 1367 1399 Q1376 1390 1376 1376 z" pathLength="0" fill="White" transform="translate(1.857143, 0.5714296) scale(0.008928572, -0.008928572) translate(0, -1536)" />
</svg>