<!DOCTYPE svg PUBLIC "-//W3C//DTD SVG 1.1//EN" "http://www.w3.org/Graphics/SVG/1.1/DTD/svg11.dtd">
<svg xmlns="http://www.w3.org/2000/svg" xmlns:xlink="http://www.w3.org/1999/xlink" version="1.1" x="0" y="0" width="16" height="16" overflow="auto" preserveAspectRatio="xMidYMid" baseProfile="tiny" space="preserve">
  <path d="M1811 -19 Q1830 0 1856 0 Q1882 0 1901 -19 L2029 -147 L1939 -237 L1856 -154 L1773 -237 Q1755 -256 1728 -256 Q1701 -256 1683 -237 L1600 -154 L1517 -237 Q1498 -256 1472 -256 Q1446 -256 1427 -237 L1344 -154 L1261 -237 Q1242 -256 1216 -256 Q1190 -256 1171 -237 L1088 -154 L1005 -237 Q986 -256 960 -256 Q934 -256 915 -237 L832 -154 L749 -237 Q730 -256 704 -256 Q678 -256 659 -237 L576 -154 L493 -237 Q474 -256 448 -256 Q422 -256 403 -237 L320 -154 L237 -237 Q218 -256 192 -256 Q166 -256 147 -237 L19 -109 L109 -19 L192 -102 L275 -19 Q294 0 320 0 Q346 0 365 -19 L448 -102 L531 -19 Q550 0 576 0 Q602 0 621 -19 L704 -102 L787 -19 Q806 0 832 0 Q858 0 877 -19 L960 -102 L1043 -19 Q1062 0 1088 0 Q1114 0 1133 -19 L1216 -102 L1299 -19 Q1318 0 1344 0 Q1370 0 1389 -19 L1472 -102 L1555 -19 Q1574 0 1600 0 Q1626 0 1645 -19 L1728 -102 z M237 19 Q218 0 192 0 Q166 0 147 19 L19 147 L109 237 L192 155 L275 237 Q294 256 320 256 Q346 256 365 237 L448 155 L512 219 L512 512 L302 826 Q285 852 295 882.5 Q305 913 335 923 L512 981 L512 1280 L640 1280 L640 1408 L896 1408 L896 1536 L1152 1536 L1152 1408 L1408 1408 L1408 1280 L1536 1280 L1536 981 L1713 923 Q1743 913 1753 882.5 Q1763 852 1746 826 L1536 512 L1536 219 L1555 237 Q1574 256 1600 256 Q1626 256 1645 237 L1728 155 L1811 237 Q1830 256 1856 256 Q1882 256 1901 237 L2029 109 L1939 19 L1856 102 L1773 19 Q1755 0 1728 0 Q1701 0 1683 19 L1600 102 L1517 19 Q1498 0 1472 0 Q1446 0 1427 19 L1344 102 L1261 19 Q1242 0 1216 0 Q1190 0 1171 19 L1088 102 L1005 19 Q986 0 960 0 Q934 0 915 19 L832 102 L749 19 Q730 0 704 0 Q678 0 659 19 L576 102 L493 19 Q474 0 448 0 Q422 0 403 19 L320 102 z M640 1152 L640 1024 L1024 1152 L1408 1024 L1408 1152 L1280 1152 L1280 1280 L768 1280 L768 1152 L640 1152 z" pathLength="0" fill="White" transform="translate(-1.142856, 9.536743E-07) scale(0.008928572, -0.008928572) translate(0, -1536)" />
</svg>