<!DOCTYPE svg PUBLIC "-//W3C//DTD SVG 1.1//EN" "http://www.w3.org/Graphics/SVG/1.1/DTD/svg11.dtd">
<svg xmlns="http://www.w3.org/2000/svg" xmlns:xlink="http://www.w3.org/1999/xlink" version="1.1" x="0" y="0" width="16" height="16" overflow="auto" preserveAspectRatio="xMidYMid" baseProfile="tiny" space="preserve">
  <path d="M0 1536 L1536 1536 L1536 144 L760 -194 L0 144 L0 1536 z M1436 209 L1436 1135 L100 1135 L100 209 L761 -85 z M1436 1235 L1436 1436 L100 1436 L100 1235 L1436 1235 z M181 937 L181 822 L144 822 L144 937 L181 937 z M181 789 L181 674 L144 674 L144 789 L181 789 z M181 641 L181 526 L144 526 L144 641 L181 641 z M181 493 L181 378 L144 378 L144 493 L181 493 z M181 345 L181 230 L144 230 L144 345 L181 345 z M207 202 L222 236 L327 189 L312 156 z M343 142 L358 176 L463 130 L448 96 z M478 82 L493 116 L598 70 L583 36 z M614 23 L629 56 L733 10 L718 -24 z M797 10 L902 56 L917 23 L812 -24 z M932 70 L1037 116 L1052 82 L947 36 z M1068 130 L1173 176 L1188 142 L1083 96 z M1203 189 L1308 236 L1323 202 L1218 156 z M259 1389 L259 1353 L145 1353 L145 1389 L259 1389 z M421 1389 L421 1353 L306 1353 L306 1389 L421 1389 z M583 1389 L583 1353 L468 1353 L468 1389 L583 1389 z M744 1389 L744 1353 L630 1353 L630 1389 L744 1389 z M906 1389 L906 1353 L792 1353 L792 1389 L906 1389 z M1068 1389 L1068 1353 L953 1353 L953 1389 L1068 1389 z M1230 1389 L1230 1353 L1115 1353 L1115 1389 L1230 1389 z M1391 1389 L1391 1353 L1277 1353 L1277 1389 L1391 1389 z M181 1049 L181 970 L144 970 L144 1085 L259 1085 L259 1049 L181 1049 z M421 1085 L421 1049 L306 1049 L306 1085 L421 1085 z M583 1085 L583 1049 L468 1049 L468 1085 L583 1085 z M744 1085 L744 1049 L630 1049 L630 1085 L744 1085 z M906 1085 L906 1049 L792 1049 L792 1085 L906 1085 z M1068 1085 L1068 1049 L953 1049 L953 1085 L1068 1085 z M1230 1085 L1230 1049 L1115 1049 L1115 1085 L1230 1085 z M1355 970 L1355 1049 L1277 1049 L1277 1085 L1392 1085 L1392 970 L1355 970 z M1355 822 L1355 937 L1392 937 L1392 822 L1355 822 z M1355 674 L1355 789 L1392 789 L1392 674 L1355 674 z M1355 526 L1355 641 L1392 641 L1392 526 L1355 526 z M1355 378 L1355 493 L1392 493 L1392 378 L1355 378 z M1355 230 L1355 345 L1392 345 L1392 230 L1355 230 z M760 265 Q631 265 539 356.5 Q447 448 447 578 Q447 707 539 799 Q631 891 760 891 Q890 891 981.5 799 Q1073 707 1073 578 Q1073 448 981.5 356.5 Q890 265 760 265 z M595 646 Q595 610 614.5 589.5 Q634 569 664 564.5 Q694 560 728 557.5 Q762 555 792 555.5 Q822 556 841.5 546.5 Q861 537 861 516 Q861 467 749 467 Q652 467 626 518 L623 518 L592 455 Q659 413 754 413 Q783 413 810.5 418 Q838 423 866 434 Q894 445 911.5 467 Q929 489 929 520 Q929 566 901.5 589.5 Q874 613 834 616.5 Q794 620 754.5 619.5 Q715 619 687.5 624.5 Q660 630 660 650 Q660 671 680.5 683 Q701 695 721 698 Q741 701 762 701 Q796 701 832.5 690 Q869 679 884 656 L887 656 L917 714 Q914 715 896 722.5 Q878 730 873.5 731.5 Q869 733 854 738.5 Q839 744 832 745.5 Q825 747 812 750 Q799 753 788 754 Q777 755 765 755 Q736 755 708.5 750 Q681 745 654.5 733.5 Q628 722 611.5 699.5 Q595 677 595 646 z" pathLength="0" fill="White" transform="translate(1.142857, 0.2767868) scale(0.008928572, -0.008928572) translate(0, -1536)" />
</svg>