<!DOCTYPE svg PUBLIC "-//W3C//DTD SVG 1.1//EN" "http://www.w3.org/Graphics/SVG/1.1/DTD/svg11.dtd">
<svg xmlns="http://www.w3.org/2000/svg" xmlns:xlink="http://www.w3.org/1999/xlink" version="1.1" x="0" y="0" width="16" height="16" overflow="auto" preserveAspectRatio="xMidYMid" baseProfile="tiny" space="preserve">
  <path d="M640 0 Q640 -52 602 -90 Q564 -128 512 -128 Q460 -128 422 -90 Q384 -52 384 0 Q384 52 422 90 Q460 128 512 128 Q564 128 602 90 Q640 52 640 0 z M1536 0 Q1536 -52 1498 -90 Q1460 -128 1408 -128 Q1356 -128 1318 -90 Q1280 -52 1280 0 Q1280 52 1318 90 Q1356 128 1408 128 Q1460 128 1498 90 Q1536 52 1536 0 z M1664 1088 L1664 576 Q1664 552 1647.5 533.5 Q1631 515 1607 512 L563 390 Q576 330 576 320 Q576 304 552 256 L1472 256 Q1498 256 1517 237 Q1536 218 1536 192 Q1536 166 1517 147 Q1498 128 1472 128 L448 128 Q422 128 403 147 Q384 166 384 192 Q384 203 392 223.5 Q400 244 408 259.5 Q416 275 429.5 299.5 Q443 324 445 329 L268 1152 L64 1152 Q38 1152 19 1171 Q0 1190 0 1216 Q0 1242 19 1261 Q38 1280 64 1280 L320 1280 Q336 1280 348.5 1273.5 Q361 1267 368 1258 Q375 1249 381 1233.5 Q387 1218 389 1207.5 Q391 1197 394.5 1178 Q398 1159 399 1152 L1600 1152 Q1626 1152 1645 1133 Q1664 1114 1664 1088 z" pathLength="0" fill="White" transform="translate(0.5714283, -0.5714276) scale(0.008928572, -0.008928572) translate(0, -1536)" />
</svg>