<!DOCTYPE svg PUBLIC "-//W3C//DTD SVG 1.1//EN" "http://www.w3.org/Graphics/SVG/1.1/DTD/svg11.dtd">
<svg xmlns="http://www.w3.org/2000/svg" xmlns:xlink="http://www.w3.org/1999/xlink" version="1.1" x="0" y="0" width="16" height="16" overflow="auto" preserveAspectRatio="xMidYMid" baseProfile="tiny" space="preserve">
  <path d="M256 96 L256 -96 Q256 -110 247 -119 Q238 -128 224 -128 L32 -128 Q18 -128 9 -119 Q0 -110 0 -96 L0 96 Q0 110 9 119 Q18 128 32 128 L224 128 Q238 128 247 119 Q256 110 256 96 z M640 224 L640 -96 Q640 -110 631 -119 Q622 -128 608 -128 L416 -128 Q402 -128 393 -119 Q384 -110 384 -96 L384 224 Q384 238 393 247 Q402 256 416 256 L608 256 Q622 256 631 247 Q640 238 640 224 z M1024 480 L1024 -96 Q1024 -110 1015 -119 Q1006 -128 992 -128 L800 -128 Q786 -128 777 -119 Q768 -110 768 -96 L768 480 Q768 494 777 503 Q786 512 800 512 L992 512 Q1006 512 1015 503 Q1024 494 1024 480 z M1408 864 L1408 -96 Q1408 -110 1399 -119 Q1390 -128 1376 -128 L1184 -128 Q1170 -128 1161 -119 Q1152 -110 1152 -96 L1152 864 Q1152 878 1161 887 Q1170 896 1184 896 L1376 896 Q1390 896 1399 887 Q1408 878 1408 864 z M1792 1376 L1792 -96 Q1792 -110 1783 -119 Q1774 -128 1760 -128 L1568 -128 Q1554 -128 1545 -119 Q1536 -110 1536 -96 L1536 1376 Q1536 1390 1545 1399 Q1554 1408 1568 1408 L1760 1408 Q1774 1408 1783 1399 Q1792 1390 1792 1376 z" pathLength="0" fill="White" transform="translate(0, 1.311302E-06) scale(0.008928572, -0.008928572) translate(0, -1536)" />
</svg>