<!DOCTYPE svg PUBLIC "-//W3C//DTD SVG 1.1//EN" "http://www.w3.org/Graphics/SVG/1.1/DTD/svg11.dtd">
<svg xmlns="http://www.w3.org/2000/svg" xmlns:xlink="http://www.w3.org/1999/xlink" version="1.1" x="0" y="0" width="16" height="16" overflow="auto" preserveAspectRatio="xMidYMid" baseProfile="tiny" space="preserve">
  <path d="M640 96 Q640 92 641 76 Q642 60 641.5 49.5 Q641 39 638.5 26 Q636 13 628.5 6.5 Q621 0 608 0 L288 0 Q169 0 84.5 84.5 Q0 169 0 288 L0 992 Q0 1111 84.5 1195.5 Q169 1280 288 1280 L608 1280 Q621 1280 630.5 1270.5 Q640 1261 640 1248 Q640 1244 641 1228 Q642 1212 641.5 1201.5 Q641 1191 638.5 1178 Q636 1165 628.5 1158.5 Q621 1152 608 1152 L288 1152 Q222 1152 175 1105 Q128 1058 128 992 L128 288 Q128 222 175 175 Q222 128 288 128 L576 128 L587 128 L600 128 Q600 128 611.5 127 Q623 126 623 124 Q623 122 631 118.5 Q639 115 638 109.5 Q637 104 640 96 z M1568 640 Q1568 614 1549 595 L1005 51 Q986 32 960 32 Q934 32 915 51 Q896 70 896 96 L896 384 L448 384 Q422 384 403 403 Q384 422 384 448 L384 832 Q384 858 403 877 Q422 896 448 896 L896 896 L896 1184 Q896 1210 915 1229 Q934 1248 960 1248 Q986 1248 1005 1229 L1549 685 Q1568 666 1568 640 z" pathLength="0" fill="White" transform="translate(1, 7.152557E-07) scale(0.008928572, -0.008928572) translate(0, -1536)" />
</svg>