<!DOCTYPE svg PUBLIC "-//W3C//DTD SVG 1.1//EN" "http://www.w3.org/Graphics/SVG/1.1/DTD/svg11.dtd">
<svg xmlns="http://www.w3.org/2000/svg" xmlns:xlink="http://www.w3.org/1999/xlink" version="1.1" x="0" y="0" width="16" height="16" overflow="auto" preserveAspectRatio="xMidYMid" baseProfile="tiny" space="preserve">
  <path d="M1184 640 Q1184 614 1165 595 L621 51 Q602 32 576 32 Q550 32 531 51 Q512 70 512 96 L512 384 L64 384 Q38 384 19 403 Q0 422 0 448 L0 832 Q0 858 19 877 Q38 896 64 896 L512 896 L512 1184 Q512 1210 531 1229 Q550 1248 576 1248 Q602 1248 621 1229 L1165 685 Q1184 666 1184 640 z M1536 992 L1536 288 Q1536 169 1451.5 84.5 Q1367 0 1248 0 L928 0 Q915 0 905.5 9.5 Q896 19 896 32 Q896 36 895 52 Q894 68 894.5 78.5 Q895 89 897.5 102 Q900 115 907.5 121.5 Q915 128 928 128 L1248 128 Q1314 128 1361 175 Q1408 222 1408 288 L1408 992 Q1408 1058 1361 1105 Q1314 1152 1248 1152 L960 1152 L949 1152 L936 1152 Q936 1152 924.5 1153 Q913 1154 913 1156 Q913 1158 905 1161.5 Q897 1165 898 1170.5 Q899 1176 896 1184 Q896 1188 895 1204 Q894 1220 894.5 1230.5 Q895 1241 897.5 1254 Q900 1267 907.5 1273.5 Q915 1280 928 1280 L1248 1280 Q1367 1280 1451.5 1195.5 Q1536 1111 1536 992 z" pathLength="0" fill="White" transform="translate(1.142857, 7.152557E-07) scale(0.008928572, -0.008928572) translate(0, -1536)" />
</svg>