<!DOCTYPE svg PUBLIC "-//W3C//DTD SVG 1.1//EN" "http://www.w3.org/Graphics/SVG/1.1/DTD/svg11.dtd">
<svg xmlns="http://www.w3.org/2000/svg" xmlns:xlink="http://www.w3.org/1999/xlink" version="1.1" x="0" y="0" width="16" height="16" overflow="auto" preserveAspectRatio="xMidYMid" baseProfile="tiny" space="preserve">
  <path d="M863 504 Q863 616 783.5 695.5 Q704 775 592 775 Q480 775 401 695.5 Q322 616 322 504 Q322 392 401 313 Q480 234 592 234 Q704 234 783.5 313 Q863 392 863 504 z M1726 505 Q1726 617 1647 696 Q1568 775 1456 775 Q1344 775 1264.5 696 Q1185 617 1185 505 Q1185 392 1264.5 313 Q1344 234 1456 234 Q1568 234 1647 313.5 Q1726 393 1726 505 z M2048 1314 L2048 -34 Q2048 -78 2016.5 -109.5 Q1985 -141 1940 -141 L108 -141 Q63 -141 31.5 -109.5 Q0 -78 0 -34 L0 1314 Q0 1358 31.5 1389.5 Q63 1421 108 1421 L539 1421 Q583 1421 615 1389.5 Q647 1358 647 1314 L647 1153 L1401 1153 L1401 1314 Q1401 1358 1433 1389.5 Q1465 1421 1509 1421 L1940 1421 Q1985 1421 2016.5 1389.5 Q2048 1358 2048 1314 z" pathLength="0" fill="White" transform="translate(-1.142858, 1.072884E-06) scale(0.008928572, -0.008928572) translate(0, -1536)" />
</svg>