<!DOCTYPE svg PUBLIC "-//W3C//DTD SVG 1.1//EN" "http://www.w3.org/Graphics/SVG/1.1/DTD/svg11.dtd">
<svg xmlns="http://www.w3.org/2000/svg" xmlns:xlink="http://www.w3.org/1999/xlink" version="1.1" x="0" y="0" width="16" height="16" overflow="auto" preserveAspectRatio="xMidYMid" baseProfile="tiny" space="preserve">
  <path d="M1430 953 z M1690 749 Q1838 749 1943 650.5 Q2048 552 2048 406 Q2048 249 1939 144.5 Q1830 40 1672 40 Q1587 40 1510 67.5 Q1433 95 1372 141 Q1311 187 1254 247 Q1197 307 1145 373.5 Q1093 440 1041.5 506 Q990 572 933 632 Q876 692 816 738 Q756 784 680 811.5 Q604 839 521 839 Q367 839 269.5 747.5 Q172 656 172 503 Q172 346 276 253 Q380 160 539 160 Q639 160 747 197.5 Q855 235 940 296 Q945 300 961 314.5 Q977 329 991 338.5 Q1005 348 1013 348 Q1027 348 1037.5 337.5 Q1048 327 1048 313 Q1048 289 988 236 Q887 148 753.5 94 Q620 40 493 40 Q360 40 247.5 98 Q135 156 67.5 263 Q0 370 0 504 Q0 709 141.5 845 Q283 981 489 981 Q609 981 715.5 937.5 Q822 894 901 824.5 Q980 755 1052.5 671.5 Q1125 588 1191.5 504 Q1258 420 1325 350.5 Q1392 281 1474.5 237.5 Q1557 194 1647 194 Q1749 194 1815.5 255.5 Q1882 317 1882 418 Q1882 513 1817.5 577 Q1753 641 1658 641 Q1628 641 1576.5 622.5 Q1525 604 1508 604 Q1488 604 1472.5 619 Q1457 634 1457 654 Q1457 672 1465.5 711 Q1474 750 1474 770 Q1474 929 1366.5 1033 Q1259 1137 1100 1137 Q1042 1137 988.5 1118.5 Q935 1100 904.5 1078 Q874 1056 849 1037.5 Q824 1019 816 1019 Q801 1019 790.5 1029.5 Q780 1040 780 1055 Q780 1074 805 1101 Q864 1168 952 1204.5 Q1040 1241 1134 1241 Q1325 1241 1452 1115.5 Q1579 990 1579 800 Q1579 763 1575 734 Q1632 749 1690 749 z" pathLength="0" fill="White" transform="translate(-1.142858, 0.004465342) scale(0.008928572, -0.008928572) translate(0, -1536)" />
</svg>