<!DOCTYPE svg PUBLIC "-//W3C//DTD SVG 1.1//EN" "http://www.w3.org/Graphics/SVG/1.1/DTD/svg11.dtd">
<svg xmlns="http://www.w3.org/2000/svg" xmlns:xlink="http://www.w3.org/1999/xlink" version="1.1" x="0" y="0" width="16" height="16" overflow="auto" preserveAspectRatio="xMidYMid" baseProfile="tiny" space="preserve">
  <path d="M1173 473 Q1173 523 1153.5 564.5 Q1134 606 1105 633 Q1076 660 1032 682 Q988 704 949.5 716 Q911 728 862 739 L758 763 Q728 770 714 773.5 Q700 777 679 785 Q658 793 649 801 Q640 809 632.5 822 Q625 835 625 852 Q625 929 769 929 Q812 929 846 917 Q880 905 900 888.5 Q920 872 938 855 Q956 838 978 826 Q1000 814 1026 814 Q1073 814 1101.5 846 Q1130 878 1130 923 Q1130 978 1074 1022.5 Q1018 1067 932 1090 Q846 1113 750 1113 Q682 1113 618 1097.5 Q554 1082 498.5 1050.5 Q443 1019 409.5 963.5 Q376 908 376 835 Q376 774 395 728.5 Q414 683 451 653 Q488 623 531 604.5 Q574 586 634 572 L780 536 Q870 514 892 500 Q924 480 924 440 Q924 401 884 375.5 Q844 350 779 350 Q728 350 687.5 366 Q647 382 622.5 404.5 Q598 427 577 449.5 Q556 472 531 488 Q506 504 477 504 Q427 504 401.5 474 Q376 444 376 399 Q376 307 498 241.5 Q620 176 789 176 Q862 176 929 194.5 Q996 213 1051.5 248 Q1107 283 1140 341.5 Q1173 400 1173 473 z M1536 256 Q1536 97 1423.5 -15.5 Q1311 -128 1152 -128 Q1022 -128 918 -48 Q841 -64 768 -64 Q625 -64 494.5 -8.5 Q364 47 269.5 141.5 Q175 236 119.5 366.5 Q64 497 64 640 Q64 713 80 790 Q0 894 0 1024 Q0 1183 112.5 1295.5 Q225 1408 384 1408 Q514 1408 618 1328 Q695 1344 768 1344 Q911 1344 1041.5 1288.5 Q1172 1233 1266.5 1138.5 Q1361 1044 1416.5 913.5 Q1472 783 1472 640 Q1472 567 1456 490 Q1536 386 1536 256 z" pathLength="0" fill="White" transform="translate(1.142857, 1.311302E-06) scale(0.008928572, -0.008928572) translate(0, -1536)" />
</svg>