<!DOCTYPE svg PUBLIC "-//W3C//DTD SVG 1.1//EN" "http://www.w3.org/Graphics/SVG/1.1/DTD/svg11.dtd">
<svg xmlns="http://www.w3.org/2000/svg" xmlns:xlink="http://www.w3.org/1999/xlink" version="1.1" x="0" y="0" width="16" height="16" overflow="auto" preserveAspectRatio="xMidYMid" baseProfile="tiny" space="preserve">
  <path d="M1519 760 Q1581 760 1622.5 719.5 Q1664 679 1664 618 Q1664 521 1571 488 L1399 429 L1455 262 Q1462 241 1462 215 Q1462 156 1420 113 Q1378 70 1319 70 Q1272 70 1233.5 97 Q1195 124 1180 169 L1125 334 L815 228 L870 64 Q878 40 878 17 Q878 -42 836 -85 Q794 -128 734 -128 Q687 -128 649 -101 Q611 -74 596 -29 L541 134 L388 81 Q359 72 338 72 Q277 72 236.5 112 Q196 152 196 213 Q196 260 223.5 298 Q251 336 295 351 L451 404 L346 717 L190 663 Q164 655 142 655 Q82 655 41 695.5 Q0 736 0 796 Q0 843 27.5 881 Q55 919 99 934 L256 987 L203 1146 Q195 1170 195 1193 Q195 1253 237 1295.5 Q279 1338 339 1338 Q386 1338 424 1311 Q462 1284 477 1239 L531 1079 L841 1184 L787 1344 Q779 1368 779 1391 Q779 1450 821.5 1493 Q864 1536 923 1536 Q970 1536 1008.5 1508.5 Q1047 1481 1062 1437 L1115 1276 L1277 1331 Q1298 1337 1320 1337 Q1380 1337 1422.5 1297.5 Q1465 1258 1465 1199 Q1465 1154 1435 1117.5 Q1405 1081 1361 1066 L1204 1012 L1309 696 L1473 752 Q1497 760 1519 760 z M725 498 L1035 603 L930 918 L620 811 z" pathLength="0" fill="White" transform="translate(0.5714283, 0.5714297) scale(0.008928572, -0.008928572) translate(0, -1536)" />
</svg>