<!DOCTYPE svg PUBLIC "-//W3C//DTD SVG 1.1//EN" "http://www.w3.org/Graphics/SVG/1.1/DTD/svg11.dtd">
<svg xmlns="http://www.w3.org/2000/svg" xmlns:xlink="http://www.w3.org/1999/xlink" version="1.1" x="0" y="0" width="16" height="16" overflow="auto" preserveAspectRatio="xMidYMid" baseProfile="tiny" space="preserve">
  <path d="M873 796 Q873 713 809.5 653.5 Q746 594 657 594 Q568 594 504.5 653.5 Q441 713 441 796 Q441 880 504.5 939 Q568 998 657 998 Q746 998 809.5 939 Q873 880 873 796 z M1375 796 Q1375 713 1312 653.5 Q1249 594 1159 594 Q1070 594 1006.5 653.5 Q943 713 943 796 Q943 880 1006.5 939 Q1070 998 1159 998 Q1249 998 1312 939 Q1375 880 1375 796 z M1600 616 L1600 1283 Q1600 1370 1568 1406.5 Q1536 1443 1457 1443 L345 1443 Q262 1443 232.5 1409 Q203 1375 203 1283 L203 610 Q246 587 291.5 570 Q337 553 372.5 542 Q408 531 453.5 523.5 Q499 516 524.5 512.5 Q550 509 594.5 508.5 Q639 508 653 508 Q667 508 709.5 510 Q752 512 754 512 Q822 513 849 485 Q855 479 859 476 Q885 451 920 425 Q927 516 1038 512 Q1043 512 1074.5 510.5 Q1106 509 1117.5 508.5 Q1129 508 1163 507.5 Q1197 507 1216 508.5 Q1235 510 1270.5 513 Q1306 516 1331.5 521.5 Q1357 527 1393.5 535 Q1430 543 1460.5 554.5 Q1491 566 1528 581.5 Q1565 597 1600 616 z M1763 621 Q1642 472 1391 369 Q1475 84 1368 -96 Q1302 -209 1185 -244 Q1081 -276 1003 -229 Q917 -178 921 -65 L920 261 L920 262 Q912 264 895.5 268 Q879 272 872 273 L871 -65 Q875 -179 788 -229 Q709 -276 605 -244 Q488 -208 423 -94 Q318 86 401 369 Q150 472 29 621 Q4 658 25 684 Q46 710 85 683 Q88 681 96 676 Q104 671 107 668 L107 1362 Q107 1434 154 1485 Q201 1536 268 1536 L1525 1536 Q1592 1536 1639 1485 Q1686 1434 1686 1362 L1686 668 L1707 683 Q1746 710 1767 684 Q1788 658 1763 621 z" pathLength="0" fill="White" transform="translate(8.195639E-07, -0.0416646) scale(0.008928572, -0.008928572) translate(0, -1536)" />
</svg>