<!DOCTYPE svg PUBLIC "-//W3C//DTD SVG 1.1//EN" "http://www.w3.org/Graphics/SVG/1.1/DTD/svg11.dtd">
<svg xmlns="http://www.w3.org/2000/svg" xmlns:xlink="http://www.w3.org/1999/xlink" version="1.1" x="0" y="0" width="16" height="16" overflow="auto" preserveAspectRatio="xMidYMid" baseProfile="tiny" space="preserve">
  <path d="M352 128 L352 0 L0 0 L0 128 L352 128 z M704 256 Q730 256 749 237 Q768 218 768 192 L768 -64 Q768 -90 749 -109 Q730 -128 704 -128 L448 -128 Q422 -128 403 -109 Q384 -90 384 -64 L384 192 Q384 218 403 237 Q422 256 448 256 L704 256 z M864 640 L864 512 L0 512 L0 640 L864 640 z M224 1152 L224 1024 L0 1024 L0 1152 L224 1152 z M1536 128 L1536 0 L800 0 L800 128 L1536 128 z M576 1280 Q602 1280 621 1261 Q640 1242 640 1216 L640 960 Q640 934 621 915 Q602 896 576 896 L320 896 Q294 896 275 915 Q256 934 256 960 L256 1216 Q256 1242 275 1261 Q294 1280 320 1280 L576 1280 z M1216 768 Q1242 768 1261 749 Q1280 730 1280 704 L1280 448 Q1280 422 1261 403 Q1242 384 1216 384 L960 384 Q934 384 915 403 Q896 422 896 448 L896 704 Q896 730 915 749 Q934 768 960 768 L1216 768 z M1536 640 L1536 512 L1312 512 L1312 640 L1536 640 z M1536 1152 L1536 1024 L672 1024 L672 1152 L1536 1152 z" pathLength="0" fill="White" transform="translate(1.142857, -0.5714276) scale(0.008928572, -0.008928572) translate(0, -1536)" />
</svg>