<!DOCTYPE svg PUBLIC "-//W3C//DTD SVG 1.1//EN" "http://www.w3.org/Graphics/SVG/1.1/DTD/svg11.dtd">
<svg xmlns="http://www.w3.org/2000/svg" xmlns:xlink="http://www.w3.org/1999/xlink" version="1.1" x="0" y="0" width="16" height="16" overflow="auto" preserveAspectRatio="xMidYMid" baseProfile="tiny" space="preserve">
  <path d="M609 720 L896 928 L1183 720 L1074 384 L719 384 z M896 1536 Q1078 1536 1244 1465 Q1410 1394 1530 1274 Q1650 1154 1721 988 Q1792 822 1792 640 Q1792 458 1721 292 Q1650 126 1530 6 Q1410 -114 1244 -185 Q1078 -256 896 -256 Q714 -256 548 -185 Q382 -114 262 6 Q142 126 71 292 Q0 458 0 640 Q0 822 71 988 Q142 1154 262 1274 Q382 1394 548 1465 Q714 1536 896 1536 z M1515 186 Q1664 389 1664 640 L1664 643 L1562 554 L1322 778 L1385 1101 L1519 1089 Q1369 1295 1130 1371 L1183 1247 L896 1088 L609 1247 L662 1371 Q423 1295 273 1089 L408 1101 L470 778 L230 554 L128 643 L128 640 Q128 389 277 186 L307 318 L633 278 L772 -20 L656 -89 Q773 -128 896 -128 Q1019 -128 1136 -89 L1020 -20 L1159 278 L1485 318 z" pathLength="0" fill="White" transform="translate(0, 9.536743E-07) scale(0.008928572, -0.008928572) translate(0, -1536)" />
</svg>