<!DOCTYPE svg PUBLIC "-//W3C//DTD SVG 1.1//EN" "http://www.w3.org/Graphics/SVG/1.1/DTD/svg11.dtd">
<svg xmlns="http://www.w3.org/2000/svg" xmlns:xlink="http://www.w3.org/1999/xlink" version="1.1" x="0" y="0" width="16" height="16" overflow="auto" preserveAspectRatio="xMidYMid" baseProfile="tiny" space="preserve">
  <path d="M1216 -32 L1216 -224 Q1216 -238 1207 -247 Q1198 -256 1184 -256 L928 -256 Q914 -256 905 -247 Q896 -238 896 -224 L896 -32 Q896 -18 905 -9 Q914 0 928 0 L1184 0 Q1198 0 1207 -9 Q1216 -18 1216 -32 z M736 96 Q736 84 726 72 L407 -247 Q397 -256 384 -256 Q372 -256 361 -247 L41 73 Q26 89 34 108 Q42 128 64 128 L256 128 L256 1504 Q256 1518 265 1527 Q274 1536 288 1536 L480 1536 Q494 1536 503 1527 Q512 1518 512 1504 L512 128 L704 128 Q718 128 727 119 Q736 110 736 96 z M1408 480 L1408 288 Q1408 274 1399 265 Q1390 256 1376 256 L928 256 Q914 256 905 265 Q896 274 896 288 L896 480 Q896 494 905 503 Q914 512 928 512 L1376 512 Q1390 512 1399 503 Q1408 494 1408 480 z M1600 992 L1600 800 Q1600 786 1591 777 Q1582 768 1568 768 L928 768 Q914 768 905 777 Q896 786 896 800 L896 992 Q896 1006 905 1015 Q914 1024 928 1024 L1568 1024 Q1582 1024 1591 1015 Q1600 1006 1600 992 z M1792 1504 L1792 1312 Q1792 1298 1783 1289 Q1774 1280 1760 1280 L928 1280 Q914 1280 905 1289 Q896 1298 896 1312 L896 1504 Q896 1518 905 1527 Q914 1536 928 1536 L1760 1536 Q1774 1536 1783 1527 Q1792 1518 1792 1504 z" pathLength="0" fill="White" transform="translate(-0.1279755, 9.536743E-07) scale(0.008928572, -0.008928572) translate(0, -1536)" />
</svg>