<!DOCTYPE svg PUBLIC "-//W3C//DTD SVG 1.1//EN" "http://www.w3.org/Graphics/SVG/1.1/DTD/svg11.dtd">
<svg xmlns="http://www.w3.org/2000/svg" xmlns:xlink="http://www.w3.org/1999/xlink" version="1.1" x="0" y="0" width="16" height="16" overflow="auto" preserveAspectRatio="xMidYMid" baseProfile="tiny" space="preserve">
  <path d="M1346 223 Q1346 286 1302 339 Q1258 392 1199 392 Q1147 392 1116 355 Q1085 318 1085 261 Q1085 204 1121.5 166 Q1158 128 1226 128 Q1276 128 1311 155 Q1346 182 1346 223 z M736 96 Q736 84 726 72 L407 -247 Q397 -256 384 -256 Q372 -256 361 -247 L41 73 Q26 89 34 108 Q42 128 64 128 L256 128 L256 1504 Q256 1518 265 1527 Q274 1536 288 1536 L480 1536 Q494 1536 503 1527 Q512 1518 512 1504 L512 128 L704 128 Q718 128 727 119 Q736 110 736 96 z M1486 165 Q1486 103 1473 43.5 Q1460 -16 1432 -70.5 Q1404 -125 1364 -166 Q1324 -207 1265.5 -231.5 Q1207 -256 1138 -256 Q1076 -256 1030 -240 Q1006 -232 988 -225 L1027 -112 Q1042 -119 1058 -123 Q1095 -136 1133 -136 Q1217 -136 1267.5 -77.5 Q1318 -19 1334 68 L1332 68 Q1311 45 1270.5 31 Q1230 17 1186 17 Q1080 17 1013 88.5 Q946 160 946 261 Q946 366 1018 439 Q1090 512 1199 512 Q1322 512 1404 417.5 Q1486 323 1486 165 z M1456 882 L1456 768 L987 768 L987 882 L1154 882 L1154 1314 Q1154 1321 1154.5 1333 Q1155 1345 1155 1350 L1155 1366 L1153 1366 L1146 1354 Q1138 1341 1120 1323 L1058 1265 L976 1351 L1168 1536 L1291 1536 L1291 882 L1456 882 z" pathLength="0" fill="White" transform="translate(1.238096, 9.536743E-07) scale(0.008928572, -0.008928572) translate(0, -1536)" />
</svg>