<!DOCTYPE svg PUBLIC "-//W3C//DTD SVG 1.1//EN" "http://www.w3.org/Graphics/SVG/1.1/DTD/svg11.dtd">
<svg xmlns="http://www.w3.org/2000/svg" xmlns:xlink="http://www.w3.org/1999/xlink" version="1.1" x="0" y="0" width="16" height="16" overflow="auto" preserveAspectRatio="xMidYMid" baseProfile="tiny" space="preserve">
  <path d="M1191 1128 L1368 1128 L1296 1346 L1284 1393 Q1282 1409 1282 1413 L1278 1413 L1275 1393 Q1275 1392 1271.5 1375 Q1268 1358 1264 1346 z M736 96 Q736 84 726 72 L407 -247 Q397 -256 384 -256 Q372 -256 361 -247 L41 73 Q26 89 34 108 Q42 128 64 128 L256 128 L256 1504 Q256 1518 265 1527 Q274 1536 288 1536 L480 1536 Q494 1536 503 1527 Q512 1518 512 1504 L512 128 L704 128 Q718 128 727 119 Q736 110 736 96 z M1572 -23 L1572 -256 L988 -256 L988 -166 L1357 363 Q1369 381 1378 390 L1389 399 L1389 402 Q1387 402 1382.5 401.5 Q1378 401 1375 401 Q1363 398 1345 398 L1113 398 L1113 283 L993 283 L993 512 L1560 512 L1560 423 L1191 -107 Q1185 -115 1170 -133 L1159 -144 L1159 -146 L1173 -144 Q1182 -142 1203 -142 L1451 -142 L1451 -23 L1572 -23 z M1661 874 L1661 768 L1373 768 L1373 874 L1448 874 L1401 1018 L1158 1018 L1111 874 L1186 874 L1186 768 L899 768 L899 874 L969 874 L1199 1536 L1361 1536 L1591 874 L1661 874 z" pathLength="0" fill="White" transform="translate(0.4568458, 9.536743E-07) scale(0.008928572, -0.008928572) translate(0, -1536)" />
</svg>