<!DOCTYPE svg PUBLIC "-//W3C//DTD SVG 1.1//EN" "http://www.w3.org/Graphics/SVG/1.1/DTD/svg11.dtd">
<svg xmlns="http://www.w3.org/2000/svg" xmlns:xlink="http://www.w3.org/1999/xlink" version="1.1" x="0" y="0" width="16" height="16" overflow="auto" preserveAspectRatio="xMidYMid" baseProfile="tiny" space="preserve">
  <path d="M1346 1247 Q1346 1310 1302 1363 Q1258 1416 1199 1416 Q1147 1416 1116 1379 Q1085 1342 1085 1285 Q1085 1228 1121.5 1190 Q1158 1152 1226 1152 Q1276 1152 1311 1179 Q1346 1206 1346 1247 z M736 96 Q736 84 726 72 L407 -247 Q397 -256 384 -256 Q372 -256 361 -247 L41 73 Q26 89 34 108 Q42 128 64 128 L256 128 L256 1504 Q256 1518 265 1527 Q274 1536 288 1536 L480 1536 Q494 1536 503 1527 Q512 1518 512 1504 L512 128 L704 128 Q718 128 727 119 Q736 110 736 96 z M1456 -142 L1456 -256 L987 -256 L987 -142 L1154 -142 L1154 290 Q1154 297 1154.5 309 Q1155 321 1155 326 L1155 342 L1153 342 L1146 330 Q1138 317 1120 299 L1058 241 L976 327 L1168 512 L1291 512 L1291 -142 L1456 -142 z M1486 1189 Q1486 1127 1473 1067.5 Q1460 1008 1432 953.5 Q1404 899 1364 858 Q1324 817 1265.5 792.5 Q1207 768 1138 768 Q1076 768 1030 784 Q1006 792 988 799 L1027 912 Q1042 905 1058 901 Q1095 888 1133 888 Q1217 888 1267.5 946.5 Q1318 1005 1334 1092 L1332 1092 Q1311 1069 1270.5 1055 Q1230 1041 1186 1041 Q1080 1041 1013 1112.5 Q946 1184 946 1285 Q946 1390 1018 1463 Q1090 1536 1199 1536 Q1322 1536 1404 1441.5 Q1486 1347 1486 1189 z" pathLength="0" fill="White" transform="translate(1.238096, 9.536743E-07) scale(0.008928572, -0.008928572) translate(0, -1536)" />
</svg>