<!DOCTYPE svg PUBLIC "-//W3C//DTD SVG 1.1//EN" "http://www.w3.org/Graphics/SVG/1.1/DTD/svg11.dtd">
<svg xmlns="http://www.w3.org/2000/svg" xmlns:xlink="http://www.w3.org/1999/xlink" version="1.1" x="0" y="0" width="16" height="16" overflow="auto" preserveAspectRatio="xMidYMid" baseProfile="tiny" space="preserve">
  <path d="M1191 104 L1368 104 L1296 322 L1284 369 Q1282 385 1282 389 L1278 389 L1275 369 Q1275 368 1271.5 351 Q1268 334 1264 322 z M736 96 Q736 84 726 72 L407 -247 Q397 -256 384 -256 Q372 -256 361 -247 L41 73 Q26 89 34 108 Q42 128 64 128 L256 128 L256 1504 Q256 1518 265 1527 Q274 1536 288 1536 L480 1536 Q494 1536 503 1527 Q512 1518 512 1504 L512 128 L704 128 Q718 128 727 119 Q736 110 736 96 z M1661 -150 L1661 -256 L1373 -256 L1373 -150 L1448 -150 L1401 -6 L1158 -6 L1111 -150 L1186 -150 L1186 -256 L899 -256 L899 -150 L969 -150 L1199 512 L1361 512 L1591 -150 L1661 -150 z M1572 1001 L1572 768 L988 768 L988 858 L1357 1387 Q1369 1405 1378 1414 L1389 1423 L1389 1426 Q1387 1426 1382.5 1425.5 Q1378 1425 1375 1425 Q1363 1422 1345 1422 L1113 1422 L1113 1307 L993 1307 L993 1536 L1560 1536 L1560 1447 L1191 917 Q1185 909 1170 891 L1159 881 L1159 878 L1173 881 Q1182 882 1203 882 L1451 882 L1451 1001 L1572 1001 z" pathLength="0" fill="White" transform="translate(0.4568458, 9.536743E-07) scale(0.008928572, -0.008928572) translate(0, -1536)" />
</svg>