<!DOCTYPE svg PUBLIC "-//W3C//DTD SVG 1.1//EN" "http://www.w3.org/Graphics/SVG/1.1/DTD/svg11.dtd">
<svg xmlns="http://www.w3.org/2000/svg" xmlns:xlink="http://www.w3.org/1999/xlink" version="1.1" x="0" y="0" width="16" height="16" overflow="auto" preserveAspectRatio="xMidYMid" baseProfile="tiny" space="preserve">
  <path d="M784 164 L800 405 L784 928 Q783 938 776.5 945 Q770 952 760 952 Q751 952 744 945 Q737 938 737 928 L723 405 L737 164 Q738 154 744.5 147.5 Q751 141 760 141 Q782 141 784 164 z M1080 193 L1091 404 L1079 990 Q1079 1006 1066 1014 Q1058 1019 1050 1019 Q1042 1019 1034 1014 Q1021 1006 1021 990 L1020 984 L1010 405 Q1010 404 1021 169 L1021 168 Q1021 158 1027 151 Q1036 140 1050 140 Q1061 140 1070 149 Q1079 156 1079 169 z M35 533 L55 405 L35 279 Q33 270 26 270 Q19 270 17 279 L0 405 L17 533 Q19 542 26 542 Q33 542 35 533 z M121 612 L147 405 L121 202 Q119 193 111 193 Q102 193 102 203 L79 405 L102 612 Q102 621 111 621 Q119 621 121 612 z M401 159 z M213 650 L238 405 L213 168 Q213 157 202 157 Q192 157 190 168 L169 405 L190 650 Q192 662 202 662 Q213 662 213 650 z M307 657 L330 405 L307 161 Q305 148 293 148 Q280 148 280 161 L259 405 L280 657 Q280 670 293 670 Q305 670 307 657 z M401 639 L422 405 L401 159 Q399 143 385 143 Q379 143 374.5 147.5 Q370 152 370 159 L350 405 L370 639 Q370 645 374.5 649.5 Q379 654 385 654 Q399 654 401 639 z M784 164 z M495 785 L516 405 L495 159 Q495 152 490 146.5 Q485 141 478 141 Q462 141 460 159 L442 405 L460 785 Q462 803 478 803 Q485 803 490 797.5 Q495 792 495 785 z M589 871 L608 403 L589 159 Q589 151 583.5 145.5 Q578 140 570 140 Q552 140 550 159 L534 403 L550 871 Q552 890 570 890 Q578 890 583.5 884.5 Q589 879 589 871 z M687 911 L705 405 L687 163 Q685 142 665 142 Q646 142 644 163 L628 405 L644 911 Q644 920 650.5 926.5 Q657 933 665 933 Q674 933 680 926.5 Q686 920 687 911 z M1079 169 L1079 169 L1079 169 z M881 915 L896 405 L881 166 Q881 156 873.5 148.5 Q866 141 856 141 Q846 141 839 148 Q832 155 831 166 L817 405 L831 915 Q831 926 838.5 933 Q846 940 856 940 Q866 940 873.5 933 Q881 926 881 915 z M980 896 L994 404 L980 168 Q980 157 972 149 Q964 141 953 141 Q942 141 934 149 Q926 157 925 168 L913 404 L925 896 Q926 908 934 916 Q942 924 953 924 Q964 924 971.5 916 Q979 908 980 896 z M1192 404 L1178 173 L1178 173 Q1178 160 1169 151 Q1160 142 1147 142 Q1134 142 1125 151 Q1116 160 1115 173 L1109 287 L1103 404 L1115 1040 L1115 1043 Q1117 1058 1127 1067 Q1136 1074 1147 1074 Q1155 1074 1162 1069 Q1176 1061 1178 1043 z M2304 423 Q2304 306 2221 223.5 Q2138 141 2021 141 L1235 141 Q1222 143 1213 152 Q1204 161 1204 174 L1204 1073 Q1204 1096 1232 1106 Q1317 1140 1413 1140 Q1608 1140 1751 1008.5 Q1894 877 1911 685 Q1964 707 2021 707 Q2138 707 2221 624 Q2304 541 2304 423 z" pathLength="0" fill="White" transform="translate(-2.285714, 1.192093E-06) scale(0.008928572, -0.008928572) translate(0, -1536)" />
</svg>