<!DOCTYPE svg PUBLIC "-//W3C//DTD SVG 1.1//EN" "http://www.w3.org/Graphics/SVG/1.1/DTD/svg11.dtd">
<svg xmlns="http://www.w3.org/2000/svg" xmlns:xlink="http://www.w3.org/1999/xlink" version="1.1" x="0" y="0" width="16" height="16" overflow="auto" preserveAspectRatio="xMidYMid" baseProfile="tiny" space="preserve">
  <path d="M620 416 Q510 352 352 352 L224 352 L224 416 L160 416 Q147 416 137.5 439.5 Q128 463 128 496 Q128 520 135 545 Q77 547 38.5 555.5 Q0 564 0 576 Q0 588 38.5 596.5 Q77 605 135 607 Q128 632 128 656 Q128 689 137.5 712.5 Q147 736 160 736 L224 736 L224 800 L352 800 Q510 800 620 736 L1733 736 Q1775 729 1839.5 718 Q1904 707 1920 704 Q2009 689 2070 663.5 Q2131 638 2153.5 616 Q2176 594 2176 576 Q2176 558 2153.5 536 Q2131 514 2070 488.5 Q2009 463 1920 448 Q1904 445 1839.5 434 Q1775 423 1733 416 L620 416 z M1739 668 Q1792 632 1792 576 Q1792 520 1739 484 L1820 454 Q1888 502 1888 576 Q1888 650 1820 698 z M625 400 L1640 400 Q1423 362 1184 320 Q1127 320 1071 296 Q1015 272 988 248 L960 224 L672 -64 Q646 -90 601.5 -109 Q557 -128 512 -128 L416 -128 L323 336 L352 336 Q509 336 625 400 z M352 816 L323 816 L416 1280 L512 1280 Q558 1280 602 1261 Q646 1242 672 1216 L960 928 Q964 924 971 917.5 Q978 911 1001.5 894.5 Q1025 878 1050 865.5 Q1075 853 1111.5 842.5 Q1148 832 1184 832 L1640 752 L625 752 Q509 816 352 816 z" pathLength="0" fill="White" transform="translate(-1.714286, -0.5714276) scale(0.008928572, -0.008928572) translate(0, -1536)" />
</svg>