<!DOCTYPE svg PUBLIC "-//W3C//DTD SVG 1.1//EN" "http://www.w3.org/Graphics/SVG/1.1/DTD/svg11.dtd">
<svg xmlns="http://www.w3.org/2000/svg" xmlns:xlink="http://www.w3.org/1999/xlink" version="1.1" x="0" y="0" width="16" height="16" overflow="auto" preserveAspectRatio="xMidYMid" baseProfile="tiny" space="preserve">
  <path d="M526 142 Q526 89 488.5 51.5 Q451 14 398 14 Q346 14 308 52 Q270 90 270 142 Q270 195 307.5 232.5 Q345 270 398 270 Q451 270 488.5 232.5 Q526 195 526 142 z M1024 -64 Q1024 -117 986.5 -154.5 Q949 -192 896 -192 Q843 -192 805.5 -154.5 Q768 -117 768 -64 Q768 -11 805.5 26.5 Q843 64 896 64 Q949 64 986.5 26.5 Q1024 -11 1024 -64 z M320 640 Q320 587 282.5 549.5 Q245 512 192 512 Q139 512 101.5 549.5 Q64 587 64 640 Q64 693 101.5 730.5 Q139 768 192 768 Q245 768 282.5 730.5 Q320 693 320 640 z M1522 142 Q1522 90 1484 52 Q1446 14 1394 14 Q1341 14 1303.5 51.5 Q1266 89 1266 142 Q1266 195 1303.5 232.5 Q1341 270 1394 270 Q1447 270 1484.5 232.5 Q1522 195 1522 142 z M558 1138 Q558 1072 511 1025 Q464 978 398 978 Q332 978 285 1025 Q238 1072 238 1138 Q238 1204 285 1251 Q332 1298 398 1298 Q464 1298 511 1251 Q558 1204 558 1138 z M1728 640 Q1728 587 1690.5 549.5 Q1653 512 1600 512 Q1547 512 1509.5 549.5 Q1472 587 1472 640 Q1472 693 1509.5 730.5 Q1547 768 1600 768 Q1653 768 1690.5 730.5 Q1728 693 1728 640 z M1088 1344 Q1088 1264 1032 1208 Q976 1152 896 1152 Q816 1152 760 1208 Q704 1264 704 1344 Q704 1424 760 1480 Q816 1536 896 1536 Q976 1536 1032 1480 Q1088 1424 1088 1344 z M1618 1138 Q1618 1045 1552 979.5 Q1486 914 1394 914 Q1301 914 1235.5 979.5 Q1170 1045 1170 1138 Q1170 1230 1235.5 1296 Q1301 1362 1394 1362 Q1486 1362 1552 1296 Q1618 1230 1618 1138 z" pathLength="0" fill="White" transform="translate(6.556511E-07, 0.2857156) scale(0.008928572, -0.008928572) translate(0, -1536)" />
</svg>