<!DOCTYPE svg PUBLIC "-//W3C//DTD SVG 1.1//EN" "http://www.w3.org/Graphics/SVG/1.1/DTD/svg11.dtd">
<svg xmlns="http://www.w3.org/2000/svg" xmlns:xlink="http://www.w3.org/1999/xlink" version="1.1" x="0" y="0" width="16" height="16" overflow="auto" preserveAspectRatio="xMidYMid" baseProfile="tiny" space="preserve">
  <path d="M1127 326 Q1127 358 1097 377 Q904 492 650 492 Q517 492 363 458 Q321 449 321 406 Q321 386 334.5 371.5 Q348 357 370 357 Q375 357 407 365 Q539 392 650 392 Q876 392 1047 289 Q1066 278 1080 278 Q1099 278 1113 291.5 Q1127 305 1127 326 z M1223 541 Q1223 581 1188 602 Q951 743 640 743 Q487 743 337 701 Q289 688 289 637 Q289 612 306.5 594.5 Q324 577 349 577 Q356 577 386 585 Q508 618 637 618 Q916 618 1125 494 Q1149 481 1163 481 Q1188 481 1205.5 498.5 Q1223 516 1223 541 z M1331 789 Q1331 836 1291 859 Q1165 932 998 969.5 Q831 1007 655 1007 Q451 1007 291 960 Q268 953 252.5 934.5 Q237 916 237 886 Q237 855 257.5 834 Q278 813 309 813 Q320 813 349 821 Q482 858 656 858 Q815 858 965.5 824 Q1116 790 1219 729 Q1240 717 1259 717 Q1288 717 1309.5 737.5 Q1331 758 1331 789 z M1536 640 Q1536 431 1433 254.5 Q1330 78 1153.5 -25 Q977 -128 768 -128 Q559 -128 382.5 -25 Q206 78 103 254.5 Q0 431 0 640 Q0 849 103 1025.5 Q206 1202 382.5 1305 Q559 1408 768 1408 Q977 1408 1153.5 1305 Q1330 1202 1433 1025.5 Q1536 849 1536 640 z" pathLength="0" fill="White" transform="translate(1.142857, 1.311302E-06) scale(0.008928572, -0.008928572) translate(0, -1536)" />
</svg>