<!DOCTYPE svg PUBLIC "-//W3C//DTD SVG 1.1//EN" "http://www.w3.org/Graphics/SVG/1.1/DTD/svg11.dtd">
<svg xmlns="http://www.w3.org/2000/svg" xmlns:xlink="http://www.w3.org/1999/xlink" version="1.1" x="0" y="0" width="16" height="16" overflow="auto" preserveAspectRatio="xMidYMid" baseProfile="tiny" space="preserve">
  <path d="M1259 283 L1259 217 Q1259 132 1201.5 72.5 Q1144 13 1063 13 L1006 13 L746 -256 L746 13 L217 13 Q136 13 78.5 72.5 Q21 132 21 217 L21 283 L1259 283 z M1259 609 L1259 354 L21 354 L21 609 L1259 609 z M1259 937 L1259 682 L21 682 L21 937 L1259 937 z M1259 1077 L1259 1010 L21 1010 L21 1077 Q21 1161 78.5 1220.5 Q136 1280 217 1280 L1063 1280 Q1144 1280 1201.5 1220.5 Q1259 1161 1259 1077 z" pathLength="0" fill="White" transform="translate(2.285714, -1.142856) scale(0.008928572, -0.008928572) translate(0, -1536)" />
</svg>