<!DOCTYPE svg PUBLIC "-//W3C//DTD SVG 1.1//EN" "http://www.w3.org/Graphics/SVG/1.1/DTD/svg11.dtd">
<svg xmlns="http://www.w3.org/2000/svg" xmlns:xlink="http://www.w3.org/1999/xlink" version="1.1" x="0" y="0" width="16" height="16" overflow="auto" preserveAspectRatio="xMidYMid" baseProfile="tiny" space="preserve">
  <path d="M928 135 L928 -16 L221 -17 L221 134 z M1169 481 L1169 -220 L1168 -255 L1168 -256 L36 -256 L1 -255 L0 -255 L0 481 L121 481 L121 -137 L1049 -137 L1049 481 L1169 481 z M241 393 L945 328 L932 178 L227 243 z M309 709 L992 526 L953 380 L270 563 z M472 1058 L1081 698 L1004 568 L395 928 z M832 1389 L1230 804 L1106 719 L707 1303 z M1285 1536 L1406 839 L1257 813 L1136 1510 z" pathLength="0" fill="White" transform="translate(1.723214, 9.536743E-07) scale(0.008928572, -0.008928572) translate(0, -1536)" />
</svg>