<!DOCTYPE svg PUBLIC "-//W3C//DTD SVG 1.1//EN" "http://www.w3.org/Graphics/SVG/1.1/DTD/svg11.dtd">
<svg xmlns="http://www.w3.org/2000/svg" xmlns:xlink="http://www.w3.org/1999/xlink" version="1.1" x="0" y="0" width="16" height="16" overflow="auto" preserveAspectRatio="xMidYMid" baseProfile="tiny" space="preserve">
  <path d="M1137 532 L1443 829 L1021 891 L832 1273 L643 891 L221 829 L527 532 L454 111 L832 310 L1209 111 z M1664 889 Q1664 867 1638 841 L1275 487 L1361 -13 Q1362 -20 1362 -33 Q1362 -83 1321 -83 Q1302 -83 1281 -71 L832 165 L383 -71 Q361 -83 343 -83 Q322 -83 311.5 -68.5 Q301 -54 301 -33 Q301 -27 303 -13 L389 487 L25 841 Q0 868 0 889 Q0 926 56 935 L558 1008 L783 1463 Q802 1504 832 1504 Q862 1504 881 1463 L1106 1008 L1608 935 Q1664 926 1664 889 z" pathLength="0" fill="White" transform="translate(0.5714283, 0.6294655) scale(0.008928572, -0.008928572) translate(0, -1536)" />
</svg>