<!DOCTYPE svg PUBLIC "-//W3C//DTD SVG 1.1//EN" "http://www.w3.org/Graphics/SVG/1.1/DTD/svg11.dtd">
<svg xmlns="http://www.w3.org/2000/svg" xmlns:xlink="http://www.w3.org/1999/xlink" version="1.1" x="0" y="0" width="16" height="16" overflow="auto" preserveAspectRatio="xMidYMid" baseProfile="tiny" space="preserve">
  <path d="M1186 579 L1443 829 L1087 881 L1021 891 L991 951 L832 1273 L832 310 L891 279 L1209 111 L1149 466 L1137 532 z M1638 841 L1275 487 L1361 -13 Q1366 -46 1355 -64.5 Q1344 -83 1321 -83 Q1304 -83 1281 -71 L832 165 L383 -71 Q360 -83 343 -83 Q320 -83 309 -64.5 Q298 -46 303 -13 L389 487 L25 841 Q-7 873 2 900.5 Q11 928 56 935 L558 1008 L783 1463 Q803 1504 832 1504 Q860 1504 881 1463 L1106 1008 L1608 935 Q1653 928 1662 900.5 Q1671 873 1638 841 z" pathLength="0" fill="White" transform="translate(0.5714289, 0.6294655) scale(0.008928572, -0.008928572) translate(0, -1536)" />
</svg>