<!DOCTYPE svg PUBLIC "-//W3C//DTD SVG 1.1//EN" "http://www.w3.org/Graphics/SVG/1.1/DTD/svg11.dtd">
<svg xmlns="http://www.w3.org/2000/svg" xmlns:xlink="http://www.w3.org/1999/xlink" version="1.1" x="0" y="0" width="16" height="16" overflow="auto" preserveAspectRatio="xMidYMid" baseProfile="tiny" space="preserve">
  <path d="M1242 889 Q1242 969 1185 1025.5 Q1128 1082 1048 1082 Q968 1082 911.5 1025 Q855 968 855 889 Q855 809 911.5 752.5 Q968 696 1048 696 Q1128 696 1185 752.5 Q1242 809 1242 889 z M632 301 Q632 218 574 160.5 Q516 103 434 103 Q378 103 331 132 Q284 161 259 209 Q311 189 357 169 Q417 145 477 170.5 Q537 196 562 257 Q586 317 560.5 377 Q535 437 474 461 L392 494 Q414 499 434 499 Q516 499 574 441.5 Q632 384 632 301 z M1536 1120 L1536 160 Q1536 41 1451.5 -43.5 Q1367 -128 1248 -128 L288 -128 Q169 -128 84.5 -43.5 Q0 41 0 160 L0 313 L172 244 Q192 152 265.5 92 Q339 32 434 32 Q538 32 615 102 Q692 172 702 275 L1047 527 Q1197 527 1302.5 632.5 Q1408 738 1408 887 Q1408 1037 1302.5 1142.5 Q1197 1248 1047 1248 Q899 1248 794 1143.5 Q689 1039 687 891 L462 569 Q453 570 434 570 Q359 570 297 533 L0 652 L0 1120 Q0 1239 84.5 1323.5 Q169 1408 288 1408 L1248 1408 Q1367 1408 1451.5 1323.5 Q1536 1239 1536 1120 z M1289 887 Q1289 787 1218 716.5 Q1147 646 1047 646 Q947 646 876.5 716.5 Q806 787 806 887 Q806 987 876.5 1058 Q947 1129 1047 1129 Q1148 1129 1218.5 1058.5 Q1289 988 1289 887 z" pathLength="0" fill="White" transform="translate(1.142857, 1.311302E-06) scale(0.008928572, -0.008928572) translate(0, -1536)" />
</svg>