<!DOCTYPE svg PUBLIC "-//W3C//DTD SVG 1.1//EN" "http://www.w3.org/Graphics/SVG/1.1/DTD/svg11.dtd">
<svg xmlns="http://www.w3.org/2000/svg" xmlns:xlink="http://www.w3.org/1999/xlink" version="1.1" x="0" y="0" width="16" height="16" overflow="auto" preserveAspectRatio="xMidYMid" baseProfile="tiny" space="preserve">
  <path d="M1582 954 Q1582 853 1510.5 781.5 Q1439 710 1338 710 Q1237 710 1165.5 781.5 Q1094 853 1094 954 Q1094 1055 1165.5 1126.5 Q1237 1198 1338 1198 Q1439 1198 1510.5 1126.5 Q1582 1055 1582 954 z M812 212 Q812 316 739 389 Q666 462 562 462 Q535 462 508 456 L612 414 Q689 383 721.5 307.5 Q754 232 723 156 Q692 79 616 47 Q540 15 464 46 Q443 54 402 70.5 Q361 87 341 95 Q373 35 432 -1.5 Q491 -38 562 -38 Q666 -38 739 35 Q812 108 812 212 z M1642 953 Q1642 1079 1552.5 1168.5 Q1463 1258 1337 1258 Q1210 1258 1120.5 1168.5 Q1031 1079 1031 953 Q1031 826 1120.5 737 Q1210 648 1337 648 Q1463 648 1552.5 737 Q1642 826 1642 953 z M1792 953 Q1792 764 1658.5 631 Q1525 498 1337 498 L900 179 Q888 50 791 -39 Q694 -128 562 -128 Q441 -128 348 -52 Q255 24 230 140 L0 232 L0 661 L389 504 Q468 552 562 552 Q575 552 597 550 L881 957 Q883 1144 1016.5 1276 Q1150 1408 1337 1408 Q1525 1408 1658.5 1274.5 Q1792 1141 1792 953 z" pathLength="0" fill="White" transform="translate(0, 1.311302E-06) scale(0.008928572, -0.008928572) translate(0, -1536)" />
</svg>