<!DOCTYPE svg PUBLIC "-//W3C//DTD SVG 1.1//EN" "http://www.w3.org/Graphics/SVG/1.1/DTD/svg11.dtd">
<svg xmlns="http://www.w3.org/2000/svg" xmlns:xlink="http://www.w3.org/1999/xlink" version="1.1" x="0" y="0" width="16" height="16" overflow="auto" preserveAspectRatio="xMidYMid" baseProfile="tiny" space="preserve">
  <path d="M45 -115 Q26 -134 13 -128 Q0 -122 0 -96 L0 1376 Q0 1402 13 1408 Q26 1414 45 1395 L755 685 Q763 677 768 666 L768 1344 Q768 1370 787 1389 Q806 1408 832 1408 L960 1408 Q986 1408 1005 1389 Q1024 1370 1024 1344 L1024 -64 Q1024 -90 1005 -109 Q986 -128 960 -128 L832 -128 Q806 -128 787 -109 Q768 -90 768 -64 L768 614 Q763 604 755 595 z" pathLength="0" fill="White" transform="translate(3.428571, 1.072884E-06) scale(0.008928572, -0.008928572) translate(0, -1536)" />
</svg>