<!DOCTYPE svg PUBLIC "-//W3C//DTD SVG 1.1//EN" "http://www.w3.org/Graphics/SVG/1.1/DTD/svg11.dtd">
<svg xmlns="http://www.w3.org/2000/svg" xmlns:xlink="http://www.w3.org/1999/xlink" version="1.1" x="0" y="0" width="16" height="16" overflow="auto" preserveAspectRatio="xMidYMid" baseProfile="tiny" space="preserve">
  <path d="M1280 832 Q1280 858 1261 877 Q1242 896 1216 896 Q1190 896 1171 877 Q1152 858 1152 832 Q1152 806 1171 787 Q1190 768 1216 768 Q1242 768 1261 787 Q1280 806 1280 832 z M1408 832 Q1408 770 1372.5 721 Q1337 672 1280 651 L1280 256 Q1280 97 1148.5 -15.5 Q1017 -128 832 -128 Q647 -128 515.5 -15.5 Q384 97 384 256 L384 388 Q220 408 110 516 Q0 624 0 768 L0 1280 Q0 1306 19 1325 Q38 1344 64 1344 Q70 1344 80 1342 Q97 1372 127 1390 Q157 1408 192 1408 Q245 1408 282.5 1370.5 Q320 1333 320 1280 Q320 1227 282.5 1189.5 Q245 1152 192 1152 Q159 1152 128 1170 L128 768 Q128 662 222 587 Q316 512 448 512 Q580 512 674 587 Q768 662 768 768 L768 1170 Q737 1152 704 1152 Q651 1152 613.5 1189.5 Q576 1227 576 1280 Q576 1333 613.5 1370.5 Q651 1408 704 1408 Q739 1408 769 1390 Q799 1372 816 1342 Q826 1344 832 1344 Q858 1344 877 1325 Q896 1306 896 1280 L896 768 Q896 624 786 516 Q676 408 512 388 L512 256 Q512 150 606 75 Q700 0 832 0 Q964 0 1058 75 Q1152 150 1152 256 L1152 651 Q1095 672 1059.5 721 Q1024 770 1024 832 Q1024 912 1080 968 Q1136 1024 1216 1024 Q1296 1024 1352 968 Q1408 912 1408 832 z" pathLength="0" fill="White" transform="translate(1.714286, 1.311302E-06) scale(0.008928572, -0.008928572) translate(0, -1536)" />
</svg>