<!DOCTYPE svg PUBLIC "-//W3C//DTD SVG 1.1//EN" "http://www.w3.org/Graphics/SVG/1.1/DTD/svg11.dtd">
<svg xmlns="http://www.w3.org/2000/svg" xmlns:xlink="http://www.w3.org/1999/xlink" version="1.1" x="0" y="0" width="16" height="16" overflow="auto" preserveAspectRatio="xMidYMid" baseProfile="tiny" space="preserve">
  <path d="M1408 0 Q1408 -63 1346.5 -113.5 Q1285 -164 1182.5 -194.5 Q1080 -225 957.5 -240.5 Q835 -256 704 -256 Q573 -256 450.5 -240.5 Q328 -225 225.5 -194.5 Q123 -164 61.5 -113.5 Q0 -63 0 0 Q0 49 33 88.5 Q66 128 124 155 Q182 182 242 199.5 Q302 217 373 229 Q399 234 421 218.5 Q443 203 447 177 Q452 151 436.5 129 Q421 107 395 103 Q337 93 289 79.5 Q241 66 212.5 54 Q184 42 164 30.5 Q144 19 136.5 11 Q129 3 128 -1 Q131 -12 155 -27.5 Q179 -43 228 -60.5 Q277 -78 342 -93 Q407 -108 502.5 -118 Q598 -128 704 -128 Q810 -128 905.5 -118 Q1001 -108 1066 -93 Q1131 -78 1180 -60 Q1229 -42 1253 -26.5 Q1277 -11 1280 1 Q1279 5 1271.5 12 Q1264 19 1244 31 Q1224 43 1195.5 54.5 Q1167 66 1119 79.5 Q1071 93 1013 103 Q987 107 971.5 129 Q956 151 961 177 Q965 203 987 218.5 Q1009 234 1035 229 Q1106 217 1166 199.5 Q1226 182 1284 155 Q1342 128 1375 88.5 Q1408 49 1408 0 z M1024 896 L1024 512 Q1024 486 1005 467 Q986 448 960 448 L896 448 L896 64 Q896 38 877 19 Q858 0 832 0 L576 0 Q550 0 531 19 Q512 38 512 64 L512 448 L448 448 Q422 448 403 467 Q384 486 384 512 L384 896 Q384 949 421.5 986.5 Q459 1024 512 1024 L896 1024 Q949 1024 986.5 986.5 Q1024 949 1024 896 z M928 1280 Q928 1187 862.5 1121.5 Q797 1056 704 1056 Q611 1056 545.5 1121.5 Q480 1187 480 1280 Q480 1373 545.5 1438.5 Q611 1504 704 1504 Q797 1504 862.5 1438.5 Q928 1373 928 1280 z" pathLength="0" fill="White" transform="translate(1.714286, -0.1428563) scale(0.008928572, -0.008928572) translate(0, -1536)" />
</svg>