<!DOCTYPE svg PUBLIC "-//W3C//DTD SVG 1.1//EN" "http://www.w3.org/Graphics/SVG/1.1/DTD/svg11.dtd">
<svg xmlns="http://www.w3.org/2000/svg" xmlns:xlink="http://www.w3.org/1999/xlink" version="1.1" x="0" y="0" width="16" height="16" overflow="auto" preserveAspectRatio="xMidYMid" baseProfile="tiny" space="preserve">
  <path d="M1760 640 Q1774 640 1783 631 Q1792 622 1792 608 L1792 544 Q1792 530 1783 521 Q1774 512 1760 512 L32 512 Q18 512 9 521 Q0 530 0 544 L0 608 Q0 622 9 631 Q18 640 32 640 L1760 640 z M483 704 Q455 739 432 784 Q384 881 384 972 Q384 1153 518 1281 Q651 1408 911 1408 Q961 1408 1078 1389 Q1144 1377 1255 1341 Q1265 1303 1276 1223 Q1290 1100 1290 1040 Q1290 1022 1285 995 L1273 992 L1189 998 L1175 1000 Q1125 1149 1072 1205 Q984 1296 862 1296 Q748 1296 680 1237 Q613 1179 613 1091 Q613 1018 679 951 Q745 884 958 822 Q1027 802 1131 756 Q1189 728 1226 704 L483 704 z M990 448 L1401 448 Q1408 409 1408 356 Q1408 245 1367 144 Q1344 89 1296 40 Q1259 5 1187 -41 Q1107 -89 1034 -107 Q954 -128 831 -128 Q717 -128 636 -105 L496 -65 Q439 -49 424 -37 Q416 -29 416 -15 L416 -2 Q416 106 414 154 Q413 184 414 222 L416 259 L416 303 L518 305 Q533 271 548 234 Q563 197 570.5 178 Q578 159 583 151 Q618 94 663 57 Q706 21 768 0 Q827 -22 900 -22 Q964 -22 1039 5 Q1116 31 1161 91 Q1208 152 1208 220 Q1208 304 1127 377 Q1093 406 990 448 z" pathLength="0" fill="White" transform="translate(0, 1.311302E-06) scale(0.008928572, -0.008928572) translate(0, -1536)" />
</svg>