<!DOCTYPE svg PUBLIC "-//W3C//DTD SVG 1.1//EN" "http://www.w3.org/Graphics/SVG/1.1/DTD/svg11.dtd">
<svg xmlns="http://www.w3.org/2000/svg" xmlns:xlink="http://www.w3.org/1999/xlink" version="1.1" x="0" y="0" width="16" height="16" overflow="auto" preserveAspectRatio="xMidYMid" baseProfile="tiny" space="preserve">
  <path d="M866 697 L956 724 L956 786 Q956 865 898 921 Q840 977 760 977 Q680 977 622 921.5 Q564 866 564 787 L564 504 Q564 484 550 470.5 Q536 457 517 457 Q498 457 484.5 470.5 Q471 484 471 504 L471 624 L320 624 L320 502 Q320 420 377.5 363 Q435 306 517 306 Q598 306 655.5 362.5 Q713 419 713 499 L713 779 Q713 798 726.5 812 Q740 826 760 826 Q779 826 792.5 812 Q806 798 806 779 L806 725 z M1199 502 L1199 624 L1049 624 L1049 498 Q1049 478 1035.5 464.5 Q1022 451 1002 451 Q983 451 969.5 465 Q956 479 956 498 L956 621 L866 595 L806 623 L806 500 Q806 420 864 363 Q922 306 1003 306 Q1084 306 1141.5 363 Q1199 420 1199 502 z M1536 640 Q1536 431 1433 254.5 Q1330 78 1153.5 -25 Q977 -128 768 -128 Q559 -128 382.5 -25 Q206 78 103 254.5 Q0 431 0 640 Q0 849 103 1025.5 Q206 1202 382.5 1305 Q559 1408 768 1408 Q977 1408 1153.5 1305 Q1330 1202 1433 1025.5 Q1536 849 1536 640 z" pathLength="0" fill="White" transform="translate(1.142857, 1.311302E-06) scale(0.008928572, -0.008928572) translate(0, -1536)" />
</svg>