<!DOCTYPE svg PUBLIC "-//W3C//DTD SVG 1.1//EN" "http://www.w3.org/Graphics/SVG/1.1/DTD/svg11.dtd">
<svg xmlns="http://www.w3.org/2000/svg" xmlns:xlink="http://www.w3.org/1999/xlink" version="1.1" x="0" y="0" width="16" height="16" overflow="auto" preserveAspectRatio="xMidYMid" baseProfile="tiny" space="preserve">
  <path d="M1062 824 L1062 942 Q1062 984 1032 1014 Q1002 1044 960 1044 Q918 1044 888 1014 Q858 984 858 942 L858 330 Q858 155 732 31 Q606 -93 429 -93 Q251 -93 125.5 32.5 Q0 158 0 336 L0 602 L328 602 L328 340 Q328 297 358 267.5 Q388 238 430 238 Q472 238 502 267.5 Q532 297 532 340 L532 960 Q532 1131 658.5 1252 Q785 1373 960 1373 Q1136 1373 1262 1251 Q1388 1129 1388 957 L1388 821 L1193 763 z M1592 602 L1920 602 L1920 336 Q1920 158 1794.5 32.5 Q1669 -93 1491 -93 Q1314 -93 1188 31.5 Q1062 156 1062 332 L1062 600 L1193 539 L1388 597 L1388 327 Q1388 285 1418 255.5 Q1448 226 1490 226 Q1532 226 1562 255.5 Q1592 285 1592 327 L1592 602 z" pathLength="0" fill="White" transform="translate(-0.5714283, 1.311302E-06) scale(0.008928572, -0.008928572) translate(0, -1536)" />
</svg>