<!DOCTYPE svg PUBLIC "-//W3C//DTD SVG 1.1//EN" "http://www.w3.org/Graphics/SVG/1.1/DTD/svg11.dtd">
<svg xmlns="http://www.w3.org/2000/svg" xmlns:xlink="http://www.w3.org/1999/xlink" version="1.1" x="0" y="0" width="16" height="16" overflow="auto" preserveAspectRatio="xMidYMid" baseProfile="tiny" space="preserve">
  <path d="M897 167 L897 0 L649 0 L490 252 L466 294 Q458 303 455 315 L452 315 L443 294 Q433 274 418 250 L263 0 L5 0 L5 167 L133 167 L330 458 L145 730 L8 730 L8 898 L284 898 L423 670 Q425 666 446 628 Q454 619 457 607 L460 607 Q463 616 471 628 L496 670 L636 898 L893 898 L893 730 L768 730 L584 463 L788 167 L897 167 z M1536 -50 L1536 -256 L1022 -256 L1018 -229 Q1015 -184 1015 -183 Q1015 -119 1041 -66 Q1067 -13 1106 20.5 Q1145 54 1190 85.5 Q1235 117 1274 140 Q1313 163 1339 194 Q1365 225 1365 258 Q1365 296 1335.5 320.5 Q1306 345 1265 345 Q1214 345 1168 306 Q1154 295 1132 268 L1027 360 Q1053 397 1090 426 Q1170 491 1278 491 Q1388 491 1456 431.5 Q1524 372 1524 273 Q1524 207 1489.5 154.5 Q1455 102 1405.5 68.5 Q1356 35 1306 6 Q1256 -23 1219 -57 Q1182 -91 1178 -130 L1410 -130 L1410 -50 L1536 -50 z" pathLength="0" fill="White" transform="translate(1.120536, -2.848214) scale(0.008928572, -0.008928572) translate(0, -1536)" />
</svg>