<!DOCTYPE svg PUBLIC "-//W3C//DTD SVG 1.1//EN" "http://www.w3.org/Graphics/SVG/1.1/DTD/svg11.dtd">
<svg xmlns="http://www.w3.org/2000/svg" xmlns:xlink="http://www.w3.org/1999/xlink" version="1.1" x="0" y="0" width="16" height="16" overflow="auto" preserveAspectRatio="xMidYMid" baseProfile="tiny" space="preserve">
  <path d="M1088 1536 Q1273 1536 1404.5 1442.5 Q1536 1349 1536 1216 L1536 320 Q1536 190 1410.5 98 Q1285 6 1105 1 L1318 -201 Q1334 -216 1326 -236 Q1318 -256 1296 -256 L240 -256 Q218 -256 210 -236 Q202 -216 218 -201 L431 1 Q251 6 125.5 98 Q0 190 0 320 L0 1216 Q0 1349 131.5 1442.5 Q263 1536 448 1536 L1088 1536 z M288 224 Q354 224 401 271 Q448 318 448 384 Q448 450 401 497 Q354 544 288 544 Q222 544 175 497 Q128 450 128 384 Q128 318 175 271 Q222 224 288 224 z M704 768 L704 1280 L160 1280 L160 768 L704 768 z M1248 224 Q1314 224 1361 271 Q1408 318 1408 384 Q1408 450 1361 497 Q1314 544 1248 544 Q1182 544 1135 497 Q1088 450 1088 384 Q1088 318 1135 271 Q1182 224 1248 224 z M1408 768 L1408 1280 L832 1280 L832 768 L1408 768 z" pathLength="0" fill="White" transform="translate(1.142857, 9.536743E-07) scale(0.008928572, -0.008928572) translate(0, -1536)" />
</svg>