<!DOCTYPE svg PUBLIC "-//W3C//DTD SVG 1.1//EN" "http://www.w3.org/Graphics/SVG/1.1/DTD/svg11.dtd">
<svg xmlns="http://www.w3.org/2000/svg" xmlns:xlink="http://www.w3.org/1999/xlink" version="1.1" x="0" y="0" width="16" height="16" overflow="auto" preserveAspectRatio="xMidYMid" baseProfile="tiny" space="preserve">
  <path d="M1472 640 Q1472 757 1426.5 863.5 Q1381 970 1303.5 1047.5 Q1226 1125 1119.5 1170.5 Q1013 1216 896 1216 Q779 1216 672.5 1170.5 Q566 1125 488.5 1047.5 Q411 970 365.5 863.5 Q320 757 320 640 Q320 523 365.5 416.5 Q411 310 488.5 232.5 Q566 155 672.5 109.5 Q779 64 896 64 Q1013 64 1119.5 109.5 Q1226 155 1303.5 232.5 Q1381 310 1426.5 416.5 Q1472 523 1472 640 z M1748 363 Q1744 348 1728 343 L1436 247 L1436 -59 Q1436 -75 1423 -85 Q1408 -95 1394 -89 L1102 5 L922 -243 Q912 -256 896 -256 Q880 -256 870 -243 L690 5 L398 -89 Q384 -95 369 -85 Q356 -75 356 -59 L356 247 L64 343 Q48 348 44 363 Q39 380 48 392 L228 640 L48 888 Q39 901 44 917 Q48 932 64 937 L356 1033 L356 1339 Q356 1355 369 1365 Q384 1375 398 1369 L690 1275 L870 1523 Q879 1535 896 1535 Q913 1535 922 1523 L1102 1275 L1394 1369 Q1408 1375 1423 1365 Q1436 1355 1436 1339 L1436 1033 L1728 937 Q1744 932 1748 917 Q1753 901 1744 888 L1564 640 L1744 392 Q1753 380 1748 363 z" pathLength="0" fill="White" transform="translate(2.980232E-08, -0.004463469) scale(0.008928572, -0.008928572) translate(0, -1536)" />
</svg>