<!DOCTYPE svg PUBLIC "-//W3C//DTD SVG 1.1//EN" "http://www.w3.org/Graphics/SVG/1.1/DTD/svg11.dtd">
<svg xmlns="http://www.w3.org/2000/svg" xmlns:xlink="http://www.w3.org/1999/xlink" version="1.1" x="0" y="0" width="16" height="16" overflow="auto" preserveAspectRatio="xMidYMid" baseProfile="tiny" space="preserve">
  <path d="M897 167 L897 0 L649 0 L490 252 L466 294 Q458 303 455 315 L452 315 L443 294 Q433 274 418 250 L263 0 L5 0 L5 167 L133 167 L330 458 L145 730 L8 730 L8 898 L284 898 L423 670 Q425 666 446 628 Q454 619 457 607 L460 607 Q463 616 471 628 L496 670 L636 898 L893 898 L893 730 L768 730 L584 463 L788 167 L897 167 z M1534 846 L1534 640 L1020 640 L1017 667 Q1013 695 1013 713 Q1013 777 1039 830 Q1065 883 1104 916.5 Q1143 950 1188 981.5 Q1233 1013 1272 1036 Q1311 1059 1337 1090 Q1363 1121 1363 1154 Q1363 1192 1333.5 1216.5 Q1304 1241 1263 1241 Q1212 1241 1166 1202 Q1152 1191 1130 1164 L1025 1256 Q1051 1293 1088 1322 Q1171 1387 1276 1387 Q1386 1387 1454 1327.5 Q1522 1268 1522 1169 Q1522 1113 1497.5 1066 Q1473 1019 1435.5 989.5 Q1398 960 1354 931 Q1310 902 1272 880.5 Q1234 859 1206.5 829 Q1179 799 1176 766 L1408 766 L1408 846 L1534 846 z" pathLength="0" fill="White" transform="translate(1.129465, 0.4776796) scale(0.008928572, -0.008928572) translate(0, -1536)" />
</svg>