<!DOCTYPE svg PUBLIC "-//W3C//DTD SVG 1.1//EN" "http://www.w3.org/Graphics/SVG/1.1/DTD/svg11.dtd">
<svg xmlns="http://www.w3.org/2000/svg" xmlns:xlink="http://www.w3.org/1999/xlink" version="1.1" x="0" y="0" width="16" height="16" overflow="auto" preserveAspectRatio="xMidYMid" baseProfile="tiny" space="preserve">
  <path d="M640 128 Q640 154 621 173 Q602 192 576 192 Q550 192 531 173 Q512 154 512 128 Q512 102 531 83 Q550 64 576 64 Q602 64 621 83 Q640 102 640 128 z M1024 288 L1024 1248 Q1024 1261 1014.5 1270.5 Q1005 1280 992 1280 L160 1280 Q147 1280 137.5 1270.5 Q128 1261 128 1248 L128 288 Q128 275 137.5 265.5 Q147 256 160 256 L992 256 Q1005 256 1014.5 265.5 Q1024 275 1024 288 z M1152 1248 L1152 160 Q1152 94 1105 47 Q1058 0 992 0 L160 0 Q94 0 47 47 Q0 94 0 160 L0 1248 Q0 1314 47 1361 Q94 1408 160 1408 L992 1408 Q1058 1408 1105 1361 Q1152 1314 1152 1248 z" pathLength="0" fill="White" transform="translate(2.857143, 0.5714296) scale(0.008928572, -0.008928572) translate(0, -1536)" />
</svg>