<!DOCTYPE svg PUBLIC "-//W3C//DTD SVG 1.1//EN" "http://www.w3.org/Graphics/SVG/1.1/DTD/svg11.dtd">
<svg xmlns="http://www.w3.org/2000/svg" xmlns:xlink="http://www.w3.org/1999/xlink" version="1.1" x="0" y="0" width="16" height="16" overflow="auto" preserveAspectRatio="xMidYMid" baseProfile="tiny" space="preserve">
  <path d="M512 160 L512 352 Q512 366 503 375 Q494 384 480 384 L160 384 Q146 384 137 375 Q128 366 128 352 L128 160 Q128 146 137 137 Q146 128 160 128 L480 128 Q494 128 503 137 Q512 146 512 160 z M512 544 L512 736 Q512 750 503 759 Q494 768 480 768 L160 768 Q146 768 137 759 Q128 750 128 736 L128 544 Q128 530 137 521 Q146 512 160 512 L480 512 Q494 512 503 521 Q512 530 512 544 z M1024 160 L1024 352 Q1024 366 1015 375 Q1006 384 992 384 L672 384 Q658 384 649 375 Q640 366 640 352 L640 160 Q640 146 649 137 Q658 128 672 128 L992 128 Q1006 128 1015 137 Q1024 146 1024 160 z M512 928 L512 1120 Q512 1134 503 1143 Q494 1152 480 1152 L160 1152 Q146 1152 137 1143 Q128 1134 128 1120 L128 928 Q128 914 137 905 Q146 896 160 896 L480 896 Q494 896 503 905 Q512 914 512 928 z M1024 544 L1024 736 Q1024 750 1015 759 Q1006 768 992 768 L672 768 Q658 768 649 759 Q640 750 640 736 L640 544 Q640 530 649 521 Q658 512 672 512 L992 512 Q1006 512 1015 521 Q1024 530 1024 544 z M1536 160 L1536 352 Q1536 366 1527 375 Q1518 384 1504 384 L1184 384 Q1170 384 1161 375 Q1152 366 1152 352 L1152 160 Q1152 146 1161 137 Q1170 128 1184 128 L1504 128 Q1518 128 1527 137 Q1536 146 1536 160 z M1024 928 L1024 1120 Q1024 1134 1015 1143 Q1006 1152 992 1152 L672 1152 Q658 1152 649 1143 Q640 1134 640 1120 L640 928 Q640 914 649 905 Q658 896 672 896 L992 896 Q1006 896 1015 905 Q1024 914 1024 928 z M1536 544 L1536 736 Q1536 750 1527 759 Q1518 768 1504 768 L1184 768 Q1170 768 1161 759 Q1152 750 1152 736 L1152 544 Q1152 530 1161 521 Q1170 512 1184 512 L1504 512 Q1518 512 1527 521 Q1536 530 1536 544 z M1536 928 L1536 1120 Q1536 1134 1527 1143 Q1518 1152 1504 1152 L1184 1152 Q1170 1152 1161 1143 Q1152 1134 1152 1120 L1152 928 Q1152 914 1161 905 Q1170 896 1184 896 L1504 896 Q1518 896 1527 905 Q1536 914 1536 928 z M1664 1248 L1664 160 Q1664 94 1617 47 Q1570 0 1504 0 L160 0 Q94 0 47 47 Q0 94 0 160 L0 1248 Q0 1314 47 1361 Q94 1408 160 1408 L1504 1408 Q1570 1408 1617 1361 Q1664 1314 1664 1248 z" pathLength="0" fill="White" transform="translate(0.5714283, 0.5714296) scale(0.008928572, -0.008928572) translate(0, -1536)" />
</svg>