<!DOCTYPE svg PUBLIC "-//W3C//DTD SVG 1.1//EN" "http://www.w3.org/Graphics/SVG/1.1/DTD/svg11.dtd">
<svg xmlns="http://www.w3.org/2000/svg" xmlns:xlink="http://www.w3.org/1999/xlink" version="1.1" x="0" y="0" width="16" height="16" overflow="auto" preserveAspectRatio="xMidYMid" baseProfile="tiny" space="preserve">
  <path d="M1024 128 L1664 128 L1664 256 L1024 256 L1024 128 z M640 640 L1664 640 L1664 768 L640 768 L640 640 z M1280 1152 L1664 1152 L1664 1280 L1280 1280 L1280 1152 z M1792 320 L1792 64 Q1792 38 1773 19 Q1754 0 1728 0 L64 0 Q38 0 19 19 Q0 38 0 64 L0 320 Q0 346 19 365 Q38 384 64 384 L1728 384 Q1754 384 1773 365 Q1792 346 1792 320 z M1792 832 L1792 576 Q1792 550 1773 531 Q1754 512 1728 512 L64 512 Q38 512 19 531 Q0 550 0 576 L0 832 Q0 858 19 877 Q38 896 64 896 L1728 896 Q1754 896 1773 877 Q1792 858 1792 832 z M1792 1344 L1792 1088 Q1792 1062 1773 1043 Q1754 1024 1728 1024 L64 1024 Q38 1024 19 1043 Q0 1062 0 1088 L0 1344 Q0 1370 19 1389 Q38 1408 64 1408 L1728 1408 Q1754 1408 1773 1389 Q1792 1370 1792 1344 z" pathLength="0" fill="White" transform="translate(0, 0.5714296) scale(0.008928572, -0.008928572) translate(0, -1536)" />
</svg>