<!DOCTYPE svg PUBLIC "-//W3C//DTD SVG 1.1//EN" "http://www.w3.org/Graphics/SVG/1.1/DTD/svg11.dtd">
<svg xmlns="http://www.w3.org/2000/svg" xmlns:xlink="http://www.w3.org/1999/xlink" version="1.1" x="0" y="0" width="16" height="16" overflow="auto" preserveAspectRatio="xMidYMid" baseProfile="tiny" space="preserve">
  <path d="M842 964 Q842 884 785 827.5 Q728 771 649 771 Q589 771 538 806 Q476 739 423 660 Q176 289 221 -199 Q222 -221 208.5 -237.5 Q195 -254 174 -256 L169 -256 Q149 -256 134 -242.5 Q119 -229 117 -209 Q103 -83 113.5 38.5 Q124 160 143 255.5 Q162 351 197 441.5 Q232 532 266 597 Q300 662 340 722 Q401 812 472 887 Q456 922 456 964 Q456 1044 512.5 1100.5 Q569 1157 649 1157 Q729 1157 785.5 1100.5 Q842 1044 842 964 z M1223 953 Q1223 795 1145 661 Q1067 527 932.5 449 Q798 371 640 371 Q576 371 509 385 Q488 390 476.5 408.5 Q465 427 470 448 Q475 468 493 479.5 Q511 491 532 487 Q583 474 640 474 Q737 474 826 512 Q915 550 979 614 Q1043 678 1081 767 Q1119 856 1119 953 Q1119 1050 1081 1139 Q1043 1228 979 1292 Q915 1356 826 1394 Q737 1432 640 1432 Q543 1432 454 1394 Q365 1356 301 1292 Q237 1228 199 1139 Q161 1050 161 953 Q161 839 213 735 Q223 715 216.5 695 Q210 675 191 665 Q172 655 151.5 662 Q131 669 121 688 Q57 811 57 953 Q57 1072 103.5 1180 Q150 1288 228 1366 Q306 1444 414 1490 Q522 1536 640 1536 Q798 1536 932.5 1458 Q1067 1380 1145 1245.5 Q1223 1111 1223 953 z" pathLength="0" fill="White" transform="translate(2.285715, 9.536743E-07) scale(0.008928572, -0.008928572) translate(0, -1536)" />
</svg>