<!DOCTYPE svg PUBLIC "-//W3C//DTD SVG 1.1//EN" "http://www.w3.org/Graphics/SVG/1.1/DTD/svg11.dtd">
<svg xmlns="http://www.w3.org/2000/svg" xmlns:xlink="http://www.w3.org/1999/xlink" version="1.1" x="0" y="0" width="16" height="16" overflow="auto" preserveAspectRatio="xMidYMid" baseProfile="tiny" space="preserve">
  <path d="M1744 128 Q1777 128 1786 109.5 Q1795 91 1775 65 L1649 -97 Q1629 -123 1600 -123 Q1571 -123 1551 -97 L1425 65 Q1405 91 1414 109.5 Q1423 128 1456 128 L1536 128 L1536 1152 L1456 1152 Q1423 1152 1414 1170.5 Q1405 1189 1425 1215 L1551 1377 Q1571 1403 1600 1403 Q1629 1403 1649 1377 L1775 1215 Q1795 1189 1786 1170.5 Q1777 1152 1744 1152 L1664 1152 L1664 128 L1744 128 z M81 1407 L135 1380 Q147 1375 346 1375 Q390 1375 478 1377 Q566 1379 610 1379 Q646 1379 717.5 1378.5 Q789 1378 825 1378 L1118 1378 Q1124 1378 1139 1377.5 Q1154 1377 1159.5 1377.5 Q1165 1378 1175.5 1380.5 Q1186 1383 1193 1389.5 Q1200 1396 1208 1407 L1250 1408 Q1254 1408 1264 1407.5 Q1274 1407 1278 1407 Q1280 1295 1280 1071 Q1280 991 1275 962 Q1236 948 1207 944 Q1182 988 1153 1072 Q1150 1081 1142 1120 Q1134 1159 1127.5 1193.5 Q1121 1228 1120 1229 Q1114 1237 1108 1241.5 Q1102 1246 1092.5 1247.5 Q1083 1249 1079.5 1250 Q1076 1251 1061.5 1250.5 Q1047 1250 1045 1250 Q1028 1250 978.5 1250.5 Q929 1251 904 1251 Q879 1251 840 1249 Q801 1247 769 1243 Q760 1162 761 1107 Q761 1013 763 719 Q765 425 765 264 Q765 248 762.5 192.5 Q760 137 762.5 101 Q765 65 775 32 Q815 11 899 -10.5 Q983 -32 1019 -48 Q1024 -88 1024 -98 Q1024 -112 1021 -127 L987 -128 Q911 -130 769 -120 Q627 -110 562 -110 Q512 -110 411 -119 Q310 -128 259 -128 Q256 -77 256 -76 L256 -67 Q273 -40 317.5 -24 Q362 -8 416 5 Q470 18 494 32 Q513 74 513 415 Q513 516 510 718 Q507 920 507 1021 L507 1138 Q507 1140 507.5 1153.5 Q508 1167 508 1178.5 Q508 1190 507 1204 Q506 1218 504 1228 Q502 1238 499 1242 Q488 1254 337 1254 Q304 1254 244 1242 Q184 1230 164 1216 Q145 1203 130 1143.5 Q115 1084 98.5 1032.5 Q82 981 56 979 Q14 1005 0 1023 L0 1406 z" pathLength="0" fill="White" transform="translate(0, -0.005951047) scale(0.008928572, -0.008928572) translate(0, -1536)" />
</svg>