<!DOCTYPE svg PUBLIC "-//W3C//DTD SVG 1.1//EN" "http://www.w3.org/Graphics/SVG/1.1/DTD/svg11.dtd">
<svg xmlns="http://www.w3.org/2000/svg" xmlns:xlink="http://www.w3.org/1999/xlink" version="1.1" x="0" y="0" width="16" height="16" overflow="auto" preserveAspectRatio="xMidYMid" baseProfile="tiny" space="preserve">
  <path d="M81 1407 L135 1380 Q147 1375 346 1375 Q390 1375 478 1377 Q566 1379 610 1379 Q680 1379 856.5 1380 Q1033 1381 1161 1380.5 Q1289 1380 1408 1376 Q1441 1375 1464 1407 L1506 1408 Q1510 1408 1520 1407.5 Q1530 1407 1534 1407 Q1536 1295 1536 1071 Q1536 991 1531 962 Q1492 948 1463 944 Q1438 988 1409 1072 Q1406 1081 1398 1119.5 Q1390 1158 1383 1193 Q1376 1228 1376 1229 Q1366 1242 1349 1248 Q1344 1250 1283 1250 Q1253 1250 1190 1251 Q1127 1252 1087 1252 Q1047 1252 993 1250 Q939 1248 897 1243 Q888 1162 889 1107 L890 955 L890 1007 Q890 952 891 853 Q892 754 892.5 673 Q893 592 893 520 Q893 504 890.5 448.5 Q888 393 890.5 357 Q893 321 903 288 Q943 267 1027 245.5 Q1111 224 1147 208 Q1152 168 1152 158 Q1152 144 1149 129 L1115 128 Q1039 126 897 136 Q755 146 690 146 Q640 146 539 137 Q438 128 387 128 Q384 179 384 180 L384 189 Q401 216 445.5 232 Q490 248 544 261 Q598 274 622 288 Q629 304 633.5 362 Q638 420 639.5 507.5 Q641 595 641 662.5 Q641 730 640.5 816 Q640 902 640 905 Q640 912 637.5 926.5 Q635 941 635 949 Q635 956 635.5 993 Q636 1030 636.5 1066 Q637 1102 636.5 1142.5 Q636 1183 633.5 1210 Q631 1237 627 1242 Q616 1254 465 1254 Q424 1254 302 1240.5 Q180 1227 164 1216 Q145 1204 130 1144.5 Q115 1085 98.5 1033 Q82 981 56 979 Q14 1005 0 1023 L0 1406 z M1310 125 Q1322 125 1352 105.5 Q1382 86 1409.5 64 Q1437 42 1469 15 Q1501 -12 1505 -15 Q1531 -36 1531 -64 Q1531 -92 1505 -113 Q1501 -116 1469 -143 Q1437 -170 1409.5 -192 Q1382 -214 1352 -233.5 Q1322 -253 1310 -253 Q1297 -253 1289.5 -242.5 Q1282 -232 1279.5 -214 Q1277 -196 1277 -180.5 Q1277 -165 1278.5 -147.5 Q1280 -130 1280 -128 L256 -128 Q256 -130 257.5 -147.5 Q259 -165 259 -180.5 Q259 -196 256.5 -214 Q254 -232 246.5 -242.5 Q239 -253 226 -253 Q214 -253 184 -233.5 Q154 -214 126.5 -192 Q99 -170 67 -143 Q35 -116 31 -113 Q5 -92 5 -64 Q5 -36 31 -15 Q35 -12 67 15 Q99 42 126.5 64 Q154 86 184 105.5 Q214 125 226 125 Q239 125 246.5 114.5 Q254 104 256.5 86 Q259 68 259 52.5 Q259 37 257.5 19.5 Q256 2 256 0 L1280 0 Q1280 2 1278.5 19.5 Q1277 37 1277 52.5 Q1277 68 1279.5 86 Q1282 104 1289.5 114.5 Q1297 125 1310 125 z" pathLength="0" fill="White" transform="translate(1.142857, -0.5580345) scale(0.008928572, -0.008928572) translate(0, -1536)" />
</svg>