<!DOCTYPE svg PUBLIC "-//W3C//DTD SVG 1.1//EN" "http://www.w3.org/Graphics/SVG/1.1/DTD/svg11.dtd">
<svg xmlns="http://www.w3.org/2000/svg" xmlns:xlink="http://www.w3.org/1999/xlink" version="1.1" x="0" y="0" width="16" height="16" overflow="auto" preserveAspectRatio="xMidYMid" baseProfile="tiny" space="preserve">
  <path d="M512 288 L512 96 Q512 56 484 28 Q456 0 416 0 L96 0 Q56 0 28 28 Q0 56 0 96 L0 288 Q0 328 28 356 Q56 384 96 384 L416 384 Q456 384 484 356 Q512 328 512 288 z M512 800 L512 608 Q512 568 484 540 Q456 512 416 512 L96 512 Q56 512 28 540 Q0 568 0 608 L0 800 Q0 840 28 868 Q56 896 96 896 L416 896 Q456 896 484 868 Q512 840 512 800 z M1152 288 L1152 96 Q1152 56 1124 28 Q1096 0 1056 0 L736 0 Q696 0 668 28 Q640 56 640 96 L640 288 Q640 328 668 356 Q696 384 736 384 L1056 384 Q1096 384 1124 356 Q1152 328 1152 288 z M512 1312 L512 1120 Q512 1080 484 1052 Q456 1024 416 1024 L96 1024 Q56 1024 28 1052 Q0 1080 0 1120 L0 1312 Q0 1352 28 1380 Q56 1408 96 1408 L416 1408 Q456 1408 484 1380 Q512 1352 512 1312 z M1152 800 L1152 608 Q1152 568 1124 540 Q1096 512 1056 512 L736 512 Q696 512 668 540 Q640 568 640 608 L640 800 Q640 840 668 868 Q696 896 736 896 L1056 896 Q1096 896 1124 868 Q1152 840 1152 800 z M1792 288 L1792 96 Q1792 56 1764 28 Q1736 0 1696 0 L1376 0 Q1336 0 1308 28 Q1280 56 1280 96 L1280 288 Q1280 328 1308 356 Q1336 384 1376 384 L1696 384 Q1736 384 1764 356 Q1792 328 1792 288 z M1152 1312 L1152 1120 Q1152 1080 1124 1052 Q1096 1024 1056 1024 L736 1024 Q696 1024 668 1052 Q640 1080 640 1120 L640 1312 Q640 1352 668 1380 Q696 1408 736 1408 L1056 1408 Q1096 1408 1124 1380 Q1152 1352 1152 1312 z M1792 800 L1792 608 Q1792 568 1764 540 Q1736 512 1696 512 L1376 512 Q1336 512 1308 540 Q1280 568 1280 608 L1280 800 Q1280 840 1308 868 Q1336 896 1376 896 L1696 896 Q1736 896 1764 868 Q1792 840 1792 800 z M1792 1312 L1792 1120 Q1792 1080 1764 1052 Q1736 1024 1696 1024 L1376 1024 Q1336 1024 1308 1052 Q1280 1080 1280 1120 L1280 1312 Q1280 1352 1308 1380 Q1336 1408 1376 1408 L1696 1408 Q1736 1408 1764 1380 Q1792 1352 1792 1312 z" pathLength="0" fill="White" transform="translate(0, 0.5714296) scale(0.008928572, -0.008928572) translate(0, -1536)" />
</svg>