<!DOCTYPE svg PUBLIC "-//W3C//DTD SVG 1.1//EN" "http://www.w3.org/Graphics/SVG/1.1/DTD/svg11.dtd">
<svg xmlns="http://www.w3.org/2000/svg" xmlns:xlink="http://www.w3.org/1999/xlink" version="1.1" x="0" y="0" width="16" height="16" overflow="auto" preserveAspectRatio="xMidYMid" baseProfile="tiny" space="preserve">
  <path d="M768 512 L768 128 Q768 76 730 38 Q692 0 640 0 L128 0 Q76 0 38 38 Q0 76 0 128 L0 512 Q0 564 38 602 Q76 640 128 640 L640 640 Q692 640 730 602 Q768 564 768 512 z M768 1280 L768 896 Q768 844 730 806 Q692 768 640 768 L128 768 Q76 768 38 806 Q0 844 0 896 L0 1280 Q0 1332 38 1370 Q76 1408 128 1408 L640 1408 Q692 1408 730 1370 Q768 1332 768 1280 z M1664 512 L1664 128 Q1664 76 1626 38 Q1588 0 1536 0 L1024 0 Q972 0 934 38 Q896 76 896 128 L896 512 Q896 564 934 602 Q972 640 1024 640 L1536 640 Q1588 640 1626 602 Q1664 564 1664 512 z M1664 1280 L1664 896 Q1664 844 1626 806 Q1588 768 1536 768 L1024 768 Q972 768 934 806 Q896 844 896 896 L896 1280 Q896 1332 934 1370 Q972 1408 1024 1408 L1536 1408 Q1588 1408 1626 1370 Q1664 1332 1664 1280 z" pathLength="0" fill="White" transform="translate(0.5714283, 0.5714296) scale(0.008928572, -0.008928572) translate(0, -1536)" />
</svg>