<!DOCTYPE svg PUBLIC "-//W3C//DTD SVG 1.1//EN" "http://www.w3.org/Graphics/SVG/1.1/DTD/svg11.dtd">
<svg xmlns="http://www.w3.org/2000/svg" xmlns:xlink="http://www.w3.org/1999/xlink" version="1.1" x="0" y="0" width="16" height="16" overflow="auto" preserveAspectRatio="xMidYMid" baseProfile="tiny" space="preserve">
  <path d="M256 192 Q256 218 237 237 Q218 256 192 256 Q166 256 147 237 Q128 218 128 192 Q128 166 147 147 Q166 128 192 128 Q218 128 237 147 Q256 166 256 192 z M1408 768 Q1408 819 1369 857.5 Q1330 896 1280 896 L928 896 Q928 954 976 1055.5 Q1024 1157 1024 1216 Q1024 1314 992 1361 Q960 1408 864 1408 Q838 1382 826 1323 Q814 1264 795.5 1197.5 Q777 1131 736 1088 Q714 1065 659 997 Q655 992 636 967 Q617 942 604.5 926 Q592 910 570 883.5 Q548 857 530 839.5 Q512 822 491.5 804 Q471 786 451.5 777 Q432 768 416 768 L384 768 L384 128 L416 128 Q429 128 447.5 125 Q466 122 480.5 118.5 Q495 115 518.5 107.5 Q542 100 553.5 96 Q565 92 589 83.5 Q613 75 618 73 Q829 0 960 0 L1081 0 Q1273 0 1273 167 Q1273 193 1268 223 Q1298 239 1315.5 275.5 Q1333 312 1333 349 Q1333 386 1315 418 Q1368 468 1368 537 Q1368 562 1358 592.5 Q1348 623 1333 640 Q1365 641 1386.5 687 Q1408 733 1408 768 z M1536 769 Q1536 680 1487 606 Q1496 573 1496 537 Q1496 460 1458 393 Q1461 372 1461 350 Q1461 249 1401 172 Q1402 33 1316 -47.5 Q1230 -128 1089 -128 L1053 -128 L960 -128 Q864 -128 770.5 -105.5 Q677 -83 554 -40 Q438 0 416 0 L128 0 Q75 0 37.5 37.5 Q0 75 0 128 L0 768 Q0 821 37.5 858.5 Q75 896 128 896 L402 896 Q438 920 539 1051 Q597 1126 646 1179 Q670 1204 681.5 1264.5 Q693 1325 712 1391 Q731 1457 774 1499 Q813 1536 864 1536 Q948 1536 1015 1503.5 Q1082 1471 1117 1402 Q1152 1333 1152 1216 Q1152 1123 1104 1024 L1280 1024 Q1384 1024 1460 948 Q1536 872 1536 769 z" pathLength="0" fill="White" transform="translate(1.142857, 0.5714297) scale(0.008928572, -0.008928572) translate(0, -1536)" />
</svg>