<!DOCTYPE svg PUBLIC "-//W3C//DTD SVG 1.1//EN" "http://www.w3.org/Graphics/SVG/1.1/DTD/svg11.dtd">
<svg xmlns="http://www.w3.org/2000/svg" xmlns:xlink="http://www.w3.org/1999/xlink" version="1.1" x="0" y="0" width="16" height="16" overflow="auto" preserveAspectRatio="xMidYMid" baseProfile="tiny" space="preserve">
  <path d="M256 192 Q256 218 237 237 Q218 256 192 256 Q165 256 146.5 237 Q128 218 128 192 Q128 165 146.5 146.5 Q165 128 192 128 Q218 128 237 146.5 Q256 165 256 192 z M416 704 L416 64 Q416 38 397 19 Q378 0 352 0 L64 0 Q38 0 19 19 Q0 38 0 64 L0 704 Q0 730 19 749 Q38 768 64 768 L352 768 Q378 768 397 749 Q416 730 416 704 z M1600 704 Q1600 618 1545 555 Q1560 511 1560 479 Q1563 403 1517 342 Q1534 286 1517 225 Q1502 168 1463 131 Q1472 19 1414 -50 Q1350 -126 1217 -128 L1181 -128 L1105 -128 L1088 -128 Q1022 -128 944 -112.5 Q866 -97 822.5 -83.5 Q779 -70 702 -44 Q579 -1 544 0 Q518 1 499 19.5 Q480 38 480 64 L480 705 Q480 730 498 748.5 Q516 767 541 769 Q565 771 617 828 Q669 885 718 949 Q786 1036 819 1069 Q837 1087 850 1117 Q863 1147 867.5 1165.5 Q872 1184 881 1226 Q888 1265 893.5 1287 Q899 1309 913 1339 Q927 1369 947 1389 Q966 1408 992 1408 Q1038 1408 1074.5 1397.5 Q1111 1387 1134.5 1371.5 Q1158 1356 1174.5 1331 Q1191 1306 1198.5 1286 Q1206 1266 1210.5 1236 Q1215 1206 1215.5 1191 Q1216 1176 1216 1152 Q1216 1114 1206.5 1076 Q1197 1038 1187.5 1016 Q1178 994 1160 960 Q1157 954 1150 942 Q1143 930 1139 920 Q1135 910 1131 896 L1408 896 Q1486 896 1543 839 Q1600 782 1600 704 z" pathLength="0" fill="White" transform="translate(0.8571429, 1.311302E-06) scale(0.008928572, -0.008928572) translate(0, -1536)" />
</svg>