<!DOCTYPE svg PUBLIC "-//W3C//DTD SVG 1.1//EN" "http://www.w3.org/Graphics/SVG/1.1/DTD/svg11.dtd">
<svg xmlns="http://www.w3.org/2000/svg" xmlns:xlink="http://www.w3.org/1999/xlink" version="1.1" x="0" y="0" width="16" height="16" overflow="auto" preserveAspectRatio="xMidYMid" baseProfile="tiny" space="preserve">
  <path d="M256 960 Q256 934 237 915 Q218 896 192 896 Q165 896 146.5 915 Q128 934 128 960 Q128 987 146.5 1005.5 Q165 1024 192 1024 Q218 1024 237 1005.5 Q256 987 256 960 z M416 448 L416 1088 Q416 1114 397 1133 Q378 1152 352 1152 L64 1152 Q38 1152 19 1133 Q0 1114 0 1088 L0 448 Q0 422 19 403 Q38 384 64 384 L352 384 Q378 384 397 403 Q416 422 416 448 z M1545 597 Q1600 536 1600 448 Q1599 370 1542.5 313 Q1486 256 1408 256 L1131 256 Q1135 242 1139 232 Q1143 222 1150 210 Q1157 198 1160 192 Q1178 155 1187 135 Q1196 115 1206 76.5 Q1216 38 1216 0 Q1216 -24 1215.5 -39 Q1215 -54 1210.5 -84 Q1206 -114 1198.5 -134 Q1191 -154 1174.5 -179 Q1158 -204 1134.5 -219.5 Q1111 -235 1074.5 -245.5 Q1038 -256 992 -256 Q966 -256 947 -237 Q927 -217 913 -187 Q899 -157 893.5 -135 Q888 -113 881 -74 Q872 -32 867.5 -13.5 Q863 5 850 35 Q837 65 819 83 Q786 116 718 203 Q669 267 617 324 Q565 381 541 383 Q516 385 498 403.5 Q480 422 480 447 L480 1088 Q480 1114 499 1132.5 Q518 1151 544 1152 Q579 1153 702 1196 Q779 1222 822.5 1235.5 Q866 1249 944 1264.5 Q1022 1280 1088 1280 L1105 1280 L1181 1280 L1217 1280 Q1350 1278 1414 1202 Q1472 1133 1463 1021 Q1502 984 1517 927 Q1534 866 1517 810 Q1563 749 1560 673 Q1560 641 1545 597 z" pathLength="0" fill="White" transform="translate(0.8571429, -1.142856) scale(0.008928572, -0.008928572) translate(0, -1536)" />
</svg>