<!DOCTYPE svg PUBLIC "-//W3C//DTD SVG 1.1//EN" "http://www.w3.org/Graphics/SVG/1.1/DTD/svg11.dtd">
<svg xmlns="http://www.w3.org/2000/svg" xmlns:xlink="http://www.w3.org/1999/xlink" version="1.1" x="0" y="0" width="16" height="16" overflow="auto" preserveAspectRatio="xMidYMid" baseProfile="tiny" space="preserve">
  <path d="M480 672 L480 1120 Q480 1134 471 1143 Q462 1152 448 1152 Q434 1152 425 1143 Q416 1134 416 1120 L416 672 Q416 658 425 649 Q434 640 448 640 Q462 640 471 649 Q480 658 480 672 z M1152 320 Q1152 294 1133 275 Q1114 256 1088 256 L659 256 L608 -227 Q606 -239 597.5 -247.5 Q589 -256 577 -256 L576 -256 Q549 -256 544 -229 L468 256 L64 256 Q38 256 19 275 Q0 294 0 320 Q0 443 78.5 541.5 Q157 640 256 640 L256 1152 Q204 1152 166 1190 Q128 1228 128 1280 Q128 1332 166 1370 Q204 1408 256 1408 L896 1408 Q948 1408 986 1370 Q1024 1332 1024 1280 Q1024 1228 986 1190 Q948 1152 896 1152 L896 640 Q995 640 1073.5 541.5 Q1152 443 1152 320 z" pathLength="0" fill="White" transform="translate(2.857143, -0.5714275) scale(0.008928572, -0.008928572) translate(0, -1536)" />
</svg>