<!DOCTYPE svg PUBLIC "-//W3C//DTD SVG 1.1//EN" "http://www.w3.org/Graphics/SVG/1.1/DTD/svg11.dtd">
<svg xmlns="http://www.w3.org/2000/svg" xmlns:xlink="http://www.w3.org/1999/xlink" version="1.1" x="0" y="0" width="16" height="16" overflow="auto" preserveAspectRatio="xMidYMid" baseProfile="tiny" space="preserve">
  <path d="M256 1088 Q256 1114 237 1133 Q218 1152 192 1152 Q166 1152 147 1133 Q128 1114 128 1088 Q128 1062 147 1043 Q166 1024 192 1024 Q218 1024 237 1043 Q256 1062 256 1088 z M1408 512 Q1408 547 1386.5 593 Q1365 639 1333 640 Q1348 657 1358 687.5 Q1368 718 1368 743 Q1368 812 1315 862 Q1333 894 1333 931 Q1333 968 1315.5 1004.5 Q1298 1041 1268 1057 Q1273 1087 1273 1113 Q1273 1198 1224 1239 Q1175 1280 1088 1280 L960 1280 Q829 1280 618 1207 Q613 1205 589 1196.5 Q565 1188 553.5 1184 Q542 1180 518.5 1172.5 Q495 1165 480.5 1161.5 Q466 1158 447.5 1155 Q429 1152 416 1152 L384 1152 L384 512 L416 512 Q432 512 451.5 503 Q471 494 491.5 476 Q512 458 530 440.5 Q548 423 570 396.5 Q592 370 604.5 354 Q617 338 636 313 Q655 288 659 283 Q714 215 736 192 Q777 149 795.5 82.5 Q814 16 826 -43 Q838 -102 864 -128 Q960 -128 992 -81 Q1024 -34 1024 64 Q1024 123 976 224.5 Q928 326 928 384 L1280 384 Q1330 384 1369 422.5 Q1408 461 1408 512 z M1536 511 Q1536 408 1460 332 Q1384 256 1280 256 L1104 256 Q1152 157 1152 64 Q1152 -54 1117 -122 Q1082 -191 1015 -223.5 Q948 -256 864 -256 Q813 -256 774 -219 Q740 -186 720 -137 Q700 -88 694.5 -46.5 Q689 -5 677 38 Q665 81 646 102 Q598 152 539 229 Q438 360 402 384 L128 384 Q75 384 37.5 421.5 Q0 459 0 512 L0 1152 Q0 1205 37.5 1242.5 Q75 1280 128 1280 L416 1280 Q438 1280 554 1320 Q682 1364 777 1386 Q872 1408 977 1408 L1089 1408 Q1229 1408 1315.5 1329 Q1402 1250 1401 1113 L1401 1108 Q1461 1031 1461 930 Q1461 908 1458 887 Q1496 820 1496 743 Q1496 707 1487 674 Q1536 600 1536 511 z" pathLength="0" fill="White" transform="translate(1.142857, -0.5714275) scale(0.008928572, -0.008928572) translate(0, -1536)" />
</svg>