<!DOCTYPE svg PUBLIC "-//W3C//DTD SVG 1.1//EN" "http://www.w3.org/Graphics/SVG/1.1/DTD/svg11.dtd">
<svg xmlns="http://www.w3.org/2000/svg" xmlns:xlink="http://www.w3.org/1999/xlink" version="1.1" x="0" y="0" width="16" height="16" overflow="auto" preserveAspectRatio="xMidYMid" baseProfile="tiny" space="preserve">
  <path d="M1024 1084 L1340 768 L768 196 L452 512 z M813 105 L1431 723 Q1450 742 1450 768 Q1450 794 1431 813 L1069 1175 Q1051 1193 1024 1193 Q997 1193 979 1175 L361 557 Q342 538 342 512 Q342 486 361 467 L723 105 Q741 87 768 87 Q795 87 813 105 z M1702 742 L795 -166 Q758 -203 704.5 -203 Q651 -203 614 -166 L488 -40 Q544 16 544 96 Q544 176 488 232 Q432 288 352 288 Q272 288 216 232 L91 358 Q54 395 54 448.5 Q54 502 91 539 L998 1445 Q1035 1482 1088.5 1482 Q1142 1482 1179 1445 L1304 1320 Q1248 1264 1248 1184 Q1248 1104 1304 1048 Q1360 992 1440 992 Q1520 992 1576 1048 L1702 923 Q1739 886 1739 832.5 Q1739 779 1702 742 z" pathLength="0" fill="White" transform="translate(-0.004463613, -0.004463613) scale(0.008928572, -0.008928572) translate(0, -1536)" />
</svg>