<!DOCTYPE svg PUBLIC "-//W3C//DTD SVG 1.1//EN" "http://www.w3.org/Graphics/SVG/1.1/DTD/svg11.dtd">
<svg xmlns="http://www.w3.org/2000/svg" xmlns:xlink="http://www.w3.org/1999/xlink" version="1.1" x="0" y="0" width="16" height="16" overflow="auto" preserveAspectRatio="xMidYMid" baseProfile="tiny" space="preserve">
  <path d="M1149 414 Q1149 440 1130 459 L949 640 L1130 821 Q1149 840 1149 866 Q1149 893 1130 912 L1040 1002 Q1021 1021 994 1021 Q968 1021 949 1002 L768 821 L587 1002 Q568 1021 542 1021 Q515 1021 496 1002 L406 912 Q387 893 387 866 Q387 840 406 821 L587 640 L406 459 Q387 440 387 414 Q387 387 406 368 L496 278 Q515 259 542 259 Q568 259 587 278 L768 459 L949 278 Q968 259 994 259 Q1021 259 1040 278 L1130 368 Q1149 387 1149 414 z M1536 640 Q1536 431 1433 254.5 Q1330 78 1153.5 -25 Q977 -128 768 -128 Q559 -128 382.5 -25 Q206 78 103 254.5 Q0 431 0 640 Q0 849 103 1025.5 Q206 1202 382.5 1305 Q559 1408 768 1408 Q977 1408 1153.5 1305 Q1330 1202 1433 1025.5 Q1536 849 1536 640 z" pathLength="0" fill="White" transform="translate(1.142857, 1.311302E-06) scale(0.008928572, -0.008928572) translate(0, -1536)" />
</svg>