<!DOCTYPE svg PUBLIC "-//W3C//DTD SVG 1.1//EN" "http://www.w3.org/Graphics/SVG/1.1/DTD/svg11.dtd">
<svg xmlns="http://www.w3.org/2000/svg" xmlns:xlink="http://www.w3.org/1999/xlink" version="1.1" x="0" y="0" width="16" height="16" overflow="auto" preserveAspectRatio="xMidYMid" baseProfile="tiny" space="preserve">
  <path d="M512 384 Q512 420 492 453 Q491 454 476.5 475.5 Q462 497 451 513.5 Q440 530 426 557.5 Q412 585 405 608 Q401 624 384 624 Q367 624 363 608 Q356 585 342 557.5 Q328 530 317 513.5 Q306 497 291.5 475.5 Q277 454 276 453 Q256 420 256 384 Q256 331 293.5 293.5 Q331 256 384 256 Q437 256 474.5 293.5 Q512 331 512 384 z M1024 512 Q1024 300 874 150 Q724 0 512 0 Q300 0 150 150 Q0 300 0 512 Q0 657 81 787 Q87 796 143.5 877.5 Q200 959 244.5 1028.5 Q289 1098 344 1206.5 Q399 1315 427 1408 Q436 1438 461 1455 Q486 1472 512 1472 Q538 1472 563.5 1455 Q589 1438 597 1408 Q625 1315 680 1206.5 Q735 1098 779.5 1028.5 Q824 959 880.5 877.5 Q937 796 943 787 Q1024 660 1024 512 z" pathLength="0" fill="White" transform="translate(3.428571, 0.8571436) scale(0.008928572, -0.008928572) translate(0, -1536)" />
</svg>