<!DOCTYPE svg PUBLIC "-//W3C//DTD SVG 1.1//EN" "http://www.w3.org/Graphics/SVG/1.1/DTD/svg11.dtd">
<svg xmlns="http://www.w3.org/2000/svg" xmlns:xlink="http://www.w3.org/1999/xlink" version="1.1" x="0" y="0" width="16" height="16" overflow="auto" preserveAspectRatio="xMidYMid" baseProfile="tiny" space="preserve">
  <path d="M1152 640 Q1152 744 1111.5 838.5 Q1071 933 1002 1002 Q933 1071 838.5 1111.5 Q744 1152 640 1152 Q536 1152 441.5 1111.5 Q347 1071 278 1002 Q209 933 168.5 838.5 Q128 744 128 640 Q128 536 168.5 441.5 Q209 347 278 278 Q347 209 441.5 168.5 Q536 128 640 128 Q744 128 838.5 168.5 Q933 209 1002 278 Q1071 347 1111.5 441.5 Q1152 536 1152 640 z M1920 640 Q1920 744 1879.5 838.5 Q1839 933 1770 1002 Q1701 1071 1606.5 1111.5 Q1512 1152 1408 1152 L1022 1152 Q1141 1062 1210.5 928 Q1280 794 1280 640 Q1280 486 1210.5 352 Q1141 218 1022 128 L1408 128 Q1512 128 1606.5 168.5 Q1701 209 1770 278 Q1839 347 1879.5 441.5 Q1920 536 1920 640 z M2048 640 Q2048 510 1997 391.5 Q1946 273 1860.5 187.5 Q1775 102 1656.5 51 Q1538 0 1408 0 L640 0 Q510 0 391.5 51 Q273 102 187.5 187.5 Q102 273 51 391.5 Q0 510 0 640 Q0 770 51 888.5 Q102 1007 187.5 1092.5 Q273 1178 391.5 1229 Q510 1280 640 1280 L1408 1280 Q1538 1280 1656.5 1229 Q1775 1178 1860.5 1092.5 Q1946 1007 1997 888.5 Q2048 770 2048 640 z" pathLength="0" fill="White" transform="translate(-1.142858, 7.152557E-07) scale(0.008928572, -0.008928572) translate(0, -1536)" />
</svg>