<!DOCTYPE svg PUBLIC "-//W3C//DTD SVG 1.1//EN" "http://www.w3.org/Graphics/SVG/1.1/DTD/svg11.dtd">
<svg xmlns="http://www.w3.org/2000/svg" xmlns:xlink="http://www.w3.org/1999/xlink" version="1.1" x="0" y="0" width="16" height="16" overflow="auto" preserveAspectRatio="xMidYMid" baseProfile="tiny" space="preserve">
  <path d="M1088 640 Q1088 607 1061 588 L613 268 Q582 245 547 263 Q512 280 512 320 L512 960 Q512 1000 547 1017 Q582 1035 613 1012 L1061 692 Q1088 673 1088 640 z M1280 160 L1280 1120 Q1280 1134 1271 1143 Q1262 1152 1248 1152 L288 1152 Q274 1152 265 1143 Q256 1134 256 1120 L256 160 Q256 146 265 137 Q274 128 288 128 L1248 128 Q1262 128 1271 137 Q1280 146 1280 160 z M1536 1120 L1536 160 Q1536 41 1451.5 -43.5 Q1367 -128 1248 -128 L288 -128 Q169 -128 84.5 -43.5 Q0 41 0 160 L0 1120 Q0 1239 84.5 1323.5 Q169 1408 288 1408 L1248 1408 Q1367 1408 1451.5 1323.5 Q1536 1239 1536 1120 z" pathLength="0" fill="White" transform="translate(1.142857, 1.311302E-06) scale(0.008928572, -0.008928572) translate(0, -1536)" />
</svg>