<!DOCTYPE svg PUBLIC "-//W3C//DTD SVG 1.1//EN" "http://www.w3.org/Graphics/SVG/1.1/DTD/svg11.dtd">
<svg xmlns="http://www.w3.org/2000/svg" xmlns:xlink="http://www.w3.org/1999/xlink" version="1.1" x="0" y="0" width="16" height="16" overflow="auto" preserveAspectRatio="xMidYMid" baseProfile="tiny" space="preserve">
  <path d="M0 640 Q0 770 51 888.5 Q102 1007 187.5 1092.5 Q273 1178 391.5 1229 Q510 1280 640 1280 L1408 1280 Q1538 1280 1656.5 1229 Q1775 1178 1860.5 1092.5 Q1946 1007 1997 888.5 Q2048 770 2048 640 Q2048 510 1997 391.5 Q1946 273 1860.5 187.5 Q1775 102 1656.5 51 Q1538 0 1408 0 L640 0 Q510 0 391.5 51 Q273 102 187.5 187.5 Q102 273 51 391.5 Q0 510 0 640 z M1408 128 Q1512 128 1606.5 168.5 Q1701 209 1770 278 Q1839 347 1879.5 441.5 Q1920 536 1920 640 Q1920 744 1879.5 838.5 Q1839 933 1770 1002 Q1701 1071 1606.5 1111.5 Q1512 1152 1408 1152 Q1304 1152 1209.5 1111.5 Q1115 1071 1046 1002 Q977 933 936.5 838.5 Q896 744 896 640 Q896 536 936.5 441.5 Q977 347 1046 278 Q1115 209 1209.5 168.5 Q1304 128 1408 128 z" pathLength="0" fill="White" transform="translate(-1.142858, 7.152557E-07) scale(0.008928572, -0.008928572) translate(0, -1536)" />
</svg>