<!DOCTYPE svg PUBLIC "-//W3C//DTD SVG 1.1//EN" "http://www.w3.org/Graphics/SVG/1.1/DTD/svg11.dtd">
<svg xmlns="http://www.w3.org/2000/svg" xmlns:xlink="http://www.w3.org/1999/xlink" version="1.1" x="0" y="0" width="16" height="16" overflow="auto" preserveAspectRatio="xMidYMid" baseProfile="tiny" space="preserve">
  <path d="M1145 419 Q1128 384 1088 384 L448 384 Q408 384 391 419 Q373 454 396 485 L716 933 Q735 960 768 960 Q801 960 820 933 L1140 485 Q1163 454 1145 419 z M1280 160 L1280 1120 Q1280 1133 1270.5 1142.5 Q1261 1152 1248 1152 L288 1152 Q275 1152 265.5 1142.5 Q256 1133 256 1120 L256 160 Q256 147 265.5 137.5 Q275 128 288 128 L1248 128 Q1261 128 1270.5 137.5 Q1280 147 1280 160 z M1536 1120 L1536 160 Q1536 41 1451.5 -43.5 Q1367 -128 1248 -128 L288 -128 Q169 -128 84.5 -43.5 Q0 41 0 160 L0 1120 Q0 1239 84.5 1323.5 Q169 1408 288 1408 L1248 1408 Q1367 1408 1451.5 1323.5 Q1536 1239 1536 1120 z" pathLength="0" fill="White" transform="translate(1.142857, 1.311302E-06) scale(0.008928572, -0.008928572) translate(0, -1536)" />
</svg>