<!DOCTYPE svg PUBLIC "-//W3C//DTD SVG 1.1//EN" "http://www.w3.org/Graphics/SVG/1.1/DTD/svg11.dtd">
<svg xmlns="http://www.w3.org/2000/svg" xmlns:xlink="http://www.w3.org/1999/xlink" version="1.1" x="0" y="0" width="16" height="16" overflow="auto" preserveAspectRatio="xMidYMid" baseProfile="tiny" space="preserve">
  <path d="M857 992 L857 875 Q857 862 847.5 853 Q838 844 825 844 L527 844 L527 32 Q527 19 518 9.5 Q509 0 496 0 L361 0 Q348 0 338.5 9 Q329 18 329 32 L329 844 L32 844 Q19 844 9.5 853 Q0 862 0 875 L0 992 Q0 1006 9 1015 Q18 1024 32 1024 L825 1024 Q838 1024 847.5 1014.5 Q857 1005 857 992 z M1895 995 L1972 34 Q1973 21 1964 10 Q1954 0 1941 0 L1807 0 Q1795 0 1786 8.5 Q1777 17 1776 29 L1730 617 L1541 192 Q1533 173 1512 173 L1392 173 Q1372 173 1363 192 L1175 619 L1130 29 Q1129 17 1120 8.5 Q1111 0 1099 0 L964 0 Q951 0 941 10 Q932 20 932 34 L1010 995 Q1011 1007 1020 1015.5 Q1029 1024 1041 1024 L1183 1024 Q1203 1024 1212 1005 L1432 485 Q1442 461 1452 434 Q1455 441 1461.5 458.5 Q1468 476 1472 485 L1693 1005 Q1702 1024 1722 1024 L1863 1024 Q1876 1024 1885 1015.5 Q1894 1007 1895 995 z" pathLength="0" fill="White" transform="translate(-0.8065472, -1.142857) scale(0.008928572, -0.008928572) translate(0, -1536)" />
</svg>