<!DOCTYPE svg PUBLIC "-//W3C//DTD SVG 1.1//EN" "http://www.w3.org/Graphics/SVG/1.1/DTD/svg11.dtd">
<svg xmlns="http://www.w3.org/2000/svg" xmlns:xlink="http://www.w3.org/1999/xlink" version="1.1" x="0" y="0" width="16" height="16" overflow="auto" preserveAspectRatio="xMidYMid" baseProfile="tiny" space="preserve">
  <path d="M1280 1504 Q1280 1518 1289 1527 Q1298 1536 1312 1536 L1600 1536 Q1626 1536 1645 1517 Q1664 1498 1664 1472 L1664 1184 Q1664 1170 1655 1161 Q1646 1152 1632 1152 L1568 1152 Q1554 1152 1545 1161 Q1536 1170 1536 1184 L1536 1318 L1282 1063 Q1408 905 1408 704 Q1408 483 1260.5 319.5 Q1113 156 896 132 L896 0 L992 0 Q1006 0 1015 -9 Q1024 -18 1024 -32 L1024 -96 Q1024 -110 1015 -119 Q1006 -128 992 -128 L896 -128 L896 -224 Q896 -238 887 -247 Q878 -256 864 -256 L800 -256 Q786 -256 777 -247 Q768 -238 768 -224 L768 -128 L672 -128 Q658 -128 649 -119 Q640 -110 640 -96 L640 -32 Q640 -18 649 -9 Q658 0 672 0 L768 0 L768 132 Q551 156 403.5 319.5 Q256 483 256 704 Q256 905 382 1063 L330 1116 L229 1005 Q220 995 207 994.5 Q194 994 184 1002 L136 1046 Q126 1054 125.5 1067.5 Q125 1081 134 1091 L239 1206 L128 1318 L128 1184 Q128 1170 119 1161 Q110 1152 96 1152 L32 1152 Q18 1152 9 1161 Q0 1170 0 1184 L0 1472 Q0 1498 19 1517 Q38 1536 64 1536 L352 1536 Q366 1536 375 1527 Q384 1518 384 1504 L384 1440 Q384 1426 375 1417 Q366 1408 352 1408 L219 1408 L325 1301 L411 1395 Q420 1405 433 1405.5 Q446 1406 456 1398 L504 1354 Q514 1346 514.5 1332.5 Q515 1319 506 1309 L416 1210 L473 1154 Q631 1280 832 1280 Q1033 1280 1191 1154 L1446 1408 L1312 1408 Q1298 1408 1289 1417 Q1280 1426 1280 1440 L1280 1504 z M832 256 Q1017 256 1148.5 387.5 Q1280 519 1280 704 Q1280 889 1148.5 1020.5 Q1017 1152 832 1152 Q647 1152 515.5 1020.5 Q384 889 384 704 Q384 519 515.5 387.5 Q647 256 832 256 z" pathLength="0" fill="White" transform="translate(0.5714283, 9.536743E-07) scale(0.008928572, -0.008928572) translate(0, -1536)" />
</svg>