<!DOCTYPE svg PUBLIC "-//W3C//DTD SVG 1.1//EN" "http://www.w3.org/Graphics/SVG/1.1/DTD/svg11.dtd">
<svg xmlns="http://www.w3.org/2000/svg" xmlns:xlink="http://www.w3.org/1999/xlink" version="1.1" x="0" y="0" width="16" height="16" overflow="auto" preserveAspectRatio="xMidYMid" baseProfile="tiny" space="preserve">
  <path d="M512 160 L512 864 Q512 878 503 887 Q494 896 480 896 L416 896 Q402 896 393 887 Q384 878 384 864 L384 160 Q384 146 393 137 Q402 128 416 128 L480 128 Q494 128 503 137 Q512 146 512 160 z M768 160 L768 864 Q768 878 759 887 Q750 896 736 896 L672 896 Q658 896 649 887 Q640 878 640 864 L640 160 Q640 146 649 137 Q658 128 672 128 L736 128 Q750 128 759 137 Q768 146 768 160 z M1024 160 L1024 864 Q1024 878 1015 887 Q1006 896 992 896 L928 896 Q914 896 905 887 Q896 878 896 864 L896 160 Q896 146 905 137 Q914 128 928 128 L992 128 Q1006 128 1015 137 Q1024 146 1024 160 z M480 1152 L928 1152 L880 1269 Q873 1278 863 1280 L546 1280 Q536 1278 529 1269 z M1408 1120 L1408 1056 Q1408 1042 1399 1033 Q1390 1024 1376 1024 L1280 1024 L1280 76 Q1280 -7 1233 -67.5 Q1186 -128 1120 -128 L288 -128 Q222 -128 175 -69.5 Q128 -11 128 72 L128 1024 L32 1024 Q18 1024 9 1033 Q0 1042 0 1056 L0 1120 Q0 1134 9 1143 Q18 1152 32 1152 L341 1152 L411 1319 Q426 1356 465 1382 Q504 1408 544 1408 L864 1408 Q904 1408 943 1382 Q982 1356 997 1319 L1067 1152 L1376 1152 Q1390 1152 1399 1143 Q1408 1134 1408 1120 z" pathLength="0" fill="White" transform="translate(1.714286, 1.311302E-06) scale(0.008928572, -0.008928572) translate(0, -1536)" />
</svg>