<!DOCTYPE svg PUBLIC "-//W3C//DTD SVG 1.1//EN" "http://www.w3.org/Graphics/SVG/1.1/DTD/svg11.dtd">
<svg xmlns="http://www.w3.org/2000/svg" xmlns:xlink="http://www.w3.org/1999/xlink" version="1.1" x="0" y="0" width="16" height="16" overflow="auto" preserveAspectRatio="xMidYMid" baseProfile="tiny" space="preserve">
  <path d="M512 800 L512 224 Q512 210 503 201 Q494 192 480 192 L416 192 Q402 192 393 201 Q384 210 384 224 L384 800 Q384 814 393 823 Q402 832 416 832 L480 832 Q494 832 503 823 Q512 814 512 800 z M768 800 L768 224 Q768 210 759 201 Q750 192 736 192 L672 192 Q658 192 649 201 Q640 210 640 224 L640 800 Q640 814 649 823 Q658 832 672 832 L736 832 Q750 832 759 823 Q768 814 768 800 z M1024 800 L1024 224 Q1024 210 1015 201 Q1006 192 992 192 L928 192 Q914 192 905 201 Q896 210 896 224 L896 800 Q896 814 905 823 Q914 832 928 832 L992 832 Q1006 832 1015 823 Q1024 814 1024 800 z M1152 76 L1152 1024 L256 1024 L256 76 Q256 54 263 35.5 Q270 17 277.5 8.5 Q285 0 288 0 L1120 0 Q1123 0 1130.5 8.5 Q1138 17 1145 35.5 Q1152 54 1152 76 z M480 1152 L928 1152 L880 1269 Q873 1278 863 1280 L546 1280 Q536 1278 529 1269 z M1408 1120 L1408 1056 Q1408 1042 1399 1033 Q1390 1024 1376 1024 L1280 1024 L1280 76 Q1280 -7 1233 -67.5 Q1186 -128 1120 -128 L288 -128 Q222 -128 175 -69.5 Q128 -11 128 72 L128 1024 L32 1024 Q18 1024 9 1033 Q0 1042 0 1056 L0 1120 Q0 1134 9 1143 Q18 1152 32 1152 L341 1152 L411 1319 Q426 1356 465 1382 Q504 1408 544 1408 L864 1408 Q904 1408 943 1382 Q982 1356 997 1319 L1067 1152 L1376 1152 Q1390 1152 1399 1143 Q1408 1134 1408 1120 z" pathLength="0" fill="White" transform="translate(1.714286, 1.311302E-06) scale(0.008928572, -0.008928572) translate(0, -1536)" />
</svg>