<!DOCTYPE svg PUBLIC "-//W3C//DTD SVG 1.1//EN" "http://www.w3.org/Graphics/SVG/1.1/DTD/svg11.dtd">
<svg xmlns="http://www.w3.org/2000/svg" xmlns:xlink="http://www.w3.org/1999/xlink" version="1.1" x="0" y="0" width="16" height="16" overflow="auto" preserveAspectRatio="xMidYMid" baseProfile="tiny" space="preserve">
  <path d="M1504 64 Q1504 38 1485 19 Q1466 0 1440 0 L978 0 Q979 -17 984 -87.5 Q989 -158 989 -196 Q989 -221 971 -238.5 Q953 -256 928 -256 L608 -256 Q583 -256 565 -238.5 Q547 -221 547 -196 Q547 -158 552 -87.5 Q557 -17 558 0 L96 0 Q70 0 51 19 Q32 38 32 64 Q32 90 51 109 L453 512 L224 512 Q198 512 179 531 Q160 550 160 576 Q160 602 179 621 L581 1024 L384 1024 Q358 1024 339 1043 Q320 1062 320 1088 Q320 1114 339 1133 L723 1517 Q742 1536 768 1536 Q794 1536 813 1517 L1197 1133 Q1216 1114 1216 1088 Q1216 1062 1197 1043 Q1178 1024 1152 1024 L955 1024 L1357 621 Q1376 602 1376 576 Q1376 550 1357 531 Q1338 512 1312 512 L1083 512 L1485 109 Q1504 90 1504 64 z" pathLength="0" fill="White" transform="translate(1.142858, 9.536743E-07) scale(0.008928572, -0.008928572) translate(0, -1536)" />
</svg>