<!DOCTYPE svg PUBLIC "-//W3C//DTD SVG 1.1//EN" "http://www.w3.org/Graphics/SVG/1.1/DTD/svg11.dtd">
<svg xmlns="http://www.w3.org/2000/svg" xmlns:xlink="http://www.w3.org/1999/xlink" version="1.1" x="0" y="0" width="16" height="16" overflow="auto" preserveAspectRatio="xMidYMid" baseProfile="tiny" space="preserve">
  <path d="M704 192 L704 1216 Q704 1230 695 1239 Q686 1248 672 1248 L192 1248 Q178 1248 169 1239 Q160 1230 160 1216 L160 192 Q160 178 169 169 Q178 160 192 160 L672 160 Q686 160 695 169 Q704 178 704 192 z M1376 576 L1376 1216 Q1376 1230 1367 1239 Q1358 1248 1344 1248 L864 1248 Q850 1248 841 1239 Q832 1230 832 1216 L832 576 Q832 562 841 553 Q850 544 864 544 L1344 544 Q1358 544 1367 553 Q1376 562 1376 576 z M1536 1344 L1536 -64 Q1536 -90 1517 -109 Q1498 -128 1472 -128 L64 -128 Q38 -128 19 -109 Q0 -90 0 -64 L0 1344 Q0 1370 19 1389 Q38 1408 64 1408 L1472 1408 Q1498 1408 1517 1389 Q1536 1370 1536 1344 z" pathLength="0" fill="White" transform="translate(1.142857, 1.311302E-06) scale(0.008928572, -0.008928572) translate(0, -1536)" />
</svg>