<!DOCTYPE svg PUBLIC "-//W3C//DTD SVG 1.1//EN" "http://www.w3.org/Graphics/SVG/1.1/DTD/svg11.dtd">
<svg xmlns="http://www.w3.org/2000/svg" xmlns:xlink="http://www.w3.org/1999/xlink" version="1.1" x="0" y="0" width="16" height="16" overflow="auto" preserveAspectRatio="xMidYMid" baseProfile="tiny" space="preserve">
  <path d="M651 539 Q651 500 623.5 472.5 Q596 445 558 445 Q519 445 491.5 472.5 Q464 500 464 539 Q464 577 491.5 604.5 Q519 632 558 632 Q596 632 623.5 604.5 Q651 577 651 539 z M1805 540 Q1805 501 1777.5 473.5 Q1750 446 1711 446 Q1672 446 1644.5 473.5 Q1617 501 1617 540 Q1617 579 1644.5 606 Q1672 633 1711 633 Q1750 633 1777.5 606 Q1805 579 1805 540 z M765 539 Q765 618 708.5 675 Q652 732 572 732 Q492 732 435.5 675.5 Q379 619 379 539 Q379 459 435.5 402.5 Q492 346 572 346 Q652 346 708.5 402.5 Q765 459 765 539 z M1918 540 Q1918 620 1861.5 676.5 Q1805 733 1725 733 Q1646 733 1589 676.5 Q1532 620 1532 540 Q1532 460 1588.5 403.5 Q1645 347 1725 347 Q1805 347 1861.5 403.5 Q1918 460 1918 540 z M850 539 Q850 423 768.5 341.5 Q687 260 572 260 Q456 260 374.5 342 Q293 424 293 539 Q293 654 375 735.5 Q457 817 572 817 Q687 817 768.5 735.5 Q850 654 850 539 z M2004 540 Q2004 425 1922.5 343.5 Q1841 262 1725 262 Q1610 262 1528.5 343.5 Q1447 425 1447 540 Q1447 655 1528.5 736.5 Q1610 818 1725 818 Q1841 818 1922.5 736.5 Q2004 655 2004 540 z M1040 537 Q1040 728 904.5 863.5 Q769 999 578 999 Q453 999 347 937 Q241 875 179 768.5 Q117 662 117 537 Q117 412 179 305.5 Q241 199 347 137 Q453 75 578 75 Q769 75 904.5 210.5 Q1040 346 1040 537 z M1708 1110 Q1454 1221 1152 1221 Q833 1221 579 1111 Q696 1111 802 1065.5 Q908 1020 984.5 943 Q1061 866 1106.5 760 Q1152 654 1152 537 Q1152 652 1195.5 756.5 Q1239 861 1313.5 937 Q1388 1013 1491 1060 Q1594 1107 1708 1110 z M2187 537 Q2187 728 2052 863.5 Q1917 999 1726 999 Q1535 999 1399.5 863.5 Q1264 728 1264 537 Q1264 346 1399.5 210.5 Q1535 75 1726 75 Q1917 75 2052 210.5 Q2187 346 2187 537 z M1921 1103 L2304 1103 Q2260 1052 2229 988.5 Q2198 925 2189 874 Q2299 723 2299 537 Q2299 381 2222 249 Q2145 117 2013 40.5 Q1881 -36 1726 -36 Q1593 -36 1477 20 Q1361 76 1281 175 Q1234 119 1152 -4 Q1141 18 1098.5 78.5 Q1056 139 1024 176 Q944 77 827.5 20.5 Q711 -36 578 -36 Q423 -36 291 40.5 Q159 117 82 249 Q5 381 5 537 Q5 723 115 874 Q106 925 75 988.5 Q44 1052 0 1103 L365 1103 Q514 1203 720 1259.5 Q926 1316 1152 1316 Q1376 1316 1573 1260 Q1770 1204 1921 1103 z" pathLength="0" fill="White" transform="translate(-2.285714, 1.072884E-06) scale(0.008928572, -0.008928572) translate(0, -1536)" />
</svg>