<!DOCTYPE svg PUBLIC "-//W3C//DTD SVG 1.1//EN" "http://www.w3.org/Graphics/SVG/1.1/DTD/svg11.dtd">
<svg xmlns="http://www.w3.org/2000/svg" xmlns:xlink="http://www.w3.org/1999/xlink" version="1.1" x="0" y="0" width="16" height="16" overflow="auto" preserveAspectRatio="xMidYMid" baseProfile="tiny" space="preserve">
  <path d="M640 128 Q640 180 602 218 Q564 256 512 256 Q460 256 422 218 Q384 180 384 128 Q384 76 422 38 Q460 0 512 0 Q564 0 602 38 Q640 76 640 128 z M256 640 L640 640 L640 896 L482 896 Q469 896 460 887 L265 692 Q256 683 256 670 L256 640 z M1536 128 Q1536 180 1498 218 Q1460 256 1408 256 Q1356 256 1318 218 Q1280 180 1280 128 Q1280 76 1318 38 Q1356 0 1408 0 Q1460 0 1498 38 Q1536 76 1536 128 z M1792 1216 L1792 192 Q1792 177 1788 165.5 Q1784 154 1774.5 147 Q1765 140 1758 135.5 Q1751 131 1734.5 129.5 Q1718 128 1712 127.5 Q1706 127 1686.5 127.5 Q1667 128 1664 128 Q1664 22 1589 -53 Q1514 -128 1408 -128 Q1302 -128 1227 -53 Q1152 22 1152 128 L768 128 Q768 22 693 -53 Q618 -128 512 -128 Q406 -128 331 -53 Q256 22 256 128 L192 128 Q189 128 169.5 127.5 Q150 127 144 127.5 Q138 128 121.5 129.5 Q105 131 98 135.5 Q91 140 81.5 147 Q72 154 68 165.5 Q64 177 64 192 Q64 218 83 237 Q102 256 128 256 L128 576 Q128 584 127.5 611 Q127 638 127.5 649 Q128 660 130 683.5 Q132 707 136.5 720.5 Q141 734 150.5 751 Q160 768 173 781 L371 979 Q390 998 421.5 1011 Q453 1024 480 1024 L640 1024 L640 1216 Q640 1242 659 1261 Q678 1280 704 1280 L1728 1280 Q1754 1280 1773 1261 Q1792 1242 1792 1216 z" pathLength="0" fill="White" transform="translate(-0.2857135, -0.5714276) scale(0.008928572, -0.008928572) translate(0, -1536)" />
</svg>