<!DOCTYPE svg PUBLIC "-//W3C//DTD SVG 1.1//EN" "http://www.w3.org/Graphics/SVG/1.1/DTD/svg11.dtd">
<svg xmlns="http://www.w3.org/2000/svg" xmlns:xlink="http://www.w3.org/1999/xlink" version="1.1" x="0" y="0" width="16" height="16" overflow="auto" preserveAspectRatio="xMidYMid" baseProfile="tiny" space="preserve">
  <path d="M448 224 L448 32 Q448 18 439 9 Q430 0 416 0 L224 0 Q210 0 201 9 Q192 18 192 32 L192 224 Q192 238 201 247 Q210 256 224 256 L416 256 Q430 256 439 247 Q448 238 448 224 z M256 608 L256 416 Q256 402 247 393 Q238 384 224 384 L32 384 Q18 384 9 393 Q0 402 0 416 L0 608 Q0 622 9 631 Q18 640 32 640 L224 640 Q238 640 247 631 Q256 622 256 608 z M832 224 L832 32 Q832 18 823 9 Q814 0 800 0 L608 0 Q594 0 585 9 Q576 18 576 32 L576 224 Q576 238 585 247 Q594 256 608 256 L800 256 Q814 256 823 247 Q832 238 832 224 z M640 608 L640 416 Q640 402 631 393 Q622 384 608 384 L416 384 Q402 384 393 393 Q384 402 384 416 L384 608 Q384 622 393 631 Q402 640 416 640 L608 640 Q622 640 631 631 Q640 622 640 608 z M66 768 Q38 768 19 787 Q0 806 0 833 L0 962 L514 962 L514 833 Q514 806 495 787 Q476 768 449 768 L66 768 z M1216 224 L1216 32 Q1216 18 1207 9 Q1198 0 1184 0 L992 0 Q978 0 969 9 Q960 18 960 32 L960 224 Q960 238 969 247 Q978 256 992 256 L1184 256 Q1198 256 1207 247 Q1216 238 1216 224 z M1024 608 L1024 416 Q1024 402 1015 393 Q1006 384 992 384 L800 384 Q786 384 777 393 Q768 402 768 416 L768 608 Q768 622 777 631 Q786 640 800 640 L992 640 Q1006 640 1015 631 Q1024 622 1024 608 z M1600 224 L1600 32 Q1600 18 1591 9 Q1582 0 1568 0 L1376 0 Q1362 0 1353 9 Q1344 18 1344 32 L1344 224 Q1344 238 1353 247 Q1362 256 1376 256 L1568 256 Q1582 256 1591 247 Q1600 238 1600 224 z M1408 608 L1408 416 Q1408 402 1399 393 Q1390 384 1376 384 L1184 384 Q1170 384 1161 393 Q1152 402 1152 416 L1152 608 Q1152 622 1161 631 Q1170 640 1184 640 L1376 640 Q1390 640 1399 631 Q1408 622 1408 608 z M1792 1016 L1792 1003 L1278 1003 L1278 1013 Q1278 1117 896 1115 Q514 1114 514 1013 L514 1003 L0 1003 L0 1016 Q0 1033 8.5 1059 Q17 1085 42.5 1123 Q68 1161 108 1198.5 Q148 1236 218.5 1274.5 Q289 1313 378.5 1342 Q468 1371 602.5 1389.5 Q737 1408 896 1408 Q1055 1408 1189 1389.5 Q1323 1371 1413 1342 Q1503 1313 1573.5 1274.5 Q1644 1236 1684 1198.5 Q1724 1161 1749.5 1123 Q1775 1085 1783.5 1059 Q1792 1033 1792 1016 z M1792 608 L1792 416 Q1792 402 1783 393 Q1774 384 1760 384 L1568 384 Q1554 384 1545 393 Q1536 402 1536 416 L1536 608 Q1536 622 1545 631 Q1554 640 1568 640 L1760 640 Q1774 640 1783 631 Q1792 622 1792 608 z M1792 962 L1792 833 Q1792 806 1773 787 Q1754 768 1727 768 L1343 768 Q1316 768 1297 787 Q1278 806 1278 833 L1278 962 L1792 962 z" pathLength="0" fill="White" transform="translate(0, 0.5714296) scale(0.008928572, -0.008928572) translate(0, -1536)" />
</svg>