<!DOCTYPE svg PUBLIC "-//W3C//DTD SVG 1.1//EN" "http://www.w3.org/Graphics/SVG/1.1/DTD/svg11.dtd">
<svg xmlns="http://www.w3.org/2000/svg" xmlns:xlink="http://www.w3.org/1999/xlink" version="1.1" x="0" y="0" width="16" height="16" overflow="auto" preserveAspectRatio="xMidYMid" baseProfile="tiny" space="preserve">
  <path d="M1136 75 L1074 258 Q1030 236 971 236 Q935 235 909 246.5 Q883 258 870.5 278 Q858 298 853 318.5 Q848 339 848 362 L848 760 L1105 760 L1105 954 L849 954 L849 1280 L661 1280 Q653 1280 652 1270 Q647 1226 634.5 1183 Q622 1140 595.5 1088 Q569 1036 518.5 993 Q468 950 400 925 L400 760 L530 760 L530 342 Q530 285 551.5 227 Q573 169 616.5 116 Q660 63 737.5 30.5 Q815 -2 914 0 Q983 1 1050.5 25 Q1118 49 1136 75 z M1536 1120 L1536 160 Q1536 41 1451.5 -43.5 Q1367 -128 1248 -128 L288 -128 Q169 -128 84.5 -43.5 Q0 41 0 160 L0 1120 Q0 1239 84.5 1323.5 Q169 1408 288 1408 L1248 1408 Q1367 1408 1451.5 1323.5 Q1536 1239 1536 1120 z" pathLength="0" fill="White" transform="translate(1.142857, 1.311302E-06) scale(0.008928572, -0.008928572) translate(0, -1536)" />
</svg>