<!DOCTYPE svg PUBLIC "-//W3C//DTD SVG 1.1//EN" "http://www.w3.org/Graphics/SVG/1.1/DTD/svg11.dtd">
<svg xmlns="http://www.w3.org/2000/svg" xmlns:xlink="http://www.w3.org/1999/xlink" version="1.1" x="0" y="0" width="16" height="16" overflow="auto" preserveAspectRatio="xMidYMid" baseProfile="tiny" space="preserve">
  <path d="M944 207 L1024 -30 Q1001 -65 913 -96 Q825 -127 736 -128 Q632 -130 545.5 -102 Q459 -74 403 -28 Q347 18 308 78 Q269 138 252.5 198 Q236 258 236 316 L236 860 L68 860 L68 1075 Q140 1101 197 1144.5 Q254 1188 288 1234.5 Q322 1281 346 1336.5 Q370 1392 380 1435.5 Q390 1479 395 1524 Q396 1529 399.5 1532.5 Q403 1536 407 1536 L651 1536 L651 1112 L984 1112 L984 860 L650 860 L650 342 Q650 312 656.5 286 Q663 260 679 233.5 Q695 207 728.5 192 Q762 177 810 178 Q888 180 944 207 z" pathLength="0" fill="White" transform="translate(3.125, 0.5654774) scale(0.008928572, -0.008928572) translate(0, -1536)" />
</svg>