<!DOCTYPE svg PUBLIC "-//W3C//DTD SVG 1.1//EN" "http://www.w3.org/Graphics/SVG/1.1/DTD/svg11.dtd">
<svg xmlns="http://www.w3.org/2000/svg" xmlns:xlink="http://www.w3.org/1999/xlink" version="1.1" x="0" y="0" width="16" height="16" overflow="auto" preserveAspectRatio="xMidYMid" baseProfile="tiny" space="preserve">
  <path d="M1152 704 Q1152 513 1057.5 351 Q963 189 801 94.5 Q639 0 448 0 L288 0 Q274 0 265 9 Q256 18 256 32 L256 643 L41 577 Q38 576 32 576 Q22 576 13 582 Q0 592 0 608 L0 736 Q0 759 23 767 L256 838 L256 931 L41 865 Q38 864 32 864 Q22 864 13 870 Q0 880 0 896 L0 1024 Q0 1047 23 1055 L256 1126 L256 1376 Q256 1390 265 1399 Q274 1408 288 1408 L448 1408 Q462 1408 471 1399 Q480 1390 480 1376 L480 1195 L855 1311 Q870 1316 883 1306 Q896 1296 896 1280 L896 1152 Q896 1129 873 1121 L480 1000 L480 907 L855 1023 Q870 1028 883 1018 Q896 1008 896 992 L896 864 Q896 841 873 833 L480 712 L480 225 Q668 238 798 376 Q928 514 928 704 Q928 718 937 727 Q946 736 960 736 L1120 736 Q1134 736 1143 727 Q1152 718 1152 704 z" pathLength="0" fill="White" transform="translate(2.857143, 0.5714296) scale(0.008928572, -0.008928572) translate(0, -1536)" />
</svg>