<!DOCTYPE svg PUBLIC "-//W3C//DTD SVG 1.1//EN" "http://www.w3.org/Graphics/SVG/1.1/DTD/svg11.dtd">
<svg xmlns="http://www.w3.org/2000/svg" xmlns:xlink="http://www.w3.org/1999/xlink" version="1.1" x="0" y="0" width="16" height="16" overflow="auto" preserveAspectRatio="xMidYMid" baseProfile="tiny" space="preserve">
  <path d="M1792 288 L1792 1248 Q1792 1261 1782.5 1270.5 Q1773 1280 1760 1280 L160 1280 Q147 1280 137.5 1270.5 Q128 1261 128 1248 L128 288 Q128 275 137.5 265.5 Q147 256 160 256 L1760 256 Q1773 256 1782.5 265.5 Q1792 275 1792 288 z M1920 1248 L1920 288 Q1920 222 1873 175 Q1826 128 1760 128 L1024 128 L1024 0 L1376 0 Q1390 0 1399 -9 Q1408 -18 1408 -32 L1408 -96 Q1408 -110 1399 -119 Q1390 -128 1376 -128 L544 -128 Q530 -128 521 -119 Q512 -110 512 -96 L512 -32 Q512 -18 521 -9 Q530 0 544 0 L896 0 L896 128 L160 128 Q94 128 47 175 Q0 222 0 288 L0 1248 Q0 1314 47 1361 Q94 1408 160 1408 L1760 1408 Q1826 1408 1873 1361 Q1920 1314 1920 1248 z" pathLength="0" fill="White" transform="translate(-0.5714283, 1.311302E-06) scale(0.008928572, -0.008928572) translate(0, -1536)" />
</svg>