<!DOCTYPE svg PUBLIC "-//W3C//DTD SVG 1.1//EN" "http://www.w3.org/Graphics/SVG/1.1/DTD/svg11.dtd">
<svg xmlns="http://www.w3.org/2000/svg" xmlns:xlink="http://www.w3.org/1999/xlink" version="1.1" x="0" y="0" width="16" height="16" overflow="auto" preserveAspectRatio="xMidYMid" baseProfile="tiny" space="preserve">
  <path d="M1620 1128 Q1553 1030 1458 961 Q1459 947 1459 919 Q1459 789 1421 659.5 Q1383 530 1305.5 411 Q1228 292 1121 200.5 Q1014 109 863 54.5 Q712 0 540 0 Q269 0 44 145 Q79 141 122 141 Q347 141 523 279 Q418 281 335 343.5 Q252 406 221 503 Q254 498 282 498 Q325 498 367 509 Q255 532 181.5 620.5 Q108 709 108 826 L108 830 Q176 792 254 789 Q188 833 149 904 Q110 975 110 1058 Q110 1146 154 1221 Q275 1072 448.5 982.5 Q622 893 820 883 Q812 921 812 957 Q812 1091 906.5 1185.5 Q1001 1280 1135 1280 Q1275 1280 1371 1178 Q1480 1199 1576 1256 Q1539 1141 1434 1078 Q1527 1088 1620 1128 z" pathLength="0" fill="White" transform="translate(0.5714292, 7.152557E-07) scale(0.008928572, -0.008928572) translate(0, -1536)" />
</svg>