<!DOCTYPE svg PUBLIC "-//W3C//DTD SVG 1.1//EN" "http://www.w3.org/Graphics/SVG/1.1/DTD/svg11.dtd">
<svg xmlns="http://www.w3.org/2000/svg" xmlns:xlink="http://www.w3.org/1999/xlink" version="1.1" x="0" y="0" width="16" height="16" overflow="auto" preserveAspectRatio="xMidYMid" baseProfile="tiny" space="preserve">
  <path d="M1280 926 Q1224 901 1159 892 Q1227 932 1252 1009 Q1187 971 1118 958 Q1057 1024 965 1024 Q878 1024 816.5 962.5 Q755 901 755 814 Q755 785 760 766 Q631 773 518 831 Q405 889 326 986 Q297 936 297 880 Q297 766 388 705 Q341 706 288 731 L288 729 Q288 654 338 595.5 Q388 537 461 523 Q432 515 410 515 Q397 515 371 519 Q392 456 445.5 415 Q499 374 567 373 Q451 283 306 283 Q280 283 256 286 Q404 192 578 192 Q690 192 788 227.5 Q886 263 956 322.5 Q1026 382 1076.5 459.5 Q1127 537 1151.5 621.5 Q1176 706 1176 790 Q1176 808 1175 817 Q1238 862 1280 926 z M1536 1120 L1536 160 Q1536 41 1451.5 -43.5 Q1367 -128 1248 -128 L288 -128 Q169 -128 84.5 -43.5 Q0 41 0 160 L0 1120 Q0 1239 84.5 1323.5 Q169 1408 288 1408 L1248 1408 Q1367 1408 1451.5 1323.5 Q1536 1239 1536 1120 z" pathLength="0" fill="White" transform="translate(1.142857, 1.311302E-06) scale(0.008928572, -0.008928572) translate(0, -1536)" />
</svg>