<!DOCTYPE svg PUBLIC "-//W3C//DTD SVG 1.1//EN" "http://www.w3.org/Graphics/SVG/1.1/DTD/svg11.dtd">
<svg xmlns="http://www.w3.org/2000/svg" xmlns:xlink="http://www.w3.org/1999/xlink" version="1.1" x="0" y="0" width="16" height="16" overflow="auto" preserveAspectRatio="xMidYMid" baseProfile="tiny" space="preserve">
  <path d="M896 1102 L896 668 L751 668 L751 1102 L896 1102 z M1294 1102 L1294 668 L1149 668 L1149 1102 L1294 1102 z M1294 342 L1547 596 L1547 1391 L353 1391 L353 342 L679 342 L679 125 L896 342 L1294 342 z M1692 1536 L1692 523 L1258 89 L932 89 L715 -128 L498 -128 L498 89 L100 89 L100 1247 L209 1536 L1692 1536 z" pathLength="0" fill="White" transform="translate(4.172325E-07, 0.5714297) scale(0.008928572, -0.008928572) translate(0, -1536)" />
</svg>