<!DOCTYPE svg PUBLIC "-//W3C//DTD SVG 1.1//EN" "http://www.w3.org/Graphics/SVG/1.1/DTD/svg11.dtd">
<svg xmlns="http://www.w3.org/2000/svg" xmlns:xlink="http://www.w3.org/1999/xlink" version="1.1" x="0" y="0" width="16" height="16" overflow="auto" preserveAspectRatio="xMidYMid" baseProfile="tiny" space="preserve">
  <path d="M896 708 L896 128 Q896 24 820 -52 Q744 -128 640 -128 Q536 -128 460 -52 Q384 24 384 128 Q384 154 403 173 Q422 192 448 192 Q474 192 493 173 Q512 154 512 128 Q512 78 551 39 Q590 0 640 0 Q690 0 729 39 Q768 78 768 128 L768 708 Q801 719 832 719 Q863 719 896 708 z M1664 681 Q1664 668 1654.5 658.5 Q1645 649 1632 649 Q1621 649 1609 659 Q1560 705 1516 728 Q1472 751 1414 751 Q1346 751 1286 714 Q1226 677 1183 617 Q1176 607 1165.5 589 Q1155 571 1151 565 Q1140 548 1123 548 Q1105 548 1094 565 Q1090 571 1079.5 589 Q1069 607 1062 617 Q1019 677 959.5 714 Q900 751 832 751 Q764 751 704.5 714 Q645 677 602 617 Q595 607 584.5 589 Q574 571 570 565 Q559 548 541 548 Q524 548 513 565 Q509 571 498.5 589 Q488 607 481 617 Q438 677 378 714 Q318 751 250 751 Q192 751 148 728 Q104 705 55 659 Q43 649 32 649 Q19 649 9.5 658.5 Q0 668 0 681 Q0 686 1 688 Q46 871 173.5 1007.5 Q301 1144 471.5 1212 Q642 1280 832 1280 Q972 1280 1106.5 1240 Q1241 1200 1353 1126.5 Q1465 1053 1547.5 939.5 Q1630 826 1663 688 Q1664 686 1664 681 z M896 1408 L896 1310 Q854 1312 832 1312 Q810 1312 768 1310 L768 1408 Q768 1434 787 1453 Q806 1472 832 1472 Q858 1472 877 1453 Q896 1434 896 1408 z" pathLength="0" fill="White" transform="translate(0.5714283, 0.2857153) scale(0.008928572, -0.008928572) translate(0, -1536)" />
</svg>