<!DOCTYPE svg PUBLIC "-//W3C//DTD SVG 1.1//EN" "http://www.w3.org/Graphics/SVG/1.1/DTD/svg11.dtd">
<svg xmlns="http://www.w3.org/2000/svg" xmlns:xlink="http://www.w3.org/1999/xlink" version="1.1" x="0" y="0" width="16" height="16" overflow="auto" preserveAspectRatio="xMidYMid" baseProfile="tiny" space="preserve">
  <path d="M48 1313 Q11 1315 3 1317 L0 1405 Q13 1406 40 1406 Q100 1406 152 1402 Q284 1395 318 1395 Q404 1395 486 1398 Q602 1402 632 1403 Q688 1403 718 1405 L717 1391 L719 1327 L719 1318 Q659 1309 595 1309 Q535 1309 516 1284 Q503 1270 503 1152 Q503 1139 503.5 1119.5 Q504 1100 504 1094 L505 865 L519 585 Q525 461 570 383 Q605 324 666 291 Q754 244 843 244 Q947 244 1034 272 Q1090 290 1133 323 Q1181 359 1198 387 Q1234 443 1251 501 Q1272 574 1272 730 Q1272 809 1268.5 858 Q1265 907 1257.5 980.5 Q1250 1054 1244 1140 L1240 1199 Q1235 1266 1216 1287 Q1182 1322 1139 1321 L1039 1319 L1025 1322 L1027 1408 L1111 1408 L1316 1398 Q1392 1395 1512 1408 L1530 1406 Q1536 1368 1536 1355 Q1536 1348 1532 1324 Q1487 1312 1448 1311 Q1375 1300 1369 1294 Q1354 1279 1354 1253 Q1354 1246 1355.5 1226 Q1357 1206 1357 1195 Q1365 1176 1379 799 Q1385 604 1364 495 Q1349 419 1323 373 Q1285 308 1211 250 Q1136 193 1029 161 Q920 128 774 128 Q607 128 490 174 Q371 221 311 296 Q250 372 228 491 Q212 571 212 728 L212 1061 Q212 1249 195 1274 Q170 1310 48 1313 z M1536 -96 L1536 -32 Q1536 -18 1527 -9 Q1518 0 1504 0 L32 0 Q18 0 9 -9 Q0 -18 0 -32 L0 -96 Q0 -110 9 -119 Q18 -128 32 -128 L1504 -128 Q1518 -128 1527 -119 Q1536 -110 1536 -96 z" pathLength="0" fill="White" transform="translate(1.142857, 1.311302E-06) scale(0.008928572, -0.008928572) translate(0, -1536)" />
</svg>