<!DOCTYPE svg PUBLIC "-//W3C//DTD SVG 1.1//EN" "http://www.w3.org/Graphics/SVG/1.1/DTD/svg11.dtd">
<svg xmlns="http://www.w3.org/2000/svg" xmlns:xlink="http://www.w3.org/1999/xlink" version="1.1" x="0" y="0" width="16" height="16" overflow="auto" preserveAspectRatio="xMidYMid" baseProfile="tiny" space="preserve">
  <path d="M439 265 L183 9 Q173 0 160 0 Q148 0 137 9 Q128 19 128 32 Q128 45 137 55 L393 311 Q403 320 416 320 Q429 320 439 311 Q448 301 448 288 Q448 275 439 265 z M608 224 L608 -96 Q608 -110 599 -119 Q590 -128 576 -128 Q562 -128 553 -119 Q544 -110 544 -96 L544 224 Q544 238 553 247 Q562 256 576 256 Q590 256 599 247 Q608 238 608 224 z M384 448 Q384 434 375 425 Q366 416 352 416 L32 416 Q18 416 9 425 Q0 434 0 448 Q0 462 9 471 Q18 480 32 480 L352 480 Q366 480 375 471 Q384 462 384 448 z M1648 320 Q1648 200 1563 117 L1416 -29 Q1333 -112 1213 -112 Q1092 -112 1009 -27 L675 308 Q654 329 633 364 L872 382 L1145 108 Q1172 81 1213 80.5 Q1254 80 1281 107 L1428 253 Q1456 281 1456 320 Q1456 360 1428 388 L1154 663 L1172 902 Q1207 881 1228 860 L1564 524 Q1648 438 1648 320 z M1031 1044 L792 1026 L519 1300 Q491 1328 451 1328 Q412 1328 383 1301 L236 1155 Q208 1127 208 1088 Q208 1048 236 1020 L510 746 L492 506 Q457 527 436 548 L100 884 Q16 970 16 1088 Q16 1208 101 1291 L248 1437 Q331 1520 451 1520 Q572 1520 655 1435 L989 1100 Q1010 1079 1031 1044 z M1664 960 Q1664 946 1655 937 Q1646 928 1632 928 L1312 928 Q1298 928 1289 937 Q1280 946 1280 960 Q1280 974 1289 983 Q1298 992 1312 992 L1632 992 Q1646 992 1655 983 Q1664 974 1664 960 z M1120 1504 L1120 1184 Q1120 1170 1111 1161 Q1102 1152 1088 1152 Q1074 1152 1065 1161 Q1056 1170 1056 1184 L1056 1504 Q1056 1518 1065 1527 Q1074 1536 1088 1536 Q1102 1536 1111 1527 Q1120 1518 1120 1504 z M1527 1353 L1271 1097 Q1260 1088 1248 1088 Q1236 1088 1225 1097 Q1216 1107 1216 1120 Q1216 1133 1225 1143 L1481 1399 Q1491 1408 1504 1408 Q1517 1408 1527 1399 Q1536 1389 1536 1376 Q1536 1363 1527 1353 z" pathLength="0" fill="White" transform="translate(0.5714283, 0.5714297) scale(0.008928572, -0.008928572) translate(0, -1536)" />
</svg>