<!DOCTYPE svg PUBLIC "-//W3C//DTD SVG 1.1//EN" "http://www.w3.org/Graphics/SVG/1.1/DTD/svg11.dtd">
<svg xmlns="http://www.w3.org/2000/svg" xmlns:xlink="http://www.w3.org/1999/xlink" version="1.1" x="0" y="0" width="16" height="16" overflow="auto" preserveAspectRatio="xMidYMid" baseProfile="tiny" space="preserve">
  <path d="M1056 768 Q1096 768 1124 740 Q1152 712 1152 672 L1152 96 Q1152 56 1124 28 Q1096 0 1056 0 L96 0 Q56 0 28 28 Q0 56 0 96 L0 672 Q0 712 28 740 Q56 768 96 768 L128 768 L128 1088 Q128 1273 259.5 1404.5 Q391 1536 576 1536 Q761 1536 892.5 1404.5 Q1024 1273 1024 1088 Q1024 1062 1005 1043 Q986 1024 960 1024 L896 1024 Q870 1024 851 1043 Q832 1062 832 1088 Q832 1194 757 1269 Q682 1344 576 1344 Q470 1344 395 1269 Q320 1194 320 1088 L320 768 L1056 768 z" pathLength="0" fill="White" transform="translate(2.857143, 1.142858) scale(0.008928572, -0.008928572) translate(0, -1536)" />
</svg>