<!DOCTYPE svg PUBLIC "-//W3C//DTD SVG 1.1//EN" "http://www.w3.org/Graphics/SVG/1.1/DTD/svg11.dtd">
<svg xmlns="http://www.w3.org/2000/svg" xmlns:xlink="http://www.w3.org/1999/xlink" version="1.1" x="0" y="0" width="16" height="16" overflow="auto" preserveAspectRatio="xMidYMid" baseProfile="tiny" space="preserve">
  <path d="M1024 448 Q1024 422 1005 403 L557 -45 Q538 -64 512 -64 Q486 -64 467 -45 L19 403 Q0 422 0 448 Q0 474 19 493 Q38 512 64 512 L960 512 Q986 512 1005 493 Q1024 474 1024 448 z M1024 832 Q1024 806 1005 787 Q986 768 960 768 L64 768 Q38 768 19 787 Q0 806 0 832 Q0 858 19 877 L467 1325 Q486 1344 512 1344 Q538 1344 557 1325 L1005 877 Q1024 858 1024 832 z" pathLength="0" fill="White" transform="translate(3.428571, 1.072884E-06) scale(0.008928572, -0.008928572) translate(0, -1536)" />
</svg>