<!DOCTYPE svg PUBLIC "-//W3C//DTD SVG 1.1//EN" "http://www.w3.org/Graphics/SVG/1.1/DTD/svg11.dtd">
<svg xmlns="http://www.w3.org/2000/svg" xmlns:xlink="http://www.w3.org/1999/xlink" version="1.1" x="0" y="0" width="16" height="16" overflow="auto" preserveAspectRatio="xMidYMid" baseProfile="tiny" space="preserve">
  <path d="M1280 64 Q1280 90 1261 109 Q1242 128 1216 128 Q1190 128 1171 109 Q1152 90 1152 64 Q1152 38 1171 19 Q1190 0 1216 0 Q1242 0 1261 19 Q1280 38 1280 64 z M1536 64 Q1536 90 1517 109 Q1498 128 1472 128 Q1446 128 1427 109 Q1408 90 1408 64 Q1408 38 1427 19 Q1446 0 1472 0 Q1498 0 1517 19 Q1536 38 1536 64 z M1664 288 L1664 -32 Q1664 -72 1636 -100 Q1608 -128 1568 -128 L96 -128 Q56 -128 28 -100 Q0 -72 0 -32 L0 288 Q0 328 28 356 Q56 384 96 384 L523 384 Q544 328 593.5 292 Q643 256 704 256 L960 256 Q1021 256 1070.5 292 Q1120 328 1141 384 L1568 384 Q1608 384 1636 356 Q1664 328 1664 288 z M1339 936 Q1322 896 1280 896 L1024 896 L1024 448 Q1024 422 1005 403 Q986 384 960 384 L704 384 Q678 384 659 403 Q640 422 640 448 L640 896 L384 896 Q342 896 325 936 Q308 975 339 1005 L787 1453 Q805 1472 832 1472 Q859 1472 877 1453 L1325 1005 Q1356 975 1339 936 z" pathLength="0" fill="White" transform="translate(0.5714283, 0.2857153) scale(0.008928572, -0.008928572) translate(0, -1536)" />
</svg>