<!DOCTYPE svg PUBLIC "-//W3C//DTD SVG 1.1//EN" "http://www.w3.org/Graphics/SVG/1.1/DTD/svg11.dtd">
<svg xmlns="http://www.w3.org/2000/svg" xmlns:xlink="http://www.w3.org/1999/xlink" version="1.1" x="0" y="0" width="16" height="16" overflow="auto" preserveAspectRatio="xMidYMid" baseProfile="tiny" space="preserve">
  <path d="M1408 131 Q1408 11 1335 -58.5 Q1262 -128 1141 -128 L267 -128 Q146 -128 73 -58.5 Q0 11 0 131 Q0 184 3.5 234.5 Q7 285 17.5 343.5 Q28 402 44 452 Q60 502 87 549.5 Q114 597 149 630.5 Q184 664 234.5 684 Q285 704 346 704 Q355 704 388 682.5 Q421 661 462.5 634.5 Q504 608 570.5 586.5 Q637 565 704 565 Q771 565 837.5 586.5 Q904 608 945.5 634.5 Q987 661 1020 682.5 Q1053 704 1062 704 Q1123 704 1173.5 684 Q1224 664 1259 630.5 Q1294 597 1321 549.5 Q1348 502 1364 452 Q1380 402 1390.5 343.5 Q1401 285 1404.5 234.5 Q1408 184 1408 131 z M1088 1024 Q1088 865 975.5 752.5 Q863 640 704 640 Q545 640 432.5 752.5 Q320 865 320 1024 Q320 1183 432.5 1295.5 Q545 1408 704 1408 Q863 1408 975.5 1295.5 Q1088 1183 1088 1024 z" pathLength="0" fill="White" transform="translate(1.714286, 1.311302E-06) scale(0.008928572, -0.008928572) translate(0, -1536)" />
</svg>