<!DOCTYPE svg PUBLIC "-//W3C//DTD SVG 1.1//EN" "http://www.w3.org/Graphics/SVG/1.1/DTD/svg11.dtd">
<svg xmlns="http://www.w3.org/2000/svg" xmlns:xlink="http://www.w3.org/1999/xlink" version="1.1" x="0" y="0" width="16" height="16" overflow="auto" preserveAspectRatio="xMidYMid" baseProfile="tiny" space="preserve">
  <path d="M384 192 Q384 166 365 147 Q346 128 320 128 Q294 128 275 147 Q256 166 256 192 Q256 218 275 237 Q294 256 320 256 Q346 256 365 237 Q384 218 384 192 z M1408 131 Q1408 10 1335 -59 Q1262 -128 1141 -128 L267 -128 Q146 -128 73 -59 Q0 10 0 131 Q0 199 5.5 262 Q11 325 29.5 400 Q48 475 77 532.5 Q106 590 158 635.5 Q210 681 278 696 Q256 644 256 576 L256 373 Q198 353 163 303 Q128 253 128 192 Q128 112 184 56 Q240 0 320 0 Q400 0 456 56 Q512 112 512 192 Q512 253 476.5 303 Q441 353 384 373 L384 576 Q384 638 409 669 Q541 565 704 565 Q867 565 999 669 Q1024 638 1024 576 L1024 512 Q918 512 843 437 Q768 362 768 256 L768 167 Q736 138 736 96 Q736 56 764 28 Q792 0 832 0 Q872 0 900 28 Q928 56 928 96 Q928 138 896 167 L896 256 Q896 308 934 346 Q972 384 1024 384 Q1076 384 1114 346 Q1152 308 1152 256 L1152 167 Q1120 138 1120 96 Q1120 56 1148 28 Q1176 0 1216 0 Q1256 0 1284 28 Q1312 56 1312 96 Q1312 138 1280 167 L1280 256 Q1280 324 1245.5 383.5 Q1211 443 1152 477 Q1152 487 1152.5 519.5 Q1153 552 1152.5 567.5 Q1152 583 1150 609 Q1148 635 1143 656 Q1138 677 1130 696 Q1198 681 1250 635.5 Q1302 590 1331 532.5 Q1360 475 1378.5 400 Q1397 325 1402.5 262 Q1408 199 1408 131 z M1088 1024 Q1088 865 975.5 752.5 Q863 640 704 640 Q545 640 432.5 752.5 Q320 865 320 1024 Q320 1183 432.5 1295.5 Q545 1408 704 1408 Q863 1408 975.5 1295.5 Q1088 1183 1088 1024 z" pathLength="0" fill="White" transform="translate(1.714286, 1.311302E-06) scale(0.008928572, -0.008928572) translate(0, -1536)" />
</svg>