<!DOCTYPE svg PUBLIC "-//W3C//DTD SVG 1.1//EN" "http://www.w3.org/Graphics/SVG/1.1/DTD/svg11.dtd">
<svg xmlns="http://www.w3.org/2000/svg" xmlns:xlink="http://www.w3.org/1999/xlink" version="1.1" x="0" y="0" width="16" height="16" overflow="auto" preserveAspectRatio="xMidYMid" baseProfile="tiny" space="preserve">
  <path d="M576 0 L672 448 L576 576 L448 640 z M832 0 L960 640 L832 576 L736 448 z M992 1010 Q990 1014 988 1016 Q978 1024 892 1024 Q822 1024 725 1005 Q718 1003 704 1003 Q690 1003 683 1005 Q586 1024 516 1024 Q430 1024 420 1016 Q418 1014 416 1010 Q418 992 420 983 Q422 980 427.5 976.5 Q433 973 435 966 Q437 962 442.5 945.5 Q448 929 449.5 925 Q451 921 457 908 Q463 895 465.5 891 Q468 887 474.5 877 Q481 867 486.5 863.5 Q492 860 500.5 854 Q509 848 518 846 Q527 844 538.5 842 Q550 840 563 840 Q599 840 622 852.5 Q645 865 654.5 882.5 Q664 900 669 917 Q674 934 680.5 946.5 Q687 959 698 959 L710 959 Q721 959 727.5 946.5 Q734 934 739 917 Q744 900 753.5 882.5 Q763 865 786 852.5 Q809 840 845 840 Q858 840 869.5 842 Q881 844 890 846 Q899 848 907.5 854 Q916 860 921.5 863.5 Q927 867 933.5 877 Q940 887 942.5 891 Q945 895 951 908 Q957 921 958.5 925 Q960 929 965.5 945.5 Q971 962 973 966 Q975 973 980.5 976.5 Q986 980 988 983 Q990 992 992 1010 z M1408 131 Q1408 10 1335 -59 Q1262 -128 1141 -128 L267 -128 Q146 -128 73 -59 Q0 10 0 131 Q0 192 4.5 249 Q9 306 23.5 374.5 Q38 443 61 498 Q84 553 124.5 601.5 Q165 650 218 676 L128 896 L342 896 Q320 960 320 1024 Q320 1036 322 1056 Q128 1096 128 1152 Q128 1209 338 1251 Q355 1313 389.5 1385 Q424 1457 460 1499 Q492 1536 536 1536 Q566 1536 620 1505 Q674 1474 704 1474 Q734 1474 788 1505 Q842 1536 872 1536 Q916 1536 948 1499 Q984 1457 1018.5 1385 Q1053 1313 1070 1251 Q1280 1209 1280 1152 Q1280 1096 1086 1056 Q1093 975 1066 896 L1280 896 L1198 671 Q1261 638 1305.5 574.5 Q1350 511 1371 431 Q1392 351 1400 279.5 Q1408 208 1408 131 z" pathLength="0" fill="White" transform="translate(1.714286, 0.5714297) scale(0.008928572, -0.008928572) translate(0, -1536)" />
</svg>