<!DOCTYPE svg PUBLIC "-//W3C//DTD SVG 1.1//EN" "http://www.w3.org/Graphics/SVG/1.1/DTD/svg11.dtd">
<svg xmlns="http://www.w3.org/2000/svg" xmlns:xlink="http://www.w3.org/1999/xlink" version="1.1" x="0" y="0" width="16" height="16" overflow="auto" preserveAspectRatio="xMidYMid" baseProfile="tiny" space="preserve">
  <path d="M704 640 Q545 640 432.5 752.5 Q320 865 320 1024 Q320 1183 432.5 1295.5 Q545 1408 704 1408 Q863 1408 975.5 1295.5 Q1088 1183 1088 1024 Q1088 865 975.5 752.5 Q863 640 704 640 z M1781 320 L2030 71 Q2039 62 2039 48 Q2039 35 2030 26 L1894 -110 Q1885 -119 1872 -119 Q1858 -119 1849 -110 L1600 139 L1351 -110 Q1342 -119 1328 -119 Q1315 -119 1306 -110 L1170 26 Q1161 35 1161 48 Q1161 62 1170 71 L1419 320 L1170 569 Q1161 578 1161 592 Q1161 605 1170 614 L1306 750 Q1315 759 1328 759 Q1342 759 1351 750 L1600 501 L1849 750 Q1858 759 1872 759 Q1885 759 1894 750 L2030 614 Q2039 605 2039 592 Q2039 578 2030 569 z M1283 320 L1102 139 Q1065 102 1065 48 Q1065 -5 1102 -42 L1185 -125 Q1164 -128 1141 -128 L267 -128 Q146 -128 73 -59 Q0 10 0 131 Q0 184 3.5 234.5 Q7 285 17.5 343.5 Q28 402 44 452 Q60 502 87 549.5 Q114 597 149 630.5 Q184 664 234.5 684 Q285 704 346 704 Q365 704 385 687 Q539 565 704 565 Q869 565 1023 687 Q1043 704 1062 704 Q1090 704 1119 698 Q1091 671 1078 648 Q1065 625 1065 592 Q1065 538 1102 501 z" pathLength="0" fill="White" transform="translate(-1.102678, 1.311302E-06) scale(0.008928572, -0.008928572) translate(0, -1536)" />
</svg>