<!DOCTYPE svg PUBLIC "-//W3C//DTD SVG 1.1//EN" "http://www.w3.org/Graphics/SVG/1.1/DTD/svg11.dtd">
<svg xmlns="http://www.w3.org/2000/svg" xmlns:xlink="http://www.w3.org/1999/xlink" version="1.1" x="0" y="0" width="16" height="16" overflow="auto" preserveAspectRatio="xMidYMid" baseProfile="tiny" space="preserve">
  <path d="M704 640 Q545 640 432.5 752.5 Q320 865 320 1024 Q320 1183 432.5 1295.5 Q545 1408 704 1408 Q863 1408 975.5 1295.5 Q1088 1183 1088 1024 Q1088 865 975.5 752.5 Q863 640 704 640 z M1664 512 L2016 512 Q2029 512 2038.5 502.5 Q2048 493 2048 480 L2048 288 Q2048 275 2038.5 265.5 Q2029 256 2016 256 L1664 256 L1664 -96 Q1664 -109 1654.5 -118.5 Q1645 -128 1632 -128 L1440 -128 Q1427 -128 1417.5 -118.5 Q1408 -109 1408 -96 L1408 256 L1056 256 Q1043 256 1033.5 265.5 Q1024 275 1024 288 L1024 480 Q1024 493 1033.5 502.5 Q1043 512 1056 512 L1408 512 L1408 864 Q1408 877 1417.5 886.5 Q1427 896 1440 896 L1632 896 Q1645 896 1654.5 886.5 Q1664 877 1664 864 L1664 512 z M928 288 Q928 236 966 198 Q1004 160 1056 160 L1312 160 L1312 -78 Q1244 -128 1141 -128 L267 -128 Q146 -128 73 -59 Q0 10 0 131 Q0 184 3.5 234.5 Q7 285 17.5 343.5 Q28 402 44 452 Q60 502 87 549.5 Q114 597 149 630.5 Q184 664 234.5 684 Q285 704 346 704 Q365 704 385 687 Q464 626 539.5 595.5 Q615 565 704 565 Q793 565 868.5 595.5 Q944 626 1023 687 Q1043 704 1062 704 Q1194 704 1279 608 L1056 608 Q1004 608 966 570 Q928 532 928 480 L928 288 z" pathLength="0" fill="White" transform="translate(-1.142858, 1.311302E-06) scale(0.008928572, -0.008928572) translate(0, -1536)" />
</svg>