<!DOCTYPE svg PUBLIC "-//W3C//DTD SVG 1.1//EN" "http://www.w3.org/Graphics/SVG/1.1/DTD/svg11.dtd">
<svg xmlns="http://www.w3.org/2000/svg" xmlns:xlink="http://www.w3.org/1999/xlink" version="1.1" x="0" y="0" width="16" height="16" overflow="auto" preserveAspectRatio="xMidYMid" baseProfile="tiny" space="preserve">
  <path d="M1664 1504 Q1664 1518 1673 1527 Q1682 1536 1696 1536 L1984 1536 Q2010 1536 2029 1517 Q2048 1498 2048 1472 L2048 1184 Q2048 1170 2039 1161 Q2030 1152 2016 1152 L1952 1152 Q1938 1152 1929 1161 Q1920 1170 1920 1184 L1920 1318 L1666 1063 Q1742 968 1773.5 849 Q1805 730 1783 602 Q1751 422 1618.5 292 Q1486 162 1305 135 Q1082 101 896 225 Q779 147 640 132 L640 0 L736 0 Q750 0 759 -9 Q768 -18 768 -32 L768 -96 Q768 -110 759 -119 Q750 -128 736 -128 L640 -128 L640 -224 Q640 -238 631 -247 Q622 -256 608 -256 L544 -256 Q530 -256 521 -247 Q512 -238 512 -224 L512 -128 L416 -128 Q402 -128 393 -119 Q384 -110 384 -96 L384 -32 Q384 -18 393 -9 Q402 0 416 0 L512 0 L512 132 Q357 149 232.5 241.5 Q108 334 45.5 479 Q-17 624 6 786 Q31 973 165.5 1108.5 Q300 1244 486 1273 Q710 1307 896 1183 Q1042 1280 1216 1280 Q1417 1280 1575 1154 L1830 1408 L1696 1408 Q1682 1408 1673 1417 Q1664 1426 1664 1440 L1664 1504 z M896 391 Q1024 522 1024 704 Q1024 886 896 1017 Q768 886 768 704 Q768 522 896 391 z M128 704 Q128 519 259.5 387.5 Q391 256 576 256 Q693 256 794 313 Q640 480 640 704 Q640 928 794 1095 Q693 1152 576 1152 Q391 1152 259.5 1020.5 Q128 889 128 704 z M1216 256 Q1401 256 1532.5 387.5 Q1664 519 1664 704 Q1664 889 1532.5 1020.5 Q1401 1152 1216 1152 Q1099 1152 998 1095 Q1152 928 1152 704 Q1152 480 998 313 Q1099 256 1216 256 z" pathLength="0" fill="White" transform="translate(-1.101189, 9.536743E-07) scale(0.008928572, -0.008928572) translate(0, -1536)" />
</svg>