<!DOCTYPE svg PUBLIC "-//W3C//DTD SVG 1.1//EN" "http://www.w3.org/Graphics/SVG/1.1/DTD/svg11.dtd">
<svg xmlns="http://www.w3.org/2000/svg" xmlns:xlink="http://www.w3.org/1999/xlink" version="1.1" x="0" y="0" width="16" height="16" overflow="auto" preserveAspectRatio="xMidYMid" baseProfile="tiny" space="preserve">
  <path d="M1152 960 Q1152 739 1004.5 575.5 Q857 412 640 388 L640 128 L864 128 Q878 128 887 119 Q896 110 896 96 L896 32 Q896 18 887 9 Q878 0 864 0 L640 0 L640 -224 Q640 -238 631 -247 Q622 -256 608 -256 L544 -256 Q530 -256 521 -247 Q512 -238 512 -224 L512 0 L288 0 Q274 0 265 9 Q256 18 256 32 L256 96 Q256 110 265 119 Q274 128 288 128 L512 128 L512 388 Q362 404 240.5 491 Q119 578 54.5 715 Q-10 852 2 1007 Q13 1141 82.5 1256 Q152 1371 264.5 1444 Q377 1517 510 1532 Q680 1551 829 1478 Q978 1405 1065 1266 Q1152 1127 1152 960 z M128 960 Q128 775 259.5 643.5 Q391 512 576 512 Q761 512 892.5 643.5 Q1024 775 1024 960 Q1024 1145 892.5 1276.5 Q761 1408 576 1408 Q391 1408 259.5 1276.5 Q128 1145 128 960 z" pathLength="0" fill="White" transform="translate(2.883929, 0.03869241) scale(0.008928572, -0.008928572) translate(0, -1536)" />
</svg>