<!DOCTYPE svg PUBLIC "-//W3C//DTD SVG 1.1//EN" "http://www.w3.org/Graphics/SVG/1.1/DTD/svg11.dtd">
<svg xmlns="http://www.w3.org/2000/svg" xmlns:xlink="http://www.w3.org/1999/xlink" version="1.1" x="0" y="0" width="16" height="16" overflow="auto" preserveAspectRatio="xMidYMid" baseProfile="tiny" space="preserve">
  <path d="M1790 1007 Q1802 852 1737.5 715 Q1673 578 1551.5 491 Q1430 404 1280 388 L1280 128 L1504 128 Q1518 128 1527 119 Q1536 110 1536 96 L1536 32 Q1536 18 1527 9 Q1518 0 1504 0 L1280 0 L1280 -224 Q1280 -238 1271 -247 Q1262 -256 1248 -256 L1184 -256 Q1170 -256 1161 -247 Q1152 -238 1152 -224 L1152 0 L640 0 L640 -224 Q640 -238 631 -247 Q622 -256 608 -256 L544 -256 Q530 -256 521 -247 Q512 -238 512 -224 L512 0 L288 0 Q274 0 265 9 Q256 18 256 32 L256 96 Q256 110 265 119 Q274 128 288 128 L512 128 L512 388 Q362 404 240.5 491 Q119 578 54.5 715 Q-10 852 2 1007 Q19 1213 166.5 1363.5 Q314 1514 519 1533 Q725 1554 896 1439 Q1067 1554 1273 1533 Q1478 1514 1625.5 1363.5 Q1773 1213 1790 1007 z M896 647 Q1024 778 1024 960 Q1024 1142 896 1273 Q768 1142 768 960 Q768 778 896 647 z M576 512 Q691 512 794 569 Q640 734 640 960 Q640 1184 794 1351 Q691 1408 576 1408 Q391 1408 259.5 1276.5 Q128 1145 128 960 Q128 775 259.5 643.5 Q391 512 576 512 z M1152 128 L1152 388 Q1015 403 896 482 Q777 403 640 388 L640 128 L1152 128 z M1216 512 Q1401 512 1532.5 643.5 Q1664 775 1664 960 Q1664 1145 1532.5 1276.5 Q1401 1408 1216 1408 Q1101 1408 998 1351 Q1152 1184 1152 960 Q1152 734 998 569 Q1101 512 1216 512 z" pathLength="0" fill="White" transform="translate(1.639128E-06, 0.04910912) scale(0.008928572, -0.008928572) translate(0, -1536)" />
</svg>