<!DOCTYPE svg PUBLIC "-//W3C//DTD SVG 1.1//EN" "http://www.w3.org/Graphics/SVG/1.1/DTD/svg11.dtd">
<svg xmlns="http://www.w3.org/2000/svg" xmlns:xlink="http://www.w3.org/1999/xlink" version="1.1" x="0" y="0" width="16" height="16" overflow="auto" preserveAspectRatio="xMidYMid" baseProfile="tiny" space="preserve">
  <path d="M1709 1018 Q1699 782 1377 367 Q1044 -64 815 -64 Q673 -64 575 199 Q531 359 443 681 Q371 943 286 943 Q268 943 159 867 L82 965 Q106 986 190 1061.5 Q274 1137 320 1177 Q476 1315 561 1323 Q656 1332 714 1267.5 Q772 1203 795 1064 Q839 777 861 691 Q916 442 981 442 Q1032 442 1135 603 Q1236 764 1244 849 Q1257 988 1135 988 Q1078 988 1014 962 Q1134 1355 1473 1344 Q1724 1336 1709 1018 z" pathLength="0" fill="White" transform="translate(-0.04017776, 0.0327394) scale(0.008928572, -0.008928572) translate(0, -1536)" />
</svg>