<!DOCTYPE svg PUBLIC "-//W3C//DTD SVG 1.1//EN" "http://www.w3.org/Graphics/SVG/1.1/DTD/svg11.dtd">
<svg xmlns="http://www.w3.org/2000/svg" xmlns:xlink="http://www.w3.org/1999/xlink" version="1.1" x="0" y="0" width="16" height="16" overflow="auto" preserveAspectRatio="xMidYMid" baseProfile="tiny" space="preserve">
  <path d="M1292 898 Q1302 1114 1131 1120 Q900 1128 819 859 Q863 878 901 878 Q986 878 975 782 Q971 725 901 615 Q831 505 796 505 Q753 505 714 674 Q701 728 669 929 Q639 1118 509 1106 Q450 1099 345 1006 L264 934 L183 862 L235 795 Q311 847 322 847 Q379 847 429 668 Q444 613 474 503.5 Q504 394 519 339 Q587 160 683 160 Q840 160 1066 454 Q1286 737 1292 898 z M1536 1120 L1536 160 Q1536 41 1451.5 -43.5 Q1367 -128 1248 -128 L288 -128 Q169 -128 84.5 -43.5 Q0 41 0 160 L0 1120 Q0 1239 84.5 1323.5 Q169 1408 288 1408 L1248 1408 Q1367 1408 1451.5 1323.5 Q1536 1239 1536 1120 z" pathLength="0" fill="White" transform="translate(1.142857, 1.311302E-06) scale(0.008928572, -0.008928572) translate(0, -1536)" />
</svg>