<!DOCTYPE svg PUBLIC "-//W3C//DTD SVG 1.1//EN" "http://www.w3.org/Graphics/SVG/1.1/DTD/svg11.dtd">
<svg xmlns="http://www.w3.org/2000/svg" xmlns:xlink="http://www.w3.org/1999/xlink" version="1.1" x="0" y="0" width="16" height="16" overflow="auto" preserveAspectRatio="xMidYMid" baseProfile="tiny" space="preserve">
  <path d="M1497 709 L1497 511 Q1396 488 1299 488 Q1234 352 1133.5 217 Q1033 82 952 1.5 Q871 -79 824 -105 Q744 -150 662 -102 Q634 -85 601.5 -58.5 Q569 -32 516.5 25 Q464 82 414 153.5 Q364 225 306.5 337.5 Q249 450 201 581.5 Q153 713 109.5 896 Q66 1079 39 1286 L322 1286 Q348 1068 392 887.5 Q436 707 496.5 570.5 Q557 434 618 335 Q679 236 758 140 Q927 309 1045 546 Q903 618 822 766 Q741 914 741 1099 Q741 1291 845 1413.5 Q949 1536 1129 1536 Q1307 1536 1402 1430.5 Q1497 1325 1497 1133 Q1497 974 1439 847 Q1432 846 1419.5 844 Q1407 842 1373.5 842 Q1340 842 1310.5 848 Q1281 854 1248.5 873.5 Q1216 893 1198 925 Q1229 1028 1229 1109 Q1229 1196 1200 1241 Q1171 1286 1121 1286 Q1068 1286 1036 1236.5 Q1004 1187 1004 1096 Q1004 910 1109 802.5 Q1214 695 1376 695 Q1438 695 1497 709 z" pathLength="0" fill="White" transform="translate(1.142858, 0.5401797) scale(0.008928572, -0.008928572) translate(0, -1536)" />
</svg>