<!DOCTYPE svg PUBLIC "-//W3C//DTD SVG 1.1//EN" "http://www.w3.org/Graphics/SVG/1.1/DTD/svg11.dtd">
<svg xmlns="http://www.w3.org/2000/svg" xmlns:xlink="http://www.w3.org/1999/xlink" version="1.1" x="0" y="0" width="16" height="16" overflow="auto" preserveAspectRatio="xMidYMid" baseProfile="tiny" space="preserve">
  <path d="M1917 1016 Q1940 952 1767 722 Q1743 690 1702 637 Q1624 537 1612 506 Q1595 465 1626 425 Q1643 404 1707 343 L1708 343 L1709 342 L1710 341 L1712 339 Q1853 208 1903 118 Q1906 113 1909.5 105.5 Q1913 98 1916.5 79 Q1920 60 1916 45 Q1912 30 1891 17.5 Q1870 5 1832 5 L1576 1 Q1552 -4 1520 6 Q1488 16 1468 28 L1448 40 Q1418 61 1378 104 Q1338 147 1309.5 181.5 Q1281 216 1248.5 239.5 Q1216 263 1192 255 Q1189 254 1184 251.5 Q1179 249 1167 237 Q1155 225 1145.5 207.5 Q1136 190 1128.5 155.5 Q1121 121 1122 78 Q1122 63 1118.5 50.5 Q1115 38 1111 32 L1107 27 Q1089 8 1054 5 L939 5 Q868 1 793 21.5 Q718 42 661.5 74.5 Q605 107 558.5 140.5 Q512 174 488 198 L463 222 Q453 232 435.5 252 Q418 272 364 343 Q310 414 258 494 Q206 574 135.5 705 Q65 836 5 977 Q-1 993 -1 1004 Q-1 1015 2 1020 L6 1026 Q21 1045 63 1045 L337 1047 Q349 1045 360 1040.5 Q371 1036 376 1032 L381 1029 Q397 1018 405 997 Q425 947 451 893.5 Q477 840 492 812 L508 783 Q537 723 564 679 Q591 635 612.5 610.5 Q634 586 654 572 Q674 558 688 558 Q702 558 715 563 Q717 564 720 568 Q723 572 732 590 Q741 608 745.5 637 Q750 666 755 718 Q760 770 755 843 Q753 883 746 916 Q739 949 732 962 L726 974 Q701 1008 641 1017 Q628 1019 646 1041 Q663 1060 684 1071 Q737 1097 923 1095 Q1005 1094 1058 1082 Q1078 1077 1091.5 1068.5 Q1105 1060 1112 1044.5 Q1119 1029 1122.5 1012.5 Q1126 996 1126 967 Q1126 938 1125 912 Q1124 886 1122.5 841.5 Q1121 797 1121 759 Q1121 748 1120 717 Q1119 686 1119.5 669 Q1120 652 1123 628.5 Q1126 605 1134.5 589.5 Q1143 574 1157 565 Q1165 563 1174 561 Q1183 559 1200 572 Q1217 585 1238 606.5 Q1259 628 1290 673.5 Q1321 719 1358 781 Q1418 885 1465 1006 Q1469 1016 1475 1023.5 Q1481 1031 1486 1034 L1490 1037 L1495 1039.5 Q1495 1039.5 1508 1042.5 Q1521 1045.5 1528 1043 L1816 1045 Q1855 1050 1880 1042.5 Q1905 1035 1911 1026 z" pathLength="0" fill="White" transform="translate(-0.6220223, -0.8303559) scale(0.008928572, -0.008928572) translate(0, -1536)" />
</svg>