<!DOCTYPE svg PUBLIC "-//W3C//DTD SVG 1.1//EN" "http://www.w3.org/Graphics/SVG/1.1/DTD/svg11.dtd">
<svg xmlns="http://www.w3.org/2000/svg" xmlns:xlink="http://www.w3.org/1999/xlink" version="1.1" x="0" y="0" width="16" height="16" overflow="auto" preserveAspectRatio="xMidYMid" baseProfile="tiny" space="preserve">
  <path d="M768 1184 L768 96 Q768 70 749 51 Q730 32 704 32 Q678 32 659 51 L326 384 L64 384 Q38 384 19 403 Q0 422 0 448 L0 832 Q0 858 19 877 Q38 896 64 896 L326 896 L659 1229 Q678 1248 704 1248 Q730 1248 749 1229 Q768 1210 768 1184 z" pathLength="0" fill="White" transform="translate(4.571428, 1.192093E-06) scale(0.008928572, -0.008928572) translate(0, -1536)" />
</svg>