<!DOCTYPE svg PUBLIC "-//W3C//DTD SVG 1.1//EN" "http://www.w3.org/Graphics/SVG/1.1/DTD/svg11.dtd">
<svg xmlns="http://www.w3.org/2000/svg" xmlns:xlink="http://www.w3.org/1999/xlink" version="1.1" x="0" y="0" width="16" height="16" overflow="auto" preserveAspectRatio="xMidYMid" baseProfile="tiny" space="preserve">
  <path d="M768 1184 L768 96 Q768 70 749 51 Q730 32 704 32 Q678 32 659 51 L326 384 L64 384 Q38 384 19 403 Q0 422 0 448 L0 832 Q0 858 19 877 Q38 896 64 896 L326 896 L659 1229 Q678 1248 704 1248 Q730 1248 749 1229 Q768 1210 768 1184 z M1152 640 Q1152 564 1109.5 498.5 Q1067 433 997 405 Q987 400 972 400 Q946 400 927 418.5 Q908 437 908 464 Q908 485 920 499.5 Q932 514 949 524.5 Q966 535 983 547.5 Q1000 560 1012 583 Q1024 606 1024 640 Q1024 674 1012 697 Q1000 720 983 732.5 Q966 745 949 755.5 Q932 766 920 780.5 Q908 795 908 816 Q908 843 927 861.5 Q946 880 972 880 Q987 880 997 875 Q1067 848 1109.5 782 Q1152 716 1152 640 z M1408 640 Q1408 487 1323 357.5 Q1238 228 1098 169 Q1085 164 1073 164 Q1046 164 1027 183 Q1008 202 1008 228 Q1008 267 1047 287 Q1103 316 1123 331 Q1197 385 1238.5 466.5 Q1280 548 1280 640 Q1280 732 1238.5 813.5 Q1197 895 1123 949 Q1103 964 1047 993 Q1008 1013 1008 1052 Q1008 1078 1027 1097 Q1046 1116 1072 1116 Q1085 1116 1098 1111 Q1238 1052 1323 922.5 Q1408 793 1408 640 z M1664 640 Q1664 410 1537 217.5 Q1410 25 1199 -66 Q1186 -71 1173 -71 Q1147 -71 1128 -52 Q1109 -33 1109 -7 Q1109 29 1148 52 Q1155 56 1170.5 62.5 Q1186 69 1193 73 Q1239 98 1275 124 Q1398 215 1467 351 Q1536 487 1536 640 Q1536 793 1467 929 Q1398 1065 1275 1156 Q1239 1182 1193 1207 Q1186 1211 1170.5 1217.5 Q1155 1224 1148 1228 Q1109 1251 1109 1287 Q1109 1313 1128 1332 Q1147 1351 1173 1351 Q1186 1351 1199 1346 Q1410 1255 1537 1062.5 Q1664 870 1664 640 z" pathLength="0" fill="White" transform="translate(0.5714283, 1.072884E-06) scale(0.008928572, -0.008928572) translate(0, -1536)" />
</svg>