<!DOCTYPE svg PUBLIC "-//W3C//DTD SVG 1.1//EN" "http://www.w3.org/Graphics/SVG/1.1/DTD/svg11.dtd">
<svg xmlns="http://www.w3.org/2000/svg" xmlns:xlink="http://www.w3.org/1999/xlink" version="1.1" x="0" y="0" width="16" height="16" overflow="auto" preserveAspectRatio="xMidYMid" baseProfile="tiny" space="preserve">
  <path d="M768 1184 L768 96 Q768 70 749 51 Q730 32 704 32 Q678 32 659 51 L326 384 L64 384 Q38 384 19 403 Q0 422 0 448 L0 832 Q0 858 19 877 Q38 896 64 896 L326 896 L659 1229 Q678 1248 704 1248 Q730 1248 749 1229 Q768 1210 768 1184 z M1152 640 Q1152 564 1109.5 498.5 Q1067 433 997 405 Q987 400 972 400 Q946 400 927 418.5 Q908 437 908 464 Q908 485 920 499.5 Q932 514 949 524.5 Q966 535 983 547.5 Q1000 560 1012 583 Q1024 606 1024 640 Q1024 674 1012 697 Q1000 720 983 732.5 Q966 745 949 755.5 Q932 766 920 780.5 Q908 795 908 816 Q908 843 927 861.5 Q946 880 972 880 Q987 880 997 875 Q1067 848 1109.5 782 Q1152 716 1152 640 z" pathLength="0" fill="White" transform="translate(2.857143, 1.192093E-06) scale(0.008928572, -0.008928572) translate(0, -1536)" />
</svg>