<!DOCTYPE svg PUBLIC "-//W3C//DTD SVG 1.1//EN" "http://www.w3.org/Graphics/SVG/1.1/DTD/svg11.dtd">
<svg xmlns="http://www.w3.org/2000/svg" xmlns:xlink="http://www.w3.org/1999/xlink" version="1.1" x="0" y="0" width="16" height="16" overflow="auto" preserveAspectRatio="xMidYMid" baseProfile="tiny" space="preserve">
  <path d="M1024 161 L1024 351 Q1024 365 1014.5 374.5 Q1005 384 992 384 L800 384 Q787 384 777.5 374.5 Q768 365 768 351 L768 161 Q768 147 777.5 137.5 Q787 128 800 128 L992 128 Q1005 128 1014.5 137.5 Q1024 147 1024 161 z M1022 535 L1040 994 Q1040 1006 1030 1013 Q1017 1024 1006 1024 L786 1024 Q775 1024 762 1013 Q752 1006 752 992 L769 535 Q769 525 779 518.5 Q789 512 803 512 L988 512 Q1002 512 1011.5 518.5 Q1021 525 1022 535 z M1008 1469 L1776 61 Q1811 -2 1774 -65 Q1757 -94 1727.5 -111 Q1698 -128 1664 -128 L128 -128 Q94 -128 64.5 -111 Q35 -94 18 -65 Q-19 -2 16 61 L784 1469 Q801 1500 831 1518 Q861 1536 896 1536 Q931 1536 961 1518 Q991 1500 1008 1469 z" pathLength="0" fill="White" transform="translate(1.691282E-06, 0.5714297) scale(0.008928572, -0.008928572) translate(0, -1536)" />
</svg>