<!DOCTYPE svg PUBLIC "-//W3C//DTD SVG 1.1//EN" "http://www.w3.org/Graphics/SVG/1.1/DTD/svg11.dtd">
<svg xmlns="http://www.w3.org/2000/svg" xmlns:xlink="http://www.w3.org/1999/xlink" version="1.1" x="0" y="0" width="16" height="16" overflow="auto" preserveAspectRatio="xMidYMid" baseProfile="tiny" space="preserve">
  <path d="M580 1075 Q580 1116 555 1141 Q530 1166 489 1166 Q446 1166 413 1140.5 Q380 1115 380 1075 Q380 1036 413 1010.5 Q446 985 489 985 Q530 985 555 1009.5 Q580 1034 580 1075 z M1323 568 Q1323 596 1297.5 618 Q1272 640 1232 640 Q1205 640 1182.5 617.5 Q1160 595 1160 568 Q1160 540 1182.5 517.5 Q1205 495 1232 495 Q1272 495 1297.5 517 Q1323 539 1323 568 z M1087 1075 Q1087 1116 1062.5 1141 Q1038 1166 997 1166 Q954 1166 921 1140.5 Q888 1115 888 1075 Q888 1036 921 1010.5 Q954 985 997 985 Q1038 985 1062.5 1009.5 Q1087 1034 1087 1075 z M1722 568 Q1722 596 1696 618 Q1670 640 1631 640 Q1604 640 1581.5 617.5 Q1559 595 1559 568 Q1559 540 1581.5 517.5 Q1604 495 1631 495 Q1670 495 1696 517 Q1722 539 1722 568 z M1456 965 Q1425 969 1386 969 Q1217 969 1075 892 Q933 815 851.5 683.5 Q770 552 770 396 Q770 318 793 244 Q758 241 725 241 Q699 241 675 242.5 Q651 244 620 249 Q589 254 575.5 256 Q562 258 521 266.5 Q480 275 471 277 L218 150 L290 368 Q0 571 0 858 Q0 1027 97.5 1169 Q195 1311 361.5 1392.5 Q528 1474 725 1474 Q901 1474 1057.5 1408 Q1214 1342 1319.5 1225.5 Q1425 1109 1456 965 z M2048 404 Q2048 287 1979.5 180.5 Q1911 74 1794 -13 L1849 -194 L1650 -85 Q1500 -122 1432 -122 Q1263 -122 1121 -51.5 Q979 19 897.5 140 Q816 261 816 404 Q816 547 897.5 668 Q979 789 1121 859.5 Q1263 930 1432 930 Q1593 930 1735 859.5 Q1877 789 1962.5 667.5 Q2048 546 2048 404 z" pathLength="0" fill="White" transform="translate(-1.142858, 1.251698E-06) scale(0.008928572, -0.008928572) translate(0, -1536)" />
</svg>