<!DOCTYPE svg PUBLIC "-//W3C//DTD SVG 1.1//EN" "http://www.w3.org/Graphics/SVG/1.1/DTD/svg11.dtd">
<svg xmlns="http://www.w3.org/2000/svg" xmlns:xlink="http://www.w3.org/1999/xlink" version="1.1" x="0" y="0" width="16" height="16" overflow="auto" preserveAspectRatio="xMidYMid" baseProfile="tiny" space="preserve">
  <path d="M675 252 Q696 286 686 321 Q676 356 641 371 Q607 385 568 372 Q529 359 508 326 Q486 292 495 257.5 Q504 223 538 207 Q572 191 612.5 204.5 Q653 218 675 252 z M769 373 Q777 386 772.5 399.5 Q768 413 755 418 Q741 423 726.5 417.5 Q712 412 705 399 Q688 368 718 354 Q732 349 747 354.5 Q762 360 769 373 z M943 266 Q898 164 785 116 Q672 68 561 104 Q454 138 413.5 230.5 Q373 323 420 418 Q467 511 571.5 557 Q676 603 782 576 Q893 547 940.5 456.5 Q988 366 943 266 z M1255 426 Q1246 522 1166 596 Q1086 670 957.5 705 Q829 740 683 726 Q460 703 313.5 584.5 Q167 466 181 320 Q190 224 270 150 Q350 76 478.5 41 Q607 6 753 20 Q976 43 1122.5 161.5 Q1269 280 1255 426 z M1563 422 Q1563 354 1526 282.5 Q1489 211 1417 145.5 Q1345 80 1248.5 28 Q1152 -24 1022.5 -55 Q893 -86 752 -86 Q611 -86 477 -52.5 Q343 -19 236.5 40.5 Q130 100 65 191.5 Q0 283 0 391 Q0 506 69.5 636 Q139 766 267 894 Q436 1063 608.5 1130 Q781 1197 855 1123 Q920 1059 875 914 Q871 900 874 894 Q877 888 884 887 Q891 886 898.5 887.5 Q906 889 912 891 L918 893 Q1057 952 1164 952 Q1271 952 1317 891 Q1362 828 1317 713 Q1315 700 1312.5 693 Q1310 686 1317 680.5 Q1324 675 1329 673 Q1334 671 1346 667 Q1403 649 1449 620 Q1495 591 1529 538.5 Q1563 486 1563 422 z M1489 1046 Q1531 999 1543.5 937.5 Q1556 876 1537 820 Q1529 797 1507.5 786 Q1486 775 1463 782 Q1440 790 1429 811.5 Q1418 833 1425 856 Q1445 919 1401 967 Q1357 1015 1294 1002 Q1270 997 1249 1010 Q1228 1023 1224 1047 Q1219 1071 1232 1091.5 Q1245 1112 1269 1117 Q1329 1130 1388 1111.5 Q1447 1093 1489 1046 z M1670 1209 Q1757 1113 1782.5 986.5 Q1808 860 1769 745 Q1760 718 1735 705 Q1710 692 1683 701 Q1656 710 1643 735 Q1630 760 1638 787 Q1666 869 1648 959 Q1630 1049 1568 1117 Q1506 1186 1420 1212.5 Q1334 1239 1247 1221 Q1219 1215 1195 1230.5 Q1171 1246 1165 1274 Q1159 1302 1174.5 1325.5 Q1190 1349 1218 1355 Q1341 1381 1462 1343.5 Q1583 1306 1670 1209 z" pathLength="0" fill="White" transform="translate(-0.0334816, 0.02827525) scale(0.008928572, -0.008928572) translate(0, -1536)" />
</svg>