<!DOCTYPE svg PUBLIC "-//W3C//DTD SVG 1.1//EN" "http://www.w3.org/Graphics/SVG/1.1/DTD/svg11.dtd">
<svg xmlns="http://www.w3.org/2000/svg" xmlns:xlink="http://www.w3.org/1999/xlink" version="1.1" x="0" y="0" width="16" height="16" overflow="auto" preserveAspectRatio="xMidYMid" baseProfile="tiny" space="preserve">
  <path d="M985 562 Q998 562 1082.5 518 Q1167 474 1172 465 Q1174 460 1174 450 Q1174 417 1157 374 Q1141 335 1086 308.5 Q1031 282 984 282 Q927 282 794 344 Q696 389 624 462 Q552 535 476 647 Q404 754 405 841 L405 849 Q408 940 479 1007 Q503 1029 531 1029 Q537 1029 549 1027.5 Q561 1026 568 1026 Q587 1026 594.5 1019.5 Q602 1013 610 992 Q618 972 643 904 Q668 836 668 829 Q668 808 633.5 771.5 Q599 735 599 725 Q599 718 604 710 Q638 637 706 573 Q762 520 857 472 Q869 465 879 465 Q894 465 933 513.5 Q972 562 985 562 z M782 32 Q909 32 1025.5 82 Q1142 132 1226 216 Q1310 300 1360 416.5 Q1410 533 1410 660 Q1410 787 1360 903.5 Q1310 1020 1226 1104 Q1142 1188 1025.5 1238 Q909 1288 782 1288 Q655 1288 538.5 1238 Q422 1188 338 1104 Q254 1020 204 903.5 Q154 787 154 660 Q154 457 274 292 L195 59 L437 136 Q595 32 782 32 z M782 1414 Q935 1414 1074.5 1354 Q1214 1294 1315 1193 Q1416 1092 1476 952.5 Q1536 813 1536 660 Q1536 507 1476 367.5 Q1416 228 1315 127 Q1214 26 1074.5 -34 Q935 -94 782 -94 Q587 -94 417 0 L0 -134 L136 271 Q28 449 28 660 Q28 813 88 952.5 Q148 1092 249 1193 Q350 1294 489.5 1354 Q629 1414 782 1414 z" pathLength="0" fill="White" transform="translate(1.142857, 1.072884E-06) scale(0.008928572, -0.008928572) translate(0, -1536)" />
</svg>