<!DOCTYPE svg PUBLIC "-//W3C//DTD SVG 1.1//EN" "http://www.w3.org/Graphics/SVG/1.1/DTD/svg11.dtd">
<svg xmlns="http://www.w3.org/2000/svg" xmlns:xlink="http://www.w3.org/1999/xlink" version="1.1" x="0" y="0" width="16" height="16" overflow="auto" preserveAspectRatio="xMidYMid" baseProfile="tiny" space="preserve">
  <path d="M1023 349 L1125 145 Q1067 -34 915 -145 Q763 -256 576 -256 Q420 -256 287.5 -178.5 Q155 -101 77.5 31.5 Q0 164 0 320 Q0 501 104.5 650 Q209 799 379 861 L396 730 Q274 676 201 564.5 Q128 453 128 320 Q128 135 259.5 3.5 Q391 -128 576 -128 Q702 -128 808.5 -63 Q915 2 973.5 112.5 Q1032 223 1023 349 z M1571 249 L1629 135 L1373 7 Q1360 0 1344 0 Q1304 0 1287 35 L1048 512 L576 512 Q552 512 533.5 528.5 Q515 545 512 569 L416 1348 Q414 1364 422 1390 Q436 1441 479 1472.5 Q522 1504 576 1504 Q642 1504 689 1457 Q736 1410 736 1344 Q736 1275 684 1226.5 Q632 1178 564 1185 L601 896 L1024 896 L1024 768 L617 768 L633 640 L1088 640 Q1128 640 1145 605 L1373 150 z" pathLength="0" fill="White" transform="translate(0.7276783, -0.1428563) scale(0.008928572, -0.008928572) translate(0, -1536)" />
</svg>