<!DOCTYPE svg PUBLIC "-//W3C//DTD SVG 1.1//EN" "http://www.w3.org/Graphics/SVG/1.1/DTD/svg11.dtd">
<svg xmlns="http://www.w3.org/2000/svg" xmlns:xlink="http://www.w3.org/1999/xlink" version="1.1" x="0" y="0" width="16" height="16" overflow="auto" preserveAspectRatio="xMidYMid" baseProfile="tiny" space="preserve">
  <path d="M1024 13 Q1004 13 931 86.5 Q858 160 858 180 Q858 212 920.5 234 Q983 256 1024 256 Q1065 256 1127.5 234 Q1190 212 1190 180 Q1190 160 1117 86.5 Q1044 13 1024 13 z M1294 284 Q1292 284 1254 309 Q1216 334 1152.5 359 Q1089 384 1024 384 Q959 384 895.5 359 Q832 334 794.5 309 Q757 284 754 284 Q736 284 660.5 359 Q585 434 585 452 Q585 465 595 475 Q673 552 791 596 Q909 640 1024 640 Q1139 640 1257 596 Q1375 552 1453 475 Q1463 465 1463 452 Q1463 434 1387.5 359 Q1312 284 1294 284 z M1567 556 Q1556 556 1544 564 Q1408 669 1292 718.5 Q1176 768 1024 768 Q939 768 853.5 746 Q768 724 704.5 693 Q641 662 591 631 Q541 600 512 578 Q483 556 481 556 Q464 556 389 631 Q314 706 314 724 Q314 736 324 746 Q456 878 644 951 Q832 1024 1024 1024 Q1216 1024 1404 951 Q1592 878 1724 746 Q1734 736 1734 724 Q1734 706 1659 631 Q1584 556 1567 556 z M1838 827 Q1827 827 1816 836 Q1637 993 1444.5 1072.5 Q1252 1152 1024 1152 Q796 1152 603.5 1072.5 Q411 993 232 836 Q221 827 210 827 Q193 827 117.5 902 Q42 977 42 995 Q42 1008 52 1018 Q239 1204 497 1306 Q755 1408 1024 1408 Q1293 1408 1551 1306 Q1809 1204 1996 1018 Q2006 1008 2006 995 Q2006 977 1930.5 902 Q1855 827 1838 827 z" pathLength="0" fill="White" transform="translate(-1.142857, 0.6294655) scale(0.008928572, -0.008928572) translate(0, -1536)" />
</svg>