<!DOCTYPE svg PUBLIC "-//W3C//DTD SVG 1.1//EN" "http://www.w3.org/Graphics/SVG/1.1/DTD/svg11.dtd">
<svg xmlns="http://www.w3.org/2000/svg" xmlns:xlink="http://www.w3.org/1999/xlink" version="1.1" x="0" y="0" width="16" height="16" overflow="auto" preserveAspectRatio="xMidYMid" baseProfile="tiny" space="preserve">
  <path d="M1494 -103 L1199 592 Q1174 543 1040.5 286.5 Q907 30 842 -103 Q841 -104 814.5 -103.5 Q788 -103 788 -102 Q706 91 532.5 485 Q359 879 273 1081 Q252 1131 206.5 1188.5 Q161 1246 103 1289 Q45 1332 1 1332 Q1 1337 0.5 1356 Q0 1375 0 1383 L583 1383 L583 1333 Q544 1331 503.5 1317 Q463 1303 437 1274 Q411 1245 427 1210 Q453 1151 643.5 711 Q834 271 879 171 Q910 232 1019 437.5 Q1128 643 1150 685 Q1131 724 1024 966 Q917 1208 888 1261 Q850 1330 687 1332 L687 1382 L1200 1381 L1200 1334 Q1140 1332 1106.5 1309 Q1073 1286 1094 1240 Q1127 1170 1181 1050.5 Q1235 931 1267 863 Q1377 1077 1440 1226 Q1464 1281 1430 1305.5 Q1396 1330 1301 1332 Q1302 1339 1302 1357 L1302 1381 Q1366 1381 1472.5 1381.5 Q1579 1382 1652.5 1382.5 Q1726 1383 1745 1383 L1745 1334 Q1683 1332 1626 1301 Q1569 1270 1536 1220 L1323 778 Q1336 745 1450.5 488 Q1565 231 1572 214 L2013 1231 Q1999 1269 1963.5 1293.5 Q1928 1318 1898.5 1325 Q1869 1332 1843 1333 L1843 1383 L2303 1379 L2304 1377 L2303 1333 Q2164 1329 2102 1188 Q1576 -28 1543 -103 L1494 -103 z" pathLength="0" fill="White" transform="translate(-2.285714, -0.003719091) scale(0.008928572, -0.008928572) translate(0, -1536)" />
</svg>