<!DOCTYPE svg PUBLIC "-//W3C//DTD SVG 1.1//EN" "http://www.w3.org/Graphics/SVG/1.1/DTD/svg11.dtd">
<svg xmlns="http://www.w3.org/2000/svg" xmlns:xlink="http://www.w3.org/1999/xlink" version="1.1" x="0" y="0" width="16" height="16" overflow="auto" preserveAspectRatio="xMidYMid" baseProfile="tiny" space="preserve">
  <path d="M514 341 L595 640 L436 640 L511 340 Q512 339 512 337 Q512 335 513 334 Q513 335 513.5 337.5 Q514 340 514 341 z M630 768 L665 896 L373 896 L405 768 L630 768 z M822 768 L961 768 L926 896 L856 896 z M1271 340 L1349 640 L1187 640 L1268 341 Q1268 340 1268.5 337.5 Q1269 335 1270 334 Q1270 335 1270.5 337 Q1271 339 1271 340 z M1382 768 L1415 896 L1118 896 L1152 768 L1382 768 z M1792 736 L1792 672 Q1792 658 1783 649 Q1774 640 1760 640 L1547 640 L1383 24 Q1376 0 1352 0 L1193 0 Q1169 0 1162 24 L996 640 L787 640 L620 24 Q613 0 589 0 L430 0 Q419 0 410.5 7 Q402 14 400 24 L240 640 L32 640 Q18 640 9 649 Q0 658 0 672 L0 736 Q0 750 9 759 Q18 768 32 768 L207 768 L174 896 L32 896 Q18 896 9 905 Q0 914 0 928 L0 992 Q0 1006 9 1015 Q18 1024 32 1024 L141 1024 L52 1368 Q47 1383 57 1396 Q67 1408 83 1408 L220 1408 Q246 1408 251 1384 L341 1024 L700 1024 L797 1384 Q804 1408 828 1408 L954 1408 Q978 1408 985 1384 L1083 1024 L1448 1024 L1541 1384 Q1546 1408 1572 1408 L1709 1408 Q1725 1408 1735 1396 Q1745 1383 1740 1368 L1649 1024 L1760 1024 Q1774 1024 1783 1015 Q1792 1006 1792 992 L1792 928 Q1792 914 1783 905 Q1774 896 1760 896 L1615 896 L1581 768 L1760 768 Q1774 768 1783 759 Q1792 750 1792 736 z" pathLength="0" fill="White" transform="translate(0, 0.5714296) scale(0.008928572, -0.008928572) translate(0, -1536)" />
</svg>