<!DOCTYPE svg PUBLIC "-//W3C//DTD SVG 1.1//EN" "http://www.w3.org/Graphics/SVG/1.1/DTD/svg11.dtd">
<svg xmlns="http://www.w3.org/2000/svg" xmlns:xlink="http://www.w3.org/1999/xlink" version="1.1" x="0" y="0" width="16" height="16" overflow="auto" preserveAspectRatio="xMidYMid" baseProfile="tiny" space="preserve">
  <path d="M127 640 Q127 803 194 953 L561 -52 Q365 43 246 229 Q127 415 127 640 z M1415 679 Q1415 660 1412.5 640.5 Q1410 621 1402.5 591 Q1395 561 1391 547 Q1387 533 1373.5 488 Q1360 443 1356 430 L1280 174 L1002 1000 Q1048 1003 1090 1008 Q1109 1010 1116 1026.5 Q1123 1043 1113.5 1057.5 Q1104 1072 1085 1071 L880 1061 Q805 1062 678 1071 Q666 1072 657.5 1066 Q649 1060 646 1051 Q643 1042 644.5 1032.5 Q646 1023 653.5 1016 Q661 1009 673 1008 L753 1000 L873 672 L705 168 L425 1000 Q471 1003 513 1008 Q532 1010 539 1026.5 Q546 1043 536.5 1057.5 Q527 1072 508 1071 L303 1061 Q296 1061 280 1061.5 Q264 1062 254 1062 Q359 1222 528.5 1315.5 Q698 1409 896 1409 Q1043 1409 1176.5 1356 Q1310 1303 1415 1207 L1405 1207 Q1350 1207 1313 1166.5 Q1276 1126 1276 1071 Q1276 1059 1278 1047 Q1280 1035 1282 1025.5 Q1284 1016 1290 1002.5 Q1296 989 1299 981.5 Q1302 974 1311 959 Q1320 944 1323.5 938 Q1327 932 1338 914 Q1349 896 1352 891 Q1415 784 1415 679 z M909 573 L1146 -74 Q1147 -80 1151 -85 Q1025 -129 896 -129 Q784 -129 679 -97 z M1570 1009 Q1665 835 1665 640 Q1665 431 1561 254.5 Q1457 78 1282 -24 L1517 654 Q1576 823 1576 930 Q1576 972 1570 1009 z M896 1536 Q1078 1536 1244 1465 Q1410 1394 1530 1274 Q1650 1154 1721 988 Q1792 822 1792 640 Q1792 458 1721 292 Q1650 126 1530 6 Q1410 -114 1244 -185 Q1078 -256 896 -256 Q714 -256 548 -185 Q382 -114 262 6 Q142 126 71 292 Q0 458 0 640 Q0 822 71 988 Q142 1154 262 1274 Q382 1394 548 1465 Q714 1536 896 1536 z M896 -215 Q1069 -215 1227.5 -147 Q1386 -79 1500.5 35.5 Q1615 150 1683 308.5 Q1751 467 1751 640 Q1751 813 1683 971.5 Q1615 1130 1500.5 1244.5 Q1386 1359 1227.5 1427 Q1069 1495 896 1495 Q723 1495 564.5 1427 Q406 1359 291.5 1244.5 Q177 1130 109 971.5 Q41 813 41 640 Q41 467 109 308.5 Q177 150 291.5 35.5 Q406 -79 564.5 -147 Q723 -215 896 -215 z" pathLength="0" fill="White" transform="translate(0, 9.536743E-07) scale(0.008928572, -0.008928572) translate(0, -1536)" />
</svg>