<!DOCTYPE svg PUBLIC "-//W3C//DTD SVG 1.1//EN" "http://www.w3.org/Graphics/SVG/1.1/DTD/svg11.dtd">
<svg xmlns="http://www.w3.org/2000/svg" xmlns:xlink="http://www.w3.org/1999/xlink" version="1.1" x="0" y="0" width="16" height="16" overflow="auto" preserveAspectRatio="xMidYMid" baseProfile="tiny" space="preserve">
  <path d="M384 64 Q384 90 365 109 Q346 128 320 128 Q294 128 275 109 Q256 90 256 64 Q256 38 275 19 Q294 0 320 0 Q346 0 365 19 Q384 38 384 64 z M1028 484 L346 -198 Q309 -235 256 -235 Q204 -235 165 -198 L59 -90 Q21 -54 21 0 Q21 53 59 91 L740 772 Q779 674 854.5 598.5 Q930 523 1028 484 z M1662 919 Q1662 880 1639 813 Q1592 679 1474.5 595.5 Q1357 512 1216 512 Q1031 512 899.5 643.5 Q768 775 768 960 Q768 1145 899.5 1276.5 Q1031 1408 1216 1408 Q1274 1408 1337.5 1391.5 Q1401 1375 1445 1345 Q1461 1334 1461 1317 Q1461 1300 1445 1289 L1152 1120 L1152 896 L1345 789 Q1350 792 1424 837.5 Q1498 883 1559.5 918.5 Q1621 954 1630 954 Q1645 954 1653.5 944 Q1662 934 1662 919 z" pathLength="0" fill="White" transform="translate(0.4866071, -0.4776775) scale(0.008928572, -0.008928572) translate(0, -1536)" />
</svg>