<!DOCTYPE svg PUBLIC "-//W3C//DTD SVG 1.1//EN" "http://www.w3.org/Graphics/SVG/1.1/DTD/svg11.dtd">
<svg xmlns="http://www.w3.org/2000/svg" xmlns:xlink="http://www.w3.org/1999/xlink" version="1.1" x="0" y="0" width="16" height="16" overflow="auto" preserveAspectRatio="xMidYMid" baseProfile="tiny" space="preserve">
  <path d="M597 869 Q587 851 340 413 Q313 367 275 367 L36 367 Q15 367 5 384 Q-5 401 5 420 L258 868 Q259 868 258 869 L97 1148 Q85 1170 96 1185 Q105 1200 128 1200 L367 1200 Q407 1200 433 1155 z M1403 1511 Q1414 1495 1403 1474 L875 540 L875 539 L1211 -76 Q1222 -96 1212 -113 Q1202 -128 1180 -128 L941 -128 Q899 -128 875 -83 L536 539 Q554 571 1067 1481 Q1092 1526 1131 1526 L1372 1526 Q1394 1526 1403 1511 z" pathLength="0" fill="White" transform="translate(1.71131, 0.5267869) scale(0.008928572, -0.008928572) translate(0, -1536)" />
</svg>