<!DOCTYPE svg PUBLIC "-//W3C//DTD SVG 1.1//EN" "http://www.w3.org/Graphics/SVG/1.1/DTD/svg11.dtd">
<svg xmlns="http://www.w3.org/2000/svg" xmlns:xlink="http://www.w3.org/1999/xlink" version="1.1" x="0" y="0" width="16" height="16" overflow="auto" preserveAspectRatio="xMidYMid" baseProfile="tiny" space="preserve">
  <path d="M685 771 Q685 772 559 993 Q538 1027 507 1027 L323 1027 Q305 1027 297 1016 Q290 1004 298 987 L423 771 L423 770 L227 424 Q218 410 227 396 Q235 383 251 383 L436 383 Q467 383 486 419 z M1309 1268 Q1302 1280 1285 1280 L1098 1280 Q1068 1280 1049 1245 L638 516 Q639 514 900 35 Q920 0 952 0 L1136 0 Q1154 0 1161 12 Q1169 25 1160 40 L900 516 L900 517 L1309 1240 Q1317 1256 1309 1268 z M1536 1120 L1536 160 Q1536 41 1451.5 -43.5 Q1367 -128 1248 -128 L288 -128 Q169 -128 84.5 -43.5 Q0 41 0 160 L0 1120 Q0 1239 84.5 1323.5 Q169 1408 288 1408 L1248 1408 Q1367 1408 1451.5 1323.5 Q1536 1239 1536 1120 z" pathLength="0" fill="White" transform="translate(1.142857, 1.311302E-06) scale(0.008928572, -0.008928572) translate(0, -1536)" />
</svg>