<!DOCTYPE svg PUBLIC "-//W3C//DTD SVG 1.1//EN" "http://www.w3.org/Graphics/SVG/1.1/DTD/svg11.dtd">
<svg xmlns="http://www.w3.org/2000/svg" xmlns:xlink="http://www.w3.org/1999/xlink" version="1.1" x="0" y="0" width="16" height="16" overflow="auto" preserveAspectRatio="xMidYMid" baseProfile="tiny" space="preserve">
  <path d="M859 579 L872 -128 Q810 -117 767 -117 Q726 -117 662 -128 L675 579 Q635 648 506.5 874.5 Q378 1101 290 1249 Q202 1397 109 1536 Q167 1521 217 1521 Q260 1521 328 1536 Q391 1425 461.5 1306.5 Q532 1188 628.5 1030 Q725 872 767 803 Q804 864 876.5 980.5 Q949 1097 994 1170.5 Q1039 1244 1099 1346.5 Q1159 1449 1206 1536 Q1260 1522 1313 1522 Q1369 1522 1427 1536 L1427 1536 Q1399 1497 1367 1447.5 Q1335 1398 1317.5 1369 Q1300 1340 1261 1273 Q1222 1206 1212 1189 Q1066 941 859 579 z" pathLength="0" fill="White" transform="translate(1.142858, 0.5714297) scale(0.008928572, -0.008928572) translate(0, -1536)" />
</svg>