<!DOCTYPE svg PUBLIC "-//W3C//DTD SVG 1.1//EN" "http://www.w3.org/Graphics/SVG/1.1/DTD/svg11.dtd">
<svg xmlns="http://www.w3.org/2000/svg" xmlns:xlink="http://www.w3.org/1999/xlink" version="1.1" x="0" y="0" width="16" height="16" overflow="auto" preserveAspectRatio="xMidYMid" baseProfile="tiny" space="preserve">
  <path d="M773 217 L773 90 Q772 -202 767 -215 Q755 -247 716 -255 Q662 -264 534.5 -217 Q407 -170 372 -128 Q359 -113 355 -92 Q354 -80 359 -66 Q363 -56 393 -19 Q423 18 574 197 Q575 197 634 267 Q649 286 673.5 291.5 Q698 297 723 288 Q747 278 760.5 259 Q774 240 773 217 z M624 468 Q621 413 572 398 L452 359 Q177 271 160 271 Q125 273 106 307 Q94 332 89 382 Q81 458 90 548.5 Q99 639 120 673 Q141 707 176 705 Q189 705 378 628 Q448 599 493 581 L577 547 Q600 538 612.5 516.5 Q625 495 624 468 z M1450 171 Q1443 117 1358.5 10 Q1274 -97 1223 -117 Q1186 -131 1160 -110 Q1146 -100 976 177 L929 254 Q915 275 917.5 300 Q920 325 937 346 Q972 389 1020 372 Q1021 371 1139 332 Q1342 266 1381 252.5 Q1420 239 1428 232 Q1456 210 1450 171 z M778 803 Q783 701 724 681 Q666 664 610 752 L232 1350 Q224 1385 251 1412 Q292 1455 458.5 1501.5 Q625 1548 683 1533 Q723 1523 732 1488 Q735 1470 754 1182.5 Q773 895 778 803 z M1440 695 Q1443 656 1414 636 Q1399 626 1085 550 Q1018 535 994 527 L995 529 Q972 523 949 533 Q926 543 912 565 Q882 612 912 652 Q913 653 987 754 Q1112 925 1137 958 Q1162 991 1171 997 Q1199 1016 1236 999 Q1284 976 1359 865.5 Q1434 755 1440 698 L1440 695 z" pathLength="0" fill="White" transform="translate(1.135417, 0.008930691) scale(0.008928572, -0.008928572) translate(0, -1536)" />
</svg>