<!DOCTYPE svg PUBLIC "-//W3C//DTD SVG 1.1//EN" "http://www.w3.org/Graphics/SVG/1.1/DTD/svg11.dtd">
<svg xmlns="http://www.w3.org/2000/svg" xmlns:xlink="http://www.w3.org/1999/xlink" version="1.1" x="0" y="0" width="16" height="16" overflow="auto" preserveAspectRatio="xMidYMid" baseProfile="tiny" space="preserve">
  <path d="M971 292 L971 81 Q971 14 932 14 Q909 14 887 36 L887 337 Q909 359 932 359 Q971 359 971 292 z M1309 291 L1309 245 L1219 245 L1219 291 Q1219 359 1264 359 Q1309 359 1309 291 z M343 509 L450 509 L450 603 L138 603 L138 509 L243 509 L243 -60 L343 -60 L343 509 z M631 -60 L720 -60 L720 434 L631 434 L631 56 Q601 14 574 14 Q556 14 553 35 Q552 38 552 70 L552 434 L463 434 L463 43 Q463 -6 471 -30 Q483 -67 529 -67 Q577 -67 631 -6 L631 -60 z M1060 88 L1060 285 Q1060 358 1051 384 Q1034 440 980 440 Q930 440 887 386 L887 603 L798 603 L798 -60 L887 -60 L887 -12 Q932 -67 980 -67 Q1034 -67 1051 -12 Q1060 15 1060 88 z M1398 98 L1398 111 L1307 111 Q1307 60 1305 50 Q1298 14 1265 14 Q1219 14 1219 83 L1219 170 L1398 170 L1398 273 Q1398 352 1371 389 Q1332 440 1265 440 Q1197 440 1158 389 Q1130 352 1130 273 L1130 100 Q1130 21 1159 -16 Q1198 -67 1267 -67 Q1339 -67 1375 -14 Q1393 13 1396 40 Q1398 49 1398 98 z M790 1011 L790 1221 Q790 1290 747 1290 Q704 1290 704 1221 L704 1011 Q704 941 747 941 Q790 941 790 1011 z M1509 260 Q1509 26 1483 -90 Q1469 -149 1425 -189 Q1381 -229 1323 -235 Q1139 -256 768 -256 Q397 -256 213 -235 Q155 -229 110.5 -189 Q66 -149 53 -90 Q27 22 27 260 Q27 494 53 610 Q67 669 111 709 Q155 749 214 756 Q397 776 768 776 Q1139 776 1323 756 Q1381 749 1425.5 709 Q1470 669 1483 610 Q1509 498 1509 260 z M511 1536 L613 1536 L492 1137 L492 866 L392 866 L392 1137 Q378 1211 331 1349 Q294 1452 266 1536 L372 1536 L443 1273 z M881 1203 L881 1028 Q881 947 853 910 Q816 859 747 859 Q680 859 642 910 Q614 948 614 1028 L614 1203 Q614 1283 642 1320 Q680 1371 747 1371 Q816 1371 853 1320 Q881 1283 881 1203 z M1216 1365 L1216 866 L1125 866 L1125 921 Q1072 859 1022 859 Q976 859 963 896 Q955 920 955 971 L955 1365 L1046 1365 L1046 998 Q1046 965 1047 963 Q1050 941 1068 941 Q1095 941 1125 984 L1125 1365 L1216 1365 z" pathLength="0" fill="White" transform="translate(1.142858, 9.536743E-07) scale(0.008928572, -0.008928572) translate(0, -1536)" />
</svg>