<!DOCTYPE svg PUBLIC "-//W3C//DTD SVG 1.1//EN" "http://www.w3.org/Graphics/SVG/1.1/DTD/svg11.dtd">
<svg xmlns="http://www.w3.org/2000/svg" xmlns:xlink="http://www.w3.org/1999/xlink" version="1.1" x="0" y="0" width="16" height="16" overflow="auto" preserveAspectRatio="xMidYMid" baseProfile="tiny" space="preserve">
  <path d="M1280 640 Q1280 677 1250 694 L738 1014 Q707 1034 673 1016 Q640 998 640 960 L640 320 Q640 282 673 264 Q689 256 704 256 Q724 256 738 266 L1250 586 Q1280 603 1280 640 z M1792 640 Q1792 544 1791 490 Q1790 436 1782.5 353.5 Q1775 271 1760 206 Q1744 133 1691 83 Q1638 33 1567 25 Q1345 0 896 0 Q447 0 225 25 Q154 33 100.5 83 Q47 133 31 206 Q17 271 9.5 353.5 Q2 436 1 490 Q0 544 0 640 Q0 736 1 790 Q2 844 9.5 926.5 Q17 1009 32 1074 Q48 1147 101 1197 Q154 1247 225 1255 Q447 1280 896 1280 Q1345 1280 1567 1255 Q1638 1247 1691.5 1197 Q1745 1147 1761 1074 Q1775 1009 1782.5 926.5 Q1790 844 1791 790 Q1792 736 1792 640 z" pathLength="0" fill="White" transform="translate(0, 7.152557E-07) scale(0.008928572, -0.008928572) translate(0, -1536)" />
</svg>