<!DOCTYPE svg PUBLIC "-//W3C//DTD SVG 1.1//EN" "http://www.w3.org/Graphics/SVG/1.1/DTD/svg11.dtd">
<svg xmlns="http://www.w3.org/2000/svg" xmlns:xlink="http://www.w3.org/1999/xlink" version="1.1" x="0" y="0" width="16" height="16" overflow="auto" preserveAspectRatio="xMidYMid" baseProfile="tiny" space="preserve">
  <path d="M919 233 L919 390 Q919 440 890 440 Q873 440 857 424 L857 200 Q873 184 890 184 Q919 184 919 233 z M1103 355 L1169 355 L1169 389 Q1169 440 1136 440 Q1103 440 1103 389 L1103 355 z M532 621 L532 551 L452 551 L452 128 L378 128 L378 551 L300 551 L300 621 L532 621 z M733 495 L733 128 L666 128 L666 168 Q627 123 590 123 Q557 123 548 151 Q542 167 542 205 L542 495 L608 495 L608 225 Q608 201 609 199 Q610 184 624 184 Q644 184 666 215 L666 495 L733 495 z M985 384 L985 238 Q985 186 978 165 Q966 123 925 123 Q890 123 857 164 L857 128 L790 128 L790 621 L857 621 L857 460 Q889 500 925 500 Q966 500 978 458 Q985 437 985 384 z M1236 255 L1236 246 Q1236 217 1234 203 Q1231 181 1219 163 Q1192 123 1139 123 Q1087 123 1058 161 Q1037 188 1037 247 L1037 376 Q1037 435 1057 462 Q1086 500 1137 500 Q1188 500 1215 462 Q1236 434 1236 376 L1236 300 L1103 300 L1103 235 Q1103 184 1137 184 Q1161 184 1167 210 Q1167 211 1167.5 217 Q1168 223 1168 233.5 L1168 255 L1236 255 z M785 1079 L785 923 Q785 872 753 872 Q721 872 721 923 L721 1079 Q721 1131 753 1131 Q785 1131 785 1079 z M1318 366 Q1318 543 1299 626 Q1289 670 1256 699.5 Q1223 729 1180 734 Q1044 749 768 749 Q493 749 357 734 Q313 729 280.5 699.5 Q248 670 238 626 Q218 539 218 366 Q218 190 238 106 Q248 63 280.5 33 Q313 3 356 -2 Q493 -17 768 -17 Q1043 -17 1180 -2 Q1223 3 1255.5 33 Q1288 63 1298 106 Q1318 190 1318 366 z M563 1017 L653 1313 L578 1313 L527 1118 L474 1313 L396 1313 L420 1244 Q420 1244 443 1175 Q478 1072 489 1017 L489 816 L563 816 L563 1017 z M852 936 L852 1066 Q852 1124 831 1153 Q802 1191 753 1191 Q702 1191 675 1153 Q654 1124 654 1066 L654 936 Q654 878 675 849 Q702 811 753 811 Q802 811 831 849 Q852 876 852 936 z M1033 816 L1100 816 L1100 1186 L1033 1186 L1033 903 Q1011 872 991 872 Q976 872 975 888 Q974 890 974 914 L974 1186 L907 1186 L907 893 Q907 856 913 838 Q924 811 956 811 Q992 811 1033 856 L1033 816 z M1536 1120 L1536 160 Q1536 41 1451.5 -43.5 Q1367 -128 1248 -128 L288 -128 Q169 -128 84.5 -43.5 Q0 41 0 160 L0 1120 Q0 1239 84.5 1323.5 Q169 1408 288 1408 L1248 1408 Q1367 1408 1451.5 1323.5 Q1536 1239 1536 1120 z" pathLength="0" fill="White" transform="translate(1.142857, 1.311302E-06) scale(0.008928572, -0.008928572) translate(0, -1536)" />
</svg>